<svg width="827" height="169" viewBox="0 0 827 169" fill="none" xmlns="http://www.w3.org/2000/svg">
<path d="M81.7383 1.95312H106.152V96.9727C106.152 107.78 103.809 116.829 99.1211 124.121C94.4336 131.413 88.0534 136.914 79.9805 140.625C71.9727 144.271 63.0208 146.094 53.125 146.094C42.9036 146.094 33.7891 144.271 25.7812 140.625C17.7734 136.914 11.4583 131.413 6.83594 124.121C2.27865 116.829 0 107.78 0 96.9727V1.95312H24.4141V96.9727C24.4141 103.809 25.5859 109.44 27.9297 113.867C30.2734 118.229 33.5938 121.452 37.8906 123.535C42.1875 125.618 47.2656 126.66 53.125 126.66C58.9844 126.66 64.0299 125.618 68.2617 123.535C72.5586 121.452 75.8789 118.229 78.2227 113.867C80.5664 109.44 81.7383 103.809 81.7383 96.9727V1.95312Z" fill="white"/>
<path d="M255.605 1.95312V144.141H231.094L167.324 42.2852V144.141H142.812V1.95312H167.324L231.289 104.004V1.95312H255.605Z" fill="white"/>
<path d="M438.594 97.8516H463.008C462.227 107.161 459.622 115.462 455.195 122.754C450.768 129.98 444.551 135.677 436.543 139.844C428.535 144.01 418.802 146.094 407.344 146.094C398.555 146.094 390.645 144.531 383.613 141.406C376.582 138.216 370.56 133.724 365.547 127.93C360.534 122.07 356.693 115.007 354.023 106.738C351.419 98.4701 350.117 89.2253 350.117 79.0039V67.1875C350.117 56.9661 351.452 47.7214 354.121 39.4531C356.855 31.1849 360.762 24.1211 365.84 18.2617C370.918 12.3372 377.005 7.8125 384.102 4.6875C391.263 1.5625 399.303 0 408.223 0C419.551 0 429.121 2.08333 436.934 6.25C444.746 10.4167 450.801 16.1784 455.098 23.5352C459.46 30.8919 462.129 39.3229 463.105 48.8281H438.691C438.04 42.7083 436.608 37.4674 434.395 33.1055C432.246 28.7435 429.056 25.4232 424.824 23.1445C420.592 20.8008 415.059 19.6289 408.223 19.6289C402.624 19.6289 397.741 20.6706 393.574 22.7539C389.408 24.8372 385.924 27.8971 383.125 31.9336C380.326 35.9701 378.21 40.9505 376.777 46.875C375.41 52.7344 374.727 59.4401 374.727 66.9922V79.0039C374.727 86.1654 375.345 92.6758 376.582 98.5352C377.884 104.329 379.837 109.31 382.441 113.477C385.111 117.643 388.496 120.866 392.598 123.145C396.699 125.423 401.615 126.562 407.344 126.562C414.31 126.562 419.941 125.456 424.238 123.242C428.6 121.029 431.888 117.806 434.102 113.574C436.38 109.277 437.878 104.036 438.594 97.8516Z" fill="white"/>
<path d="M521.445 1.95312V144.141H496.934V1.95312H521.445Z" fill="white"/>
<path d="M674.707 1.95312V144.141H650.195L586.426 42.2852V144.141H561.914V1.95312H586.426L650.391 104.004V1.95312H674.707Z" fill="white"/>
<path d="M789.199 125.195L826.602 154.883L810.684 168.848L773.965 139.453L789.199 125.195ZM826.895 69.1406V76.9531C826.895 87.6953 825.495 97.3307 822.695 105.859C819.896 114.388 815.892 121.647 810.684 127.637C805.475 133.626 799.258 138.216 792.031 141.406C784.805 144.531 776.797 146.094 768.008 146.094C759.284 146.094 751.309 144.531 744.082 141.406C736.921 138.216 730.703 133.626 725.43 127.637C720.156 121.647 716.055 114.388 713.125 105.859C710.26 97.3307 708.828 87.6953 708.828 76.9531V69.1406C708.828 58.3984 710.26 48.7956 713.125 40.332C715.99 31.8034 720.026 24.5443 725.234 18.5547C730.508 12.5 736.725 7.91016 743.887 4.78516C751.113 1.59505 759.089 0 767.812 0C776.602 0 784.609 1.59505 791.836 4.78516C799.128 7.91016 805.378 12.5 810.586 18.5547C815.794 24.5443 819.798 31.8034 822.598 40.332C825.462 48.7956 826.895 58.3984 826.895 69.1406ZM802.285 76.9531V68.9453C802.285 61.0026 801.504 54.0039 799.941 47.9492C798.444 41.8294 796.198 36.7188 793.203 32.6172C790.273 28.4505 786.66 25.3255 782.363 23.2422C778.132 21.0938 773.281 20.0195 767.812 20.0195C762.474 20.0195 757.689 21.0938 753.457 23.2422C749.225 25.3255 745.612 28.4505 742.617 32.6172C739.622 36.7188 737.344 41.8294 735.781 47.9492C734.219 54.0039 733.438 61.0026 733.438 68.9453V76.9531C733.438 84.8958 734.219 91.9271 735.781 98.0469C737.344 104.167 739.622 109.342 742.617 113.574C745.677 117.741 749.323 120.898 753.555 123.047C757.852 125.13 762.669 126.172 768.008 126.172C773.477 126.172 778.327 125.13 782.559 123.047C786.79 120.898 790.371 117.741 793.301 113.574C796.23 109.342 798.444 104.167 799.941 98.0469C801.504 91.9271 802.285 84.8958 802.285 76.9531Z" fill="white"/>
</svg>
