<svg xmlns="http://www.w3.org/2000/svg" width="520" height="520" viewBox="0 0 520 520"><defs><style>.cls-1{fill:#231f20;}.cls-2{opacity:0.35;}</style></defs><title>notioly upgrade</title><g id="n.112_Scalability" data-name="n.112 Scalability"><path class="cls-1" d="M361,187.48s28.22-41.37-4.47-69.48a4.64,4.64,0,0,0-5.22-2.52s5.38-41-28.42-61c0,0-32.21-16.07-54.32-6.91,0,0-13.32-33.47-58.22-8.25,0,0-11.14,7.52-15,17.62,0,0-21.52-14.1-37.94,2s-.87,31.68,8.52,33.26c0,0-19.49.53-21.27,25,0,0,3.24,12.58,13.33,19.17,2.38,4.78,5.75,14.12,1.71,23.24-5.77,13-30.18,26-24.29,43S148,219.19,148,219.19s-15.8,20.28,6.94,31.7,38.1,1.51,40.47-.83c0,0,5.53-10.43,21.53-13.9,0,0,5.34,18.29,33.87,6.58,0,0,14-8.15,17.5-11.81,0,0,25-11.74,57.47,17.18,0,0,28.48,9.81,45.66-22.1C371.41,226,386.91,213.37,361,187.48ZM291.73,157s-6.4,58.85-55.35,57.64c0,0-38.73,0-60.09-74.51,4.56,4,6.17,2.7,17.15-6.77,0,0,24.1,5.59,35.73-20.49,0,0,24.46,4.76,37-14.31.37-.56.24-.28.21.39-.31,6.16,2.18,20.21,20.85,27,0,0,15.69-16,26.79,1C314,126.92,321.1,146.21,291.73,157Z"/><path class="cls-1" d="M253.42,215.21A37.83,37.83,0,0,1,238.19,217a42.15,42.15,0,0,1-14.6-4.12,53.74,53.74,0,0,1-9.38-5.63,75.69,75.69,0,0,1-13.54-13.34,112.5,112.5,0,0,1-10.45-15.68,165.17,165.17,0,0,1-7.37-14.92,93.58,93.58,0,0,1-6.33-20.24c-.4-2.17.26-2,1.39-.39a34.83,34.83,0,0,1,2,3.39c.38.71.78,1.48,1.15,2.31s.7,1.73,1.05,2.66c.6,1.65,1.18,3.31,1.86,4.94l1,2.45,1.06,2.42q2,4.86,4.39,9.59a134.81,134.81,0,0,0,10.88,18.1,71.84,71.84,0,0,0,8.39,9.72,67.89,67.89,0,0,0,10.11,8,44.42,44.42,0,0,0,12.7,5.73,34.08,34.08,0,0,0,13.78.81,16.89,16.89,0,0,0,2.1-.4c.7-.17,1.4-.3,2.09-.49l2.05-.67,1-.34c.34-.12.66-.28,1-.42a33.29,33.29,0,0,0,3.9-1.88l1.9-1.05,1.81-1.21c7.34-4.84,12.86-12.17,16.87-20.05a140.66,140.66,0,0,0,7.65-19.06c.48-1.43.95-2.84,1.43-4.29,1.87-5.37,2.81-7,4.32-7.7a5.2,5.2,0,0,1,1-.49c.91-.23.89,2.22-.32,6.2-1.78,5.9-3.74,12-6.21,18a89.75,89.75,0,0,1-9.33,17.71A50.86,50.86,0,0,1,267,207.93a48.1,48.1,0,0,1-13.54,7.37Z"/><path class="cls-1" d="M311.14,129.81a11.58,11.58,0,0,0-3.86-6.24A10.76,10.76,0,0,0,303.9,122a14,14,0,0,0-3.89-.37,13.45,13.45,0,0,0-5.49,1.59l-1.08.63-1,.76c-.32.26-.59.57-.9.85a2.55,2.55,0,0,0-.4.47l-.69.89-.37.48-.09.11h-.46l-1.21,0a3.51,3.51,0,0,1-.57,0l-.41,0a7,7,0,0,1-.8-.11,17.16,17.16,0,0,1-3-.83,29,29,0,0,1-10-6.62,34,34,0,0,1-6.31-8.4,20.47,20.47,0,0,1-2.12-6.45,13.32,13.32,0,0,1,.8-6.79c.58-1.31.89-.9.92.3a40.79,40.79,0,0,0,.43,5.44,16.92,16.92,0,0,0,.72,3,25.71,25.71,0,0,0,4.72,8,33.3,33.3,0,0,0,9.73,7.91,14.67,14.67,0,0,0,3.47,1.29,7.12,7.12,0,0,0,.9.17,5.51,5.51,0,0,0,.9.1l.48,0h.16c.05,0,.07-.09.1-.13l.4-.56c.25-.3.52-.58.78-.87a14.09,14.09,0,0,1,1.73-1.55,15.37,15.37,0,0,1,4-2.12,16.59,16.59,0,0,1,4.87-.92,15.83,15.83,0,0,1,4.93.55,12.83,12.83,0,0,1,4.54,2.23c.33.27.67.54,1,.83l.86,1a8.59,8.59,0,0,1,.74,1,10,10,0,0,1,.66,1,17.43,17.43,0,0,1,2.07,11.61,22.16,22.16,0,0,1-3.14,8.28,29.51,29.51,0,0,1-5.74,6.6,26,26,0,0,1-5.68,3.75,18.47,18.47,0,0,1-6.67,1.84,19.67,19.67,0,0,1-3.07,0,13.4,13.4,0,0,1-2.38-.44,9.28,9.28,0,0,1-1.52-.62,2.64,2.64,0,0,1-1.34-1.46,3.47,3.47,0,0,1-.25-.75c0-.37.35-.58,1-.64a10.09,10.09,0,0,1,1.22,0c.47,0,1,.05,1.6.11a20,20,0,0,0,10.08-1.81,23,23,0,0,0,8.2-6.79,20.27,20.27,0,0,0,2.14-3.38,17.29,17.29,0,0,0,1.43-3.69,14.37,14.37,0,0,0,.1-7.64Z"/><path class="cls-1" d="M250.29,112.41A37.42,37.42,0,0,1,242,115c-.53.07-1,.17-1.57.26s-1.06.13-1.58.17a24.07,24.07,0,0,1-10.94-2c-.76-.3-1.47-.73-2.21-1.08s-1.43-.81-2.08-1.3a13.26,13.26,0,0,1-4.42-4.36c-.3-.59,0-.73.77-.67a5.52,5.52,0,0,1,1.27.29,4.39,4.39,0,0,1,1.38.7,25.82,25.82,0,0,0,10,5.21,18.68,18.68,0,0,0,7.08.17,31.76,31.76,0,0,0,7.71-2,34.12,34.12,0,0,0,4.49-2.13A33.57,33.57,0,0,0,258,103.9a33.09,33.09,0,0,0,3.8-4.34c.28-.32.51-.66.77-1,1-1.21,1.43-1.51,2.22-1.38a2.82,2.82,0,0,1,.52.09c.51.16.51,1,0,2.1A25.17,25.17,0,0,1,257.8,108a39.9,39.9,0,0,1-7.47,4.51Z"/><path class="cls-1" d="M199.87,130.92a25.56,25.56,0,0,0,9-.68,12.31,12.31,0,0,0,1.59-.52c.53-.19,1.06-.38,1.57-.6a27.15,27.15,0,0,0,5.28-2.71,23.92,23.92,0,0,0,4.47-3.94,16.46,16.46,0,0,0,2.68-4.52,42.27,42.27,0,0,0,1.74-6.5c.19-.7.66-.64,1.21,0a6.1,6.1,0,0,1,.82,1.41,3.53,3.53,0,0,1,.26,2.06c-.05.33-.07.67-.14,1l-.24,1a11.53,11.53,0,0,1-.59,1.92c-.28.61-.5,1.24-.83,1.82l-1,1.73a22,22,0,0,1-5.49,5.6,35.75,35.75,0,0,1-8.2,4.62,30.22,30.22,0,0,1-10.13,1.82,23.79,23.79,0,0,1-6.33-.85,17.26,17.26,0,0,1-8.23-5.09,16.34,16.34,0,0,1-3.74-6.54,8.38,8.38,0,0,1-.38-1.63c-.06-.52-.1-1-.11-1.31a3.72,3.72,0,0,1,.19-.89,1.58,1.58,0,0,1,.81-1,2.52,2.52,0,0,1,.51-.27c.56-.16,1.09.63,1.44,1.9a21.75,21.75,0,0,0,2.17,5.2,13.14,13.14,0,0,0,3.71,4c.54.42,1.17.73,1.76,1.1a17.89,17.89,0,0,0,2,.84,17.26,17.26,0,0,0,4.25,1Z"/><path class="cls-1" d="M147.51,121.67a22.69,22.69,0,0,0,6.62,11.65,29.67,29.67,0,0,0,12.23,6.47,29.17,29.17,0,0,0,9,.36,35.63,35.63,0,0,0,8-1.74l1.23-.44,1.19-.51c.81-.3,1.56-.7,2.34-1.06l1.11-.59c.39-.19.69-.46,1.07-.64a6.86,6.86,0,0,0,1-.67l.51-.35c.16-.13.3-.27.45-.41.74-.65,1.17-.35,1.07.83a5.8,5.8,0,0,1-.76,2.27,6.46,6.46,0,0,1-2.19,2.33,27.55,27.55,0,0,1-2.62,1.5,23.74,23.74,0,0,1-2.75,1.08,39.91,39.91,0,0,1-5.64,1.45,37,37,0,0,1-11.66.37c-.59-.09-1.2-.23-1.8-.33l-1.75-.44a17.85,17.85,0,0,1-1.72-.52,16.46,16.46,0,0,1-1.71-.6A27.25,27.25,0,0,1,145,125.76a25.56,25.56,0,0,1-1.49-9.52,31.71,31.71,0,0,1,4.36-13.67c.48-.79.91-1.61,1.44-2.36l.76-1.16.83-1.1c.53-.77,1.19-1.43,1.79-2.14a23.61,23.61,0,0,1,2.06-1.93,14.36,14.36,0,0,1,2-1.48c2.81-1.56,4.06-1.31,4.84-.65a5.1,5.1,0,0,1,.5.36c.17.2,0,.46-.42.92a2.66,2.66,0,0,1-.79.62c-.32.19-.67.49-1.08.73-.61.36-1.18.83-1.78,1.21s-1.12.92-1.67,1.4a27.44,27.44,0,0,0-3,3.34,33.7,33.7,0,0,0-4.54,8.06,26,26,0,0,0-1.7,6.6c-.08.55-.07,1.08-.11,1.62a15.91,15.91,0,0,0,.06,1.7l0,.84c0,.28.09.56.13.84a13.44,13.44,0,0,0,.3,1.66Z"/><path class="cls-1" d="M148.86,66.07a26.5,26.5,0,0,1,9.07-10.83c.7-.5,1.41-1,2.12-1.45a21,21,0,0,1,2.23-1.23,34.69,34.69,0,0,1,17.29-3.22,31.15,31.15,0,0,1,7.71,1.44,22.79,22.79,0,0,1,4.6,2.12,14.48,14.48,0,0,1,3.69,3.46c.63.85.1,1.09-.94,1a16,16,0,0,1-4.09-1.22,23.13,23.13,0,0,0-4-1.74,37.88,37.88,0,0,0-4.29-1.07,34,34,0,0,0-9.09-.32,26.8,26.8,0,0,0-10.66,3.74,25.05,25.05,0,0,0-9,8.39c-.33.54-.63,1.11-.94,1.67s-.55,1.15-.77,1.75-.47,1.2-.61,1.83a12.41,12.41,0,0,0-.4,1.81,14.37,14.37,0,0,0,.71,5.62A20.13,20.13,0,0,0,154,83a17.62,17.62,0,0,0,6.63,5.79c.59.26,1.15.53,1.73.81a18.37,18.37,0,0,1,2.32,1.12,2.63,2.63,0,0,1,1,1,5.46,5.46,0,0,1,.28.51c.08.25-.16.41-.68.52a6.38,6.38,0,0,1-2.36,0,16.82,16.82,0,0,1-8.34-4.24,23.44,23.44,0,0,1-5.66-7.88,19.93,19.93,0,0,1-1.78-7.25v-1c0-.34.07-.72.11-1.08a7,7,0,0,1,.18-1l.22-.89a15.48,15.48,0,0,1,.53-1.76,14.88,14.88,0,0,1,.66-1.72Z"/><path class="cls-1" d="M260.81,41a39.32,39.32,0,0,0-16.89-7.54c-1.12-.26-2.27-.34-3.41-.49s-2.28-.19-3.43-.2A43.38,43.38,0,0,0,225,34a41.74,41.74,0,0,0-11.26,4.68,39.91,39.91,0,0,0-8.48,6.83c-.82.82-1.54,1.74-2.31,2.61s-1.43,1.85-2.15,2.76-1.35,1.9-2.06,2.83-1.3,1.94-2,2.89c-.84,1.19-1.34.71-1.3-.72a11.67,11.67,0,0,1,.52-2.77,15.45,15.45,0,0,1,1.69-3.46,48.75,48.75,0,0,1,10.4-11,42.15,42.15,0,0,1,13.53-6.93A50.25,50.25,0,0,1,240,29.64a45.31,45.31,0,0,1,19.29,6.16c.88.49,1.69,1.11,2.54,1.66s1.63,1.21,2.37,1.91c.38.34.77.67,1.13,1l1.07,1.1c.37.35.68.77,1,1.15l.39.47c.08.09.14.2.22.31l.13.19.17.24.09.13s.09,0,.13,0,.31-.24.47-.37l1.39-1.13a40.1,40.1,0,0,1,3.86-2.73,36.71,36.71,0,0,1,8.59-4,33.45,33.45,0,0,1,14.47-1.28,26.29,26.29,0,0,1,3.16.61c3.88,1.09,4.93,1.95,5.36,3a3.6,3.6,0,0,1,.26.76c.06.77-1.56.56-4.2-.06a38.73,38.73,0,0,0-12-1,30.51,30.51,0,0,0-11.62,3.51,37.43,37.43,0,0,0-4.86,3.12c-.39.29-.77.59-1.15.9l-.58.48-1.17,1a6.61,6.61,0,0,1-1.18.84,2.43,2.43,0,0,1-1.12.26c-.39,0-.7-.27-1-.47l-1-.64c-.37-.51-.67-1-1.11-1.53l-.59-.7a13.4,13.4,0,0,0-1.15-1.24,12.6,12.6,0,0,0-1.24-1.18c-.42-.38-.85-.76-1.32-1.11Z"/><path class="cls-1" d="M338.26,72.68A63.24,63.24,0,0,0,325.11,59a63.76,63.76,0,0,0-5.82-3.79,65.4,65.4,0,0,0-23-8.44c-.9-.14-1.8-.35-2.72-.43l-2.75-.24c-.91-.07-1.83-.2-2.74-.2l-2.75,0c-4.69-.06-9.37.49-14.07.7-1.47.05-1.39-.71-.23-1.58a12.86,12.86,0,0,1,6.19-2.15l3.71-.21,1.86-.08,1.86,0,3.72.1c1.24.06,2.48.22,3.72.34a71.19,71.19,0,0,1,7.38,1.16c1.23.25,2.43.62,3.64.93l1.81.5c.59.18,1.18.41,1.77.61a75.27,75.27,0,0,1,16.6,7.65,65.63,65.63,0,0,1,15,13.38,68.41,68.41,0,0,1,7,10.18,69.79,69.79,0,0,1,6.87,17.31,50.84,50.84,0,0,1,1.8,14.31,24.09,24.09,0,0,1-.3,3.26,20.39,20.39,0,0,1-.67,2.55,8.33,8.33,0,0,1-.85,1.63,2.88,2.88,0,0,1-1.93,1.19,6.27,6.27,0,0,1-.76.15c-.33,0-.39-.44-.41-1.2a3.09,3.09,0,0,1,0-.6,5.93,5.93,0,0,0,.09-.68,8.63,8.63,0,0,1,.37-1.64,36.6,36.6,0,0,0,.38-11.87,61.54,61.54,0,0,0-2.89-12.27c-.57-1.47-1.05-3-1.73-4.42-.32-.73-.61-1.47-.95-2.19l-1.07-2.13c-.34-.72-.73-1.42-1.13-2.1l-1.18-2.08c-.89-1.32-1.69-2.71-2.67-4Z"/><path class="cls-1" d="M371,158a49.76,49.76,0,0,0,.38-12.43c-.1-.75-.19-1.51-.34-2.25s-.31-1.48-.43-2.22a34.9,34.9,0,0,0-6.18-14.64,25,25,0,0,0-2.34-2.7c-.42-.42-.88-.8-1.32-1.2l-.67-.59-.71-.53a43.82,43.82,0,0,0-3.81-2.5c-.67-.36-1.33-.74-2-1.13s-1.32-.79-2-1.21c-.81-.54-.51-1,.53-1.34a8.33,8.33,0,0,1,2.06-.29,6,6,0,0,1,2.57.66,30.41,30.41,0,0,1,14.05,14.64,51.35,51.35,0,0,1,4,11.77,51.53,51.53,0,0,1,.51,13.52,60.64,60.64,0,0,1-1.28,8.17,70.76,70.76,0,0,1-3.84,11.86,75.38,75.38,0,0,1-4.1,8.67c-.36.62-.67,1.24-1.09,1.83a7.08,7.08,0,0,1-1.92,2.08,2.31,2.31,0,0,1-1.65.23,5.62,5.62,0,0,1-.7-.12c-.33-.13-.42-.48-.42-1.06a4.21,4.21,0,0,1,.68-2.11,93.78,93.78,0,0,0,6.94-15,59,59,0,0,0,3-12.16Z"/><path class="cls-1" d="M358.22,239A36.87,36.87,0,0,0,368,228.29a29.84,29.84,0,0,0,2.17-4.79,27.12,27.12,0,0,0,1.83-9,35,35,0,0,0-1.22-9.41,36.14,36.14,0,0,0-3.11-7.92,29.75,29.75,0,0,0-2.9-4.52c-.52-.73-1.08-1.4-1.63-2.1a20.74,20.74,0,0,0-1.87-1.88c-.81-.74-.49-1.13.69-1.06a8.15,8.15,0,0,1,1,.14,9.33,9.33,0,0,1,1.25.43,6.18,6.18,0,0,1,1.37.71,8.84,8.84,0,0,1,1.36,1.05,29.42,29.42,0,0,1,3.69,5,32.66,32.66,0,0,1,2.54,5.51,41.81,41.81,0,0,1,1.65,5.81,33.59,33.59,0,0,1,.75,6,39.2,39.2,0,0,1-.4,7.48,29.32,29.32,0,0,1-2.14,7.22,38.69,38.69,0,0,1-9.62,13,47.08,47.08,0,0,1-8,5.78,51,51,0,0,1-13.81,5.41,45.19,45.19,0,0,1-11.35,1.47,21.74,21.74,0,0,1-2.55-.1c-3.17-.36-4.09-1.06-4.47-2.18a3.48,3.48,0,0,1-.24-.78c-.06-.84,1.28-1.12,3.38-1a49.92,49.92,0,0,0,18.94-2.62,44.48,44.48,0,0,0,12.84-6.92Z"/><path class="cls-1" d="M133.93,192.57a28.79,28.79,0,0,1,3.67-8,47.29,47.29,0,0,1,5.36-6.64c1.38-1.5,2.74-3,4.16-4.39,2.51-2.46,5-4.86,7.18-7.46a28.54,28.54,0,0,0,2.89-4,17.68,17.68,0,0,0,1.66-4.55,22.12,22.12,0,0,0-.19-8.8,68.23,68.23,0,0,0-3.86-10.8c-.5-1.1.06-1.31,1.19-.77a9.6,9.6,0,0,1,2,1.4,6.84,6.84,0,0,1,2,2.66c.47,1,.85,2,1.23,3a30.53,30.53,0,0,1,.87,3.15,28.67,28.67,0,0,1,.7,6.56,22.7,22.7,0,0,1-1.1,6.65c-.2.54-.38,1.08-.6,1.61l-.77,1.55a19.26,19.26,0,0,1-1.93,2.76,148.06,148.06,0,0,1-10.37,11.19,74.41,74.41,0,0,0-5.48,5.94,27.59,27.59,0,0,0-4.17,6.65,20.81,20.81,0,0,0-1.78,9.35,18.8,18.8,0,0,0,1.51,7.08,15.1,15.1,0,0,0,4.18,5.75,13.79,13.79,0,0,0,4.81,2.48c.43.13.88.18,1.32.28l.65.13c.22,0,.45,0,.67,0l1.34.09,1.34-.09c.78,0,1.53-.26,2.32-.33a5.64,5.64,0,0,0,1-.18l.84-.17c.51-.08.93-.13,1.29-.17a3,3,0,0,1,1.72.39,4.61,4.61,0,0,1,.63.32c.26.19.13.51-.31,1a6.31,6.31,0,0,1-.94.85,5.21,5.21,0,0,1-1.51.78l-1.35.51c-.45.16-.94.24-1.41.36a10.17,10.17,0,0,1-1.46.28l-1.5.1-.75,0c-.26,0-.51,0-.77,0l-1.53-.13c-.51-.05-1-.2-1.52-.3a8.63,8.63,0,0,1-1.51-.41l-1.48-.55a13.52,13.52,0,0,1-1.42-.72,16.73,16.73,0,0,1-2.64-1.78,11,11,0,0,1-1.18-1.08,12.06,12.06,0,0,1-1.1-1.16,18.66,18.66,0,0,1-1.82-2.6,21.93,21.93,0,0,1-2.84-8.76,29,29,0,0,1,.6-9.05Z"/><path class="cls-1" d="M162,257.63a33.28,33.28,0,0,1-12.89-5.75,24.46,24.46,0,0,1-3.91-3.49,25.65,25.65,0,0,1-4.59-7.9,16.66,16.66,0,0,1-1.09-4.54,24.64,24.64,0,0,1,.07-4.55,28.57,28.57,0,0,1,1.83-7.73,18.19,18.19,0,0,1,2.52-4.55,8.35,8.35,0,0,1,4.41-3.09c1.14-.31,1.1.47.69,1.52-.1.27-.22.54-.35.82s-.24.65-.37,1-.3.62-.47.93a4,4,0,0,1-.29.43c-.1.14-.2.31-.31.46a13.73,13.73,0,0,0-1.14,1.68,20.09,20.09,0,0,0-.91,1.93,29.79,29.79,0,0,0-1.32,4.17,25.11,25.11,0,0,0-.63,4.39,15.4,15.4,0,0,0,.26,4.27,16.72,16.72,0,0,0,2.19,5.06,24.08,24.08,0,0,0,3.56,4.31,26.91,26.91,0,0,0,10.81,6.1,38.32,38.32,0,0,0,7.78,1.47,43.55,43.55,0,0,0,21-3c.64-.22,1.25-.5,1.88-.73s1.09-.39,1.51-.51a5.1,5.1,0,0,1,1.1-.18,2.11,2.11,0,0,1,1.5.47,4.26,4.26,0,0,1,.6.45c.52.55-.19,1.6-1.9,2.64A43.9,43.9,0,0,1,176,258.54a49.43,49.43,0,0,1-14-.81Z"/><path class="cls-1" d="M176.39,272.39q3.74-6,7.94-11.61c1-1.38,2-2.79,3.08-4.12,1.92-2.35,4-4.6,6.08-6.77a72.72,72.72,0,0,1,6.83-6,57.31,57.31,0,0,1,6.72-4.59c.74-.47,1.54-.83,2.33-1.23a17,17,0,0,1,2.45-1,14.19,14.19,0,0,1,2.59-.63,11.29,11.29,0,0,1,2.66-.15c1.13.14,1,.57.18,1.39a10.64,10.64,0,0,1-1.58,1.29,8.27,8.27,0,0,1-1,.71c-.36.21-.76.34-1.16.53a38.8,38.8,0,0,0-8.45,4.53,87.41,87.41,0,0,0-7.77,6.3,67.45,67.45,0,0,0-8.21,9.38c-2.83,3.63-5.49,7.42-8,11.32-1.55,2.39-3,4.83-4.46,7.3-2.15,3.76-4.24,7.58-6.05,11.47-1.41,3-2.53,6.12-3.66,9.21l-.74,2c-1,2.51-1.49,3.22-2.56,3.46a4,4,0,0,1-.72.15c-.74,0-.94-1.25-.44-3.23a62.09,62.09,0,0,1,3-8.74c1.2-2.89,2.55-5.76,4-8.6,2.13-4.21,4.48-8.33,6.92-12.38Z"/><path class="cls-1" d="M333.72,257.06c5.43,7,10.23,14.26,15,21.55s9.39,14.73,13.79,22.26c3.25,5.49,6.42,11,9.44,16.61a397,397,0,0,1,26.77,61.73c1.56,4.73,3.09,9.46,4.53,14.24A145.14,145.14,0,0,1,407,407.94a65.92,65.92,0,0,1,1.31,9.58,45.52,45.52,0,0,1-.51,9.75,37.68,37.68,0,0,1-2.77,9.39,30.08,30.08,0,0,1-5.29,8.23c-1.39,1.49-2.18,1.94-2.3,1.73s.33-1.14,1.1-2.63a61.91,61.91,0,0,0,2.77-6.16,63.94,63.94,0,0,0,2.64-9,42.57,42.57,0,0,0,1-9.15,53.29,53.29,0,0,0-.9-9.27,149.36,149.36,0,0,0-4.63-18.53c-3.75-12.34-7.94-24.51-12.85-36.53-2.93-7.18-6.24-14.38-9.75-21.53s-7.35-14.19-11.21-21.13q-12.84-22.84-27.84-44.42c-6.16-8.76-12.74-17.34-20.93-24.11a56.86,56.86,0,0,0-10-6.7,45.91,45.91,0,0,0-11.27-4A63.07,63.07,0,0,0,283.65,232a37,37,0,0,0-11.69,1.4c-.36.12-.73.21-1.08.35l-1,.43a15.83,15.83,0,0,0-2,1,2.13,2.13,0,0,0-.36.21l-.44.35-.92.75L264.3,238c-.62.49-1.22,1-1.86,1.47l-2,1.35a50.14,50.14,0,0,1-22.12,8.89,28.07,28.07,0,0,1-8.69-.57,20.82,20.82,0,0,1-10.14-5.74,11.28,11.28,0,0,1-1.75-2.61,10,10,0,0,1-.39-1.11,3.75,3.75,0,0,1-.18-1,11.55,11.55,0,0,1-.11-1.6c.3-1.22,2.17,2.65,8.09,6.09a20.4,20.4,0,0,0,7.21,2.4l.95.16c.32,0,.65,0,1,0l2,.07c.64,0,1.3-.1,1.95-.14s1.31-.07,2-.2a42.75,42.75,0,0,0,15.1-5.88c1.21-.69,2.33-1.54,3.51-2.3.58-.4,1.17-.77,1.74-1.19l1.66-1.31,1.67-1.32.84-.66.41-.33a3.92,3.92,0,0,1,.82-.54,23.55,23.55,0,0,1,4.53-2,36.4,36.4,0,0,1,9.32-1.58,57.9,57.9,0,0,1,9.23.33,63.93,63.93,0,0,1,13.35,2.95,49.72,49.72,0,0,1,12.25,6.32c7.51,5.25,13.66,12,19.17,18.94Z"/><path class="cls-1" d="M245.63,258.58a47.85,47.85,0,0,1-8.5,1.94c-.53.06-1,.14-1.58.22s-1.07.11-1.6.13a21.93,21.93,0,0,1-11-2.45,23.93,23.93,0,0,1-2.17-1.3,18.68,18.68,0,0,1-2-1.58,11,11,0,0,1-1.14-1.12,11.87,11.87,0,0,1-1-1.21c-.31-.44-.57-.91-.83-1.37s-.42-1-.64-1.44.18-.73.86-.52a8.53,8.53,0,0,1,2.5,1.41,20.18,20.18,0,0,0,9.21,6,18.09,18.09,0,0,0,7.09.3,39.22,39.22,0,0,0,7.89-1.72c1.6-.51,3.19-1.08,4.74-1.74a52.7,52.7,0,0,0,6.89-3.44c1.69-1,3.24-2.25,4.8-3.44.34-.26.66-.53,1-.79,1.34-.9,1.95-.93,2.66-.57a4.3,4.3,0,0,1,.48.26c.45.33.2,1.12-.58,2.12a33.33,33.33,0,0,1-9.08,6.83,56.76,56.76,0,0,1-8,3.55Z"/><path class="cls-1" d="M156.37,321.72a26.15,26.15,0,0,1,8-1.06,17.57,17.57,0,0,1,3,.21,13,13,0,0,1,5.09,2.11,5.27,5.27,0,0,1,2,2.63,3.32,3.32,0,0,1,.08,1.82,3.23,3.23,0,0,1-.32.85l-.19.41-.28.38a5.58,5.58,0,0,1-2.17,1.63,12.45,12.45,0,0,1-2.23.75,23.93,23.93,0,0,1-5.25.78c-.44,0-.74-.72-.47-1.63a3.09,3.09,0,0,1,2.17-2.06,19.42,19.42,0,0,0,4.5-1.12,3.56,3.56,0,0,0,.52-.32s0-.05.06-.07h0L171,327a.31.31,0,0,0,.12-.2c0-.05,0-.1,0-.17a1.31,1.31,0,0,0-.15-.28,3.91,3.91,0,0,0-2.12-1.23,14.48,14.48,0,0,0-2.92-.47,20.87,20.87,0,0,0-6.79.47,21.93,21.93,0,0,0-4.07,1.38,13.81,13.81,0,0,0-2.7,1.52l-.46.45a2.91,2.91,0,0,0-.25.42,1.3,1.3,0,0,0,0,.95A5.29,5.29,0,0,0,153,331.5c.59.56,1.25,1.11,1.91,1.69.29.25.61.49.89.77,1.05,1.06,1.17,1.65.59,2.53a4.07,4.07,0,0,1-.4.59c-.52.6-1.37.57-2.23,0a26.43,26.43,0,0,1-3.89-3.12,6.82,6.82,0,0,1-2.18-4.16l0-1.23.34-1.19c.18-.37.41-.72.61-1.08a2.55,2.55,0,0,1,.49-.63l.5-.53a7.89,7.89,0,0,1,1-.8,7.2,7.2,0,0,1,1-.62,10.17,10.17,0,0,1,.95-.53,26.1,26.1,0,0,1,3.8-1.55Z"/><path class="cls-1" d="M156.27,334.56a31.65,31.65,0,0,1,8,.44,26,26,0,0,1,2.86.61,19.48,19.48,0,0,1,2.47.93c.41.19.81.39,1.22.62A12.11,12.11,0,0,1,172,338a5.14,5.14,0,0,1,1.86,2.7,3.12,3.12,0,0,1-.13,1.87,4.1,4.1,0,0,1-.4.75,5.73,5.73,0,0,1-.48.6,8.89,8.89,0,0,1-1.93,1.54,10,10,0,0,1-2.22.9,47.43,47.43,0,0,1-5.35.9c-.52.06-.67-.46-.37-1.14a3.33,3.33,0,0,1,2.18-1.78c1.91-.46,3.49-.74,4.53-1.48a4.57,4.57,0,0,0,1.24-1.19c0-.12.09-.1.08-.17s-.09-.24-.26-.44a6.59,6.59,0,0,0-2.34-1.3,22.72,22.72,0,0,0-3-.8,32.25,32.25,0,0,0-7.08-.75,18.46,18.46,0,0,0-4.29.53,8.62,8.62,0,0,0-2.79,1.23,3.43,3.43,0,0,0-1.43,2.18c-.2,1.32.74,2.66,1.79,3.81l.76.74c.93,1,1.12,1.39.73,2.3a5.8,5.8,0,0,1-.27.62c-.35.63-1.22.69-2.22,0a10.58,10.58,0,0,1-3.83-4.33,7,7,0,0,1-.59-3.69,6.48,6.48,0,0,1,1.64-3.56,9.51,9.51,0,0,1,4.23-2.7,20.17,20.17,0,0,1,4.24-.92Z"/><path class="cls-1" d="M167,352.07a11,11,0,0,0-3.8-1.25,30.5,30.5,0,0,0-4.53-.43c-1.13,0-2.25.09-3.38.14a40.33,40.33,0,0,0-5.93.69,22.65,22.65,0,0,0-2.81.72,10.11,10.11,0,0,0-1.23.52,2.82,2.82,0,0,0-.9.69,3,3,0,0,0-.66,3.69,6.69,6.69,0,0,0,1.93,2.13c.82.57,1.58,1.29,2.51,1.84.55.35.33,1-.52,1.47a4.09,4.09,0,0,1-1.73.46,3.51,3.51,0,0,1-2.19-.55,10.07,10.07,0,0,1-3.07-3.38,5.6,5.6,0,0,1-.51-1.17,5.69,5.69,0,0,1-.31-1.31,6.53,6.53,0,0,1,0-1.4,9.22,9.22,0,0,1,.27-1.37,12.3,12.3,0,0,1,.56-1.22c.23-.35.48-.71.73-1s.55-.57.83-.85a5.74,5.74,0,0,1,1.11-.78,13,13,0,0,1,4-1.28,77.71,77.71,0,0,1,9.07-1.21,31.93,31.93,0,0,1,10.09.94,9.07,9.07,0,0,1,3.11,1.55,9.24,9.24,0,0,1,.7.7,5,5,0,0,1,.55.92,3.27,3.27,0,0,1,.28,1.05l0,.54-.06.5a2.78,2.78,0,0,1-.16.73,5.77,5.77,0,0,1-.28.74,3.56,3.56,0,0,1-1,1.22,10.16,10.16,0,0,1-2.24,1.22c-1.48.61-2.94,1.05-4.37,1.53a47.06,47.06,0,0,0-6.28,2.58l-1.17.63-.45.24a3,3,0,0,1-.36.12,1.35,1.35,0,0,1-.47.07,1.44,1.44,0,0,0-.91.15,2.25,2.25,0,0,0-.41.34c-.2.17-.5.15-.83-.42A1.9,1.9,0,0,1,152,362a3.51,3.51,0,0,1,.06-.69,3.9,3.9,0,0,1,.66-1.34,5.81,5.81,0,0,1,1.46-1.37,9.77,9.77,0,0,1,1.53-.91,31.27,31.27,0,0,1,3.11-1.27c2.06-.73,4.14-1.31,6-2a19.06,19.06,0,0,0,1.92-.78,6.66,6.66,0,0,0,.64-.37c.11-.08.05,0,.08,0s0,0,0,0l.06-.13c0-.07,0-.11,0-.17s0-.1,0-.14-.19-.34-.65-.61Z"/><path class="cls-1" d="M123.22,423.79a49,49,0,0,1,1.28-13.2c.32-1.55.57-3.1.94-4.6,1.22-5.36,2.88-10.66,4.58-15.87.76-2.32,1.57-4.63,2.35-6.92a77,77,0,0,1,3.59-8.61c.43-.87.59-.66.6.21a20.06,20.06,0,0,1-.48,4.18c-1.38,6.17-3.19,12.13-5.14,18.14-1.15,3.61-1.82,7.47-2.67,11.27a64.28,64.28,0,0,0-1.84,12.41,18.61,18.61,0,0,0,1.08,7.32c.67,1.68,1.74,3.14,3.26,3.28s3.31-.74,4.79-1.86a32.3,32.3,0,0,0,6-6.49l1.15-1.59a7.83,7.83,0,0,1,1.81-1.91,2.24,2.24,0,0,1,1.33-.49,3,3,0,0,1,.59,0c.54.08.37,1.21-.43,2.94a37.11,37.11,0,0,1-5.1,7,26.8,26.8,0,0,1-3.39,3.12,13.18,13.18,0,0,1-4.57,2.38,6.73,6.73,0,0,1-4.71-.41,7.8,7.8,0,0,1-3.15-3.18,18.33,18.33,0,0,1-2-7.05Z"/><path class="cls-1" d="M187.35,289c-1.31,2.46-2.56,5-3.78,7.57-.44.94-.79,1.91-1.24,2.85l-4.8,9.87c-.7,1.47-1.33,3-2,4.46a25.15,25.15,0,0,1-2.87,5.63c-.46.56-.87.1-1.11-.66a4.32,4.32,0,0,1,.1-2.93c1.6-3.82,3.17-7.73,5.09-11.53,1.15-2.27,2-4.78,3-7.18,1.14-2.62,2.31-5.24,3.54-7.85.78-1.62,1.51-3.18,2.49-4.85a3.06,3.06,0,0,1,1.64-1.49c.35-.07.77-.18,1.06-.22l.87-.11a17,17,0,0,1,1.74-.05,19.86,19.86,0,0,1,3.38.36,40.76,40.76,0,0,1,6.18,1.54c.44.16.88.28,1.31.47,1.58.69,2,1.17,1.87,2.13a4.46,4.46,0,0,1-.07.65c-.18.69-1,.88-2.21.57a49.09,49.09,0,0,0-10.17-2.09h-.74l-.73,0-1,.11a18.69,18.69,0,0,0-1.55,2.77Z"/><path class="cls-1" d="M150.09,378.59l-3.3,7.52c-.39.91-.72,1.86-1.12,2.77l-1.08,2.41-.54,1.2-.07.15,0,.06,0,.11a.28.28,0,0,0-.05.23,1,1,0,0,0,.27.44,8.59,8.59,0,0,0,.9.72,19.11,19.11,0,0,0,2.15,1.29,25.76,25.76,0,0,0,4.24,1.67c1.87.56,3.78.89,5.62,1.46.57.16.43.81-.19,1.36a3.39,3.39,0,0,1-2.93.74,33.58,33.58,0,0,1-6-2A26.62,26.62,0,0,1,145,397.3c-.47-.28-.94-.58-1.4-.92-.23-.17-.46-.34-.69-.54s-.23-.2-.34-.31-.2-.2-.39-.39a2.69,2.69,0,0,1-.81-2.82c.27-.65.53-1.31.8-2,.45-1.17.9-2.36,1.38-3.51l3.21-7.63,2-4.69c1-2.37,2-4.74,2.89-7.13.69-1.86,1.22-3.74,1.83-5.61.13-.41.24-.82.38-1.23.56-1.52.93-1.92,1.76-2a2.74,2.74,0,0,1,.57,0c.6.07.82.86.56,2a69,69,0,0,1-3.4,10.37c-1,2.56-2.11,5.1-3.16,7.65Z"/><path class="cls-1" d="M203.56,322A209.53,209.53,0,0,0,190.14,347c-1.44,3.14-2.71,6.35-4,9.53-2.31,5.63-4.41,11.34-6.2,17.14a101.57,101.57,0,0,0-4,17.65,33.75,33.75,0,0,0-.06,7.84,11.38,11.38,0,0,0,1,3.5,5.51,5.51,0,0,0,.9,1.34,6.62,6.62,0,0,0,.63.54,3.11,3.11,0,0,0,.67.47,6.41,6.41,0,0,0,4.12.76,12.68,12.68,0,0,0,4.36-1.58,18,18,0,0,0,3.86-2.9,17.09,17.09,0,0,0,3.06-3.77c.9-1.75,1.37-1.48,1.26.55a11.05,11.05,0,0,1-1.3,3.93,14,14,0,0,1-1.55,2.35c-.33.37-.69.74-1.07,1.12s-.83.7-1.26,1.05a17.24,17.24,0,0,1-5.48,2.71,10.49,10.49,0,0,1-6.74-.2c-.54-.27-1.07-.56-1.6-.85s-.92-.74-1.38-1.12a8.82,8.82,0,0,1-2.06-2.95,17.46,17.46,0,0,1-1.34-6,48.11,48.11,0,0,1,.91-11.15,104.75,104.75,0,0,1,2.62-10.58,254,254,0,0,1,8.82-24.87,231.42,231.42,0,0,1,13-25.92,164.85,164.85,0,0,1,9.78-15,86.77,86.77,0,0,1,8.86-10.33c3.28-3.15,6.88-6.15,11.32-7.85a14.47,14.47,0,0,1,5.49-1,7.19,7.19,0,0,1,3,.65,6.11,6.11,0,0,1,2.42,2.08,11.67,11.67,0,0,1,1.72,5.51,28.56,28.56,0,0,1-.12,5.4,41.9,41.9,0,0,1-.72,4.6,28.86,28.86,0,0,1-1,3.52,14.64,14.64,0,0,1-1,2.29,5.59,5.59,0,0,1-1.93,2.18,5.23,5.23,0,0,1-.87.51c-.41.11-.51-.4-.45-1.44a28.54,28.54,0,0,1,.72-4.58A63,63,0,0,0,236,303.4a22.77,22.77,0,0,0,0-4.22,6.29,6.29,0,0,0-1.12-3.15,2.81,2.81,0,0,0-2.41-.92,10.67,10.67,0,0,0-3.78.65,25.11,25.11,0,0,0-7.41,4.57,69.76,69.76,0,0,0-9.48,10.12,133.33,133.33,0,0,0-8.11,11.63Z"/><path class="cls-1" d="M229.5,344.07c-2.57,3.66-4.92,7.7-7.23,11.68s-4.53,8.05-6.65,12.15c-1.55,3-3,6.05-4.39,9.09a158.78,158.78,0,0,0-6.77,16.36,63.9,63.9,0,0,0-2.31,8.43,21.21,21.21,0,0,0-.27,8.29,4.82,4.82,0,0,0,4.24,4.16,7.23,7.23,0,0,0,3.34-.21,13.19,13.19,0,0,0,3.21-1.6,26.28,26.28,0,0,0,3.76-3.05c1.19-1.12,2.34-2.31,3.46-3.54s2.22-2.49,3.31-3.76,2.19-2.56,3.4-3.8c.75-.77,1.27-1,1.42-.79s0,.8-.27,1.7a25.31,25.31,0,0,1-4.41,8,43.68,43.68,0,0,1-7.7,7.67,17.47,17.47,0,0,1-5.31,2.77,9.91,9.91,0,0,1-3.31.42,10.75,10.75,0,0,1-3.27-.56,8.15,8.15,0,0,1-3.09-1.91,8.33,8.33,0,0,1-1.95-3,14.44,14.44,0,0,1-.9-6A42,42,0,0,1,200,395.86a186.92,186.92,0,0,1,9.71-23.9q6.21-12.69,13.57-24.74c.76-1.23,1.53-2.46,2.35-3.69s1.66-2.39,2.51-3.57q2.55-3.52,5.23-6.94c2.7-3.46,5.51-6.85,8.5-10.09a67.09,67.09,0,0,1,9.74-9,18.54,18.54,0,0,1,4.68-2.56,8,8,0,0,1,2.89-.46,5.36,5.36,0,0,1,3,1.08,8.17,8.17,0,0,1,2.77,5.12,19.86,19.86,0,0,1,.11,5.38,36.27,36.27,0,0,1-.75,4.53,22.41,22.41,0,0,1-2.11,5.62,5.31,5.31,0,0,1-2.08,2c-.31.15-.63.39-.84.46-.37.11-.41-.38-.37-1.43a18.1,18.1,0,0,1,.85-4.43c.4-1.38.72-2.79,1-4.18a29.08,29.08,0,0,0,.65-4.17,13,13,0,0,0-.14-3.88,5.78,5.78,0,0,0-.25-.8,7,7,0,0,0-.35-.67,2.64,2.64,0,0,0-.87-.89,1.8,1.8,0,0,0-1-.22,4.67,4.67,0,0,0-1.51.31,15.55,15.55,0,0,0-3.51,1.93,51.44,51.44,0,0,0-6.72,5.93c-3.18,3.25-6.18,6.77-9.08,10.38s-5.69,7.34-8.33,11.14Z"/><path class="cls-1" d="M269.27,348.58a155.94,155.94,0,0,0-14.68,18c-1.64,2.32-3.13,4.74-4.67,7.12a143.61,143.61,0,0,0-13.86,26.55,45.18,45.18,0,0,0-3,12.71,15.14,15.14,0,0,0,1.21,7.6c1.06,2.14,3.07,3.39,5.63,4.1,1.58.4,1.46,1-.2,1.72a8,8,0,0,1-1.55.38,8.26,8.26,0,0,1-2.14-.06,7.52,7.52,0,0,1-4.71-3.14,12.1,12.1,0,0,1-1.94-5,22.25,22.25,0,0,1-.21-4.93,41.63,41.63,0,0,1,1.75-9.11,87.27,87.27,0,0,1,7-16.55c3.35-6.3,6.91-12.78,10.9-18.84a177.46,177.46,0,0,1,14.49-19.06,100.31,100.31,0,0,1,10.5-10.42,32.6,32.6,0,0,1,9.7-6,13.24,13.24,0,0,1,5.9-.93,3.69,3.69,0,0,1,.79.16,7.24,7.24,0,0,1,.79.25,5.64,5.64,0,0,1,1.43.87,3.37,3.37,0,0,1,.61.58c.17.22.37.43.52.65a8.33,8.33,0,0,1,.72,1.43,13.77,13.77,0,0,1,.8,4.55,28,28,0,0,1-.28,4.41,41.82,41.82,0,0,1-2.08,8.44,25.35,25.35,0,0,1-1.46,3.54,17.15,17.15,0,0,1-2.91,4.24,4.45,4.45,0,0,1-2,1.31,4.28,4.28,0,0,1-.78.17c-.32,0-.21-.44.13-1.17s.86-1.9,1.47-3.42c.44-1.12.88-2.26,1.27-3.42s.82-2.31,1.18-3.49a58.67,58.67,0,0,0,1.69-7.17,27.24,27.24,0,0,0,.29-3.55,10.2,10.2,0,0,0-.44-3.11,2.72,2.72,0,0,0-1.26-1.69,4.55,4.55,0,0,0-2.51-.21c-.4.09-.78.15-1.19.26l-1.23.38c-.82.34-1.67.66-2.44,1.06a31.79,31.79,0,0,0-4.63,3,74.11,74.11,0,0,0-8.48,7.81Z"/><path class="cls-1" d="M293.33,374.29a106.69,106.69,0,0,0-15.74,12c-.9.81-1.75,1.67-2.61,2.52s-1.69,1.74-2.55,2.58A148.61,148.61,0,0,0,256,411a25.88,25.88,0,0,0-4.36,9.94,7.19,7.19,0,0,0,1.2,5.68,5.63,5.63,0,0,0,2.25,1.56,5.19,5.19,0,0,0,2.81.4c.55-.07.84-.07,1,.15s.13.71-.41,1.37a5.06,5.06,0,0,1-3.08,1.56,6.06,6.06,0,0,1-2.42-.08,6.57,6.57,0,0,1-2.51-1.3,8.83,8.83,0,0,1-2.85-4.39,12.58,12.58,0,0,1-.28-4.77,23.49,23.49,0,0,1,2.71-8,46.82,46.82,0,0,1,4.32-6.59c1.52-2,3.14-4,4.79-6,4-4.63,8-9.55,12.47-13.94a119.62,119.62,0,0,1,15.85-13.17,87.21,87.21,0,0,1,11-6.47,54.75,54.75,0,0,1,9-3.55,32,32,0,0,1,4.8-1,18.71,18.71,0,0,1,5-.07,10,10,0,0,1,3.9,1.26,7.38,7.38,0,0,1,1.7,1.35,8.65,8.65,0,0,1,1.26,1.72,8.18,8.18,0,0,1,1,4.17,12.51,12.51,0,0,1-.77,4.07,16.22,16.22,0,0,1-1.49,3.15c-2.37,3.59-3.77,4.17-5.05,4.08a3.76,3.76,0,0,1-.87-.11c-.79-.33,0-1.81,1.46-4.08a20.46,20.46,0,0,0,2.47-5.22,5.53,5.53,0,0,0-.35-4.48,1.85,1.85,0,0,0-.31-.44l-.35-.42c-.13-.1-.26-.2-.37-.3a2.39,2.39,0,0,0-.43-.27,6,6,0,0,0-2.27-.7,17.26,17.26,0,0,0-5.83.36,44.57,44.57,0,0,0-9,3.1,71.79,71.79,0,0,0-8.64,4.71Z"/><path class="cls-1" d="M308.9,395.81A184.44,184.44,0,0,0,293,406.5c-1.86,1.41-3.63,2.93-5.43,4.4a116.93,116.93,0,0,0-9.16,8.18,50.26,50.26,0,0,0-7.62,9.38,15.68,15.68,0,0,0-1.93,4.72l-.13.6c0,.2,0,.4,0,.59s0,.4,0,.59,0,.39,0,.58a3.87,3.87,0,0,0,.61,1.94c.84,1.35,3,1.6,5.08,1.24a15.06,15.06,0,0,0,3.1-.86,18.8,18.8,0,0,0,2.95-1.37c1.12-.69,1.47-.26.92,1.13a7.68,7.68,0,0,1-1.74,2.41,8.83,8.83,0,0,1-3.64,2,12.89,12.89,0,0,1-4.32.49,7,7,0,0,1-6.83-6.84,11.83,11.83,0,0,1,.08-2.31,20.3,20.3,0,0,1,.51-2.11,25.35,25.35,0,0,1,3.73-7,49.2,49.2,0,0,1,4.93-5.7,156.51,156.51,0,0,1,13.29-12.16A186.85,186.85,0,0,1,303.39,395q5.13-3.24,10.47-6.13a91.13,91.13,0,0,1,8.33-4,22.45,22.45,0,0,1,4.58-1.36,9.13,9.13,0,0,1,5.06.38,5.93,5.93,0,0,1,3,2.9,7.31,7.31,0,0,1,.78,4,15,15,0,0,1-2.76,7.05,24.22,24.22,0,0,1-1.91,2.58,14.86,14.86,0,0,1-3.18,2.77,3.91,3.91,0,0,1-1.07.46,3.44,3.44,0,0,1-1,0,6.91,6.91,0,0,1-.75-.06c-.56-.14.11-1.75,1.85-3.77a52.45,52.45,0,0,0,3.47-4.77,11.23,11.23,0,0,0,1.78-4.86,3.29,3.29,0,0,0-1.57-3.1c-1-.48-2.89-.33-4.71.24a30.68,30.68,0,0,0-4.2,1.66c-1.43.67-2.86,1.36-4.28,2.11-2.83,1.47-5.62,3.07-8.36,4.76Z"/><path class="cls-1" d="M319.76,416.61a123.77,123.77,0,0,0-13,8c-1.52,1.07-2.94,2.27-4.39,3.41a80.3,80.3,0,0,0-7.34,6.42,39.41,39.41,0,0,0-6,7.48,17.87,17.87,0,0,0-1.75,3.77,10.71,10.71,0,0,0-.44,1.92,2.17,2.17,0,0,0,0,.76,3,3,0,0,0,0,.33,1.51,1.51,0,0,1,.12.26c.31.81,1.95,1.24,3.58,1a14.67,14.67,0,0,0,4.85-1.29c.93-.4,1.3,0,.88,1.28a6.32,6.32,0,0,1-4.56,3.59,11.12,11.12,0,0,1-3.63.17,6.55,6.55,0,0,1-1-.2,5,5,0,0,1-1.05-.38l-.54-.25-.53-.38c-.17-.13-.35-.27-.51-.41s-.31-.34-.46-.52l-.42-.56a5,5,0,0,1-.29-.62,4.23,4.23,0,0,1-.36-1.26,7.3,7.3,0,0,1-.08-1.21c0-.36.07-.71.12-1.07a5.34,5.34,0,0,1,.19-.88,7.44,7.44,0,0,1,.22-.81c.16-.53.35-1,.55-1.55A31.45,31.45,0,0,1,291,433.56a111.88,111.88,0,0,1,10.79-9.73A124.52,124.52,0,0,1,315,415.11q4.23-2.43,8.61-4.54c2.21-1.07,4.47-2.06,6.79-2.94a32.91,32.91,0,0,1,7.27-2,8,8,0,0,1,1.63,0,3.83,3.83,0,0,1,1.79.61,5.16,5.16,0,0,1,2.31,2.69,5.63,5.63,0,0,1-.1,3.55,11.31,11.31,0,0,1-1.41,2.8,20.68,20.68,0,0,1-1.6,2.07c-2.22,2.32-3.19,2.71-4.2,2.56a3.26,3.26,0,0,1-.69-.13c-.63-.28,0-1.46,1.37-3.14a23.33,23.33,0,0,0,2.58-3.85,7,7,0,0,0,.7-1.81,1.44,1.44,0,0,0-.08-1.06,2,2,0,0,0-.84-.71c-.23-.12,0,0-.23,0a4.62,4.62,0,0,0-.79,0,22.91,22.91,0,0,0-4.49,1.16,94,94,0,0,0-13.78,6.39Z"/><path class="cls-1" d="M325.17,442.53c3.23-2.41,6.45-4.79,9.77-7.12l1.28-.87.28-.19.25-.19.55-.42c.73-.59,1.47-1.23,2.17-1.88a29.62,29.62,0,0,0,3.8-4.18,8,8,0,0,0,.9-1.57,3.18,3.18,0,0,0,.11-.33.44.44,0,0,0,0-.14.46.46,0,0,0,0-.26.41.41,0,0,0-.18-.19,1,1,0,0,0-.34-.11,5.37,5.37,0,0,0-1.63-.05,24.43,24.43,0,0,0-6.87,2.09,69.94,69.94,0,0,0-6.73,3.44,115.56,115.56,0,0,0-12.68,8.52,78,78,0,0,0-10,9.08,36,36,0,0,0-2.73,3.24,14.89,14.89,0,0,0-2,3.47,3.38,3.38,0,0,0-.24,1.54,1.1,1.1,0,0,0,.23.5,2.68,2.68,0,0,0,.57.53,3.91,3.91,0,0,0,3.39.23c.81-.23,1.23-.26,1.3-.05s-.2.66-.85,1.22a5.06,5.06,0,0,1-3.55,1.21,5,5,0,0,1-2.71-1.11,3.88,3.88,0,0,1-1.15-1.73,4.65,4.65,0,0,1-.17-1.93,9.15,9.15,0,0,1,.8-2.72,19.12,19.12,0,0,1,1.19-2.2,35.57,35.57,0,0,1,2.84-3.81,63.22,63.22,0,0,1,6.57-6.43,103.89,103.89,0,0,1,14.86-10.56A108.06,108.06,0,0,1,334,424.3a35.07,35.07,0,0,1,5.43-2,15.32,15.32,0,0,1,3-.49,8.33,8.33,0,0,1,1.7.1,5.08,5.08,0,0,1,2,.78,3.07,3.07,0,0,1,1.31,2,4.3,4.3,0,0,1,0,1.24c0,.21-.08.41-.13.61l-.15.49a12.19,12.19,0,0,1-1.75,3,34.94,34.94,0,0,1-4.33,4.58c-.78.7-1.56,1.37-2.41,2l-2.52,1.75q-2.46,1.74-4.9,3.54c-4,2.94-8,5.91-11.82,9a51.88,51.88,0,0,0-4.14,3.67,22.49,22.49,0,0,0-1.81,2,6.72,6.72,0,0,0-1.22,2.12,1.3,1.3,0,0,0,0,.8c0,.12.13.18.16.28l.34.27a4.3,4.3,0,0,0,2.25.49,15.38,15.38,0,0,0,5.11-1.23c5.25-2.15,9.85-5.57,14.58-8.73l3.1-2.15c3.92-2.63,5.4-3.21,6.69-3.06a3.9,3.9,0,0,1,.85.13c.7.31-.66,1.7-3.38,3.82a122.26,122.26,0,0,1-13.06,9,56.3,56.3,0,0,1-7.5,3.72,22.27,22.27,0,0,1-4.28,1.31,11,11,0,0,1-1.19.16,7.58,7.58,0,0,1-1.27.05,7.25,7.25,0,0,1-2.76-.55,4.62,4.62,0,0,1-1.08-.61c-.2-.14-.38-.29-.56-.44a5.52,5.52,0,0,1-.51-.66,2.31,2.31,0,0,1-.38-.75,4.35,4.35,0,0,1-.22-.82,4.44,4.44,0,0,1,.06-1.43,8.82,8.82,0,0,1,1.77-3.57,35.15,35.15,0,0,1,4.52-4.66c3.19-2.73,6.39-5.15,9.62-7.63Z"/><path class="cls-1" d="M330.4,490.42a68.29,68.29,0,0,1-5.92-5.69c-.67-.71-1.4-1.36-2.05-2.1q-1.5-1.69-2.93-3.49c-.48-.59-.95-1.2-1.41-1.84l-.34-.49-.17-.25-.23-.37a3.67,3.67,0,0,1-.38-.77,2.33,2.33,0,0,1-.09-.83,4.17,4.17,0,0,1,.28-.91,3.25,3.25,0,0,1,.44-.82,16.78,16.78,0,0,1,3.63-3.32c.79-.59,1.53-1.19,2.29-1.74s1.51-1.05,2.25-1.56c.47-.3.91.14,1,1a3.52,3.52,0,0,1-1.09,2.88c-1.21,1-2.49,1.84-3.61,2.69A16.63,16.63,0,0,0,320.6,474a6.57,6.57,0,0,0-.45.51.22.22,0,0,0-.12.09c-.06.06,0,.12,0,.23.21.34.44.72.69,1.1a44.26,44.26,0,0,0,4.71,5.34c1.81,1.91,3.66,3.81,5.6,5.53.54.47,1.08.94,1.63,1.35.27.19.57.4.79.53a1.11,1.11,0,0,0,.52.2,2.38,2.38,0,0,0,.26-.05,3,3,0,0,0,.59-.26,7.92,7.92,0,0,0,.74-.41c.49-.31,1-.65,1.46-1,1-.72,1.92-1.51,2.82-2.33,1.4-1.29,2.62-2.73,3.93-4.12.29-.31.55-.63.86-.93,1.13-1.1,1.7-1.22,2.54-.75a5.65,5.65,0,0,1,.55.3c.5.37.47,1.3-.24,2.2a51.12,51.12,0,0,1-7.56,7.5c-.71.58-1.48,1.14-2.3,1.69a15.76,15.76,0,0,1-1.38.8,6.59,6.59,0,0,1-.95.4,8.3,8.3,0,0,1-1.28.26,5.58,5.58,0,0,1-1.27-.24,8.76,8.76,0,0,1-1.07-.54c-.49-.3-.88-.59-1.28-.89Z"/><path class="cls-1" d="M384.19,436.55c.67,1,1.45,1.91,2.15,2.89l1.25,1.72c.28.41.56.85.81,1.27l.39.63c.07.05,0,.1,0,.14l-.13.14-.25.29c-.49.55-.91,1.1-1.47,1.64l-.48.51-.46.44c-1.1,1-2.2,2.08-3.33,3.11s-2.29,2-3.46,3-2.06,1.78-3.12,2.63a17.3,17.3,0,0,1-4.43,2.75c-.5.23-.57-.06-.34-.56a5.12,5.12,0,0,1,.54-.88,5.73,5.73,0,0,1,.86-1c1.22-1.19,2.51-2.26,3.73-3.46s2.45-2.37,3.74-3.55c1.53-1.41,2.93-3.09,4.41-4.66l.16-.16,0-.05.12-.1.24-.22.06-.06,0-.06-.08-.14c-.06-.09-.1-.16-.2-.3s-.26-.35-.43-.57l-.55-.68-1.12-1.34c-.46-.56-.95-1.09-1.46-1.6l-1.45-1.6a63,63,0,0,0-4.59-4.65,25.5,25.5,0,0,0-4-2.8c-.3-.18-.61-.31-.9-.48-1.08-.62-1.07-.76-1-1.92,0-.24,0-.47-.06-.68a.91.91,0,0,1,.58-.93,1.3,1.3,0,0,1,.78-.19,3.09,3.09,0,0,1,.87.16,16,16,0,0,1,4.39,2.53,34.23,34.23,0,0,1,3.63,3.28c.84.87,1.65,1.77,2.45,2.67l1.18,1.37.59.7.52.74Z"/><path class="cls-1" d="M365.57,469a18.28,18.28,0,0,1-4.39-4.58,30.14,30.14,0,0,1-2.94-5.28A28.62,28.62,0,0,1,356.7,455a21.48,21.48,0,0,1-.69-3.9,13.71,13.71,0,0,1,.31-4.13,10.5,10.5,0,0,1,.32-1.05c.05-.17.17-.39.25-.58a3.5,3.5,0,0,1,.32-.6,4.09,4.09,0,0,1,2.09-1.81,3.66,3.66,0,0,1,2.68.2,6.37,6.37,0,0,1,1.12.73l.47.42.35.39A12.51,12.51,0,0,1,365,446.1a15.85,15.85,0,0,1,.88,1.56l1.45,2.85a13.49,13.49,0,0,0,2.1,3,6.78,6.78,0,0,0,2.61,1.76c.64.23.7,1-.16,1.68a3.36,3.36,0,0,1-2,.74,3.9,3.9,0,0,1-2.78-1,14,14,0,0,1-3.07-4c-.76-1.32-1.27-2.7-1.8-3.78l-.19-.39-.18-.31c-.12-.21-.3-.45-.45-.68s-.32-.4-.46-.58a3,3,0,0,1-.2-.25c-.1-.18-.42-.3-.7,0a3.11,3.11,0,0,0-.35.73,6.61,6.61,0,0,0-.25,1,9.93,9.93,0,0,0-.11,1.11,10.3,10.3,0,0,0,0,1.1,21.16,21.16,0,0,0,1.14,4.63,25,25,0,0,0,5.36,9.16,9.34,9.34,0,0,0,5.26,2.93,5.48,5.48,0,0,0,2-.5c.78-.3,1.57-.65,2.34-1a50.52,50.52,0,0,0,4.54-2.54,59.32,59.32,0,0,0,6.36-4.82c.43-.38.84-.78,1.28-1.15s.76-.6,1.07-.81a2,2,0,0,1,.81-.42,5.57,5.57,0,0,1,.81,0,2.62,2.62,0,0,1,.62,0c.2,0,.41,0,.56.08s.3.34.2.84c-.05.28-.12.6-.19,1a1.12,1.12,0,0,1-.24.53c-.11.16-.24.33-.38.5a33.15,33.15,0,0,1-5.74,5.09,62.64,62.64,0,0,1-6.62,4.16c-.86.48-1.75.92-2.68,1.35-.48.21-.91.43-1.44.61l-.77.29c-.25.09-.6.17-.89.25l-.46.12c-.23,0-.47.06-.7.07a5.4,5.4,0,0,1-.68,0l-.47-.08a9,9,0,0,1-1.81-.42,12.5,12.5,0,0,1-3.14-1.58Z"/><path class="cls-1" d="M352.73,474.27a51.25,51.25,0,0,1-3.79-7.74c-.38-1-.83-1.9-1.15-2.9a30.15,30.15,0,0,1-1.2-5.5c0-.23,0-.49-.06-.74s0-.44,0-.85a6.67,6.67,0,0,1,.31-2,3.64,3.64,0,0,1,1.07-1.54,3.15,3.15,0,0,1,1.78-.53,5,5,0,0,1,1.67.36,5.53,5.53,0,0,1,.79.34l.38.21a2.08,2.08,0,0,1,.29.19,13.25,13.25,0,0,1,2,1.65,13.62,13.62,0,0,1,2.06,2.55,5.13,5.13,0,0,1,.65,1.5,11.15,11.15,0,0,1,.35,1.6c.09.68-.52.75-1.33.5a14,14,0,0,1-1.35-.54,7.74,7.74,0,0,1-.7-.37l-.34-.21a1.55,1.55,0,0,1-.24-.27,18.16,18.16,0,0,0-1.66-1.92,9.61,9.61,0,0,0-.88-.82,4.73,4.73,0,0,0-.45-.36l-.22-.15-.15-.11c-.07-.09-.09-.2-.27-.24s-.3.08-.41.36a8.85,8.85,0,0,0,.45,3.29c.32,1.14.76,2.27,1.19,3.4a50.69,50.69,0,0,0,3.38,7.24,20.82,20.82,0,0,0,2.75,3.89,5.62,5.62,0,0,0,1.25,1,2.8,2.8,0,0,0,.69.35l.35.16.37.08a5.06,5.06,0,0,0,3.1-.37c1.66-.66,3-2.05,4.7-3.13.39-.25.72-.52,1.14-.74a3.42,3.42,0,0,1,1.83-.52,2,2,0,0,1,1.11.59,2.48,2.48,0,0,1,.36.37c.15.22.09.48-.07.83a3.37,3.37,0,0,1-.79,1.19,32.11,32.11,0,0,1-4,3.48,15.18,15.18,0,0,1-2.78,1.55,12,12,0,0,1-1.72.55,9,9,0,0,1-2,.2,6.53,6.53,0,0,1-1.52-.15l-.75-.17-.7-.26-.69-.29c-.21-.11-.41-.24-.61-.37a8.85,8.85,0,0,1-1.18-.81,18,18,0,0,1-3.12-3.74Z"/><path class="cls-1" d="M348.7,482.1a37.5,37.5,0,0,1-5.13-5.62c-.26-.39-.56-.74-.84-1.12s-.53-.77-.77-1.17a21,21,0,0,1-1.95-4.6,14.1,14.1,0,0,1-.56-5.08,7.14,7.14,0,0,1,.18-1.19,7.94,7.94,0,0,1,.45-1.39,2.83,2.83,0,0,1,.94-1.17,3,3,0,0,1,1.42-.48,4.22,4.22,0,0,1,2,.32,4.5,4.5,0,0,1,.79.38,4.88,4.88,0,0,1,.65.43,6.11,6.11,0,0,1,1.85,2.25c.27.54-.33.85-1.16.95a4.87,4.87,0,0,1-2.55-.29,4.28,4.28,0,0,0-.77-.42l-.05,0a.06.06,0,0,0-.08,0c0-.11-.11.34-.18.59s-.12.64-.11,1a6.75,6.75,0,0,0,0,1.1,9.24,9.24,0,0,0,.1,1.16,13.4,13.4,0,0,0,2.46,5.42,29.54,29.54,0,0,0,4.41,5.24,34.82,34.82,0,0,0,3.29,2.76,16.79,16.79,0,0,0,2.61,1.67,6.72,6.72,0,0,0,2.87.45,6,6,0,0,0,3.87-1.7l.27-.28a1.54,1.54,0,0,1,.21-.29,2.06,2.06,0,0,1,1.58-1c.21,0,.41-.12.61-.17a.8.8,0,0,1,.86.39,1.65,1.65,0,0,1,.27.71,4.06,4.06,0,0,1-.06,1,5.77,5.77,0,0,1-1.78,2.82,9.06,9.06,0,0,1-2.71,1.5,10.9,10.9,0,0,1-6,.27,7.53,7.53,0,0,1-1.15-.35,7.2,7.2,0,0,1-1.14-.52,8.92,8.92,0,0,1-.91-.57l-.78-.55c-1.06-.7-2-1.53-3.05-2.31Z"/><path class="cls-1" d="M255.11,373.94l23.78,9.41c2.89,1.14,5.83,2.15,8.72,3.3l1.7.66,17.75,27.26c2.67,4.06,5.46,8.08,8.24,12,3.56,5.07,7.34,10,10.43,15.42,1.92,3.36-4.46,1.78-8.52-4.1-7.19-10.42-14.15-21-20.82-31.88-1.6-2.61-3.3-5.21-5-7.81L286.43,391l-3.72-1.43-24-9.4L244,374.39l-12.65-4.89-2.71-5.39-2.49-4.85c-2.85-5.48-5.88-10.73-8.83-16.07-.65-1.18-1.32-2.31-1.95-3.51-2.35-4.44-2.81-6-2.22-7.52a5.19,5.19,0,0,1,.42-1c.61-.85,2.23.62,4.14,3.77,5.68,9.35,11,19.55,16.27,29.84l.56,1.11,0,0,20.62,7.92Z"/><path class="cls-1" d="M207.47,329.45a6.78,6.78,0,0,1,.47-.93l.27-.47c.13-.18.27-.35.41-.52a4.55,4.55,0,0,1,.87-.84,7.41,7.41,0,0,1,1-.61,7.54,7.54,0,0,1,4.12-.77,11.38,11.38,0,0,1,2.67.44,30,30,0,0,1,7.64,4.15c1,.73,2,1.43,3.05,2.13a16.79,16.79,0,0,1,3.67,3c.32.39-.15.84-.88,1.09a2.9,2.9,0,0,1-2.45-.18c-2.57-1.75-5.12-3.43-7.6-5.23a13.78,13.78,0,0,0-5-2c-1.82-.42-3.61-.17-4.5,1a4.51,4.51,0,0,0-.38.64c-.12.25-.22.53-.33.8a16.17,16.17,0,0,0-.5,1.79,35.16,35.16,0,0,0-.82,5.82c-.08,1.53.13,3.06.16,4.59,0,.33.06.67.05,1a2.23,2.23,0,0,1-.36,1.33,2,2,0,0,1-1,.54,4.07,4.07,0,0,1-.52.14,1,1,0,0,1-.78-.33A2.07,2.07,0,0,1,206,345a24.88,24.88,0,0,1-.21-8.67,28.72,28.72,0,0,1,1.58-6.86Z"/><path class="cls-1" d="M223.45,163.65A9.26,9.26,0,0,1,221,167.8a6.13,6.13,0,0,1-2.58,1.3,7.09,7.09,0,0,1-1.36.1l-.65,0-.55-.11a10.2,10.2,0,0,1-3-1,13,13,0,0,1-4-3.43,29.22,29.22,0,0,1-2.74-4.06c-.7-1.21-1.41-2.42-2.12-3.61-.41-.78-.85-1.55-1.23-2.33a19,19,0,0,1-.92-2.45c-.17-.51.28-.72,1-.61a5,5,0,0,1,1.24.4,4.11,4.11,0,0,1,.68.37l.34.23.24.29,1.52,2.21c.47.74.87,1.51,1.29,2.26.84,1.49,1.68,3,2.59,4.33a9.13,9.13,0,0,0,2,2.12,10.4,10.4,0,0,0,2.42,1.31,6.91,6.91,0,0,0,1.4.38,3.9,3.9,0,0,0,.62.08,2.73,2.73,0,0,0,.51-.07,2.57,2.57,0,0,0,1.62-1.55,11.71,11.71,0,0,0,1-3.85,27.92,27.92,0,0,0-.09-6.52,31.8,31.8,0,0,0-1.28-4.88c-.1-.35-.24-.69-.33-1a5.91,5.91,0,0,1-.16-.83,2.07,2.07,0,0,1,.2-.65,2.23,2.23,0,0,1,.71-.89c.15-.12.28-.27.42-.36.46-.33,1.19.07,2.08,1,1.69,2.93,2.22,6.3,2.47,9.74a25.07,25.07,0,0,1-.7,8Z"/><path class="cls-1" d="M255.7,159.47a11.09,11.09,0,0,1-1.57,2,7.19,7.19,0,0,1-2.45,1.6,6,6,0,0,1-3,.31,6.11,6.11,0,0,1-1.34-.32,6.84,6.84,0,0,1-1.17-.49c-.57-.25-1-.56-1.52-.84a16.6,16.6,0,0,1-1.35-1,15.6,15.6,0,0,1-3.3-4.68,34.15,34.15,0,0,1-1.82-5c-.42-1.49-.87-2.93-1.36-4.32-.65-1.78-1.34-3.46-1.92-5.22-.17-.55.32-.81,1.12-.68a3.71,3.71,0,0,1,2.53,1.72,28.84,28.84,0,0,1,2.36,5.6c.64,1.84,1.11,3.65,1.71,5.37a9.37,9.37,0,0,0,2.64,3.94,12.51,12.51,0,0,0,1.2,1,6.32,6.32,0,0,0,2.74,1.28,2.2,2.2,0,0,0,1.17-.15,3.17,3.17,0,0,0,1.11-.8,10.4,10.4,0,0,0,2-3.79,29.78,29.78,0,0,0,1.44-7,38.73,38.73,0,0,0-.13-5.6c0-.41-.08-.81-.08-1.23-.08-1.53.46-2,1.38-2.34a4.33,4.33,0,0,1,.59-.22,1,1,0,0,1,.93.34,2.51,2.51,0,0,1,.8,1.31,30.28,30.28,0,0,1,0,10.87,25.74,25.74,0,0,1-2.7,8.44Z"/><path class="cls-1" d="M224.56,160.87A73.55,73.55,0,0,0,226.19,148a36.46,36.46,0,0,0-.32-4.59,12.34,12.34,0,0,0-2.7-7,13.17,13.17,0,0,0-6.66-3.93,18.57,18.57,0,0,0-7.2-.44,22.27,22.27,0,0,0-2.28.42c-.73.23-1.5.39-2.2.69a16.26,16.26,0,0,0-4,2.07c-.74.54-1.1.13-.82-.88a5.9,5.9,0,0,1,3.27-3.48,22.13,22.13,0,0,1,10.54-1.91,25,25,0,0,1,2.71.33,19.08,19.08,0,0,1,2.65.77,15.49,15.49,0,0,1,4.84,2.8l1.24,1.18c.38.43.73.89,1.1,1.33a12.22,12.22,0,0,1,1,1.44c.25.52.56,1,.76,1.56a20.87,20.87,0,0,1,1.55,6.45,58.59,58.59,0,0,1-.95,13.81c-.46,2.77-1,5.5-1.6,8.22-.43,2.05-.9,4.11-1.27,6.13a16.8,16.8,0,0,0-.35,2.88,4.64,4.64,0,0,0,.65,2.36,1.48,1.48,0,0,0,1.23.63,3.63,3.63,0,0,0,1.71-.49,9.46,9.46,0,0,0,3-2.81,18.13,18.13,0,0,0,1-1.59c1.18-2,1.47-2.73,2.29-3.13a4.14,4.14,0,0,1,.53-.3c.28-.09.48.14.62.69a5.91,5.91,0,0,1-.05,2.47,10.87,10.87,0,0,1-2,4.52,11.17,11.17,0,0,1-4.11,3.52,6.57,6.57,0,0,1-3.31.7,5.36,5.36,0,0,1-2-.55,5.21,5.21,0,0,1-1.66-1.37,6.88,6.88,0,0,1-1.37-3.22,10.32,10.32,0,0,1-.14-1.5,12,12,0,0,1,.08-1.45c.31-2.49.82-4.63,1.27-6.86s.93-4.38,1.33-6.56Z"/><path class="cls-1" d="M231.14,193.07c5.24,1.9,10.72-1.38,14.14-5.22,1.61-1.79-1-4.45-2.65-2.65-2.56,2.88-6.49,5.7-10.49,4.26-2.27-.83-3.25,2.8-1,3.61Z"/><path class="cls-1" d="M237.2,129.56c5.06-5.36,13.73-6.23,20.3-3.46,3,1.24,4.26-3.59,1.33-4.82-8.12-3.43-19-1.79-25.17,4.74-2.2,2.34,1.32,5.89,3.54,3.54Z"/><path class="cls-1" d="M172.78,318.32s2.86.72,3.91-.27,12.64-25.46,19-25.18c2.69.12,6.33-.79,5.78-4.18-.75-4.71-9.51-3.11-13.1-3.72Z"/><path class="cls-1" d="M154.12,399s5.94-.64,4-4.64-7-4-7.8-6.71c-1.07-3.75,10.32-18.57,8.32-22.35-2.8-5.28-4.39-2.31-4.39-2.31l-12.24,29.61S147.12,397.91,154.12,399Z"/><path class="cls-1" d="M169.12,333.05c2.49,0,5.87-.21,7.16-2.75,1.41-2.8-1.6-5.3-3.23-7.16s-4.23.83-2.65,2.65c.55.63,1.14,1.21,1.68,1.85a4.27,4.27,0,0,1,.69.95c.07.15.06.28.14.08-.27.74-3.18.63-3.79.63-2.42,0-2.42,3.76,0,3.75Z"/><path class="cls-1" d="M159.68,363.37c2.88-4,9.27-2.64,11.8-7.59,2.25-4.4-1.48-7.15-4.38-9.95l-1.33,3.2c7.25.38,13.07-7,6.19-12-2-1.42-3.83,1.83-1.9,3.24,4,2.93-2.27,5.15-4.29,5a1.9,1.9,0,0,0-1.32,3.21c2,1.91,5.61,3.87,2,7.39-1.12,1.09-3.31,1.33-4.74,1.87a10.49,10.49,0,0,0-5.27,3.73c-1.41,1.95,1.84,3.83,3.24,1.89Z"/><path class="cls-1" d="M325.14,468.69s4.19,1,3.13,3.31,4.61,14.51,7.35,13.24,8.27-6,8.27-6l.2,3.24s-7.9,8.51-10.2,7.57S318.53,475.68,319,473.9,325.14,468.69,325.14,468.69Z"/><path class="cls-1" d="M370.91,429.06s-3.37.84,0,3.78,5.16,3.58,4.32,6.32-6,9.33-7.82,7-4.82-3.8-6.68-2c-1.11,1.09,6.55,14.25,11.83,12.22,4.22-1.62,3.45-1.93,3.45-1.93l10.9-11.46-16-16.08Z"/><g class="cls-2"><path class="cls-1" d="M238.86,380.09c2.22-3.93,4.65-7.71,7.15-11.41.91-1.36,1.78-2.74,2.72-4.07a141.29,141.29,0,0,1,10.79-13.51c1.74-1.89,3.54-3.72,5.36-5.49a50.79,50.79,0,0,1,7.58-6.22c.85-.56.93-.2.47.61a15.64,15.64,0,0,1-2.81,3.3,162.56,162.56,0,0,0-13.42,14.3,111.49,111.49,0,0,0-7.14,9.81c-2.5,3.7-5,7.43-7.27,11.25-1.4,2.36-2.73,4.76-3.92,7.22a64.19,64.19,0,0,0-4.36,11.6,48,48,0,0,0-1.38,9.33c-.06.69,0,1.37-.06,2.06-.08,1.29-.09,2.14-.19,2.74a2.35,2.35,0,0,1-.49,1.24,3.34,3.34,0,0,1-.32.38c-.35.27-.72-.79-.9-2.75a42.74,42.74,0,0,1,.38-8.93,57.52,57.52,0,0,1,2.15-9,78.56,78.56,0,0,1,5.61-12.52Z"/></g><g class="cls-2"><path class="cls-1" d="M281.49,407.76q3.66-3.76,7.66-7.21c1-.84,1.9-1.71,2.9-2.51a77.59,77.59,0,0,1,11.26-7.54,57.67,57.67,0,0,1,5.42-2.64,18.81,18.81,0,0,1,7.57-1.75c.82,0,.71.48.1,1a8.74,8.74,0,0,1-3,1.56,55,55,0,0,0-13.48,6.36,60,60,0,0,0-7.42,5.73c-2.63,2.24-5.17,4.61-7.63,7-1.51,1.51-3,3-4.43,4.63-2.18,2.4-4.32,4.86-6.26,7.42-1.5,2-2.83,4.06-4.2,6.11-.3.45-.58.9-.88,1.36-1.13,1.68-1.7,2.07-2.34,2.19a2.61,2.61,0,0,1-.42.07c-.2,0-.24-.22-.18-.62a5.69,5.69,0,0,1,.54-1.69,61.4,61.4,0,0,1,3.46-6c1.33-1.93,2.76-3.82,4.26-5.67,2.22-2.74,4.58-5.39,7-7.95Z"/></g><g class="cls-2"><path class="cls-1" d="M302.22,421.05c2.16-1.7,4.39-3.31,6.7-4.81.84-.55,1.65-1.14,2.52-1.65a54.76,54.76,0,0,1,9.62-4.51c1.5-.5,3-1,4.53-1.4a15.33,15.33,0,0,1,6.07-.6c.64.09.5.62,0,1.14a3.93,3.93,0,0,1-1,.73,3.82,3.82,0,0,1-1.41.44,44,44,0,0,0-11.05,3.27,42.43,42.43,0,0,0-6.36,3.55c-2.27,1.43-4.48,3-6.61,4.63-1.32,1-2.6,2.07-3.86,3.16a68.93,68.93,0,0,0-5.44,5.23,52.73,52.73,0,0,0-3.55,4.53c-.24.34-.46.69-.72,1-.92,1.26-1.33,1.57-2.06,1.48a3.76,3.76,0,0,1-.5-.07c-.49-.15-.47-.94.11-2a38.75,38.75,0,0,1,6.82-8.63c2-1.95,4.06-3.79,6.21-5.55Z"/></g><g class="cls-2"><path class="cls-1" d="M210.6,360.75c1.08-2.22,2.31-4.37,3.46-6.55s2.5-4.25,3.74-6.38c1-1.52,1.89-3.06,2.87-4.56a149.71,149.71,0,0,1,11.59-15.05l2.83-3.13c.95-1.05,1.95-2,2.92-3a39.08,39.08,0,0,1,8.4-6.83c1-.57,1.09,0,.59.89a8.93,8.93,0,0,1-1.18,1.64,15,15,0,0,1-1.9,1.95c-.69.55-1.33,1.17-2,1.78s-1.3,1.2-1.93,1.84c-1.21,1.32-2.55,2.5-3.73,3.86s-2.47,2.61-3.62,4-2.4,2.7-3.52,4.13c-.69.84-1.37,1.71-2,2.58s-1.28,1.81-1.92,2.72l-1.89,2.77-1.79,2.83c-.65,1-1.35,2.05-2,3.1l-1.86,3.17c-1.28,2.09-2.37,4.29-3.53,6.45-.35.66-.72,1.33-1,2l-1,2.05-1.93,4.09-2.64,6.34c-.85,2.12-1.56,4.29-2.31,6.43-.61,1.66-1,3.36-1.45,5.05s-.91,3.35-1.26,5.06c-.15.75-.3,1.48-.45,2.24-.67,2.79-1.05,3.63-1.74,4.12a3.08,3.08,0,0,1-.48.32c-.48.18-.57-1-.26-3.15.22-1.57.51-3.15.82-4.74s.79-3.15,1.21-4.75c.78-3.21,1.93-6.35,3-9.52.37-1.19.88-2.33,1.35-3.48l1.43-3.46c1-2.3,2.09-4.53,3.13-6.79Z"/></g><g class="cls-2"><path class="cls-1" d="M327.11,456.39a72.28,72.28,0,0,1-8,2.83A21.54,21.54,0,0,1,316,460c-.32,0-.64.07-1,.08h-.57a5.83,5.83,0,0,1-.73-.1,2.12,2.12,0,0,1-1.83-1.8,3.56,3.56,0,0,1,0-.73c0-.25.1-.49.15-.73a5.84,5.84,0,0,1,.48-1.05,10.81,10.81,0,0,1,1.15-1.61,26.34,26.34,0,0,1,2.63-2.65c1.21-1.07,2.42-2.12,3.68-3.1a20.05,20.05,0,0,1,5.29-3.21c.69-.21.69.27.41.88a5.52,5.52,0,0,1-1.73,2.13c-1.61,1.16-3.15,2.45-4.71,3.68a32.68,32.68,0,0,0-4.26,4,6.14,6.14,0,0,0-.72,1.05c0,.09-.08.18-.12.27a.79.79,0,0,0-.05.13.59.59,0,0,0,0,.23c0,.29.29.37.57.34a10.71,10.71,0,0,0,2-.37,69.61,69.61,0,0,0,7.68-2.78c1.57-.66,3.14-1.33,4.68-2.05,2.35-1.09,4.71-2.18,7-3.39,1.77-.94,3.41-2,5.12-3.05.38-.22.74-.45,1.13-.66,1.46-.75,2.07-.77,2.69-.26a2.93,2.93,0,0,1,.41.36c.31.44,0,1.1-1,1.81-.72.52-1.45,1.05-2.21,1.55s-1.56.95-2.36,1.4c-1.61.91-3.28,1.76-5,2.59-2.52,1.24-5.09,2.39-7.68,3.51Z"/></g><path class="cls-1" d="M301,298.63c-1.12,4.5-.67,9.26-1.84,13.76-.29,1.14,3.72.56,4-.62,1.16-4.5.71-9.26,1.83-13.76.29-1.16-3.73-.56-4,.62Z"/><path class="cls-1" d="M320.92,312c1.11-4.41,4.59-8.13,7.17-11.75,1.41-2-2.11-2.74-3.18-1.24-2.94,4.13-6.55,8.21-7.82,13.23-.48,1.9,3.39,1.51,3.83-.24Z"/><path class="cls-1" d="M322.37,328.26c3.55-1,7.24-.17,10.78-1.5.87-.33,2-1.4,1.32-2.36s-2.58-.55-3.49-.21c-1.34.5-3.07.3-4.47.35a20.73,20.73,0,0,0-5,.68c-.88.24-2.52,1-2.2,2.22s2.17,1.06,3,.82Z"/><path class="cls-1" d="M124.43,62.57a37.84,37.84,0,0,1,5,14.53c.08.6,3.59-.09,3.48-.93a38,38,0,0,0-5.05-14.53c-.48-.8-3.72.53-3.48.93Z"/><path class="cls-1" d="M112.11,90.67h11.36c.94,0,2.42-.27,2.85-1.26s-.34-1.55-1.25-1.55H113.71c-.94,0-2.42.27-2.85,1.26s.34,1.55,1.25,1.55Z"/></g></svg>