<?xml version="1.0" encoding="UTF-8"?><svg id="Layer_1" xmlns="http://www.w3.org/2000/svg" width="520" height="520" viewBox="0 0 520 520"><defs><style>.cls-1,.cls-2,.cls-3,.cls-4{fill:#231f20;}.cls-2{opacity:.55;}.cls-3{opacity:.8;}.cls-4{opacity:.45;}</style></defs><path class="cls-1" d="m236.02,166.44l-.61,2.21c-.11.37-.22.75-.34,1.14-.19.64-.42,1.27-.71,1.8-.42.78-.92,1.36-1.7,1.52-.33.05-.67.01-.97-.1-.31-.09-.51-.29-.75-.46-.37-.38-.7-.94-.98-1.47l-.39-.76-.24-.5c-.32-.66-.65-1.31-1.02-1.92-.44-.71-.94-1.38-1.45-2.01-.72-.75-1.36-1.55-2.22-2.17-.27-.2-.22-.28.12-.35.33-.07,1.04-.16,1.75.1.63.21,1.16.58,1.64.97.48.39.96.78,1.33,1.26.74.95,1.35,1.97,1.84,3.02l.24.48c.02.06.04.13.07.19.05.12.1.22.16.32.07.22.39.28.52.1.08-.08.14-.19.2-.3l.08-.18.04-.1.02-.05.04-.12c.21-.7.39-1.43.57-2.16l.68-2.75c.35-1.4.79-2.79,1.27-4.17.39-1.07.73-2.17,1.33-3.21.12-.23.26-.46.44-.67.68-.75,1.07-.84,1.62-.5.12.07.23.12.32.18.26.19.34.83.09,1.33-.31.82-.65,1.59-.92,2.45-.27.85-.53,1.74-.84,2.65-.42,1.36-.82,2.78-1.16,4.25h-.06Z"/><path class="cls-1" d="m186.63,91.17c4.54-4.84,10.38-8.55,16.82-10.31l2.44-.51c.81-.16,1.63-.36,2.43-.42,1.61-.17,3.21-.41,4.84-.45l2.43-.12,2.44.04c1.63-.02,3.25.21,4.87.33,4.72.56,9.42,1.69,13.76,3.72,7.69,3.5,14.16,9.48,18.36,16.72,4.23,7.22,6.34,15.65,5.84,23.98-.21,3.69-.93,7.37-2.23,10.86-.3.88-.73,1.71-1.09,2.57-.4.84-.87,1.64-1.3,2.46-.96,1.57-1.95,3.1-3.05,4.55-1.4,1.87-2.89,3.68-4.55,5.36-1.65,1.68-3.39,3.27-5.34,4.63-1.94,1.35-3.99,2.62-6.27,3.4-2.27.79-4.68,1.25-7.09,1.11-2.99-.48-2.42-.72-.04-1.12.59-.15,1.29-.35,2.08-.53.38-.14.79-.28,1.22-.43.43-.14.87-.29,1.31-.52,1.81-.75,3.79-1.9,5.88-3.26,3.71-2.43,6.92-5.71,9.71-9.26,1.38-1.79,2.67-3.67,3.79-5.61,1.1-1.91,1.93-3.96,2.64-6.05,1.28-4.24,1.81-8.76,1.46-13.26-.12-2.25-.53-4.48-1.02-6.7-.31-1.09-.55-2.2-.94-3.27l-.55-1.61-.65-1.58c-2.11-5.03-5.42-9.67-9.6-13.4-4.19-3.71-9.23-6.49-14.58-8.1-1.45-.51-2.98-.78-4.47-1.16l-2.29-.37c-.38-.06-.76-.13-1.15-.18l-1.16-.1-2.31-.2-2.33-.04-1.16-.02-1.17.05-2.33.11c-1.55.14-3.11.32-4.64.53l-2.25.47-1.12.23c-.37.09-.73.24-1.09.35l-2.17.74c-.73.23-1.39.64-2.09.94-.68.35-1.41.61-2.05,1.04l-1.95,1.23c-3.1,2.14-5.93,4.74-8.23,7.78-2.27,3.05-4.14,6.41-5.52,9.97-2.02,5.42-2.93,11.28-2.54,17.06l.06,1.08c.03.36.1.71.15,1.07l.33,2.14.08.54.14.52.28,1.03c.19.69.35,1.39.65,2.04l.81,1.99c.3.65.67,1.27.99,1.91.62,1.3,1.5,2.45,2.27,3.66,2.61,3.64,5.83,6.78,9.38,9.41,3.55,2.63,7.44,4.77,11.56,6.33.92.31,1.82.62,2.73.93.93.23,1.86.47,2.8.7.87.26,1.68.36,2.43.48.74.13,1.42.25,2.04.35,1.24.13,2.25.24,3.08.37.83.16,1.49.17,2.05.28.55.12,1,.27,1.41.41.37.13.86.24,1.09.35.38.18-.18.39-1.54.76-.68.19-1.57.39-2.64.45-1.07.02-2.33.06-3.74,0-8.35-.77-16.65-4.12-23.54-9.5-3.46-2.67-6.63-5.8-9.29-9.4-2.62-3.61-4.75-7.71-5.8-12.25-1.42-6.59-1.09-13.44.6-19.91,1.82-6.43,5.04-12.49,9.54-17.48l.07.04Z"/><path class="cls-1" d="m223.5,110.52c.33-.57,3.35-6.88,2.94-7.37s9.53,10.25,9.53,10.25l-2.95,3.89-9.52-6.78Z"/><path class="cls-1" d="m209.77,123.26c.26.02,4.88-.5,4.68-4.07s-1.16-5.74-2.76-5.94c-1.59-.2-6.21-1.26-7.51,1.11-1.3,2.38-.14,4.03.86,5.95,1,1.92,4.73,2.94,4.73,2.94Z"/><path class="cls-1" d="m222.39,132.86c.3-.21,3.73-4.67.93-6.6-2.8-1.93-7.34-3.58-9.38-.36-2.04,3.22-.03,5.65,2.04,6.9,2.07,1.25,6.41.06,6.41.06Z"/><path class="cls-1" d="m229.47,112.47c.83.68,1.63,1.38,2.4,2.11.28.26.61.47.87.76.92,1.01,1.75,2.06,2.6,3.08.38.45.78.88,1.17,1.31.55.51.93,1.17,1.27,1.87.1.22-.04.31-.35.34-.3.02-.83.03-1.25-.16-.77-.3-1.29-.84-1.88-1.3-.51-.54-1-1.1-1.46-1.7-.54-.73-1.33-1.24-2.01-1.83-.74-.67-1.47-1.34-2.26-1.95-.48-.39-.98-.75-1.48-1.1-.77-.52-1.57-1.03-2.4-1.45-.64-.34-1.37-.47-2.02-.75-.15-.06-.3-.09-.44-.16-.13-.06-.24-.13-.32-.19-.08-.08-.12-.19-.15-.28-.06-.19-.07-.39-.03-.62.02-.11.02-.22.04-.31.07-.3.43-.51.97-.63,1.43.03,2.8.49,4.07,1.16.94.51,1.82,1.14,2.7,1.77l-.03.05Z"/><path class="cls-1" d="m232.19,107.19c.72.89,1.46,1.77,2.23,2.62.28.31.61.57.89.88.97,1.11,1.95,2.24,3,3.28.46.47.99.86,1.47,1.3.64.54,1.3,1.06,1.85,1.71.17.21-.01.39-.37.49-.35.09-.89.12-1.33-.12-1.57-.81-2.92-1.93-4.11-3.23-.71-.78-1.62-1.4-2.38-2.16-.84-.83-1.65-1.68-2.45-2.55l-1.46-1.61c-.74-.81-1.44-1.66-2.2-2.44-.57-.62-1.27-1.12-1.86-1.71-.12-.14-.25-.27-.35-.43-.34-.62-.31-.92-.06-1.32.06-.09.11-.19.17-.27.21-.25.62-.24,1.15-.03.39.15.75.33,1.1.53.3.23.59.49.87.74.57.51,1.1,1.07,1.6,1.65.75.87,1.5,1.75,2.25,2.62l-.04.04Z"/><path class="cls-1" d="m223.7,110.82c-.59.96-1.22,1.91-1.89,2.83-.24.34-.43.7-.69,1.03-.91,1.15-1.95,2.17-2.99,3.16-.47.43-.89.91-1.32,1.36-.57.56-1.11,1.17-1.94,1.46-.25.1-.31-.02-.33-.34,0-.16-.01-.38,0-.62,0-.26.05-.5.18-.68.24-.33.44-.68.68-1l.78-.89c.53-.58,1.07-1.15,1.64-1.71.68-.66,1.19-1.52,1.73-2.31.59-.88,1.18-1.77,1.71-2.71.33-.57.65-1.16.94-1.75.44-.91.91-1.82,1.29-2.75.31-.72.4-1.52.71-2.23.06-.16.11-.32.18-.48.28-.58.51-.71.99-.66.11,0,.22,0,.32.03.33.06.53.43.53.93.06,1.53-.4,2.94-.93,4.35-.42,1.03-.99,2.02-1.53,3.02l-.05-.02Z"/><path class="cls-1" d="m213.88,132.5c-.72-.72-1.37-1.57-1.72-2.64-.38-1.04-.42-2.31.02-3.38.29-.79.75-1.47,1.27-1.98.94-.93,2.23-1.6,3.56-1.72,1.32-.14,2.6.13,3.72.61.99.46,1.88,1.06,2.67,1.77,1.06.86,1.72,2.23,1.8,3.59.02.43-.25.39-.66.18-.21-.11-.43-.26-.69-.41-.29-.15-.52-.32-.76-.51-1.55-1.37-3.25-2.45-5.17-2.81-1.16-.13-2.28.48-3.11,1.42-.42.48-.67,1.02-.69,1.62-.03.61.23,1.27.64,1.85.52.72,1.26,1.35,2.1,1.79,1.25.65,2.78,1.05,4.12.77,1-.22,1.58-1.04,1.89-1.97.07-.21.11-.43.17-.64.21-.82.39-1.06,1.13-1.14.16-.02.33-.06.49-.06.52-.02.95.48.87,1.32-.12,1.22-.6,2.64-1.84,3.73-.61.54-1.41.91-2.21,1.06-.41.08-.77.1-1.11.1-.35.02-.7,0-1.05-.04-1.03-.08-2.02-.37-2.94-.79-.92-.41-1.78-.98-2.53-1.69l.04-.04Z"/><path class="cls-1" d="m204.67,122.04c-.71-.75-1.28-1.62-1.72-2.58-.47-.93-.77-2.04-.71-3.22.02-.22.02-.43.05-.65l.17-.65c.09-.45.37-.83.6-1.21.87-1.12,2.09-1.99,3.49-2.3,1.38-.32,2.78-.14,4,.31,1.08.42,2.06,1.01,2.92,1.74,1.14.88,1.88,2.31,1.99,3.75.03.45-.25.41-.66.18-.39-.25-1.01-.59-1.5-.98l-.31-.27-.35-.24-.62-.5c-.42-.33-.88-.59-1.35-.83-.96-.4-1.9-.82-2.91-.83-.31-.05-.59.07-.9.12-.27.14-.57.22-.82.43l-.39.27-.34.35c-.28.24-.34.45-.52.67-.55,1.03-.18,2.78.81,4.05.58.81,1.32,1.55,2.17,2.07.64.39,1.34.73,2.05.83.36.1.71.05,1.06.05.33-.09.68-.14.96-.3.9-.49,1.24-1.58,1.42-2.71l.09-.77c.14-.98.34-1.29,1.07-1.4.16-.03.33-.07.49-.07.52-.02.94.47.93,1.29-.02,1.21-.16,2.56-1,3.96-.42.69-1.07,1.37-1.89,1.78-.41.21-.82.33-1.24.42-.42.13-.83.12-1.25.13-1.22-.01-2.37-.35-3.31-.89-.96-.52-1.8-1.17-2.52-1.94l.04-.04Z"/><path class="cls-1" d="m233.18,120.03c-.77,1.13-1.5,2.3-2.21,3.51-.26.44-.45.91-.71,1.35-.89,1.57-1.96,3.09-3,4.6-.24.33-.47.67-.69,1.01-.24.33-.5.65-.75.97-.64.82-1.39,1.58-2.26,2.16-.26.19-.27.11-.16-.16.12-.27.32-.76.61-1.25.25-.45.52-.87.75-1.32.22-.46.45-.9.69-1.34.48-.89.95-1.79,1.48-2.68.61-1.08,1.08-2.29,1.66-3.44.63-1.26,1.3-2.53,2.01-3.77.42-.77.92-1.51,1.39-2.26.74-1.12,1.56-2.21,2.38-3.27.33-.41.61-.85.92-1.27.32-.42.66-.82,1.01-1.21.15-.18.32-.34.5-.49.67-.57,1.02-.57,1.49-.24.11.07.22.14.31.22.15.14.21.32.2.56,0,.23-.07.52-.24.75-.95,1.49-2.03,2.81-3.09,4.25-.79,1.05-1.53,2.2-2.25,3.36l-.05-.03Z"/><path class="cls-1" d="m238.94,211.35c2.19-1.94,4.61-3.62,7.16-5.03,2.56-1.4,5.28-2.46,8.04-3.32,2.78-.83,5.65-1.33,8.54-1.6,2.9-.22,5.81-.11,8.69.28,4.19.62,8.31,1.89,12.04,3.92,6.56,3.58,11.96,9.19,15.21,15.87,3.26,6.66,4.43,14.29,3.23,21.57-.54,3.23-1.52,6.39-2.95,9.33-1.43,2.95-3.19,5.66-5.21,8.19-.63.83-1.36,1.58-2.05,2.35-.75.72-1.46,1.49-2.28,2.15-1.57,1.4-3.34,2.58-5.23,3.53-3.76,1.92-8.2,2.77-12.32,1.99-1.26-.41-1.77-.64-1.72-.74.05-.11.7-.14,1.78-.35,1.08-.24,2.55-.45,4.23-.92,1.67-.48,3.56-1.05,5.5-1.96,6.9-3.22,12.19-9.85,15.38-16.93,1.51-3.58,2.39-7.46,2.5-11.39.1-3.93-.47-7.9-1.7-11.69-.79-2.25-1.77-4.46-3.04-6.53-1.31-2.04-2.77-4.01-4.53-5.74-.41-.46-.87-.87-1.33-1.27-.46-.4-.91-.83-1.38-1.22-.99-.72-1.93-1.53-2.99-2.14-2.04-1.37-4.28-2.4-6.55-3.28-5.04-1.85-10.53-2.52-15.91-1.95-5.38.56-10.68,2.26-15.38,4.98-5.78,3.34-10.59,8.38-13.52,14.41-4.49,9.09-4.44,20.42.45,29.31,1.86,3.45,4.34,6.52,7.22,9.1.75.62,1.48,1.25,2.24,1.84.79.55,1.56,1.15,2.37,1.66.83.5,1.64,1.05,2.47,1.5.83.47,1.7.87,2.57,1.26,1.55.67,3.13,1.18,4.78,1.65,3.04.93,5.13,1.32,6.57,1.74,1.44.43,2.27.79,2.94,1.16.3.17.71.33.88.45.29.21-.23.32-1.45.44-1.22.12-3.14.14-5.57-.24-3.61-.51-7.26-1.5-10.73-3.17-3.46-1.73-6.6-3.9-9.48-6.55-5.71-5.27-9.92-12.58-11.1-20.52-.96-5.86-.36-11.98,1.69-17.56,2.04-5.58,5.45-10.67,9.87-14.61l.06.05Z"/><path class="cls-1" d="m256.15,280.64s-.12.12-.13.19c.01.03.07.03.1.08.06,0,.08,0,.21,0h.17c.06-.01.1-.01.29-.05.51-.09,1-.27,1.51-.39,1.79-.4,3.53-1.05,5.2-1.87.72-.39,1.4-.86,2-1.41.79-.68,1.53-1.38,2.3-2.12.25-.22.47-.04.58.38.1.42.12,1.15-.25,1.74-.15.27-.34.51-.52.76-.18.25-.36.51-.58.72-.43.43-.91.81-1.39,1.17-.99.69-2.03,1.29-3.17,1.67-1.35.46-2.67,1.08-4.07,1.44-.25.07-.51.12-.77.18l-.38.09c-.12.03-.36.06-.53.09l-1.1.18-1.1.06c-.4.06-.58-.07-.84-.14l-.37-.11c-.14,0-.23-.18-.23-.28-.06-.4,0-.9.26-1.55.28-.64.65-1.33.91-1.89.57-1.25,1.1-2.54,1.36-3.86.2-1.03.16-2.06.04-3.03-.04-.21-.06-.42-.08-.63-.07-.79-.01-1.05.46-1.37.1-.07.19-.16.29-.21.29-.18.82.06,1.1.75.47,1.01.6,2.16.54,3.26-.05,1.11-.28,2.21-.59,3.25-.23.78-.52,1.53-.83,2.26l-.22.51h-.02s-.03.05-.05.07l-.08.04Z"/><path class="cls-2" d="m248.46,221.66c-.39.72,1,9.08,3.24,7.49,2.24-1.6,2.3-4.59,4.72-3.64,2.42.95,4.11,2.27,6.1,1.79,1.99-.47,3.5-7.78,1.05-9.3-2.45-1.52-9.53-1.65-12.6,1.12-3.08,2.77-2.51,2.54-2.51,2.54Z"/><path class="cls-3" d="m256.62,255.58c.55-.37.69-3.05.97-4.93.27-1.88.81-3.39,0-4.89-.81-1.51-5.76,2.8-7.26,1.6-1.51-1.2-1.88-6.32-3.5-6.67-1.62-.35-4.2,1.97-4.2,1.97,0,0,1.32,3.96,4.17,7.48s9.82,5.44,9.82,5.44Z"/><path class="cls-1" d="m280.57,232.2s-9.24,3.57-10.15,4.7,4.07,1.72,5.08,4.39.78,6.5,2.1,6.99,4.33-6.21,4.33-8.84-1.35-7.24-1.35-7.24Z"/><path class="cls-1" d="m280.65,247.49c-1.57,3.03-3.83,5.72-6.7,7.63-2.82,1.95-6.32,2.97-9.67,2.98-2.45.05-4.85-.24-7.19-.83-2.05-.53-4.06-1.27-5.95-2.3-.94-.52-1.86-1.1-2.7-1.8-.44-.34-.82-.72-1.19-1.11l-1.11-1.15c-2.84-3.21-4.56-7.33-5.04-11.53-.43-3.75.21-7.58,1.62-11.02,1.75-4.44,5.08-8.33,9.3-10.45,1.39-.53,1.15-.5.37.5-.36.54-1.01,1.11-1.57,2-.3.43-.66.84-1.04,1.27-.39.42-.71.95-1.12,1.42-2.76,3.45-4.71,7.53-5.16,11.88l-.14,1.63c0,.54.03,1.09.04,1.63-.01.55.07,1.09.16,1.63.1.54.1,1.1.28,1.62.45,2.16,1.39,4.17,2.53,6.08.39.54.79,1.08,1.18,1.63.44.51.93.98,1.4,1.48.94.97,2.05,1.71,3.27,2.37,2.43,1.3,5.19,2.07,7.94,2.49,3.03.42,6.15.42,8.93-.62,1.4-.5,2.73-1.21,3.94-2.1,1.2-.9,2.28-1.97,3.22-3.15,2.31-2.93,3.78-6.54,4.14-10.3.39-2.86.2-5.77-.53-8.51-.75-2.74-2.2-5.26-4.22-7.21-1.52-1.58-3.47-2.64-5.43-3.52l-1.52-.57c-.5-.2-1.05-.29-1.56-.44-1.04-.32-2.12-.45-3.2-.63-.95-.16-1.9-.13-2.86-.28-.9-.08-1.65-.08-2.28-.15-.32-.03-.6-.06-.86-.08-.26-.01-.49-.02-.71-.05-.85-.12-1.36-.33-1.78-.57-.19-.11-.44-.19-.55-.28-.19-.14.08-.29.75-.58.33-.15.77-.28,1.29-.42.53-.16,1.15-.24,1.85-.28,4.17-.43,8.64.18,12.86,1.95,2.06.98,4.11,2.16,5.78,3.86l.65.61c.2.21.38.45.58.68l1.12,1.39.93,1.53c.15.26.32.51.45.77l.35.82c1.45,3.23,1.94,6.78,1.79,10.19-.19,3.36-.94,6.88-2.55,9.93l-.06-.02Z"/><path class="cls-1" d="m260.62,228.24c-1.02-.09-2.04-.39-2.92-.85-.4-.21-.66-.35-.8-.39-.17-.05-.36-.04-.6.04-.37.14-.76.5-1.2.88-.4.33-.81.71-1.29,1.08-.48.36-1.03.75-1.75.93-.71.19-1.55.08-2.15-.26-.6-.33-1.04-.75-1.44-1.23-.69-.85-1.15-1.85-1.35-2.89-.13-.67-.11-1.36.02-2.03.11-.68.53-1.27.95-1.77.29-.3.34-.18.35.2,0,.18.04.45.08.73.03.16.06.31.09.45.01.07.03.15.06.23v.22c-.03.52.05,1.03.17,1.51.08.49.24.96.46,1.4.22.43.51.82.86,1.14.36.34.7.56,1,.59.38.1.9-.18,1.41-.65.52-.46,1.01-1.06,1.68-1.62.36-.31.79-.61,1.31-.83.52-.25,1.18-.29,1.78-.2.6.12,1.03.37,1.37.52.34.14.67.27,1.03.34.88.2,1.82.2,2.72-.02,1.35-.33,2.62-1.13,3.32-2.34.56-.93.68-2.05.56-3.04-.03-.22-.08-.43-.12-.65-.14-.79-.1-1.02.63-1.46.15-.1.29-.21.43-.29.4-.26,1.23-.07,1.5.81.88,2.53-.06,5.67-2.28,7.6-1.66,1.44-3.82,2.03-5.88,1.91v-.06Z"/><path class="cls-1" d="m257.02,246.34c-.02-.25-.33-.65-.73-.86-.35-.2-.97-.28-1.59-.19-.46.06-.93.25-1.44.41-.43.13-.96.34-1.53.46-.57.12-1.29.21-2.02-.07-.73-.27-1.26-.92-1.47-1.5-.22-.58-.29-1.11-.38-1.58-.15-.85-.43-1.51-1.02-1.76-.37-.17-.87-.13-1.37,0-.49.14-1.04.26-1.56.48-.33.12-.32.06-.14-.21.2-.25.51-.83,1.15-1.22.57-.29,1.27-.56,2.13-.44.86.11,1.68.78,2.01,1.48.36.69.49,1.3.64,1.81.15.51.3.85.41,1.02.14.22.51.28,1.08.1.54-.16,1.19-.53,1.94-.78.8-.27,1.7-.48,2.67-.42.97.05,2,.48,2.69,1.2.44.44.79,1.03.91,1.72.12.7-.07,1.4-.3,1.89-.35.75-.69,1.3-.7,1.73-.04.43.26,1.04.57,1.8.52,1.29.35,2.93-.55,4.06-.22.23-.44.46-.72.63-.54.29-.97.32-1.25.28-.29-.03-.47-.18-.61-.36-.06-.08-.13-.15-.16-.21-.1-.18.23-.6.5-1.06.19-.38.3-.73.35-1.05.12-.27.19-.55.19-.79,0-.12,0-.23-.03-.33-.02-.1-.04-.16-.1-.32-.12-.32-.39-.8-.62-1.58-.17-.56-.21-1.45,0-2.06.19-.62.44-1.05.62-1.38.19-.33.3-.55.34-.66.04-.1.05-.12.04-.24l.06-.02Z"/><path class="cls-1" d="m272.7,241.63c-.36-.1-.85-.24-1.27-.43-.43-.19-.85-.44-1.24-.76-.39-.33-.75-.76-1-1.32-.23-.56-.26-1.21-.07-1.78.28-.84.83-1.4,1.38-1.79,1.03-.67,2-.94,2.97-1.25.97-.29,1.91-.53,2.78-.87.78-.3,1.46-.73,2.02-1.27.36-.34.68-.71.93-1.1.14-.19.24-.39.36-.59.1-.2.29-.38.41-.6.17-.26.49-.24.86.14.19.19.38.49.51.87.11.37.05.79-.13,1.17-.34.66-.78,1.24-1.29,1.71-.53.45-1.11.81-1.71,1.11-1.21.58-2.4.84-3.54,1.06-1.33.28-2.73.74-3.51,1.42-.43.38-.57.76-.41,1.19.18.43.79.79,1.41,1,.75.26,1.79.31,2.8.7.78.27,1.62.93,1.94,1.81.33.86.32,1.7.27,2.47-.09,1.16-.13,2.25.22,2.85.07.14.18.25.27.35.27.4.22.47.25,1.15,0,.13.04.26.06.38.02.19-.06.36-.34.53-.29.18-.75.12-1.22-.13-1.44-.75-1.82-2.6-1.75-3.77,0-.62.11-1.14.17-1.59.06-.42.09-.8.06-1.1-.06-.45-.08-.58-.42-.85-.35-.26-1.02-.46-1.79-.65v-.05Z"/><path class="cls-1" d="m332.81,134.09l-.31,1.12-.16.56-.08.28-.04.13v.02c-.09.11-.18.29-.27.5-.02.06-.07.2.03.15.07-.02.13-.04.18-.04.09,0,.21,0,.35,0h.11s.06-.01.06-.01l.16-.04.68-.19c.9-.27,1.81-.55,2.69-.89.79-.3,1.53-.71,2.24-1.14.89-.6,1.81-1.14,2.84-1.57.32-.12.52.21.54.72.01.51-.14,1.25-.63,1.72-.84.85-1.89,1.41-2.93,1.97-1.05.53-2.15.99-3.3,1.28-.34.09-.69.18-1.03.29l-1.38.44-.83.25c-.28.09-.55.17-.79.19l-.75.1c-.21,0-.33-.09-.5-.13-.15-.06-.38-.07-.46-.31-.08-.17-.12-.35-.16-.55-.07-.4,0-.98.16-1.57.15-.6.35-1.2.51-1.78l.34-1.09c.27-.89.5-1.78.7-2.68.29-1.36.56-2.74.63-4.12.06-1.07-.13-2.12-.18-3.16-.02-.23-.06-.45-.06-.68-.01-.21,0-.39,0-.54.03-.15.1-.28.16-.38.13-.21.3-.35.53-.47.1-.06.2-.12.3-.16.3-.12.7.2,1.09.85.17.49.32,1,.45,1.52.13.52.22,1.05.23,1.58.04,1.07-.03,2.14-.15,3.21-.19,1.58-.54,3.14-.91,4.66h-.06Z"/><path class="cls-1" d="m350.41,60.87c6.28-1.13,12.73-.96,18.93.31,3.1.65,6.13,1.62,9.06,2.82,2.9,1.28,5.71,2.77,8.32,4.58,3.8,2.63,7.28,5.79,10.04,9.53l1.72,2.53c.29.41.52.9.79,1.35.24.46.54.9.73,1.38.43.95.88,1.89,1.19,2.87.37.97.64,1.96.9,2.96,1.02,3.99,1.2,8.12.87,12.16-.34,4.05-1.37,8.03-2.95,11.77-.4.94-.87,1.84-1.33,2.75-.53.87-.99,1.79-1.61,2.59l-1.75,2.47-1.98,2.29c-2.45,2.59-5.14,5.03-8.2,6.89-3.02,1.91-6.24,3.51-9.63,4.56-4.32,1.4-8.9,2.18-13.47,2.03-4.56-.11-9.15-1.15-13.15-3.28-2.49-1.34-2.04-1.29.27-.79,1.13.32,2.83.42,4.75.71.99.06,2.05.09,3.15.21,1.12.03,2.28.12,3.5.19,4.31.13,8.64-.4,12.78-1.6,4.14-1.21,8.07-3.12,11.57-5.61,3.51-2.49,6.61-5.56,9.11-9.09,2.58-3.45,4.25-7.49,5.26-11.75,1.19-5.09,1.19-10.61-.14-15.77-.67-2.58-1.69-5.07-3.11-7.29-1.52-2.23-3.11-4.42-5.04-6.31-8.26-8.53-20.33-13.07-32.27-13.01-7.36,0-14.78,1.84-21.09,5.59-1.23.66-2.32,1.54-3.46,2.32-1.05.91-2.17,1.74-3.12,2.77-1.02.95-1.89,2.04-2.78,3.11-.45.53-.8,1.14-1.21,1.7-.4.57-.8,1.14-1.11,1.76l-1.01,1.83c-.3.62-.56,1.27-.85,1.91-.62,1.25-.94,2.62-1.41,3.93-.2.67-.32,1.35-.49,2.03-.13.68-.35,1.35-.42,2.04-.16,1.38-.43,2.77-.47,4.12-.12,4.26.81,8.52,2.34,12.47,1.54,3.95,3.74,7.64,6.53,10.75,1.24,1.37,2.58,2.56,4.06,3.66,1.37,1.01,2.59,1.71,3.63,2.25.53.27,1,.51,1.43.73.44.19.84.38,1.2.55.73.29,1.3.58,1.79.8.49.24.87.5,1.22.7.32.2.76.4.95.55.32.26-.25.4-1.63.48-.69.02-1.58-.04-2.62-.25-1.04-.2-2.25-.53-3.55-1.07-3.81-1.68-7.16-4.42-9.84-7.66-2.69-3.25-4.78-7.01-6.26-11.01-1.47-4.01-2.38-8.3-2.3-12.76,0-.56.05-1.12.09-1.68l.21-1.61c.14-1.07.25-2.15.52-3.21.42-2.14,1.06-4.23,1.84-6.29,1.17-3.05,2.83-5.9,4.77-8.54,1.99-2.61,4.37-4.9,6.95-6.89,5.24-3.93,11.4-6.43,17.73-7.59l.03.08Z"/><path class="cls-2" d="m353.66,95.86s6.36-.97,6.88-3.32.17-8.64-2.08-9.11c-2.24-.47-5.02-1.88-7.91,0s-2.95,9.89-2.08,10.17c.86.28-8.11,13.91-6.63,18.05s18.13,2.35,18.13,2.35c0,0-.93-11.61-5.61-17.92l-.7-.23Z"/><path class="cls-1" d="m354.54,81.18c1.24-.04,2.59.26,3.67.94,1.06.65,1.88,1.54,2.51,2.49.45.7.88,1.41,1.11,2.2.41,1.4.48,2.86.21,4.28-.05.36-.2.71-.3,1.06-.12.35-.32.67-.48,1-.41.62-.89,1.19-1.47,1.61-1.01.78-2.16,1.24-3.31,1.48-1.46.3-3,.48-4.39-.18-.42-.23-.35-.23.04-.44.4-.24,1.08-.69,1.82-.84,1.32-.15,2.56-.56,3.57-1.09,1-.55,1.76-1.25,2.13-2.32.28-.62.24-1.4.17-2.16-.11-.74-.38-1.47-.7-2.15-.66-1.5-1.89-2.86-3.38-3.15-.93-.21-2-.06-2.96.34-1.49.6-2.75,1.77-3.22,3.34-.39,1.21-.29,2.51,0,3.72.07.27.15.52.23.79.26.99.24,1.35-.17,1.8-.08.1-.15.21-.22.28-.19.22-.89.02-1.37-.8-.7-1.2-1.06-2.66-1.08-4.18,0-1.52.42-3.15,1.34-4.55.71-1.07,1.66-1.89,2.71-2.49,1.05-.62,2.26-.97,3.53-1.06v.07Z"/><path class="cls-1" d="m344.07,112.6c1.28.5,2.78.82,4.28,1.02,1.51.21,3.05.31,4.59.33,1.13,0,2.25-.11,3.36-.19.98-.07,1.95-.19,2.89-.37.92-.18,1.85-.44,2.49-.81.16-.09.33-.22.36-.43.03-.09-.01-.69-.07-1.15-.09-.96-.28-1.94-.52-2.9-.41-1.72-1.09-3.39-1.8-4.99-.46-1.03-.98-2.04-1.52-3.03-.29-.48-.54-.99-.8-1.49-.13-.26-.27-.5-.41-.75-.13-.26-.2-.56-.33-.82-.27-.71-.27-.6.34-.32.67.22,1.92.78,2.8,1.9,1.48,2.01,2.74,4.16,3.53,6.52.41,1.17.78,2.37,1.03,3.61.12.62.24,1.25.3,1.89.05.32.06.65.07.97,0,.16.04.49,0,.73-.08.25-.07.52-.16.76-.13.28-.26.56-.48.79-.19.24-.41.45-.7.65-.25.2-.43.27-.64.39-.21.12-.41.2-.61.28-.8.33-1.56.54-2.33.7-1.53.34-3.05.53-4.56.6-3.32.12-6.61-.07-9.89-.84-1.01-.25-2.01-.56-3-1.06-.49-.25-.99-.56-1.44-1-.43-.44-.89-1.09-.9-1.85l-.02-.12c.03-3.24,1.18-6.17,2.48-8.87,1.04-2.12,2.12-4.17,3.4-6.13.29-.42.54-.86.86-1.28.55-.79,1.06-1.2,1.44-1.46.38-.26.72-.31,1.08-.26.16.02.33,0,.44.04.36.09.24,1-.44,2.16-2.08,3.42-4.37,6.96-5.73,10.75-.58,1.65-.99,3.37-.96,4.96,0,0,.01,0,0,.01.02,0,0,0,.02.03.04.03.06.07.09.12.07.05.13.1.19.16.32.23.78.48,1.3.67l-.02.06Z"/><path class="cls-1" d="m382.54,95.71c-1.46.53-2.96.65-4.41.5-1.45-.14-2.87-.62-4.12-1.41-.91-.58-1.74-1.33-2.31-2.28-.53-.85-.74-1.72-.99-2.57l-.19-1.34c-.03-.45,0-.91,0-1.36.14-1.81.89-3.54,2.08-4.85,1.03-1.18,2.34-2.1,3.78-2.65.46-.17.95-.29,1.43-.41.49-.05.98-.18,1.48-.14l.75.02c.25.02.49.11.73.16.24.07.48.11.71.21l.67.31c.55.27.36.44-.19.57-.28.08-.62.09-1.03.2-.41.09-.84.2-1.3.24-1.63.09-3.17.74-4.45,1.68-1.27.96-2.29,2.3-2.67,3.9-.3.94-.16,1.99.04,2.99.18.48.33,1.02.55,1.45.2.44.5.83.84,1.17,1.5,1.52,3.99,2.06,6.2,1.64,1.36-.25,2.61-.93,3.58-1.91.74-.74,1.28-1.67,1.66-2.66.36-1,.45-2.09.33-3.11-.23-1.62-1.23-2.92-2.38-3.71-.28-.15-.55-.29-.83-.44-1.05-.53-1.4-.87-1.58-1.64-.04-.15-.12-.3-.15-.4-.04-.19.08-.32.42-.55.17-.13.38-.2.64-.26.26-.05.56-.11.89-.05,1,.09,1.96.53,2.86,1.12.88.61,1.69,1.44,2.16,2.44,1.03,1.96,1.2,4.24.74,6.31-.37,1.54-1.09,2.98-2.1,4.19-.99,1.25-2.38,2.1-3.81,2.7l-.03-.06Z"/><path class="cls-1" d="m378.32,84.24c-.05.29-1.04,5.74,0,6.21,1.04.47,1.41-.5,1.41-.5v-5.71s-1.12-1.81-1.41,0Z"/><path class="cls-1" d="m381.82,86.53c-.29-.05-5.74-1.04-6.21,0-.47,1.04.5,1.41.5,1.41h5.71s1.81-1.12,0-1.41Z"/><path class="cls-1" d="m178.89,360.23l18.59-46.5c2.07-.41,36.9-4.97,36.9-4.97,0,0-7.41,28.23-10.97,30.26-3.56,2.03-8.83,4.01-5.82,4.99,3.01.99,6.56.8,6.56.8l-.75,2.62s-10.51,2.93-9.95,5.32,1.28,6.49,5.26,6.42c3.98-.07-5.33,4.7-3.75,6.57s-5.96,25.77-5.96,25.77l-39.57,2.81,3.55-9.99s19.01-8.88,22.96-14.03c3.95-5.16,3.49-12.11,3.49-12.11,0,0,1.8-11.68,0-12.62s-1.23-3.95-2.74-3.95c-1.51,0-5.06,9.21-7.64,12.03-2.58,2.82-9.11,7.32-10.17,6.59Z"/><path class="cls-1" d="m66.25,412.52c-.61-3.45-.96-6.93-1.16-10.39-.06-1.26-.19-2.53-.21-3.79-.09-4.46.15-8.9.55-13.32.19-1.96.38-3.93.57-5.87.12-1.25.28-2.5.46-3.74.1-.62.22-1.24.35-1.86.06-.31.14-.61.22-.92.09-.3.23-.6.36-.89.37-.72.58-.57.94.17.43.75.74,2.03.54,3.43-.32,2.49-.63,4.98-.95,7.47-.28,2.5-.53,5.01-.75,7.55-.27,3.03-.12,6.2.02,9.3.18,3.41.51,6.81,1.06,10.18.35,2.07.75,4.13,1.32,6.14.82,3.06,1.91,6.07,3.43,8.79,1.18,2.12,2.72,3.94,4.43,5.5.36.36.77.65,1.14,1,.35.32.67.54.92.77.24.23.42.45.58.61.31.34.44.63.51.96.03.15.09.31.09.44,0,.21-.21.28-.62.24-.4-.06-1.05-.15-1.76-.52-.52-.28-1.05-.55-1.54-.9-.5-.33-1.01-.67-1.46-1.07-.45-.4-.9-.82-1.3-1.28-.42-.44-.82-.9-1.18-1.39-1.5-1.93-2.7-4.08-3.67-6.3-1.38-3.33-2.31-6.8-2.96-10.28l.06-.02Z"/><path class="cls-1" d="m154.77,378.99c-.38-.19-3.28-8.21-5.33-7.64-2.05.56,0,9.04,0,9.04l5.33-1.39Z"/><path class="cls-1" d="m153.14,395.2s4.96,11.24,8.28,9.64c2.62-1.26-2.14-13.33-2.14-13.33l-6.15,3.69Z"/><path class="cls-1" d="m131.56,323.82c-.11.39-.16.87-.69,1.41-.2.19-.48.37-.82.38-.63,0-.99-.41-1.14-.73-.14-.35-.15-.75-.01-1.08.11-.26.25-.47.4-.64.19-.22.38-.42.65-.47.17-.05.47.69.37.92-.11.19-.17.35-.18.43v.05s0,.01,0,.01h0s0,0,0,0h0s0,0,0,0h0c.16.03-.22-.04-.18-.04.02,0,.04,0,.06,0,.04,0,.1,0,.11,0,0,0-.02.01-.03.02-.02.02,0,.02-.01.04,0,0,0,.01,0,.01-.02.02-.04.05-.06.08-.09.13-.04.22-.08.09,0,0-.02-.04-.09-.1-.02-.01.02,0,.04-.04.05-.06.1-.15.14-.3.05-.17.09-.34.1-.52,0-.26.03-.55-.1-.8-.04-.08-.1-.15-.17-.21l.72.33c0,.06.05.15.08.17.02.02,0,0,0,0-.02-.01-.03-.01-.07-.02-.13-.03-.29-.03-.49-.03h-.26c-.14.02-.27,0-.41-.07-.13-.07-.31-.22-.32-.39,0-.26.07-.53.22-.77.16-.23.42-.41.72-.51l.97-.32.42.97c.11.25.1.54.17.8.09.43.07.87.01,1.29h-.04Z"/><path class="cls-1" d="m108.91,309.71s1.38.09,2.49-.47c1.31-.66,2.33-2.02,1.54-2.64-1.44-1.14,2.12,2.3.52,4-2.92,3.13-4.56-.88-4.56-.88Z"/><path class="cls-1" d="m123.58,205.22s14.88,11.74,31.9,11.5c21.58-.3,33.58-28.99,13.07-46.59,0,0-24.31-9.04-36.48,0-12.17,9.04-16.19,19.74-16.19,19.74,0,0-24.11-23.76-45.61,2.4,0,0-6.81,4.01-6.59,17.74.22,13.73,2,32.22.31,39.93-1.69,7.71-4.99,8.6-15.44,17.05-10.44,8.46-15.55,11.37-16.62,20.78-1.07,9.41,1,21.03,6.27,25.95,5.27,4.92,13.18,10.59,25.04,10.11,11.86-.48,27.02-9.75,27.02-9.75,0,0,11.55-15.18,15.86-15.33s9.59,2.03,13.39,4.37,9.36,6.2,12.56,4.42c3.2-1.78,6.87-7.07,7.21-8.53,0,0,2.73,13.1,12.2,14.01s19.45-1.11,20.57-7.44c1.12-6.33-6.25-17.28-5.66-22.33s6.61-17.65,6.22-21.3c-.39-3.65-6.14-12.26-8.84-17.74s-5.38-23.58-4.52-25.99c.86-2.41-3.77-.75-3.77-.75,0,0-1.96,20.69-3.9,25.16,0,0,3.56,2.94,3.16,6.12s-7.01,5.26-7.01,5.26c0,0-3.17,11.93-5.62,15.97-2.45,4.04-6.78,9.88-15.81,9.97-9.04.09-18.31-5.08-20.63-12.97-2.32-7.89-2.68-17.05-2.68-17.05,0,0-9.22-2.41-10.19-7.5s-1.37-10.8,2.64-11.97c4.01-1.17,7.45-1.48,9.01,1.77s2.83,8.47,2.83,8.47c0,0-1.4-10.21,2.6-17.62,4-7.41,7.8-15.75,9.4-17.41,1.61-1.66,4.3-.46,4.3-.46Z"/><path class="cls-1" d="m155.88,377.21c.97-.47,1.95-.98,2.85-1.6.33-.23.63-.49.95-.74,1.17-.81,2.28-1.72,3.31-2.74.49-.42.88-.93,1.29-1.43.45-.68,1.01-1.29,1.67-1.84.21-.17.39-.02.52.33.12.34.25.92.1,1.43-.27.89-.86,1.57-1.37,2.3-.53.72-1.22,1.32-1.94,1.86-.87.64-1.61,1.47-2.48,2.14-.97.72-1.96,1.39-3.02,1.96-.63.38-1.31.68-1.97,1.01-1.02.46-2.06.85-3.09,1.25-.79.33-1.57.67-2.39.95-.18.07-.35.14-.54.14-.71.05-.96-.08-1.19-.55-.05-.1-.11-.2-.15-.29-.11-.29.09-.74.52-1.03.62-.49,1.28-.77,1.93-1.09.63-.37,1.34-.53,2-.83,1.01-.38,2-.81,2.97-1.3l.03.05Z"/><path class="cls-1" d="m187.47,326.48c.69-1.91,1.36-3.83,1.99-5.75.33-.96.62-1.93.93-2.89l1.01-3.29c.08-.21.2-.39.3-.58l.08-.14.02-.04h0s0,0,0,0h0s-.11-.11.11.1h0s0,0,0,0h.01s.06-.07.06-.07l.23-.22c.34-.26.78-.43,1.22-.51l2.65-.57c.83-.17,1.66-.34,2.5-.48,5.89-.98,11.78-1.84,17.66-2.74,2.61-.42,5.23-.84,7.81-1.26l2.49-.42c.83-.12,1.67-.23,2.51-.33.84-.09,1.67-.21,2.52-.25.85-.02,1.7-.05,2.54-.09,1.06-.03.93.08.09.45-.42.19-1.02.45-1.73.8-.36.17-.74.37-1.16.53-.42.15-.87.29-1.34.41-6.67,1.7-13.45,2.73-20.31,3.67-4.1.55-8.31,1.48-12.45,2.29l-2.3.47-.78.17c-.07.02-.14.03-.21.06-.05.05-.04.14-.09.19l-.55,1.92-.69,2.22c-.47,1.48-.95,2.95-1.45,4.41-.92,2.73-1.91,5.43-2.89,8.13-1.53,4.07-3.07,8.16-4.58,12.2-1.15,3.15-2.12,6.29-3.14,9.44-.23.69-.42,1.38-.66,2.07-.44,1.29-.79,2.11-1.17,2.64-.36.54-.74.79-1.19.94-.2.07-.41.18-.57.21-.51.1-.74-1.17-.28-3.13,1.54-5.76,3.72-11.63,5.91-17.48,1.62-4.35,3.29-8.7,4.8-13.08l.07.02Z"/><path class="cls-1" d="m189.21,394.21c-2.79.2-5.59.43-8.38.7l-3.05.36-4,.37-2,.19-1.13.11-1.58.18-.77-.16-.38-.07-.19-.04c-.06-.02-.1-.11-.11-.16-.14-.44-.12-1.01.08-1.69.16-.56.41-1.2.62-1.7l.44-1.13c.29-.75.58-1.5.86-2.24.71-1.92,1.4-3.83,2.44-5.6.31-.55.46-.44.62.18.08.31.16.74.23,1.26.04.51,0,1.08-.13,1.67-.11.45-.22.91-.34,1.35l-.44,1.31-.91,2.6-.46,1.28c-.1.3-.08.18-.1.23l-.05.05s-.08.1-.12.19c0,.06.05.06.11.09.03.01.07.03.12.04l.08.02s.05,0,.12,0h.19c2.52-.12,5.11-.54,7.68-.79l8.47-.75,5.22-.42c2.63-.2,5.28-.4,7.89-.59,2.03-.17,4.02-.46,6.03-.66.44-.04.88-.11,1.33-.14,1.67-.1,2.2.05,2.57.7.08.14.19.28.24.41.16.43-.5.94-1.7,1.09-3.55.53-7.29.84-11.07,1.15-2.81.23-5.62.46-8.44.69v-.06Z"/><path class="cls-1" d="m232.72,319.55l-1.64,4.64c-.2.57-.32,1.15-.53,1.71-.74,1.98-1.51,3.95-2.22,5.94-.31.89-.57,1.79-.87,2.67-.19.57-.33,1.15-.55,1.71-.24.55-.51,1.1-.81,1.64-.19.33-.34.24-.5-.13-.15-.37-.38-1.03-.37-1.74,0-.63.2-1.21.29-1.82.13-.6.23-1.2.43-1.78.37-1.16.79-2.32,1.26-3.46.57-1.37.89-2.87,1.34-4.3l1.59-4.71.97-2.9c.47-1.47.98-2.93,1.38-4.41.32-1.15.47-2.32.73-3.47.07-.25.12-.5.2-.75.31-.92.56-1.16,1.13-1.21.13,0,.26-.03.39-.03.41.03.64.51.62,1.24-.02.54-.05,1.09-.09,1.64-.09.53-.2,1.07-.32,1.6-.25,1.07-.55,2.13-.87,3.2-.47,1.58-1,3.15-1.51,4.73h-.06Z"/><path class="cls-1" d="m210.91,381.89c.47-1.18.93-2.36,1.36-3.56.16-.44.25-.89.42-1.33.59-1.53,1.22-3.05,1.77-4.6.24-.69.44-1.39.67-2.08.15-.44.25-.9.43-1.33.19-.43.42-.85.66-1.26.16-.26.28-.18.43.12.14.29.38.83.41,1.39.04.5-.1.96-.15,1.43-.08.47-.13.95-.27,1.4-.27.91-.59,1.81-.96,2.7-.46,1.06-.65,2.25-1.03,3.36-.41,1.22-.84,2.44-1.28,3.66l-.82,2.24c-.41,1.13-.86,2.26-1.23,3.4-.29.88-.44,1.8-.68,2.7-.06.19-.1.39-.18.58-.27.71-.55.86-1.13.8-.13-.01-.26-.01-.39-.04-.39-.08-.67-.52-.63-1.09.03-.42.08-.84.14-1.26.08-.41.19-.81.31-1.22.23-.81.51-1.62.79-2.42.44-1.19.88-2.4,1.31-3.59l.05.02Z"/><path class="cls-1" d="m224.2,365.09c-1.57.57-3.17,1.06-4.86,1.44-.62.13-1.23.32-1.92.37h-.56c-.2.01-.44,0-.65-.02-.22-.02-.42-.08-.62-.12-.19-.07-.38-.14-.56-.23-.35-.19-.64-.47-.83-.82-.16-.36-.26-.75-.22-1.15-.01-.2.05-.39.1-.59.05-.2.09-.39.19-.57.09-.18.19-.37.3-.53l.35-.44c.45-.52.91-.83,1.39-1.15.85-.54,1.69-1.01,2.53-1.45.53-.29,1.08-.57,1.65-.75.56-.21,1.16-.34,1.83-.22.42.07.38.09.21.49-.09.19-.18.56-.34.87-.08.16-.16.35-.26.49-.11.13-.24.24-.38.33-.97.69-2.05,1.07-3,1.62-.46.27-.94.53-1.32.82-.11.07-.19.14-.28.21l-.24.17-.26.17c-.18.13-.22.5.05.57.11.04.24.04.35.03.19-.02.52-.06.86-.13,1.46-.29,2.99-.82,4.48-1.38.92-.35,1.85-.71,2.75-1.12,1.35-.61,2.81-1.23,3.99-1.99.9-.59,1.61-1.52,1.66-2.17.01-.07,0-.13,0-.19,0-.06-.02-.11-.03-.17-.04-.19-.05-.34.07-.55.06-.1.1-.2.18-.31.09-.11.2-.24.31-.36l.28-.34c.15-.16.34-.21.68-.17.35.03.68.27.98.74.36.73.39,1.75.1,2.56-.28.82-.75,1.44-1.23,1.94-.96.99-2.12,1.62-3.11,2.12-1.5.75-3.04,1.4-4.6,2.03l-.03-.06Z"/><path class="cls-1" d="m219.05,357.37c1.56.08,3.2,0,4.81-.24.59-.08,1.16-.26,1.75-.37,2.06-.38,4.15-.86,6.01-1.75.82-.39,1.56-.95,2.05-1.53.31-.38.46-.79.4-1.02-.02-.19-.11-.4-.16-.61-.04-.23-.1-.43-.17-.62-.09-.14-.26-.41.25-.63.25-.08.71-.11,1.15.07.21.09.46.2.64.37.17.18.31.4.4.66.08.23.15.48.18.78.02.14.02.32,0,.5-.02.14-.05.27-.08.4-.05.28-.13.53-.24.74-.1.23-.21.46-.34.62-.5.77-1.08,1.28-1.71,1.69-1.23.8-2.51,1.3-3.82,1.64-1.55.41-3.08.99-4.67,1.28-1.74.33-3.5.51-5.29.53-1.1,0-2.2-.05-3.32-.23-.84-.13-1.71-.37-2.54-.84-.42-.24-.82-.57-1.14-1.01-.3-.46-.48-1.02-.46-1.54,0-.12,0-.27.02-.39.03-.81.9-1.48,1.32-1.81.51-.38,1.05-.69,1.61-.93.27-.11.53-.24.81-.32.26-.08.48-.12.67-.15.19-.01.36.03.49.07.27.08.43.22.57.4.06.09.14.16.18.24.13.27-.24.59-.81,1.03-.64.32-1.27.69-1.8,1.12-.26.21-.52.43-.69.64-.03.05.04.05-.02.06.08,0,.03,0,.05,0,0,.02.01.05.01.07.03.02.06.03.06.05.04,0,.04.01.04.03.03.02.06.04.08.08.2.19.82.46,1.49.6.69.15,1.46.21,2.24.24v.06Z"/><path class="cls-1" d="m34.96,276.06c.51-.69,1.01-1.38,1.53-2.05l1.67-1.87c1.16-1.21,2.37-2.39,3.69-3.43,2.61-2.14,5.56-3.83,8.43-5.25,2.84-1.45,5.6-2.71,7.5-4.7,1.97-1.94,3.22-4.55,4.01-7.47,1.22-4.2,1.36-8.72,1.3-13.24-.13-8-1.32-16.15-1.08-24.49.12-4.16.59-8.37,1.79-12.44.26-1.02.66-2.01,1-3.01.42-.97.79-1.97,1.29-2.9.91-1.91,2.07-3.7,3.32-5.41,2.28-2.98,4.9-5.62,7.79-8,2.92-2.34,6.24-4.19,9.76-5.46,4.56-1.54,9.55-1.92,14.3-.99,4.74.95,9.19,3.29,12.51,6.69,2,2.19,1.5,2.03-.6.77-1.07-.6-2.63-1.34-4.52-2.04-1.92-.65-4.1-1.36-6.49-1.91-2.11-.56-4.31-.66-6.46-.67-.54.03-1.08.1-1.62.14-.54.07-1.08.05-1.61.2l-1.59.33c-.26.06-.53.1-.79.17l-.77.26c-4.14,1.24-8,3.47-11.34,6.4l-1.25,1.11-.62.56-.57.62-2.28,2.48c-1.42,1.7-2.67,3.54-3.74,5.48-2.11,3.9-3.36,8.27-3.94,12.82-.71,5.45-.38,11.18.08,16.96.45,5.79,1.08,11.7.73,17.68-.2,3.28-.67,6.6-1.71,9.79l-.4,1.19c-.14.4-.33.79-.49,1.18l-.51,1.18-.65,1.13c-.84,1.52-2.03,2.88-3.32,4.04-1.32,1.16-2.78,2.05-4.22,2.86-1.44.78-2.9,1.48-4.28,2.21-2.79,1.44-5.4,3.06-7.69,5.11-.71.62-1.37,1.31-2.06,1.96l-1.9,2.13-1.68,2.27c-.52.78-.95,1.62-1.43,2.42-1.74,3.32-2.76,7.03-2.94,10.79-.1,2.85.15,5.73.86,8.53.75,2.78,1.84,5.47,3.28,7.98,2.97,4.91,7.15,9.31,12.31,11.71,4.05,1.83,8.48,2.69,12.88,2.79,4.41.09,8.81-.59,12.98-1.95,1.82-.65,3.59-1.33,5.32-2.22.41-.19.8-.38,1.17-.55.37-.19.7-.4,1.03-.59.66-.37,1.25-.71,1.8-1.02,1.07-.65,1.9-1.24,2.63-1.65.75-.4,1.29-.78,1.8-1.03.51-.25.96-.4,1.4-.51.4-.09.89-.27,1.18-.28.48,0,.24.57-.64,1.68-.45.54-1.02,1.25-1.84,1.96-.83.68-1.79,1.51-2.96,2.32-6.98,4.74-15.75,7.34-24.65,6.98-4.45-.19-8.94-1.1-13.15-2.98-.54-.2-1.04-.5-1.55-.77l-1.54-.83-1.46-.99c-.49-.33-.98-.66-1.39-1.05-1.77-1.45-3.43-3.04-4.89-4.81-2.22-2.58-4.01-5.54-5.35-8.69-1.33-3.15-2.3-6.49-2.57-9.94-.3-3.44-.06-6.94.77-10.31.83-3.38,2.38-6.56,4.32-9.41l.08.04Z"/><path class="cls-1" d="m165.44,286.76c-.91-3.36-1-7.08-.14-10.48.82-3.42,2.42-6.43,3.75-9.22.99-2.04,1.7-4.05,1.78-5.94.22-3.3-2.31-6.74-4.45-10.19-2.24-3.45-4.42-7.09-5.99-11-1.45-3.45-2.42-7.12-2.92-10.79l-.24-1.77c-.08-.59-.07-1.19-.11-1.78-.03-1.19-.17-2.39-.05-3.57.07-1.19.13-2.38.26-3.56.19-1.17.5-2.32.8-3.47.48-1.41.74-1.14,1.16.16.22.65.42,1.55.59,2.6.09,1.05.23,2.25.19,3.53-.13,4.56.38,9.08,1.67,13.4,1.29,4.33,3.31,8.43,5.79,12.43,1.44,2.43,3.19,4.75,4.73,7.46.36.71.77,1.36,1.04,2.16l.44,1.16c.1.42.23.82.29,1.25.3,1.69.18,3.46-.25,5.02-.93,3.47-2.68,6.21-3.86,9.07-1.24,2.83-1.94,5.77-1.78,8.77.08,1.84.46,3.68,1.06,5.47.31.89.65,1.78,1.05,2.65.38.87.84,1.85,1.2,2.79.55,1.45,1.04,2.93,1.37,4.46.34,1.52.57,3.08.58,4.68.04.79-.06,1.59-.12,2.39-.15.8-.26,1.59-.55,2.37-.51,1.54-1.32,3.05-2.51,4.19-.88.93-1.94,1.65-3.04,2.23-1.09.58-2.23,1.03-3.4,1.36-2.33.69-4.77.93-7.18.81-1.06-.06-2.11-.15-3.16-.36-3.91-.85-4.94-1.84-5.35-2.87-.09-.24-.23-.51-.25-.71-.04-.69,1.51-.41,4.03.13,1.88.4,3.82.6,5.74.55,1.92-.01,3.83-.27,5.63-.82.89-.27,1.79-.61,2.55-1.05.78-.41,1.46-.9,2.04-1.48,1.15-1.15,1.84-2.68,2.1-4.44.4-2.62-.12-5.6-1.02-8.42-.48-1.44-1.04-2.76-1.72-4.21-.74-1.55-1.35-3.2-1.82-4.9l.08-.03Z"/><path class="cls-1" d="m148.11,240.56c.79,1.01,2.17.48,2.87-.32.69-.78,1.1-1.82,1.38-2.81.57-2.06.32-4.19.2-6.29-.04-.67-.55-1.25-1.25-1.25-.65,0-1.29.57-1.25,1.25.05.85.12,1.7.16,2.56.02.4.02.79,0,1.19,0,.2-.02.39-.03.59,0,.09-.02.17-.03.26-.03.23.05-.29-.02.12-.06.37-.14.74-.25,1.1-.13.42-.23.69-.41,1.03-.08.15-.15.3-.24.44-.02.04-.16.2-.04.06.12-.14-.02.02-.05.04-.05.05-.12.11-.16.16.05-.06.18-.1.04-.03-.16.08.02-.02.08-.03.24-.07.46-.03.64.11.19.14.23.15.13.03-.42-.53-1.33-.44-1.77,0-.52.52-.42,1.23,0,1.77h0Z"/><path class="cls-1" d="m96.96,231.69c-1.57.77-2.84,2.55-3.39,4.54-.1.36-.14.75-.19,1.12,0,.38-.06.75-.05,1.13-.03,1.34.23,2.6.88,3.78.66,1.19,1.57,2.29,2.74,3.12,1.03.76,2.25,1.28,3.5,1.63.81.21,1.62.44,2.46.6.42.1.84.14,1.25.29.42.14.84.29,1.27.42.53.19.46.33-.02.64-.24.15-.59.36-1.02.58-.22.1-.46.24-.71.3-.25.05-.51.07-.78.07-.96-.05-1.93-.1-2.9-.31-.95-.25-1.9-.55-2.82-.99-1.82-.85-3.56-2.17-4.7-3.94-.35-.52-.64-1.07-.93-1.63-.27-.6-.54-1.2-.7-1.83-.35-1.24-.51-2.54-.37-3.79.26-2.73,1.42-5.41,3.58-7.24,1.32-1.12,3.07-1.78,4.78-1.8,1.29-.04,2.62.26,3.75.94,1.13.68,2,1.65,2.67,2.67,1.05,1.58,1.82,3.25,2.4,4.96.12.38.27.74.37,1.13.1.35.15.66.14.92,0,.26,0,.47-.06.65-.15.37-.34.6-.58.8-.11.09-.21.2-.31.26-.17.1-.36.02-.62-.19-.25-.22-.63-.55-.83-1.03-.62-1.42-1.08-2.86-1.71-4.17-.59-1.33-1.36-2.49-2.26-3.2-.67-.52-1.41-.81-2.29-.87-.88-.04-1.74.11-2.5.51l-.04-.06Z"/><path class="cls-1" d="m107.71,225.76l.46-1.69.54-1.66c.34-1.12.79-2.2,1.2-3.29.3-.79.62-1.59.96-2.37,1.28-2.72,2.87-5.28,4.66-7.68.41-.52.81-1.06,1.2-1.59.42-.52.83-1.03,1.24-1.55,1.07-1.3,2.16-2.66,3.71-3.46.5-.23.64.05.62.7.02.69-.17,1.62-.78,2.3-2.2,2.38-4.24,4.9-6.15,7.62-.55.83-1.09,1.69-1.51,2.62l-.66,1.38-.6,1.41c-.91,2.05-1.64,4.19-2.3,6.35-.35,1.35-.75,2.68-1,4.06l-.32,1.55-.25,1.57c-.18,1.04-.3,2.1-.37,3.14-.16,1.63-.04,3.24-.03,4.85.02.36.06.7.06,1.06,0,1.33-.2,1.75-.77,2.04-.13.07-.26.15-.39.19-.44.13-.81-.41-.98-1.41-.45-2.96-.26-6.11.09-9.24.3-2.32.73-4.65,1.31-6.93h.06Z"/><path class="cls-1" d="m131.1,280.18c-2.07.84-4.32,1.34-6.59,1.32-2.26.02-4.55-.53-6.52-1.41-.72-.31-1.45-.59-2.15-.96-.71-.34-1.41-.7-2.06-1.15-4.67-3.02-8.21-7.69-9.86-12.86-.75-2.28-1.38-4.61-1.68-6.96-.36-3-.6-6.09.22-9.04.25-.92.41-.77.77.04.38.81.95,2.25,1.16,3.88.04.73.09,1.46.2,2.17.11.72.14,1.44.3,2.15.15.7.2,1.42.35,2.12l.46,2.09c.7,2.77,1.77,5.41,3.23,7.87,1.8,2.92,4.59,5.34,7.72,6.96.43.22.85.47,1.29.67l1.35.58c.9.39,1.78.64,2.71.83,1.84.34,3.77.32,5.62-.14,2.3-.52,4.48-1.63,6.44-3.05,2.97-2.16,5.51-5.01,7.46-8.16,1.51-2.47,2.54-5.11,3.53-7.77.19-.59.38-1.18.58-1.78.38-1.11.61-1.84.89-2.33.12-.25.25-.44.39-.59.16-.15.33-.25.5-.35.15-.09.3-.21.41-.26.29-.18.75.93.42,2.72-.43,2.65-1.12,5.38-2.25,7.99-1.19,2.57-2.7,5.06-4.52,7.34-2.69,3.37-6.13,6.35-10.31,8.12l-.03-.06Z"/><path class="cls-1" d="m144.14,230.25c1.34,2.64,3.14,5.23,4.95,7.79.67.94,1.41,1.82,2.08,2.78,1.16,1.7,2.34,3.4,3.33,5.32.48.97.95,1.96,1.22,3.16.14.58.19,1.27.06,1.99-.09.37-.22.74-.45,1.07-.21.36-.47.52-.71.77-.92.76-1.97,1.07-2.96,1.26-1,.2-1.96.18-2.91.14-2.42-.14-4.82-.62-6.84-2.04-.62-.47-.43-.54.24-.6.34-.04.81-.11,1.37-.22.55-.08,1.15-.11,1.78-.07.56.02,1.11.08,1.65.14.54.05,1.09.09,1.61.09,1.06,0,2.09-.05,2.95-.24.2-.06.43-.1.58-.18l.26-.1c.07-.04.13-.09.2-.13.16-.07.22-.17.33-.26.08-.05.07-.07.07-.07.02,0,.04-.01.03-.04.06-.07.1-.41,0-.84-.07-.41-.25-.9-.43-1.39-1.01-2.38-2.89-4.7-4.57-7.03-1.86-2.58-3.76-5.19-5.44-8-1.03-1.73-1.98-3.56-2.54-5.63-.19-.79-.34-1.62-.29-2.5.02-.43.11-.83.16-1.24.07-.41.23-.81.34-1.21.56-1.59,1.7-2.95,3.06-3.85,2.11-1.41,4.58-2.04,7.03-2.02.54.02,1.08,0,1.61.1,1.01.11,1.64.39,2.02.7.37.37.54.65.64.97.04.14.12.29.13.4.02.19-.18.29-.56.38-.37.07-.94.21-1.57.19-1.85-.2-3.74-.05-5.44.46-1.69.53-3.11,1.49-3.84,2.79-.12.25-.23.51-.34.76-.06.28-.16.54-.21.83-.02.29-.09.6-.08.87v.39s.07.43.07.43c.19,1.18.8,2.53,1.49,3.82l-.07.04Z"/><path class="cls-1" d="m175.47,171.65c1.85,1.44,3.57,3.1,4.96,5.02,1.4,1.9,2.52,4,3.35,6.19,1.59,4.35,2.19,9.22,1.04,13.84-.83,3.33-2.38,6.48-4.53,9.08-1.89,2.29-4.11,4.24-6.48,5.9-1.19.84-2.4,1.59-3.69,2.29-1.28.72-2.64,1.28-4,1.8-5.49,1.96-11.34,2.46-17.01,1.92-5.04-.48-10.03-1.7-14.64-3.72-2.96-1.29-5.82-2.91-8.35-4.97-1.25-1.04-2.44-2.17-3.5-3.42-.55-.61-1.03-1.27-1.51-1.92-.26-.31-.42-.7-.63-1.05-.18-.37-.44-.68-.54-1.1-.33-.98-.43-1.41-.35-1.42.09-.02.41.36,1.08.91,1.42,1.06,3.63,3.03,6.34,5.15,2.39,1.9,4.98,3.56,7.76,4.87,2.79,1.28,5.73,2.31,8.75,2.98,6.03,1.36,12.41,1.52,18.46.14,1.81-.42,3.58-1.04,5.28-1.84.43-.19.84-.41,1.25-.64.41-.22.82-.45,1.23-.72l1.22-.77,1.17-.83c3.1-2.25,5.8-5.05,7.65-8.28,2.04-3.54,2.86-7.68,2.33-11.75-.59-4.07-2.15-8.07-4.81-11.23-3.21-3.95-7.84-6.67-12.81-8.18-7.55-2.3-15.89-2.29-23.55-.38-2.98.74-5.84,1.85-8.49,3.25-1.33.72-2.61,1.45-3.76,2.35-1.17.89-2.29,1.89-3.34,2.95-.93.93-1.76,1.92-2.6,2.94-3.1,3.81-3.89,5.15-5.06,5.79-.24.16-.51.4-.68.48-.3.14-.31-.29-.17-1.29.15-.99.69-2.43,1.62-4.16.68-1.29,1.54-2.48,2.44-3.65.91-1.17,1.89-2.28,2.96-3.34,1.07-1.06,2.21-2.07,3.47-2.99,1.29-.94,2.61-1.72,3.98-2.39,5.49-2.76,11.57-4.24,17.71-4.68,2.28-.17,4.58-.17,6.88,0,2.3.16,4.59.47,6.86,1.01,4.52,1.05,8.95,2.91,12.74,5.8l-.04.08Z"/><path class="cls-1" d="m156.09,226.51c-.24,1.52-.5,3.03-.78,4.55-.1.55-.13,1.11-.26,1.66-.2.97-.45,1.93-.69,2.89l-.83,2.86c-.24.84-.46,1.7-.66,2.54-.15.54-.23,1.1-.43,1.62-.1.26-.21.52-.32.78-.04.13-.16.24-.28.35-.11.11-.19.23-.28.35-.24.29-.37.19-.59-.18-.12-.19-.22-.44-.47-.78-.17-.31-.19-.62-.16-.93.05-.56.18-1.1.33-1.63l.41-1.61c.28-1.07.59-2.14.94-3.21.43-1.28.57-2.68.82-4.03.26-1.49.54-2.99.75-4.49.14-.93.27-1.86.38-2.79.16-1.41.35-2.83.42-4.24.06-1.1-.07-2.19-.03-3.27,0-.24-.01-.48,0-.72.04-.89.33-1.16.84-1.32.12-.04.24-.09.36-.1.38-.06.71.33.9,1,.16.99.34,2,.32,3.02,0,1.02-.06,2.05-.14,3.08-.12,1.53-.31,3.07-.5,4.61h-.06Z"/><path class="cls-1" d="m65.1,415.47c-.88-3.56-1.32-7.17-1.55-10.77-.21-3.6-.24-7.2-.03-10.78.2-3.58.52-7.14,1.02-10.68.47-3.54,1.09-7.05,1.81-10.54,1.04-5.09,2.23-10.15,3.7-15.13,2.6-8.77,5.76-17.37,9.5-25.71,1.88-4.16,3.85-8.3,6.11-12.29,2.24-4,4.73-7.88,7.62-11.49,1.31-1.58,2.65-3.15,4.16-4.57,1.49-1.44,3.09-2.79,4.86-3.92.43-.3.88-.58,1.35-.82.48-.25.88-.52,1.43-.74,1.05-.47,2.21-.71,3.34-.71,2.29-.01,4.37.77,6.22,1.67,2.4,1.18,4.57,2.62,6.75,3.97,2.16,1.35,4.34,2.64,6.57,3.35,1.12.36,2.21.47,3.27.28,1.07-.19,2.11-.69,3.03-1.37,1.86-1.38,3.16-3.48,4.14-5.72.65-1.41.86-2.08,1.01-2,.06.03.08.25.09.63.02.39,0,.93-.05,1.64-.12,1.4-.49,3.49-1.97,5.66-.74,1.07-1.75,2.15-3.13,2.98-.68.42-1.47.76-2.32,1-.85.21-1.82.33-2.73.25-3.25-.3-5.76-1.78-8.07-3.15-2.31-1.4-4.46-2.88-6.63-4.1-2.15-1.21-4.4-2.15-6.38-2.08-.49.03-.97.09-1.42.25-.23.05-.45.18-.67.26-.24.11-.52.28-.78.41l-.79.42-.76.49-.77.49-.74.55c-3.93,2.97-7.24,6.95-10.15,11.19-2.92,4.25-5.47,8.81-7.81,13.49-5.57,11.25-9.95,23.67-13.17,36.11-1.78,6.84-3.19,13.78-4.08,20.78-.89,6.99-1.27,14.07-.71,21.07.36,4.3,1.06,8.58,2.46,12.62,1.4,4.01,3.4,7.89,6.48,10.75,2.28,2.19,5.14,3.79,8.15,4.88,3.03,1.08,6.25,1.62,9.49,1.74,6.51.25,13.02-1.12,19.21-3.08,9.66-3.13,18.54-7.83,27.07-13.11,1.88-1.16,3.68-2.37,5.54-3.61,1.71-1.16,3.13-2.12,4.32-2.92,1.19-.8,2.2-1.39,3.01-1.9.83-.49,1.49-.86,2.06-1.15.59-.25,1.1-.42,1.54-.58.41-.14.9-.38,1.14-.46.73-.38-1.32,2.52-6.21,6.28-7.32,5.43-15.33,10.39-23.92,14.56-4.31,2.07-8.77,3.91-13.4,5.41-4.62,1.51-9.43,2.64-14.38,3.11-3.67.35-7.43.32-11.14-.32-3.71-.64-7.38-1.93-10.63-3.95-.84-.44-1.59-1.11-2.38-1.67-.77-.59-1.43-1.31-2.15-1.96-.63-.73-1.27-1.45-1.86-2.21-.53-.79-1.12-1.56-1.59-2.38-1.95-3.27-3.24-6.82-4.13-10.41l.06-.03Z"/><path class="cls-1" d="m106.34,376.64c-.43.83-.87,1.64-1.33,2.44-.17.29-.29.61-.47.89-.63,1-1.27,2-1.9,2.99-.3.43-.55.89-.8,1.34-.29.59-.67,1.14-1.12,1.66-.14.16-.27.06-.37-.18-.1-.24-.22-.66-.14-1.05.31-1.35.79-2.61,1.6-3.72.47-.67.73-1.47,1.09-2.21.39-.82.82-1.61,1.22-2.43.25-.5.49-1,.71-1.51.34-.77.65-1.55.92-2.34.19-.62.23-1.26.36-1.89.04-.13.07-.27.12-.4.19-.49.4-.61.78-.64.09,0,.17-.02.26-.02.26,0,.48.28.57.71.06.32.13.65.16.98-.02.31-.04.63-.08.95-.1.63-.21,1.26-.42,1.86-.32.89-.71,1.75-1.11,2.6l-.05-.02Z"/><path class="cls-1" d="m112.63,386.17l7.87-5.44c.96-.66,1.88-1.38,2.87-2.02,3.48-2.22,7.11-4.26,10.89-6.02,1.69-.75,3.4-1.49,5.17-2.05,2.24-.74,4.73-1.18,7.1-.66.73.16.6.3-.02.52-.31.1-.74.27-1.23.47-.49.22-1.05.44-1.65.6-4.26,1.31-8.26,3.45-12.44,5.59-2.5,1.29-4.82,3.1-7.22,4.71-2.63,1.79-5.25,3.63-7.86,5.48l-4.84,3.42c-2.45,1.73-4.96,3.41-7.5,5.02-1.99,1.23-3.89,2.57-6.26,3.43-.52.19-1.06.37-1.65.44-1.1.13-1.92-.04-2.42-.33-.5-.28-.71-.64-.73-1.07-.02-.2-.04-.4,0-.56.07-.28.34-.43.65-.5.34-.1.72-.15,1.23-.24,1.5-.35,3.23-1.13,4.96-2.11,1.73-.97,3.48-2.1,5.23-3.28,2.6-1.75,5.21-3.59,7.81-5.46l.05.06Z"/><path class="cls-1" d="m174.74,350.7c.04-.11-.09-.19-.23-.18-.02,0-.03,0-.03,0-.04,0-.1.04-.16.08-.12.05-.24.14-.36.23-.24.2-.49.44-.72.73-.34.42-.58.93-.86,1.43-.99,1.79-1.65,3.88-2.02,6-.16.94-.21,1.91-.2,2.85-.06,1.23.16,2.4,0,3.68-.03.4-.12.37-.38.09-.13-.14-.33-.35-.55-.61-.1-.13-.24-.27-.33-.43-.07-.16-.13-.34-.17-.52-.14-.66-.25-1.32-.31-1.99-.05-.67-.03-1.34,0-2,.08-1.33.31-2.66.69-3.95.46-1.53.82-3.17,1.6-4.7.44-.83.95-1.66,1.76-2.37.19-.18.43-.34.66-.49.11-.07.27-.14.44-.22.16-.08.32-.11.49-.16.65-.17,1.33-.13,1.92.11,1.77.38,1.06,3.01.97,3.7-.27,1.6-.6,3.16-.46,4.63.1,1.15.66,2.09,1.4,2.45.16.09.35.12.51.22.68.26.96.51,1.11,1.08.04.12.09.25.12.36.04.19-.05.35-.26.51-.21.16-.57.34-1.04.31-.69-.01-1.48-.17-2.15-.67-.68-.47-1.22-1.18-1.53-1.89-.63-1.46-.63-2.85-.56-4.12.06-.95.21-1.85.35-2.71l.2-1.23c.02-.14.02-.09.02-.1v-.02s.02-.02.02-.04l.06-.04Z"/><path class="cls-1" d="m197.46,345.86c.12-.62.17-1.23.13-1.75-.03-.53-.23-.92-.25-.93-.08-.08-.25-.18-.34-.04-.04.04-.02,0-.13.13-.1.12-.21.24-.3.37-.2.26-.4.53-.59.81-.57.82-1.06,1.74-1.61,2.62-1.96,3.11-3.96,6.32-6.59,9.07-1.17,1.21-2.45,2.36-3.9,3.27-.94.56-1.96,1.07-3.06,1.32-.55.13-1.11.17-1.67.19-.56,0-1.12-.14-1.64-.29-.66-.2-.53-.31.03-.57.28-.13.67-.31,1.09-.59.42-.21.89-.42,1.39-.59,1.78-.52,3.42-1.49,4.9-2.81,1.47-1.32,2.79-2.88,4.08-4.54,1.54-1.98,2.73-4.35,4.09-6.62.38-.62.76-1.25,1.18-1.87.47-.64.73-1.15,1.69-2.05l.33-.25.16-.12c.06-.03.14,0,.2,0,.28.04.56.04.83.11.27.07.54.13.78.29.25.13.48.3.67.51.82.88.92,1.78.98,2.6.06,2.03-.5,3.8-1.12,5.52-.97,2.6-2.34,5-3.83,7.27-1.18,1.75-2.33,3.51-3.86,5.02-.35.32-.66.65-1.04.94-.71.53-1.24.8-1.64.94-.42.1-.71.09-.97.02-.12-.03-.26-.05-.34-.09-.26-.12.15-.77.92-1.69,1.16-1.35,2.24-2.76,3.38-4.17,1.09-1.45,2.13-2.97,3.04-4.59,1.33-2.37,2.53-4.95,2.97-7.48h.06Z"/><path class="cls-1" d="m200.7,356.11c-.53,1.4-1.2,2.73-1.91,4.03-.28.46-.46.98-.77,1.42-1.03,1.61-2.31,3.06-3.73,4.34-.64.56-1.29,1.11-2.02,1.56-.23.14-.44.32-.69.44-.26.11-.52.2-.78.29-.5.21-1.09.22-1.62.29-.34.03-.31-.08-.1-.34.21-.26.57-.7.96-1.11.68-.77,1.44-1.25,2.08-1.99.16-.18.35-.32.53-.48l.52-.51c.37-.32.71-.69,1.06-1.04.86-.85,1.42-2.01,2.06-3.07.69-1.19,1.3-2.43,1.83-3.71l.45-1.19.38-1.22c.34-1.26.59-2.46.5-3.74-.06-.99-.31-1.97-.65-2.75-.07-.17-.17-.31-.25-.43-.16-.21-.06-.3,0-.45.11-.18.14-.41.12-.65-.01-.11-.06-.22-.08-.31-.04-.15,0-.3.3-.45.14-.06.36-.12.62-.1.27,0,.5.15.72.31.34.23.52.54.68.81.16.28.28.55.38.81.2.54.32,1.06.41,1.58.09.52.13,1.03.16,1.54l.02.76-.04.85c-.15,1.64-.6,3.1-1.09,4.53l-.06-.02Z"/><path class="cls-1" d="m173.71,382.07c3.02-1.34,5.96-2.67,8.9-4.16,1.07-.53,2.08-1.15,3.12-1.71,3.61-2,7.23-4.13,9.81-7.26.61-.66,1.05-1.44,1.52-2.2.21-.39.37-.8.55-1.2.2-.4.33-.81.45-1.23.72-2.16.64-4.38.89-6.79.06-.76.12-.68.48-.1.19.29.41.71.87,1.24.22.26.31.57.4.9.09.33.16.69.21,1.07.15,2.67-.5,5.48-1.93,7.78-1.38,2.33-3.28,4.23-5.34,5.77-2.47,1.84-5.08,3.61-7.79,5.05-2.96,1.57-5.97,3.02-9.01,4.41l-5.58,2.54c-2.8,1.3-5.6,2.61-8.25,4.13-2.05,1.18-3.95,2.53-5.81,3.92-.42.3-.81.61-1.24.89-.8.52-1.33.86-1.78,1-.46.12-.8.1-1.14,0-.16-.05-.33-.08-.45-.14-.2-.11-.19-.35-.03-.72.17-.37.47-.9,1-1.4.39-.38.79-.75,1.19-1.12.4-.38.82-.75,1.27-1.07.88-.68,1.8-1.31,2.73-1.93,1.88-1.22,3.86-2.34,5.87-3.39,2.98-1.55,6.04-2.93,9.05-4.34l.03.06Z"/><path class="cls-1" d="m227.44,344.24c-2.28.49-4.57.87-6.95,1l-1.33.05c-.25,0-.41-.01-.74,0-.36-.04-.72-.06-1.06-.14-1.21-.23-2.15-.92-2.32-2.04-.08-.54.08-1.07.35-1.55.12-.24.3-.48.47-.7.21-.21.41-.42.62-.63.26-.23.4-.33.56-.45.16-.12.33-.24.5-.34.33-.22.67-.41,1.01-.6.68-.37,1.37-.69,2.07-.98,1.25-.5,2.51-.95,3.8-1.32.83-.22,1.67-.47,2.56-.53.45-.02.9-.02,1.35.05.46.04.91.28,1.33.48.53.32.32.51-.17.84-.25.17-.56.41-.89.72-.33.25-.68.45-1.08.56-1.41.33-2.92.68-4.38,1.22-1.44.56-2.96,1.04-4.29,1.75-.18.1-.42.23-.53.32-.05.02-.13.07-.19.12-.12.1-.24.25-.23.42,0,.18.19.28.34.31.08.02.16.03.24.05.1,0,.1.02.39.03,2.08.05,4.34-.3,6.51-.73,1.34-.28,2.69-.6,4-1.01.76-.24,1.52-.49,2.25-.77l.41-.17.31-.14c.21-.1.41-.22.59-.37.24-.18.23-.54.02-.73-.36-.32-.86-.41-1.27-.45-.69-.13-1.48-.2-2.24-.25-.34-.03-.67,0-1.02-.05-.64-.07-1.06-.14-1.36-.27-.3-.15-.48-.32-.63-.55-.07-.1-.16-.2-.2-.29-.07-.16.03-.3.27-.47.24-.16.62-.4,1.13-.48,1.38-.32,2.82-.42,4.39-.26l.32.04c.07.01.15.02.24.02l.24.07c.31.11.66.18.95.32.59.28,1.14.59,1.53.99.42.39.67.86.79,1.4.12.55.02,1.15-.16,1.59l-.31.49c-.11.16-.29.31-.44.46-.38.32-.83.63-1.35.87-.48.26-1.11.52-1.29.6-.57.23-1.14.43-1.71.61-1.14.37-2.27.68-3.42.96l-.02-.06Z"/><path class="cls-1" d="m218.64,352.31c2.41-.01,4.92-.3,7.37-.75.89-.17,1.76-.44,2.64-.65.77-.19,1.54-.39,2.28-.64.37-.12.73-.24,1.09-.37l.78-.32c.14-.07.29-.14.42-.26.13-.11.2-.3.13-.46-.14-.33-.48-.47-.87-.59-1.27-.34-2.73-.35-4.13-.28-.9.06-1.81.17-2.72.21-.46.03-.91.08-1.37.08-.46,0-.93-.01-1.39,0-.57.01-.58-.19-.18-.65.2-.23.5-.52.89-.84.19-.15.41-.33.64-.46.24-.12.5-.22.77-.29.48-.13.97-.24,1.46-.35.49-.11.99-.12,1.49-.16,1-.07,2.01-.09,3.05,0,.52.04,1.05.1,1.59.21l.41.09c.14.03.42.1.61.17.22.06.43.15.63.23.21.07.4.18.58.29.71.45,1.24,1.03,1.42,1.76.05.18.08.36.11.55-.04.19-.04.38-.08.56-.05.17-.06.36-.16.52-.1.16-.18.32-.29.47-.48.72-1.55,1.25-2.2,1.62-.59.28-1.16.53-1.75.75-1.17.44-2.33.8-3.51,1.08-2.59.61-5.2,1-7.85,1.18-1.64.1-3.27.14-5-.13-1.21-.21-2.62-.74-2.87-2-.15-1.03.47-1.99,1.32-2.66.46-.38.73-.53,1.09-.76.34-.21.69-.4,1.04-.58,1.73-.89,3.44-1.65,5.26-2.24.4-.13.79-.27,1.21-.37.77-.21,1.33-.14,1.71-.06.39.1.63.29.81.58.08.13.18.27.23.4.12.44-.41.81-1.38,1.24-1.46.56-3,1.06-4.48,1.7-.74.31-1.48.64-2.16,1-.34.18-.67.37-.97.56-.14.1-.29.21-.41.31-.07.05-.02.02-.03.03h0s-.01.02-.01.02c0,0,0,0,0,.01h0s.15.04.24.05c.78.12,1.67.15,2.57.12v.07Z"/><path class="cls-1" d="m81.75,447.69c-.21.83-.39,1.67-.58,2.51-.07.31-.07.62-.13.93-.24,1.09-.45,2.18-.59,3.29-.08.49-.09.99-.1,1.48,0,.63.05,1.26-.11,1.89-.05.2-.34.18-.65.03-.31-.16-.66-.46-.73-.83-.19-1.31-.36-2.65-.04-3.97.17-.79.12-1.62.2-2.43.09-.89.24-1.77.42-2.65.11-.54.22-1.08.34-1.62.16-.82.38-1.62.51-2.44.09-.63.1-1.28.19-1.91.02-.14.02-.28.05-.42.21-.49.43-.6.91-.59.11,0,.22,0,.32.01.34.04.6.33.72.74.19.62.13,1.18.14,1.76-.04.57-.17,1.13-.28,1.7-.18.84-.37,1.68-.55,2.52h-.06Z"/><path class="cls-1" d="m158.11,433.1c.1.91.21,1.82.38,2.72.05.33.18.64.24.97.23,1.16.42,2.34.72,3.49.14.51.31,1.01.48,1.51.23.63.48,1.26.6,1.95.03.22-.17.28-.46.22-.29-.06-.71-.24-.96-.57-.41-.59-.81-1.2-1.14-1.83-.26-.66-.47-1.35-.6-2.06-.18-.84-.5-1.67-.73-2.52-.23-.93-.42-1.88-.58-2.82-.09-.58-.18-1.17-.28-1.75-.15-.88-.2-1.78-.34-2.65-.05-.34-.13-.67-.22-1-.07-.33-.14-.67-.19-1.01-.02-.15-.06-.29-.07-.44-.03-.56.1-.75.57-.9.11-.03.21-.08.32-.1.36-.08.68.13.87.51.26.57.51,1.15.7,1.74.15.59.26,1.2.37,1.8.18.89.23,1.82.38,2.72h-.05Z"/><path class="cls-1" d="m146.63,311.06c.97,1.68,1.98,3.35,3.14,4.92.41.59.89,1.11,1.33,1.68,1.51,2.02,3.15,3.96,4.88,5.82.75.85,1.59,1.61,2.41,2.38,1.1.94,2.14,1.94,3.09,3.05.29.35.06.53-.45.54-.5,0-1.31-.14-2.03-.61-1.27-.82-2.38-1.83-3.49-2.83-1.12-1.01-2.14-2.12-3.08-3.32-1.14-1.41-2.47-2.75-3.64-4.19-1.26-1.6-2.46-3.26-3.54-5-.69-1.05-1.3-2.15-1.91-3.25-.45-.84-.86-1.7-1.28-2.55-.39-.87-.78-1.73-1.16-2.59-.28-.68-.6-1.33-.92-1.99-.3-.66-.56-1.34-.81-2.03-.12-.3-.22-.6-.31-.91-.17-.58-.21-.98-.14-1.28.05-.3.18-.49.37-.67.09-.08.17-.18.25-.24.28-.19.73.2,1.22.93,1.19,2.25,2.19,4.63,3.33,6.97.4.88.88,1.72,1.32,2.59.46.85.96,1.69,1.44,2.54l-.05.04Z"/><path class="cls-1" d="m114.51,310.97c-.33.53-.79.99-1.34,1.31-.56.33-1.24.48-1.85.45-.45-.02-.88-.06-1.27-.24-.68-.31-1.24-.81-1.61-1.46-.38-.63-.5-1.45-.29-2.12.16-.59.43-1.11.8-1.54.47-.54,1.24-.9,1.97-.73.23.06.16.29.05.58-.13.28-.22.69-.32.88-.11.16-.16.34-.21.49-.08.13-.14.27-.17.4-.07.28-.07.39-.12.69,0,.38.48.64.85.74.43.12.83.08,1.2-.29.22-.22.4-.53.46-.86.1-.49-.04-1.02-.45-1.3-.15-.1-.33-.13-.48-.09-.13.01-.24.08-.33.14-.04.03-.07.08-.1.1-.11.08-.22-.04-.78-.26l-.38-.13c-.41-.11-.7-.57-.36-1.15.49-.78,1.48-1.3,2.58-1.16,1.04.21,1.83.89,2.3,1.7.35.62.51,1.37.47,2.03-.04.67-.24,1.29-.55,1.85l-.05-.03Z"/><path class="cls-1" d="m121.95,319.15c-.4.94-1.07,1.59-1.91,2-.31.14-.64.3-1.03.32-.68.04-1.39-.24-1.81-.7-.44-.44-.64-.99-.66-1.5-.04-.46,0-.89.11-1.28.13-.5.36-.95.71-1.28.11-.1.24,0,.34.19.1.19.23.49.22.72-.03.41.02.77.11,1.03.08.25.24.41.25.62.09.26.29.2.5.14.26-.07.65-.32.86-.66.13-.2.22-.44.24-.72.03-.4-.07-.82-.34-.99-.18-.13-.49.05-.58.14-.02.01-.03.05-.04.05-.01,0-.02-.01-.04-.03-.02-.03-.08-.1-.13-.14-.12-.1-.27-.21-.48-.35l-.29-.17c-.15-.09-.27-.21-.33-.4-.06-.18-.07-.47.07-.73.25-.33.61-.58,1-.73.39-.16.81-.13,1.21-.05.4.09.81.27,1.17.57.34.29.58.61.77.96.52,1.07.45,2.08.14,3.02h-.06Z"/><path class="cls-1" d="m129.78,323.59c0,.05.02.11.06.16.05.06.14.09.23.07.06-.02.07-.1.12-.12.03-.01.05-.03.08-.05.02-.01.05-.03.09-.1.08-.1.14-.24.2-.38.09-.28.22-.57.19-.83,0-.11-.05-.22-.11-.3-.05-.06-.1-.15-.19-.21-.25-.15-.53-.22-.86-.14-.1.03-.28-.05-.37-.31-.1-.24.02-.81.49-1.03.4-.18.83-.25,1.27-.19.43.05.94.26,1.25.65.61.7.76,1.58.63,2.26-.1.42-.18.79-.31,1.21-.12.43-.39.94-.71,1.3-.57.64-1.4.97-2.19.86-.22-.03-.44-.09-.64-.18-.57-.25-1.03-.71-1.37-1.2-.46-.7-.66-1.57-.52-2.46.15-.7.44-1.41,1.08-1.87.15-.09.29-.18.47-.22.67-.17.94.16.97.68.01.12.02.24.02.35-.01.19-.07.35-.12.52-.05.16-.09.36-.1.46-.02.16.01.32.07.45.03.09.07.16.12.2.05.04-.03-.02-.06-.03-.02,0-.04-.02-.07-.03h-.04s-.02-.02-.02-.02h0s0,0,0,0h0s0,0,0,0c.12.03-.27-.06.27.06h0s0,0,0,0h.08s0,.02,0,.03c0,.03-.02.12,0,.23.03.1-.01.07,0,.12l-.03.06Z"/><path class="cls-1" d="m141.28,313.61c-.41.75-1,1.3-1.71,1.64-.26.12-.51.28-.81.32-.52.08-1.05.03-1.55-.2-.48-.23-.83-.57-1.08-.94-.23-.33-.37-.7-.44-1.08-.11-.47-.05-1.08.37-1.42.13-.11.3.07.48.28.17.22.44.42.51.51.1.17.25.31.39.42.1.13.15.3.25.46.11.2.38.11.6.02.27-.09.57-.29.77-.58.12-.17.21-.37.26-.57.06-.32.03-.7-.17-.9-.08-.08-.18-.1-.28-.09-.09-.01-.18,0-.25,0-.03,0-.06.03-.08.03-.07.01-.14-.18-.41-.56l-.19-.25c-.1-.14-.16-.28-.16-.45,0-.17.08-.38.26-.5.53-.37,1.26-.47,1.94-.25.68.3,1.16.9,1.4,1.49.35.88.32,1.83-.06,2.64l-.05-.02Z"/><path class="cls-1" d="m147.65,349.83c-.31-1.24-.61-2.5-.95-3.74-.12-.45-.31-.89-.44-1.34-.44-1.61-.9-3.22-1.41-4.82-.21-.71-.46-1.42-.72-2.11-.37-.87-.59-1.81-.72-2.78-.04-.3.11-.31.38-.14.27.17.74.49,1.06.94,1.02,1.67,1.75,3.46,2.23,5.37.29,1.14.82,2.25,1.21,3.38.42,1.25.83,2.51,1.16,3.8.22.79.41,1.58.61,2.37.27,1.21.54,2.42.82,3.62.22.93.52,1.83.71,2.77.05.2.11.4.13.62.11.78-.07,1.05-.55,1.26-.11.05-.22.11-.33.14-.38.1-.75-.18-.98-.7-.28-.79-.55-1.58-.78-2.39-.23-.81-.39-1.65-.59-2.48-.28-1.24-.57-2.5-.9-3.74l.05-.02Z"/><path class="cls-1" d="m124.3,232.24c.12,2.22.4,4.49,1.18,6.59.56,1.5,1.35,2.96,2.63,3.96,2.67,2.08,6.28.91,8.18-1.63,1.37-1.83,1.92-4.21,2.09-6.45.05-.67-.61-1.25-1.25-1.25-.72,0-1.2.57-1.25,1.25-.11,1.46-.48,3.12-1.27,4.48-.37.63-.86,1.22-1.46,1.59-.14.08-.28.16-.42.23-.07.04-.44.19-.18.09-.25.1-.5.18-.76.24-.11.03-.42.06-.13.03-.12.01-.24.02-.36.03s-.24,0-.36,0c-.33-.02.1.05-.15-.02-.1-.03-.2-.05-.3-.08-.11-.03-.37-.14-.12-.03-.24-.11-.46-.24-.68-.38-.24-.16.09.11-.13-.1-.1-.09-.2-.18-.29-.28-.09-.09-.17-.18-.25-.27-.05-.05-.09-.11-.14-.17.17.21-.06-.08-.07-.1-.17-.25-.32-.5-.46-.76-.08-.15-.16-.3-.23-.45-.11-.23-.11-.24-.17-.38-.76-1.95-1.05-4.04-1.16-6.12-.04-.67-.55-1.25-1.25-1.25-.65,0-1.29.57-1.25,1.25h0Z"/><path class="cls-1" d="m134.9,218.09c-2.11-1.18-4.64-1.31-7-1.02-2.58.32-5.08,1.01-7.49,1.99-.75.3-1.28,1-1.05,1.85.2.71,1.09,1.35,1.85,1.05,2.11-.86,4.32-1.55,6.58-1.86,1.05-.15,2.12-.19,3.18-.1.8.07,1.75.32,2.42.7,1.69.94,3.2-1.65,1.51-2.59h0Z"/><path class="cls-1" d="m128.48,262.59c1.1,2.17,3.68,3.6,6.11,3.31.34-.04.63-.11.88-.37.22-.22.38-.57.37-.88-.03-.61-.55-1.34-1.25-1.25-.24.03-.48.04-.72.04-.12,0-.24-.01-.36-.02-.22-.02.24.04.08.01-.06-.01-.12-.02-.18-.03-.24-.05-.47-.11-.7-.19-.06-.02-.11-.04-.17-.06-.14-.05.29.14.06.03-.11-.05-.22-.1-.33-.16-.21-.11-.42-.24-.61-.38-.14-.1.05.03.08.06-.05-.05-.11-.09-.17-.14-.08-.07-.16-.14-.24-.22-.09-.08-.17-.17-.25-.26-.04-.05-.08-.09-.12-.14-.16-.19.12.18.04.05-.14-.21-.28-.42-.39-.65-.3-.58-1.17-.8-1.71-.45-.6.39-.76,1.08-.45,1.71h0Z"/><path class="cls-1" d="m153.87,400.51c-1.36-2.48-2.36-5.05-3.23-7.64-.28-.96-.68-1.87-.93-2.84-.88-3.39-1.53-6.84-1.78-10.32-.1-1.54-.3-3.08-.32-4.62-.05-.98-.03-1.98.03-2.97.06-.99.38-1.97.61-2.92.17-.6.36-.48.63.06.27.55.68,1.5.91,2.59.34,3.82.69,7.59,1.16,11.48.23,2.33,1,4.66,1.69,6.94.75,2.52,1.69,4.97,2.84,7.31.68,1.46,1.53,2.8,2.46,4.06.38.43.75.9,1.15,1.29.42.34.84.78,1.29.97.43.21.75.25,1.08.06.15-.1.27-.22.37-.39.1-.17.22-.43.3-.67.48-1.65.27-3.56.03-5.35-.05-.4-.14-.79-.2-1.19-.32-1.47.06-1.99.5-2.44.11-.1.2-.23.3-.3.17-.12.37-.05.64.19.26.24.63.66.84,1.24.5,1.74.77,3.56.75,5.5-.02.98-.12,1.97-.43,3.09-.17.56-.38,1.15-.98,1.89-.58.68-1.42,1.13-2.32,1.18-.32.01-.67,0-.98-.07l-.47-.11c-.15-.04-.25-.09-.37-.14-.25-.09-.46-.2-.65-.32-.22-.11-.38-.24-.55-.36l-1-.75c-.32-.26-.56-.54-.84-.82-.26-.28-.57-.55-.77-.85l-.65-.9c-.46-.59-.78-1.22-1.16-1.84l.06-.04Z"/><path class="cls-1" d="m142.85,392.78c-.11-.83-.19-1.65-.26-2.47-.03-.3-.09-.59-.11-.89-.04-1.06-.05-2.11,0-3.15.01-.46.01-.92,0-1.38,0-.58-.03-1.18.12-1.75.04-.18.25-.15.46.01.21.16.45.44.49.77.12,1.16.3,2.29.27,3.45-.02.7.18,1.41.3,2.1.13.77.27,1.54.45,2.3.1.47.21.94.35,1.4.21.7.38,1.42.66,2.09.22.52.58.96.83,1.46.06.11.13.21.18.32.19.42.12.61-.24.9-.08.07-.16.14-.25.2-.29.2-.64.16-.93-.1-.41-.38-.83-.79-1.09-1.28-.27-.48-.5-1-.7-1.53-.33-.77-.43-1.62-.6-2.44h.05Z"/><path class="cls-1" d="m138.01,391.24c.01-.44.02-.89.03-1.33,0-.16-.02-.32-.01-.48.04-.57.12-1.13.19-1.68.03-.25.03-.49.02-.74,0-.31-.06-.64.09-.94.09-.19,1.14.16,1.14.49,0,.61-.04,1.22-.19,1.84-.09.37-.01.76,0,1.14,0,.42,0,.84.03,1.26.01.26.02.52.05.78.04.39.07.79.17,1.16.07.29.22.57.33.84.02.06.06.12.08.18.07.23,0,.33-.31.47l-.21.09c-.25.09-.48.05-.62-.11-.38-.48-.65-1.04-.71-1.64-.07-.44-.09-.89-.12-1.34h.03Z"/><path class="cls-1" d="m147.05,349.64c-.28-1.15-.57-2.31-.9-3.45-.11-.42-.3-.81-.4-1.24-.39-1.48-.79-2.97-1.27-4.42-.21-.65-.49-1.27-.72-1.91-.32-.81-.66-1.61-.89-2.46-.07-.27.11-.31.4-.18.28.13.69.41.95.85.44.78.92,1.55,1.25,2.39.34.83.64,1.68.89,2.55.3,1.04.77,2.06,1.12,3.11.37,1.16.7,2.33,1.01,3.5l.57,2.17c.3,1.09.53,2.2.81,3.29.22.84.51,1.65.75,2.48.05.18.12.36.14.55.08.71.01.95-.25,1.17-.06.05-.12.11-.18.14-.2.11-.46-.13-.72-.59-.43-.69-.65-1.43-.93-2.18-.26-.75-.5-1.52-.75-2.28-.36-1.14-.6-2.31-.93-3.46h.04Z"/><path class="cls-4" d="m433.31,237.26s-1.67,10.16-3.75,12.03c-2.08,1.87,7.42,17.25,11.64,14.75,6.01-3.56,9.76,4.98,12.93,4.72,1.54-.13,6.75-7.08,10.8-4.72,6.59,3.83,5.38-2.74,11.11-6.08,5.72-3.35,3.27-6.58,6.34-5.67,3.07.91,5.92-9.86,5.95-13.36.05-7.26-22.72-21.66-22.72-37.75,0,0-7.44-7.9-8.41-12.69s-13.69-27.03-24.59-29.43c-10.01-2.21-21.58.73-27.04,8.37-5.46,7.64-13.08,6.02-15.37,14.83-2.3,8.82-8.52-.04-10.56,7.32s-10.16,7.86-9.58,15.14c.58,7.28,7.78,3.03,13.68,2.71,5.91-.32,9.44-11.19,12.76-7.36,3.31,3.83,13.87,1.6,14.6,1.47,8.45-1.47,11.77-10.5,14.36-6.99,2.59,3.51,4.69,13.95,4.11,18.38-.58,4.44,5.52-7.26,9.25-2.22s3.98,10.58.48,13.81-6.55,3.55-5.98,12.73Z"/><path class="cls-4" d="m376.47,222.23c.25-.53,2.48,1.88,3.71,3.43,2.62,3.32,1.94,13.2,6.99,18.08,6.66,6.45,4.4,12.28,7.3,16.03,3.28,4.24.82,12.06-.94,13.01-1.75.95-2.52-2.84-8.29,0-5.77,2.84-7.7,2.01-9.76,3.13-2.79,1.51,2.44-10.66,1.6-25.56-1.13-19.85-1.67-25.86-.61-28.13Z"/><path class="cls-1" d="m410.33,272.89s1.45,5.27,8.11,1.95c5.94-2.96,7.38-3.13,7.38-3.13,0,0-11.72,7.81-14.73,7.57-5.52-.43-2.64-4.53-2.64-4.53l1.88-1.86Z"/><path class="cls-1" d="m322.07,281.47c.08-.13-7.41-12.28-5.85-13.4,1.55-1.12,18.45,2.65,18.45,2.65,0,0,32.79,50.62,30.25,51.17-2.54.55-15.55.73-17.02-.49l-3.71-6.49s.59-5.27-1.71-7.08c-2.31-1.81-4.16-4.97-4.16-4.97,0,0,1.19-4.09,3.49-4.6,2.3-.51,6.84-1.71,4.65-2.67-2.18-.96-2.52-2.52-2.52-2.52,0,0,.82-.23-.74-1.88-1.56-1.65-8.16-2.49-10.44-.84-2.28,1.65-4.29,5.23-4.29,5.23l-2.8-6.31s1.97-9.37.97-9.88c-1-.51-4.56,2.08-4.56,2.08Z"/><path class="cls-1" d="m347.96,331.48c.44-.28.9-.52,1.36-.75.17-.09.3-.22.48-.29.62-.25,1.28-.36,1.91-.5.28-.07.54-.16.8-.27.34-.09.69-.21,1.09-.09.12.04.18.35.17.71,0,.35-.05.78-.2.91l-.39.32c-.13.08-.28.12-.43.17-.29.09-.6.16-.94.19-.41.03-.7.34-1.06.49-.39.18-.79.37-1.17.59-.24.14-.47.28-.69.44-.33.25-.66.5-.93.82-.2.25-.3.57-.43.86-.03.06-.04.14-.08.2-.13.22-.29.21-.74-.02l-.31-.16c-.34-.19-.54-.46-.53-.71.05-.75.4-1.39.86-1.93.36-.39.78-.71,1.19-1.03l.04.04Z"/><path class="cls-1" d="m413.67,339.41c.42-.44.9-.84,1.37-1.25.17-.15.29-.35.49-.49.66-.49,1.37-.96,2.16-1.26.34-.15.67-.3,1-.45.23-.07.45-.15.67-.2.23-.03.48-.03.72.01.15.03.18.29.15.61-.04.31-.12.73-.28.89-.29.29-.53.59-.84.75-.29.2-.6.37-1,.48-.47.15-.76.58-1.13.9-.4.38-.82.76-1.21,1.17-.25.25-.51.5-.76.76-.37.4-.76.8-1.09,1.24-.27.33-.38.78-.69,1.1-.06.07-.11.15-.19.21-.28.23-.46.22-.81,0-.08-.05-.16-.09-.23-.15-.24-.18-.34-.46-.31-.76.04-.92.38-1.57.83-2.22.33-.47.72-.92,1.1-1.39l.05.04Z"/><path class="cls-1" d="m452.13,390.61l-2.29-.55-2.22-.75c-1.5-.44-2.9-1.13-4.34-1.73-1.06-.41-2.05-.94-3.06-1.46-3.53-1.85-6.76-4.16-9.88-6.57-1.36-1.1-2.72-2.21-4.06-3.31-.86-.7-1.63-1.52-2.43-2.3-.77-.81-1.5-1.66-2.24-2.49-.45-.52-.37-.48.15-.17.51.31,1.53.8,2.61,1.48,1.8,1.36,3.63,2.63,5.35,4.06l1.3,1.06,1.36.98c.91.65,1.8,1.34,2.68,2.03,1.1.77,2.28,1.47,3.46,2.18.58.37,1.21.66,1.83.97.62.31,1.23.62,1.84.92.34.17.67.35,1.01.51l1.04.43,2.08.87c.69.31,1.42.48,2.13.73.72.22,1.43.48,2.16.67l2.71.61c.9.2,1.83.26,2.74.4.69.11,1.39.15,2.09.17.7.02,1.4.08,2.1.07,1.4-.07,2.8-.1,4.17-.35,2.15-.28,4.16-1.02,6.18-1.67.44-.17.86-.35,1.31-.51,1.66-.57,2.3-.5,2.8-.29.12.05.26.09.34.15.26.18-.29.73-1.41,1.54-3.49,2.02-7.77,3.02-12.05,3.21-1.59.13-3.19-.02-4.78-.08l-2.37-.32c-.39-.06-.79-.1-1.18-.17l-1.16-.26v-.05Z"/><path class="cls-1" d="m378.6,389.87c.96.16,1.95.2,2.94.24,1,.02,2.05,0,2.94-.09.34-.06.68-.14,1.01-.21.33-.1.66-.21,1-.3,2.38-.69,4.66-1.98,6.56-3.71.83-.78,1.59-1.65,2.23-2.57.39-.61.75-1.24,1.07-1.89.09-.16.16-.32.23-.49l.27-.48c.2-.31.32-.66.5-.99.21-.42.32-.35.44.09.11.43.37,1.32.14,2.25-.54,1.58-1.38,3.04-2.41,4.33-1.07,1.27-2.37,2.32-3.78,3.17-1.69,1-3.46,2.05-5.45,2.56-.54.13-1.1.24-1.66.31-.57.05-1.14.11-1.66.1-1.06.02-2.14.01-3.22-.08-1.33-.1-2.66-.31-3.95-.67-1.96-.53-3.81-1.44-5.5-2.48-.67-.39-1.3-.83-1.95-1.25-.59-.48-1.23-.92-1.77-1.45-.25-.23-.5-.44-.74-.68-.84-.94-.94-1.38-.86-1.82.02-.1.03-.21.07-.29.12-.26.65-.07,1.41.41,1.09.76,2.16,1.52,3.28,2.22,1.07.75,2.18,1.44,3.34,2.03,1.73.83,3.57,1.44,5.51,1.66v.05Z"/><path class="cls-1" d="m410.73,292.46s-3.17-1.04-2.43-3.86c.74-2.82,3.49,1.93,3.49,1.93l-.45,2.28"/><path class="cls-1" d="m407.92,298.62s-2.97-1.32-2.23-4.24,3.94-1.51,3.94-1.51l-1.71,5.74Z"/><path class="cls-1" d="m407.25,336.28c-.38-.59-.82-1.13-1.28-1.59-.46-.43-.98-.84-1.42-.93-.06-.03-.22-.06-.37-.08l-.44-.07c-.29-.05-.59-.09-.88-.16-.51-.17-1.02-.32-1.52-.52-.49-.25-1-.43-1.45-.76-.94-.57-1.77-1.43-2.27-2.42-.44-.88-.69-1.82-.84-2.71-.09-.58-.2-1.15-.18-1.7,0-.55.02-1.09-.04-1.59-.03-.31.15-.39.49-.19.36.2.84.74,1.07,1.4.08.28.2.57.24.84.04.27.09.55.14.8.09.52.22.99.38,1.44.32.88.76,1.62,1.49,2.27.87.8,2.23,1.09,3.51,1.32l.54.1.27.05.37.09c.52.1.91.35,1.33.57.73.51,1.37,1.09,1.88,1.73.66.77,1.2,1.6,1.71,2.45.77,1.28,1.36,2.65,1.9,4.01.4,1.07.92,2.09,1.19,3.22.07.24.13.49.17.75.16.95-.04,1.31-.54,1.51-.12.05-.23.11-.35.13-.4.08-.76-.27-.93-.85-.67-1.73-1.27-3.54-2.12-5.31-.63-1.3-1.25-2.63-2.08-3.77l.04-.03Z"/><path class="cls-1" d="m388.61,321.7c.34,1.42,1.08,2.97,2.11,3.99.38.38.85.64,1.29.9.79.46,1.7.71,2.66.68.24,0,.49-.04.71-.07.03,0,.06-.01.09-.01.01,0,0,0,0,.01.04.1.12.21.17.29.16.29.32.24.12.24-.16,0-.25.05-.51.13.01,0,0-.02-.01-.05-.02-.06-.08-.15-.15-.25-.13-.19-.3-.41-.48-.63-.64-.77-1.41-1.53-2.06-2.44-.42-.58-.81-1.25-1-2.05-.07-.41-.07-.83.02-1.24.04-.2.12-.4.19-.59.1-.18.25-.34.4-.47.4-.33.46-.15.66.31.08.22.34.54.47.76.15.24.32.42.41.62.2.72.93,1.62,1.79,2.51.44.46.9.91,1.41,1.53.13.16.25.35.39.59.12.26.33.55.36,1.23,0,.4-.14.79-.4,1.11-.21.25-.5.45-.66.5-.09.04-.19.08-.28.11l-.21.05c-.16.04-.27.05-.36.06-1.89.23-4.02-.03-5.62-1.17-.87-.61-1.59-1.39-2.14-2.23-.55-.84-.99-1.72-1.3-2.66-.38-1.16-.56-2.4-.4-3.66.11-.95.53-1.9,1.18-2.62.65-.73,1.53-1.21,2.4-1.47,1.36-.41,2.71-.51,4.03-.53.29,0,.57-.02.86,0,1.05.16,1.35.33,1.56.74.05.09.11.19.14.28.1.29-.36.56-1.16.69-.59.13-1.17.13-1.73.16-.57.02-1.12.05-1.66.11-1.06.12-2.07.34-2.63.91-.42.42-.7.93-.8,1.55-.09.62-.03,1.33.17,2.04l-.06.02Z"/><path class="cls-1" d="m393.73,319.48c.5.02.99.07,1.47.15.17.03.35,0,.52.06.61.18,1.19.4,1.74.66.24.12.49.21.73.29.31.1.64.2.88.49.08.09-.04.33-.22.57-.18.23-.43.51-.6.52-.62.01-1.19.16-1.71-.21-.32-.19-.7-.09-1.04-.11-.39-.01-.78-.09-1.18-.09-.25-.01-.49-.02-.74,0-.37.04-.75.05-1.11.18-.27.12-.49.33-.73.46-.05.03-.1.07-.16.1-.21.08-.34-.02-.6-.42l-.18-.27c-.18-.3-.23-.62-.11-.85.17-.34.39-.63.65-.89.28-.2.58-.34.9-.46.47-.19.99-.18,1.48-.22v.06Z"/><path class="cls-1" d="m382.23,318.93c-.03-1.46.37-2.88,1.08-4.1.13-.22.26-.45.4-.67.08-.11.13-.21.24-.33.11-.13.23-.26.35-.37.84-.66,1.64-.95,2.45-1.2.81-.24,1.61-.39,2.42-.48.72-.1,1.44-.14,2.16-.17.92-.09,1.9.12,2.66.78.24.19.16.29-.12.49-.19.14-.39.28-.55.4-.22.18-.46.36-.68.41-1.56.34-3.07.32-4.69.53-.94.1-1.9.7-2.25,1.14-.62.76-1.05,1.74-1.18,2.77-.08.62-.06,1.31.11,1.88.27.91.84,1.85,1.55,2.61.56.6,1.26,1.04,1.93,1.47.15.1.31.16.45.26.54.35.56.63.46,1.13-.03.12-.04.24-.07.35-.09.36-.54.53-1.14.4-1.64-.58-2.97-1.73-4.1-3.18-.41-.55-.78-1.16-1.07-1.86-.14-.35-.26-.73-.34-1.13-.08-.38-.12-.74-.14-1.11h.06Z"/><path class="cls-1" d="m342.93,287.03c-2.66-4.53-5.3-9.09-8.01-13.57l-.75-1.2-.22-.33c-.03-.06-.09-.07-.14-.08l-2.6-.55c-3.09-.67-6.2-1.3-9.31-1.89-1.56-.29-3.12-.58-4.68-.83-.78-.13-1.56-.26-2.34-.36l-.85-.12c-.21-.04-.41-.04-.65-.12l-.56-.06h-.14s-.12-.04-.09.02c.01.08.05.16.08.25.07.16.14.32.22.48.19.38.24.48.69,1.28.73,1.3,1.49,2.59,2.25,3.86,1.9,3.31,4.13,6.43,5.55,10.03.42,1.14.18,1.11-.77.52-1-.56-2.69-1.71-3.93-3.55-1.48-2.36-2.98-4.7-4.3-7.16l-.99-1.85-.49-.94-.38-.72-.45-.9c-.29-.6-.56-1.2-.71-1.73-.14-.54-.07-.95.03-1.27.03-.08.06-.16.11-.23.04-.06.09-.2.2-.21l.56-.2,1.12-.38c.99.08,2.04.3,3.03.44l.35.06.21.04.42.08c.28.05.57.12.85.16,1.14.2,2.27.41,3.4.64,4.65.94,9.49,1.69,14.24,2.72l.53.12c.27.06.54.13.77.25.22.14.4.34.57.55.18.2.35.44.41.56l1.06,1.71,2.05,3.41,4.06,6.84c1.67,2.8,3.33,5.61,5,8.41,2.54,4.23,5.07,8.5,7.69,12.63,2.04,3.22,4.17,6.28,6.3,9.37.48.68.94,1.34,1.42,2.02,1.73,2.55,2.16,3.43,1.97,4.38-.04.21-.05.47-.13.63-.24.54-1.37-.22-2.77-2.04-4.14-5.39-7.93-11.4-11.68-17.47-2.78-4.51-5.5-9.08-8.23-13.63l.05-.04Z"/><path class="cls-1" d="m356.07,323.74c-1.37-.07-2.74-.17-4.12-.29-.5-.04-1.01,0-1.52-.07-.51-.07-1.01-.15-1.55-.25-.21-.05-.7-.14-1.06-.27-.38-.13-.7-.36-.96-.66-.43-.53-.58-.79-.81-1.14l-.62-1.01c-.41-.68-.87-1.31-1.33-1.93-.25-.43-.53-.84-.76-1.28-.19-.47-.28-1-.39-1.52-.05-.33.12-.4.55-.37.4.04,1.19.09,1.79.37.42.32.76.68,1.14,1.02.34.36.59.79.87,1.19.27.41.54.81.79,1.22l.37.61.18.31.08.16s.01.05.02.08l.02.08c0,.11.08.17.16.2.06.02.05.03.17.05.12.02.25.04.38.05l1.67.13c1.32.13,2.67.22,4.02.31.83.05,1.67.1,2.5.12,1.26.03,2.54.09,3.79,0,.49-.03.96-.11,1.44-.2l1.42-.21c.21-.03.41-.08.62-.07.39.02.65.06.84.18.2.16.32.34.43.58.05.11.12.21.15.31.06.17.02.33-.11.53-.13.2-.34.46-.63.58-.85.48-1.74.7-2.65.93-.91.14-1.83.22-2.76.27-1.37.07-2.76.05-4.14.05v-.07Z"/><path class="cls-1" d="m347.74,320.12c.46.66.93,1.31,1.42,1.95.18.23.4.43.57.67.62.83,1.25,1.66,1.89,2.48.28.37.59.71.91,1.04.2.21.41.42.62.63.22.2.32.51.46.78.07.18-.06.28-.34.34-.26.04-.76.13-1.06-.06-.93-.78-1.86-1.57-2.5-2.64-.4-.62-.97-1.13-1.45-1.7-.53-.63-1.04-1.28-1.54-1.92-.31-.4-.62-.8-.91-1.22-.46-.62-.89-1.25-1.36-1.86-.37-.46-.79-.88-1.14-1.37-.08-.11-.15-.21-.21-.33-.22-.45-.2-.65,0-.88.05-.05.09-.11.14-.15.16-.14.43-.06.71.15.88.61,1.57,1.39,2.28,2.21.52.61,1.04,1.22,1.55,1.85l-.03.03Z"/><path class="cls-1" d="m343.55,308.16c.44,1.05.79,2.13.98,3.24.1.4.21.79.25,1.2.13,1.44.05,2.88-.24,4.24-.07.3-.12.61-.16.91l-.19.89c-.13.77-.42,1.49-.82,2.16-.13.21-.36.1-.59-.18-.22-.27-.51-.72-.51-1.14.02-.37,0-.74-.01-1.1.03-.35.06-.7.09-1.06.01-.7.12-1.38.25-2.09.16-.85-.08-1.72-.24-2.56-.08-.47-.22-.92-.33-1.38-.17-.45-.28-.92-.48-1.36-.21-.56-.48-1.1-.76-1.63-.47-.78-.95-1.59-1.59-2.27-.47-.54-1.06-.97-1.58-1.46-.1-.12-.22-.23-.31-.36-.37-.48-.32-.79-.13-1.16.05-.09.08-.18.13-.25.16-.24.53-.27,1.04-.15.35.12.7.25,1.05.4.31.18.61.38.9.6.61.41,1.09.98,1.55,1.58.69.87,1.25,1.88,1.77,2.89l-.06.03Z"/><path class="cls-1" d="m344.02,296.6c.11-.06.08-.18,0-.29l-.04-.05s0-.01-.1-.09c-.15-.12-.3-.22-.46-.33-.32-.21-.68-.36-1.04-.5-.53-.2-1.08-.25-1.57-.28-.11-.01-.21,0-.32,0l-.43.03c-.29.02-.57.04-.84.06-.55.05-1.07.13-1.52.26-.91.22-1.59.88-2.15,1.83-.48.84-.8,1.82-1.09,2.79-.4,1.25-.68,2.54-1.34,3.75-.2.38-.31.3-.46-.1-.08-.2-.17-.48-.27-.81-.11-.34-.18-.72-.12-1.1.08-.69.16-1.38.29-2.07.17-.68.36-1.36.62-2.05.24-.68.57-1.38,1-2.06.44-.68,1.11-1.35,1.9-1.75.94-.49,1.89-.69,2.76-.85.44-.08.87-.15,1.29-.21.5-.07,1.04-.07,1.52-.01,1.08.13,2.06.5,2.99.96.24.12.44.23.71.4.31.2.61.4.89.63.51.49.98,1.02,1.16,1.61.29.7.12,1.6-.45,2.13-.54.54-1.32.85-2.14.99-.31.07-.57.09-.85.13l-.54.07c-.35.07-.71.16-1.06.29-.7.27-1.35.68-1.9,1.21-.87.82-1.33,1.93-1.65,2.98-.07.24-.11.47-.16.71-.1.44-.25.72-.41.93-.15.21-.35.34-.62.46-.12.05-.24.13-.36.16-.2.06-.37-.01-.55-.23-.18-.21-.37-.56-.45-1.04-.21-1.4.11-2.93.86-4.22.73-1.32,1.84-2.43,3.19-3.26.51-.3,1.05-.55,1.62-.76.29-.09.59-.17.89-.23l.46-.07c.14-.02.37-.05.36-.04.24-.02.15,0,.2,0,.02,0,.06,0,.08-.01l.09.04Z"/><path class="cls-1" d="m384.9,222.92c.98,2.7,2.57,5.21,5.3,6.4,1.37.6,2.82.55,3.96-.49.95-.87,1.42-2.21,1.81-3.41.21-.64-.24-1.36-.87-1.54-.68-.19-1.33.23-1.54.87-.09.27-.18.54-.28.8-.04.11-.08.22-.13.33.1-.24-.08.17-.1.21-.1.2-.21.4-.34.59-.04.06-.27.32-.07.1-.06.07-.12.14-.19.21-.04.04-.09.08-.13.12.13-.09.15-.11.08-.06-.08.03-.19.1-.26.15.21-.14.1-.04-.03,0-.06.02-.11.03-.17.04.17-.02.2-.03.1-.02-.09-.03-.24,0-.34,0,.3.02-.03-.02-.09-.03-.34-.09-.31-.08-.64-.26-.51-.27-.92-.55-1.23-.82-.21-.19-.42-.39-.61-.59-.08-.09-.16-.18-.24-.27-.05-.06-.1-.12-.15-.19.07.09.07.08-.02-.03-.3-.43-.57-.87-.81-1.34-.29-.58-.37-.78-.6-1.43-.23-.63-.85-1.06-1.54-.87-.61.17-1.1.9-.87,1.54h0Z"/><path class="cls-1" d="m377.92,185.49c-.39.69-.8,1.36-1.12,2.09-.36.71-.67,1.44-.96,2.18-.23.54-.33,1.11-.52,1.66-.65,1.94-1.13,3.96-1.4,6.02-.14.91-.11,1.84-.1,2.76.11,1.17.16,2.34.09,3.55-.03.38-.22.37-.52.1-.29-.27-.77-.8-1.03-1.5-.33-1.24-.39-2.52-.41-3.8-.03-.64.04-1.28.09-1.92.05-.64.14-1.27.31-1.9.35-1.49.6-3.06,1.06-4.56.24-.82.58-1.62.87-2.42.36-.78.67-1.58,1.08-2.33l.74-1.39.82-1.35c.4-.69.9-1.31,1.33-1.97.48-.63.96-1.26,1.44-1.89.39-.47.75-.96,1.1-1.46.37-.49.76-.96,1.15-1.44.17-.21.34-.42.55-.59.78-.64,1.19-.66,1.7-.36.12.07.25.13.34.21.33.27.27.82-.08,1.45-.56.9-1.21,1.7-1.89,2.48-.32.41-.65.82-.99,1.21l-.97,1.25c-.49.61-.91,1.28-1.38,1.92-.41.68-.86,1.33-1.23,2.03l-.05-.02Z"/><path class="cls-1" d="m401.78,179.36c-.59,1.61-1.04,3.29-1.28,5.01-.09.63-.08,1.26-.14,1.89-.14,2.23-.16,4.51.2,6.77.15,1,.44,1.98.76,2.94.4,1.23.84,2.45,1.27,3.7.13.39-.04.43-.4.22-.35-.21-.95-.64-1.38-1.31-.37-.6-.74-1.2-1.04-1.84-.27-.65-.52-1.31-.72-1.98-.41-1.35-.69-2.74-.78-4.16-.14-1.69-.25-3.44-.15-5.17.13-1.9.48-3.78,1.01-5.59.32-1.12.71-2.21,1.16-3.28.67-1.63,1.53-3.17,2.42-4.65.67-1.17,1.37-2.31,2.23-3.35.18-.23.35-.47.56-.68.19-.2.36-.36.5-.48.16-.12.31-.18.44-.23.26-.1.47-.1.7-.03.1.03.21.04.3.08.27.13.17.65-.17,1.37-.58.99-1.14,2.01-1.67,3.04-.57,1-1.17,1.99-1.69,3.02-.78,1.53-1.55,3.08-2.09,4.73l-.06-.02Z"/><path class="cls-1" d="m447.29,232.8c.17,1,.33,2,.58,2.98.12.49.22.99.35,1.48l.43,1.46c.2.72.52,1.39.77,2.09.41,1.25.95,2.45,1.45,3.67l.8,1.82c.28.6.6,1.18.91,1.77.54,1.05,1.25,2,1.89,2.98l1.31,1.85c.46.6.91,1.21,1.35,1.83.27.39.16.41-.21.21-.37-.2-1.07-.58-1.76-1.15-2.43-2.07-4.32-4.72-5.75-7.58-.46-.84-.85-1.74-1.27-2.63-.45-.88-.81-1.8-1.18-2.7-.39-1-.69-2.04-1.03-3.06-.26-1.04-.58-2.07-.78-3.13l-.39-1.94-.27-1.96c-.16-.99-.19-1.99-.29-2.98-.05-1-.1-1.99-.15-2.98,0-.77-.06-1.53-.09-2.29-.01-.76.01-1.52.03-2.28,0-.34,0-.67.06-1,.14-1.25.38-1.62.86-1.83.11-.05.22-.11.32-.13.32-.07.61.47.68,1.37.05,1.32.2,2.67.29,4.02.08.68.09,1.35.12,2.03.06.68.11,1.36.17,2.04.07,1.01.24,2.02.34,3.03.18,1,.32,2.01.53,3.01l-.06.02Z"/><path class="cls-1" d="m392.86,257.39c.04,1.37-.07,2.74-.12,4.1-.02.5,0,.99-.03,1.49-.13,1.75-.25,3.49-.45,5.23-.06.77-.12,1.54-.19,2.31-.08.98-.12,1.97-.39,2.93-.07.3-.1.26-.17,0-.04-.26-.29-.76-.29-1.32-.06-2-.2-3.99-.11-5.99.07-1.2-.06-2.44-.12-3.66l-.2-4.03c-.03-.83-.07-1.66-.13-2.48-.09-1.25-.19-2.51-.38-3.74-.14-.96-.4-1.88-.61-2.81-.05-.21-.11-.4-.13-.61-.09-.78.02-1.06.44-1.31.1-.06.19-.13.29-.17.33-.14.68.13.95.68.44.81.68,1.68.93,2.56.12.44.22.89.32,1.34.09.45.12.92.18,1.38.14,1.37.2,2.75.26,4.13h-.05Z"/><path class="cls-1" d="m386.42,255.49c-.08,1.17-.18,2.33-.32,3.48-.04.42-.05.84-.11,1.26-.23,1.48-.47,2.95-.85,4.39-.15.64-.29,1.29-.42,1.92-.09.41-.18.82-.27,1.23-.13.4-.32.79-.49,1.17-.12.24-.19.18-.27-.06-.08-.24-.25-.7-.27-1.19.2-1.67.32-3.33.7-4.98.24-.99.24-2.04.33-3.07.09-1.13.17-2.26.2-3.4l.04-2.1c.01-1.06,0-2.13-.1-3.18-.09-.81-.28-1.6-.44-2.39-.04-.17-.06-.35-.08-.52-.06-.66.02-.89.3-1.09.06-.04.12-.1.19-.13.21-.1.46.13.67.6.36.69.55,1.44.71,2.2.16.76.28,1.54.37,2.33.12,1.17.22,2.35.17,3.52h-.04Z"/><path class="cls-1" d="m455.48,201.67c.88,3.09,1.57,6.2,2.19,9.31.23,1.13.5,2.25.71,3.39.73,4,1.39,7.98,2.2,11.93.37,1.75.84,3.49,1.35,5.18.34,1.09.69,2.17,1.08,3.24.19.54.33,1.09.5,1.64.18.54.36,1.08.54,1.63.22.68.11.63-.26.13-.35-.5-1.11-1.4-1.72-2.6-.97-2.17-1.74-4.41-2.42-6.68-.68-2.27-1.25-4.57-1.69-6.89-.49-2.79-1.18-5.65-1.78-8.46-.66-3.09-1.34-6.17-2.2-9.2-.51-1.87-1.12-3.7-1.78-5.52-1.01-2.75-2.15-5.47-3.53-8.04-1.09-1.99-2.28-3.85-3.49-5.73-.27-.41-.55-.8-.82-1.22-1.02-1.53-1.22-2.1-1.12-2.67.02-.13.03-.28.07-.37.11-.31.82.11,1.74,1.15,1.34,1.55,2.64,3.22,3.85,4.99,1.17,1.8,2.17,3.73,3.11,5.69,1.38,2.92,2.56,5.96,3.5,9.06l-.05.02Z"/><path class="cls-1" d="m394.1,216.52c1.2,2.14,1.89,4.5,2.15,6.86.1.86.2,1.73.18,2.59-.11,3.06-.97,6.03-2.37,8.64-.59,1.18-1.32,2.27-2.05,3.34-.51.66-.97,1.36-1.56,1.94-.57.6-1.22,1.13-1.89,1.61-.42.3-.56.04-.49-.51.06-.55.33-1.36.8-2.12.21-.34.47-.63.69-.96l.68-.95c.41-.66.85-1.3,1.2-1.99.75-1.35,1.44-2.72,1.97-4.19.64-1.76.72-3.75.61-5.64-.13-2.09-.63-4.16-1.49-6.08-.54-1.18-1.22-2.29-2.07-3.25-1.24-1.44-2.96-2.67-4.72-2.64l-.5.03c-.18.03-.36.06-.53.1-.35.08-.67.2-.97.34-.59.29-1.05.72-1.52,1.23-.21.23-.38.49-.59.74-.73.99-1.2,1.21-1.7,1.21-.12,0-.25.02-.35,0-.32-.06-.32-.67,0-1.65.29-.69.63-1.4,1.14-2.12.51-.71,1.31-1.37,2.2-1.79.44-.21.89-.36,1.34-.48.22-.06.44-.1.66-.15.24-.04.51-.06.77-.08,1.04-.04,2.04.22,2.91.58,2.61,1.15,4.29,3.21,5.55,5.33l-.05.04Z"/><path class="cls-1" d="m411.91,257.98c2.71.52,5.52-.05,8.01-1.38.92-.46,1.74-1.12,2.56-1.76,2.92-2.28,5.15-5.52,6.67-9.06.67-1.57,1.19-3.23,1.54-4.9.49-2.16.49-4.33,1.16-6.52.24-.69.32-.61.68-.01.41.59,1.11,1.75,1.1,3.13-.14,2.4-.55,4.79-1.26,7.11-.75,2.3-1.85,4.5-3.24,6.51-1.66,2.38-3.52,4.85-6.02,6.62-2.71,1.91-6.03,3.18-9.4,3.08-2.07-.01-4.07-.55-5.95-1.26-2.83-1.17-5.28-3.01-7.44-5.04-1.72-1.55-3.19-3.28-4.54-5.12-.28-.42-.57-.81-.84-1.24-.9-1.65-.95-2.3-.69-2.88.07-.13.11-.29.19-.39.26-.32.93.17,1.74,1.2.28.4.65.74.94,1.13l.91,1.15c.67.71,1.25,1.5,1.96,2.18,1.32,1.44,2.76,2.78,4.29,3.97,2.3,1.72,4.9,3.02,7.63,3.44v.07Z"/><path class="cls-1" d="m439.55,210.31c.97.91,1.51,1.96,1.96,2.97.25.5.37,1.06.55,1.58.15.53.21,1.09.31,1.63.05.8.19,1.59.09,2.38-.13,1.39-.49,2.74-1.1,3.95-.59,1.22-1.34,2.35-2.29,3.29-.39.44-.88.79-1.31,1.19-.49.33-.93.72-1.46.98-1.26.8-2.86,1.24-4.34.84-.46-.08-.38-.17-.03-.44.18-.13.42-.32.68-.54.14-.1.27-.25.41-.37.14-.11.3-.21.46-.29.3-.11.54-.36.82-.48.29-.11.55-.28.81-.44.26-.16.52-.31.76-.52.24-.2.5-.36.71-.59.91-.83,1.75-1.77,2.42-2.87.83-1.31,1.09-2.98,1.04-4.52-.07-1.7-.67-3.41-1.65-4.76-.59-.83-1.34-1.42-2.21-1.56-1.31-.22-2.92.52-3.96,1.76-.84.95-1.33,2.15-1.73,3.31-.11.25-.13.52-.22.78-.37.94-.65,1.22-1.31,1.35-.15.03-.29.08-.43.1-.44.05-.78-.47-.89-1.46-.04-.36.03-.71.06-1.06.03-.36.11-.71.21-1.06.17-.71.42-1.42.77-2.09.76-1.3,1.79-2.52,3.2-3.45.5-.37,1.12-.62,1.73-.87.67-.18,1.34-.38,2.09-.33.73-.05,1.47.18,2.16.4.65.31,1.31.64,1.76,1.13l-.04.06Z"/><path class="cls-1" d="m390.71,298.71c2.29.4,4.55,1.03,6.71,1.98,1.07.47,2.14,1.03,3.14,1.77,1,.71,1.83,1.56,2.64,2.41,1.16,1.25,2.21,2.56,3.14,3.93,3.25,4.87,5.73,10.06,8.34,15.14,1.15,2.26,2.37,4.5,3.65,6.64.82,1.38,1.72,2.71,2.6,4.02.88,1.32,1.79,2.59,2.73,3.85.49.91.5.77-.44.53-.26-.03-.5-.17-.8-.3-.31-.13-.64-.3-.99-.5-.69-.42-1.37-1.04-2-1.78-.56-.66-1.05-1.36-1.5-2.08-.46-.71-.9-1.43-1.32-2.16-.85-1.45-1.65-2.91-2.42-4.39-1.54-2.95-2.99-5.93-4.46-8.9-1.76-3.55-3.9-7.08-6.29-10.25-1.31-1.74-2.77-3.36-4.46-4.55-1.71-1.13-3.8-1.93-5.88-2.5-2.58-.68-5.29-1.06-7.93-.95-1.56.08-3.12.33-4.58.81-.73.25-1.44.54-2.08.91-.31.18-.64.41-.85.61-.17.15-.32.34-.38.56-.08.26.07.55.32.65.12.06.25.09.38.12l.19.03.31.03c1.52.09,3.12-.1,4.71-.22,1.59-.13,3.21-.26,4.87-.17.73.04,1.46.09,2.22.27.7.16,1.29.39,1.75.65.46.27.78.6,1.02.88.46.58.52,1.06.45,1.43-.03.17-.04.37-.08.47-.08.17-.3.03-.66-.23-.4-.23-.87-.58-1.62-.83-.98-.41-2.18-.56-3.42-.61-1.24-.05-2.54.02-3.86.1-1.33.08-2.67.2-4.11.22-.36,0-.73,0-1.11-.02-.18,0-.39-.03-.59-.05-.07,0-.26,0-.43-.06l-.5-.1c-.63-.2-1.25-.45-1.61-.94-.43-.46-.48-1.12-.49-1.72.05-.24.11-.48.21-.71.07-.24.19-.46.35-.68.16-.21.29-.43.5-.62.2-.18.29-.29.44-.4,1.11-.89,2.25-1.45,3.44-1.83,1.18-.39,2.39-.63,3.59-.77,2.42-.29,4.83-.13,7.14.24v.06Z"/><path class="cls-1" d="m378.63,314.81c-.05-.85,0-1.77.39-2.6.35-.85.96-1.51,1.59-2.03.47-.36.94-.72,1.47-.96,1.84-.85,3.78-1.06,5.65-1.06.83,0,1.67,0,2.49.05.53.05,1.05.1,1.57.2l.39.08c.12.05.25.12.37.18.23.13.47.26.71.39.29.18.2.35-.13.59-.17.12-.39.27-.65.42-.13.07-.27.15-.41.21-.07.04-.14.05-.22.1-.07,0-.14.01-.21,0-.5-.03-.98-.06-1.47-.06l-1.45-.14c-.96-.07-1.94-.12-2.92-.09-1.18.03-2.33.49-3.31,1.04-1.12.59-1.89,1.5-2.04,2.67-.08.72.04,1.51.3,2.28.4,1.16,1.06,2.29,1.83,3.3.6.79,1.34,1.44,2.05,2.11l.45.46c.54.6.65.85.57,1.21-.02.08-.03.18-.06.25-.09.24-.51.19-1.06-.13-.41-.24-.82-.49-1.21-.77-.37-.3-.72-.64-1.07-.98-.69-.69-1.32-1.47-1.89-2.32-.83-1.26-1.55-2.69-1.78-4.4h.04Z"/><path class="cls-1" d="m460.37,333.54c.08,1.37.16,2.76.2,4.17,0,.52.11,1.02.09,1.54-.02,1.82-.26,3.68-.71,5.47-.15.81-.46,1.58-.68,2.37-.21.48-.38.99-.62,1.46-.28.45-.63.86-1,1.24-.24.23-.52-.02-.73-.47-.21-.45-.41-1.09-.25-1.58.1-.46.27-.87.42-1.3.13-.43.22-.88.35-1.31.11-.44.22-.89.36-1.33.13-.45.2-.92.33-1.39.14-.56.14-1.17.16-1.76l-.09-1.81c-.06-1.34-.15-2.68-.28-4.05l-.24-2.53c-.13-1.28-.21-2.58-.37-3.86-.05-.5-.15-.99-.25-1.48-.06-.5-.13-.99-.18-1.49-.03-.22-.06-.44-.02-.66.09-.83.36-1.09.78-1.25.1-.04.19-.09.28-.11.29-.07.59.27.88.84.38.84.56,1.7.77,2.56.16.87.25,1.75.38,2.65.16,1.33.34,2.69.47,4.07h-.06Z"/><path class="cls-1" d="m405.23,289.9c-.24-.77-.2-1.61-.02-2.31.1-.35.21-.68.35-.96.12-.3.29-.58.46-.86.37-.55.8-1.08,1.4-1.49.59-.43,1.56-.83,2.45-.7.66.06,1.26.41,1.68.91.45.48.66,1.18.73,1.72.07.27.03.44.04.67,0,.22,0,.42-.03.62l-.08.59-.1.51c-.14.68-.3,1.34-.47,2l-1.02,3.89c-.28,1.14-.55,2.29-.73,3.43-.22,1.47-.49,2.91-.68,4.4-.07.46-.27.42-.54.03-.27-.39-.69-1.15-.79-2.07-.37-3.28.46-6.38,1.36-9.32.27-.88.46-1.8.6-2.71.07-.47.1-.86.09-1.23,0-.39-.07-.61-.12-.74-.07-.16-.23-.29-.42-.29-.19,0-.35.03-.69.27-.61.4-1.16,1.28-1.36,2.01-.1.44-.05.84.15,1.25.06.1.11.21.19.31l.05.08c.04.05.07.09.11.14.07.09.17.17.25.26.33.34.72.66,1.04.98l-.04.14c-.11.43.01.65.09.93-.05-.19-.25-.23-.49-.15-.34.11-.77.38-1.22.72.14.22-.02.15-.05.21l-.17.09c-.13.07-.21.12-.27.16-.14.09-.26.18-.39.28-.25.19-.49.42-.65.62-.28.38-.43,1.08-.36,1.66.06.6.25,1.2.56,1.68.14.21.3.4.46.56.61.58.72.8.77,1.46,0,.15.04.3.04.45,0,.24-.14.42-.46.5-.32.09-.82.04-1.36-.24-1.56-.96-2.41-2.73-2.43-4.58,0-.47.06-.95.2-1.43.08-.24.14-.48.26-.71l.17-.36c.07-.12.18-.29.28-.42.38-.46.68-.71,1.03-.99.17-.13.34-.26.52-.38l.2-.13h0s0,0,0,0c0,0,0,0,0,0,0,0,.02,0,.03,0,.01,0,.02,0,.03-.01,0,0,0-.02,0-.04.03.04-.08-.11-.15-.21l-.22-.36c-.13-.25-.27-.52-.35-.81l.05-.02Z"/><path class="cls-1" d="m393.15,340.96c-.4,1.03-.82,2.06-1.26,3.07-.15.37-.27.76-.44,1.12-.61,1.29-1.25,2.56-1.99,3.78-.31.55-.62,1.1-.92,1.65-.42.69-.91,1.34-1.5,1.9-.18.17-.28.06-.31-.22-.03-.28-.03-.74.13-1.15.14-.38.26-.76.42-1.11l.52-1.05c.35-.7.69-1.41,1.11-2.1.49-.83.77-1.79,1.13-2.7.39-1.01.77-2.02,1.12-3.04.21-.63.43-1.26.62-1.9.29-.97.58-1.94.8-2.92.17-.76.17-1.55.34-2.3.03-.17.05-.33.09-.5.22-.6.41-.77.76-.85.08-.02.17-.04.24-.05.25-.02.42.28.53.78.09.37.11.74.13,1.11.03.37.04.75-.03,1.11-.09.73-.24,1.47-.41,2.19-.3,1.07-.66,2.13-1.03,3.18h-.04Z"/><path class="cls-1" d="m321.49,291.61c-.11,2.27-.07,4.55-.05,6.9,0,1.23-.01,2.32.03,3.42l.14,1.64.26,1.62c.34,1.56.89,3.06,1.53,4.52,1.17,2.55,2.85,4.88,4.88,6.95,2.02,2.07,4.34,3.91,6.72,5.7,2.11,1.6,4.35,3.09,6.43,4.82,1.33,1.11,2.64,2.31,3.74,3.74,1.05,1.45,1.85,3.17,2.08,4.97-.06,1.17-.21.98-.95.27-.36-.36-.81-.84-1.3-1.38-.27-.26-.53-.55-.8-.85-.3-.28-.55-.61-.85-.93-1.88-2.45-4.56-4.46-7.26-6.54-2.73-2.07-5.58-4.18-8.16-6.7-1.54-1.51-3.06-3.12-4.4-4.92-1.34-1.8-2.46-3.8-3.22-5.93-.83-2.33-1.25-4.79-1.34-7.22l-.02-1.82v-1.73s0-3.53,0-3.53c.03-2.91.16-5.86.74-8.79.23-1.11.53-2.21.99-3.29.45-1.07,1.08-2.13,2-2.96.45-.42,1-.77,1.57-1.01.15-.05.37-.15.55-.2.18-.06.37-.07.56-.11.37-.08.74-.1,1.08.04.73.26.97,1.07,1.07,1.8.01.19.04.39.05.57v.45c-.01.29-.02.58-.05.85-.33,3.45-.96,6.69-1.09,9.93-.03.71,0,1.39-.01,2.08,0,1.27.13,2.03.18,2.56,0,.51,0,.84.01,1.27,0,.16.06.35.07.48,0,.2-.24.19-.79-.12-.54-.31-1.25-1.11-1.52-2.24-.45-1.64-.51-3.28-.39-4.86.1-1.58.31-3.15.55-4.69.23-1.54.5-3.08.64-4.52.03-.36.06-.71.06-1.02,0-.18,0-.08,0-.11h0s-.01,0,0,0h.03s-.09.02-.13.04l-.25.14c-.17.09-.32.22-.47.34-.3.26-.57.6-.83.98-.5.78-.87,1.75-1.15,2.77-.56,2.06-.76,4.33-.85,6.61h-.06Z"/><path class="cls-1" d="m341.46,291.85c-.37-.15-.83-.28-1.34-.4l-1.54-.36c-.97-.2-1.95-.31-2.91-.27-.7.05-1.37.19-2.01.4-2.29.64-3.96,2.72-4.71,5.27-.34,1.12-.47,2.29-.43,3.46.03.75.12,1.51.14,2.29.05.78.08,1.57-.01,2.37-.05.5-.15.44-.42.06-.18-.26-.38-.53-.56-.79-.21-.33-.39-.73-.51-1.17-.5-1.56-.59-3.31-.4-5.07.24-1.74.76-3.43,1.79-4.96,1.17-1.83,3.17-3.35,5.34-3.82,2.36-.56,4.79-.11,6.86.37.67.15,1.39.31,2.12.7.74.38,1.42,1.06,1.69,2,.18.71.26,1.49-.07,2.11-.36.63-1.09.88-1.81.94-.71.06-1.12.04-1.65.06-.49.01-.97.04-1.43.11-1.45.21-2.66.88-3.57,1.82-.21.21-.37.44-.56.66-.79.77-1.09,1.04-1.77.94-.14-.01-.29,0-.4-.02-.32-.04-.59-.79-.14-1.76.6-1.48,1.95-2.75,3.57-3.51,1.64-.74,3.46-.76,4.88-.75h.58s0,0,0,0c0,0,.02,0,.03,0,0,0,.01,0,0-.03,0,0-.06-.13-.1-.18-.08-.14-.32-.3-.7-.44l.02-.06Z"/><path class="cls-1" d="m478.5,402.49c.41.87.84,1.73,1.31,2.57.17.31.4.57.57.88.61,1.08,1.14,2.23,1.83,3.27.29.47.65.9.99,1.32.46.54.96,1.03,1.29,1.68.1.2-.17.41-.56.5-.38.09-.9.08-1.21-.21-1.07-1.02-2.07-2.12-2.81-3.42-.45-.77-1.1-1.44-1.59-2.21-.54-.84-1.05-1.7-1.54-2.57l-.89-1.61c-.45-.81-.86-1.65-1.32-2.44-.36-.62-.83-1.16-1.23-1.76-.09-.13-.21-.24-.23-.41-.14-.58-.02-.84.35-1.16.08-.07.16-.15.25-.21.27-.19.68-.12,1.1.13.16.1.31.19.46.29.15.1.23.23.35.35.21.24.4.5.59.76.37.53.74,1.05,1.03,1.63.44.85.88,1.71,1.32,2.57l-.05.03Z"/><path class="cls-1" d="m401.54,401.42c-.28,1.13-.52,2.27-.75,3.42-.09.42-.07.85-.15,1.27-.27,1.48-.52,2.98-.63,4.5-.07.67-.06,1.35-.04,2.01.04.86.16,1.71,0,2.58-.05.27-.47.28-.92.09-.45-.19-.96-.58-1.07-1.08-.36-1.79-.55-3.63-.15-5.45.2-1.09.13-2.23.24-3.34.12-1.22.33-2.44.58-3.64.15-.74.32-1.48.48-2.21.25-1.11.55-2.22.82-3.31.21-.85.26-1.73.45-2.58.04-.19.06-.38.13-.56.23-.68.47-.84,1.07-.81.14,0,.28,0,.41.03.44.07.72.46.75,1,.12,1.61-.15,3.14-.39,4.69-.26,1.13-.55,2.26-.78,3.41h-.07Z"/><path class="cls-1" d="m397.96,219.15c1,3.44,3.79,7.88,7.91,7.45,1.76-.19,3.34-1,4.24-2.57.77-1.34.96-2.96.93-4.48-.03-1.52-.28-3.02-.56-4.51-.12-.66-.93-1.04-1.54-.87-.7.19-1,.87-.87,1.54.09.51.19,1.01.27,1.52.02.12.03.24.05.35.05.3-.03-.21,0-.01,0,.08.02.15.03.23.04.32.07.64.09.96.04.63.05,1.25,0,1.88-.01.16-.03.33-.05.49.04-.34-.03.16-.05.24-.06.31-.15.61-.24.91-.02.06-.04.12-.06.17.09-.26.05-.11.02-.05-.07.13-.13.27-.21.4-.08.13-.16.25-.25.37.18-.25-.08.08-.15.15-.06.06-.43.35-.16.16-.1.07-.21.14-.31.21-.07.04-.51.24-.23.13-.18.07-.36.13-.55.18-.16.04-.33.08-.5.1.24-.04-.03,0-.09,0-.1,0-.21.02-.31.02-.16,0-.32,0-.48-.02.27.04-.11-.03-.14-.04-.12-.03-.23-.07-.34-.1-.03,0-.23-.08-.03,0-.09-.04-.18-.08-.27-.13-.16-.08-.32-.18-.47-.28-.25-.16-.11-.06-.34-.26-.16-.14-.32-.28-.47-.44-.64-.65-1.08-1.3-1.56-2.18-.45-.83-.64-1.27-.91-2.2-.45-1.54-2.86-.89-2.41.66h0Z"/><path class="cls-1" d="m411.05,242.33c.01.16.02.33.01.49,0,.12-.07.27.02-.06-.02.08-.03.16-.04.24-.03.15-.08.29-.13.43-.08.23.12-.25.02-.04-.04.09-.08.17-.13.25-.07.13-.14.25-.22.37-.02.03-.21.29-.07.11.14-.18-.06.07-.09.1-.22.25-.45.47-.7.68-.21.18.23-.16.01,0-.07.05-.15.1-.22.15-.14.09-.28.18-.43.26-.16.09-.32.17-.48.24-.22.11.26-.1.02,0-.07.03-.14.06-.21.08-.31.11-.62.2-.94.25-.05,0-.1.02-.15.02.21-.03.25-.03.11-.02-.07,0-.14.01-.22.02-.17,0-.33,0-.5,0-.65-.03-1.28.6-1.25,1.25.03.7.55,1.22,1.25,1.25,1.75.09,3.44-.65,4.78-1.73,1.27-1.03,2.23-2.67,2.08-4.35-.06-.65-.53-1.28-1.25-1.25-.63.03-1.31.55-1.25,1.25h0Z"/><path class="cls-1" d="m397.37,208.86c.44-.68,1.1-1.23,1.88-1.67.87-.49,1.83-.8,2.84-1,1.99-.41,4.1-.32,6.02.36.64.22,1.37-.25,1.54-.87.19-.69-.23-1.31-.87-1.54-2.38-.84-5.06-.86-7.51-.33-2.38.52-4.71,1.7-6.06,3.78-.88,1.35,1.28,2.61,2.16,1.26h0Z"/><path class="cls-1" d="m430.23,203.21c.25,1.65.42,3.31.47,4.97.02.61.12,1.21.1,1.82-.03,2.14-.21,4.29-.64,6.4-.18.94-.39,1.88-.66,2.81-.18.59-.38,1.19-.69,1.76-.16.28-.36.54-.59.77-.21.24-.47.45-.74.64-.34.23-.48-.03-.53-.49-.03-.45-.12-1.12,0-1.69.8-1.86,1.04-4.11,1.37-6.39.2-1.38,0-2.84-.12-4.26-.13-1.57-.31-3.15-.53-4.72-.15-.97-.3-1.94-.52-2.89-.33-1.44-.68-2.9-1.24-4.25-.45-1.05-1.06-1.99-1.63-2.9-.12-.21-.28-.37-.4-.57-.19-.39-.31-.63-.3-.89.02-.26.11-.48.26-.74.07-.12.12-.24.18-.34.11-.17.29-.23.56-.22.27.01.67.1.97.36.98.73,1.63,1.72,2.25,2.7.54,1.02.96,2.1,1.31,3.19.53,1.62.89,3.27,1.2,4.93l-.07.02Z"/><path class="cls-1" d="m375.14,183.63c-1.2,1.91-2.14,4.06-2.84,6.3-.24.82-.4,1.66-.6,2.49-.7,2.93-1.08,5.97-1.03,9.03.02,1.36.21,2.72.47,4.03.17.85.33,1.7.52,2.54.21.84.23,1.73.35,2.62.04.56-.24.59-.76.26-.49-.33-1.42-.97-1.86-1.96-.32-.89-.64-1.79-.85-2.72-.17-.93-.31-1.87-.39-2.82-.17-1.89-.14-3.8.1-5.69.28-2.25.48-4.6,1.02-6.85.61-2.47,1.49-4.87,2.66-7.15.7-1.41,1.59-2.73,2.57-3.98,1.51-1.88,3.46-3.46,5.67-4.47,1.7-.84,3.56-1.32,5.45-1.45.42-.01.83-.06,1.25-.02.77.07,1.26.27,1.58.45.16.1.28.21.37.34.08.15.14.33.18.5.04.16.1.3.12.42.06.34-.67.94-1.64.94-.37.01-.73.04-1.09.12-.36.06-.71.08-1.07.1-.36,0-.69.13-1.04.18-.34.08-.7.08-1.02.22-1.34.33-2.58.96-3.75,1.72-1.7,1.21-3.17,2.9-4.32,4.86l-.06-.03Z"/><path class="cls-1" d="m381.69,183.76c-.71,1.95-1.25,3.98-1.6,6.06-.14.76-.19,1.52-.29,2.29-.38,2.69-.52,5.45-.32,8.2.09,1.22.23,2.44.45,3.64l.47,2.3c.1.78.22,1.57.34,2.36.07.5,0,.45-.27.1-.25-.36-.86-.98-1.31-1.82-.44-.74-.6-1.55-.87-2.34-.26-.79-.42-1.61-.62-2.42-.16-.82-.27-1.65-.32-2.48-.06-.83-.09-1.67-.06-2.51.06-2-.07-4.08.14-6.12.22-2.24.71-4.46,1.34-6.62.2-.66.4-1.33.65-1.98.23-.66.48-1.3.76-1.94l.31-.73c.11-.25.26-.51.4-.76.3-.48.63-.94.98-1.36.71-.84,1.53-1.57,2.41-2.21,1.36-.97,2.93-1.9,4.94-1.85.43.06.88.08,1.29.29.19.08.37.16.52.24.14.1.27.2.38.29.21.2.37.36.45.55.16.36.15.64.03.93-.05.13-.09.28-.16.38-.25.37-.87.16-1.57.02-.23-.11-.49-.09-.71-.13-.11-.01-.24.02-.35.03-.11,0-.22,0-.34.03-.45.03-.95.24-1.45.44-1,.49-2.01,1.25-2.87,2.13-.65.67-1.18,1.36-1.52,2.12l-.62,1.43-.54,1.47-.06-.02Z"/><path class="cls-1" d="m390.78,179.58c-.81,2.19-1.39,4.5-1.6,6.89-.13.86-.04,1.74-.11,2.61-.14,3.08.06,6.22.63,9.31.24,1.37.65,2.72,1.03,4.05.24.86.53,1.7.81,2.54.24.86.49,1.72.74,2.59.14.55-.01.54-.4.19-.37-.36-1.11-1-1.66-1.92-1.79-3.34-2.72-7.07-3.06-10.85-.14-2.27-.54-4.62-.38-6.96.13-2.56.47-5.14,1.24-7.6.18-.77.5-1.51.77-2.25.25-.75.61-1.46.96-2.17.47-1.11,1.2-2.08,1.81-3.11l1.1-1.42c.19-.24.36-.48.55-.71l.63-.69c.7-.67,1.5-1.3,2.47-1.69.96-.4,2.06-.51,3.06-.4.44.05.87.11,1.28.21,1.53.34,1.7.92,1.89,1.48.04.13.1.27.12.38.03.19-.11.32-.44.45-.33.11-.84.25-1.37.15-1.56-.31-2.83-.43-3.83.05-.52.23-1.01.59-1.5,1.05-.23.26-.47.47-.7.79l-.7.93c-1.38,1.85-2.55,3.89-3.3,6.13l-.06-.02Z"/><path class="cls-1" d="m398.05,177.06c-.68,1.73-1.14,3.6-1.4,5.52-.08.7-.09,1.41-.15,2.12-.11,1.25-.15,2.52-.18,3.79-.04,1.27-.02,2.56.07,3.84.07,1.14.27,2.27.45,3.38.1.72.24,1.44.35,2.16.08.73.1,1.48.17,2.22.03.47-.03.42-.3.1-.25-.33-.84-.92-1.3-1.69-1.29-2.84-1.72-5.93-1.78-9.03-.04-1.86-.14-3.79-.02-5.7.15-2.1.5-4.19,1.1-6.24.37-1.25.84-2.49,1.46-3.66.89-1.8,2.2-3.41,3.75-4.7,1.19-1,2.47-1.93,3.94-2.54.32-.14.63-.26.97-.37.62-.21,1.05-.22,1.36-.12.31.08.52.3.69.61.08.14.17.27.22.39.16.38-.23,1.06-.97,1.38-1.1.51-2.16,1-3.12,1.65-.95.64-1.82,1.39-2.58,2.27-1.1,1.32-2.06,2.87-2.67,4.64l-.07-.02Z"/><path class="cls-1" d="m397.15,164.26c-1.31-.26-2.67-.38-4.01-.27-.49.03-.97.17-1.46.24-1.71.28-3.46.73-5.04,1.6-.71.37-1.32.88-1.95,1.36-.4.32-.76.68-1.13,1.03-.38.34-.81.65-1.21,1.01-.26.21-.35.1-.37-.25,0-.35-.01-1.03.27-1.65.3-.51.66-.98,1.04-1.43.38-.45.79-.9,1.28-1.22.95-.7,2.01-1.25,3.12-1.64,1.32-.46,2.67-1.03,4.09-1.25,1.55-.26,3.13-.27,4.67-.1.95.1,1.88.28,2.8.51,1.39.34,2.73.86,4.03,1.41,1,.44,2.01.84,2.96,1.39.21.12.42.23.61.38.37.25.53.54.63.75.09.22.08.42.01.66-.03.11-.05.22-.09.31-.14.3-.61.33-1.24.18-.92-.25-1.76-.59-2.61-.91l-1.28-.46c-.42-.17-.83-.35-1.26-.5-1.25-.48-2.55-.88-3.88-1.08v-.06Z"/><path class="cls-1" d="m438.89,163.82c-2.45-1.73-5.21-3.04-8.07-3.9-1.43-.4-2.9-.71-4.38-.8-1.48-.14-2.97-.06-4.43.15-2.14.32-4.19,1.08-6.08,2.11-1.67.91-3.21,2.07-4.56,3.44l-.97,1.07c-.32.36-.59.76-.89,1.14-.59.77-1.05,1.63-1.59,2.44-1.88,3.4-2.83,7.29-2.96,11.22-.12,3.5.51,7.03,1.48,10.39,1.24,4.35,3.27,8.39,4.9,12.69.49,1.36.41,1.2-.47.3-.42-.46-1.16-1.04-1.82-1.88-.35-.41-.73-.86-1.1-1.36-.19-.25-.35-.52-.56-.78-.15-.29-.3-.58-.46-.88-1.02-2.18-1.95-4.4-2.65-6.72-.76-2.3-1.22-4.71-1.48-7.14-.31-2.43-.23-4.92.05-7.37.3-2.46,1.03-4.86,1.98-7.15.33-.66.67-1.33,1-2,.34-.67.78-1.28,1.17-1.92.78-1.28,1.77-2.45,2.79-3.58,2.12-2.19,4.69-4,7.54-5.1,1.56-.61,3.2-.99,4.85-1.23,1.66-.18,3.33-.23,4.98-.06,3.31.32,6.48,1.4,9.41,2.84,1.79.93,3.49,2.01,5.08,3.24,1.59,1.23,3.04,2.61,4.4,4.06,4.12,4.43,7.17,9.68,10.01,14.84,2.21,4.02,4.33,7.97,6.63,11.8.51.84,1.04,1.64,1.58,2.46,1.01,1.52,1.7,2.48,2.14,3.2.42.74.61,1.21.68,1.68.03.21.11.47.1.63-.02.27-.34.18-.94-.21-.6-.39-1.46-1.11-2.34-2.2-5.26-6.5-8.56-14.48-12.97-21.62-3.22-5.31-7.07-10.29-12.08-13.73l.03-.05Z"/><path class="cls-1" d="m413.69,179.73c.02.93,0,1.86.11,2.79.04.46.07.93.12,1.4l.21,1.39c.08.68.31,1.33.43,2.01.45,2.37,1.07,4.75,1.98,7.02.18.51.41,1.01.65,1.5.23.49.44.99.69,1.47.32.62.68,1.21.96,1.85.28.64.54,1.29.8,1.96.15.42,0,.45-.39.25-.38-.2-1.09-.57-1.69-1.18-.94-1.15-1.66-2.44-2.32-3.76-.59-1.35-1.12-2.74-1.49-4.18-.48-1.71-1.09-3.45-1.47-5.22-.21-.98-.32-1.97-.47-2.96-.06-1-.2-1.99-.2-2.99l-.03-1.84.09-1.84c.04-.93.2-1.85.3-2.77.18-.91.33-1.82.52-2.72.18-.69.32-1.38.46-2.08l.59-2.04c.08-.3.18-.59.31-.88.49-1.07.88-1.29,1.31-1.36.1-.01.21-.04.29-.03.28.02.33.57.21,1.4-.3,1.18-.6,2.37-.91,3.56-.11.61-.24,1.22-.37,1.82-.13.61-.18,1.23-.28,1.85-.16.91-.19,1.85-.31,2.77-.03.93-.1,1.86-.06,2.8h-.05Z"/><path class="cls-1" d="m427.58,180.95c.62,1.73,1.15,3.48,1.64,5.23.19.64.39,1.27.56,1.91.54,2.28.93,4.57,1.36,6.85.19,1.01.4,2.02.62,3.02.24,1.29.47,2.58.61,3.88.04.41-.06.37-.26.06-.2-.31-.54-.89-.78-1.6l-.63-1.91c-.19-.64-.36-1.28-.52-1.93-.34-1.29-.65-2.58-.94-3.89-.32-1.57-.92-3.13-1.37-4.69-.51-1.72-1.06-3.42-1.68-5.1-.39-1.03-.79-2.06-1.25-3.05-.67-1.52-1.44-3.01-2.29-4.42-.35-.53-.73-1.05-1.11-1.55-.39-.5-.83-.95-1.19-1.47-.16-.23-.34-.43-.52-.65-.61-.84-.65-1.23-.5-1.66.04-.1.06-.21.11-.29.15-.26.63-.11,1.31.36,1.97,1.44,3.39,3.58,4.62,5.76.45.82.82,1.68,1.22,2.52.35.86.73,1.71,1.04,2.59l-.04.02Z"/><path class="cls-1" d="m433.33,177.69c.74,1.83,1.36,3.7,1.94,5.58.23.68.49,1.34.69,2.03.68,2.44,1.29,4.88,1.78,7.34.23,1.09.47,2.18.72,3.25.35,1.37.53,2.79.59,4.22.02.44-.17.42-.47.1-.3-.32-.79-.91-1.09-1.67-.58-1.33-.92-2.7-1.36-4.06-.2-.68-.4-1.36-.61-2.04-.16-.69-.33-1.39-.49-2.09-.36-1.68-1.08-3.32-1.68-4.97-.65-1.81-1.36-3.6-2.07-5.4-.44-1.1-.89-2.2-1.39-3.28-.75-1.64-1.52-3.28-2.42-4.82-.69-1.2-1.51-2.3-2.29-3.43-.17-.25-.36-.48-.52-.74-.61-.95-.6-1.38-.24-1.91.08-.12.15-.25.24-.35.28-.32.91-.17,1.54.43.93.89,1.74,1.91,2.54,2.97.39.54.77,1.08,1.14,1.64.34.57.65,1.16.97,1.75.93,1.75,1.75,3.58,2.54,5.41l-.06.03Z"/><path class="cls-1" d="m452.65,202.58c1.38,5.19,2.45,10.43,3.48,15.65l1.2,5.68c.67,3.33,1.34,6.66,2.31,9.84.48,1.59,1.11,3.06,1.81,4.66l2.03,4.69c1.19,2.77,2.53,5.48,4.03,8.02,2,3.24,4.22,6.27,6.76,9.12.8.89.59.92-.39.49-.5-.21-1.19-.54-1.99-1.01-.83-.44-1.7-1.1-2.49-1.94-.71-.75-1.4-1.51-2.01-2.33-.59-.83-1.17-1.67-1.71-2.53-1.08-1.72-2.06-3.49-2.96-5.29-.89-1.8-1.74-3.61-2.49-5.44l-1.14-2.75c-.38-.91-.75-1.81-1.12-2.82-.85-2.35-1.46-4.74-2.07-7.13-.59-2.39-1.13-4.8-1.62-7.18-1.07-5.25-2.08-10.48-3.36-15.64-.78-3.18-1.66-6.33-2.68-9.43-1.54-4.7-3.4-9.32-5.78-13.59-1.86-3.32-4.09-6.32-6.51-9.15-.55-.61-1.1-1.19-1.61-1.85-1.99-2.34-2.63-3.09-2.83-3.88-.05-.18-.14-.38-.14-.51-.05-.41,1.12.2,3,1.62.67.56,1.38,1.09,2.04,1.68.65.6,1.27,1.24,1.88,1.89,1.2,1.33,2.38,2.71,3.43,4.2,2.11,2.97,3.91,6.2,5.47,9.54,2.3,4.96,4.08,10.15,5.51,15.37l-.06.02Z"/><path class="cls-1" d="m452.31,231.2c.62,3.07,1.53,6.09,2.5,9.08.4,1.08.86,2.13,1.25,3.2,1.48,3.76,3.06,7.51,5.14,11,.92,1.54,1.98,3.01,3.1,4.38.72.89,1.45,1.76,2.23,2.56l.59.59c.19.21.38.41.58.61.39.4.81.78,1.26,1.13.56.43.44.53-.25.48-.34-.03-.82-.1-1.4-.25-.29-.08-.59-.17-.91-.3-.16-.06-.31-.14-.48-.2-.14-.1-.29-.2-.43-.31-1.01-.78-1.94-1.64-2.77-2.53-.76-.96-1.59-1.9-2.25-2.92l-1.04-1.52-.94-1.58c-.64-1.04-1.17-2.15-1.71-3.24-.64-1.32-1.27-2.66-1.94-3.99-.6-1.37-1.28-2.71-1.78-4.11-1.22-3.04-2.13-6.18-2.99-9.33-.47-1.96-.94-3.91-1.29-5.88-.6-2.98-.87-6.03-1.2-9.02-.08-1.17-.19-2.33-.31-3.48-.11-1.16-.09-2.32-.12-3.48,0-.51-.04-1.02.02-1.53.08-.96.17-1.59.32-2.02.17-.43.38-.67.65-.85.12-.08.25-.19.36-.23.2-.07.36.09.51.45.15.35.31.9.34,1.58.09,2.02.41,4.08.58,6.15.1,1.04.2,2.08.3,3.12.14,1.04.28,2.09.41,3.14.49,3.1.98,6.22,1.72,9.29l-.07.02Z"/><path class="cls-1" d="m447.15,241.77c.28,1.01.54,2.02.89,3.01.32,1,.67,1.99,1.05,2.97.26.73.63,1.4.93,2.1.5,1.26,1.12,2.47,1.72,3.69.67,1.18,1.29,2.4,2.04,3.54.62,1.05,1.42,1.97,2.15,2.92l1.56,1.72c.53.56,1.07,1.11,1.56,1.72.31.38.05.57-.47.54-.52-.04-1.35-.3-2.07-.9-2.44-2.21-4.6-4.75-6.16-7.68-.92-1.75-2-3.49-2.87-5.31-.48-1-.88-2.03-1.3-3.05-.35-1.05-.74-2.08-1.05-3.15l-.57-1.96-.48-1.98c-.49-2-.79-4.04-1.08-6.06-.1-.79-.2-1.57-.33-2.34-.13-.78-.13-1.57-.18-2.35-.01-.35-.06-.69-.03-1.04.08-1.3.25-1.71.76-1.95.12-.06.23-.13.34-.16.37-.09.68.44.83,1.35.17,1.35.51,2.71.72,4.08.11.68.22,1.37.32,2.06.14.69.27,1.38.39,2.07.18,1.03.39,2.06.6,3.08.27,1.02.46,2.06.79,3.06l-.06.02Z"/><path class="cls-1" d="m447.17,257.25c.42,1.15.89,2.29,1.47,3.38.2.41.48.76.7,1.15.8,1.37,1.57,2.8,2.6,4.05.43.58.96,1.06,1.43,1.6.64.65,1.3,1.3,1.93,1.98.19.22.1.28-.19.25-.28-.04-.79-.13-1.28-.39-.83-.51-1.71-1-2.41-1.69-.71-.67-1.38-1.4-1.95-2.21-.7-.94-1.51-1.87-2.16-2.89-.71-1.12-1.33-2.29-1.88-3.49-.34-.74-.65-1.49-.93-2.25-.43-1.15-.74-2.34-1.11-3.5-.27-.91-.64-1.77-.9-2.68-.06-.2-.14-.39-.17-.6-.12-.77.04-1.04.55-1.27.12-.05.23-.12.35-.15.4-.12.8.13,1.06.63.7,1.48,1.12,3.05,1.67,4.6.18.58.42,1.15.61,1.73.25.56.42,1.15.66,1.72l-.05.03Z"/><path class="cls-1" d="m378.69,243.89c-.15,2.98-.38,5.95-.67,8.9-.09,1.08-.15,2.16-.27,3.24-.45,3.79-1.02,7.56-1.63,11.31-.27,1.67-.46,3.35-.73,5-.37,2.12-.52,4.28-1.45,6.3-.32.62-.27.54-.43-.06-.21-.61-.61-1.73-.55-2.96l.29-3.27.16-1.63.24-1.62c.32-2.16.68-4.32,1.05-6.49.46-2.59.59-5.33.82-8,.25-2.94.46-5.89.57-8.84l.09-2.73.02-2.72c.01-2.75-.04-5.52-.27-8.24-.11-1.06-.26-2.1-.41-3.13-.17-1.03-.41-2.06-.54-3.09-.07-.45-.15-.9-.22-1.36-.27-1.7-.04-2.29.43-2.75.11-.1.22-.24.33-.31.37-.23.86.4,1.32,1.63,1.25,3.67,1.64,7.72,1.86,11.76.09,1.5.09,3.01.13,4.52-.01,1.51-.02,3.01-.08,4.52h-.06Z"/><path class="cls-1" d="m383.61,252.55c-.2,2-.44,4-.7,6-.09.73-.12,1.46-.23,2.19-.36,2.56-.94,5.09-1.44,7.62-.22,1.12-.42,2.25-.6,3.37-.26,1.43-.51,2.89-1.23,4.22-.21.42-.34.32-.53-.11-.09-.22-.21-.52-.34-.88-.06-.18-.13-.38-.16-.57-.02-.2-.03-.4-.01-.61.05-1.48.31-2.92.55-4.37.23-1.45.5-2.89.8-4.35.36-1.74.45-3.59.67-5.39.23-1.98.46-3.96.63-5.95.11-1.22.21-2.45.28-3.68.11-1.86.2-3.73.16-5.57-.04-1.43-.21-2.84-.35-4.24-.03-.31-.05-.61-.07-.93-.04-.58.11-.97.21-1.25.12-.28.28-.44.51-.59.1-.06.2-.15.29-.19.31-.14.66.32,1.03,1.17.49,1.27.63,2.59.78,3.94.16,1.35.16,2.71.14,4.08-.04,2.03-.18,4.07-.33,6.09h-.06Z"/><path class="cls-1" d="m390.59,257.68c-.04,1.58-.12,3.15-.22,4.72-.03.57,0,1.15-.07,1.72-.25,2.01-.55,4.01-.86,6-.14.88-.27,1.77-.39,2.64l-.25,1.69c-.13.56-.33,1.1-.5,1.65-.12.34-.18.28-.27-.04-.09-.31-.3-.9-.38-1.56.07-2.3.1-4.58.44-6.86.2-1.37.1-2.81.15-4.21.07-1.55.12-3.1.12-4.65,0-.95,0-1.91-.03-2.86-.05-1.45-.12-2.9-.26-4.33-.12-1.11-.41-2.18-.6-3.26-.04-.24-.1-.47-.13-.71-.07-.45-.05-.75.05-.98.09-.23.23-.37.43-.5.09-.06.18-.13.27-.17.29-.14.65.18,1.01.81.83,1.91,1.19,4.02,1.43,6.14.12,1.59.13,3.18.14,4.77h-.06Z"/><path class="cls-1" d="m396.42,264.52c-.06.88-.14,1.76-.22,2.63-.03.32,0,.64-.04.96-.07.56-.16,1.12-.25,1.67-.12.55-.24,1.11-.35,1.66-.11.49-.12.98-.22,1.47-.1.62-.21,1.25-.49,1.84-.09.19-.28.13-.51-.06-.22-.19-.51-.53-.58-.89-.29-1.29-.21-2.52.03-3.76.17-.74.11-1.53.14-2.3.04-.84.09-1.69.11-2.54.01-.52.02-1.05,0-1.57-.03-.79,0-1.59-.1-2.37-.07-.61-.33-1.18-.43-1.77-.02-.13-.07-.25-.08-.39.05-.51.21-.7.6-.87.09-.04.17-.09.26-.12.28-.1.58.06.89.39.84,1,1.02,2.18,1.22,3.36.16.88.07,1.78.09,2.66h-.06Z"/><path class="cls-1" d="m386.68,184.19c-.54,1.64-.95,3.33-1.19,5.06-.09.63-.12,1.27-.19,1.9-.19,2.24-.29,4.5-.13,6.77.06,1.01.2,2.01.35,3,.22,1.27.38,2.55.53,3.84.04.4-.1.38-.33.08-.23-.3-.6-.87-.83-1.59-.44-1.28-.65-2.6-.82-3.94-.17-1.34-.26-2.69-.24-4.04,0-1.62-.02-3.31.14-4.97.18-1.82.51-3.63,1-5.39.3-1.09.66-2.15,1.08-3.2.62-1.58,1.4-3.11,2.27-4.56.68-1.12,1.34-2.24,2.18-3.26.18-.23.35-.45.56-.66.36-.41.68-.59.91-.71.24-.11.41-.13.6-.1.08.02.18.02.25.05.22.09.05.54-.38,1.17-1.28,1.84-2.64,3.67-3.71,5.75-.81,1.52-1.49,3.13-2,4.8h-.04Z"/><path class="cls-1" d="m461.92,209.97c1.01,3.68,1.95,7.36,3.07,10.96.4,1.32.91,2.59,1.35,3.89,1.6,4.55,3.44,9.04,5.98,13.13,1.1,1.83,2.46,3.5,3.87,5.06l1.39,1.49,1.47,1.4c.5.45,1,.92,1.49,1.39.49.48,1.04.89,1.56,1.34.65.56.47.66-.29.48-.38-.09-.91-.24-1.55-.45-.63-.22-1.32-.56-2.04-.99-1.19-.85-2.32-1.81-3.38-2.83-.56-.49-.99-1.09-1.47-1.64-.48-.55-.92-1.14-1.35-1.74-1.72-2.37-3.17-4.92-4.36-7.57-1.44-3.16-2.85-6.47-3.98-9.81-1.24-3.67-2.22-7.4-3.22-11.1-.62-2.28-1.22-4.55-1.9-6.81-1.01-3.41-2.09-6.82-3.48-10.05-1.06-2.52-2.36-4.87-3.77-7.14-.3-.51-.63-.98-.96-1.47-.3-.46-.53-.86-.72-1.19-.2-.33-.37-.59-.46-.83-.19-.49-.25-.82-.24-1.13,0-.14-.02-.31,0-.4.04-.17.23-.1.59.15.35.25.9.65,1.45,1.29,1.62,1.9,3.01,4.07,4.29,6.33.63,1.14,1.22,2.3,1.76,3.5.51,1.2,1.02,2.42,1.47,3.65,1.37,3.65,2.45,7.38,3.51,11.08l-.05.02Z"/><path class="cls-1" d="m347.05,338.55c-.53,1.75-.67,3.74-.55,5.73.14,2,.42,4.02.91,6.03.91,4.01,2.39,7.94,4.11,11.73,1.28,2.77,2.78,5.42,4.35,8.03,2.8,4.58,6.01,8.92,9.77,12.72,3.77,3.73,8.11,7.08,13.1,8.55,2.19.63,4.54.89,6.71.47,2.18-.42,4.18-1.54,5.81-3.08,2.13-1.95,3.7-4.54,4.86-7.28,1.21-2.73,2.07-5.63,2.77-8.6.33-.92.5-1.32.58-1.29.09.04.12.51.32,1.36.34,1.68.6,4.93-.54,8.55-1.11,3.15-2.72,6.21-5.12,8.81-.64.62-1.24,1.27-2,1.78-.37.26-.71.55-1.1.78l-1.2.67c-.39.24-.83.38-1.26.55-.43.15-.85.36-1.3.45-.9.2-1.79.45-2.71.47-3.63.26-7.09-.65-10.16-2.11-3.08-1.46-5.77-3.48-8.2-5.7-5.81-5.32-10.73-11.81-14.56-18.75-2.08-3.82-3.88-7.81-5.29-11.94-.67-2.08-1.31-4.17-1.74-6.33-.26-1.07-.39-2.17-.57-3.25-.1-1.1-.25-2.2-.24-3.32-.03-2.72.26-5.61,1.74-8.17.43-.6.79-1.24,1.38-1.76.55-.51,1.15-.91,1.74-1.27,1.19-.72,2.42-1.28,3.63-1.82,1.87-.89,3.97-1.45,6.07-1.56,1.05-.06,2.12-.01,3.18.17.53.1,1.06.22,1.58.42.53.18.96.45,1.45.67,3.77,1.92,6.65,4.92,9.19,8.03,1.96,2.44,3.72,4.98,5.38,7.58,1.62,2.62,3.12,5.3,4.5,8.06.57,1.23,1.2,2.41,1.71,3.68.96,2.36,1.43,3.98,1.64,5.16.1.59.18,1.05.16,1.46-.02.41-.08.74-.16,1.04-.07.27-.11.62-.18.78-.23.54-1.23-1.29-2.68-4.58-2.18-4.89-4.64-9.84-7.56-14.56-1.47-2.35-3.05-4.65-4.77-6.82-1.75-2.14-3.64-4.16-5.73-5.81l-1.21-.82-.6-.42-.63-.31c-.42-.2-.85-.44-1.25-.62-.38-.15-.8-.26-1.23-.35-1.76-.33-3.74-.18-5.57.32-.94.24-1.72.61-2.73,1.09-.95.45-1.87.9-2.69,1.4-.41.25-.8.51-1.13.78-.16.13-.31.27-.44.4-.12.11-.23.28-.35.46-.23.35-.5.67-.65,1.1-.18.4-.38.79-.47,1.25h-.07Z"/><path class="cls-1" d="m440.44,383.35c6.15,3.35,12.89,5.89,19.72,6.26,3.39.17,6.79-.3,9.78-1.65,1.5-.68,2.88-1.57,4.11-2.66,1.27-1.11,2.39-2.38,3.4-3.74,2.94-4.02,4.66-8.91,5.7-13.9,1.8-8.87,1.53-18.19.25-27.28-1.31-9.11-3.67-18.1-6.92-26.75-2.89-7.67-6.58-15.1-11.01-21.91-2.85-4.36-6.07-8.5-9.73-12.19-3.67-3.67-7.79-6.89-12.44-9.14-2.91-1.35-2.51-1.41.28-.85,1.4.29,3.32.97,5.54,2.05,2.2,1.11,4.6,2.75,6.93,4.84,4.11,3.71,7.64,7.96,10.78,12.45,3.15,4.49,5.86,9.26,8.21,14.2,4.72,9.86,8.16,20.33,10.22,31.13,1.2,6.45,2.03,13.13,2.11,19.91.07,6.76-.58,13.67-2.79,20.19-1.23,3.56-2.95,7.03-5.35,10.04-1.19,1.52-2.54,2.89-4.08,4.11-1.55,1.21-3.28,2.18-5.11,2.87-3.66,1.4-7.6,1.69-11.37,1.35-3.78-.34-7.45-1.26-10.95-2.54-4.32-1.57-8.42-3.64-12.29-6.05-3.87-2.41-7.53-5.15-10.91-8.19-2.57-2.3-4.97-4.8-7.16-7.49-2.17-2.7-4.14-5.59-5.62-8.77-1.46-3.16-2.53-6.67-2.24-10.31.16-1.8.68-3.6,1.59-5.19.91-1.59,2.18-2.93,3.6-4.01,2.24-1.67,4.86-2.69,7.54-3.18,1.34-.23,2.72-.36,4.11-.25,1.38.08,2.72.38,4.02.75,2.61.76,5.01,1.98,7.28,3.32,2.27,1.35,4.42,2.86,6.54,4.38,1.85,1.33,3.66,2.63,5.53,3.96,6.91,4.9,9.33,5.32,10.91,6.49.37.25.9.42,1.14.6.2.15.14.26-.19.36-.33.1-.92.18-1.76.15-1.69-.01-4.22-.83-7.05-2.4-4.18-2.36-7.92-5.29-11.76-7.98-3.83-2.67-7.8-5.28-12.06-6.42-1.06-.28-2.13-.41-3.19-.46-1.04-.02-2.13.09-3.19.3-2.13.43-4.19,1.28-5.89,2.52-1.7,1.23-3.02,2.87-3.68,4.76-.65,1.89-.72,4.02-.27,6.16.64,3.19,2.19,6.32,4.09,9.21,1.91,2.9,4.19,5.61,6.68,8.13,4.99,5.02,10.77,9.35,17,12.74l-.02.08Z"/><path class="cls-1" d="m423.72,274.08c-1.77,1.18-3.58,2.36-5.48,3.46-.69.4-1.38.83-2.12,1.18-1.3.6-2.7,1.13-4.23,1.23-.76.07-1.55-.03-2.29-.24-.75-.27-1.4-.57-2.03-1.15-.14-.11-.26-.27-.37-.45-.13-.16-.2-.35-.26-.56-.13-.4-.08-.83.02-1.18.21-.71.58-1.25.94-1.77.94-1.32,2.12-2.34,3-3.54.27-.37.41-.26.39.21-.01.47-.23,1.31-.74,2.08-.47.67-.88,1.36-1.34,1.94-.44.59-.81,1.23-.87,1.63.02.17,0,.26.13.4.03.08.17.15.25.24.1.09.27.17.4.25.56.33,1.18.55,1.86.58,1.66.14,3.44-.77,5.06-1.69,1.81-1.04,3.56-2.28,5.33-3.51l3.31-2.24c1.7-1.11,3.46-2.17,5.34-3.02,1.44-.67,2.95-1.3,4.64-1.45.37-.05.73-.04,1.11-.04,1.39.19,1.77.56,1.91,1.04.03.11.08.23.08.33,0,.35-.56.44-1.4.5-1.24.12-2.43.34-3.63.81-1.21.4-2.43.97-3.64,1.63-1.8.97-3.58,2.14-5.35,3.35l-.03-.04Z"/></svg>