<?xml version="1.0" encoding="UTF-8"?><svg id="Layer_69" xmlns="http://www.w3.org/2000/svg" width="520" height="520" viewBox="0 0 520 520"><defs><style>.cls-1{opacity:.1;}.cls-1,.cls-2,.cls-3,.cls-4,.cls-5,.cls-6{fill:#231f20;}.cls-3{opacity:.55;}.cls-4{opacity:.45;}.cls-5{opacity:.4;}.cls-6{opacity:.35;}</style></defs><path class="cls-2" d="m92.77,163.33s20.14-11.58,24.65-11.21-14.59,18.12-14.59,18.12l-10.06-6.91Z"/><path class="cls-2" d="m118.45,148.25c.47,0,.94-.05,1.36-.05.21,0,.38.03.57.05.15.04.33.07.45.12.54.22.88.41,1.19.8.13.17.13.25.13.33l.02.27.02.54c0,.05.02.07-.01.15l-.12.26-.24.51-.49,1.01c-.98,1.11-2.02,2.2-3,3.28l-2.19,2.36c-1.03,1.11-2,2.28-3.04,3.38l-4.69,4.92-2.34,2.47-1.2,1.25-.88.88c-.34.2-.67.44-1,.61-.28-.07-.54-.16-.81-.24l-.83-.41c-.14-.06-.27-.15-.41-.23l-.28-.17-.53-.32c-2.03-1.25-4.07-2.46-6.11-3.64-1.32-.74-2.61-1.53-3.88-2.34-.64-.41-1.27-.82-1.89-1.26-.32-.2-.61-.45-.89-.71-.28-.26-.59-.48-.85-.78-.62-.79-.46-.81.5-.85.49-.03,1.13,0,1.89.07.73.11,1.51.38,2.28.77l3.22,1.72,3.11,1.9,3.09,1.93,1.53.96.19.12c.05.03.03.03.04.04l.04.04s.06.07.1.1c.04,0,.06-.01.13-.05l.11-.08.06-.04.15-.15,1.39-1.37c2.65-2.6,5.05-5.64,7.58-8.47l2.52-2.82.16-.18.08-.09.03-.03.13-.12.25-.26c.18-.18.34-.36.57-.57l.77-.82c.13-.15.31-.28.4-.45-.14-.08-.31-.04-.47-.03-.51.05-1.05.14-1.64.25l-.92.19-1.79.44c-3.75.96-7.53,1.96-11.19,3.17-2.85.94-5.55,2.11-8.28,3.24-.6.25-1.17.53-1.78.77-2.26.85-3.08.83-3.93.1-.19-.16-.41-.29-.55-.45-.45-.49.19-1.6,1.79-2.51,4.79-2.59,10.16-4.36,15.57-6.01,2.02-.61,4.05-1.17,6.09-1.71l3.16-.81c.99-.24,1.99-.51,2.96-.7.5-.12.94-.16,1.41-.23.45-.06.9-.13,1.28-.12l-.07.11Z"/><path class="cls-2" d="m232.81,289.58s3.49,7.57-.56,12.43c-2.5,3,11.24-4.23,3.55-10.01l-2.99-2.41Z"/><path class="cls-1" d="m311.17,257.39c.01-6.27-4.21-49.36-4.92-55.06-.7-5.7-9.19-69.58-10.59-76.79-1.39-7.22-1.71-12.09-9.25-15.71-7.54-3.62-32.13-.85-47.39,1.24-15.25,2.09-26.24,9.74-26.24,9.74l-1.9,3.85c-2.33,11.5,2.93,45.58,2.93,45.58,0,0,2.67,9.87,4.77,21.57,2.11,11.7-3.67,25.54-3.67,25.54,0,0,3.12,4.75,9.31,13.22,6.19,8.48,1.12,26.74,1.12,26.74,0,0,0,23.01,8.47,32.33,8.47,9.33,62.49-1.34,62.49-1.34,0,0-11.79-14.95-14.24-18.41-2.45-3.45-7.02-14.7-7.3-20-.28-5.29,3.1-5.36,4.99-5.37,1.88,0,28.52,33.41,30.21,34.88,1.69,1.46,1.2-15.74,1.21-22.01Zm-29.49-63.15c-2.56.82-44.9,5.27-46.91,4.93-2.02-.33-2-12.19-1.58-12.97.42-.78,43.79-3.93,43.79-3.93,0,0,3.61-.5,5.16,0,1.55.49,3.41,3.81,3.39,7.11-.03,3.31-1.29,4.04-3.85,4.86Zm-36.64-33.36c2.61-1.55,3.77-.82,4.36.37.58,1.18,1.68,3.44,0,4.5-1.68,1.06-4.58,1.81-5.42-1.34,0,0-1.56-1.98,1.06-3.53Zm9.53-2.09c2.32-.87,4.14-.24,4.4.47.25.7,1.11,3.19.1,4.07s-4.22,2.69-5.07,1.75c-.85-.95-1.55-3.15-1.55-3.15,0,0-.2-2.26,2.12-3.14Zm8.68-.21c1.16-1.84,2.75-1.45,3.39-.74.63.71,1.2,3.46.56,4.52-.63,1.06-1.41.97-1.41.97-.21.02-3.7-2.92-2.54-4.75Zm8.94-11c2.28-3.5,4.46,0,4.46,0,0,0,.74,2.52,0,4.54-.74,2.03-2.81,3.75-2.81,3.75,0,0-3.93-4.79-1.65-8.29Zm8.21,9.67s1.16-3.11,3.41-3.08c2.26.04,3.37,2.19,3.37,2.19l-6.78.89Zm-63.61-13.77s-2.58-14.97.08-16.74c3.66-2.44,53.83-13.84,71.72-7.77l3.87,17.67c-20.98-8.23-75.67,6.84-75.67,6.84Z"/><path class="cls-4" d="m246.99,221.57s1.63.97,2.13,2.7c.5,1.73,0,4.69,0,4.69l-13.94,1.56s-1.76-6.37-1.14-7.33,12.95-1.63,12.95-1.63Z"/><path class="cls-4" d="m269.41,219.79s1.63.97,2.13,2.7,0,4.69,0,4.69l-13.94,1.56s-1.76-6.37-1.14-7.33c.62-.96,12.95-1.63,12.95-1.63Z"/><path class="cls-4" d="m270.79,234.96s1.63.97,2.13,2.7c.5,1.73,0,4.69,0,4.69l-13.94,1.56s-1.76-6.37-1.14-7.33,12.95-1.63,12.95-1.63Z"/><path class="cls-4" d="m248.76,236.73s1.63.97,2.13,2.7,0,4.69,0,4.69l-13.94,1.56s-1.76-6.37-1.14-7.33,12.95-1.63,12.95-1.63Z"/><path class="cls-4" d="m249.98,252.83s1.63.97,2.13,2.7c.5,1.73,0,4.69,0,4.69l-13.94,1.56s-1.76-6.37-1.14-7.33,12.95-1.63,12.95-1.63Z"/><path class="cls-2" d="m249,228.44c-10.55,1.71-11.48-3.59-11.48-5.24,0,0-2.87-.8-3.48.38-.61,1.18.11,6.74,1,6.87s11.99-.8,11.99-.8l1.97-1.2Z"/><path class="cls-2" d="m269.16,227.12c-12.07,1.81-9.93-6.44-9.93-6.44,0,0-2.93-.81-2.77.73s0,7.01,1.76,7.17c1.77.16,10.93-1.46,10.93-1.46Z"/><path class="cls-2" d="m250.37,243.39c-10.77,1.99-12.42-2.18-11.91-5.85,0,0-3.44-.06-3.25,1.89.19,1.95.43,5.7,2.31,6.09s12.85-2.14,12.85-2.14Z"/><path class="cls-2" d="m270.9,242.28c-11.91,1.63-10.31-5.77-10.14-6.51,0,0-2.96-.99-3.05,1.47s-.48,5.8,1.81,6.01,11.38-.98,11.38-.98Z"/><path class="cls-2" d="m252.15,259.53c-11.64,2.12-11.71-2.22-11.26-6.57,0,0-4.13-.3-3.92,2.12.2,2.41.37,5.3,1.88,5.89s13.31-1.43,13.31-1.43Z"/><path class="cls-2" d="m251.12,285.1c-5.71.82-9.89-.78-12.53-4.02-2.61-3.21-3.41-6.92-4.78-11.22,0,0-1.29,1.06-.85,2.77.44,1.71,2.44,11.47,4.25,12.33s8.53,1.88,10.91,1.25c2.38-.63,3-1.1,3-1.1Z"/><path class="cls-2" d="m275.73,117.4c5.93.15,9.23,2.38,11.65,5.79,2.4,3.38,2.76,7.16,3.85,11.54,0,0,1.36-.98,1.03-2.71s-1.69-11.61-3.44-12.58-7.85-3.24-10.26-2.76c-2.41.47-2.82.72-2.82.72Z"/><path class="cls-2" d="m229.34,123.02c-5.77,1.37-8.71,3.49-10.38,7.32-1.65,3.8-1.05,8.32-1.21,12.84,0,0-1.53-.68-1.56-2.44-.03-1.76-1.47-12.77.04-14.08s5.48-3.66,10.87-4.46c2.43-.36,2.23.82,2.23.82Z"/><path class="cls-2" d="m305.96,261.66s.93,8.93-1.8,9.52c-2.05.45,1.77,3.52,2.22,1.79s-.42-11.31-.42-11.31Z"/><path class="cls-2" d="m369.38,393.31c2.01-.75,4.05-1.41,6.11-2.01.75-.23,1.48-.5,2.24-.69,2.68-.65,5.41-1.12,8.19-1.36,1.23-.09,2.48-.21,3.74-.18.81.03,1.64.04,2.48.26.84.13,1.67.69,2.2,1.46.27.56.06.57-.54.73-.16.06-.31.09-.48.14-.18.07-.37.15-.56.23-.18.08-.35.12-.54.18l-.27.07-.24-.03c-1.21-.24-2.63-.2-4.07-.18-1.45.03-2.95.13-4.48.25-1.84.14-3.67.75-5.49,1.25-2,.55-4,1.17-5.97,1.88-1.21.43-2.42.9-3.6,1.4-1.79.77-3.59,1.57-5.25,2.55-1.3.76-2.45,1.69-3.59,2.61-.25.21-.51.39-.76.58-.5.33-.84.53-1.15.58-.34.01-.6-.05-.88-.18-.12-.06-.26-.09-.35-.15-.16-.1-.19-.28-.14-.58.05-.29.15-.77.49-1.1.47-.53.93-1.12,1.49-1.56.55-.46,1.13-.9,1.73-1.31,1.19-.83,2.46-1.55,3.76-2.23,1.92-1,3.92-1.86,5.93-2.67l.03.06Z"/><path class="cls-2" d="m416.53,403.96c-5.39-4.87-12-8.68-12-8.68,0,0-23.05-1.05-38.86,10.98-15.81,12.03-18.04,17.49-17.96,18.06.08.56,2.28,26.94,6.99,34.65,4.7,7.72,23.4-6.65,27.16-13.5,3.2-5.84,13.18-9.11,25.98-5.15,9.03,2.79,22.03-14.96,22.03-14.96,0,0-7.94-16.54-13.34-21.4Zm-54.25,41.11c-1.19,0-2.15-.97-2.15-2.15,0-2.75,4.31-2.81,4.31-.01,0,1.19-.97,2.16-2.16,2.16Zm2.76-17.79c-1.52,0-2.76-1.23-2.76-2.75,0-3.51,5.51-3.59,5.51,0,0,1.52-1.23,2.75-2.75,2.75Zm29.48-5.94c-1.22,0-2.21-.99-2.21-2.21-.01-2.82,4.42-2.89,4.42-.01,0,1.23-.99,2.22-2.21,2.22Zm3.9-14.37c-1.52,0-2.75-1.23-2.75-2.75,0-3.51,5.51-3.59,5.51-.01,0,1.52-1.24,2.76-2.76,2.76Zm16.66,20.31c-1.52,0-2.75-1.23-2.75-2.75,0-3.51,5.51-3.59,5.51,0,0,1.52-1.24,2.75-2.76,2.75Z"/><path class="cls-2" d="m230.93,347.59c-5.06,2.51-23.75-1.77-40.02-9.62-16.26-7.85-22.62-21.89-22.62-21.89,0,0-5.08,6.41-9.12,15.25-4.03,8.83-8.46,29.93-6.46,27.8,2.01-2.13,15.88-5.4,20.02,6.27,4.14,11.67,21.65,12.8,29.74,11.86,8.1-.94,22.41,8.28,22.41,8.28,0,0,1.5-18.14,2.36-22.15.87-4.02,8.74-18.32,3.69-15.8Zm-56.55-5.76c.02,2.77-3.79,4.13-5.41,1.85-2.93-4.14,5.28-7.08,5.41-1.9v.05Zm10.42,15.76c.03,2.77-3.79,4.13-5.41,1.85-2.93-4.14,5.28-7.08,5.41-1.9v.05Zm17.65-1.06c-2.93-4.14,5.28-7.08,5.41-1.9,0,.02.01.03.01.05.02,2.77-3.79,4.13-5.42,1.85Zm19.26,12.35c.02,2.77-3.79,4.14-5.42,1.85-2.93-4.14,5.28-7.08,5.42-1.9v.05Z"/><path class="cls-5" d="m184.83,313.92s-15.33.61-14.43,4.36c.9,3.75,8.36,11.53,8.36,11.53,0,0,5.74-8.62,6.23-13.63.5-5.01-.17-2.26-.17-2.26Z"/><path class="cls-5" d="m215.31,346.49s12.61,2.59,15.12-.12c3.25-3.51-10.27-16.14-12.69-16.57s-2.43,16.69-2.43,16.69Z"/><path class="cls-2" d="m218.75,200.38l.13-1.84.02-1.85c.05-1.24-.06-2.47-.12-3.71-.03-.91-.26-1.79-.34-2.7-.07-.8-.19-1.59-.31-2.38-.13-.79-.21-1.59-.4-2.37l-.46-2.37-.6-2.34c-.17-.7-.41-1.37-.65-2.05-.25-.67-.48-1.35-.77-2-.33-.85-.69-1.69-1.02-2.55-.17-.43-.38-.83-.5-1.28-.11-.45-.23-.91-.34-1.37-.13-.58.03-.58.52-.28.24.15.58.37.98.65.19.14.42.29.61.47.17.19.34.4.48.64.5.83.94,1.69,1.41,2.55.45.86.72,1.8,1.06,2.71.35.91.59,1.85.85,2.79.27.93.47,1.89.63,2.85.11.57.22,1.15.34,1.73.1.58.21,1.17.31,1.76.25,1.17.42,2.36.56,3.54.19,1.3.19,2.61.28,3.92.03,1.31.02,2.62-.02,3.92l-.16,2.41c-.04.8-.19,1.6-.28,2.4-.29,2.42-.89,4.8-1.48,7.14-.26.9-.53,1.8-.77,2.7-.24.9-.6,1.77-.9,2.66-.14.39-.25.79-.46,1.16-.35.69-.62,1.13-.92,1.38-.32.23-.62.29-.98.26-.16-.01-.33,0-.47-.03-.23-.06-.36-.27-.42-.62-.05-.34-.07-.83.15-1.31,1.09-2.96,2.23-6.01,2.94-9.25.26-1.2.48-2.41.67-3.63.12-1.23.34-2.45.35-3.7h.06Z"/><path class="cls-2" d="m226.9,242.65c-.13-1.18-.15-2.38-.36-3.56-.24-1.17-.36-2.38-.73-3.52-.25-.84-.5-1.68-.81-2.51-.92-2.97-2.24-5.84-3.84-8.54-.7-1.21-1.55-2.33-2.41-3.41-1.15-1.36-2.46-2.52-3.47-4.03-.29-.52-.13-.62.5-.63.65-.05,1.83.05,2.65.8,1.46,1.31,2.71,2.79,3.87,4.33.57.78,1.05,1.62,1.55,2.45.45.85.87,1.73,1.28,2.6.44,1.07.94,2.13,1.44,3.2.43,1.1.95,2.18,1.29,3.31.34,1.25.79,2.47.99,3.76l.37,1.91c.14.63.15,1.29.23,1.93.06.8.2,1.58.2,2.38l.02,2.39c-.06,2.41-.38,4.81-.86,7.15-.12.93-.36,1.81-.57,2.71-.23.89-.36,1.82-.67,2.69-.14.38-.25.77-.41,1.15-.29.71-.52,1.16-.8,1.41-.29.25-.62.31-1.01.29-.17,0-.34.01-.48-.01-.24-.04-.38-.24-.51-.61-.14-.37-.16-.82-.01-1.33.2-.76.42-1.5.67-2.24.19-.76.35-1.53.55-2.29.48-1.5.63-3.1.97-4.65.14-1.17.21-2.36.35-3.54-.02-1.19,0-2.39-.05-3.58h.07Z"/><path class="cls-2" d="m281.46,275.54c-.68-.95-1.34-1.91-1.98-2.89-.62-.99-1.21-2-1.78-3.03-.42-.74-.87-1.48-1.25-2.24-1.31-2.72-2.4-5.56-3.1-8.51-.31-1.31-.61-2.62-.8-3.95-.08-.42-.13-.85-.17-1.28-.05-.43-.09-.86-.05-1.29-.02-.87.29-1.72.51-2.55.16-.52.22-.43.41.02.14.3.28.62.42.92.09.19.18.39.29.6.06.11.09.21.16.32l.07.34.1.6c.05.2.1.4.11.6.05.4.06.8.13,1.2l.18,1.2.23,1.2c.34,1.6.76,3.19,1.24,4.8.58,1.92,1.6,3.77,2.59,5.59,1.08,2,2.29,3.94,3.54,5.86.78,1.17,1.58,2.34,2.43,3.47,1.29,1.71,2.64,3.4,4.07,4.99,1.11,1.24,2.31,2.35,3.47,3.53.26.26.52.51.77.78.48.5.67.94.79,1.27.05.17.08.31.06.45-.02.15-.08.29-.13.42-.05.12-.08.24-.13.32-.14.22-.84.08-1.57-.54-2.16-1.92-4.29-4.23-6.3-6.63-.75-.89-1.48-1.82-2.2-2.74-.74-.91-1.46-1.85-2.17-2.79l.04-.03Z"/><path class="cls-6" d="m285.53,189.38c-34.01,9.05-38.81,2.51-39.68-5.09,0,0-11.96-.2-12.66,1.9s-.88,8.42.72,10.82c1.6,2.4,6.09,2.48,9.49,2.19s39.35-3.58,41.56-6.27.56-3.56.56-3.56Z"/><path class="cls-3" d="m261.67,273.63s-.67,3.81,1.6,4.3c2.27.49,15.12-1.42,15.12-1.42,0,0-.46-5.32-1.47-5.32-1.01,0-15.25,2.44-15.25,2.44Z"/><path class="cls-2" d="m271.5,278.19c-1.1-.01-2.2-.08-3.29-.12-.4-.02-.8.02-1.2,0-.7-.05-1.41-.11-2.11-.18l-1.06-.11c-.44-.03-1.03-.13-1.43-.34h-.01c-.27-.35-.45-.81-.59-1.23-.1-.31-.23-.6-.31-.91-.11-.39-.24-.77-.32-1.17-.12-.39-.04-.83,0-1.26.05-.29.3-.26.65-.12.33.15.93.37,1.16.76l.6,1.42.1.36c.03.12.08.27.06.25,0,.05-.02.05-.03.1,0,.04.02.07.06.11,0,.01.02.02.11.03l.2.04.4.07c.95.18,1.95.08,2.94.1l3.25.06c.67,0,1.34.02,2,0,1.01-.02,2.03-.04,3.02-.18.77-.1,1.5-.36,2.23-.55.16-.04.32-.1.48-.12.6-.11.83.05,1.07.48.06.1.12.2.16.29.14.33-.04.69-.48.99-1.33.8-2.85.97-4.34,1.13-1.11.1-2.23.13-3.33.16v-.05Z"/><path class="cls-4" d="m291.77,217.93s1.63.97,2.13,2.7,0,4.69,0,4.69l-13.94,1.56s-1.76-6.37-1.14-7.33,12.95-1.63,12.95-1.63Z"/><path class="cls-4" d="m293.94,232.77s1.63.97,2.13,2.7,0,4.69,0,4.69l-13.94,1.56s-1.76-6.37-1.14-7.33,12.95-1.63,12.95-1.63Z"/><path class="cls-4" d="m272.6,249.89s1.63.97,2.13,2.7,0,4.69,0,4.69l-13.94,1.56s-1.76-6.37-1.14-7.33,12.95-1.63,12.95-1.63Z"/><path class="cls-4" d="m295.81,247.81s1.63.97,2.13,2.7,0,4.69,0,4.69l-8.98.46s-4.86-5.35-4.24-6.31c.62-.96,11.08-1.54,11.08-1.54Z"/><path class="cls-2" d="m289.38,254.46c-.29-.43-.58-.86-.86-1.29-.11-.15-.26-.27-.36-.43-.36-.56-.73-1.11-1.06-1.71-.15-.26-.36-.47-.52-.71-.22-.31-.42-.63-.55-1.02-.04-.12.04-.18.22-.22.17-.03.48-.07.71,0,.85.24,1.4.77,1.82,1.43.21.43.61.71.91,1.07.32.4.65.81.97,1.21.2.25.4.5.6.75.31.37.6.76.96,1.08.28.25.63.42.94.63.07.05.15.08.21.13.25.18.11.44-.2.81l-.22.26c-.25.27-.6.42-.91.4-.74-.21-1.3-.63-1.74-1.17-.34-.39-.64-.81-.95-1.22l.04-.04Z"/><path class="cls-2" d="m347.68,419.84c.07-.12.18-.3.24-.37l.17-.22.35-.44.7-.88c.45-.6.97-1.15,1.45-1.72.49-.57.99-1.13,1.52-1.66.52-.54,1.02-1.1,1.57-1.6,2.13-2.1,4.42-4.02,6.82-5.78,1.74-1.29,3.5-2.57,5.36-3.67,6.59-3.86,13.75-6.61,21.15-8.19,3.28-.7,6.62-1.24,9.97-1.47,1.07-.09,2.15-.12,3.24-.13,1.08,0,2.17.1,3.26.22.54.08,1.08.16,1.62.25.53.14,1.07.27,1.59.42.52.18,1.05.34,1.56.55.5.24.99.51,1.45.82,1.14.8.89.8-.3.84-1.24.11-3.28.44-5.54.37-1-.07-2.01-.07-3.03-.04-1.01.02-2.03.02-3.05.06-2.04.09-4.09.33-6.14.64-4.09.64-8.16,1.63-12.18,2.9-4.82,1.53-9.48,4.09-13.78,6.93-4.72,3.13-9.11,6.84-12.75,11.2-.58.65-1.1,1.35-1.64,2.04-.27.34-.58.74-.65.9-.13.26-.25.6-.34.98-.36,1.51-.4,3.3-.36,5.02.17,5.29,1,10.68,2.23,15.86.97,4.03,2.37,7.87,3.87,11.61.34.82.71,1.6,1.07,2.42,1.26,3.03,1.63,3.93,1.41,4.98-.03.22,0,.48-.04.63-.06.26-.35.16-1-.18-.66-.33-1.37-1.12-2.13-2.19-1.14-1.6-2.03-3.34-2.84-5.12-.83-1.78-1.5-3.63-2.1-5.51-1.21-3.76-2.15-7.63-2.87-11.57-.54-2.93-.94-5.89-1.15-8.92-.1-1.52-.14-3.05-.07-4.65.01-.39.04-.8.09-1.21.03-.4.09-.83.17-1.26.17-.87.32-1.75.99-2.9l.08.04Z"/><path class="cls-2" d="m354.45,394.76c-.31-1.19-.67-2.4-1.22-3.57-.18-.43-.48-.81-.68-1.24-.71-1.53-1.52-3.06-2.4-4.55-.39-.66-.85-1.29-1.31-1.9-.58-.79-1.13-1.62-1.4-2.63-.09-.31.16-.43.59-.41.42.03,1.15.1,1.59.47.35.36.73.7,1.07,1.07.3.39.6.8.89,1.21.57.82,1.12,1.67,1.59,2.59.56,1.1,1.42,2.07,2.05,3.19.69,1.22,1.31,2.52,1.78,3.87.31.82.53,1.68.76,2.53.3,1.3.49,2.61.63,3.91.15,1.01.39,1.99.52,3,.01.22.05.44.05.66-.04.83-.33,1.08-1.07,1.2-.17.03-.34.07-.51.08-.56.04-1.04-.31-1.29-.88-.65-1.68-.76-3.32-1.03-4.95-.12-1.22-.35-2.42-.66-3.62l.07-.03Z"/><path class="cls-2" d="m376.14,327.49c1.1,5.91,2.05,11.8,3.16,17.64.41,2.13.94,4.23,1.37,6.35,1.57,7.45,3.27,14.9,5.86,22.04,1.16,3.16,2.53,6.27,4.08,9.22,1.96,3.82,4.35,7.36,6.5,11.12.63,1.21.42,1.17-.63.53-.51-.33-1.33-.74-2.12-1.39-.78-.67-1.65-1.5-2.47-2.5-2.69-3.68-4.99-7.64-6.75-11.82-1.8-4.16-3.26-8.46-4.42-12.84-1.41-5.23-2.91-10.63-4.06-16.01-1.26-5.91-2.29-11.85-3.4-17.76-.68-3.63-1.37-7.26-2.21-10.83-.64-2.7-1.33-5.4-2.18-8.02-.85-2.61-1.87-5.18-3.26-7.44-2.16-3.49-5.46-6.1-8.95-8.19-.78-.45-1.57-.84-2.37-1.26-3-1.48-3.85-2.15-4.22-3.34-.09-.26-.24-.52-.28-.72-.18-.58,1.54-1.05,4.15-.19,3.78,1.41,7.44,3.55,10.6,6.51,1.58,1.47,3.03,3.18,4.21,5.11,1.14,1.91,2.08,3.88,2.82,5.87,2.22,5.92,3.44,11.94,4.64,17.88l-.09.03Z"/><path class="cls-2" d="m347.77,288.1c1.85,1.34,3.4,3.09,4.52,5.01.2.35.41.7.63,1.04.2.35.36.71.52,1.08.29.68.49,1.26.71,1.84l.7,1.78,1.48,3.59c.44,1.07.96,2.11,1.45,3.16.32.67.59,1.37.84,2.08.11.36.25.71.29,1.1.04.39.07.77.06,1.17-.08.51-.21.47-.7.22-.25-.12-.54-.31-.9-.52-.17-.11-.37-.22-.52-.36-.14-.14-.27-.3-.37-.48l-1.1-1.88-.96-1.97c-.63-1.33-1.28-2.68-1.77-4.13-.3-.86-.7-1.71-1.1-2.57-.2-.41-.4-.9-.59-1.27-.19-.38-.38-.76-.55-1.15-.85-1.65-1.96-3.15-3.38-4.34-.89-.72-1.85-1.38-2.92-1.88-1.6-.78-3.35-1.4-5.15-1.78-1.4-.29-2.84-.33-4.27-.52-.32-.04-.64-.04-.95-.1-1.15-.33-1.47-.69-1.56-1.48-.02-.18-.06-.36-.05-.53,0-.55.59-.96,1.49-1.07.67-.12,1.34-.1,2-.07.67.03,1.34.07,2.03.16,1.35.19,2.74.53,4.13.94,2.06.63,4.15,1.55,6.05,2.86l-.04.07Z"/><path class="cls-2" d="m327.09,278.95c.54.31,1.06.64,1.55,1.01.51.35.96.76,1.42,1.16.47.39.85.86,1.28,1.28.4.43.73.84,1.1,1.26.52.61,1.11,1.17,1.6,1.8,1.74,2.25,3.37,4.57,4.86,6.96.67,1.06,1.38,2.09,2.08,3.11.45.66.84,1.35,1.22,2.06.35.72.62,1.49.85,2.27.14.49-.16.58-.72.42-.55-.17-1.47-.5-2.14-1.12-.54-.59-1.06-1.19-1.56-1.8l-1.34-1.93c-.89-1.29-1.77-2.59-2.58-3.97-.99-1.64-2.39-3.05-3.66-4.51-.7-.79-1.42-1.63-2.13-2.36-.35-.35-.69-.72-1.08-1.02l-.57-.48-.61-.42c-1.01-.68-2.11-1.27-3.3-1.65-1.79-.62-3.74-.96-5.7-1.01-1.53-.05-3.04.19-4.58.35-.34.04-.67.07-1.02.07-.32,0-.58-.02-.81-.07-.22-.05-.4-.15-.55-.25-.3-.19-.47-.49-.6-.88-.06-.17-.14-.33-.18-.48-.12-.45.4-1.11,1.32-1.49.69-.18,1.38-.43,2.1-.51.71-.11,1.45-.18,2.18-.23,1.49-.1,3.04-.07,4.62.15,2.34.32,4.77.98,6.97,2.2l-.04.08Z"/><path class="cls-2" d="m305.68,270.61c.07-.78.12-1.61.16-2.45.01-.31-.05-.61-.04-.92.01-1.09,0-2.2-.09-3.31-.05-.49-.11-.98-.2-1.46-.06-.31-.13-.62-.19-.92-.03-.31,0-.64.03-.97.03-.21.24-.23.54-.13.29.1.74.32.95.66.24.62.42,1.26.56,1.9.11.65.13,1.32.11,1.99-.03.8.16,1.61.2,2.43.03.9.06,1.81-.07,2.72-.06.56-.17,1.13-.29,1.69-.11.43-.26.86-.47,1.29-.21.38-.41.77-.79,1.16-.31.31-.76.48-1.12.54-.37.07-.71.08-1.04.07-.14,0-.28.01-.42-.03-.51-.14-.66-.28-.73-.57-.02-.06-.04-.13-.05-.18-.03-.17.21-.37.59-.48.56-.22,1.16-.2,1.5-.35.17-.07.16-.12.17-.16l.21-.45c.09-.19.13-.34.18-.47.06-.12.08-.31.12-.48.07-.34.12-.73.14-1.12h.05Z"/><path class="cls-2" d="m296.5,252.7c-.06-.74-.17-1.48-.27-2.21l-.08-.55-.04-.27c-.02-.11,0-.06,0-.1,0-.08,0-.18,0-.28-.01-.09-.12-.03-.18-.04-.09.02-.08.01-.24.01-1.89.01-3.84.16-5.81.31-.87.07-1.75.2-2.62.3-1.11.13-2.29.33-3.41-.34-.34-.23-.29-.25,0-.56.3-.33.82-1.01,1.41-1.19,1.06-.23,2.13-.33,3.23-.44,1.1-.11,2.23-.21,3.39-.22.69,0,1.39-.09,2.1-.17l1.07-.12.57-.05.88-.05h.28s.76.17.76.17c.14.23.41.27.53.52.24.49.34,1.13.41,1.72.09.77.16,1.51.22,2.26.07.96.16,1.91.2,2.88l.02.42c0,.19.01.38,0,.58,0,.39-.06.75-.21,1.07-.39.48-1.04.61-1.68.7-.53.07-.94.11-1.41.16-1.12.11-2.2.3-3.31.42-.24.03-.48.07-.72.08-.91.04-1.19-.1-1.39-.71-.04-.13-.1-.26-.13-.39-.09-.42.28-.86.93-.99.96-.21,1.95-.35,2.94-.46.49-.05.98-.11,1.47-.16l.72-.08c.21-.03.56-.08.46-.06,0,0,0,0,0,0,0,0,.01,0,.02,0h0s0-.02,0-.11l-.02-.4c-.03-.54-.08-1.09-.14-1.65h.06Z"/><path class="cls-2" d="m260.78,254.02c.05.77.15,1.55.27,2.3.06.37.13.75.22,1.09.06.23.04.2.05.25,0,.04.02.08.02.13.02.07.08.09.15.1l.1.02s.05,0,.13,0h.21c.77,0,1.56-.11,2.35-.15,2.8-.17,5.67-.4,8.4-.91l.44-.1c.13-.03.32-.09.36-.1.14-.05.3-.09.41-.2.07-.14.05-.3.04-.45l-.04-.32-.06-.44c-.24-1.54-.74-3.08-.51-4.78.09-.54.13-.48.54-.15.44.33,1.3.94,1.65,1.84.23.82.53,1.62.64,2.5l.09.67.04.36c.03.18.01.4.02.6.01.81-.22,1.58-.85,2.04-.31.22-.69.36-1.06.5l-.28.09-.17.05-.33.08c-.44.1-.87.19-1.3.26-.85.14-1.7.24-2.55.31-2.03.15-4.08.55-6.17.7-.57.04-1.13.07-1.72.08h-.24c-.11,0-.22,0-.34-.01-.23,0-.45-.03-.66-.06-.21-.03-.42-.09-.59-.2-.04-.02-.09-.06-.13-.09l-.03-.02c-.06.06-.03,0-.05,0l-.05-.06-.2-.23c-.11-.19-.21-.39-.3-.59l-.22-.64-.12-.53-.08-.45c-.1-.59-.18-1.18-.23-1.76-.06-.63-.11-1.25-.14-1.88-.02-.31-.03-.63-.04-.95,0-.13,0-.39,0-.61,0-.23.03-.45.06-.66.05-.21.16-.41.32-.58.27-.24.63-.39,1-.51.41-.14.61-.17.89-.24.53-.12,1.06-.21,1.59-.3,1.05-.17,2.1-.3,3.14-.43,1.62-.2,3.2-.48,4.83-.61.36-.03.71-.07,1.08-.08,1.36-.02,1.81.18,2.03.82.05.14.12.28.15.41.07.43-.48.8-1.4.89-2.74.33-5.68.65-8.56,1.09-.72.11-1.43.24-2.11.39-.93.23-.61.14-.7.17,0,.06-.02-.14,0,.34.02.34.04.69.07,1.03h-.06Z"/><path class="cls-2" d="m235.03,111.62c-.1.94-.9,6.79,3.1,7.13s27.63-3.11,29.27-4.19c2.64-1.73-.07-7.37-.07-7.37l-32.3,4.43Z"/><path class="cls-2" d="m235.36,301.81c-.92.98-1.92,1.89-2.95,2.74-.36.32-.71.66-1.1.95-1.41.99-2.93,1.79-4.44,2.51-.34.16-.66.34-.98.52l-.98.52c-.43.2-.84.43-1.29.58-.43.2-.95.18-1.43.23-.31,0-.36-.22-.27-.64.04-.21.12-.47.22-.75.05-.14.11-.28.18-.42.03-.07.07-.12.11-.2.05-.04.1-.09.15-.12.38-.25.75-.52,1.12-.79.37-.25.79-.42,1.18-.65.78-.44,1.58-.82,2.4-1.23,1-.46,1.78-1.3,2.64-1.98.94-.76,1.84-1.59,2.69-2.48.52-.55,1.03-1.12,1.49-1.72.7-.91,1.41-1.84,1.96-2.87.21-.4.38-.81.53-1.24l.49-1.26c.07-.18.12-.38.21-.55.19-.32.36-.51.59-.58.25-.06.5-.04.82.04.15.04.29.06.42.11.22.08.37.23.5.45.12.22.25.53.2.81-.06.89-.34,1.69-.65,2.52-.36.79-.8,1.57-1.29,2.32-.72,1.12-1.58,2.18-2.46,3.21l-.06-.04Z"/><path class="cls-2" d="m213.79,335.71c.29-1.54.61-3.08.98-4.61.14-.56.16-1.14.34-1.69.6-1.95,1.36-3.85,2.15-5.71.34-.83.7-1.65,1.02-2.48.38-1.07.97-2.07,1.72-2.95.24-.28.49-.09.71.34.2.43.44,1.13.33,1.76-.1.56-.18,1.12-.38,1.63l-.49,1.57c-.3,1.05-.76,2.05-1.19,3.09-.55,1.23-.66,2.63-.95,3.96-.33,1.47-.65,2.95-.9,4.45-.16.92-.31,1.85-.43,2.79-.18,1.42-.38,2.84-.43,4.27-.07,1.1.11,2.21.09,3.3,0,.24.02.48,0,.72-.12.9-.43,1.16-1.09,1.31-.16.03-.31.08-.46.1-.49.05-.91-.34-1.17-1.02-.34-1-.53-2.03-.56-3.05-.07-1.03-.04-2.07.06-3.12.12-1.55.35-3.11.57-4.67h.08Z"/><path class="cls-2" d="m159.77,330.68c-.57,1.26-1.05,2.56-1.57,3.85-.44,1.32-.93,2.62-1.33,3.96-.28.98-.48,1.98-.77,2.95-.89,3.47-1.77,6.98-2.23,10.57-.11.79-.22,1.59-.29,2.39-.04.8-.08,1.6-.13,2.4-.21,2.04-.04,4.09-.54,6.14-.13.64-.4.56-.76.01-.18-.27-.4-.66-.62-1.13-.24-.47-.41-1.03-.43-1.63-.31-4.28.23-8.56,1.15-12.77.14-.63.26-1.27.38-1.91.13-.64.26-1.29.39-1.93.26-1.3.49-2.6.85-3.87l.57-2.1c.2-.7.44-1.38.66-2.07.23-.69.44-1.38.68-2.06l.78-2.03.48-1.25.54-1.22c.37-.81.69-1.64,1.1-2.44,1.18-2.43,2.51-4.81,4.02-7.04.54-.9,1.19-1.72,1.75-2.59.28-.44.64-.83.96-1.25.33-.41.65-.83,1.03-1.2.34-.32.65-.66,1.01-.97.64-.59,1.22-.82,1.63-.94.41-.12.7-.11.98-.02.13.04.27.06.36.12.3.17-.07.86-.79,1.8-2.19,2.69-4.3,5.62-6.09,8.86-1.36,2.37-2.62,4.86-3.71,7.42l-.06-.02Z"/><path class="cls-2" d="m228.38,364.22c-.56,2.16-1.06,4.36-1.4,6.6-.14.81-.16,1.64-.28,2.46-.41,2.88-.75,5.8-.92,8.73-.1,1.3-.04,2.61-.04,3.9.02,1.66.1,3.33-.23,5.01-.09.52-.36.47-.75.04-.35-.43-.99-1.22-1.19-2.18-.56-3.41-.5-6.88-.12-10.34.25-2.07.25-4.24.46-6.36.12-1.17.29-2.33.46-3.49.21-1.16.37-2.32.63-3.47l.45-2.12.54-2.1c.26-1.06.62-2.1.92-3.16.34-1.04.69-2.08,1.03-3.11.29-.8.53-1.6.76-2.41.25-.8.55-1.59.85-2.38.13-.35.24-.7.42-1.03.7-1.21,1.09-1.5,1.89-1.39.17.02.34.01.48.05.43.09.72.89.48,1.84-.34,1.43-.74,2.84-1.21,4.23-.22.7-.46,1.4-.71,2.1-.23.71-.45,1.42-.68,2.13-.35,1.05-.62,2.14-.95,3.21-.27,1.09-.56,2.17-.81,3.27h-.08Z"/><path class="cls-2" d="m234.76,287.98c.53.7,1.11,1.27,1.69,1.63.22.17.74.35,1.17.53.45.18.88.38,1.37.5l1.44.41,1.51.3c1,.23,2.06.3,3.1.45,1.54.13,3.09.14,4.66.17,5.52.2,11.15-.11,16.76-.57,2.49-.21,4.98-.59,7.44-.95,1.58-.24,3.17-.48,4.75-.72.8-.1,1.59-.22,2.39-.24h1.21c.41.01.83.14,1.24.21,1.04.26.94.53.2,1.37-.73.91-2.1,2.36-3.92,2.61-6.42,1.24-12.99,1.86-19.67,1.94-3.99.02-8.14.45-12.28.28-2.28-.13-4.56-.29-6.85-.75-1.14-.18-2.29-.52-3.42-.83-.57-.18-1.13-.42-1.69-.63-.29-.12-.54-.19-.86-.36-.3-.17-.62-.32-.89-.51-1.38-.94-2.38-2.15-3.2-3.39-.81-1.25-1.45-2.54-2.01-3.85-1.66-3.98-2.53-8.13-3.33-12.21-.61-3.17-1.29-6.28-1.66-9.47-.07-.7-.15-1.39-.18-2.11-.02-.66-.01-1.22.02-1.68.05-.47.16-.84.26-1.15.23-.62.51-.97.91-1.24.18-.12.36-.28.52-.35.55-.21,1.02.84,1.53,2.66.25,1.36.54,2.74.82,4.12.24,1.39.49,2.79.73,4.2.51,2.81,1.07,5.65,1.77,8.42.52,2.06,1.13,4.08,1.84,6.01.72,1.91,1.59,3.76,2.69,5.14l-.07.07Z"/><path class="cls-2" d="m274.79,105.52c3.97.25,7.96.65,12.02,1.91,1.01.31,2.03.71,3.04,1.22,1.01.51,2.03,1.14,2.97,2.05l.67.74c.2.28.41.56.6.86.16.3.36.67.46.93l.27.73c.33.97.76,1.95.99,2.91,2.2,7.7,3.36,15.35,4.52,23.03.8,5.6,1.67,11.18,2.33,16.78,1.19,9.87,2.25,19.75,3.32,29.62,1.03,9.88,2.09,19.73,3.2,29.61.93,8.77,1.86,17.6,2.42,26.35.36,5.62.69,11.26.64,16.92-.04,2.83-.14,5.66-.41,8.49-.29,2.82-.61,5.68-1.76,8.41-.16.43-.4.77-.57,1.06-.2.28-.4.49-.55.65-.38.28-.56.36-.57.29-.02-.07.15-.27.37-.61.19-.37.43-.89.58-1.61.66-2.85.43-8.26.2-14.65l-.39-8.52c-.15-2.84-.36-5.69-.59-8.53-.47-5.68-1.01-11.37-1.57-17.07-.58-5.7-1.24-11.37-1.92-17.09-.68-5.72-1.31-11.46-1.91-17.21-1.41-13.76-3.23-28.03-5.12-42.02-1.04-7.69-2.14-15.37-3.61-22.94l-.57-2.83-.65-2.8c-.21-.94-.44-1.86-.71-2.77-.28-.9-.48-1.85-.82-2.7l-.48-1.3-.24-.65c-.08-.22-.16-.3-.22-.47-.33-.57-.88-1.1-1.56-1.55-1.37-.91-3.11-1.52-4.89-1.97-4.44-1.08-9.19-1.37-13.9-1.43-4.73-.04-9.47.2-14.2.63-7.16.66-14.32,1.71-21.36,3.2-3.52.76-7.01,1.62-10.4,2.7-1.7.54-3.37,1.13-4.98,1.82-1.6.69-3.19,1.46-4.46,2.44-.49.37-.92.8-1.14,1.19-.12.24-.25.5-.36.77-.09.3-.21.58-.29.89-.35,1.22-.53,2.57-.67,3.9-.27,2.68-.32,5.42-.28,8.14.1,5.46.5,10.92.99,16.4.22,2.41.5,4.76.76,7.19.96,9,1.14,11.85.67,13.91-.11.47-.17,1.08-.3,1.38-.42,1.02-1.88-2.58-3.09-9.18-.91-4.9-1.53-9.91-2.07-14.99-.53-5.08-.87-10.24-.89-15.5,0-2.63.07-5.29.36-8.03.17-1.38.35-2.75.77-4.24.22-.75.48-1.52.92-2.36.21-.41.6-.96.9-1.29.33-.4.65-.66.98-.96,1.3-1.07,2.58-1.78,3.86-2.42,1.28-.63,2.56-1.16,3.84-1.64,2.56-.97,5.14-1.75,7.72-2.45,7.68-2.06,15.47-3.42,23.31-4.37,7.85-.92,15.76-1.45,23.78-1.09v.1Z"/><path class="cls-2" d="m280.45,271.3c-1.25-1.87-2.44-3.81-3.51-5.84-1.09-2.01-2.02-4.16-2.72-6.41-.37-1.12-.62-2.29-.84-3.47l-.22-1.8c-.04-.59-.07-1.18-.08-1.77-.01-1.19.05-2.38.24-3.61.1-.61.23-1.23.43-1.87.1-.32.22-.64.37-.97l.25-.5c.11-.19.22-.37.35-.56.79-1.17,2.17-1.92,3.57-1.74.35.02.69.12,1.02.22l.49.19c.14.07.26.13.38.2.5.27.89.56,1.27.87.74.6,1.36,1.28,1.91,1.9l1.58,1.84c7.3,8.67,14.43,17.46,21.79,26.03,1.65,1.91,3.28,3.74,5.05,5.53,1.75,1.81,3.54,3.6,5.2,5.52,4.31,4.86,7.95,10.73,9.39,17.08.24,2.06.06,1.81-1.16.46-.62-.67-1.37-1.66-2.25-2.82-.85-1.18-1.69-2.59-2.57-4.12-3.01-5.47-7.51-9.88-12.01-14.66-2.32-2.48-4.42-4.97-6.55-7.5-2.12-2.52-4.2-5.07-6.27-7.65-2.48-3.07-5.06-6.16-7.69-9.23-1.31-1.54-2.63-3.08-3.95-4.61l-1.97-2.3c-.65-.75-1.33-1.57-1.93-2.19-.34-.36-.7-.66-1.04-.93-.17-.12-.34-.24-.49-.31-.14-.08-.19-.09-.29-.12-.18-.05-.39-.02-.55.08-.17.13-.24.21-.44.59-.35.73-.56,1.73-.68,2.72-.11,1.01-.14,2.05-.1,3.1.11,2.08.49,4.1,1.19,6.11.7,2,1.62,3.94,2.65,5.84,2.61,4.66,5.83,9.04,9.17,13.33,5.06,6.5,10.36,12.94,15.15,19.67,3.71,5.24,7.26,10.51,9.95,16.38.62,1.28,1.14,2.57,1.67,3.91,1.77,5.04,1.72,6.85,1.05,8.11-.15.29-.28.65-.44.83-.28.3-.65-.05-1.12-.89-.25-.42-.46-.98-.7-1.64-.27-.66-.55-1.43-.84-2.31-3.61-10.35-10.21-20.05-17.46-29.38-2.69-3.47-5.48-6.92-8.24-10.42-2.76-3.51-5.53-7.05-8.07-10.82l.06-.06Z"/><path class="cls-2" d="m296.21,346.61c-6.18-6.99-12.07-14.24-17.28-22.06-1.89-2.85-3.77-5.74-5.32-8.85-1.36-2.74-2.59-5.59-3.28-8.72-.33-1.57-.49-3.24-.39-4.88.07-.83.19-1.67.45-2.53.28-.85.66-1.76,1.45-2.57.38-.4.91-.76,1.49-.95.58-.22,1.19-.25,1.73-.2,1.13.09,1.92.58,2.7,1l1.04.73.89.75c.58.51,1.21.98,1.74,1.53,2.25,2.11,4.19,4.43,6.12,6.72,3.37,4.1,6.63,8.28,10.26,11.93,2.32,2.35,4.88,4.42,7.62,6.11.71.38,1.35.88,2.08,1.21l2.16,1.05c.75.27,1.5.55,2.25.86.73.38,1.55.42,2.31.75.96.42,1.39.68,1.34.82-.05.15-.56.23-1.51.45-.48.15-1.05.19-1.73.27-.67.05-1.41-.02-2.24-.07-.42-.01-.84-.1-1.29-.16-.44-.09-.87-.24-1.33-.38-.89-.31-1.89-.58-2.78-1.13-3.29-1.73-6.09-4.12-8.63-6.61-2.54-2.51-4.84-5.18-7.01-7.87-2.19-2.68-4.3-5.37-6.51-7.92l-1.68-1.87-1.75-1.76c-1.19-1.08-2.5-2.33-3.57-2.9-.16-.09-.31-.12-.46-.2-.15-.06-.25-.05-.38-.1-.19.02-.32-.04-.45.06-.3.09-.72.81-.94,1.61-.23.82-.32,1.77-.32,2.71-.01.48.07.94.11,1.41.06.47.18.95.26,1.43.44,1.92,1.19,3.84,2.05,5.71.85,1.88,1.84,3.71,2.89,5.51,4.63,7.91,10.34,15.29,16.33,22.37,3.7,4.35,7.55,8.59,11.54,12.67,3.03,3.07,6.12,6.16,9.39,8.92,3.27,2.75,6.85,5.12,10.69,6.88,5.99,2.71,12.45,3.83,18.93,3.82,1.43.03,2.83-.08,4.27-.12,2.67-.13,4.43-.31,5.69-.25.63.03,1.13.08,1.56.17.43.11.78.26,1.09.4.29.13.66.23.83.33.29.18-.1.42-1.05.89-.94.5-2.48.9-4.5,1.16-5.97.81-12.34.88-18.68-.42-3.15-.68-6.27-1.68-9.27-3.01-3-1.33-5.81-3.04-8.48-4.93-1.97-1.41-3.85-2.99-5.61-4.58-1.76-1.6-3.46-3.24-5.14-4.9-3.35-3.32-6.59-6.75-9.75-10.25l.05-.06Z"/><path class="cls-2" d="m384.31,391.39c5.73-.71,11.61-.64,17.32.84.52.11,1.04.28,1.56.45l1.56.51c1.03.46,2.13.89,2.97,1.51,3.16,2.03,6.02,4.36,8.58,7.03,2.56,2.66,4.79,5.58,6.76,8.65,1.75,2.72,3.35,5.53,4.77,8.38.92,1.83,1.81,3.67,2.61,5.55.78,1.89,1.44,3.82,2.05,5.76.37,1.21,0,1.18-.79.35-.78-.84-2.09-2.41-3.22-4.44-1.83-3.67-3.76-7.25-5.85-10.7-2.06-3.47-4.32-6.8-6.97-9.85-.8-.9-1.62-1.81-2.54-2.62-.87-.87-1.84-1.63-2.8-2.41-.98-.75-2-1.47-3.03-2.15-1.04-.62-2.08-1.38-3.12-1.76-2.34-1.01-5.02-1.6-7.69-1.94-2.69-.26-5.43-.38-8.15-.16-3.37.17-6.7.81-9.99,1.59-4.98,1.25-9.82,3.2-14.29,5.67-.87.49-1.72.98-2.57,1.48-.81.56-1.62,1.13-2.42,1.69-.79.58-1.62,1.1-2.37,1.73l-2.28,1.86c-.67.55-1.32,1.08-1.99,1.64-2.46,2.08-3.41,2.55-4.51,2.39-.25-.04-.54-.04-.74-.12-.67-.26-.02-1.54,1.67-3.34.63-.66,1.25-1.34,1.91-2,.69-.62,1.41-1.21,2.12-1.81.73-.59,1.46-1.19,2.19-1.79.77-.56,1.56-1.09,2.34-1.63.79-.53,1.59-1.07,2.39-1.61.84-.48,1.68-.95,2.52-1.43.85-.46,1.68-.98,2.56-1.38l2.65-1.23c5.3-2.35,10.96-4.01,16.75-4.79l.02.08Z"/><path class="cls-2" d="m232.37,170.47c-1.46.02-2.88-.26-4.21-.82-1.33-.56-2.57-1.47-3.45-2.66-.31-.44-.63-.87-.85-1.36-.27-.47-.41-.97-.55-1.48-.2-.89-.28-1.78-.24-2.7.08-.9.25-1.77.55-2.59.59-1.64,1.55-3.11,2.77-4.3,1.08-1.05,2.35-1.94,3.75-2.48,1.75-.69,3.84-1.16,5.58-.15.54.24.45.25-.05.46-.25.11-.6.31-.98.58-.38.25-.8.43-1.24.54-1.57.26-2.97.91-4.23,1.77-1.28.85-2.34,2.06-3.11,3.47-.45.84-.71,1.81-.74,2.77-.03.94.22,1.94.54,2.8.72,1.93,2.72,3.15,4.9,3.43,1.32.17,2.79.09,3.78-.54.45-.24.76-.55,1.02-.87.23-.32.32-.67.3-1.07-.03-.4-.17-.85-.43-1.28-.05-.11-.13-.21-.2-.32-.08-.12-.21-.33-.35-.48-.27-.32-.55-.64-.88-.96l-.13-.13c-.44-.49-.78-.95-.9-1.28l-.22-.45s-.08-.07,0-.1c0-.06.03-.09.06-.13.07-.06.13-.12.2-.18.27-.23.65-.47,1.2-.63.55-.16,1.2-.27,1.86-.38.57-.09,1.32-.2,1.62-.23.74-.08,1.26-.03,1.62.15.36.16.57.44.7.82.06.16.14.33.16.47.04.42-.48.99-1.45,1.27l-.82.17-.4.09-.07.06c-.08.08-.11.14-.11.19-.03.09.16.16.2.17,0,0,.02,0,.02,0,0,0,0-.01,0,0l.05.08.11.17c.07.11.14.24.2.36.14.24.26.5.37.8.32.81.51,1.88.23,2.97-.14.55-.39,1.02-.68,1.46-.31.38-.63.76-.98,1.01-.34.3-.68.49-1.03.7-.32.2-.82.41-1.19.52-.8.25-1.55.32-2.29.36v-.07Z"/><path class="cls-2" d="m251.01,165.67c-1.11,1.6-2.84,2.21-4.44,2.22-.59,0-1.2-.04-1.78-.26-2.04-.78-3.24-2.9-2.93-4.89.12-.85.51-1.72,1.15-2.33.43-.35.91-.62,1.43-.75.51-.16,1.07-.07,1.56.07.3.11.23.21-.02.38-.26.15-.62.57-.93.84-.3.21-.55.47-.7.73-.17.25-.32.42-.41.69-.2.54-.19,1.13.02,1.78.27.79,1.09,1.3,1.88,1.43.9.18,2-.08,2.69-.7.43-.37.69-.89.74-1.48.09-.88-.34-1.86-1.16-2.2-.64-.28-1.41-.11-1.98.11-.13.05-.24.14-.36.19-.23.05-.4.06-.59-.02-.23-.13-.43-.25-.66-.42l-.32-.2c-.16-.12-.23-.28-.24-.55-.01-.26.03-.7.32-.96.38-.47.92-.76,1.49-.94.56-.17,1.18-.3,1.8-.21,1.21.13,2.55.85,3.32,1.99,1.19,1.63,1.24,3.84.19,5.5l-.05-.03Z"/><path class="cls-2" d="m259.98,164.27c-1.11,1.6-2.84,2.21-4.44,2.22-.59,0-1.2-.04-1.78-.26-2.04-.78-3.24-2.9-2.93-4.89.12-.85.5-1.72,1.15-2.33.43-.35.91-.62,1.43-.75.51-.16,1.07-.07,1.56.07.3.11.23.21-.02.38-.26.15-.62.57-.93.84-.3.21-.55.47-.7.73-.17.25-.32.42-.41.69-.2.54-.19,1.13.02,1.78.27.79,1.09,1.3,1.88,1.43.9.18,2-.08,2.69-.7.43-.37.69-.89.74-1.48.09-.88-.34-1.86-1.16-2.2-.64-.28-1.41-.11-1.98.11-.13.05-.24.14-.36.19-.23.05-.4.06-.59-.02-.23-.13-.43-.25-.66-.42l-.32-.2c-.16-.12-.23-.28-.24-.55-.01-.26.03-.7.32-.96.38-.47.92-.76,1.49-.94.56-.17,1.18-.3,1.8-.21,1.21.13,2.55.85,3.32,1.99,1.19,1.63,1.24,3.84.19,5.5l-.05-.03Z"/><path class="cls-2" d="m264.42,158.59c-.36.31-.61,1.12-.5,1.67.02.07.03.11.05.19.03.09.06.19.1.28.08.19.17.38.28.55.21.35.47.64.7.81.12.09.22.14.31.17.05.02.08.02.14.04h.33c.45.06.88,0,1.31-.08.86-.18,1.69-.61,2.45-1.23,1.11-.92,1.99-2.2,2.82-3.55.38-.6.71-1.22,1.17-1.91.39-.59.75-1.19,1.08-1.8.65-1.22,1.2-2.51,1.35-3.73.07-.6.02-1.16-.17-1.6-.09-.23-.23-.41-.4-.6-.1-.08-.2-.16-.29-.25-.1-.05-.19-.13-.28-.16-.36-.17-.78-.11-1.24.15-.45.26-.85.73-1.11,1.23-.2.4-.33,1.04-.4,1.61-.06.57-.04,1.13.09,1.68.25,1.1.89,2.25,1.43,3.46.68,1.5,1.46,2.93,2.28,4.32.21.34.42.69.65,1.02.2.35.41.69.64,1.02.22.33.46.65.71.94.25.29.43.69.75.92.77.51.7.65-.26.48-.98-.11-2.89-.88-4.18-2.52-1.11-1.46-2.03-3-2.75-4.66l-1.06-2.35c-.36-.83-.73-1.84-.84-2.95-.11-1.1.05-2.16.3-3.12.34-1.23,1.03-2.19,2.01-2.94.49-.37,1.09-.67,1.78-.81.69-.14,1.47-.06,2.12.22.66.29,1.11.68,1.53,1.13.42.47.74,1.04.91,1.61.41,1.4.22,2.69-.06,3.82-.3,1.14-.74,2.19-1.23,3.2-.24.51-.51,1-.78,1.48l-.42.71-.36.65c-.51.93-1.08,1.91-1.75,2.81-.74,1-1.6,1.96-2.65,2.76-1.04.8-2.31,1.41-3.67,1.63-.34.04-.68.09-1.02.1l-1.02-.04c-.85-.07-1.64-.5-2.18-1-.56-.5-.97-1.08-1.28-1.69-.16-.31-.3-.62-.41-.95-.12-.37-.19-.76-.2-1.14-.03-.93.18-1.82.66-2.61.45-.79,1.25-1.48,2.22-1.74.98-.22,1.92-.06,2.76.4.84.47,1.4,1.24,1.74,2.02.53,1.18.55,2.61.17,3.78-.36,1.17-.93,2.15-1.39,3.08-.92,1.84-1.57,3.87-1.04,5.62.38,1.32,1.61,2.37,2.78,2.34.58,0,1.2-.25,1.59-.61.4-.41.45-.67.38-1.29-.07-.48-.31-.94-.66-1.42-.66-.89-1.33-1.46-1.69-1.96-.39-.48-.52-.91-.52-1.37,0-.21-.04-.44,0-.59.07-.26.36-.29.88-.16.52.13,1.22.5,2.07,1.19.62.52,1.24,1.12,1.76,1.92.52.78.9,1.86.85,2.98,0,.25-.05.62-.15.94-.1.33-.24.63-.42.91-.35.55-.8.97-1.28,1.29-.97.64-2.08.95-3.3.85-1.21-.12-2.26-.66-3.09-1.4-.83-.75-1.42-1.67-1.77-2.71-.69-2.07-.33-4.14.24-5.81.41-1.24,1.02-2.44,1.52-3.37.5-.95.78-1.72.74-2.33-.02-.7-.37-1.39-.71-1.61-.08-.07-.18-.1-.29-.15-.14-.02-.26-.03-.35-.03-.19.02-.31.08-.47.24l-.05-.05Z"/><path class="cls-2" d="m285.24,155.49c-.52-.29-1.1-.41-1.61-.37-.45.03-1.1.35-1.57.72-.33.29-.54.66-.72,1.03-.3.66-.36,1.49-.05,2.23.29.75.9,1.4,1.71,1.73.71.34,1.61.41,2.45.32.55-.06,1.11-.19,1.68-.32.29-.06.59-.08.89-.11l.46-.04c.16,0,.33.04.49.06.42.08.39.18.17.58-.21.45-.62,1.13-1.29,1.48-1.21.45-2.66.78-4.2.6-1.5-.11-3.2-1.12-3.97-2.55-.48-.85-.8-1.79-.85-2.77-.05-.98.19-2,.72-2.83.58-.91,1.43-1.59,2.33-1.99.94-.5,2.1-.56,3.07-.35.31.07.6.16.88.27.28.12.54.23.9.46.67.4,1.23.91,1.64,1.45.3.41.58.84.7,1.26.09.22.1.42.11.62,0,.23-.2.35-.35.44-.63.41-1.81.55-2.89.7-.49.07-.7.11-1.02.17l-.89.17-1.75.37c-.26.05-.5.13-.76.17-.48.09-.79.08-1.03-.03-.12-.05-.22-.12-.31-.22-.09-.12-.17-.26-.25-.39-.07-.12-.15-.23-.2-.32-.15-.23.14-1.02.87-1.27,1.06-.38,2.16-.62,3.26-.82l.83-.14.41-.05c.05,0,.17-.02.17-.02h0s0-.02,0-.02c0,0,.03.01.05,0,0,0,.01-.02.01-.03,0,0,0-.02,0-.02-.03-.02.05.01-.12-.07l.02-.06Z"/><path class="cls-2" d="m234.48,187.57s-.06.11-.07.24c-.03.13-.06.25-.08.4-.03.31-.09.6-.1.94-.05.65-.03,1.35,0,2.05.08,1.39.29,2.81.63,4.14.17.65.37,1.32.62,1.85.06.15.12.25.19.37.02.05.03.08.06.11.03.07.1.11.18.12h.06s.13.03.2.03l.5.03c.34.02.7.02,1.06.02.72,0,1.46,0,2.2-.03,2.17-.07,4.35-.3,6.53-.45,7.71-.56,15.45-1.33,23.15-2.28,3.41-.43,6.84-.97,10.17-1.61,1.07-.21,2.14-.44,3.17-.69.25-.06.51-.13.73-.2.13-.04.16-.05.22-.08.05-.02.1-.06.14-.1.08-.07.14-.2.16-.27.06-.17.13-.37.17-.6.19-.91.15-1.97.15-3.02,0-.53-.02-1.06-.05-1.59-.02-.54-.01-1.08,0-1.63.1-1.39.02-1.23.78-.2.36.52.93,1.28,1.3,2.28.42,1,.75,2.23.66,3.71-.04.67-.1,1.32-.45,2.21-.11.3-.24.54-.43.75l-.25.33c-.1.1-.21.18-.31.28-.2.19-.44.34-.7.44-.13.05-.26.12-.37.15l-.25.09c-1.23.39-2.32.61-3.45.83-2.24.43-4.47.79-6.71,1.12-4.47.66-8.96,1.18-13.49,1.57-5.41.46-11.01,1.25-16.57,1.67-1.53.11-3.06.21-4.61.26-.78.03-1.55.04-2.35.03-.4-.01-.8-.02-1.22-.06l-.32-.03c-.15-.01-.3-.03-.45-.07-.3-.06-.6-.11-.87-.26-.14-.06-.26-.16-.37-.25l-.3-.34c-.21-.22-.4-.45-.54-.72-.27-.43-.41-.81-.59-1.22-.29-.79-.52-1.58-.69-2.37-.34-1.58-.53-3.15-.57-4.75-.02-.81,0-1.63.1-2.48.04-.42.13-.85.25-1.3.05-.21.17-.46.28-.76.13-.26.32-.48.48-.73.31-.27.68-.45,1.07-.61.43-.13.65-.19.96-.25.58-.13,1.14-.21,1.7-.29,1.12-.16,2.22-.28,3.33-.38,5.69-.52,11.38-.87,17-1.3,4.37-.34,8.64-.84,12.93-1.32.94-.11,1.87-.22,2.82-.34.44-.04.85-.08,1.22-.12.37,0,.71-.01,1.02-.02.62,0,1.12.01,1.54.07.84.14,1.33.34,1.75.59.19.11.43.21.54.3.19.16-.07.35-.69.67-.62.31-1.61.71-2.9.96-.96.24-1.93.35-2.9.48-.98.12-1.96.24-2.95.36-1.98.22-3.97.41-5.99.58-4.02.34-8.1.61-12.18.89-2.92.21-5.84.37-8.74.66-1.45.15-2.89.32-4.3.52-.7.1-1.41.21-2.06.35-.32.07-.66.14-.91.22-.14.03-.06.02-.12.03,0,0-.02.03,0,.02l-.07-.03Z"/><path class="cls-2" d="m235.35,225.28c.07,1.05.22,2.13.42,3.12.04.22.14.57.12.56,0,.05.01.11.03.17.01.07.08.07.14.09.08.01.04.02.38.03.76,0,1.55-.1,2.34-.13,2.79-.14,5.66-.34,8.37-.85l.42-.09.31-.08c.13-.05.3-.09.37-.21.06-.15.04-.31.04-.48-.01-.19-.04-.58-.08-.87-.18-1.55-.6-3.1-.34-4.77.1-.53.13-.48.54-.14.43.34,1.28.98,1.6,1.9.2.78.43,1.56.52,2.38.05.41.09.83.11,1.27.03.67-.01,1.5-.37,2.11-.28.29-.54.58-.93.74l-.58.23c-.09.04-.21.07-.3.09l-.18.05c-.47.12-.93.21-1.38.29-.9.15-1.79.25-2.68.31-2.03.13-4.08.51-6.16.64-.57.03-1.15.06-1.74.06-.34,0-.88-.03-1.28-.11l-.3-.1c-.09-.06-.18-.1-.26-.17-.13,0-.15-.14-.24-.2-.07-.08-.14-.16-.18-.26-.21-.37-.36-.81-.47-1.24-.08-.35-.13-.61-.18-.91-.09-.58-.17-1.16-.22-1.73-.06-.62-.1-1.23-.14-1.85-.02-.31-.03-.62-.03-.93,0-.13,0-.39,0-.61,0-.23.03-.44.06-.65.06-.23.18-.45.37-.62.28-.23.64-.38,1.01-.49.4-.13.58-.16.88-.23.53-.12,1.06-.21,1.58-.3,1.05-.17,2.1-.3,3.13-.43,1.61-.2,3.19-.47,4.82-.61.36-.03.71-.07,1.07-.08,1.35-.02,1.8.18,2.03.82.05.14.12.28.14.41.07.43-.48.8-1.39.89-2.73.33-5.66.65-8.54,1.09-.72.12-1.44.24-2.13.39-.94.24-.63.14-.72.17v.02s-.01-.02-.01.06v.24c.02.33.04.67.07,1.01h-.06Z"/><path class="cls-2" d="m236.72,240.23c.07,1.05.22,2.13.42,3.12.04.22.14.57.12.56,0,.05.01.11.03.17.01.07.08.07.14.09.08.01.04.02.38.03.76,0,1.55-.1,2.34-.13,2.79-.14,5.66-.34,8.37-.85l.44-.1.31-.09c.14-.05.32-.09.37-.24.04-.15.03-.3.02-.47-.01-.21-.04-.56-.08-.85-.18-1.55-.6-3.1-.34-4.77.1-.53.13-.48.54-.14.43.34,1.28.98,1.6,1.9.2.83.46,1.65.54,2.52l.07.66.02.35v.17s0,.29,0,.29c.03.78-.11,1.62-.7,2.11-.24.28-.64.42-1,.57-.16.07-.42.15-.53.18l-.34.09c-.45.11-.87.19-1.3.26-.85.14-1.7.23-2.55.29-2.03.13-4.08.51-6.16.64-.57.03-1.15.06-1.74.06-.34,0-.88-.03-1.28-.11l-.3-.1c-.09-.06-.18-.1-.26-.17-.13,0-.15-.14-.24-.2-.07-.08-.14-.16-.18-.26-.21-.37-.35-.81-.47-1.24-.08-.35-.13-.61-.18-.91-.09-.58-.17-1.16-.22-1.73-.06-.71-.12-1.41-.15-2.12l-.02-.54v-.27c0-.12,0-.25,0-.38,0-.52.05-1.02.43-1.35.28-.23.64-.38,1.01-.49.4-.13.58-.16.88-.23.53-.12,1.06-.21,1.58-.3,1.05-.17,2.1-.3,3.13-.43,1.61-.2,3.19-.47,4.82-.61.36-.03.71-.07,1.07-.08,1.35-.02,1.8.18,2.03.82.05.14.12.28.14.41.07.43-.48.8-1.39.89-2.73.33-5.66.65-8.54,1.09-.53.09-1.06.18-1.58.28l-.76.16c-.23.05-.56.15-.47.12-.02,0-.04,0-.05.02,0-.09,0,.28.01.52l.05.79h-.06Z"/><path class="cls-2" d="m238.5,256.36c.04.78.15,1.56.27,2.33.06.38.13.75.22,1.11.06.23.05.23.06.27,0,.04.02.08.02.13.02.07.08.09.14.1.09.01.03.02.39.03.76,0,1.55-.1,2.34-.13,2.79-.14,5.66-.34,8.37-.85l.44-.1.31-.09c.14-.05.32-.09.37-.24.04-.15.03-.3.02-.47-.01-.21-.04-.56-.08-.85-.18-1.55-.6-3.1-.34-4.77.1-.53.13-.48.54-.14.43.34,1.28.98,1.6,1.9.2.83.46,1.65.54,2.52l.07.66.02.35v.17s0,.29,0,.29c.03.78-.11,1.62-.7,2.11-.24.28-.64.42-1,.57-.16.07-.42.15-.53.18l-.34.09c-.45.11-.88.19-1.3.26-.85.14-1.7.23-2.55.29-2.03.13-4.08.51-6.16.64-.55.03-1.11.06-1.68.06-.11,0-.35,0-.57-.02-.22-.01-.44-.03-.64-.07-.21-.04-.41-.09-.57-.21-.04-.02-.08-.06-.13-.09l-.03-.02c-.05.06-.03,0-.05,0l-.05-.06-.2-.23c-.23-.38-.39-.82-.52-1.26-.1-.44-.15-.65-.2-.98-.1-.6-.18-1.2-.23-1.79-.06-.62-.1-1.23-.14-1.85-.02-.31-.03-.62-.03-.93,0-.13,0-.39,0-.61,0-.23.03-.44.06-.65.06-.23.18-.45.37-.62.28-.23.64-.38,1.01-.49.4-.13.58-.16.88-.23.53-.12,1.06-.21,1.58-.3,1.05-.17,2.1-.3,3.13-.43,1.61-.2,3.19-.47,4.82-.61.36-.03.71-.07,1.07-.08,1.35-.02,1.8.18,2.03.82.05.14.12.28.14.41.07.43-.48.8-1.39.89-2.73.33-5.66.65-8.54,1.09-.72.12-1.44.24-2.13.39-.94.24-.63.14-.72.17v.02s-.01-.02-.01.06v.24c.02.33.04.67.07,1.01h-.06Z"/><path class="cls-2" d="m262.02,274.05s-.02,0-.03.12c.01.25.03.51.06.77.06.52.14,1.04.26,1.52.17.62.12.55.19.69.03.07.1.06.16.07.06,0,0,0,.16,0h.41c.81,0,1.63-.11,2.46-.14,2.93-.12,5.88-.28,8.8-.58.65-.07,1.29-.16,1.92-.29.29-.06.68-.14.87-.19.14-.05.3-.08.4-.19.09-.18.03-.39.01-.56-.03-.33-.09-.76-.15-1.14l-.09-.6-.03-.62-.04-.62c0-.21.03-.43.04-.65.05-.54.08-.51.52-.18.46.32,1.36.95,1.72,1.93.13.44.24.89.33,1.37l.07.43c.04.21.02.43.03.64,0,.21-.04.42-.05.62-.06.19-.1.39-.2.56-.32.75-1.12,1.08-1.95,1.27-.22.07-.26.06-.4.1l-.34.07-.66.12c-1.75.28-3.47.43-5.22.5-2.08.06-4.21.41-6.35.53-.59.03-1.18.06-1.78.07h-.51c-.23-.01-.47-.02-.7-.05-.45-.06-.86-.25-1.12-.63-.29-.34-.45-.79-.61-1.22-.11-.38-.17-.65-.23-.97-.12-.62-.19-1.23-.23-1.84l-.02-.46v-.55c0-.44.02-.88.16-1.26.29-.54.92-.72,1.54-.87l.4-.08.33-.06.64-.11c2.18-.33,4.35-.5,6.5-.72,1.67-.17,3.3-.44,4.96-.6.37-.04.73-.09,1.1-.11,1.38-.05,1.84.11,2.11.73.06.14.15.27.18.4.11.42-.45.83-1.41.96-2.87.43-5.93.74-8.98,1.08-1.1.13-2.19.26-3.27.41-.54.08-1.07.16-1.58.26-.13.02-.29.06-.24.04h-.02s-.03,0-.04.01h0s-.06-.02-.06-.02Z"/><path class="cls-2" d="m258.93,238.46c.04.78.15,1.56.27,2.33.06.38.13.75.22,1.11.06.23.05.23.06.27,0,.04.02.08.02.13.02.07.08.09.14.1.09.01.03.02.39.03.76,0,1.55-.1,2.34-.13,2.79-.14,5.66-.34,8.37-.85l.44-.1.31-.09c.14-.05.32-.09.37-.24.04-.15.03-.3.02-.47-.01-.21-.04-.56-.08-.85-.18-1.55-.6-3.1-.34-4.77.1-.53.13-.48.54-.14.43.34,1.28.98,1.6,1.9.2.83.46,1.65.54,2.52l.07.66.02.35v.17s0,.29,0,.29c.03.78-.11,1.62-.7,2.11-.24.28-.64.42-1,.57-.16.07-.42.15-.53.18l-.34.09c-.45.11-.87.19-1.3.26-.85.14-1.7.23-2.55.29-2.03.13-4.08.51-6.16.64-.55.03-1.11.06-1.68.06-.11,0-.35,0-.57-.02-.22-.01-.44-.03-.64-.07-.21-.04-.41-.09-.57-.21-.04-.02-.08-.06-.13-.09l-.03-.02c-.06.06-.03,0-.05,0l-.05-.06-.2-.23c-.23-.38-.39-.82-.52-1.26-.1-.44-.15-.65-.2-.98-.1-.6-.18-1.2-.23-1.79-.06-.71-.12-1.41-.15-2.12l-.02-.54v-.27c0-.12,0-.25,0-.38,0-.52.05-1.02.43-1.35.28-.23.64-.38,1.01-.49.4-.13.58-.16.88-.23.53-.12,1.06-.21,1.58-.3,1.05-.17,2.1-.3,3.13-.43,1.61-.2,3.19-.47,4.82-.61.36-.03.71-.07,1.07-.08,1.35-.02,1.8.18,2.03.82.05.14.12.28.14.41.07.43-.48.8-1.39.89-2.73.33-5.66.65-8.54,1.09-.53.09-1.06.18-1.58.28l-.76.16c-.23.05-.56.15-.47.12-.02,0-.04,0-.05.02,0-.09,0,.28.01.52l.05.79h-.06Z"/><path class="cls-2" d="m281.89,236.27c.07,1.05.22,2.13.42,3.12.04.22.14.57.12.56,0,.05.01.11.04.17.01.07.08.07.14.09.08.01.04.02.38.03.76,0,1.55-.1,2.34-.13,2.79-.14,5.66-.34,8.37-.85l.44-.1.31-.09c.13-.05.32-.09.37-.24.04-.15.03-.3.02-.47-.01-.21-.04-.56-.08-.85-.18-1.55-.6-3.1-.34-4.77.1-.53.13-.48.54-.14.43.34,1.28.98,1.59,1.9.2.83.46,1.65.54,2.52l.07.66.02.35v.17s0,.29,0,.29c.03.78-.11,1.62-.7,2.11-.24.28-.64.42-1,.57-.16.07-.42.15-.53.18l-.34.09c-.45.11-.87.19-1.3.26-.85.14-1.7.23-2.55.29-2.03.13-4.08.51-6.16.64-.57.03-1.15.06-1.74.06-.34,0-.88-.03-1.28-.11l-.3-.1c-.09-.06-.18-.1-.26-.17-.13,0-.15-.14-.24-.2-.07-.08-.14-.16-.18-.26-.21-.37-.36-.81-.47-1.24-.08-.35-.13-.61-.18-.91-.09-.58-.17-1.16-.22-1.73-.06-.62-.1-1.23-.14-1.85-.02-.31-.03-.62-.03-.93,0-.13,0-.39,0-.61,0-.23.03-.44.06-.65.06-.23.18-.45.37-.62.28-.23.64-.38,1.01-.49.4-.13.58-.16.88-.23.53-.12,1.06-.21,1.58-.3,1.05-.17,2.09-.3,3.13-.43,1.61-.2,3.19-.47,4.82-.61.36-.03.71-.07,1.07-.08,1.35-.02,1.8.18,2.03.82.05.14.12.28.14.41.07.43-.48.8-1.39.89-2.73.33-5.66.65-8.54,1.09-.72.12-1.44.24-2.13.39-.94.24-.63.14-.72.17v.02s-.01-.02-.01.06v.24c.02.33.04.67.07,1.01h-.06Z"/><path class="cls-2" d="m257.58,223.29c.07,1.05.22,2.13.42,3.12.04.22.14.57.12.56,0,.05.01.11.03.17.01.07.08.07.14.09.08.01.04.02.38.03.76,0,1.55-.1,2.34-.13,2.79-.14,5.66-.34,8.37-.85l.44-.1.31-.09c.14-.05.32-.09.37-.24.04-.15.03-.3.02-.47-.01-.21-.04-.56-.08-.85-.18-1.55-.6-3.1-.34-4.77.1-.53.13-.48.54-.14.43.34,1.28.98,1.6,1.9.2.83.46,1.65.54,2.52l.07.66.02.35v.17s0,.29,0,.29c.03.78-.11,1.62-.7,2.11-.24.28-.64.42-1,.57-.16.07-.42.15-.53.18l-.34.09c-.45.11-.87.19-1.3.26-.85.14-1.7.23-2.55.29-2.03.13-4.08.51-6.16.64-.57.03-1.15.06-1.74.06-.34,0-.88-.03-1.28-.11l-.3-.1c-.09-.06-.18-.1-.26-.17-.13,0-.15-.14-.24-.2-.07-.08-.14-.16-.18-.26-.21-.37-.36-.81-.47-1.24-.08-.35-.13-.61-.18-.91-.09-.58-.17-1.16-.22-1.73-.06-.71-.12-1.41-.15-2.12l-.02-.54v-.27c0-.12,0-.25,0-.38,0-.52.05-1.02.43-1.35.28-.23.64-.38,1.01-.49.4-.13.58-.16.88-.23.53-.12,1.06-.21,1.58-.3,1.05-.17,2.1-.3,3.13-.43,1.61-.2,3.19-.47,4.82-.61.36-.03.71-.07,1.07-.08,1.35-.02,1.8.18,2.03.82.05.14.12.28.14.41.07.43-.48.8-1.39.89-2.73.33-5.66.65-8.54,1.09-.53.09-1.06.18-1.58.28l-.76.16c-.23.05-.56.15-.47.12-.02,0-.04,0-.05.02,0-.09,0,.28.01.52l.05.79h-.06Z"/><path class="cls-2" d="m280.3,221.43c.04.78.15,1.56.27,2.33.06.38.13.75.22,1.11.06.23.05.23.06.27,0,.04.02.08.02.13.02.07.08.09.14.1.09.01.03.02.39.03.76,0,1.55-.1,2.34-.13,2.79-.14,5.66-.34,8.37-.85l.44-.1.31-.09c.14-.05.32-.09.37-.24.04-.15.03-.3.02-.47-.01-.21-.04-.56-.08-.85-.18-1.55-.6-3.1-.34-4.77.1-.53.13-.48.54-.14.43.34,1.28.98,1.6,1.9.2.83.46,1.65.54,2.52l.07.66.02.35v.17s0,.29,0,.29c.03.78-.11,1.62-.7,2.11-.24.28-.64.42-1,.57-.16.07-.42.15-.53.18l-.34.09c-.45.11-.87.19-1.3.26-.85.14-1.7.23-2.55.29-2.03.13-4.08.51-6.16.64-.55.03-1.11.06-1.68.06-.11,0-.35,0-.57-.02-.22-.01-.44-.03-.64-.07-.21-.04-.41-.09-.57-.21-.04-.02-.08-.06-.13-.09l-.03-.02c-.06.06-.03,0-.05,0l-.05-.06-.2-.23c-.23-.38-.39-.82-.52-1.26-.1-.44-.15-.65-.2-.98-.1-.6-.18-1.2-.23-1.79-.06-.71-.12-1.41-.15-2.12l-.02-.54v-.27c0-.12,0-.25,0-.38,0-.52.05-1.02.43-1.35.28-.23.64-.38,1.01-.49.4-.13.58-.16.88-.23.53-.12,1.06-.21,1.58-.3,1.05-.17,2.1-.3,3.13-.43,1.61-.2,3.19-.47,4.82-.61.36-.03.71-.07,1.07-.08,1.35-.02,1.8.18,2.03.82.05.14.12.28.14.41.07.43-.48.8-1.39.89-2.73.33-5.66.65-8.54,1.09-.53.09-1.06.18-1.58.28l-.76.16c-.23.05-.56.15-.47.12-.02,0-.04,0-.05.02,0-.09,0,.28.01.52l.05.79h-.06Z"/><path class="cls-2" d="m214.78,131.65c.05-.86.1-1.72.22-2.6.05-.44.13-.89.23-1.36.04-.22.14-.5.21-.75.05-.23.27-.61.42-.88.54-.67,1.1-1.2,1.69-1.53,1.04-.62,2.09-1.04,3.14-1.39,1.05-.37,2.11-.66,3.18-.9.94-.24,1.88-.49,2.81-.73.6-.14,1.19-.34,1.82-.4.31-.03.63-.06.94-.06.32-.01.65.12.98.21.41.15.33.28.04.61-.15.17-.34.41-.57.72-.23.25-.5.43-.82.55-.56.22-1.13.36-1.71.5l-1.74.45c-1.16.29-2.32.62-3.5.89-1.39.34-2.78,1.04-3.79,1.8-.29.2-.5.43-.63.61-.02.04-.04.08-.07.12-.03.05-.05.15-.07.22-.05.15-.1.31-.13.51-.16.73-.23,1.56-.29,2.36-.06,1.01-.1,2.03-.1,3.05,0,1.55,0,3.12.13,4.66.09,1.2.31,2.37.48,3.55.04.26.1.52.1.78.02.98-.12,1.31-.64,1.55-.11.05-.22.12-.33.16-.34.11-.76-.26-.98-.96-.39-1.04-.53-2.13-.7-3.24-.16-1.11-.25-2.24-.3-3.37-.09-1.69-.09-3.4-.06-5.13h.06Z"/><path class="cls-2" d="m236.49,280.31c.23.74.47,1.49.75,2.19.27.67.63,1.43.9,1.63l.19.15.3.12c.18.1.45.14.67.23,1.75.55,3.87.65,5.91.69.92,0,1.84-.08,2.74-.2.58-.07,1.15-.21,1.74-.24.29-.03.59-.04.88-.05.29-.03.61.11.91.14.39.09.38.22.13.6-.12.19-.3.46-.53.77-.23.27-.53.45-.87.57-.6.21-1.21.31-1.83.39-.62.09-1.24.15-1.86.19-1.24.08-2.51.1-3.78-.09-1.52-.23-3.11-.19-4.78-.8l-.69-.33c-.23-.14-.47-.33-.69-.5-.21-.18-.39-.43-.54-.64-.12-.2-.26-.41-.37-.62-.43-.81-.72-1.6-1.01-2.4-.34-.99-.63-1.98-.9-2.97-.41-1.51-.71-3.04-1.03-4.55-.25-1.17-.55-2.33-.77-3.51-.04-.26-.1-.52-.1-.79-.02-1,.16-1.33.67-1.54.12-.05.23-.11.33-.14.35-.09.75.3.94.96.37.99.54,1.99.79,3.02.23,1.03.46,2.06.69,3.1.36,1.54.73,3.1,1.23,4.6l-.05.02Z"/><path class="cls-2" d="m287.85,116.99c.22.09.41.15.66.26l.42.19.48.31c.17.09.26.27.39.4.12.15.25.28.33.45.19.34.28.53.36.76.35.9.54,1.71.74,2.54.14.6.33,1.18.43,1.78.38,2.11.56,4.22.76,6.31.08.93.24,1.86.34,2.78.06.59.13,1.18.16,1.78,0,.6-.12,1.21-.2,1.81-.07.38-.18.34-.43.05-.24-.29-.73-.82-1.05-1.46-.72-2.32-.91-4.68-1.15-7.07-.12-1.44-.53-2.88-.86-4.29-.18-.78-.37-1.55-.6-2.29-.11-.37-.24-.72-.37-1.05l-.16-.35c-.05-.07-.1-.16-.18-.2-.08-.05-.27-.13-.5-.21-.22-.07-.44-.15-.68-.21-.46-.14-.94-.26-1.42-.37-1.46-.32-2.95-.66-4.43-.86-1.16-.14-2.31-.11-3.45-.1-.25,0-.49.04-.74.03-.92,0-1.16-.25-1.37-.92-.05-.16-.11-.31-.15-.47-.13-.51.3-.99,1.06-1.17,2.23-.37,4.45-.13,6.68.23,1.66.28,3.25.74,4.95,1.28l-.02.06Z"/><path class="cls-2" d="m226.92,235.86c.63,2.87,1.14,5.78,1.18,8.72.02,1.07.2,2.13.09,3.2-.1,3.78-1.04,7.48-2.22,11-.63,1.53-1.06,3.15-1.86,4.59l-.68,1.43-.34.71c-.13.23-.28.45-.42.67l-.44.66-.51.61c-.34.41-.7.79-1.12,1.14-.52.43-.67.2-.78-.53-.1-.73-.27-1.99.21-3.01.53-.85.86-1.79,1.26-2.69.38-.91.85-1.78,1.17-2.72.33-.93.77-1.83,1.07-2.77.28-.95.58-1.91.91-2.87.31-1.16.44-2.4.61-3.62.02-1.24.05-2.49.07-3.73-.1-2.72-.3-5.46-.91-8.15-.3-1.67-.81-3.29-1.31-4.92-.47-1.2-.89-2.43-1.42-3.61-.56-1.16-1.07-2.35-1.78-3.43-.52-.85-1.06-1.68-1.7-2.43-.61-.77-1.23-1.52-1.91-2.22-.29-.31-.57-.62-.84-.96-.24-.32-.47-.55-.62-.79-.15-.23-.24-.45-.3-.65-.06-.2-.08-.38-.07-.56.03-.2.09-.39.15-.58.06-.17.08-.34.13-.46.1-.34,1.13-.41,2.2.35,1.57,1.12,2.9,2.57,4.05,4.17.62.77,1.12,1.62,1.64,2.47.26.43.52.85.76,1.29l.67,1.34c1.37,2.64,2.29,5.49,3.12,8.33l-.08.03Z"/><path class="cls-2" d="m182.84,239.5l1.26-4.41.63-2.21c.24-.74.51-1.51.77-2.25,1.14-2.98,2.66-5.75,4.29-8.37,1.63-2.61,3.35-5.08,4.88-7.6,1.53-2.52,2.85-5.1,3.8-7.81,1.39-3.99,2.05-8.24,2.34-12.51.26-3.77.14-7.59-.14-11.42-.26-3.84-.81-7.66-.89-11.7,0-1.02.03-2.06.22-3.15.19-1.07.57-2.31,1.58-3.33.26-.24.58-.44.87-.64.32-.16.68-.27,1.02-.38.34-.05.69-.08,1.03-.09.32.03.64.08.96.13,1.21.29,2.18.87,3.07,1.48,1.73,1.29,3.06,2.87,4.22,4.53,1.16,1.66,2.12,3.44,2.92,5.26,2.89,6.48,4.04,13.61,4.02,20.55-.03,4.47-.51,8.94-1.48,13.3-.49,2.18-1.09,4.33-1.8,6.44-.7,2.11-1.48,4.2-2.57,6.14-1.38,2.42-1.3,2.02-.93-.32.07-.59.22-1.29.33-2.09.06-.83.29-1.7.48-2.67.4-1.93.88-4.17,1.41-6.58,1.93-8.51,2.35-17.41.42-25.83-.95-4.19-2.5-8.28-4.77-11.82-1.14-1.75-2.5-3.39-4.03-4.53-.75-.57-1.6-.93-2.2-.99-.16-.03-.25.03-.39,0-.09.06-.19.05-.28.11-.16.1-.35.26-.51.55-.38.73-.59,1.97-.61,3.23-.04,1.27.03,2.61.12,3.95.2,2.7.5,5.47.72,8.26.47,5.58.61,11.32-.26,16.95-.47,3.09-1.23,6.14-2.33,9.1-1.1,2.97-2.64,5.72-4.26,8.34-3.27,5.22-6.87,10.05-8.7,15.66-2.16,7.05-4.01,14.31-4.79,21.65-.66,5.56-.59,11.18.22,16.7.8,5.53,2.54,10.88,3.81,16.45.96,4.34,1.39,8.88.86,13.32-.41,4.22-.59,8.6-1.31,12.96-.3,1.92-.65,3.81-1.18,5.73-1,3.55-2.11,5.81-3.1,7.25-.48.72-.99,1.23-1.41,1.62-.44.39-.93.59-1.34.76-.39.15-.82.39-1.09.44-.45.07-.33-.57.12-1.75.13-.28.21-.65.38-1.01.16-.36.33-.76.54-1.17.34-.89.8-1.87,1.2-3.04.35-.84.57-1.75.86-2.62.22-.91.49-1.79.67-2.72.42-1.83.71-3.72.97-5.63.5-3.8.73-7.78,1.13-11.83.05-.94.17-1.88.18-2.82l-.07-2.82-.32-2.83-.52-2.85c-.79-3.82-1.98-7.76-2.85-11.88-1.39-6.09-1.83-12.52-1.41-18.78.39-6.28,1.73-12.38,3.15-18.4h.08Z"/><path class="cls-2" d="m204.02,345.37c-2.68-.94-5.32-1.98-7.93-3.09-2.64-1.12-5.2-2.43-7.67-3.87-1.8-1.06-3.6-2.12-5.3-3.34-2.99-2.15-5.8-4.53-8.38-7.16-2.54-2.66-5.01-5.44-6.67-8.96-.35-.79-.67-1.62-.82-2.57-.08-.47-.1-.98-.03-1.52.04-.27.12-.56.2-.82.1-.23.19-.47.32-.69.49-.89,1.23-1.6,2-2.11.78-.52,1.6-.88,2.43-1.15,2.12-.71,4.27-.92,6.38-.93,2.12,0,4.23.23,6.23,1.08.63.25.87.5.8.66-.07.16-.43.27-1,.45-.57.16-1.37.47-2.27.69-.46.11-.94.25-1.45.33-.51.05-1.04.1-1.59.1-1.94.01-3.88.25-5.59.67-.84.22-1.64.52-2.2.9-.3.18-.52.39-.7.6-.1.1-.16.21-.23.32-.04.1-.15.27-.13.29-.12.17-.03,1.01.25,1.77.28.79.69,1.64,1.16,2.47.96,1.66,2.15,3.29,3.45,4.84,3.14,3.72,7.26,6.85,11.44,9.61,2.31,1.51,4.7,2.9,7.18,4.13,2.47,1.21,5.06,2.27,7.67,3.27,3.21,1.22,6.47,2.32,9.78,3.22,2.51.68,5.04,1.28,7.59,1.68,2.54.4,5.13.63,7.6.37.95-.1,1.88-.32,2.67-.66.79-.35,1.45-.85,1.71-1.48.06-.16.14-.31.16-.49l.05-.25v-.28c.04-.36-.07-.69-.17-1.1-.26-.8-.68-1.64-1.14-2.44-.41-.71-.9-1.36-1.36-2.06-.88-1.27-1.53-2.04-1.93-2.64-.39-.61-.57-1.03-.66-1.49-.04-.21-.14-.45-.15-.62-.01-.29.31-.35.99-.16.65.21,1.59.71,2.54,1.6,1.43,1.31,2.68,2.81,3.65,4.59.49.9.93,1.85,1.18,3.07.08.28.09.68.11,1.02-.01.34-.04.68-.07,1.01-.08.35-.16.7-.28,1.04-.15.33-.29.69-.5.99-.82,1.26-2.02,2.01-3.11,2.45-1.11.45-2.2.67-3.25.8-2.11.26-4.12.15-6.1-.03-5.87-.62-11.43-2.21-16.87-4.01l.02-.07Z"/><path class="cls-4" d="m134.99,103.56s4.46,17.36,6.64,18.08-33.76,13.48-32.59,11.97c1.17-1.51,25.96-30.04,25.96-30.04Z"/><path class="cls-2" d="m106.49,136.2s-.08-.09-.12-.16c-.03-.03,0-.1,0-.15l.03-.33.07-.66.16-1.32c.78-.89,1.3-1.6,1.88-2.35l1.7-2.22.42-.55.34-.43.53-.66,1.06-1.32,4.28-5.25c1.31-1.59,2.55-3.23,3.89-4.78,2.32-2.7,4.7-5.36,7.11-7.98l3.62-3.91c1.28-1.37,2.13-2.31,4.27-4.53l.34-.2,1.12-.67.07-.04.03-.02h0s0,0,0,0c0-.05-.05.4-.03.21h.01s.02,0,.02,0c.04.01.08.03.11.05l.21.11c.14.07.31.13.44.33.29.32.55.88.77,1.46l.65,1.72.9,2.3c.3.74.59,1.48.89,2.21,1.51,3.78,3.32,7.42,4.51,11.33.2,1.3.05,1.21-.97.5-1.08-.67-2.58-2.2-3.63-4.33-1.25-2.54-2.32-5.15-3.39-7.76l-.79-1.96-.37-.94v-.05s0-.09-.01-.16c-.01-.09-.05-.02-.1-.02l-.08.04-.05.03s0-.02-.05.04l-.18.18-1.43,1.47c-.96.98-1.92,1.95-2.89,2.93-3.53,3.56-6.81,7.6-10.09,11.53-1.81,2.15-3.59,4.33-5.37,6.52l-2.66,3.29-.91,1.11-.38.47-.19.24-.1.12-.04.08-.05.11-.86.98c-.07.09-.17.17-.2.26.08.05.18.01.27,0,.18-.03.37-.07.55-.11.37-.09.76-.2,1.15-.31l.6-.18.77-.24c4.98-1.63,9.98-3.36,14.85-5.23,3.79-1.46,7.42-3.1,11.09-4.71.81-.35,1.59-.73,2.41-1.08,3.05-1.25,4.13-1.38,5.1-.88.22.11.48.19.63.3.49.36-.51,1.48-2.66,2.62-6.44,3.28-13.54,6-20.71,8.6-2.67.96-5.35,1.89-8.06,2.78l-2.14.69c-1.22.4-2.62.83-3.88,1.19-1.27.36-2.53.66-3.21.5-.72-.12-1-.4-1.3-.74l.06-.05Z"/><path class="cls-2" d="m116.11,414.21s-9.2,19.58-9.18,21.21-14.69-1.96-12.81-3.54c1.88-1.59,21.99-17.67,21.99-17.67Z"/><path class="cls-2" d="m117.83,411.28c.44-.17.87-.37,1.26-.52.2-.08.37-.1.55-.15.15-.01.33-.05.47-.05.58.02.97.08,1.39.34.18.11.2.19.24.27l.11.24.21.5c.01.05.04.06.04.15l-.03.28-.05.56-.11,1.12c-.53,1.38-1.13,2.77-1.67,4.12l-1.23,2.97c-.58,1.4-1.08,2.83-1.67,4.22l-2.68,6.24-1.34,3.13-.69,1.59-.52,1.14c-.25.31-.47.65-.73.92-.28.03-.56.04-.84.06l-.92-.1c-.15-.01-.31-.05-.46-.07l-.33-.06-.6-.12c-2.33-.47-4.68-.89-6.99-1.29-1.49-.24-2.98-.53-4.46-.84-.74-.16-1.48-.33-2.21-.52-.37-.08-.73-.21-1.09-.35-.36-.14-.72-.25-1.07-.43-.85-.53-.71-.6.17-.98.44-.2,1.06-.39,1.79-.59.73-.15,1.54-.17,2.41-.07l3.61.5,3.57.7,3.56.73,1.77.37.22.05c.06.01.04.01.05.02l.05.03s.08.04.13.06c.04-.02.06-.03.1-.1l.08-.12.04-.06.09-.19.82-1.77c1.58-3.36,2.77-7.04,4.15-10.58l1.38-3.52.09-.22.04-.11.02-.04.07-.16.15-.34c.11-.23.19-.46.33-.73l.44-1.04c.07-.18.19-.38.21-.56-.16-.03-.31.07-.46.13-.46.22-.94.5-1.45.81l-.79.5-1.52,1.04c-3.18,2.21-6.37,4.46-9.39,6.86-2.34,1.87-4.47,3.91-6.63,5.92-.48.44-.91.91-1.4,1.34-1.83,1.58-2.6,1.85-3.65,1.46-.23-.08-.49-.13-.67-.23-.59-.3-.38-1.57.81-2.97,3.59-4.09,8.01-7.62,12.51-11.06,1.68-1.27,3.39-2.51,5.12-3.72l2.68-1.85c.85-.57,1.69-1.17,2.53-1.69.42-.28.83-.48,1.24-.71.4-.21.8-.43,1.16-.55l-.03.12Z"/><path class="cls-6" d="m402.94,161.97s2.55,24.54,4.16,23.55,17.58-9.62,15.88-11.76c-1.7-2.14-20.05-11.79-20.05-11.79Z"/><path class="cls-2" d="m399.08,181.39c-.02-4.07.09-8.13.17-12.17.03-1.47-.03-2.95,0-4.41l.03-1.44.02-2.29.29-1.04.14-.52c.07-.12.17-.25.32-.38.63-.46,1.32-.46,2.1-.32.77.14,1.62.53,2.35.89l.44.23.36.2.71.41c1.87,1.11,3.65,2.28,5.42,3.46,1.93,1.28,3.89,2.52,5.83,3.73,1.26.76,2.52,1.52,3.73,2.34.6.42,1.23.79,1.79,1.27.56.48,1.11.98,1.64,1.51.66.67.48.75-.43.76-.45,0-1.12.03-1.85-.05-.37-.04-.78-.06-1.17-.17-.38-.12-.76-.28-1.14-.48-2.71-1.37-5.17-3.1-7.68-4.72-2.5-1.64-4.97-3.34-7.44-4.92-.43-.27-.89-.55-1.31-.77-.2-.12-.3-.18-.47-.26-.16-.06-.34-.15-.51-.07-.1.14-.03.34-.05.5v1.5c0,.77,0,1.53,0,2.3-.07,4.08-.2,8.14-.22,12.19v3.74s.04,3.41.04,3.41v.21c.03.23-.04.51.07.72.21.13.47.02.69-.04.23-.08.46-.18.69-.28l.52-.25.6-.31c1.59-.83,3.15-1.78,4.66-2.78,2.45-1.59,4.73-3.33,7.13-5,.53-.37,1.03-.75,1.58-1.1,2.02-1.32,2.88-1.46,3.68-1.02.18.1.4.18.53.3.23.2.17.51-.09.91-.27.39-.74.89-1.44,1.38-4.13,3-8.61,6.07-13.4,8.95-.51.31-1.02.62-1.55.92l-.81.44c-.23.12-.49.34-.74.49-.26.14-.54.25-.81.35-1.1.43-2.11.5-2.86.15-.2-.08-.4-.21-.58-.37-.09-.07-.16-.15-.22-.22-.06-.08-.09-.2-.13-.3l-.49-1.26-.1-2.37-.04-1.33-.06-2.65h.08Z"/><polygon class="cls-2" points="420.57 154.98 436.21 163.33 442.7 157.72 420.57 154.98"/><path class="cls-2" d="m440.99,154.43c-3.15.09-6.32.23-9.47.43-1.15.07-2.29.24-3.44.32l-1.29.09-.64.05h-.29c-.26,0-.57.01-.92.03l-.56.04c-.1.01-.2.02-.3.04-.05,0-.1.02-.15.04-.06.04.01.06.03.07l.75.52.64.47.33.23.57.38,1.14.76c.76.49,1.51.98,2.26,1.47.96.62,1.94,1.18,2.92,1.74l.73.42.7.48.71.47c.23.17.42.46.65.64.56.51.46.52-.24.62-.75.23-2.17.52-3.48-.03-1.77-.83-3.44-1.79-5.01-2.8l-2.29-1.56-.28-.19-.22-.15-.29-.18-1.16-.71c-.74-.48-1.57-.94-2.35-1.39l-.26-.19-.13-.1s-.04-.06-.06-.08l-.21-.33-.42-.65c0-.14,0-.27,0-.41l-.02-.2s-.01-.06,0-.11c.01-.08.05-.13.07-.18.34-.41.72-.76,1.59-1.09.41-.17,1-.28,1.62-.35.61-.09,1.23-.16,1.86-.2l2.84-.33c.73-.08,1.46-.15,2.19-.21,3.2-.25,6.41-.43,9.62-.58l2.96-.11,1.62-.05,2.17-.05c.74,0,1.48.01,2.01.13.55.11.91.27,1.29.43.09.05.17.09.25.16.12.11,0,.2-.03.28l-.29.48c-.1.16-.29.41-.44.61l-.23.31c-.08.11-.24.24-.36.36-.93.87-1.84,1.73-2.75,2.58-1.64,1.59-3.11,3.33-4.78,4.96-.36.36-.71.72-1.1,1.07-.72.64-1.26.98-1.73,1.1-.45.14-.82.07-1.21-.12-.17-.08-.37-.14-.5-.23-.43-.3-.16-1.22.73-2.23,1.34-1.39,2.71-2.81,4.09-4.25.71-.73,1.43-1.46,2.17-2.19l.45-.44s0,0,0,0h0s0,0,0,0c0,0,.06-.02.05-.04,0-.01-.01-.02-.04-.03h-.01s-.28,0-.28,0l-.59.02-1.19.05v-.07Z"/><path class="cls-3" d="m77.67,407.37c.56.38,7.88,11.47,8.02,10.97s3.09-16,1.28-15.47-9.3,4.5-9.3,4.5Z"/><path class="cls-2" d="m80.44,418.48c-1.93-1.74-3.78-3.55-5.64-5.32-.34-.32-.69-.63-1.05-.93l-.53-.46-.64-.58-1.49-1.37c-.47-.45-.51-.82-.7-1.21-.08-.2-.19-.37-.17-.59.01-.25.12-.49.24-.67.45-.74,1.44-1.3,2.57-1.7.28-.1.55-.2.84-.29l.42-.13.27-.08,1.08-.29,2.15-.53c1.44-.35,2.85-.76,4.24-1.19.89-.28,1.78-.58,2.68-.79.46-.1.9-.24,1.37-.27.47-.03.96-.03,1.45.02.62.06.61.23.28.83-.17.29-.39.75-.71,1.18-.16.21-.33.47-.53.65-.21.16-.44.3-.7.41-1.78.81-3.65,1.2-5.48,1.7-.92.22-1.83.45-2.76.67l-1.37.32-.68.16-.33.08s-.06-.01-.09-.01c-.22-.01-.51.04-.75.17-.06.03-.12.07-.15.13-.03.06.03.12.07.15l.29.25.96.88,5.62,5.34,2.95,2.69.37.33c.16.13.28-.08.34-.2.14-.28.23-.59.32-.91l.14-.58.19-.87c.11-.58.2-1.17.29-1.76.27-1.83.33-3.67.51-5.52.04-.41.05-.81.11-1.23.11-.76.25-1.27.47-1.59.24-.32.53-.47.94-.53.18-.03.37-.08.54-.08.29,0,.51.19.66.5.15.31.27.75.23,1.29-.14,3.23-.59,6.65-1.25,10.18l-.11.59c-.04.32-.13.64-.19.96-.07.31-.11.67-.17,1-.05.34-.22.58-.32.87-.28.48-.58.91-.95,1.12-.18.12-.36.22-.59.3-.11.04-.25.07-.37.08-.1.03-.21,0-.32-.04l-1.33-.4c-.1,0-.24-.15-.36-.24l-.37-.3-.73-.6c-.22-.19-.53-.42-.7-.57l-.37-.32-.75-.64.05-.06Z"/><path class="cls-2" d="m250.99,190c1.72-.1,3.45-.21,5.18-.37.63-.06,1.25-.19,1.89-.24,2.23-.18,4.49-.32,6.74-.45,1-.05,2.01-.13,3-.22.64-.06,1.29-.05,1.93-.05.64-.02,1.3.19,1.93.31.4.1.34.31,0,.62-.34.28-.94.84-1.63,1.02-.63.13-1.25.26-1.87.36-.63.08-1.26.15-1.89.21-1.26.16-2.54.2-3.84.22-1.56.02-3.14.38-4.72.58-1.74.21-3.49.4-5.25.57l-3.25.28c-1.65.09-3.3.19-4.94.28-.64.03-1.27.1-1.9.19l-1.91.18c-.28.03-.56.08-.84.03-.53-.04-.87-.16-1.1-.36-.23-.18-.35-.4-.44-.69-.04-.13-.09-.26-.11-.38-.06-.39.39-.77,1.14-1.08,1.1-.32,2.2-.38,3.32-.47,1.12-.11,2.26-.16,3.4-.24,1.71-.12,3.43-.24,5.15-.36v.07Z"/><path class="cls-2" d="m227.59,134.76c-.03-.46-.06-.92-.09-1.37-.01-.17-.05-.33-.06-.5,0-.59-.02-1.19-.03-1.77,0-.26-.04-.52-.08-.77-.05-.33-.16-.65-.06-.99.06-.21,1.15-.02,1.19.35.07.66.09,1.32.01,2-.05.41.06.82.09,1.23.04.45.07.9.11,1.35.03.28.05.56.08.83.04.42.08.84.17,1.25.08.32.19.62.24.94.01.07.03.14.04.21.04.26,0,.36-.16.45-.03.02-.07.05-.1.06-.12.05-.25-.03-.36-.2-.17-.26-.33-.53-.47-.81-.11-.29-.19-.59-.27-.89-.11-.45-.21-.9-.28-1.36h.03Z"/><path class="cls-2" d="m234.49,132.06c.04-.36.07-.73.11-1.09.01-.13-.03-.26,0-.39.08-.46.16-.92.27-1.36.04-.2.04-.4.03-.59-.01-.25-.09-.51.1-.75.11-.15,1.46.11,1.54.37.08.48.14.94-.07,1.43-.12.29,0,.59,0,.88,0,.32,0,.65,0,.98,0,.2,0,.41.02.61.04.3.01.62.1.91.06.23.27.42.35.63.02.05.06.09.07.14.04.19-.07.28-.48.44l-.28.11c-.31.11-.6.11-.78,0-.56-.31-.76-.77-.9-1.23-.13-.34-.08-.72-.11-1.08h.05Z"/><path class="cls-2" d="m243.14,130.61c.04-.26.07-.53.11-.78,0-.09-.04-.18-.02-.27.07-.32.14-.67.21-.98.02-.14,0-.28-.04-.41-.05-.17-.18-.34,0-.53.11-.11,1.79-.08,1.84.1.08.32.07.64-.13,1-.12.22,0,.41,0,.62,0,.22,0,.46,0,.69,0,.14,0,.29.01.43.03.21,0,.44.07.64.05.16.24.27.31.42.02.03.05.06.06.09.03.13-.09.21-.51.37l-.28.11c-.32.11-.61.14-.77.08-.23-.09-.48-.19-.58-.34-.12-.14-.19-.3-.25-.46-.11-.23-.06-.51-.08-.76h.05Z"/><path class="cls-2" d="m284,88.14c.02.36-.38.5-.99.55-.19.02-.69-.17-.74-.28-.09-.23-.18-.46-.24-.68-.03-.13.14-2.03.16-2.7.03-.64.12-1.27.31-1.85.37-1.2.72-2.41,1.14-3.6.09-.26.22-.51.39-.74.59-.78.97-1.65,1.27-2.57.05-.15.14-.29.06-.5-.18-.37.99-2.71,1.27-2.94.66-.59,1.24-1.22,1.86-1.81.09-.09.1-.23.33-.21.54.03.6-.22.79-.41.3-.23.63-.44.99-.63.17-.1.49-.1.74-.14.23-.04.54.26.56.34.05.22.31.23.47.32.06.03.13.07.18.11.02.02.05.19.1.44.03.26.07.58.11.9.16.71.13,1.32.08,1.41,0,.03-.3.69-.61,1.38-.3.69-.61,1.42-.65,1.58-.04.17-.22.26-.36.38-.04.03-.25.57-.46,1.12-.24.53-.46,1.08-.49,1.11-.29.38-.39.85-.95,1.09-.11.05-.14.14-.18.22-.35.73-.87,1.37-1.32,2.05-.24.35-.38.74-.58,1.1-.04.07-.11.11-.17.17-.07.07-.15.14-.19.23-.4.89-.98,1.72-1.33,2.64-.09.21-.86,1.08-.93,1.33-.05.14-.63.44-.61.59Z"/><path class="cls-2" d="m252.72,84.29c.43.34.21.92-.34,1.65-.17.23-.88.6-1.05.53-.34-.14-.68-.28-.97-.45-.17-.1-2.03-2.29-2.71-3.03-.68-.69-1.12-1.52-1.56-2.34-.88-1.68-1.78-3.35-2.6-5.06-.18-.38-.32-.78-.4-1.2-.28-1.44-.85-2.76-1.47-4.07-.1-.22-.16-.46-.41-.61-.43-.25-1.75-3.94-1.77-4.47-.04-.65-.1-1.29-.18-1.93-.06-.64-.08-1.29-.13-1.93-.01-.18-.12-.35.03-.57.35-.5.17-.85.12-1.23-.05-.54-.06-1.1-.03-1.66.02-.28.19-.59.3-.89.1-.27.66-.29.75-.23.24.18.44-.08.66-.16.07-.03.17-.06.24-.07.07,0,.61.63,1.21,1.28.64.64,1.19,1.34,1.24,1.49,0,.02.13.28.31.67.19.39.44.9.69,1.43.47,1.06.96,2.17,1.09,2.38.13.23.11.51.13.77,0,.13,1.59,3.23,1.63,3.36.21.68.61,1.3.47,2.12-.03.16.04.29.1.42.5,1.13.8,2.34,1.18,3.52.19.61.49,1.16.73,1.75.04.11.03.24.05.35.03.15.03.3.1.43.63,1.36,1.1,2.8,1.84,4.11.15.31.43,2.02.65,2.36.11.19-.1,1.14.08,1.27Z"/></svg>