<?xml version="1.0" encoding="UTF-8"?><svg id="Layer_45" xmlns="http://www.w3.org/2000/svg" width="520" height="520" viewBox="0 0 520 520"><defs><style>.cls-1,.cls-2,.cls-3,.cls-4{fill:#231f20;}.cls-2{opacity:.22;}.cls-3{opacity:.6;}.cls-4{opacity:.5;}</style></defs><path class="cls-2" d="m241.19,151.46s2.85-6.62,9.01-5.69c6.16.93,9.05,2.12,8.97,10.12-.08,8-13.43,10.89-13.43,10.89,0,0,.68,18.6-5.88,25.83-6.56,7.23-27.28,14.81-38.65,4.96-11.36-9.85-22.44-19.31-23.6-39.86,0,0,13.62-10.49,16.58-21.45s2.36-6.73,2.36-6.73c0,0,13.23,14.32,26.11,16.15,12.89,1.83,20.17,1.52,20.17,1.52l-1.66,4.27Z"/><path class="cls-1" d="m203.68,142.56c.17-.32.36-.62.57-.92.05-.07.1-.14.15-.21.03-.05.19-.26.04-.06s.04-.04.07-.08c.05-.05.09-.11.14-.16.22-.25.45-.49.69-.72.11-.1.22-.2.33-.29.06-.05.12-.1.18-.15.12-.1-.32.24-.06.05.23-.17.46-.32.71-.46.12-.07.24-.13.37-.2.05-.02.1-.05.15-.07.28-.13-.27.1-.12.05.22-.08.44-.16.68-.21.17-.04.55-.03,0-.01.11,0,.21-.02.32-.02.78,0,1.54-.68,1.5-1.5s-.66-1.51-1.5-1.5c-1.3.01-2.58.57-3.62,1.33-1.32.97-2.41,2.19-3.19,3.62-.38.69-.19,1.67.54,2.05s1.65.2,2.05-.54h0Z"/><path class="cls-1" d="m203.02,149.21c1.59,1.99,2.73,4.34,3.27,6.82.24.89.38,1.81.45,2.72.14,3.27-.77,6.33-1.96,9.12-.53,1.25-1.07,2.48-1.65,3.68-.72,1.55-1.54,3.06-2.73,4.31-.37.39-.48.24-.51-.29-.02-.27-.02-.63,0-1.06.03-.42.13-.87.29-1.32.16-.39.29-.8.47-1.18l.53-1.14c.35-.76.68-1.52,1-2.29.64-1.53,1.2-3.07,1.66-4.65.57-1.89.62-3.94.3-5.85-.3-2.12-1.11-4.16-2.32-5.98-.37-.56-.8-1.09-1.23-1.61-.47-.48-.91-1.01-1.44-1.44-1.54-1.37-3.33-2.52-5.27-3.25-1.51-.57-3.09-.77-4.64-.97-.35-.02-.68-.02-1.03-.05-.64-.12-1.06-.15-1.36-.31-.3-.18-.48-.38-.63-.65-.07-.12-.16-.24-.2-.34-.07-.18.03-.35.28-.54.25-.18.66-.41,1.19-.5,1.58-.29,3.25-.2,4.9.09,1.66.3,3.24.99,4.76,1.77,2.24,1.2,4.26,2.87,5.9,4.85l-.05.05Z"/><path class="cls-1" d="m244.89,244.51c.99-1.04,1.91-2.16,2.8-3.32l.89-1.33c1.08-1.55,2.09-3.16,3.01-4.84.38-.76.77-1.51,1.11-2.29.23-.49.41-1,.67-1.48.28-.47.6-.93.92-1.38.21-.28.31-.19.4.16.07.34.22.98.16,1.64-.02.14-.03.29-.06.43l-.14.4-.29.79c-.2.53-.41,1.05-.64,1.56-.5,1.01-1.07,2-1.69,2.95-.76,1.13-1.37,2.42-2.15,3.59-.84,1.29-1.78,2.52-2.8,3.68-.65.7-1.29,1.4-1.98,2.04-1.02,1.02-2.17,1.89-3.31,2.74-.9.63-1.74,1.34-2.7,1.86-.21.12-.41.24-.63.34-.83.36-1.13.4-1.41.27-.06-.03-.14-.05-.19-.09-.15-.12.09-.44.58-.87,1.42-1.32,2.98-2.47,4.35-3.85,1.04-.99,2.14-1.93,3.08-3.03l.04.03Z"/><path class="cls-1" d="m206.85,247.51c-1.12-.7-2.22-1.43-3.29-2.21-.4-.28-.82-.51-1.2-.81-1.35-1.05-2.62-2.18-3.84-3.38-.54-.53-1.07-1.07-1.62-1.58-.69-.67-1.36-1.39-1.61-2.42-.07-.33,0-.32.35-.29.35.03,1.09,0,1.5.31.41.25.81.5,1.13.82l1.04.9c.71.58,1.34,1.26,2.01,1.94.78.83,1.82,1.4,2.77,2.07,1.05.72,2.12,1.43,3.2,2.11.67.42,1.34.84,2.04,1.22,1.05.59,2.1,1.18,3.2,1.65.86.36,1.74.61,2.62.9.19.07.39.11.58.19.69.3.85.54.79,1.12-.01.13-.02.27-.05.39-.1.42-.52.63-1.1.57-1.72-.21-3.4-.79-5-1.58-1.19-.57-2.36-1.22-3.52-1.88l.03-.05Z"/><path class="cls-2" d="m361.73,232.5s6.91-14.97,7.5-23.46c.59-8.49-1.1-9.77-1.1-9.77,0,0-17.36,2.6-15.2-1.89s-1.93.47-4.15.2-4.32-2.77-2.03-4.47-11.89-.53-9.98-3.23,6.4-6.21,6.4-6.21c0,0-9.51-1.38-7.45-4.36s13.83-5.23,13.83-5.23c0,0,9.93-2.34,15.09-.82,5.16,1.52,15.39,6.15,17.37,12.86s3.7,16.82,2.45,24.66c-1.25,7.84-9.11,28.32-9.11,28.32l-13.61-6.57Z"/><path class="cls-2" d="m131.43,262.06s-3.51,26.84-2.17,30.4-15.46-6.46-15.16-14.32c.3-7.86,1.44-27.16,7.09-35.79,5.65-8.63,12.57-11.43,17.38-10.87,4.8.56,15.43,3.12,19.32,8.4,3.89,5.29,4.83,9.39,2.83,8.43s-10.28-8.9-13.45-8.43c-3.18.47-4.76-1.92-3.39,5.05,1.72,8.76,6.26,19.65,6.26,19.65,0,0-5.49,4.2-10.77,2.73-4.89-1.36-7.95-5.25-7.95-5.25Z"/><path class="cls-1" d="m337.7,412.25s4.57-13.43,6.34-10.1c1.77,3.33,5.69,6.06,1.61,7.7-4.08,1.64-7.95,2.4-7.95,2.4Z"/><polygon class="cls-1" points="195.25 409.46 202.46 396.97 213.96 415.05 195.25 409.46"/><path class="cls-1" d="m348.16,346.87s9.76-5.17,20.63-2.79c10.87,2.38,24.55,7.09,27.73,19.89,3.18,12.8-18.11,29.23-18.11,29.23l-30.25-46.33Z"/><path class="cls-1" d="m158.77,357.51s7.36,4.01,11.4,9.47l1.19-2.4-17.86,36.85s1.32-2.92-6.21-4.27c-7.53-1.36-30.53-17.19-30.53-17.19,0,0-13.71-17.13,6.86-31.99,20.57-14.87,53.97,3.76,53.97,3.76l-6.2,12.79c-4.28-8.17-11.87-9.03-13.79-8.84-1.92.2,1.17,1.82,1.17,1.82Z"/><path class="cls-1" d="m155.89,247.19c-.72-.65-1.41-1.31-2.1-1.95-.25-.24-.53-.43-.78-.67-.89-.81-1.73-1.69-2.66-2.45-.41-.35-.87-.61-1.29-.93-.57-.37-1.15-.72-1.72-1.1-.18-.12-.12-.2.1-.23.21-.03.6-.06,1,.05.69.24,1.41.46,2.02.84.62.38,1.21.8,1.75,1.28.7.57,1.35,1.11,2.03,1.66l2.14,1.89c.44.38.88.76,1.34,1.11.69.54,1.4,1.05,2.15,1.47.3.15.61.27.91.39l.93.29c.13.05.27.08.41.12.49.19.58.44.59.81,0,.09.01.17,0,.24-.02.24-.31.42-.78.45-1.35-.04-2.6-.71-3.72-1.44-.84-.55-1.6-1.18-2.35-1.81l.02-.03Z"/><path class="cls-1" d="m185.17,268.08l.08.48c.04.23.04.5.06.74l-.05.26v.06s-.02.02-.02.02h0s0,.01,0,.01h0s.06.02-.06-.02v.03s-.07.12-.07.12c-.05.16-.19.3-.31.43-.13.12-.27.23-.41.34l-.26.19-1.01.73-2,1.42-1.67,1.23c-2,1.4-4.01,2.8-6.01,4.19-.88.63-1.74,1.3-2.57,1.97-1.08.86-2.04,1.86-3.38,2.4-.41.18-.4.11-.25-.28.09-.28.19-.57.28-.84.14-.33.35-.65.62-.95,2.15-1.87,4.39-3.59,6.78-5.15,1.43-.93,2.8-2.05,4.21-3.08l2.32-1.68,1.15-.84.94-.71c.07-.04.08-.1.07-.17,0-.06,0-.11-.01-.18l-.06-.33c-.04-.24-.11-.48-.17-.72-.14-.48-.25-.98-.45-1.45-.66-1.63-1.18-3.34-1.92-4.93-.57-1.24-1.23-2.41-1.86-3.59l-.43-.76c-.5-.97-.55-1.31-.34-1.74.05-.1.08-.21.14-.29.17-.27.7-.04,1.27.62.83.98,1.52,2.07,2.18,3.19.62,1.14,1.11,2.35,1.6,3.56.34.91.74,1.81.92,2.78.17.99.48,1.91.71,2.93h-.04Z"/><path class="cls-1" d="m340.89,220.28c-.31.33-.58.68-.98.76-.41.02-.86-.12-1.28-.17-.11-.01-.22-.06-.31-.09l-.18-.07-.36-.14-.7-.28c-.93-.38-1.84-.79-2.75-1.2-.66-.3-1.34-.57-1.99-.88-2.29-1.15-4.52-2.4-6.69-3.75-.48-.31-.96-.61-1.45-.91-.48-.31-.94-.65-1.4-.97-1.16-.86-2.4-1.77-3.03-3.18-.18-.43-.16-.36.22-.18.41.16,1.09.42,1.8.8.6.35,1.18.76,1.76,1.14.62.36,1.22.72,1.82,1.1,1.2.77,2.42,1.53,3.67,2.29,1.48.92,3.17,1.61,4.8,2.35.89.41,1.79.81,2.69,1.19.45.19.9.38,1.36.56.23.09.45.18.68.26l.5.19c.12.03.3.15.37-.02.1-.13.13-.16.35-.47l1.11-1.49c1.14-1.49,2.4-2.89,3.63-4.26.96-1.07,1.86-2.17,2.84-3.21.22-.23.41-.47.64-.69.87-.79,1.34-.83,1.8-.67.11.04.23.06.32.11.29.16.14.71-.33,1.45-1.57,1.97-3.41,3.79-5.11,5.76-.63.73-1.26,1.46-1.86,2.22-.3.38-.6.76-.89,1.14l-1,1.38-.04-.03Z"/><path class="cls-1" d="m344.9,193.2c-.8.13-1.61.21-2.42.25-.3.02-.59.07-.89.07-1.05-.05-2.15-.24-3.16-.67-.44-.2-.9-.38-1.29-.67-.54-.31-.93-.92-.97-1.56-.02-.2.01-.18.19-.11.16.08.61.08.9.15.12.05.28.04.37.1.1.05.2.1.3.15.21.08.4.18.6.28.4.19.84.34,1.33.49.59.19,1.25.06,1.91.03.72-.03,1.46-.11,2.19-.23.45-.08.9-.17,1.35-.28.68-.18,1.36-.36,2.01-.63.5-.21.95-.55,1.42-.83.11-.05.21-.12.32-.16.21-.08.36-.11.5-.04.15.1.27.23.39.4.06.08.12.15.16.22.07.12.09.26.07.43-.02.17-.06.42-.19.52-.19.19-.38.38-.58.55-.22.14-.44.27-.67.39-.46.24-.96.43-1.47.6-.75.25-1.55.44-2.34.61v-.05Z"/><path class="cls-1" d="m349.42,199.85c-.61,0-1.23-.09-1.82-.25-.22-.06-.44-.08-.65-.17-.74-.3-1.4-.83-1.86-1.44-.22-.26-.4-.55-.55-.86-.21-.38-.19-.87-.06-1.28.05-.13.11-.11.24-.02.12.09.38.22.56.34.13.12.35.18.41.29.09.1.2.2.3.29.16.22.33.44.53.68.24.29.65.35,1.02.44.41.1.86.16,1.32.15.28,0,.57-.03.86-.08.44-.07.89-.17,1.3-.36.32-.15.59-.42.88-.66.06-.05.12-.12.19-.15.28-.11.43-.02.69.39l.17.27c.17.29.21.66.07.89-.4.7-1.09.98-1.82,1.25-.55.18-1.15.31-1.77.33v-.05Z"/><path class="cls-1" d="m341.35,184.84c-.55-.11-1.09-.26-1.61-.41-.19-.05-.39-.06-.57-.12-.65-.22-1.32-.47-1.96-.84-.29-.16-.58-.29-.87-.46-.38-.2-.69-.57-.81-1-.04-.14.12-.22.35-.28.23-.05.54-.14.73-.11.34.03.58.14.86.27.28.12.59.23.91.4.38.23.86.24,1.31.34.49.11.98.23,1.46.32.3.05.6.1.91.12.46.03.92.06,1.36-.03.35-.05.65-.25.95-.4.07-.04.12-.09.19-.11.26-.06.38.03.61.44l.15.27c.15.31.14.62-.05.85-.28.34-.64.52-1.02.67-.38.15-.78.23-1.17.24-.59.03-1.17-.04-1.74-.12v-.05Z"/><path class="cls-1" d="m116.33,315.17c.75,1.51,1.53,3.01,2.38,4.46.32.53.67,1.04.99,1.56,1.14,1.85,2.28,3.72,3.57,5.47.58.77,1.21,1.51,1.87,2.2.81.92,1.59,1.81,2.43,2.77.24.3.08.43-.32.4-.39-.04-1.11-.17-1.73-.6-.53-.39-1.11-.75-1.58-1.2-.44-.48-.9-.95-1.31-1.46-.84-1-1.6-2.06-2.3-3.16-.83-1.32-1.82-2.6-2.65-3.96-.91-1.49-1.76-3.01-2.56-4.57-.5-.95-.96-1.92-1.4-2.9-.68-1.48-1.26-3-1.86-4.5-.45-1.17-.93-2.31-1.26-3.52-.07-.27-.18-.52-.23-.79-.18-1.02-.12-1.37.14-1.63.06-.06.11-.14.18-.17.2-.13.49.24.77.91.79,2.01,1.7,4.06,2.63,6.13l1.09,2.28,1.17,2.26-.04.02Z"/><path class="cls-1" d="m121.6,286.41c.78.66,1.58,1.31,2.42,1.9.3.22.64.39.95.6,1.09.75,2.2,1.47,3.37,2.11.51.29,1.07.49,1.61.71.71.23,1.4.54,2.07.91.21.13.12.33-.14.51-.26.18-.72.38-1.19.34-.4-.08-.82-.08-1.2-.24-.38-.13-.75-.29-1.13-.45-.74-.33-1.45-.71-2.13-1.17-.8-.56-1.69-1-2.51-1.55-.89-.61-1.75-1.26-2.58-1.95-.52-.42-1.01-.85-1.51-1.29-.75-.66-1.46-1.37-2.2-2.03-.28-.27-.57-.51-.87-.75-.29-.25-.56-.51-.84-.78-.12-.12-.25-.22-.34-.37-.34-.54-.38-.77-.26-1.04.03-.06.04-.13.07-.18.1-.16.41-.09.83.13,1.27.63,2.21,1.62,3.26,2.54.76.69,1.53,1.38,2.34,2.02l-.02.03Z"/><path class="cls-1" d="m131.43,285.18s9.91,4.58,9.83,7.92-9.93,1.19-9.93,1.19l.1-9.11Z"/><path class="cls-1" d="m230.48,268.95c-.23-1.18-.43-2.36-.63-3.54-.08-.43-.2-.85-.26-1.28-.22-1.52-.4-3.05-.51-4.59-.06-.68-.15-1.35-.26-2.02-.08-.86-.14-1.73-.06-2.61.03-.27.19-.25.42-.05.22.2.57.58.74,1.05l.43,1.26c.12.42.19.85.27,1.28.16.86.31,1.71.37,2.59.05,1.06.37,2.11.58,3.16.23,1.16.46,2.32.71,3.47l.49,2.13c.26,1.07.53,2.15.88,3.19.27.81.63,1.56.96,2.34.07.17.16.33.2.51.18.67.13.92-.15,1.19-.06.06-.12.13-.19.18-.22.16-.54-.02-.89-.44-.54-.61-.89-1.33-1.26-2.05-.36-.72-.7-1.47-.93-2.25-.36-1.15-.69-2.32-.96-3.5h.05Z"/><path class="cls-1" d="m271.84,213.12c-1.16-.34-2.31-.7-3.49-.96-1.17-.31-2.36-.55-3.55-.78-.87-.19-1.75-.24-2.63-.39-3.08-.5-6.2-.89-9.35-1.04-.7-.05-1.4-.06-2.09-.04-.7,0-1.4,0-2.09.02-1.78.05-3.55.38-5.37-.23-.57-.17-.5-.26-.05-.62.3-.25.62-.53.94-.79.39-.29.86-.5,1.38-.63,1.85-.19,3.71-.28,5.57-.24,1.86.07,3.73.22,5.59.51,2.22.32,4.55.45,6.81.8,1.25.19,2.48.46,3.72.69,1.22.31,2.46.55,3.67.9l2.24.63,2.21.73c1.12.35,2.2.84,3.3,1.24,1.08.46,2.15.93,3.22,1.39.82.38,1.64.75,2.46,1.12.81.39,1.6.81,2.39,1.23.35.18.7.35,1.02.6,1.2.87,1.51,1.25,1.53,1.78,0,.12.03.24.02.34-.04.31-.73.25-1.7-.16-2.9-1.22-5.83-2.56-8.86-3.74-1.11-.47-2.27-.82-3.4-1.25-1.16-.34-2.3-.76-3.48-1.07v-.06Z"/><path class="cls-1" d="m198.86,222.97c-1.34.6-2.69,1.22-3.97,1.98-.47.27-.91.59-1.37.88-1.65.98-3.22,2.1-4.79,3.25-.7.5-1.34,1.08-1.99,1.65-.4.38-.81.75-1.27,1.06-.44.34-.91.64-1.39.94-.3.18-.32.1-.21-.21.12-.3.26-.93.63-1.48.61-1.02,1.49-1.74,2.31-2.54.84-.78,1.72-1.52,2.71-2.13,1.16-.76,2.27-1.68,3.45-2.47,1.32-.84,2.67-1.63,4.08-2.31.86-.44,1.75-.79,2.63-1.18,1.35-.53,2.74-.99,4.11-1.43,1.06-.35,2.1-.75,3.17-1.08.23-.08.47-.15.71-.18.46-.05.76-.06.99.03.23.13.38.29.5.49.06.09.13.17.16.25.06.13,0,.27-.12.47-.14.19-.35.48-.65.58-.89.45-1.81.7-2.74.99-.92.31-1.88.56-2.81.9-1.4.45-2.77.99-4.12,1.59l-.02-.05Z"/><path class="cls-1" d="m240.95,215.96c-2.88,6.56-6.79,10.13-11.31,12.3-4.83,2.32-9.92,2.31-9.92,2.31,0,0,3.87,3.28,9.14.72,7.26-3.53,12.98-14.3,12.09-15.33Z"/><path class="cls-1" d="m216.41,250.69s5.65-9.79,8.96-8.79c6.54,1.98,9.28,8.31,9.28,8.31,0,0-4.44-13.02-7.2-15.48-2.76-2.46-6.17,2.03-6.17,2.03l-4.87,13.93Z"/><path class="cls-1" d="m371.21,304.12c-1.86,1.38-3.86,2.59-5.98,3.54-.78.34-1.55.7-2.36.96-1.44.45-2.92.75-4.41.89-1.5.11-3,.05-4.48-.17-1.31-.2-2.59-.54-3.82-.98-1.6-.5-3.03-1.46-4.27-2.54-.41-.31-.32-.32.11-.2.22.05.51.16.89.22.19.03.39.07.62.09.11,0,.22.03.34.03.1.04.22.06.33.09,3.08.98,6.04,1.76,9.23,1.77,1.91,0,3.85-.57,5.68-1.28,2.01-.79,3.93-1.87,5.73-3.14,1.1-.79,2.17-1.64,3.18-2.55,1.54-1.38,3-2.87,4.29-4.48,1-1.25,1.82-2.6,2.7-3.9.19-.29.37-.58.56-.87.72-1.08,1.06-1.36,1.58-1.37.12,0,.25-.02.35,0,.34.05.32.68-.08,1.58-.61,1.33-1.29,2.69-2.15,3.96-.87,1.25-1.85,2.46-2.89,3.62-1.55,1.72-3.26,3.32-5.11,4.75l-.03-.04Z"/><path class="cls-1" d="m345.34,254.4c.59-1.37,1.2-2.73,1.85-4.06.24-.49.43-1,.69-1.47.91-1.68,1.91-3.32,2.92-4.93.44-.72.88-1.44,1.32-2.16.29-.45.55-.93.87-1.36.33-.43.7-.83,1.08-1.22.24-.24.37-.1.41.27.04.36.06.99-.15,1.57-.9,1.97-1.92,3.83-3.11,5.65-.71,1.09-1.18,2.36-1.74,3.57-.6,1.33-1.25,2.64-1.81,3.99-.36.83-.69,1.66-1.02,2.51-.47,1.28-.95,2.57-1.31,3.88-.29,1.01-.44,2.04-.64,3.07-.05.22-.07.45-.12.68-.18.84-.45,1.05-.93,1.13-.11.02-.23.05-.34.05-.35,0-.57-.41-.6-1.08.09-1.93.44-3.92,1.06-5.84.44-1.43.98-2.84,1.52-4.24l.05.02Z"/><path class="cls-1" d="m374.6,239.13c-1.25-.34-2.5-.7-3.73-1.11-.45-.15-.92-.22-1.36-.39-1.57-.57-3.12-1.22-4.6-2.03-.66-.34-1.32-.69-1.98-1.03-.81-.49-1.61-1.04-2.24-1.78-.2-.22-.03-.36.32-.42.35-.06.9-.08,1.37.11.86.31,1.71.61,2.5,1.01.42.17.83.36,1.24.55.42.17.83.38,1.24.61.99.52,2.13.76,3.22,1.09,1.2.35,2.42.7,3.65.99.75.19,1.52.36,2.28.51,1.15.25,2.32.5,3.49.64.91.11,1.81.07,2.72.11.2,0,.4,0,.6.02.74.05.95.3,1.07.78.03.11.06.22.07.33.04.36-.3.64-.87.78-1.67.27-3.41.16-5.14-.05-1.29-.15-2.58-.38-3.85-.69v-.06Z"/><path class="cls-1" d="m380.53,226.81s16.33,6.61,14.27,9.96c-2.06,3.35-19.45,2.3-19.45,2.3l5.19-12.26Z"/><path class="cls-1" d="m195.2,117.56s9.02-17.68,31.2-17.68c33.47,0,38.05,44.48,56.32,55,11.86,6.83,20.66,5.76,22.74,5.8s-7.92,28.68-11.51,33.79c-3.59,5.11-16.76,18.28-20.57,16.92-3.81-1.36-16.49-7.32-30.76-3.04,0,0,2.14-5.87,1-10.84-.99-4.32-2.57-3.59-2.12-6.3.45-2.74,3.09-8.05,4.41-13.05,1.56-5.89,1.79-11.32,1.79-11.32,0,0,10.83-3.72,11.3-8.77s.59-9.66-1.54-10.88c-2.13-1.22-6.86-1.77-9.77-1.2s-18.64,5.97-30.8-1.06c-12.16-7.03-21.38-17.08-21.38-17.08,0,0-.99,5.33-5.22,12.56-4.24,7.24-10.15,14.3-12.81,15.75-2.66,1.45,3.44,17.9,5.68,22.01,2.24,4.1,14.87,24.65,33.73,23.44,18.86-1.21,19.87-6.19,22.47-9.72s.82,9.23-.9,12.8c-1.72,3.57-6.14,9.7-12.06,13.75-5.92,4.05-14.54,6.17-14.54,6.17l-5.65-6.17s-4.91.24-9.8,3.73l-4.89,3.49s-35.52-2.77-43.83-15.59c-8.32-12.83-10.48-11.3-5.19-13.61s12.42-7.74,13.84-15.25c1.43-7.51-.65-27.09,0-34.01.65-6.92,6.93-40.53,38.85-29.63Z"/><path class="cls-1" d="m154.27,212.94c2.56,1.96,5.37,3.65,8.33,5.07,1.08.51,2.21.94,3.32,1.39,3.92,1.62,8.03,2.88,12.22,3.78,1.86.4,3.76.7,5.63.94,1.21.15,2.42.3,3.63.44.6.09,1.21.14,1.82.27.6.14,1.2.27,1.8.41.75.19.63.33-.04.54-.33.1-.81.23-1.38.36-.28.06-.59.14-.92.18-.32.02-.67.03-1.02.02-2.51-.08-5.02-.35-7.52-.74-2.5-.39-4.99-.9-7.45-1.61-2.93-.84-6.02-1.61-8.96-2.73-3.22-1.23-6.34-2.76-9.28-4.6-1.81-1.13-3.53-2.41-5.14-3.81-2.46-2.1-4.65-4.53-6.58-7.08-1.54-1.96-2.94-4-4.08-6.21-.24-.49-.5-.96-.72-1.47-.7-1.92-.65-2.63-.22-3.23.1-.14.19-.3.3-.4.37-.32,1.05.3,1.8,1.51.25.46.59.89.86,1.34.27.45.54.9.82,1.36.58.88,1.17,1.76,1.77,2.65,1.15,1.79,2.48,3.47,3.87,5.12,2.12,2.39,4.53,4.57,7.19,6.43l-.04.06Z"/><path class="cls-1" d="m301.16,184.42c-.68,1.46-1.31,2.92-2.09,4.33-.38.71-.73,1.43-1.13,2.13l-1.23,2.07c-.57,1.02-1.18,2.02-1.84,2.99-2.41,3.36-5.13,6.49-8.19,9.21-.64.64-1.38,1.18-2.05,1.79-.69.59-1.34,1.22-2.07,1.75-.92.7-1.81,1.45-2.75,2.12-.48.32-.98.61-1.51.87l-.78.39c-.27.12-.57.17-.85.26-.73.17-.73-.03-.47-.76.23-.78.73-1.99,1.75-2.75,3.61-2.69,6.91-5.68,10.13-8.89.48-.49.94-.99,1.4-1.51.42-.55.83-1.11,1.24-1.68.85-1.11,1.54-2.34,2.3-3.51.43-.63.81-1.3,1.19-1.97l1.14-2.01c.67-1.39,1.43-2.73,2.02-4.17.38-.88.78-1.74,1.14-2.63l1.02-2.68c.49-1.36.93-2.75,1.41-4.12.41-1.4.83-2.79,1.16-4.19.25-1.1.45-2.19.64-3.29.17-1.1.29-2.21.51-3.29.09-.48.15-.96.25-1.44.09-.45.19-.82.28-1.12.11-.3.28-.53.41-.72.28-.38.57-.57.91-.71.16-.06.31-.15.45-.18.42-.1.76.73.93,2.14,0,4.1-.9,8.29-2.04,12.45-.39,1.55-.92,3.08-1.43,4.61-.57,1.51-1.13,3.03-1.76,4.52l-.08-.03Z"/><path class="cls-1" d="m202.32,410.65c.95.37,1.91.76,2.88,1.1.35.13.73.17,1.08.3,1.25.45,2.5.9,3.75,1.35.56.2,1.13.32,1.7.44.73.16,1.46.33,2.16.7.22.12.13.42-.13.72-.26.3-.7.66-1.15.69-.4.01-.79.03-1.19.02-.39-.04-.77-.09-1.15-.16-.76-.14-1.53-.29-2.25-.65-.87-.39-1.84-.49-2.76-.75-1.01-.29-2.01-.62-3.01-.95l-1.83-.64c-.93-.31-1.84-.69-2.78-.95-.73-.2-1.48-.31-2.21-.49-.16-.04-.33-.06-.48-.11-.59-.19-.68-.51-.6-1.1.02-.14.03-.28.06-.4.1-.43.48-.72.97-.78,1.4-.03,2.76.17,4.05.63.97.32,1.94.64,2.92.96l-.02.07Z"/><path class="cls-1" d="m343.24,412.05c-.62.32-1.23.65-1.83,1.02-.22.13-.39.33-.61.46-.78.47-1.6.92-2.36,1.44-.34.23-.63.52-.95.77-.4.34-.77.71-1.3.9-.16.06-.36-.18-.48-.52-.12-.34-.19-.8-.02-1.06.33-.44.61-.92,1.04-1.26.42-.34.87-.66,1.36-.92.59-.31,1.03-.85,1.6-1.23.61-.43,1.25-.82,1.89-1.2.4-.23.8-.46,1.19-.68.6-.34,1.23-.64,1.8-1.01.44-.29.82-.68,1.26-.98.09-.07.18-.15.29-.19.1-.04.19-.07.27-.08.08,0,.17.04.25.08.15.08.28.2.42.37.06.08.13.15.18.22.17.24.16.6.03,1.02-.27.46-.61.81-.98,1.11-.38.28-.78.52-1.19.75-.61.34-1.22.68-1.83,1.02l-.03-.05Z"/><path class="cls-1" d="m165.7,362.9c-.68-.6-1.37-1.22-2.11-1.78-.27-.21-.57-.36-.84-.56-.95-.72-1.94-1.42-2.93-2.11-.44-.3-.92-.55-1.39-.8-.61-.31-1.23-.6-1.8-.99-.18-.12-.09-.27.15-.37.24-.1.64-.18,1.03-.08,1.37.4,2.72.88,3.94,1.65.7.5,1.53.85,2.28,1.31.82.5,1.62,1.06,2.4,1.63.47.37.94.74,1.39,1.13.69.59,1.36,1.21,2.02,1.85.27.23.54.47.81.7.28.23.56.47.8.76.11.12.23.23.33.37.33.54.29.8-.17,1.15-.1.08-.21.17-.32.23-.38.22-.82.19-1.1-.04-.9-.65-1.64-1.45-2.51-2.26-.64-.6-1.3-1.21-2.02-1.77l.03-.04Z"/><path class="cls-1" d="m110.6,370.29c-.64-3.94-.1-7.91,1.32-11.51,1.49-3.6,3.93-6.71,6.81-9.16,2.11-1.78,4.4-3.3,6.84-4.48,4.33-2.02,8.92-3.28,13.56-3.91,4.64-.66,9.33-.74,13.96-.31,4.11.41,8.22,1.13,12.14,2.36,2.52.77,5.01,1.74,7.36,3.01,2.34,1.26,4.51,2.92,6.16,5.03,1.02,1.31.8,1.18-.5.6-.33-.14-.72-.31-1.17-.49-.5-.11-.97-.35-1.53-.54-.53-.23-1.15-.4-1.75-.64-.59-.27-1.21-.55-1.85-.84-1.12-.55-2.28-1.02-3.42-1.54-1.18-.44-2.34-.91-3.55-1.26-2.4-.76-4.87-1.33-7.37-1.73-5-.78-10.13-1.17-15.27-.81-6.14.39-12.47,2.24-17.78,5.4-2.91,1.74-5.54,3.95-7.5,6.65-1.98,2.69-3.13,5.94-3.47,9.27-.18,2.05-.02,4.11.55,6.09.57,1.98,1.56,3.84,2.78,5.54,1.84,2.6,4.27,4.81,6.88,6.77,2.62,1.96,5.44,3.66,8.34,5.18,4.51,2.37,9.2,4.18,13.88,6.2,1.03.45,2.06.86,3.09,1.36.96.45,1.74.87,2.37,1.29.63.4,1.13.77,1.51,1.11.78.67,1.1,1.24,1.22,1.83.06.26.18.53.18.7,0,.29-.39.21-1.09-.02-.38-.09-.81-.28-1.32-.5-.52-.22-1.13-.48-1.8-.77-8.11-3.53-17.33-6.79-25.7-12.18-3.08-2.03-6.1-4.32-8.63-7.24-1.3-1.42-2.39-3.08-3.34-4.8-.93-1.76-1.57-3.67-1.99-5.64l.08-.02Z"/><path class="cls-1" d="m155.49,232.79c.47-.34.94-.67,1.41-1.01.18-.12.29-.31.49-.41.68-.37,1.38-.7,2.07-1.01.32-.11.6-.28.9-.43.2-.07.34-.25.6-.21.22-.04.41-.11.63-.14.14-.02.18.11.17.32-.01.2-.06.52-.2.71-.06.09-.04.31-.12.38l-.2.24c-.13.15-.26.29-.4.44-.25.3-.58.5-.96.65-.45.19-.73.62-1.08.94-.43.34-.86.67-1.28,1.01-.26.22-.53.43-.79.66-.39.35-.82.68-1.18,1.07-.14.15-.26.33-.37.52-.13.17-.27.33-.41.49-.07.07-.11.15-.19.2-.29.2-.48.14-.87-.28-.09-.09-.18-.18-.26-.28-.27-.33-.38-.7-.32-.97.11-.39.22-.77.37-1.1.2-.27.45-.52.7-.76.38-.36.81-.7,1.24-1.08l.04.04Z"/><path class="cls-1" d="m355.25,197.4l-.46.4-.38.41c-.08.07-.09.13-.14.2-.01,0-.03,0-.04.02-.02.03-.06.07-.07.11-.11.2.07.42.32.44.54.07,1.26-.05,1.96-.11,2.54-.22,5.18-.83,7.98-1.1.63-.05,1.27-.11,1.99-.07.75.04,1.48.27,2.1.58.81.38,1.51.92,2.09,1.53.15.15.28.32.42.48.11.18.23.36.33.55.1.19.19.38.27.57.08.19.03.48.09.67.11.53-.14.55-.67.41-.64-.09-1.67-.13-2.24-.55-.48-.43-1.04-.7-1.49-1-.23-.14-.46-.23-.66-.31-.21-.07-.35-.1-.64-.12-1.16-.06-2.75.18-4.28.31-1.87.16-3.75.77-5.83.93-.28.02-.58.03-.88.03h-.46s-.24-.03-.24-.03c-.11,0-.21-.02-.32-.03-.86-.11-1.66-.44-2.19-1.04-.26-.3-.46-.67-.52-1.07-.06-.19-.05-.4-.04-.6.02-.2-.02-.4.05-.6.15-.78.61-1.61,1-2,1-1.17,2.19-1.93,3.41-2.58,1.87-.96,3.87-1.49,5.86-1.86.77-.18,1.54-.26,2.32-.41.77-.06,1.56-.22,2.34-.19.35,0,.69-.02,1.04,0,1.3.06,1.64.61,1.82,1.14.04.13.1.25.12.36.03.19-.1.34-.34.51-.25.16-.62.39-1.06.45-1.27.15-2.55.29-3.84.44-1.27.2-2.54.4-3.76.77-1.81.51-3.57,1.32-4.89,2.4l-.05-.05Z"/><path class="cls-1" d="m347.41,194.44c-.32.26-.62.54-.83.78-.07.07-.12.1-.1.18.01.04,0,.05.04.12.05.09.1.18.15.28.06.06.11.13.16.2.06.04.12.09.18.15.25.16.71.24,1.27.17.69-.08,1.43-.38,2.18-.65,2.68-.99,5.44-2.34,8.38-3.19,1.3-.38,2.65-.71,4.03-.82.89-.02,1.79,0,2.67.21.87.25,1.7.62,2.4,1.16.45.32.29.41-.21.41-.49-.02-1.34-.01-2.21-.02-.77-.06-1.53-.09-2.3.04-.76.09-1.54.18-2.32.39-1.56.36-3.12.96-4.71,1.56-1.92.72-3.77,1.83-5.9,2.58-.97.29-2,.63-3.27.42-.62-.08-1.28-.42-1.74-.88-.23-.23-.43-.48-.58-.74-.16-.23-.3-.6-.44-.93-.24-.64.03-1.34.42-1.86.56-.73,1.12-1.18,1.71-1.67.59-.47,1.19-.89,1.8-1.3,1.85-1.23,3.81-2.26,5.73-3.29,1.49-.8,2.92-1.67,4.41-2.45.33-.17.65-.34.99-.5.62-.3,1.11-.31,1.45-.32.35.01.59.11.82.3.11.09.23.16.31.25.26.29-.14.82-.94,1.47-1.22.89-2.56,1.53-3.89,2.26-1.34.71-2.7,1.41-4.03,2.15-1.97,1.1-3.97,2.26-5.59,3.6l-.04-.04Z"/><path class="cls-1" d="m339.12,188.77c-.22.17-.41.34-.58.5-.09.08-.08.06-.12.11-.07.07-.06.19.02.26.05.04.06.06.16.09.21.06.46.1.72.13.53.05,1.11.06,1.7.02.87-.06,1.74-.25,2.62-.4,3.12-.56,6.25-1.48,9.28-2.65,1.34-.52,2.65-1.15,3.9-1.83l2.39-1.35,1.2-.66c.39-.23.86-.34,1.29-.52.56-.19.66.07.48.69-.09.31-.24.73-.46,1.18-.24.43-.61.8-1.06,1.12-1.61,1.13-3.38,1.95-5.15,2.75-1.78.77-3.62,1.42-5.51,1.94-2.26.6-4.55,1.41-6.96,1.81-1.33.2-2.67.37-4.13.2-.18-.02-.36-.04-.56-.09-.19-.04-.37-.06-.63-.17-.24-.09-.48-.17-.69-.31-.22-.12-.42-.26-.59-.44-.33-.35-.57-.79-.64-1.26-.05-.48.07-.96.31-1.38.14-.27.34-.5.53-.74.18-.19.32-.34.49-.49.33-.3.66-.56,1-.81.68-.49,1.38-.92,2.08-1.32,2.13-1.22,4.36-2.2,6.54-3.2,1.7-.78,3.32-1.63,5-2.4.37-.17.72-.36,1.1-.51,1.41-.57,1.99-.38,2.49.06.11.1.24.18.32.28.13.16.08.36-.1.66-.18.3-.51.65-.99.94-2.87,1.59-6.02,2.84-9.08,4.29-2.24,1.07-4.59,2.18-6.35,3.57l-.04-.04Z"/><path class="cls-1" d="m248.43,241.51c-1.95,2.43-4.04,4.76-6.46,6.86-.89.76-1.8,1.54-2.9,2.15-.25.13-.48.27-.76.38l-.44.18c-.18.08-.38.15-.58.18-.4.05-.81.21-1.18.17l-.55-.05h-.14s-.07-.02-.07-.02h-.03s0,0,0,0c.02-.05-.05.11.05-.11h0s-.01-.01-.01-.01c-.08-.04-.14-.09-.21-.14-.3-.16-.53-.47-.71-.84l-.26-.56-.19-.44-.57-1.35c-.75-1.8-1.55-3.56-2.39-5.29-.76-1.53-1.65-3.01-2.64-4.36-.64-.86-1.28-1.71-2.01-2.46-.18-.18-.36-.37-.55-.54-.17-.19-.34-.39-.53-.56-.36-.37-.77-.67-1.22-.93-.56-.28-.52-.41.15-.54.33-.05.83-.07,1.43.02.3.05.62.12.95.23.16.05.32.13.5.18.15.09.29.19.43.3,1,.78,1.87,1.65,2.63,2.58.73.95,1.37,1.94,1.97,2.95,1.2,2.01,2.18,4.12,3,6.28.25.64.51,1.29.79,1.92l.35.81c.04.1.09.21.14.3.02.07.09.04.15.04.06,0,.11,0,.17-.03l.16-.05.26-.12c.53-.24,1.06-.59,1.59-.94,2.32-1.66,4.39-3.93,6.32-6.23,1.18-1.43,2.32-2.92,3.39-4.45,1.61-2.32,3.17-4.72,4.46-7.21,1-1.94,1.74-3.96,2.37-5.96.13-.44.23-.88.35-1.32.21-.81.41-1.31.61-1.64.25-.34.49-.51.85-.67.16-.07.32-.18.48-.24.26-.09.48.05.68.44.2.39.35,1.01.26,1.73-.23,2.15-.97,4.11-1.78,6.05-.84,1.93-1.84,3.79-2.92,5.6-1.6,2.69-3.4,5.27-5.33,7.76l-.06-.04Z"/><path class="cls-1" d="m228.3,215.8l1.42-1.11c.44-.4.87-.83,1.31-1.25.91-.8,1.65-1.76,2.44-2.69.3-.33.54-.7.77-1.08.24-.38.47-.75.73-1.11,1.73-2.6,3.17-5.45,4.15-8.48.18-.68.35-1.37.51-2.06.18-.69.21-1.39.32-2.09.14-.89.15-1.79.24-2.69.07-.9.21-1.8.33-2.72.09-.58.21-.52.5-.05.14.23.33.57.55.99.11.21.23.44.33.69.06.12.1.25.17.39.01.13.02.27.04.41.19,1.97.02,3.96-.37,5.88-.22.96-.39,1.94-.74,2.86-.32.93-.61,1.88-1.07,2.76-.25.53-.51,1.07-.75,1.62-.24.55-.55,1.07-.81,1.61-.28.53-.52,1.09-.83,1.61l-.97,1.53c-.67,1.14-1.59,2.12-2.39,3.17-.41.52-.91.96-1.36,1.44-.47.46-.9.97-1.41,1.39l-1.88,1.56c-.6.54-1.33.93-1.99,1.4-.52.33-1.01.7-1.55.99l-1.63.85c-.55.27-1.06.61-1.64.82l-1.68.7c-.43.19-.86.38-1.29.58l-1.32.48c-.88.31-1.75.69-2.65.95-.4.1-.79.23-1.2.28-1.53.26-2.05.08-2.46-.58-.09-.13-.2-.23-.25-.33-.09-.17,0-.35.23-.68.22-.35.61-.59,1.11-.79.74-.3,1.49-.58,2.26-.78.74-.3,1.49-.57,2.25-.83l1.14-.39,1.1-.49c.73-.34,1.5-.6,2.21-.97l1.58-.85c.53-.28,1.07-.54,1.56-.9.98-.69,2.04-1.28,2.94-2.09l.05.05Z"/><path class="cls-1" d="m223.59,147.75c-3.13-.77-6.21-1.78-9.18-3.03-1.08-.47-2.18-.87-3.23-1.42-3.69-1.89-7.13-4.3-10.1-7.17-.68-.62-1.29-1.3-1.95-1.95-.6-.69-1.26-1.34-1.81-2.07-.77-.89-1.44-1.86-2.07-2.85-.28-.52-.61-1.01-.81-1.57-.18-.57-.32-1.16-.44-1.74-.13-.74.01-.68.61-.31.3.19.75.43,1.23.74.23.16.52.3.76.5.21.21.41.44.58.7,1.3,1.78,2.64,3.52,4.14,5.15,1.5,1.63,3.16,3.13,4.92,4.55,2.11,1.71,4.69,2.97,7.23,4.1,2.81,1.25,5.73,2.26,8.73,3.04,1.85.47,3.71.89,5.6,1.16,2.86.44,5.77.73,8.64.66,2.23-.05,4.41-.39,6.55-.79.47-.09.93-.21,1.4-.29,1.75-.33,2.37-.09,2.92.53.12.14.28.27.36.41.15.24.06.5-.22.8-.28.29-.76.68-1.43.92-1.98.73-4.1,1.1-6.25,1.34-2.16.21-4.36.19-6.55.07-3.25-.2-6.49-.69-9.67-1.42v-.07Z"/><path class="cls-1" d="m223.61,203.11c-3.27.73-6.62.78-9.86.39-3.25-.41-6.4-1.33-9.38-2.59-2.16-.94-4.3-1.95-6.25-3.27-3.46-2.29-6.51-5.12-9.16-8.25-2.62-3.16-4.8-6.65-6.57-10.32-1.57-3.25-2.83-6.66-3.8-10.1l-.46-1.66-.39-1.68c-.28-1.11-.47-2.25-.67-3.38-.23-1.13-.3-2.28-.38-3.42-.1-1.14-.11-2.29.1-3.44.21-.72.33-1.03.42-1.02.09.02.19.36.56.93.36.57.82,1.37,1.16,2.35.38.97.81,2.09.98,3.34.75,4.41,1.92,8.73,3.54,12.86,1.56,4.16,3.65,8.11,6.2,11.8,3.1,4.38,7.45,8.1,12.22,10.76,2.62,1.47,5.42,2.64,8.32,3.4,2.91.75,5.92,1.08,8.91.92,1.84-.12,3.65-.42,5.42-.94l2.66-.89c.88-.33,1.72-.73,2.58-1.09,2.52-1.25,5-2.67,7.04-4.62,2.06-1.9,3.81-4.14,5.13-6.6,2.01-3.88,2.92-8.13,3.39-12.43.07-.95.14-1.89.21-2.85.23-3.57.31-4.71,1.23-5.48.18-.18.34-.41.48-.52.38-.35,1.25,1.14,1.23,3.88.08,4.05-.29,8.29-1.47,12.49-1.16,4.18-3.18,8.35-6.24,11.73-.58.61-1.13,1.26-1.75,1.82l-1.91,1.65c-1.36.98-2.72,1.96-4.21,2.72l-1.09.6c-.37.19-.75.34-1.13.51-.76.33-1.51.68-2.28.98-1.57.51-3.06,1.11-4.74,1.48l-.03-.07Z"/><path class="cls-1" d="m243.25,97.87c3.55,2.05,6.84,4.61,9.64,7.6,2.82,2.97,5.21,6.3,7.23,9.75,1.49,2.52,2.91,5.06,4.17,7.64,2.21,4.56,4.29,9.1,6.66,13.5,2.36,4.38,4.96,8.63,8.11,12.42,2.76,3.38,6.1,6.32,9.89,8.27,2.44,1.25,5.07,2.09,7.79,2.42,2.72.36,5.47.23,8.26.02,1.78.03,1.6.15.22.99-.68.46-1.73.86-3.03,1.32-.66.17-1.39.31-2.18.42-.79.05-1.63.14-2.5.06-3.1-.19-6.19-.94-9.04-2.22-2.84-1.3-5.43-3.06-7.74-5.08-4.63-4.06-8.02-9.16-10.9-14.36-3.46-6.22-6.64-12.87-9.9-19.17-3.56-6.9-7.95-13.39-14.15-17.94-3.75-2.81-8.05-5.07-12.54-6.31l-1.29-.33-.64-.17-.66-.1-2.64-.39-2.67-.12c-.89-.06-1.78.07-2.67.1-3.55.28-7.07,1.09-10.3,2.53-5.02,2.25-9.21,5.89-12.25,10.28-.68.96-1.16,2.02-1.79,3.02-.3.46-.45.95-.66,1.36-.21.41-.4.79-.57,1.13-.18.34-.35.65-.51.92-.13.29-.24.55-.36.78-.45.93-.91,1.41-1.43,1.78-.23.17-.47.41-.66.5-.31.15-.42-.24-.44-1.14-.02-.45.05-1.02.16-1.69.06-.34.13-.7.2-1.08.1-.38.25-.77.39-1.19,1.69-4.99,4.95-9.67,9.26-13.24l.8-.69.86-.6,1.74-1.19c.57-.42,1.23-.68,1.85-1.03.63-.32,1.25-.66,1.89-.96,2.61-1.08,5.32-2.01,8.13-2.45,4.15-.72,8.45-.77,12.61.07,2.07.46,4.13.98,6.09,1.8.49.2,1,.36,1.47.58l1.4.67c.94.43,1.84.94,2.75,1.45l-.03.08Z"/><path class="cls-1" d="m155.14,157.66c-.2-3.21-.35-6.51-.24-9.78.1-3.27.36-6.54.82-9.79.35-2.37.73-4.75,1.38-7.08,1.11-4.1,2.94-8.13,5.54-11.58,2.59-3.46,6.04-6.31,10-8.07,3.5-1.58,7.39-2.36,11.23-2.08,1.24.03,2.44.36,3.66.6,1.18.41,2.39.74,3.47,1.38.56.29,1.12.55,1.61.95.48.41.98.79,1.43,1.22.84.94,1.62,1.9,2.18,2.99.73,1.34.43,1.23-.66.52-.28-.18-.6-.38-.95-.61-.36-.23-.85-.4-1.31-.61-.48-.2-.92-.49-1.48-.66-.27-.1-.53-.22-.81-.31-.25-.13-.47-.33-.75-.43-1.85-1.02-3.94-1.56-6.04-1.84-2.12-.26-4.28-.08-6.41.3-4.21,1-8.21,3.22-11.34,6.49-.89,1.01-1.85,2.01-2.56,3.22-.8,1.15-1.5,2.35-2.06,3.65-1.16,2.57-1.98,5.35-2.6,8.14-1.35,6.17-1.77,12.6-1.45,18.97.2,3.94.57,7.91.8,11.91.16,3.03.25,6.09.06,9.16-.17,3.06-.6,6.14-1.51,9.11-.71,2.3-1.69,4.55-3.09,6.55-1.39,2-3.18,3.75-5.22,5.11-.46.28-.89.61-1.36.86-.47.25-.95.5-1.43.76-.92.39-1.69.71-2.36.9-.67.17-1.23.25-1.69.3-.46.03-.84,0-1.16-.08-.33-.1-.6-.24-.84-.38-.22-.13-.49-.22-.62-.33-.22-.18.03-.45.6-.94.28-.28.67-.48,1.14-.7.46-.24.98-.53,1.59-.78,3.57-1.51,6.81-3.73,8.92-6.89,2.15-3.13,3.23-7.06,3.71-11.15.69-6.11.15-12.53-.29-19h.07Z"/><path class="cls-1" d="m195.62,220.56c2.65-1.49,5.4-2.89,8.66-3.45.38-.1,1.17-.13,1.84-.19l.39.06.19.03h.02s.01,0,.01,0h0s0,0,0,0c0-.02-.05.13-.03.07h0s0,0,0,0l.05.02.09.03c.24.09.48.22.67.43.2.18.39.42.56.61l.31.37c2.33,2.89,4.73,5.68,7.53,8.09,1.24,1.06,2.58,2.01,3.93,2.89,1.76,1.12,3.63,1.93,5.34,3.27.54.41.41.54-.25.68-.33.07-.81.17-1.38.25-.56.05-1.17-.04-1.79-.24-1.1-.35-2.09-.91-3.1-1.44-.98-.56-1.97-1.13-2.87-1.83-1.79-1.39-3.45-2.94-4.94-4.63-.9-1.01-1.83-2-2.76-3l-1.37-1.53-.99-1.16c-.04-.08-.13-.08-.2-.07h-.23c-.08,0-.13,0-.31.03l-.89.15c-.6.15-1.21.3-1.81.52-.6.22-1.21.43-1.8.71-.6.25-1.19.53-1.77.85-1.57.8-3.09,1.73-4.56,2.73-2.23,1.52-4.41,3.18-6.38,5.02-1.55,1.41-2.91,2.96-4.28,4.51-.3.34-.57.69-.89,1.03-1.18,1.22-1.65,1.53-2.37,1.39-.16-.02-.32-.02-.45-.06-.39-.11-.3-.97.41-2.05,1.02-1.63,2.29-3.14,3.61-4.64.68-.72,1.36-1.47,2.09-2.17.74-.69,1.49-1.37,2.27-2.02,2.31-1.95,4.78-3.73,7.4-5.32l.04.06Z"/><path class="cls-1" d="m207.04,242.55c1.96,1.52,4.04,2.91,6.23,4.08.16.09.31.17.47.24l.4.18.24.1s.09.04.14.07c.04.01.12.11.14.04.03-.04.05-.08.07-.13l.15-.3s.01-.02.05-.13l.11-.3.22-.6.47-1.2c.64-1.59,1.41-3.13,2.28-4.61.77-1.31,1.57-2.62,2.45-3.85.57-.79,1.2-1.55,1.88-2.25.34-.36.71-.68,1.11-.96.2-.14.4-.28.61-.41.21-.12.5-.17.74-.25.66-.15.61-.06.51.59-.04.73-.18,1.86-.78,2.66-.56.7-1.07,1.43-1.58,2.16-.53.71-1.04,1.44-1.53,2.2-.97,1.51-1.84,3.1-2.68,4.76-.48.93-.84,1.9-1.15,2.97l-.38,1.34c-.12.45-.29.86-.51,1.15-.11.15-.22.27-.34.37-.06.04-.12.12-.22.13l-.27-.02-1.08-.08-.72-.3c-.25-.1-.49-.21-.74-.33l-.61-.29c-.31-.14-.6-.3-.9-.46-.59-.32-1.18-.63-1.75-.98-.58-.33-1.15-.68-1.7-1.05-.56-.35-1.11-.73-1.65-1.12-1.35-.93-2.62-1.96-3.87-3.02-1.88-1.62-3.6-3.43-5.18-5.34-1.26-1.46-2.41-3-3.4-4.7-.19-.39-.38-.77-.55-1.18-.58-1.53-.39-2.15.2-2.61.13-.11.24-.23.37-.3.36-.22,1.14.23,1.6,1.14,1.57,2.65,3.37,5.24,5.64,7.64,1.68,1.76,3.54,3.42,5.55,4.91l-.04.06Z"/><path class="cls-1" d="m241.17,219.17c-.92,1.62-1.87,3.23-3,4.74-.2.28-.39.56-.57.85-.2.28-.41.55-.63.81-1.56,1.85-3.38,3.48-5.38,4.82-.42.33-.88.6-1.32.89-.45.28-.87.62-1.35.84-.6.31-1.19.65-1.8.94l-.48.18-.5.11c-.33.08-.67.13-1.03.13-.44,0-.41-.1-.2-.5.21-.41.55-1.22,1.15-1.62,2.17-1.37,4.27-2.69,6.31-4.28,1.25-.93,2.18-2.28,3.18-3.52,1.05-1.41,2.05-2.87,2.9-4.44.55-.95,1.03-1.94,1.52-2.93.69-1.52,1.38-3.07,1.9-4.65.41-1.23.65-2.5.94-3.75.07-.28.1-.56.18-.83.3-1.02.6-1.28,1.28-1.3.15,0,.3-.03.44-.02.44.03.77.59.71,1.39-.25,2.36-.99,4.71-1.89,7.05-.65,1.74-1.46,3.43-2.3,5.11l-.06-.02Z"/><path class="cls-1" d="m286,215.29c5.02,2.85,9.79,6.06,14.42,9.42,1.69,1.23,3.41,2.4,5.06,3.67,5.83,4.45,11.4,9.19,17.25,13.48,2.6,1.89,5.32,3.65,8.11,5.1.91.43,1.8.92,2.74,1.27l1.39.57,1.41.49.7.25.71.18c.47.13.95.24,1.42.39.96.18,1.92.46,2.92.62,1.26.26,1.14.3.05.75-.54.22-1.36.68-2.38.79-.51.08-1.09.23-1.67.18-.58-.04-1.2-.12-1.84-.23-2.19-.55-4.3-1.36-6.23-2.4-1.97-.99-3.8-2.14-5.61-3.32-3.59-2.39-6.95-5.03-10.24-7.74-3.94-3.25-8.18-6.39-12.34-9.48-4.57-3.4-9.22-6.67-14.08-9.61-1.48-.93-3.02-1.75-4.53-2.62-1.56-.78-3.07-1.66-4.67-2.36-4.76-2.26-9.74-4.18-14.83-5.39-3.95-1-7.94-1.32-11.92-1.53-.88-.01-1.74,0-2.63-.02-3.28-.01-4.32-.18-5.07-.92-.17-.17-.39-.33-.5-.49-.35-.55.99-1.06,3.5-1.35.93-.11,1.86-.1,2.81-.11.94,0,1.89-.03,2.85,0,.95.07,1.91.14,2.87.21.48.04.96.07,1.45.12l1.44.21c3.87.48,7.69,1.51,11.46,2.68,5.57,1.82,10.91,4.32,16.01,7.14l-.03.07Z"/><path class="cls-1" d="m350.19,247.37c-.69,1.45-1.37,2.92-1.99,4.42-.23.54-.37,1.12-.59,1.67-.78,1.94-1.54,3.9-2.18,5.9-.3.88-.47,1.8-.7,2.7-.26,1.16-.38,2.35-1.08,3.42-.24.33-.47.23-.81-.16-.38-.4-.82-1.09-.81-1.8.17-1.23.34-2.46.7-3.65.36-1.19.77-2.37,1.27-3.52.59-1.38.95-2.89,1.47-4.32.58-1.57,1.22-3.12,1.91-4.66.44-.94.87-1.87,1.33-2.8.68-1.41,1.46-2.78,2.16-4.16.56-1.07,1.05-2.16,1.65-3.21.13-.23.26-.46.43-.67.61-.79,1.02-.89,1.49-.79.11.02.23.03.33.07.31.12.34.63.17,1.35-.64,2.04-1.61,3.92-2.59,5.85-.71,1.44-1.45,2.88-2.09,4.37l-.06-.02Z"/><path class="cls-1" d="m381.62,190.48l-.73-2.39-.36-1.2c-.12-.41-.29-.72-.43-1.09-.61-1.4-1.43-2.75-2.49-3.92-2.07-2.39-4.81-4.26-7.79-5.57-2.18-.96-4.52-1.57-6.86-1.94-4.11-.67-8.45-.12-12.7.72-2.13.44-4.24.97-6.31,1.62-1.03.32-2.06.67-3.05,1.09-.5.21-.99.42-1.47.65l-.51.25c-.11.06-.23.11-.35.18-.28.16-.57.34-.76.62-.1.15-.01.34.13.41.15.07.29.14.45.2.29.09.6.17.94.2.1.03.49.03.77.05.3.01.6.04.91.02,1.22,0,2.47-.12,3.7-.28,2.43-.32,4.86-.84,7.3-1.35,2.44-.52,4.89-1.03,7.43-1.15,1.58-.08,1.43.28.24,1.08-.59.39-1.42.98-2.47,1.48-.52.26-1.09.54-1.71.76-.62.21-1.29.4-2,.55-2.64.57-5.31,1.11-8.06,1.47-1.39.16-2.78.31-4.24.3-.36.01-.73,0-1.1-.03l-.56-.03-.28-.02-.45-.08c-.61-.12-1.24-.23-1.84-.37l-1.61-.67c-.3-.28-.57-.59-.86-.88-.26-.29-.38-.71-.39-1.17,0-.84.36-1.52,1.12-2.22.41-.32.81-.67,1.33-.94.25-.14.49-.29.74-.43l.7-.33c.6-.26,1.2-.49,1.8-.71,2.39-.85,4.77-1.58,7.21-2.12,3.06-.7,6.21-1.31,9.45-1.62,1.62-.16,3.28-.19,4.94-.09,1.65.14,3.29.38,4.88.8,3.49.9,6.84,2.39,9.77,4.55,2.92,2.13,5.43,5.02,6.77,8.48.4,1.05.67,2.08,1.01,3.12l.48,1.56c.16.52.24,1.06.37,1.59l.68,3.18.42,3.23c.78,6.54.01,13.19-1.45,19.49-1.16,4.91-2.67,9.63-4.5,14.24-.4,1.01-.77,2.02-1.2,3.03-.83,1.86-1.4,3.05-1.92,3.84-.54.78-.95,1.18-1.43,1.46-.21.13-.45.32-.62.37-.29.09-.37-.28-.3-1.05.07-.77.28-1.96.81-3.35.72-2.1,1.53-4.16,2.33-6.25.78-2.09,1.56-4.19,2.26-6.32,1.4-4.26,2.53-8.65,3.12-13.12.8-6.62.52-13.43-1.33-19.89l.06-.03Z"/><path class="cls-1" d="m364.35,224.29c.59-1.33,1.19-2.67,1.66-4.07.17-.51.3-1.03.45-1.55.6-1.8,1.1-3.65,1.47-5.53.16-.83.28-1.68.38-2.52.06-1.08.25-2.15.55-3.23.1-.33.29-.28.54.02.24.3.61.86.73,1.51.27,2.3-.08,4.58-.75,6.79-.4,1.32-.6,2.74-.97,4.09-.44,1.48-.92,2.95-1.51,4.39-.34.89-.76,1.75-1.14,2.61l-.98,1.93c-.35.63-.69,1.26-1.03,1.89-.27.48-.51.98-.75,1.49l-.78,1.47c-.11.22-.22.44-.37.64-.54.74-.87.86-1.47.61-.13-.05-.27-.09-.39-.15-.37-.2-.53-.79-.27-1.38.78-1.74,1.78-3.37,2.67-5.11.69-1.27,1.32-2.59,1.91-3.94l.06.02Z"/><path class="cls-1" d="m345.02,160.75l.89-1.07c.26-.28.5-.58.78-.85.32-.23.61-.5.97-.61.74-.24,1.56.04,2.3.3.48.19.9.39,1.33.59.62.3,1.25.53,1.84.86,2.07,1.15,4.04,2.42,5.99,3.7.85.6,1.74,1.14,2.61,1.7,1.16.64,2.19,1.54,2.94,2.75.23.37.09.44-.36.45-.31.01-.63.02-.91.03-.18,0-.38,0-.58,0-.1,0-.19-.02-.31,0l-.26-.09-.92-.37c-.31-.12-.57-.31-.85-.46l-1.69-.98c-1.14-.63-2.2-1.43-3.27-2.22-1.28-.96-2.81-1.6-4.24-2.32l-1.18-.57-.59-.26-.5-.21c-.15-.05-.36-.19-.53-.1-.16.12-.25.21-.52.51-.71.82-1.41,1.69-2.09,2.56-1.03,1.33-2.1,2.65-3.08,4.01-.77,1.06-1.36,2.21-2.13,3.27-.17.23-.32.47-.51.69-.68.83-1.08.96-1.67.75-.13-.05-.28-.08-.4-.14-.39-.2-.42-.8-.09-1.5.91-2.15,2.33-4.07,3.71-6.06,1.04-1.47,2.13-2.91,3.24-4.38l.06.04Z"/><path class="cls-1" d="m329.95,218.53c-3.4-2.24-6.74-4.55-9.97-7.06-1.18-.92-2.37-1.8-3.5-2.83-.27-.25-.57-.48-.81-.75l-.36-.56-.09-.14v-.02s-.01,0-.01,0c.13-.02.04-.01.06-.02h0s-.02-.05-.02-.05l-.03-.08c-.05-.11-.01-.22,0-.34.05-.23.16-.46.27-.69.06-.25.14-.49.22-.71.28-.59.61-1.12.92-1.67.63-1.09,1.28-2.15,1.93-3.21,1.35-2.1,2.72-4.18,4.09-6.25,1.26-1.93,2.52-3.87,3.76-5.79.8-1.23,1.6-2.47,2.45-3.68.87-1.19,1.85-2.32,2.99-3.31.71-.61.8-.37.66.49-.07.43-.18,1.03-.33,1.74-.17.69-.46,1.42-.86,2.16-1.61,2.48-3.2,4.99-4.86,7.46-1.68,2.46-3.36,4.93-5.06,7.41-.8,1.18-1.61,2.37-2.36,3.6-.38.62-.75,1.24-1.1,1.86-.23.39-.26.39-.3.52-.01.05-.07.11-.04.16l.12.12c.08.02.1.08.15.11l.4.34.89.7c3.14,2.46,6.51,4.69,9.92,6.84,2.11,1.31,4.23,2.61,6.38,3.84l2.3,1.29,1.12.6c.21.11.43.23.66.33.07.05.13,0,.18-.05l.14-.15.27-.32.87-1.12c.61-.79,1.2-1.6,1.78-2.41,1.71-2.36,3.21-4.81,4.87-7.18.36-.52.7-1.05,1.08-1.57,1.46-1.89,2.18-2.31,3.08-2.23.2.02.43,0,.59.05.52.14.36,1.25-.5,2.75-2.61,4.46-5.83,8.78-9.28,13.11-.13.15-.66.83-1.09,1.29-.45.51-1,.64-1.5.86-.36-.07-.74-.17-1.11-.25-.18-.03-.37-.11-.56-.21l-.57-.28-.7-.37-.57-.31-2.24-1.28c-1.48-.86-2.94-1.76-4.39-2.66l.03-.06Z"/><path class="cls-1" d="m122.02,240.6c1.77-2.63,3.91-5.13,6.7-6.95.34-.24.69-.45,1.06-.65.37-.19.73-.41,1.1-.58.73-.34,1.46-.66,2.22-.92,1.51-.55,3.09-.95,4.69-1.16,2.33-.34,4.73-.31,7.02.15,4.06.8,7.75,2.69,10.95,5.09,1.6,1.2,3.09,2.55,4.42,4.03,1.32,1.5,2.57,3.08,3.42,4.99.32.69.88,2.23.53,3.3-.15.55-.59,1.05-1.15,1.2-.55.17-1.15.14-1.75-.06-.3-.1-.6-.22-.88-.36-.25-.13-.43-.22-.63-.35-.4-.23-.76-.47-1.13-.72-.73-.5-1.42-1.01-2.1-1.52-1.74-1.33-3.47-2.64-5.21-3.85-1.74-1.21-3.54-2.33-5.42-2.86-1.2-.52-1.19-.28.03-.82.62-.25,1.57-.27,2.67-.1,1.09.19,2.26.66,3.39,1.33,2.01,1.17,3.77,2.62,5.53,3.94.88.67,1.74,1.33,2.61,1.91.43.29.86.57,1.26.78.11.06.05.04.1.06.07.04.1-.06.1-.11-.29-.8-.86-1.67-1.4-2.52-1.14-1.7-2.58-3.3-4.15-4.74-3.75-3.48-8.93-5.68-14.01-5.91-1.4-.07-2.8,0-4.19.21-1.39.22-2.76.59-4.09,1.09-.65.26-1.33.53-1.94.86l-.91.49-.87.58c-1.14.81-2.21,1.74-3.15,2.83-2.36,2.63-4.14,5.83-5.56,9.17-2.11,5.09-3.5,10.54-4.27,16.01-.59,4.25-.72,8.48-.61,12.69.02.93.1,1.84.13,2.77.03,1.73.03,2.87-.05,3.68-.11.81-.28,1.3-.55,1.71-.12.19-.23.43-.35.55-.21.2-.45-.04-.74-.66-.29-.62-.64-1.62-.84-2.93-.68-3.88-.64-7.92-.45-11.98.24-4.06.79-8.17,1.68-12.23,1.31-6.02,3.29-12.04,6.72-17.47l.07.03Z"/><path class="cls-1" d="m147.28,250.14c.31,1.29.64,2.59,1.02,3.87.13.47.35.91.48,1.38.49,1.65.97,3.31,1.52,4.95.23.73.59,1.42.85,2.13.34.92.64,1.86.84,2.84.06.31-.08.33-.38.19-.29-.15-.82-.43-1.22-.87-1.52-1.52-2.15-3.46-2.77-5.4-.32-1.19-.89-2.32-1.31-3.49-.46-1.29-.87-2.6-1.26-3.91-.25-.81-.47-1.62-.69-2.44-.34-1.23-.62-2.48-.98-3.7-.14-.47-.31-.93-.49-1.39-.16-.46-.32-.92-.47-1.39-.07-.21-.15-.4-.19-.61-.1-.39-.1-.66.01-.88.09-.21.25-.35.49-.49.11-.06.21-.14.31-.18.34-.15.77.09,1.16.59.42.78.83,1.57,1.17,2.4.31.83.57,1.68.84,2.54.38,1.28.76,2.56,1.14,3.84l-.06.02Z"/><path class="cls-1" d="m141.38,252.63c.32,1.22.64,2.45,1,3.66.13.44.34.86.47,1.3.43,1.57.83,3.16,1.36,4.7.22.69.55,1.34.8,2.01.18.42.38.84.54,1.27.14.44.2.92.28,1.4.03.3-.13.35-.48.24-.34-.11-.96-.31-1.41-.69-.56-.79-1.13-1.59-1.5-2.47-.37-.89-.69-1.8-.93-2.74-.28-1.13-.88-2.18-1.24-3.3-.41-1.23-.78-2.47-1.14-3.71l-.66-2.29c-.34-1.16-.65-2.32-1.02-3.46-.29-.88-.72-1.7-1.07-2.55-.08-.19-.15-.37-.2-.57-.19-.73-.02-1.03.49-1.34.11-.07.22-.15.33-.2.35-.17.86,0,1.22.47.24.35.54.69.72,1.07.2.37.37.76.54,1.15.33.78.64,1.58.89,2.39.36,1.22.72,2.44,1.08,3.66l-.06.02Z"/><path class="cls-1" d="m136.61,257.62l1.19,2.58c.15.31.37.59.51.9.51,1.12,1.02,2.24,1.58,3.34.22.51.5.98.77,1.44.38.58.71,1.2.89,1.91.05.22-.19.34-.56.36-.36.01-.89-.05-1.21-.32-1.06-1-1.97-2.1-2.44-3.5-.31-.82-.89-1.51-1.33-2.27-.48-.84-.94-1.7-1.37-2.57l-.79-1.61c-.41-.81-.77-1.65-1.22-2.42-.36-.6-.79-1.15-1.16-1.75-.08-.13-.18-.25-.25-.39-.2-.54-.1-.79.35-1.12.1-.08.2-.16.3-.23.35-.22.78-.16,1.14.11,1.04.84,1.74,1.87,2.33,2.99.44.83.88,1.67,1.31,2.51l-.06.03Z"/><path class="cls-1" d="m129.74,257.46c.31.59.62,1.18.95,1.76.13.21.28.39.39.61.38.78.76,1.56,1.2,2.29.18.34.4.65.63.95.29.38.6.75.81,1.21.06.15-.09.26-.35.32-.25.05-.62.06-.87-.1-.85-.6-1.67-1.25-2.11-2.19-.29-.55-.77-.97-1.14-1.47-.39-.55-.73-1.15-1.09-1.72-.22-.36-.44-.71-.65-1.07-.34-.53-.65-1.09-1.02-1.59-.28-.39-.69-.69-1.01-1.05-.07-.08-.15-.15-.21-.24-.24-.31-.1-.56.24-.9.08-.08.16-.16.24-.23.27-.23.64-.29.98-.17.89.43,1.45,1.13,2.01,1.84.38.55.7,1.14,1.05,1.71l-.05.03Z"/><path class="cls-1" d="m129.11,285.35c.02-1.35.08-2.71.16-4.07.02-.49-.02-.99.02-1.48.14-1.74.36-3.48.6-5.21.09-.77.18-1.54.27-2.31.07-.99.39-1.96.82-2.87.14-.28.37-.19.62.12.24.31.6.85.67,1.41.25,1.98-.13,3.85-.48,5.81-.23,1.17-.12,2.4-.15,3.61-.03,1.33-.05,2.67-.06,4,0,.82,0,1.65.02,2.47.03,1.25.05,2.51.18,3.74.09.96.4,1.89.51,2.84.03.21.08.41.09.62,0,.4-.04.66-.16.85-.15.2-.32.32-.56.42-.11.05-.21.11-.31.14-.17.05-.33,0-.52-.12-.18-.13-.42-.33-.54-.61-.83-1.65-.96-3.45-1.11-5.27-.1-1.35-.12-2.72-.15-4.08h.06Z"/><path class="cls-1" d="m111.21,302.29c.39,1.4.85,2.78,1.28,4.17.5,1.36.96,2.75,1.52,4.09.41.98.89,1.93,1.29,2.91,1.54,3.41,3.23,6.76,5.26,9.92.43.71.94,1.38,1.42,2.05.5.67.96,1.36,1.51,1.98l2.08,2.41c.76.74,1.38,1.61,2.05,2.45.4.54.16.68-.48.52-.62-.17-1.75-.54-2.72-1.36-3.21-3.14-6-6.73-8.01-10.77-1.22-2.4-2.63-4.81-3.75-7.31-.61-1.38-1.22-2.76-1.73-4.17l-.79-2.11-.71-2.14c-.3-.87-.58-1.76-.82-2.65-.25-.89-.52-1.77-.75-2.67-.7-2.71-1.26-5.47-1.74-8.2-.2-1.06-.42-2.11-.59-3.17-.2-1.05-.35-2.11-.43-3.19-.04-.47-.11-.93-.13-1.41,0-.89.1-1.48.24-1.89.13-.41.29-.64.51-.83.1-.08.19-.19.28-.24.29-.16.61.56.93,1.79.39,1.84.7,3.71,1.09,5.6.14.95.34,1.9.53,2.85.18.96.36,1.91.6,2.87l.48,2.13c.19.7.36,1.41.53,2.12.31,1.43.76,2.82,1.14,4.24l-.06.02Z"/><path class="cls-1" d="m147.52,310.73c.61,1.4,1.25,2.81,1.99,4.16.25.5.62.94.89,1.43.99,1.72,2.06,3.42,3.31,4.97.52.73,1.16,1.34,1.77,1.97.43.37.82.77,1.21,1.18.39.4.79.81,1.16,1.26.23.28.04.47-.39.53-.42.05-1.13.03-1.76-.31-.5-.34-1.08-.63-1.52-1.04-.46-.4-.89-.83-1.33-1.26-.86-.87-1.58-1.86-2.22-2.9-.77-1.24-1.74-2.39-2.52-3.65-.87-1.38-1.63-2.82-2.35-4.27-.4-.92-.83-1.82-1.19-2.75-.59-1.39-1.06-2.84-1.51-4.27-.35-1.11-.79-2.19-1.06-3.33-.06-.25-.15-.49-.19-.75-.13-.97-.02-1.29.47-1.54.11-.06.22-.13.33-.16.38-.12.76.22.99.84.69,1.85,1.41,3.74,2.2,5.63.57,1.41,1.11,2.85,1.8,4.24l-.05.03Z"/><path class="cls-1" d="m159.84,297.21c-.57.84-1.16,1.65-1.76,2.46-.22.3-.37.63-.61.92-.83,1-1.76,1.94-2.7,2.85-.45.38-.85.8-1.29,1.18-.54.5-1.15,1-1.91,1.22-.23.07-.31-.18-.3-.53.02-.36.09-.79.31-1.09.87-1,1.47-2.24,2.58-3.16.3-.3.56-.65.8-1.01.23-.37.44-.76.7-1.11.54-.79,1.1-1.59,1.62-2.4.31-.51.64-1.01.93-1.53.45-.78.89-1.58,1.24-2.41.29-.63.35-1.35.59-1.98.05-.14.08-.29.14-.42.24-.5.54-.58,1.02-.55.11,0,.23,0,.33.02.34.05.58.37.69.88.2,1.47-.24,2.8-.8,4.04-.45.91-.98,1.79-1.51,2.66l-.06-.03Z"/><path class="cls-1" d="m176.3,275.91l4.34-3.75c.72-.63,1.48-1.23,2.23-1.83l1.14-.9.59-.45c.11-.09.14-.09.19-.14.27-.06.12-.29.05-.46-.73-1.44-1.65-2.89-2.47-4.36-2.95-5.19-6.04-10.33-9.16-15.45-1.39-2.26-2.87-4.49-4.35-6.68-1.9-2.8-3.96-5.52-5.56-8.49-.49-.92-.3-.94.59-.49.93.42,2.39,1.43,3.61,2.98,4.13,5.62,7.99,11.39,11.53,17.43,2.09,3.64,4.53,7.24,6.7,10.97.48.83.95,1.67,1.41,2.53l.46.89c.16.35.32.71.4,1.05.04.17.07.34.06.5-.02.08-.02.16-.07.24-.01.04-.04.08-.06.12h0s0,0,0,0c.04.01-.08-.02.08.03h0s0,.02,0,.02l-.02.02-.03.05c-.1.13-.16.26-.28.39l-.41.37c-.45.33-.92.71-1.12.88l-.79.66-1.58,1.36-3.16,2.74-6.54,5.72-2.51,2.15-1.29,1.06c-.57.44-1.22,1-1.86,1.23-.3.07-.67.27-.95,0-.26-.24-.53-.42-.77-.75-.24-.3-.5-.58-.72-.9l-.51-.69c-.64-.88-1.29-1.77-1.93-2.64-2-2.72-4.12-5.25-6.3-7.73-.49-.53-.97-1.06-1.46-1.59-.46-.49-.82-.91-1.12-1.27-.3-.35-.54-.63-.69-.92-.29-.58-.37-1-.36-1.46,0-.2-.04-.42-.02-.57.04-.25.32-.25.88-.11.58.13,1.35.52,2.12,1.23,2.3,2.07,4.37,4.42,6.36,6.86.99,1.22,1.96,2.47,2.91,3.74.81,1.1,1.62,2.2,2.44,3.3h0s-.04.04.08-.05c.8-.65,1.74-1.46,2.6-2.21l5.28-4.67.06.05Z"/><path class="cls-1" d="m394.23,364.81c-.67-4.25-2.98-8.27-6.19-11.43l-1.89-1.58c-.65-.5-1.37-.91-2.04-1.4-4.88-3.2-10.81-4.86-16.8-5.36-.66-.08-1.34-.09-2.01-.11-.67,0-1.34-.05-2.01-.04-1.34.06-2.69.05-4.01.22-3.41.35-6.79.9-10.26,1.25-1.08.11-1-.11-.2-.69.81-.52,2.29-1.75,4.29-2.28,7.07-1.81,14.67-1.89,21.86.12,4.27,1.19,8.72,2.79,12.46,5.53.53.35.98.8,1.47,1.2.47.42.99.8,1.42,1.26l1.29,1.4.64.7c.2.24.38.51.57.76.74,1.03,1.52,2.02,2.07,3.19.3.57.62,1.12.89,1.69l.66,1.8c.99,2.98,1.36,6.17,1,9.26-.52,4.71-2.55,9.08-5.14,12.86-2.05,2.93-4.4,5.6-7.24,7.82-.63.47-1.21,1.01-1.91,1.4-1.26.79-2.18,1.17-2.88,1.27-.35.06-.64.07-.9.03-.27-.06-.5-.17-.72-.29-.2-.12-.43-.2-.56-.32-.41-.35.35-1.51,1.99-2.52,2.41-1.63,4.68-3.53,6.71-5.7,2.02-2.18,3.84-4.61,5.15-7.3.91-2,1.76-4.08,2.09-6.24.27-1.07.26-2.16.35-3.25.04-.54-.06-1.08-.08-1.62-.05-.54-.03-1.09-.18-1.61l.08-.02Z"/><path class="cls-1" d="m190.8,143.3c-1.18,1.99-2.49,3.89-3.93,5.7-.52.66-1.01,1.35-1.59,1.97-2.04,2.17-4.34,4.11-6.89,5.66-1.11.71-2.3,1.32-3.5,1.87l-1.18.48-1.23.38c-.42.1-.85.12-1.28.17-.42.06-.86,0-1.3-.11-.54-.14-.46-.28-.08-.71.38-.48,1.02-1.15,1.8-1.5,1.43-.48,2.81-1.11,4.14-1.89,1.34-.74,2.65-1.6,3.95-2.54,1.56-1.13,2.83-2.71,4.07-4.25,1.38-1.68,2.68-3.45,3.84-5.33.71-1.15,1.39-2.33,1.99-3.55.91-1.84,1.76-3.74,2.34-5.7.45-1.52.62-3.08.77-4.6.05-.33.05-.66.11-.99.18-1.23.33-1.6,1.05-1.86.15-.06.29-.14.41-.18.37-.14.99.43,1.08,1.47.1.77.14,1.56.12,2.34-.05.78-.17,1.55-.32,2.32-.3,1.54-.77,3.05-1.32,4.53-.81,2.2-1.85,4.3-2.99,6.34l-.06-.03Z"/><path class="cls-1" d="m256.54,144.53c1.47,1.01,2.53,2.41,3.2,3.87.68,1.46,1.05,2.99,1.2,4.53.09,1.12.14,2.26-.07,3.39-.08.5-.22.99-.37,1.48l-.27.73-.31.65c-.2.44-.43.86-.69,1.27-.23.42-.51.81-.8,1.2-1.14,1.55-2.56,2.87-4.17,3.88-1.43.88-3.01,1.58-4.66,1.91-1.05.21-2.14.34-3.22.26-.54-.04-1.07-.14-1.58-.3-.26-.08-.52-.14-.76-.24-.25-.11-.47-.29-.7-.42-.56-.39-.43-.43.18-.64.63-.26,1.64-.61,2.66-.71.91.02,1.8-.1,2.68-.27.87-.21,1.71-.49,2.53-.85,1.64-.71,3.14-1.8,4.41-3.18.77-.82,1.39-1.82,1.82-2.89.48-1.06.64-2.1.71-3.24.09-2.46-.58-5.13-2.18-6.91-.49-.55-1.03-1-1.71-1.33-.33-.17-.66-.37-1.02-.45-.35-.12-.7-.24-1.07-.26-2.22-.4-4.6.67-6.3,2.34-1.35,1.31-2.22,3.01-2.87,4.72-.13.39-.25.76-.38,1.15-.26.71-.49,1.16-.72,1.46-.29.29-.56.45-.89.55-.15.05-.29.13-.42.15-.21.04-.36-.12-.5-.46-.13-.34-.34-.9-.23-1.54.07-.47.09-.98.23-1.45.14-.47.28-.94.45-1.41.19-.46.39-.92.6-1.38.24-.44.49-.89.75-1.34,1.11-1.74,2.62-3.33,4.58-4.46,1.43-.84,3.17-1.4,4.97-1.36,1.81.03,3.5.62,4.98,1.51l-.04.07Z"/><path class="cls-1" d="m376.86,238.66c2.61.39,5.28.53,7.93.37.97-.06,1.92-.23,2.87-.37,1.67-.23,3.35-.57,4.88-1.14.77-.27,1.5-.63,2.11-1.05.62-.43,1.07-.86,1.17-1.37.11-.48-.05-1.13-.35-1.74-.29-.62-.72-1.22-1.19-1.78-.62-.71-1.28-1.41-1.97-2.09l-.52-.51-.48-.57c-.33-.37-.66-.74-1.02-1.09-.44-.44-.34-.5.27-.46.3.02.74.06,1.26.15.26.04.54.1.83.18.15.03.29.09.45.12.13.08.26.16.39.24,1.85,1.2,3.5,2.71,4.59,5.1.24.63.47,1.31.46,2.14.05.8-.26,1.73-.71,2.41-.93,1.28-2.05,1.85-3.11,2.32-2.55,1.05-5.12,1.79-7.74,2.14-2.87.37-5.75.37-8.6.14-1.75-.14-3.49-.43-5.21-.77-2.6-.54-5.16-1.34-7.61-2.32-1.91-.74-3.81-1.49-5.61-2.49-.4-.21-.8-.42-1.18-.68-.69-.5-1.08-.91-1.29-1.28-.21-.36-.23-.69-.14-1.08.04-.18.06-.36.13-.51.22-.49,1.05-.45,2.08.05.82.31,1.55.74,2.33,1.11.76.4,1.55.75,2.33,1.11,1.58.72,3.22,1.35,4.9,1.9,2.5.81,5.09,1.41,7.74,1.72v.07Z"/><path class="cls-1" d="m121.56,287.94c2.1,1.42,4.3,2.73,6.62,3.75.84.38,1.73.64,2.59.94,1.52.53,3.07.96,4.62,1.17,1.54.19,3.12.12,4.35-.54.54-.33.93-.7,1.1-1.21.18-.5.16-1.12,0-1.74-.19-.81-.59-1.61-1.04-2.39-.22-.4-.48-.77-.68-1.19-.2-.42-.4-.85-.62-1.28-.26-.54-.04-.64.57-.49.31.08.72.22,1.19.43.23.11.5.23.71.4.21.18.4.39.58.64.61.87,1.17,1.82,1.55,2.96.35,1.12.51,2.6-.19,4.01-.36.66-.89,1.27-1.42,1.62-.26.2-.54.38-.83.51-.28.15-.57.29-.86.37-1.16.4-2.32.51-3.42.45-2.61-.13-5.14-.64-7.51-1.5-2.59-.96-5.01-2.22-7.32-3.64-1.42-.88-2.79-1.83-4.12-2.83-2.01-1.52-3.89-3.22-5.69-4.95-1.4-1.35-2.82-2.66-4.03-4.19-.27-.34-.56-.64-.79-1.01-.47-.65-.64-1.18-.71-1.57-.03-.2-.03-.37,0-.52.04-.17.12-.32.2-.46.07-.13.12-.27.18-.36.16-.26,1.02-.03,1.79.77,1.16,1.17,2.33,2.35,3.51,3.55,1.16,1.2,2.37,2.41,3.65,3.54,1.89,1.69,3.91,3.28,6.05,4.69l-.03.06Z"/><path class="cls-1" d="m388.62,279.6c-2.17,4.86-4.6,9.64-7.54,14.13-.49.84-1.08,1.63-1.62,2.45-.56.8-1.08,1.64-1.7,2.4-2.19,2.68-4.49,5.3-7.19,7.51-.68.55-1.28,1.14-2.03,1.66-.38.26-.76.52-1.14.76l-1.2.63c-1.64.74-3.32,1.35-5.07,1.66-3.07.63-6.29.65-9.35-.12-1.95-.5-3.9-1.3-5.48-2.64-1.57-1.3-2.97-2.99-3.36-5.01-.32-1.22-.11-1.07.73-.37.42.35,1,.82,1.69,1.3.65.52,1.4,1.02,2.08,1.69,1.31,1.07,2.85,1.86,4.51,2.35,1.67.49,3.45.61,5.23.56,3.56-.14,7.18-1.25,10.06-3.22,3.68-2.69,6.75-6.42,9.48-10.24,3-4.22,5.59-8.79,7.81-13.54.69-1.46,1.32-2.95,1.98-4.42.63-1.49,1.22-3,1.82-4.5,1.74-4.59,3.38-9.24,4.82-13.91,1.09-3.64,1.97-7.26,3.02-10.87.23-.8.43-1.58.67-2.38.93-2.96,1.56-3.8,2.15-4.32.14-.12.28-.28.39-.34.18-.1.25.17.25.75,0,.59-.04,1.49-.22,2.62-.24,1.68-.64,3.34-.98,5.03-.37,1.69-.71,3.4-1.16,5.1-.88,3.4-1.86,6.84-2.92,10.26-1.6,5.08-3.54,10.1-5.66,15.04l-.07-.02Z"/><path class="cls-1" d="m239.67,235.51c-.09-.18-.11-.39-.15-.57-.01-.07-.06-.12-.06-.19-.01-.25.01-.48.04-.7,0-.09,0-.19-.02-.27-.02-.11-.07-.24.05-.35.07-.06.95.11,1,.16.06.13.09.22,0,.39-.05.1.05.16.09.24.04.09.07.18.11.27.02.06.04.12.08.18.05.08.1.17.2.21.07.02.19-.04.27-.07.02,0,.04-.02.05-.03.05,0,.03.1-.09.48l-.08.26c-.09.29-.21.52-.32.58-.34.19-.63.08-.83-.11-.16-.13-.27-.31-.38-.47l.03-.02Z"/><path class="cls-1" d="m245.07,230.35c.02-.21.03-.42.02-.62,0-.07-.05-.13-.05-.21-.01-.27-.02-.55-.09-.8-.03-.12-.09-.21-.15-.3-.09-.12-.21-.2-.19-.39,0-.12.87-.58,1.03-.46.24.23.43.51.47.87.02.21.18.36.27.54.09.2.15.42.22.63.04.13.06.27.09.4.05.2.06.41.15.6.05.15.19.27.27.41.02.03.05.06.06.09.04.13-.06.19-.44.3l-.26.08c-.3.08-.56.09-.68.03-.35-.17-.6-.35-.64-.6-.05-.18-.07-.36-.11-.55l.04-.02Z"/><path class="cls-1" d="m211.24,235.59c-.15.2-.3.42-.42.65-.05.08-.05.18-.09.26-.15.3-.31.61-.44.93-.05.15-.06.3-.07.45,0,.19.04.38-.07.58-.06.13-.86.01-.93-.25-.09-.45-.09-.92.1-1.35.12-.25.14-.54.22-.8.1-.29.23-.56.37-.83.09-.16.18-.32.27-.48.14-.24.3-.47.44-.71.11-.18.16-.4.26-.6.02-.04.03-.09.06-.13.11-.14.21-.13.49.06l.19.13c.2.15.32.34.32.48-.02.41-.09.74-.27,1.02-.13.2-.29.4-.41.62h-.03Z"/><path class="cls-1" d="m229.35,260.45c.23,1.44.53,2.87.84,4.29.11.52.3,1.02.42,1.54.45,1.82.95,3.64,1.65,5.38.3.78.7,1.52,1.06,2.26l.76,1.4c.27.46.49.94.68,1.46.11.32-.12.42-.52.34-.38-.09-1.03-.32-1.4-.84-.63-.93-1.3-1.87-1.76-2.9-.47-1.03-.88-2.09-1.19-3.19-.38-1.3-.92-2.6-1.31-3.93-.43-1.46-.75-2.94-1.03-4.42-.17-.91-.33-1.83-.48-2.74-.21-1.38-.43-2.77-.64-4.14-.16-1.06-.46-2.09-.63-3.14-.04-.23-.09-.46-.11-.69-.09-.87,0-1.16.37-1.41.08-.05.17-.12.25-.16.29-.12.6.19.83.8.74,1.81,1.12,3.76,1.52,5.71.25,1.45.47,2.92.75,4.36h-.05Z"/><path class="cls-1" d="m121.69,301.89c1.1.58,2.23,1.12,3.4,1.55.42.17.87.28,1.3.43,1.52.52,3.08.98,4.68,1.23.71.13,1.43.18,2.14.24l1.38.05c.46,0,.92,0,1.38.04.58.03-.13.51-1.21.6-1.91.08-3.84-.03-5.73-.45-1.13-.24-2.32-.46-3.45-.81-1.24-.38-2.46-.85-3.64-1.39-.73-.33-1.44-.69-2.15-1.07-1.07-.56-2.07-1.26-3.07-1.91-.76-.53-1.55-1.01-2.28-1.58-.16-.13-.32-.25-.46-.39-.55-.53-.67-.75-.64-1.03,0-.06,0-.13.02-.18.06-.17.39-.08.87.2.35.21.7.42,1.06.62l1.03.68c.7.44,1.4.9,2.13,1.32,1.08.61,2.14,1.28,3.26,1.84v.03Z"/><path class="cls-1" d="m376.75,255.54c-1.33.09-2.67.14-4,.11-.48,0-.97.02-1.45,0-1.71-.1-3.4-.34-5.07-.64-.74-.13-1.48-.26-2.22-.39-.94-.18-1.88-.38-2.79-.7-.57-.18.3-.51,1.37-.34,1.9.32,3.8.53,5.72.75,1.15.15,2.36.09,3.54.1,1.3,0,2.6-.04,3.9-.15.8-.07,1.6-.15,2.39-.28,1.2-.18,2.4-.41,3.57-.72.45-.13.89-.28,1.33-.44.43-.17.86-.35,1.3-.49l.57-.21c.72-.24.98-.23,1.25.01.06.06.13.11.18.16.16.2-.07.5-.57.8-1.48.92-3.21,1.51-4.99,1.87-1.32.27-2.67.45-4.01.57v-.03Z"/><path class="cls-1" d="m324.7,394.14l-2.12-3.02c-.26-.37-.52-.73-.78-1.1-.89-1.31-1.77-2.63-2.69-3.92-.4-.57-.83-1.14-1.25-1.69-.54-.71-1.1-1.41-1.59-2.17-.31-.47.51-.2,1.19.58,1.17,1.41,2.32,2.83,3.38,4.33.63.9,1.38,1.77,2.07,2.66.76.98,1.48,1.99,2.22,2.98l1.36,1.84c.69.93,1.38,1.86,2.08,2.77.55.7,1.14,1.35,1.71,2.02.13.15.25.29.37.45.43.58.51.82.38,1.11-.03.07-.05.14-.09.2-.13.18-.45.06-.85-.31-1.18-1.08-2.22-2.38-3.23-3.71-.73-1-1.46-2.01-2.19-3.01l.02-.02Z"/><path class="cls-1" d="m330.95,419.16l.64-.07.13-.02s.02,0,.03,0c.01,0,.03,0,.04-.01,0,.01.17-.16.28-.26.12-.1.23-.24.35-.37.23-.26.46-.51.68-.8.45-.55.86-1.13,1.28-1.72.39-.57.74-1.16,1.12-1.74,1.34-2.03,2.62-4.12,3.81-6.26.52-.95,1.01-1.93,1.5-2.88.62-1.24,1.18-2.5,1.83-3.72.2-.38.39-.25.46.18.08.43.06,1.17-.23,1.93-.53,1.33-1.07,2.66-1.71,3.94-.68,1.26-1.39,2.51-2.16,3.72-.93,1.45-1.76,3.04-2.71,4.53-.52.8-1.06,1.59-1.63,2.37-.3.38-.57.77-.9,1.14l-.48.56-.58.59-.13.09c-.21.07-.44.17-.63.18-.17.03-.31.03-.47.05-.31.03-.6.04-.9.06l-1.79.08c-1.8.05-3.6.1-5.39.15-1.38.06-2.75.11-4.12.17-.3,0-.6.02-.9.02-1.13,0-1.49-.11-1.72-.4-.05-.07-.12-.13-.15-.2-.1-.22.36-.39,1.18-.45,2.43-.19,4.99-.34,7.56-.49,1.9-.12,3.84-.22,5.71-.42v.04Z"/><path class="cls-1" d="m253.88,417.76c1.08,0,2.16,0,3.24-.03.54-.02,1.08-.03,1.6-.06.27-.01.53-.03.77-.05l.36-.03s.06,0,.09-.02c.01.03.3-.33.5-.61l.66-.94c.8-1.12,1.57-2.28,2.33-3.45.76-1.17,1.54-2.33,2.29-3.51.66-1.05,1.28-2.13,1.88-3.21.82-1.35,1.64-2.71,2.52-4.03.28-.41.36-.29.33.16-.04.45-.16,1.26-.5,2.12l-.95,2.26c-.34.74-.76,1.44-1.15,2.15-.8,1.42-1.64,2.81-2.54,4.18-1.12,1.62-2.1,3.39-3.31,5.06-.16.23-.34.46-.54.69-.1.11-.18.23-.38.39-.17.15-.34.29-.57.34-.5.15-.68.11-1,.17-.29.03-.56.04-.85.06-1.12.06-2.22.08-3.32.1l-4.07.02c-2.05,0-4.11-.03-6.15-.08-1.58-.03-3.14.01-4.71-.05-.35-.02-.69-.01-1.04-.06-1.3-.18-1.71-.38-1.93-.73-.05-.08-.12-.16-.14-.23-.07-.24.46-.33,1.39-.38,2.75-.14,5.68-.22,8.61-.27,2.18.01,4.37.04,6.55,0v.04Z"/><path class="cls-1" d="m196.02,409.83c-1.06,1.64-2.11,3.29-3.16,4.96-.38.61-.72,1.24-1.13,1.85l-.35.5c-.08.14-.36.47-.57.68-.4.21-.89.33-1.12.35-.28.05-.56.09-.83.12-.55.07-1.08.12-1.62.17-1.08.1-2.15.17-3.23.24-1.13.08-2.26.16-3.38.24-.72.03-1.44.06-2.17.05-.37,0-.73-.03-1.09-.11-.36-.07-.73-.15-1.08-.26-.45-.14-.35-.29.05-.49.4-.17,1.08-.58,1.88-.69,2.82-.25,5.71-.38,8.6-.58.55-.03,1.1-.1,1.65-.18.28-.04.54-.09.8-.15.12-.02.28-.07.34-.08.05,0,.09-.03.13-.05.05-.05.05-.04.12-.16l.25-.39.5-.83,3.12-5.05,1.96-3.09c1.01-1.55,2.03-3.11,3.04-4.65.79-1.19,1.55-2.38,2.4-3.53.19-.25.38-.5.59-.74.37-.46.68-.72.95-.85.26-.14.46-.16.67-.12.1.02.21.03.28.06.26.12.1.63-.34,1.31-.66,1.04-1.32,2.11-1.96,3.23-.33.56-.66,1.12-.99,1.68l-1.07,1.64c-1.07,1.64-2.14,3.29-3.18,4.97l-.04-.02Z"/><path class="cls-1" d="m330.34,422.09c-3.36.19-6.52.06-9.74,0-1.17-.03-2.34.02-3.5-.03l-12.31-.45c-1.82-.05-3.65-.03-5.45,0-1.16.03-2.32.08-3.48.05-.58,0-1.16-.02-1.74-.04l-.87-.04c-.29-.03-.58-.12-.87-.17-.73-.18-.64-.31-.04-.7.6-.48,1.72-1.04,3.06-1.15,2.38-.27,4.75-.2,7.13-.21,2.38.02,4.76.1,7.14.23,2.86.17,5.83.04,8.74.04,3.2,0,6.42.01,9.59-.12.97-.05,1.95-.1,2.85-.23.5-.1.69-.08.88-.26.05-.05.08-.08.14-.15l.22-.27.44-.57c1.76-2.37,3.48-4.85,5.04-7.36,1.21-1.96,2.21-4,3.37-5.94.25-.43.47-.87.73-1.3.45-.81.9-1.26,1.21-1.58.32-.31.59-.46.88-.53.13-.03.28-.1.39-.1.35-.03.3.81-.08,2.2-.13.52-.33,1-.53,1.49-.2.49-.4.98-.61,1.47-.44.97-.82,1.99-1.37,2.91-1.05,1.87-2.21,3.72-3.4,5.55-.89,1.35-1.81,2.69-2.77,4.03l-.74,1-.39.51-.22.27c-.09.13-.25.28-.38.42-.27.29-.61.49-.97.63-.18.07-.36.15-.55.2l-.45.09c-.5.09-.93.13-1.36.17v-.07Z"/><path class="cls-1" d="m306.56,296.89c-.79-.01-1.58-.03-2.36-.04-.29,0-.57,0-.86,0-1.01-.02-2.03-.04-3.03-.06-.45,0-.9,0-1.34,0-.57,0-1.15.01-1.72,0-.36,0,.09-.11.75-.19,1.17-.1,2.33-.2,3.51-.22.7,0,1.44-.05,2.16-.07.79-.02,1.58-.04,2.38-.05.49,0,.98-.02,1.46-.03.74,0,1.48-.01,2.21-.02.57-.02,1.13-.06,1.69-.09.12,0,.25-.01.37-.02.46-.02.61.04.71.15.02.03.05.05.07.08.05.09-.14.17-.48.23-1,.14-2.06.23-3.13.29-.79.06-1.58.07-2.38.05v-.02Z"/><path class="cls-1" d="m317.59,307.37c-.92.04-1.84.01-2.76.02-.34.01-.67.03-1.01.04-1.18.01-2.37.03-3.55.1-.53.04-1.05.07-1.57.11-.67.06-1.34.13-2.01.13-.21,0-.19-.09-.03-.21.16-.12.47-.29.85-.38.67-.15,1.35-.29,2.03-.4.68-.09,1.37-.12,2.07-.14.83-.02,1.69-.14,2.53-.2.93-.06,1.86-.12,2.79-.12.57,0,1.15,0,1.72-.01.87-.01,1.74,0,2.6-.03.67-.01,1.32-.1,1.99-.1.15,0,.29-.01.44,0,.55.02.72.08.84.28.03.04.06.09.08.13.05.15-.17.28-.57.35-1.18.24-2.41.32-3.66.36-.92.04-1.85.07-2.78.11v-.03Z"/><path class="cls-1" d="m319.38,311.05c-.45,0-.89.02-1.34,0-.17,0-.32,0-.49,0-.57-.04-1.15-.09-1.71-.13-.26-.01-.5-.03-.76-.04-.32-.01-.65-.02-.97-.08-.2-.03.07-.29.44-.3.65,0,1.31,0,1.96.04.39.03.8-.01,1.21-.02.44-.02.89,0,1.33-.02.27,0,.55-.02.82-.02.41-.02.83-.04,1.24-.09.32-.04.62-.11.93-.16.07-.01.14-.03.2-.04.26-.03.34-.01.42.1.02.03.04.05.05.08.04.09-.06.18-.24.25-.55.19-1.14.3-1.75.35-.45.05-.9.07-1.35.09h0Z"/><path class="cls-1" d="m401.64,415.2l4.21.38c.51.02,1.02.05,1.54.07,1.81.15,3.62.28,5.43.35.8.03,1.61.02,2.41,0,1.02.02,2.05.05,3.08.15.32.03.28.11.01.24-.27.12-.76.34-1.35.45l-1.57.25c-.52.07-1.05.07-1.57.1-1.05.04-2.1.05-3.16,0-1.26-.06-2.58.05-3.87.07-1.42,0-2.84,0-4.27-.06l-2.62-.11c-1.32-.05-2.65-.14-3.97-.14-1.02,0-2.03.1-3.04.12-.22,0-.44.03-.67.02-.83,0-1.09-.29-1.24-.75-.04-.11-.08-.22-.1-.32-.06-.34.29-.65.91-.86.91-.17,1.84-.28,2.77-.34.94-.04,1.88.02,2.83.06,1.41.09,2.83.17,4.24.26v.05Z"/><path class="cls-1" d="m223.59,349.92l.71.12c.24.04.47.09.8.17.19.06.4.14.59.23.17.11.37.26.49.37.18.18.38.36.54.53.67.69,1.29,1.38,1.92,2.08.45.51.94.98,1.38,1.5,1.56,1.82,2.99,3.75,4.4,5.68.64.85,1.28,1.7,1.92,2.54.85,1.06,1.58,2.22,2.11,3.49.17.39-.03.44-.42.27-.4-.17-1.01-.53-1.56-1.08-.48-.48-.89-1.01-1.31-1.55l-1.26-1.59c-.85-1.05-1.69-2.13-2.52-3.22-1-1.3-2.19-2.53-3.32-3.77-.62-.68-1.24-1.37-1.87-2.03-.32-.33-.63-.66-.95-.98l-.42-.4c-.09-.08-.13-.09-.34-.14-1.03-.2-2.21-.36-3.33-.43-1.72-.13-3.45-.38-5.17-.46-1.33-.11-2.65-.1-3.98-.18-.29-.02-.58-.01-.87-.05-1.08-.15-1.42-.36-1.6-.84-.04-.11-.1-.22-.12-.33-.06-.36.41-.61,1.21-.72,1.19-.16,2.41-.19,3.65-.23.62-.01,1.24-.03,1.86,0l1.87.17c.93.1,1.86.17,2.78.34.93.18,1.85.37,2.8.48v.05Z"/><polygon class="cls-4" points="209.74 293.2 230.7 326.21 218.44 349.27 180.21 348.19 209.74 293.2"/><polygon class="cls-3" points="246.24 347.98 275.44 290.32 305.73 330.63 297.66 347.4 246.24 347.98"/><path class="cls-1" d="m246.24,347.98s52.48-3.96,52.81-2.89c.32,1.07-.99,2.71-3.25,2.89s-49.55,0-49.55,0Z"/><path class="cls-1" d="m220.41,349.57s-.2-.92-5.64-.92c-10.11,0-29.77.53-31.9-3.24-1.31-2.32-5.17,4.42,2.4,5.28,7.57.86,35.15-1.12,35.15-1.12Z"/><path class="cls-4" d="m177.85,353.93s22.56,32.37,24.61,43.05c.73,3.81-2.25,6.14-4.39,9.59-3.84,6.22-8.81,10.54-8.81,10.54l-44.25-.18,32.83-62.99Z"/><polygon class="cls-4" points="244.97 356.03 272.69 400.96 260.4 418.41 215 418.1 244.97 356.03"/><polygon class="cls-3" points="317.99 358.63 286.98 419.94 333.63 420.36 343.06 400.3 317.99 358.63"/><path class="cls-1" d="m230.53,358.18l-1.59-2.05c-.19-.25-.43-.46-.61-.72-.62-.93-1.24-1.86-1.86-2.78-.27-.41-.56-.82-.85-1.2-.38-.5-.77-.99-1.04-1.57-.08-.18.08-.27.34-.27.26,0,.65.08.93.32.96.86,1.9,1.71,2.55,2.83.41.65,1.01,1.18,1.51,1.79l1.6,2.02,1,1.24c.51.62,1.01,1.26,1.56,1.83.43.44.92.82,1.36,1.23.1.09.2.17.3.27.35.36.39.54.23.86-.04.07-.07.15-.11.21-.15.21-.44.22-.78.03-1-.56-1.91-1.3-2.76-2.11-.63-.6-1.25-1.21-1.82-1.88l.03-.03Z"/><path class="cls-1" d="m305.44,367.18c-.44-.88-.89-1.76-1.37-2.63-.18-.31-.36-.62-.55-.93-.6-1.12-1.23-2.22-1.87-3.32-.27-.5-.58-.97-.88-1.45-.39-.6-.79-1.21-1.13-1.84-.11-.2-.02-.22.17-.13.19.1.51.3.8.61.96,1.12,1.98,2.22,2.66,3.55.43.78.99,1.52,1.47,2.29.53.85,1.04,1.71,1.54,2.57l.9,1.61c.46.81.89,1.64,1.36,2.44.37.62.81,1.18,1.16,1.8.08.13.17.26.24.4.28.51.26.74.05.99-.05.06-.09.12-.14.17-.15.14-.48.05-.77-.27-.42-.49-.85-.99-1.22-1.54-.35-.55-.69-1.13-1.02-1.71-.48-.86-.97-1.73-1.45-2.6l.03-.02Z"/><path class="cls-1" d="m309.54,343.46c-.43-.77-.86-1.55-1.28-2.32-.16-.28-.34-.55-.49-.83-.51-1.02-1.03-2.05-1.54-3.06-.25-.44-.48-.9-.71-1.34-.3-.57-.6-1.15-.8-1.77-.06-.2.06-.23.27-.16.21.08.55.24.8.52.43.5.86,1,1.26,1.51.34.55.66,1.12.95,1.72.34.71.87,1.35,1.31,2.03.48.75.91,1.53,1.37,2.29l.83,1.42c.42.71.84,1.44,1.28,2.14.33.55.74,1.04,1.07,1.58.07.12.14.24.2.37.21.49.19.69,0,.92-.05.05-.08.11-.13.16-.16.14-.43.05-.74-.2-.24-.2-.46-.4-.68-.59-.2-.21-.39-.44-.58-.66-.38-.45-.77-.9-1.05-1.42-.45-.76-.9-1.52-1.35-2.28l.04-.02Z"/><path class="cls-1" d="m235.64,336.91l-1.57-2.16c-.2-.26-.42-.49-.6-.77-.64-.96-1.27-1.92-1.93-2.85-.31-.41-.61-.81-.91-1.22-.4-.51-.81-1.01-1.12-1.59-.1-.18.05-.27.31-.26.25.01.64.1.92.35.49.45.98.9,1.44,1.38.44.5.82,1.04,1.19,1.6.43.67,1.03,1.26,1.54,1.89l1.61,2.15,1,1.32c.52.65.99,1.35,1.52,1.99.41.49.87.93,1.28,1.42.09.11.19.2.28.31.32.42.36.6.21.87-.03.06-.06.13-.1.18-.13.17-.41.13-.73-.11-.47-.35-.94-.72-1.39-1.11-.44-.41-.86-.84-1.27-1.28-.63-.64-1.14-1.38-1.71-2.08l.03-.03Z"/><path class="cls-1" d="m249.06,287.93l14.64-.42,5.34-.2c6.28-.15,12.56-.26,18.84-.3,2.79-.02,5.59-.03,8.36-.05,3.55.02,7.16-.07,10.69.81,1.1.23.91.34-.05.47-.55.07-1.22.15-1.95.24-.39.03-.84.13-1.3.17-.46.04-.95.07-1.46.08-3.59,0-7.2,0-10.82.06-3.62,0-7.25,0-10.91,0-4.37-.02-8.91.23-13.38.37l-14.74.47c-3.03.1-6.05.2-9.08.3-4.58.15-9.19.3-13.73.45-3.54.12-7,.36-10.51.4-.77,0-1.53,0-2.31.01-1.44.01-2.4-.12-3.07-.24-.67-.12-1.05-.27-1.34-.47-.13-.09-.31-.18-.39-.27-.25-.29.94-.48,3.02-.57,1.55-.1,3.13-.17,4.72-.24,1.59-.11,3.2-.2,4.82-.24,3.25-.12,6.54-.24,9.84-.36,4.91-.17,9.84-.34,14.76-.51v.05Z"/><path class="cls-1" d="m400.41,417.73c1.99.13,3.97.25,5.96.34.73.03,1.45,0,2.18.05,2.56.14,5.12.27,7.67.41,1.13.05,2.27.06,3.4.06,1.45-.05,2.9.13,4.35.28.45.05.39.1.01.22-.38.11-1.08.36-1.91.52-1.47.32-2.95.29-4.43.37-1.48.05-2.96.07-4.45.01-1.78-.1-3.64.02-5.46.02l-6.01-.06-3.7-.08c-1.87-.04-3.74-.12-5.6-.1-1.44,0-2.86.19-4.29.19-.31,0-.62.03-.94.02-1.18-.02-1.55-.25-1.78-.78-.05-.12-.12-.24-.15-.35-.1-.36.39-.75,1.25-.9,1.27-.18,2.58-.41,3.9-.43,1.32-.04,2.66-.04,4.01-.02,2,.03,4.01.09,6.01.16v.06Z"/><path class="cls-1" d="m385.73,420.89l7.75.08c.94,0,1.88-.04,2.83-.02,3.32.06,6.64.13,9.96.14,1.47,0,2.95-.04,4.41-.11.94-.03,1.88-.06,2.82-.08.94-.05,1.88.07,2.82.13.59.05.52.2.03.44-.48.21-1.38.7-2.46.85l-2.88.23c-.96.05-1.92.06-2.89.07-1.93.02-3.85,0-5.79-.07-2.32-.09-4.72.03-7.09.03l-7.81-.07-4.8-.03c-2.42,0-4.86-.02-7.27.04-1.87.06-3.7.17-5.55.26-.41.02-.81.03-1.21.05-1.52.02-2.01-.07-2.35-.4-.08-.07-.18-.15-.22-.22-.15-.25.46-.48,1.57-.64,3.3-.48,6.79-.65,10.3-.69,2.6-.04,5.22-.03,7.83-.04v.04Z"/><path class="cls-1" d="m130.25,417.74l-6.15-.05c-.75,0-1.49.06-2.24.05-2.64-.04-5.28-.07-7.92-.2-1.17-.03-2.35-.06-3.51-.09-1.49-.04-3-.14-4.47-.5-.46-.1-.39-.2.02-.35.4-.13,1.14-.47,1.99-.52,1.51-.16,3.01-.21,4.52-.26,1.51-.06,3.02-.12,4.55-.05,1.83.07,3.72-.15,5.59-.23l6.17-.25,3.81-.1c1.92-.06,3.86-.07,5.77-.16.74-.04,1.48-.1,2.21-.18.73-.09,1.47-.15,2.21-.16.33,0,.64-.04.97-.03.61,0,1.01.2,1.29.33.28.15.43.33.55.57.05.11.13.22.16.32.1.33-.41.64-1.28.94-2.59.69-5.3.69-8.05.8-2.05.06-4.11.11-6.16.17v-.06Z"/><path class="cls-1" d="m132.96,419.84l-4.52.11c-.55.02-1.09.09-1.64.1-1.94.04-3.88.07-5.82.11-.86.01-1.72.08-2.57.15-1.09.14-2.19.15-3.3,0-.35-.05-.31-.28-.05-.58.27-.29.78-.71,1.4-.87.55-.16,1.11-.22,1.66-.26l1.67-.13c1.12-.07,2.24-.12,3.37-.07,1.36.05,2.75-.13,4.13-.19l4.56-.17,2.81-.09c1.42-.06,2.84-.08,4.24-.18,1.09-.09,2.16-.23,3.24-.3.24-.02.47-.05.71-.05.89.02,1.18.15,1.38.5.05.08.11.16.13.24.09.26-.26.51-.9.7-.95.27-1.93.44-2.93.61-1,.13-2.01.17-3.03.23-1.51.06-3.03.13-4.55.19v-.05Z"/><path class="cls-1" d="m147.28,424.86c-1.72-.06-3.44-.11-5.16-.1-.63,0-1.25.07-1.88.07-2.21,0-4.43.03-6.65.08-.99.01-1.97.16-2.94.2-1.25.08-2.5.26-3.78.11-.4-.04-.36-.14-.05-.37.15-.12.37-.27.64-.45.26-.19.58-.35.94-.44,2.52-.71,5.09-.96,7.7-.97,1.56.03,3.17-.16,4.77-.22,1.75-.05,3.5-.06,5.25-.05l3.23.04c1.63.04,3.27.08,4.88.12,1.26.05,2.49-.1,3.74-.02.27.01.54,0,.82.04,1.02.09,1.34.29,1.54.67.05.09.11.17.13.25.08.24-.35.52-1.1.65-2.23.44-4.54.51-6.87.56-1.73-.04-3.46-.08-5.19-.12v-.05Z"/><path class="cls-1" d="m227.34,348.32l18.83-.37,6.87-.23,24.23-.43c3.59-.07,7.19-.15,10.75-.22,4.57-.04,9.19-.38,13.76.56,1.41.38,1.2.42-.03.67-.61.12-1.48.44-2.51.56-1.03.15-2.23.29-3.54.33-9.27.03-18.58.34-27.98.4-5.62.04-11.47.4-17.21.61-6.32.21-12.65.41-18.97.62-3.89.1-7.79.21-11.68.31-5.9.11-11.83.22-17.68.33-4.56.07-9.02.27-13.56.21-1-.01-1.98-.02-3-.08-.94-.06-1.73-.14-2.38-.24-.66-.12-1.18-.29-1.62-.46-.87-.33-1.34-.74-1.6-1.23-.13-.19-.26-.47-.24-.6,0-.12.1-.14.25-.16.12-.01.33-.02.62-.03.61-.04,1.6,0,2.91,0,3.89.2,8.01.12,12.17.07,4.17-.07,8.4-.15,12.64-.23,6.31-.15,12.65-.31,18.98-.46v.07Z"/><path class="cls-1" d="m329.99,374.21l3.5,6.88c.43.83.91,1.64,1.32,2.48,1.45,2.97,2.86,5.97,4.26,8.96.64,1.32,1.28,2.64,1.89,3.96.38.85.81,1.68,1.15,2.56.32.88.6,1.78.9,2.67.17.56.13.49-.19.1-.3-.4-.98-1.08-1.64-1.95-.3-.38-.56-.78-.79-1.19l-.73-1.22c-.47-.82-1-1.62-1.42-2.46-.88-1.68-1.73-3.38-2.55-5.1-.97-2.07-2.25-4.08-3.4-6.11l-3.83-6.7-2.39-4.1c-1.22-2.06-2.44-4.14-3.76-6.12-1.04-1.53-2.21-2.93-3.34-4.37-.25-.32-.52-.61-.76-.94-.22-.3-.4-.56-.52-.79-.11-.24-.16-.46-.18-.66-.05-.38.08-.72.31-1.07.1-.16.18-.33.27-.44.28-.36,1.2-.24,2.06.52,2.27,2.44,4.19,5.34,6.01,8.31,1.35,2.21,2.64,4.47,3.89,6.75l-.06.04Z"/><path class="cls-1" d="m256.27,370.48l3.84,6.78c.47.82.98,1.62,1.43,2.45,1.59,2.94,3.12,5.9,4.65,8.87.67,1.32,1.43,2.6,2.12,3.89l1.3,2.52c.37.87.66,1.79.97,2.69.18.57.03.56-.41.23-.43-.33-1.28-.92-2.02-1.75-2.25-3.14-3.87-6.61-5.59-10.08-1-2.09-2.31-4.11-3.49-6.16-1.3-2.25-2.6-4.5-3.94-6.74-.82-1.38-1.64-2.75-2.49-4.11-1.28-2.06-2.56-4.14-3.93-6.12-1.06-1.54-2.24-2.96-3.38-4.42-.25-.32-.49-.64-.72-.98-.9-1.23-.75-1.92-.58-2.43.05-.12.07-.26.12-.35.09-.15.27-.13.58,0,.3.13.77.34,1.2.72.57.61,1.21,1.2,1.72,1.88.53.67,1.05,1.35,1.56,2.06,1.01,1.41,1.99,2.86,2.94,4.34,1.42,2.19,2.77,4.45,4.13,6.69l-.05.03Z"/><path class="cls-1" d="m191.42,372.82l3.28,6.44c.4.78.85,1.54,1.24,2.33,1.35,2.79,2.66,5.6,3.9,8.45.55,1.27,1.11,2.53,1.66,3.79.35.81.72,1.62.99,2.47.23.87.44,1.75.44,2.71-.04.62-.26.48-.58.08-.33-.41-.93-1.04-1.43-1.89-.79-1.53-1.5-3.13-2.3-4.7-.8-1.57-1.51-3.2-2.19-4.86-.82-1.98-1.97-3.9-2.98-5.84l-3.37-6.4-2.13-3.92c-1.06-1.99-2.12-3.99-3.26-5.9-.88-1.5-1.79-2.93-2.63-4.43-.18-.33-.37-.65-.55-.98-.66-1.25-.81-1.69-.79-2.06,0-.08,0-.19.01-.24.05-.19.49.21,1.18,1,2.03,2.36,4.23,4.83,5.89,7.65,1.31,2.04,2.57,4.13,3.69,6.28l-.05.03Z"/><path class="cls-1" d="m287.79,305.7c1.56,2.17,3.1,4.34,4.62,6.54.55.8,1.14,1.58,1.68,2.39,1.91,2.85,3.74,5.76,5.51,8.7.79,1.3,1.6,2.6,2.35,3.91.96,1.69,1.91,3.39,2.72,5.16.25.55.09.54-.3.18-.39-.37-1.04-1.08-1.63-2.03-2.18-3.29-4.19-6.66-6.26-10.05-1.24-2.03-2.7-4.02-4.1-6.01-1.55-2.18-3.1-4.36-4.7-6.5-.97-1.33-1.97-2.64-2.97-3.95-1.52-1.98-3.04-3.97-4.61-5.89-1.22-1.49-2.49-2.89-3.75-4.32-.28-.31-.53-.64-.78-.98-.93-1.27-1.14-1.74-1.09-2.21.01-.11,0-.23.03-.31.09-.27.67.09,1.52.88.61.6,1.3,1.16,1.86,1.83.58.66,1.15,1.33,1.72,2.01,1.13,1.37,2.26,2.78,3.36,4.21,1.65,2.12,3.26,4.28,4.86,6.45l-.03.03Z"/><path class="cls-1" d="m219.18,304.49c1.2,1.81,2.36,3.63,3.53,5.46.42.67.9,1.3,1.32,1.97,1.44,2.38,2.84,4.8,4.18,7.24.6,1.08,1.22,2.17,1.84,3.23.41.67.79,1.38,1.17,2.08.34.72.51,1.55.69,2.33.1.5-.24.55-.79.34-.55-.22-1.36-.65-1.94-1.33-1.54-2.69-3.17-5.4-4.55-8.3-.84-1.73-2.03-3.35-3.08-5-1.15-1.83-2.32-3.65-3.51-5.45-.73-1.11-1.47-2.22-2.23-3.31-1.16-1.65-2.29-3.34-3.52-4.91-.94-1.24-2.03-2.32-3-3.49-.21-.25-.43-.51-.64-.76-.39-.48-.62-.84-.74-1.09-.1-.29-.11-.51-.08-.74.01-.11,0-.22.03-.31.04-.14.18-.16.45-.09.25.07.71.2,1.06.52,2.36,1.7,4.18,4.01,6.04,6.29,1.37,1.7,2.6,3.52,3.85,5.31l-.05.04Z"/><path class="cls-1" d="m232.71,359.97c-.61-.9-1.24-1.8-1.89-2.68-.24-.32-.52-.6-.76-.93-.81-1.17-1.59-2.36-2.41-3.52-.38-.51-.75-1.01-1.13-1.52-.49-.64-.99-1.27-1.34-2.02-.11-.23.11-.35.45-.35.34,0,.84.1,1.18.41.6.55,1.2,1.11,1.77,1.7.51.63.99,1.29,1.44,1.99.53.84,1.3,1.53,1.91,2.34.68.88,1.35,1.78,2.01,2.68l1.21,1.68c.61.85,1.2,1.72,1.79,2.57.47.66,1.01,1.26,1.48,1.93.1.15.22.28.32.44.33.59.29.85-.1,1.21-.09.08-.17.17-.27.24-.32.22-.74.14-1.08-.19-.98-1-1.87-2.1-2.74-3.26-.63-.87-1.24-1.78-1.89-2.65l.04-.03Z"/><path class="cls-1" d="m304.79,365.47l-1.89-3.02c-.23-.36-.52-.69-.75-1.06-.79-1.31-1.61-2.61-2.36-3.95-.35-.59-.73-1.15-1.12-1.7-.5-.71-1.03-1.4-1.19-2.33-.02-.31.05-.31.39-.26.38.02.96.14,1.32.48.35.29.62.63.89.97.27.34.54.68.8,1.03.52.7,1.03,1.41,1.44,2.21.5.94,1.25,1.75,1.88,2.63l2.05,2.93,1.25,1.82c.64.91,1.25,1.85,1.94,2.72.53.68,1.13,1.28,1.69,1.94.12.14.26.27.34.44.32.63.31.91,0,1.31-.07.09-.12.18-.18.25-.19.21-.68.21-1.14-.09-.75-.39-1.26-.97-1.83-1.53-.57-.55-1.04-1.19-1.51-1.83-.7-.95-1.37-1.94-2.06-2.91l.05-.04Z"/><path class="cls-1" d="m307.95,382.07l-5.48,10.08c-.66,1.23-1.26,2.49-1.93,3.71-2.36,4.31-4.76,8.6-7.08,12.92-1.03,1.92-2.02,3.87-2.98,5.81-1.26,2.48-2.29,5.07-4.03,7.31-.75.59-.52.58-.54-.25-.07-.85.1-2.28.7-3.77,2.39-5.15,4.93-10.22,7.73-15.21,1.68-2.98,3.16-6.22,4.74-9.34l5.24-10.27,3.2-6.33c1.6-3.2,3.24-6.41,4.71-9.64,1.14-2.52,2.09-5.06,3.1-7.6.22-.56.41-1.12.65-1.68.91-2.05,1.55-2.55,2.35-2.72.19-.04.39-.11.55-.1.53,0,.59,1.03.21,2.67-1.44,4.73-3.64,9.41-5.87,14.1-1.68,3.47-3.41,6.93-5.22,10.34l-.07-.03Z"/><path class="cls-1" d="m303.2,338.39c-.47.73-.94,1.47-1.38,2.23-.16.27-.27.58-.43.85-.58.97-1.17,1.93-1.7,2.92-.23.44-.43.9-.62,1.36-.12.29-.22.6-.35.89-.09.31-.39.53-.62.78-.16.15-.35.05-.56-.22-.11-.13-.23-.31-.34-.51-.06-.1-.11-.21-.15-.31-.02-.05-.03-.11-.06-.16,0-.05,0-.09.02-.14.18-.64.38-1.27.63-1.89.3-.59.64-1.17,1.04-1.72.47-.66.74-1.45,1.12-2.17.42-.79.87-1.56,1.32-2.33l.84-1.42c.42-.72.86-1.43,1.26-2.15.33-.55.51-1.17.84-1.71.07-.12.13-.24.22-.35.33-.41.57-.46.9-.39.08.02.16.03.22.05.22.07.3.37.28.8-.06.62-.16,1.22-.38,1.76-.2.55-.4,1.11-.71,1.61-.44.75-.89,1.51-1.34,2.26l-.05-.02Z"/><path class="cls-1" d="m260.35,302.31l-1.51-3.05c-.19-.37-.44-.7-.62-1.07-.65-1.31-1.2-2.67-1.84-3.99-.14-.29-.3-.58-.46-.86l-.44-.86c-.4-.72-.64-1.54-.85-2.37-.06-.26.05-.29.33-.2.27.09.79.24,1.21.55.75.53,1.32,1.18,1.77,1.89.41.74.77,1.51,1.08,2.31.38.96,1,1.82,1.49,2.74l1.57,3.06.97,1.88c.51.94.98,1.9,1.52,2.81.42.7.95,1.33,1.42,2,.1.15.22.28.32.44.27.62.22.89-.1,1.24-.07.08-.14.17-.22.23-.26.22-.66.13-1.09-.18-1.21-.98-2.04-2.26-2.92-3.53-.61-.96-1.12-1.99-1.68-2.99l.05-.03Z"/><path class="cls-1" d="m222,339.7l1.99-3.46c.24-.42.42-.88.67-1.3.87-1.48,1.77-2.95,2.69-4.41.4-.65.76-1.33,1.11-2,.45-.86.79-1.81,1.71-2.39.32-.16.44-.04.64.38.26.46.49,1.13.29,1.65-.83,1.77-1.84,3.43-2.97,5.07-.71.97-1.17,2.12-1.75,3.19l-1.95,3.52-1.21,2.17c-.6,1.1-1.24,2.19-1.8,3.3-.44.86-.76,1.78-1.15,2.66-.08.2-.15.4-.25.59-.42.67-.77.76-1.3.63-.12-.03-.24-.04-.35-.08-.18-.07-.29-.21-.37-.42-.07-.21-.13-.5-.06-.79.4-1.71,1.28-3.23,2.09-4.83.63-1.17,1.27-2.34,1.91-3.51l.05.02Z"/><path class="cls-1" d="m167.72,369.61c3.51-6.55,7.02-13.11,10.47-19.7l3.7-7.24c4.45-8.46,8.91-16.92,13.28-25.42,1.94-3.77,3.8-7.61,5.69-11.37,1.19-2.43,2.39-4.86,3.59-7.29,1.2-2.43,2.46-4.83,3.87-7.14,1.06-1.35,1.02-1.12.86.39-.07.76-.3,1.78-.62,2.98-.31,1.21-.79,2.58-1.45,3.99-2.35,5-4.67,10.02-7.17,14.95-2.5,4.94-5.06,9.86-7.7,14.76-3.16,5.87-6.15,12.13-9.25,18.19-3.42,6.67-6.87,13.32-10.34,19.96-2.14,4.08-4.29,8.17-6.43,12.25-3.25,6.18-6.58,12.36-9.76,18.52-2.48,4.78-4.76,9.56-7.14,14.32-.52,1.05-1.01,2.09-1.56,3.14-1.02,1.94-1.72,3.21-2.36,4.02-.34.39-.64.69-.93.91-.31.21-.61.35-.88.47-.25.11-.51.29-.67.35-.28.09-.27-.3-.21-1.17.03-.89.43-2.09,1.12-3.54,4.02-8.64,8.66-17.53,13.34-26.46,3.49-6.62,7-13.26,10.5-19.9l.07.03Z"/><path class="cls-1" d="m223.8,310.69c1.51,2.83,3.04,5.65,4.64,8.43.58,1.02,1.23,1.99,1.81,3,2.07,3.57,4.08,7.18,6.21,10.72.94,1.57,1.96,3.11,2.97,4.62,1.25,1.98,2.61,3.89,3.62,6.02.33.66.17.65-.38.28-.27-.19-.65-.46-1.09-.8-.46-.33-.93-.76-1.35-1.29l-2.24-2.82c-.73-.95-1.39-1.95-2.07-2.93-1.35-1.98-2.66-4-3.88-6.08-1.48-2.48-3.16-4.97-4.72-7.47-1.69-2.77-3.34-5.57-4.96-8.38l-2.96-5.21c-1.49-2.63-2.91-5.32-4.42-7.91-1.17-2.02-2.47-3.91-3.68-5.88-.26-.44-.54-.85-.78-1.3-.45-.84-.71-1.41-.77-1.88-.03-.48.07-.82.3-1.17.1-.16.18-.34.3-.46.19-.2.47-.18.84,0,.37.19.86.54,1.26,1.11.62.83,1.23,1.68,1.83,2.55.57.88,1.13,1.79,1.67,2.71,1.1,1.83,2.16,3.72,3.22,5.61,1.56,2.82,3.13,5.65,4.69,8.48l-.06.04Z"/><path class="cls-1" d="m256.73,324.41l4.88-9.22c.59-1.12,1.11-2.28,1.71-3.4l6.3-11.86c.92-1.76,1.81-3.55,2.69-5.31,1.13-2.27,2.13-4.61,3.8-6.6.56-.6.56-.48.57.27,0,.38,0,.9-.03,1.54-.05.61-.22,1.28-.48,1.97-.22.61-.49,1.2-.77,1.78l-.84,1.74-1.71,3.48c-1.21,2.29-2.45,4.56-3.75,6.83-1.55,2.71-2.9,5.66-4.35,8.5l-4.85,9.34-3.01,5.74c-1.51,2.9-3.08,5.79-4.54,8.68-1.14,2.25-2.14,4.52-3.22,6.77-.23.5-.45.99-.7,1.49-.23.46-.44.83-.62,1.14-.2.3-.4.52-.58.69-.35.35-.68.49-1.03.54-.16.03-.33.09-.45.09-.37.02-.44-.97.05-2.41,1.73-4.12,3.87-8.29,6.02-12.47,1.62-3.1,3.24-6.22,4.86-9.33l.06.02Z"/><path class="cls-1" d="m235.69,375.97l-5.17,10.53-1.82,3.87c-2.22,4.51-4.47,9-6.62,13.54-.96,2.01-1.85,4.07-2.72,6.1-.56,1.31-1.07,2.63-1.66,3.93-.29.65-.58,1.3-.89,1.94l-.47.96c-.18.31-.38.61-.62.89-.68.67-.61.57-.73-.29-.2-.9-.14-2.38.46-3.91,2.16-5.4,4.64-10.66,7.3-15.89,1.6-3.12,3.02-6.48,4.55-9.72l5.07-10.67,3.09-6.57c1.53-3.33,3.1-6.67,4.53-10.01,1.11-2.6,2.04-5.22,3.04-7.83.21-.58.42-1.14.64-1.73.88-2.13,1.34-2.72,2.15-2.92.17-.05.35-.14.49-.15.42-.07.6,1.03.1,2.65-1.47,4.82-3.52,9.7-5.66,14.56-1.6,3.6-3.32,7.17-5,10.74l-.06-.02Z"/><path class="cls-1" d="m352.3,349.26l16.03,25.1c1.94,3.06,3.97,6.06,5.9,9.12l10.16,16.24,5.04,8.15,2.51,4.09,1.21,2.07.6,1.04.3.52.41.74c.5.91,1.11,1.89,1.23,2.64.04.19.05.36.06.52,0,.08,0,.16-.01.25-.03.09-.11.08-.21.12l-1.09.34c-.2.05-.33.13-.58.15l-.81.02-1.62.05-2.14.06c-2.83.09-5.66.18-8.47.27-7.22.23-14.45.66-21.68.49-2.25-.05-1.97-.55-.08-1.17,1.88-.62,5.36-1.44,9.52-1.62,7.36-.36,14.73-.68,22.11-.94l.6-.02.04.02s.07.03.09.02c.02,0,.07,0,.08-.01,0-.02,0-.04-.01-.07l-.03-.09v-.03s-.01,0-.02-.01c0-.01-.06-.08-.08-.12l-.36-.58-1.48-2.33c-1.91-3.16-3.82-6.33-5.73-9.51-4.57-7.62-9.73-15.3-14.64-22.95-5.39-8.42-10.78-16.84-16.18-25.26-3.33-5.17-6.67-10.35-10-15.52-5.07-7.81-10.14-15.69-15.29-23.37-4-5.97-8.1-11.71-12.18-17.53-.9-1.28-1.79-2.53-2.7-3.81-1.65-2.41-2.71-4.01-3.33-5.23-.58-1.24-.76-2.06-.79-2.8-.01-.34-.09-.74-.06-.97.05-.38.52-.15,1.38.54.87.69,2.06,1.91,3.33,3.64,7.65,10.19,15.13,21.31,22.58,32.52,5.52,8.33,10.98,16.75,16.45,25.15l-.06.06Z"/><path class="cls-1" d="m248.66,286.8c5.08-.08,10.17-.2,15.27-.39,1.86-.07,3.72-.22,5.58-.27,6.56-.19,13.14-.34,19.72-.29,2.92,0,5.86,0,8.76,0,1.86.04,3.73.01,5.6.09,1.86.15,3.73.28,5.56.77.56.27.8.42.78.5-.02.09-.31.15-.82.42-.51.28-1.22.5-2.07.77-.85.23-1.83.37-2.89.38-1.88.07-3.76-.01-5.64-.02-1.88-.04-3.76,0-5.65-.02-1.88-.03-3.77.02-5.67,0-1.9-.02-3.79-.05-5.7-.08-4.56-.08-9.3.3-13.97.48-5.13.2-10.28.39-15.43.51-3.17.09-6.34.11-9.51.15-2.4.02-4.81-.02-7.21-.03-2.4-.06-4.8-.12-7.19-.17-1.85-.07-3.69-.09-5.53-.11-1.84-.07-3.67-.14-5.5-.21-.81-.02-1.6-.06-2.42-.14-3.02-.31-3.96-.59-4.49-1.49-.12-.19-.29-.38-.36-.56-.22-.55,1.08-1.05,3.27-.94,3.24.16,6.57.22,9.93.39,3.37.08,6.78.23,10.22.26,5.09.09,10.22.06,15.35-.05v.07Z"/><path class="cls-1" d="m203.32,326.57c.75-1.23,1.5-2.46,2.21-3.71l.76-1.38c.91-1.61,1.81-3.23,2.66-4.88.37-.74.74-1.47,1.11-2.2.46-.94.92-1.89,1.41-2.82.16-.29.2-.22.15.06-.04.28-.15.79-.37,1.36-.39,1-.8,2-1.23,2.98-.45.98-.96,1.93-1.48,2.88-.62,1.14-1.21,2.35-1.83,3.52-.69,1.28-1.4,2.56-2.13,3.82l-1.36,2.32c-.71,1.16-1.42,2.32-2.12,3.47l-1.57,2.69-.37.57c-.49.7-.69.89-.94.95-.06.01-.12.04-.16.04-.15,0-.06-.36.21-.92.2-.43.41-.85.61-1.27l.7-1.25c.48-.83.97-1.67,1.46-2.51.72-1.26,1.49-2.49,2.24-3.73h.02Z"/><path class="cls-1" d="m209.05,325.32c.51-.83,1.02-1.66,1.51-2.51.17-.31.34-.62.51-.94.62-1.09,1.24-2.19,1.82-3.3.25-.5.5-1,.75-1.49.31-.64.6-1.29.95-1.91.21-.39.3.26.04,1.05-.26.68-.52,1.37-.81,2.04-.3.66-.65,1.31-1.02,1.95-.44.77-.82,1.6-1.24,2.39-.47.87-.95,1.73-1.45,2.59l-.93,1.57c-.48.79-.97,1.57-1.44,2.35-.37.61-.69,1.23-1.05,1.83-.08.13-.16.27-.23.4-.31.49-.46.61-.69.61-.05,0-.11,0-.16,0-.16-.04-.14-.31.05-.69.55-1.13,1.2-2.27,1.86-3.42.48-.86,1.03-1.67,1.53-2.52h.02Z"/><path class="cls-1" d="m285.21,325.27c.25-.46.49-.92.74-1.38.09-.17.15-.35.24-.52.32-.59.66-1.17,1-1.75.15-.26.27-.53.39-.8.15-.35.27-.71.52-1.01.15-.19.67.38.54.8-.27.73-.57,1.44-.99,2.11-.27.39-.43.85-.65,1.27-.24.46-.49.93-.73,1.4-.15.29-.3.58-.45.86-.22.44-.45.87-.64,1.32-.16.34-.28.7-.42,1.04-.03.08-.06.15-.09.23-.14.28-.23.34-.43.32-.05,0-.09,0-.13-.01-.14-.03-.2-.2-.16-.43.13-.67.26-1.39.57-2.02.22-.48.46-.95.68-1.42h.02Z"/><path class="cls-1" d="m180.03,388.1c.41-.77.83-1.54,1.24-2.31.15-.29.29-.56.44-.85.55-.98,1.09-1.97,1.62-2.97.23-.44.45-.89.67-1.34.27-.57.54-1.15.86-1.71.19-.35.27.25,0,.93-.5,1.2-1.01,2.39-1.61,3.56-.36.7-.66,1.45-1,2.18-.36.8-.76,1.59-1.15,2.38l-.72,1.46c-.36.74-.73,1.47-1.06,2.22-.26.58-.45,1.17-.67,1.76-.05.13-.09.26-.14.39-.2.48-.33.59-.64.57-.07,0-.14,0-.21-.02-.22-.05-.29-.32-.19-.68.32-1.09.82-2.16,1.34-3.22.4-.78.8-1.57,1.2-2.36h.02Z"/><path class="cls-1" d="m180.89,384.62c-.39-1.09-.79-2.19-1.21-3.27-.16-.4-.32-.78-.48-1.18-.51-1.41-1.02-2.82-1.59-4.21-.24-.62-.55-1.21-.81-1.82-.35-.77-.72-1.54-.99-2.35-.08-.25.06-.28.3-.16.24.13.61.41.87.83.95,1.47,1.72,3.02,2.35,4.65.38.98.91,1.93,1.36,2.9.5,1.07.92,2.16,1.38,3.25l.82,2.01c.42,1.01.81,2.04,1.26,3.03.35.77.8,1.48,1.18,2.23.09.16.18.32.26.49.28.63.25.88-.14,1.19-.09.07-.17.15-.27.21-.32.2-.71.05-1-.37-.88-1.25-1.49-2.69-2.07-4.15-.42-1.09-.84-2.19-1.27-3.28l.04-.02Z"/><path class="cls-1" d="m239.77,389.03c.46-.74.94-1.47,1.41-2.2.17-.27.31-.55.49-.82.62-.94,1.24-1.87,1.83-2.81.26-.42.5-.86.75-1.28.32-.55.63-1.1,1.02-1.61.12-.16.22-.08.26.14.04.21.05.57-.09.91-.46,1.22-1.06,2.36-1.79,3.44-.43.65-.76,1.39-1.15,2.09-.43.76-.86,1.53-1.31,2.28l-.82,1.39c-.41.71-.83,1.41-1.2,2.13-.28.56-.52,1.14-.77,1.71-.06.12-.1.25-.17.38-.24.45-.4.55-.74.49-.08-.01-.16-.02-.23-.05-.25-.08-.33-.37-.23-.74.31-1.1.78-2.18,1.38-3.19.43-.76.89-1.51,1.33-2.27h.03Z"/><path class="cls-1" d="m245.48,395.62c.25-.47.49-.95.74-1.42.09-.18.17-.34.26-.52.32-.61.64-1.22.93-1.84.13-.28.24-.56.36-.84.14-.36.27-.73.45-1.08.11-.22.33.2.2.63-.25.76-.54,1.5-.9,2.22-.22.43-.38.9-.58,1.35-.22.5-.46.98-.71,1.46-.15.3-.31.59-.46.89-.23.45-.46.9-.69,1.34-.17.35-.31.71-.46,1.06-.03.08-.07.16-.1.23-.14.28-.23.35-.41.33-.04,0-.08,0-.12-.02-.13-.04-.16-.2-.09-.42.22-.66.53-1.3.85-1.95.24-.48.48-.96.72-1.44h.01Z"/><path class="cls-1" d="m326.1,384.85l-2.38-3.89-.91-1.39c-1.03-1.66-2.05-3.33-3.08-4.99-.46-.74-.94-1.46-1.41-2.18-.61-.92-1.22-1.85-1.79-2.8-.18-.3-.11-.29.12-.09.22.2.62.57,1.03,1.07,1.4,1.77,2.82,3.53,4.07,5.44.73,1.15,1.6,2.27,2.4,3.41l2.6,3.78,1.57,2.35c.8,1.18,1.58,2.38,2.41,3.53.64.89,1.31,1.74,1.96,2.61.14.19.29.37.43.57.5.74.58,1.04.42,1.38-.04.08-.06.17-.11.23-.15.21-.54.03-1-.44-1.34-1.44-2.68-3-3.8-4.73-.84-1.27-1.69-2.56-2.54-3.83l.03-.02Z"/><path class="cls-1" d="m286.14,318.34c-.93-1.42-1.88-2.82-2.86-4.21l-1.09-1.5c-1.26-1.78-2.57-3.53-3.88-5.28-.58-.77-1.2-1.53-1.81-2.28-.79-.95-1.59-1.9-2.35-2.88-.48-.6.4-.07,1.38.96,1.7,1.88,3.37,3.78,4.89,5.83.94,1.23,1.89,2.47,2.84,3.71,1.03,1.38,2.03,2.77,3.01,4.18l1.8,2.61c.88,1.34,1.76,2.68,2.64,4,.69,1.01,1.38,2.02,2.07,3.03l.45.67c.54.85.65,1.15.55,1.47-.02.07-.04.16-.07.21-.11.18-.46-.08-.9-.67-1.29-1.75-2.56-3.66-3.85-5.56-.95-1.42-1.9-2.84-2.85-4.26l.02-.02Z"/><path class="cls-1" d="m189.94,419.06c-1.11.19-1.93.22-2.84.26-.88.03-1.76.04-2.62.05-1.74,0-3.46-.02-5.18-.05-1.25-.02-2.51.03-3.76-.01l-13.22-.43c-1.95-.05-3.92-.03-5.85,0-1.24.03-2.49.08-3.73.05l-1.87-.04-.93-.04c-.31-.02-.62-.12-.94-.17-.78-.18-.68-.31-.04-.7.64-.48,1.84-1.04,3.28-1.15,2.55-.27,5.1-.2,7.65-.21,2.55.02,5.1.09,7.67.23,3.06.16,6.25.03,9.38.02,3.43-.02,6.89,0,10.27-.22.52-.04,1.03-.08,1.52-.15.23-.02.52-.09.63-.1.12-.03.26-.05.34-.16.05-.05.08-.08.14-.16l.23-.3.46-.62.91-1.29c1.81-2.63,3.61-5.31,5.25-8.04,1.27-2.12,2.34-4.31,3.58-6.41.27-.47.5-.93.78-1.4.49-.87.96-1.36,1.28-1.71.34-.34.61-.5.91-.59.14-.04.29-.11.4-.12.36-.04.28.85-.14,2.32-.14.55-.37,1.07-.58,1.59-.22.52-.44,1.05-.66,1.57-.47,1.04-.88,2.12-1.46,3.12-1.11,2.01-2.32,4-3.56,5.98-.92,1.47-1.88,2.92-2.85,4.37-.49.72-.98,1.44-1.5,2.17-.26.37-.51.71-.85,1.14-.11.15-.28.3-.42.44l-.22.22c-.09.05-.18.11-.27.16-.17.11-.37.18-.57.26-.19.07-.4.16-.58.19l-.02-.07Z"/><path class="cls-1" d="m258.13,420.55c-3.36.19-6.52.06-9.74,0-1.17-.03-2.34.02-3.5-.03l-12.31-.45c-1.82-.05-3.65-.03-5.45,0-1.16.03-2.32.08-3.48.05-.58,0-1.16-.02-1.74-.04l-.87-.04c-.29-.03-.58-.12-.87-.17-.73-.18-.64-.31-.04-.7.6-.48,1.72-1.04,3.06-1.15,2.38-.27,4.75-.2,7.13-.21,2.38.02,4.76.1,7.14.23,2.86.17,5.83.04,8.74.04,3.2,0,6.42.01,9.59-.12.97-.05,1.95-.1,2.85-.23.5-.1.69-.08.88-.26.05-.05.08-.08.14-.15l.22-.27.44-.57c1.76-2.37,3.48-4.85,5.04-7.36,1.21-1.96,2.21-4,3.37-5.94.25-.43.47-.87.73-1.3.45-.81.9-1.26,1.21-1.58.32-.31.59-.46.88-.53.13-.03.28-.1.39-.1.35-.03.3.81-.08,2.2-.13.52-.33,1-.53,1.49-.2.49-.4.98-.61,1.47-.44.97-.82,1.99-1.37,2.91-1.05,1.87-2.21,3.72-3.4,5.55-.89,1.35-1.81,2.69-2.77,4.03l-.74,1-.39.51-.22.27c-.09.13-.25.28-.38.42-.27.29-.61.49-.97.63-.18.07-.36.15-.55.2l-.45.09c-.5.09-.93.13-1.36.17v-.07Z"/><path class="cls-1" d="m201.16,394.32l-5.31-10.56-1.99-3.81c-2.27-4.52-4.54-9.04-6.98-13.47-1.05-1.98-2.27-3.88-3.38-5.81-1.47-2.45-3.05-4.84-4.19-7.51-.33-.85-.24-.77.39-.28.67.47,1.83,1.38,2.89,2.67,3.47,4.76,6.35,9.9,9.01,15.18,1.59,3.16,3.46,6.33,5.15,9.53,1.87,3.51,3.64,7.07,5.42,10.61l3.3,6.54c1.68,3.29,3.36,6.61,5.12,9.82,1.37,2.5,2.88,4.86,4.3,7.29.32.53.63,1.05.95,1.59.29.5.51.93.69,1.29.17.37.26.69.33.96.14.54.13.9.04,1.24-.04.15-.06.34-.12.45-.18.36-.95-.29-2.07-1.61-2.97-4.13-5.58-8.79-8.11-13.5-1.88-3.5-3.7-7.05-5.53-10.58l.05-.03Z"/><path class="cls-1" d="m260.51,376.89c2.06,3.73,4.09,7.48,6.19,11.2.76,1.36,1.6,2.68,2.35,4.04l3.98,7.22,3.89,7.28c1.17,2.14,2.34,4.3,3.5,6.43,1.42,2.77,2.97,5.49,4,8.46.33.92.13.87-.5.27-.31-.3-.75-.73-1.25-1.26-.48-.54-.96-1.22-1.42-1.98-3.33-5.38-6.41-10.88-9.45-16.5-1.79-3.38-3.92-6.74-5.9-10.11-2.17-3.71-4.32-7.45-6.44-11.19-1.28-2.32-2.57-4.64-3.85-6.96-1.94-3.52-3.79-7.11-5.67-10.63-1.44-2.75-2.98-5.38-4.38-8.13-.32-.6-.62-1.19-.89-1.82-.49-1.17-.78-1.95-.89-2.55-.09-.6-.02-1,.16-1.36.08-.17.14-.37.24-.49.16-.2.43-.1.8.24.37.34.85.9,1.31,1.7.34.59.69,1.18,1.03,1.78.35.59.72,1.19,1.04,1.8.65,1.23,1.31,2.46,1.98,3.71,1.33,2.5,2.68,5.02,4.03,7.56,2.03,3.76,4.08,7.54,6.2,11.27l-.06.04Z"/><path class="cls-1" d="m310.36,337.32c3.81,6.74,7.52,13.54,11.21,20.34,1.35,2.48,2.76,4.92,4.08,7.42,4.67,8.78,9.25,17.61,13.78,26.46,2.01,3.93,4.09,7.84,6.14,11.71,1.31,2.49,2.62,4.98,3.93,7.47l1.92,3.76c.65,1.25,1.14,2.57,1.73,3.85.69,1.62.48,1.47-.52.32-.54-.62-1.25-1.43-2.07-2.37-.8-1.01-1.62-2.27-2.43-3.68l-4.24-7.5c-1.36-2.53-2.73-5.05-4.1-7.58-2.72-5.07-5.41-10.16-7.98-15.34-3.11-6.18-6.68-12.44-10.07-18.65l-5.62-10.23-5.7-10.19c-2.38-4.15-4.74-8.33-7.18-12.44-1.87-3.11-3.68-6.25-5.58-9.35-1.91-3.08-3.79-6.18-5.76-9.19-1.54-2.33-3.11-4.62-4.67-6.88-1.59-2.25-3.25-4.45-4.86-6.68-.72-.98-1.42-1.94-2.18-2.9-1.38-1.79-2.19-3.05-2.69-3.99-.47-.96-.6-1.62-.62-2.22-.01-.27-.08-.59-.06-.77.03-.3.39-.13,1.11.36.73.48,1.7,1.39,2.78,2.67,6.39,7.67,12.2,16.43,17.73,25.36,2.09,3.3,4.08,6.66,6.07,10.03,2.01,3.36,3.94,6.76,5.89,10.15l-.06.04Z"/><path class="cls-1" d="m187.16,165.56c2.03,1.69,4.75,1.83,7.25,1.31,2.55-.53,5.14-1.9,6.75-3.98.5-.64.62-1.5,0-2.12-.52-.52-1.62-.64-2.12,0-1.33,1.71-3.07,2.65-5.14,3.14-.27.06-.54.11-.81.16s.05,0-.11.02c-.12.01-.24.02-.36.03-.52.04-1.03.03-1.54-.02-.29-.02.11.02-.07-.01-.11-.02-.21-.04-.32-.06-.25-.06-.49-.14-.73-.21-.27-.09.12.06-.04-.01-.09-.05-.18-.09-.27-.14-.1-.06-.2-.13-.3-.18-.27-.14.18.16-.07-.05-.62-.52-1.51-.61-2.12,0-.53.53-.63,1.6,0,2.12h0Z"/><path class="cls-1" d="m208.91,159.26c1.91,2.19,5.12,2.68,7.8,1.83,2.92-.93,5.13-3.08,7.2-5.24,1.34-1.39-.78-3.51-2.12-2.12-1.6,1.66-3.27,3.47-5.47,4.32-1.83.71-3.94.64-5.3-.91-.53-.61-1.58-.55-2.12,0-.61.61-.53,1.51,0,2.12h0Z"/><path class="cls-1" d="m224.2,175.76c.04.07.07.13.1.2.08.16-.11-.32-.03-.07.04.14.08.29.11.43.07.31-.01-.36,0-.04,0,.08,0,.15,0,.23s0,.15,0,.23c0,.06-.05.33,0,.07s0,.01-.02.07c-.02.07-.03.15-.05.22-.04.15-.09.29-.14.44-.06.17.15-.3.02-.06-.04.08-.08.16-.13.24-.07.13-.19.25-.25.38.05-.11.18-.23.03-.05-.05.06-.1.12-.15.17-.11.11-.22.22-.33.32-.06.05-.12.1-.18.15-.14.12.27-.19.04-.04-.13.09-.26.17-.39.25s-.27.15-.41.22c-.08.04-.17.08-.25.12-.25.11.23-.09.06-.02-.31.11-.62.22-.93.3-.76.2-1.3,1.08-1.05,1.85s1.03,1.26,1.85,1.05c1.74-.46,3.32-1.39,4.36-2.88s1.23-3.66.33-5.3c-.38-.69-1.39-.97-2.05-.54s-.94,1.31-.54,2.05h0Z"/><path class="cls-1" d="m368.12,135.86c.06.25-.22.4-.63.5-.13.03-.5-.04-.55-.12-.09-.15-.19-.3-.26-.45-.02-.09-.28-1.43-.31-1.88-.06-.44-.05-.86-.02-1.29.06-.86.07-1.72.15-2.58.02-.19.06-.37.14-.55.26-.62.35-1.26.36-1.92,0-.11.03-.22-.06-.34-.15-.2.02-1.96.13-2.17.29-.53.43-1.09.74-1.62.04-.08.02-.17.17-.22.34-.13.33-.31.39-.48.09-.24.18-.47.33-.7.1-.11.3-.2.45-.3.14-.09.48.01.52.06.1.12.3.06.45.07.05,0,.12,0,.16.02.15.03.8,1.54.78,1.7.08.05-.08,2.12-.08,2.36,0,.12-.09.24-.16.35-.03.05-.11,1.72-.14,1.78-.1.33-.07.69-.38.98-.06.06-.06.13-.07.2-.08.59-.29,1.15-.46,1.72-.09.29-.13.59-.2.88-.01.05-.06.1-.08.15-.03.06-.08.13-.09.19-.13.7-.4,1.38-.46,2.09-.01.17-.42.89-.46,1.07-.02.1-.41.38-.38.49Z"/><path class="cls-1" d="m356.01,134.82c.21.14.1.43-.17.79-.09.11-.43.31-.52.29-.17-.05-.33-.09-.48-.15-.08-.04-1.02-.91-1.38-1.18-.34-.26-.62-.56-.89-.87-.57-.61-1.02-1.29-1.54-1.93-.11-.14-.2-.31-.26-.48-.21-.61-.58-1.12-1.01-1.58-.07-.08-.12-.17-.27-.19-.23-.04-1.32-1.34-1.37-1.57-.15-.57-.37-1.09-.56-1.62-.02-.08-.1-.13-.04-.27.14-.32,0-.43-.06-.59-.08-.24-.15-.48-.2-.74-.02-.13.02-.31.04-.47.02-.15.29-.29.35-.29.15.02.22-.15.31-.24.03-.03.08-.07.11-.09.04-.02.42.12.85.24.45.11.86.28.91.33.07,0,1.49,1.46,1.67,1.61.09.08.1.22.14.35.02.05,1.12,1.26,1.14,1.32.16.3.43.52.4.95,0,.08.04.13.08.19.34.46.57,1,.83,1.53.13.27.31.5.46.75.03.05.03.11.04.16.02.07.03.14.06.2.38.59.57,1.29.97,1.86.09.14.23.94.34,1.09.06.09-.05.54.04.6Z"/><path class="cls-1" d="m380.91,144.24c-.05.14-.25.02-.51-.23-.08-.08-.26-.37-.26-.43,0-.12,0-.24.02-.34.01-.06.42-.65.53-.89.12-.22.28-.37.44-.52l.99-.92c.07-.07.16-.11.26-.14.34-.09.63-.26.88-.5.04-.04.1-.06.09-.17,0-.18.73-.72.87-.72.34-.02.64-.1.96-.14.05,0,.06-.06.16.01.22.17.27.08.35.05.12-.05.25-.08.4-.08.08,0,.21.1.33.17.11.06.3.42.31.47.02.14.16.27.26.41.03.05.07.11.1.15.05.09-.2,1.05-.27,1.08,0,0-.21.19-.43.38-.21.19-.43.39-.47.44-.04.05-.13.03-.2.04-.03,0-.65.61-.69.62-.17.06-.27.23-.54.14-.05-.02-.08,0-.1.03-.25.17-.57.22-.87.32-.15.05-.28.14-.42.2-.03.01-.07,0-.1,0-.04,0-.09,0-.12.01-.32.18-.7.26-.99.49-.07.04-.55.05-.62.11-.04.03-.34-.11-.36-.05Z"/><path class="cls-1" d="m105.67,235.54c.2-.09.25.24.23.78,0,.17-.15.66-.21.73-.12.12-.25.24-.36.32-.07.04-1,.2-1.32.32-.31.1-.6.14-.87.08-.56-.07-1.12-.1-1.69-.13-.12,0-.24-.05-.36-.12-.4-.25-.83-.29-1.27-.24-.07,0-.14-.01-.22.1-.13.2-1.28.11-1.42.01-.36-.24-.74-.39-1.12-.56-.05-.03-.11.02-.16-.11-.12-.31-.24-.25-.35-.28-.17-.07-.33-.08-.5-.27-.08-.09-.17-.26-.26-.39-.08-.12-.05-.43-.03-.47.07-.11,0-.28-.01-.41,0-.05-.01-.11,0-.15,0-.02.06-.1.15-.23.09-.12.22-.32.35-.43.26-.27.55-.46.6-.46.01,0,.39-.07.8-.15.4-.07.83-.15.92-.17.09-.03.18.04.27.09.02.01.34-.05.66-.09.32-.03.64-.05.66-.05.25.06.51-.01.73.29.04.06.09.05.15.05.43.02.84.19,1.26.34.21.07.43.08.65.13.04,0,.07.05.11.08.04.03.09.08.14.08.51.08.99.31,1.5.41.12.02.59.49.72.5.08,0,.22.46.29.42Z"/><path class="cls-1" d="m115.38,222.32c.25.17.08.5-.32.92-.13.13-.6.37-.71.34-.2-.06-.4-.12-.57-.2-.1-.05-1.06-1.17-1.43-1.53-.35-.35-.62-.74-.87-1.15l-1.42-2.5c-.1-.19-.18-.39-.23-.6-.16-.74-.5-1.39-.9-2-.07-.1-.11-.22-.26-.28-.25-.09-1.2-1.83-1.25-2.1-.15-.71-.27-1.3-.4-1.95-.02-.09-.1-.16-.02-.3.18-.31.05-.46-.01-.65-.1-.26-.17-.53-.18-.83,0-.15.08-.34.14-.52.05-.16.44-.29.5-.27.17.05.3-.13.44-.21.05-.03.11-.07.16-.08.05-.02.44.23.85.48.38.27.76.57.8.64.01.02.35.5.71,1.01.36.51.69,1.05.77,1.16.09.11.08.26.11.41.01.07,1.04,1.6,1.07,1.67.14.36.4.65.34,1.11-.01.09.03.15.07.22.33.57.53,1.2.76,1.82.12.31.3.6.44.9.03.05.02.13.03.19.01.08.02.16.05.23.39.69.59,1.48,1,2.15.09.16.2,1.08.33,1.25.06.1-.11.62-.01.69Z"/></svg>