<?xml version="1.0" encoding="UTF-8"?><svg id="Layer_70" xmlns="http://www.w3.org/2000/svg" width="520" height="520" viewBox="0 0 520 520"><defs><style>.cls-1,.cls-2,.cls-3,.cls-4,.cls-5,.cls-6{fill:#231f20;}.cls-2{opacity:.15;}.cls-7{opacity:.65;}.cls-3{opacity:.5;}.cls-4{opacity:.45;}.cls-5{opacity:.4;}.cls-6{opacity:.35;}</style></defs><path class="cls-1" d="m340.1,283.22s6.88-11.49,9.36-12.33c2.48-.84-9.7,22.73-11.61,22.05-1.91-.68,2.25-9.72,2.25-9.72Z"/><path class="cls-6" d="m325.33,163.04c-.33.72-.69,1.47-1.02,2.2-2.46,5.48-9.03,7.72-14.57,6.2-5.56-1.53-10.32-5.84-13.37-10.61-.35-.55-1.95-2.8-1.18-3.48,2.28-2.02,3.34-1.1,3.34-1.1,0,0,5.68,8.13,12.6,9.27,4.83.79,9.79-.61,14.2-2.48Z"/><path class="cls-3" d="m188.01,396.87l11.84,5.69s-15.51,32.11-17.37,37.48c-1.86,5.36-2.9,7.73,0,10.01,2.9,2.27,22.86,12.42,21.04,13.29s-17.17,2.35-20.97,0c-3.09-1.91-12.05-9.32-15.69-14.94-.57-.88.55-1.54.95-2.5l20.2-49.02Z"/><path class="cls-3" d="m303.39,407.01l29.88,46.35s4.81.04,12.08,0c7.27-.04,21.58-3.93,22.18-7.32.6-3.39-29.82-2.35-29.82-2.35l-20.86-38.87-13.45,2.19Z"/><path class="cls-1" d="m191.19,399.76c.64.26,1.28.52,1.94.75.24.09.49.12.73.21.84.33,1.67.73,2.51,1.08.38.15.75.32,1.12.46.48.18.97.36,1.4.69.13.1.04.26-.16.41-.2.14-.52.31-.81.28-.52-.06-1.03-.12-1.54-.21-.51-.09-.97-.32-1.45-.53-.57-.27-1.22-.34-1.83-.56-.67-.23-1.34-.47-2.01-.72-.41-.16-.82-.31-1.23-.47-.63-.23-1.24-.51-1.87-.73-.48-.18-1.02-.24-1.49-.45-.11-.04-.22-.07-.32-.13-.35-.26-.41-.44-.31-.8.02-.08.04-.16.06-.24.09-.25.35-.38.69-.4.99-.06,1.79.28,2.65.59.64.24,1.28.48,1.92.72v.04Z"/><path class="cls-1" d="m308.45,406.84c.67-.16,1.35-.39,2.02-.63.25-.09.47-.24.72-.33.88-.34,1.78-.68,2.66-1.02.4-.14.79-.32,1.17-.5.47-.28,1.05-.36,1.62-.37.18,0,.21.15.15.4-.06.24-.18.64-.4.86-.2.21-.39.42-.63.52-.23.13-.46.27-.69.39-.46.27-.98.43-1.52.59-.65.18-1.22.57-1.85.85-.69.31-1.4.58-2.13.83-.46.14-.9.29-1.37.4-.7.2-1.43.3-2.16.38-.57.06-1.15.18-1.77.14-.13-.01-.27.02-.41-.02-.24-.1-.38-.2-.45-.33-.07-.15-.07-.31-.04-.52.01-.09.02-.18.04-.26.04-.14.12-.25.24-.36.12-.11.28-.24.42-.26.86-.19,1.56-.21,2.41-.36.62-.12,1.28-.22,1.94-.44l.02.04Z"/><path class="cls-1" d="m176.07,300.56s8.14.56,10.52,1.48c2.39.92-22.58-10.71-22.58-10.71l1.73,3.92,10.33,5.31Z"/><path class="cls-2" d="m225.12,196.87l-28.07-9.81s-11.88,20.77-13.18,27.73c-1.3,6.96-8.14,31.8-9.85,34.24-1.72,2.44-6.17,11.27-1.72,13.67,4.45,2.41,69.47,25.6,71.96,26.65,2.49,1.05,16.31,6.22,16.31,6.22,0,0-7.58-17.68-14.01-18.13-6.43-.45-5.93,9.32-16.63-4.74-10.7-14.06-25.2-35.59-22.18-51.93,3.02-16.34,17.37-23.92,17.37-23.92Z"/><path class="cls-2" d="m259.71,210.76l30.45,11.75s-10.35,29.39-11.95,28.96,32.92,11.96,32.92,11.96l-15.17,42.04c-.21.59-.83.73-1.46.68-6.29-.49-22.55-6.7-22.55-6.7,0,0-.1-2.95,1.71-2.99,2.12-.05,5.29,2.42,4.88,1.19-.75-2.29-6.84-10.2-4.88-11.24,1.96-1.03,12.64,7.78,11.6,6.52-1.04-1.27-11.6-6.52-11.6-6.52,0,0-.24-3.44.96-4.78,1.19-1.34,6.75-3.38,6.13-5.98-.61-2.6-6.12.96-6.12.96,0,0-7.76,2.62-11.91-2.68-4.14-5.3-5.71-4.71-5.35-6.65.36-1.94,3.94-4.35,2.67-9.97,0,0-13.05-7.21-15.49-12.96-2.44-5.75-6.19-13.65-5.07-17.75,1.12-4.09,17.13-16.02,20.23-15.85Z"/><circle class="cls-3" cx="191.88" cy="254.01" r="7.9"/><path class="cls-1" d="m186.15,252.35c-.39,1.24-.38,2.55,0,3.82.05.23.16.45.26.67.1.22.2.43.33.64.78,1.51,2.12,2.75,3.73,3.43.71.33,1.5.44,2.27.49.5.01,1,.04,1.5-.03l.38-.03c.13,0,.26.02.39,0,.26-.01.52-.02.79-.03.34,0,.33.08.1.32-.11.12-.28.29-.49.48-.21.18-.47.46-.8.51-.57.17-1.17.24-1.77.3-.61,0-1.22-.07-1.81-.23-1.18-.29-2.32-.82-3.23-1.64-1.09-.95-2.1-2.07-2.7-3.41-.65-1.47-.9-3.11-.62-4.69.17-.96.5-1.87.94-2.72.68-1.28,1.62-2.42,2.79-3.27.89-.66,1.88-1.24,2.98-1.5.24-.07.48-.09.73-.13.92-.09,1.22.08,1.4.37.04.07.09.14.11.21.07.23-.28.45-.86.56-.42.13-.85.23-1.25.41-.41.13-.8.31-1.18.5-.75.41-1.45.93-2.04,1.57-.89.94-1.56,2.13-1.92,3.39h-.04Z"/><path class="cls-5" d="m322.4,235.22c-3.21,3.79-11.07,27.36-11.28,28.22s-35.76-12.08-33.92-11.96,5.73-8.71,5.73-8.71c0,0,18.4,3.29,22.64-14.49l16.82,6.94Z"/><path class="cls-4" d="m287.79,143.96s-2.99.95-3.2,4.34c-.21,3.39,1.1,7.69,6.65,5.29,4.1-1.77.21-9.64-3.45-9.64Z"/><path class="cls-1" d="m170.16,296.77c2.44,1.48,4.93,2.9,7.48,4.19.92.49,1.89.9,2.83,1.35,3.31,1.61,6.69,3.1,10.12,4.47,1.52.62,3.08,1.15,4.61,1.69,1.98.67,3.94,1.42,5.88,2.24.6.26.5.3-.07.28-.57-.04-1.62-.08-2.82-.3-1.05-.25-2.09-.51-3.13-.81-1.02-.33-2.03-.7-3.05-1.05-2.02-.74-4.04-1.51-6-2.43-2.36-1.06-4.86-2.08-7.26-3.22-1.32-.62-2.61-1.3-3.91-1.96-1.28-.71-2.58-1.37-3.83-2.12l-2.32-1.36-2.28-1.43c-1.15-.72-2.27-1.51-3.4-2.26-1.1-.79-2.21-1.58-3.3-2.37-.84-.63-1.68-1.24-2.52-1.84l-2.47-1.89c-.37-.28-.72-.55-1.05-.87-.62-.59-1.02-.99-1.25-1.32-.22-.34-.31-.58-.34-.82-.01-.11-.05-.23-.04-.31.01-.13.18-.11.48,0,.3.12.76.34,1.26.71,1.51,1.05,2.99,2.2,4.51,3.35.77.56,1.54,1.13,2.31,1.7.77.57,1.58,1.1,2.36,1.66,1.16.84,2.39,1.59,3.57,2.41,1.22.77,2.42,1.56,3.66,2.28l-.02.04Z"/><path class="cls-1" d="m179.16,225.79c.92-3.36,1.83-6.73,2.85-10.07.36-1.22.7-2.45,1.11-3.66,1.4-4.27,3.02-8.48,4.95-12.54.41-.91.83-1.82,1.31-2.7.46-.89.9-1.78,1.39-2.65.66-1.09,1.31-2.19,1.99-3.26.74-1.04,1.53-2.04,2.29-3.06.48-.63.44-.53.12.07-.32.59-.86,1.72-1.57,2.98-2.46,4.52-4.76,9.09-6.73,13.89-1.22,2.86-2.15,5.96-3.14,8.98-1.04,3.34-2.04,6.7-2.97,10.08l-1.71,6.25c-.85,3.16-1.74,6.32-2.63,9.45-.34,1.21-.69,2.42-1.03,3.62-.36,1.19-.7,2.39-1.1,3.58-.16.53-.34,1.04-.53,1.56-.71,1.93-.98,2.53-1.28,2.89-.07.08-.14.2-.19.24-.16.15,0-.68.43-2.12,1.2-4.29,2.53-8.78,3.72-13.35.89-3.39,1.79-6.79,2.69-10.19h.03Z"/><path class="cls-1" d="m252.59,273.76c.43-.36.82-.77,1.23-1.17.15-.15.25-.33.4-.48.52-.52,1.05-1.06,1.53-1.64.2-.26.41-.53.58-.8.12-.17.21-.37.35-.53.15-.16.33-.3.52-.43.13-.08.25.02.38.22.12.2.3.55.29.84-.07.47-.29.86-.48,1.26-.23.38-.55.71-.88,1.03-.41.37-.65.88-1,1.31-.38.48-.81.91-1.24,1.35-.27.26-.55.52-.82.78-.41.39-.86.75-1.28,1.13-.33.29-.6.65-.94.95-.07.07-.13.15-.22.2-.35.15-.52.08-.78-.19-.06-.06-.12-.12-.17-.19-.17-.21-.18-.5-.07-.78.15-.41.4-.66.61-.96.23-.28.46-.57.74-.8.39-.38.82-.73,1.21-1.13l.04.03Z"/><path class="cls-1" d="m241.04,251.52c.58-.41,1.16-.82,1.73-1.23.21-.15.39-.34.61-.48.76-.5,1.54-1,2.37-1.42.36-.2.71-.41,1.06-.62.47-.24.96-.46,1.51-.52.17-.02.2.14.15.37-.05.23-.17.55-.38.74l-.56.51c-.19.17-.41.27-.61.42-.42.27-.83.55-1.31.77-.56.27-1.03.72-1.54,1.1-.56.42-1.12.84-1.69,1.26l-1.03.79c-.52.4-1.06.79-1.55,1.22-.39.33-.71.73-1.1,1.05-.09.07-.16.16-.25.22-.35.24-.51.25-.77.05-.06-.05-.12-.09-.17-.14-.17-.17-.15-.43.02-.69.27-.37.53-.77.84-1.11.32-.33.67-.65,1.02-.96.52-.47,1.07-.91,1.63-1.35l.03.03Z"/><path class="cls-1" d="m209.65,309.78s-14.68,15.08-19.38,22.88c-4.7,7.81-18.07,35.28-18.16,41.62-.09,6.33,2.64,13.79,7.84,17.93,5.2,4.14,27.66,14.71,43.07,13.38,15.41-1.33,14.65-6.3,14.65-6.3,0,0,13.41-52.43,16.59-59.2,3.18-6.78.89,14.11.89,14.11,0,0,2.09,32.79,8.03,41.82,5.94,9.03,7.09,9.87,13.66,11.5,6.57,1.64,40.3-2.51,49.13-8.15,8.83-5.65,8.13-7.15,6.69-9.22-1.44-2.07-28.98-42.06-25.15-53.08l-46.06-15.06-51.81-12.22Z"/><path class="cls-1" d="m326.68,229.08c-.36-.66-.28-1.35-.13-1.88.05-.2.09-.4.17-.58.28-.64.66-1.19,1.04-1.72.17-.25.32-.48.48-.72.21-.3.41-.62.81-.76.12-.05.17.01.22.17.03.15.17.48.11.68-.3.66-.78,1.17-1.24,1.72-.28.33-.42.74-.56,1.12-.15.42-.24.85-.15,1.21.05.21.18.43.36.56.26.19.67.21,1.05.05.29-.12.54-.35.76-.58.05-.05.09-.11.15-.15.2-.17.35-.13.56,0l.13.08c.07.05.1.11.12.21.01.09.02.24-.05.34-.37.64-1.05,1.08-1.96,1.22-.7.12-1.6-.32-1.9-.96h.02Z"/><path class="cls-1" d="m333.02,231.91c-.43.09-.89.12-1.36.05-.17-.03-.35-.04-.51-.11-.28-.11-.58-.3-.79-.56-.21-.26-.3-.58-.33-.86-.02-.25-.06-.48-.02-.71.02-.14.04-.28.08-.42.05-.13.16-.26.23-.38.03-.08.07-.06.11.01.03.08.19.23.3.39.22.54.22.93.3,1.21.04.19.28.25.52.31.26.07.56.07.88,0,.19-.04.39-.1.59-.17.29-.12.6-.26.86-.45.2-.16.37-.36.56-.55.04-.04.07-.09.12-.12.18-.11.29-.08.5.14l.14.15c.15.18.19.39.11.56-.22.5-.62.84-1.11,1.09-.36.19-.76.34-1.18.45v-.03Z"/><path class="cls-1" d="m340.57,231.97c-.59.35-1.21.68-1.86.95-.24.1-.46.23-.72.3-.89.32-1.88.36-2.78.16-.4-.09-.82-.21-1.18-.45-.23-.15-.44-.36-.58-.62-.12-.27-.12-.56-.09-.82.02-.16.05-.14.15-.02.08.12.29.31.49.43.44.54,1.33.74,2.26.78.56.03,1.08-.19,1.62-.43.59-.26,1.17-.59,1.75-.92.36-.21.71-.42,1.06-.65.53-.34,1.05-.7,1.56-1.06.39-.29.75-.61,1.13-.91.08-.07.17-.13.25-.19.33-.23.5-.21.67-.12.04.02.08.04.12.07.11.09.04.29-.14.53-.58.66-1.24,1.29-1.98,1.84-.55.4-1.14.78-1.72,1.15v-.02Z"/><path class="cls-1" d="m350.86,230.79c.12.41.26.81.46,1.18.07.14.17.25.25.37.23.39.66.73,1.1.79.2.02.39-.05.54-.18.18-.19.38-.39.59-.65.07-.08.16-.03.24.09.07.13.18.36.1.59-.1.42-.49.78-.97.94-.49.16-.99.04-1.36-.17-.42-.26-.86-.59-1.11-.98-.29-.41-.5-.86-.67-1.31-.11-.28-.2-.56-.28-.84-.13-.43-.22-.86-.33-1.28-.09-.33-.22-.64-.29-.97-.02-.07-.04-.14-.05-.22-.04-.28.04-.37.27-.46.05-.02.11-.04.16-.06.17-.04.36.05.45.23.15.27.27.54.39.81.08.28.14.56.21.85.1.42.19.84.33,1.25h-.02Z"/><path class="cls-1" d="m263.93,302.84c-.35-.04-.66-.23-.93-.48-.13-.13-.25-.28-.38-.42-.12-.14-.24-.34-.29-.41-.25-.39-.45-.77-.64-1.14-.38-.75-.71-1.5-1.04-2.24l-1.88-4.46c-.45-1.08-.95-2.14-1.42-3.21-.82-1.88-1.67-3.75-2.64-5.54-.97-1.78-2.05-3.54-3.37-5.02-.29-.33-.62-.62-.95-.88-.32-.25-.72-.44-.97-.47-.16,0-.63.23-.99.44l-1.16.7c-1,.62-2.03,1.22-3.15,1.67-1.1.49-2.29.77-3.48.86-.74.05-.64,0-.07-.28.29-.12.68-.35,1.13-.63.44-.31.96-.62,1.54-.91.95-.49,1.85-1.08,2.79-1.62l1.42-.87c.24-.15.5-.3.78-.44.16-.07.27-.15.48-.22.19-.09.49-.13.75-.14.62.05.97.25,1.34.45.34.21.63.44.91.67.54.48.99.99,1.42,1.51.84,1.05,1.56,2.16,2.21,3.31,1.45,2.56,2.83,5.25,4.05,7.95,1.35,2.95,2.52,6.01,3.96,8.82l.27.48c.08.14.22.35.24.38.1.13.23.35.43.28.14-.02.28-.09.38-.19.1-.09.18-.24.27-.48.17-.45.2-1.03.2-1.59-.02-1.71-.41-3.47-.78-5.23l1.03-.31c.44,1.13.9,2.23,1.44,3.29,1.04,2.03,2.34,3.92,3.97,5.3.36.29.72.58,1.12.81.72.47,1.24.63,1.6.81.35.24.58.33.77.53.09.08.21.16.26.23.09.12-.05.2-.43.3-.37.11-1,.19-1.76-.02-1.13-.29-2.16-.91-3.06-1.63-.87-.76-1.63-1.64-2.27-2.57-1.3-1.86-2.28-3.91-3.11-5.97l-.17-.42,2.36-.72c.32,1.45.68,2.98.82,4.6.07.82.1,1.66-.1,2.6-.13.5-.22.94-.7,1.56-.24.28-.5.53-.83.66-.3.19-.64.27-.98.36h-.2c-.06-.04-.14-.02-.21-.03v-.04Z"/><path class="cls-1" d="m339.59,288.89c1.98-3.94,4.03-7.85,6.17-11.7.76-1.42,1.53-2.83,2.34-4.22,2.85-4.9,5.83-9.72,8.95-14.44,1.37-2.1,2.79-4.19,4.17-6.27.91-1.32,1.79-2.66,2.73-3.96.97-1.28,1.97-2.53,3.04-3.73.66-.75.6-.63.24.15-.21.47-.45,1.02-.72,1.62-.31.67-.71,1.42-1.19,2.21-3.54,5.46-7.07,10.9-10.65,16.42-2.14,3.29-4.1,6.88-6.06,10.38-1.08,1.92-2.11,3.88-3.17,5.82-1.01,1.97-2.06,3.91-3.03,5.89l-1.81,3.65-1.75,3.68c-1.76,3.72-3.44,7.51-4.98,11.29-1.17,2.96-2.22,5.89-3.29,8.84-.23.65-.46,1.29-.69,1.95-.92,2.42-1.3,3.15-1.74,3.59-.1.1-.21.24-.29.29-.27.17-.09-.88.41-2.72.71-2.74,1.67-5.48,2.6-8.27.52-1.38,1.03-2.77,1.55-4.16.55-1.38,1.11-2.77,1.67-4.15,1.7-4.1,3.49-8.19,5.47-12.18h.04Z"/><path class="cls-1" d="m346.45,272.94c1.31-2.76,2.69-5.48,4.11-8.18.51-.99,1.01-1.98,1.54-2.96,1.89-3.44,3.82-6.85,5.92-10.17.91-1.48,1.83-2.97,2.74-4.44,1.15-1.9,2.42-3.72,3.72-5.52.41-.56.41-.44.18.1-.23.54-.67,1.54-1.29,2.66-1.06,2-2.26,3.91-3.37,5.87-1.14,1.95-2.25,3.92-3.44,5.86-1.42,2.32-2.71,4.85-4.01,7.3-1.43,2.71-2.82,5.43-4.14,8.19-.82,1.69-1.64,3.39-2.42,5.11-1.19,2.59-2.34,5.22-3.4,7.85-.81,2.05-1.53,4.08-2.26,6.13-.16.45-.31.9-.47,1.35-.6,1.69-.86,2.2-1.23,2.48-.09.06-.18.15-.25.18-.25.1-.16-.65.23-1.91,1.13-3.74,2.54-7.62,4.11-11.45,1.15-2.85,2.4-5.68,3.69-8.48h.03Z"/><path class="cls-1" d="m334.05,300.3l-3.42,10.43-1.19,3.83c-1.48,4.47-2.99,8.94-4.65,13.37-.74,1.96-1.48,3.94-2.32,5.86-.54,1.23-1.1,2.47-1.81,3.65-.35.59-.75,1.17-1.22,1.71-.23.27-.51.52-.82.73-.31.21-.65.42-1.05.49-.51.07-.73-.08-.71-.14,0-.11.25-.17.48-.46.24-.28.48-.65.72-1.15.25-.48.57-1.04.93-1.65,1.31-2.2,2.29-4.73,3.29-7.22,1.01-2.5,1.96-5.05,2.92-7.6,1.15-3.06,2.1-6.34,3.13-9.53l3.41-10.53,2.16-6.47c1.1-3.26,2.27-6.52,3.44-9.73.92-2.5,1.83-4.94,2.88-7.37.23-.53.45-1.06.72-1.58.99-1.94,1.44-2.49,1.9-2.77.11-.06.23-.15.31-.18.28-.08.01.77-.56,2.23-1.72,4.33-3.26,8.99-4.95,13.63-1.22,3.46-2.41,6.96-3.54,10.47h-.04Z"/><path class="cls-1" d="m248.12,216.69c1.37-.98,2.76-1.93,4.21-2.78.52-.32,1.02-.67,1.56-.96,1.88-1.05,3.84-1.93,5.81-2.76.87-.38,1.74-.76,2.6-1.14l1.7-.64c.58-.17,1.19-.26,1.79-.38.38-.06.34,0,.09.23-.26.22-.69.71-1.26,1.13-1.07.61-2.15,1.14-3.27,1.61-1.1.49-2.21.98-3.33,1.48-1.34.59-2.63,1.4-3.91,2.16-1.4.85-2.79,1.72-4.12,2.7-.83.58-1.62,1.21-2.4,1.85-.59.49-1.15,1.01-1.73,1.51-.55.54-1.1,1.07-1.61,1.63-.39.44-.76.89-1.13,1.35-.34.47-.68.95-1.03,1.41-.16.2-.3.41-.45.62-.58.76-.85.94-1.27.9-.1,0-.2,0-.28-.03-.28-.08-.24-.54.09-1.19.94-1.97,2.4-3.78,4.03-5.39,1.21-1.2,2.54-2.28,3.88-3.33l.03.03Z"/><path class="cls-1" d="m210.17,238.4l.61,2.02c.21.67.48,1.33.72,1.99l.74,1.99.85,1.95.64,1.41.71,1.38c1.55,3.3,3.35,6.5,5.32,9.59.86,1.38,1.82,2.71,2.77,4.01.64.82,1.25,1.66,1.85,2.51.62.84,1.15,1.75,1.67,2.66.32.57.21.55-.28.23-.31-.21-.65-.44-.99-.67-.42-.27-.86-.64-1.25-1.09-1.48-1.56-2.66-3.36-3.89-5.11-1.2-1.78-2.34-3.61-3.39-5.5-1.25-2.26-2.63-4.58-3.8-6.96-.62-1.32-1.2-2.66-1.78-3.99-.5-1.37-1.06-2.72-1.51-4.1-.52-1.72-1.1-3.42-1.46-5.18l-.47-1.99-.31-2.02-.32-2.01c-.05-.68-.1-1.35-.15-2.03-.25-2.09-.2-4.15-.22-6.25.04-.46.08-.91.14-1.37.15-.85.27-1.41.42-1.78.17-.37.33-.57.51-.73.08-.07.17-.16.24-.2.12-.06.2.09.28.41.08.32.18.82.15,1.43-.23,3.6-.07,7.36.42,11.11.4,2.78.97,5.57,1.83,8.27l-.04.02Z"/><path class="cls-1" d="m300.66,203.9c1.71.82,3.44,1.61,5.18,2.38.63.29,1.29.51,1.93.79,2.25.97,4.51,1.91,6.82,2.74,1.02.37,2.07.7,3.09,1.05,1.33.41,2.65.84,3.94,1.39.4.17.32.24-.07.27-.39.03-1.11.08-1.91-.03-1.4-.3-2.79-.62-4.16-1.03-1.36-.45-2.71-.93-4.04-1.48-1.59-.65-3.3-1.2-4.94-1.84-1.8-.7-3.58-1.46-5.34-2.27-1.08-.49-2.16-.99-3.24-1.5-1.62-.78-3.25-1.57-4.86-2.35-1.25-.6-2.52-1.1-3.76-1.72-.27-.13-.55-.25-.82-.39-.98-.56-1.2-.91-1.26-1.31-.01-.09-.04-.19-.03-.27.02-.26.53-.24,1.35-.02,1.17.39,2.33.88,3.49,1.4,1.15.53,2.3,1.1,3.46,1.67,1.72.84,3.44,1.68,5.19,2.48v.04Z"/><path class="cls-1" d="m302.12,161.48c.85.71,1.75,1.37,2.73,1.9.36.19.72.38,1.09.54,1.28.65,2.66,1.1,4.05,1.47.62.18,1.26.24,1.89.34.82.04,1.63.12,2.46.28.26.05.22.19,0,.35-.22.16-.64.38-1.14.45-1.75.01-3.51-.3-5.15-.96-.98-.39-2-.77-2.96-1.27-1.03-.58-2.04-1.2-2.94-1.97-.58-.44-1.08-.96-1.6-1.46-.75-.8-1.44-1.65-2.05-2.54-.49-.68-.92-1.38-1.33-2.11-.09-.16-.15-.33-.23-.5-.26-.63-.3-.85-.24-1.04.01-.04.02-.09.04-.12.06-.09.26.12.51.54.76,1.24,1.54,2.53,2.51,3.69.69.88,1.51,1.66,2.35,2.39v.02Z"/><path class="cls-1" d="m309.3,192.24c-.75-.1-1.5-.16-2.25-.32l-1.12-.21-1.1-.28c-.54-.12-1.08-.25-1.6-.44-1.84-.67-3.6-1.58-5.14-2.78-.36-.24-.69-.52-1.01-.81-.32-.29-.67-.55-.95-.86-.38-.4-.76-.8-1.08-1.24-.29-.47-.56-.95-.81-1.43-.15-.3-.04-.32.26-.18.29.14.81.39,1.26.77.18.19.43.32.63.48.21.15.39.33.59.5.36.36.83.61,1.22.93.39.33.82.61,1.23.92.4.33.85.58,1.29.87,1.05.7,2.34,1.04,3.56,1.44.68.21,1.38.37,2.07.54.71.12,1.41.29,2.13.36l1.32.15,1.33.07c1.35.05,2.71.02,4.05-.12,1.04-.14,2.04-.37,3.05-.59l.66-.16c.84-.11,1.14-.03,1.39.25.06.06.13.12.17.19.13.21-.16.5-.76.79-1.78.8-3.8,1.16-5.84,1.27-.76.06-1.52.04-2.28.06-.76-.04-1.53-.05-2.29-.12v-.04Z"/><path class="cls-1" d="m294.49,71.27c-8.31-5.83-22.03-.9-22.61,9.78-.32,5.84,3.02,10.5,5.6,12.29,1.57,1.08,5.02,2.56,7.5,3.55,1.58.63,3.38.04,4.29-1.4,1.67-2.67,4.43-6.71,6.61-8.02,1.78-1.08,2.88-2.43,3.52-3.46.56-.9,1.53-8.22-4.91-12.74Z"/><path class="cls-1" d="m331.05,121.23s21.84-11.56,12.05-29.63c-9.27-17.11-34.6-12.38-39.34-9.44-5.61,3.47-14.14,11.4-16.49,18.01,0,0-6.11-5.05-13.63-5.06-8.29,0-16.8,5.29-19.58,10.74s-5.71,12.36-5,19.44c.71,7.08,5.77,23.73,5.6,28.3-.17,4.58.26,8.56-3.82,11.25-4.09,2.69-11.64,4.55-14.86,4.82-3.22.26-8.97,1.33-9.75,4.16s1.3,3.61,1.3,3.61l16.74,7.34s18.34-12.73,30.91-13.33l10.65-.97s.41-7.36,5.12-10.74c4.71-3.38,7.58-3.48,7.58-3.48l-2.15-4.42s-6.98,5.96-11,1.38c-4.02-4.58,1.89-10.37,1.89-10.37,0,0-5.35-3.05-4.6-8.89s5.07-7.08,7.45-6.11c2.37.97,4.63,5.81,6.15,5.96s5.3-2.67,6.49-5.96c1.19-3.29,4.2-11.54,5.69-13.81s4.9-7.91,9.26-8.6,7.64-.29,9.21,1.56c1.58,1.86,4.13,4.08,4.13,9.16v5.07"/><path class="cls-1" d="m317.82,211.06c4.59,1.41,9.25,2.69,13.88,4.07l2.55.72.64.18c.13.03.12.04.19.04.05,0,.1-.04.14-.07l.52-.33c.9-.56,2.04-.93,3.23-.86.63.03,1.25.31,1.65.8.42.43.65,1.25.65,1.38,0,.1,0,.22-.05.32-.02.05-.05.11-.09.15-.02.02-.04.05-.06.07-.03.02-.05.04-.01.02.19-.08.4-.14.63-.19,0,0,.5-.1.86-.13.38-.04.78-.05,1.18-.02.2.02.4.04.61.09.2.04.39.08.72.23.3.16.56.43.7.73.06.14.12.29.15.42.02.06,0,.08.01.12,0,.09-.01.18-.03.27,0,.06-.04.14-.05.19.06,0,.12-.02.19-.03.14-.02.27-.05.42-.06l.43-.03c.19,0,.38-.01.57,0,.19,0,.39.03.59.06l.3.06s.17.05.25.08c.09.04.16.08.23.13l.17.14.04.05s.05.06.07.1c.04.07.07.14.1.22.19.89.09-1.02,2.64-.96,1.06.21,1.23,1.75,1.35,2.23.07.34.13.67.22.96.07.25.13.34.31.39l2.4.94c.82.32,1.63.68,2.43,1.05,1.6.74,3.18,1.54,4.74,2.37.96.53.78.57-.14.36-.92-.22-2.61-.6-4.53-1.22l-2.38-.79-2.36-.84-.59-.2-.18-.06c-.1-.04-.2-.07-.29-.11-.09-.05-.2-.07-.26-.16-.08-.06-.18-.1-.25-.17-.14-.15-.25-.33-.35-.51-.12-.17-.18-.4-.22-.5-.08-.26-.15-.49-.2-.7l-.26-1.03s0-.04-.02-.04c0-.01-.02,0-.04,0,.02-.02-.09.06-.17.12-.19.17-.45.46-.66.75-.11.16-.21.31-.32.46-.11.12-.23.23-.34.34-.22.2-.42.3-.57.28-.08,0-.14-.03-.2-.07-.03-.02-.05-.05-.08-.06,0,.02,0,.04-.02.06-.05.07-.19.15-.36.06-.17-.08-.36-.39-.51-.8-.07-.2-.14-.43-.17-.68l-.02-.18-.06-.12-.03-.06v-.03s-.02-.01-.02-.01l.16-.18s.06-.06.08-.09c.1-.14.15-.23.17-.3h0s0,0,0,0c-.07.31.17-.7-.17.69h0s0,0,0,0h-.02s-.04-.01-.04-.01l-.08-.02c-.11-.02-.23-.03-.35-.04-.13,0-.26,0-.4,0-.14,0-.23,0-.59.06-.3.05-.62.11-.94.17-.31.04-.57.02-.8-.01l-.28-.44-.12-.38c-.07-.22-.18-.5-.32-.86.03-.15.07-.32.06-.45-.01-.07-.02-.01.11-.08.16-.06.21-.15.15-.07-.01.02-.01.03-.03.05-.03.04-.04.08-.06.13-.02.06,0,.07-.03.05l-.07-.02c-.1-.03-.21-.05-.32-.07-.38-.06-.82-.05-1.26.02-.13.02-.19.03-.38.07-.22.05-.44.11-.66.18-.22.07-.44.16-.67.25-.11.04-.24.13-.32.08-.09,0-.18-.03-.21-.1-.21-.24-.35-.35-.48-.42-.06-.04-.12-.06-.18-.08h-.02s0,0,0,0h0c.53-.58-.72.78-.59.64h0s-.02.02-.02.02l-.06.08-.25.3c-.16.2-.32.4-.53.62-.22.22-.37.41-.63.66l-.91.79c-.24.24-.09,0-.07-.08l.13-.33c.06-.12.06-.19.16-.36l.51-.69.51-.68.26-.34.15-.22.56-.83c.14-.23.2-.37.3-.57.11-.19.16-.34.21-.48v-.24c-.01-.05-.02-.07-.03-.1-.01-.07-.03-.12-.05-.16-.02-.06-.05-.11-.09-.16-.07-.09-.19-.15-.31-.15-.53,0-1.15.14-1.68.46-.14.08-.28.17-.43.27l-.24.16c-.13.09-.27.18-.41.26-.28.16-.59.28-.91.26-.16.01-.32-.04-.47-.07l-.41-.11c-4.67-1.31-9.37-2.57-14.05-3.94-2.88-.84-5.76-1.71-8.62-2.65-4.33-1.41-8.61-3.04-12.79-4.78-3.25-1.34-6.43-2.7-9.57-4.22-.69-.34-1.36-.67-2.06-1.02-2.54-1.35-3.19-2.05-3.42-2.85-.05-.19-.14-.4-.14-.55,0-.52,1.2-.29,3.09.57,5.52,2.69,11.37,5.36,17.4,7.69,4.48,1.72,9.08,3.24,13.73,4.61v.06Z"/><path class="cls-1" d="m352.39,229.26s.09.02.13-.05c.02-.03.03-.07.05-.13l.02-.09s.01-.03,0-.22c-.03-.42-.13-.83-.17-1.25-.14-1.49-.35-2.99-.66-4.44-.06-.32-.15-.64-.26-.94-.1-.28-.26-.64-.33-.71-.1-.16-.33-.28-.48-.11-.13.14-.14.28-.26.45-.16.21-.21.17-.29-.13-.01-.09-.1-.26-.15-.54-.07-.31-.06-.65.02-.95.17-.58.48-.93.77-1.01.07-.03.15-.14.22-.12.07,0,.15.01.23.03.18-.02.39-.04.6.02.38.17.73.4.99.74.59.83.68,1.23.87,1.71.35.93.46,1.88.48,2.83.03,1.13.3,2.24.37,3.38l.04.94c0,.42.01.95,0,1.4,0,.92-.11,1.74-.34,2.3-.11.28-.24.51-.42.72-.15.21-.52.37-.84.32-.17-.06-.33-.13-.47-.21-.48-.25-.88-.79-1.27-1.38-.4-.58-.73-1.32-1.04-2.05-.36-.83-.78-1.6-1.12-2.45-.07-.19-.17-.36-.22-.56-.13-.74.02-1.09.55-1.29.12-.05.24-.1.35-.12.39-.05.77.13,1.04.53.44.61.68,1.32.99,2.01l.44,1.04s.02,0,.02.02c0-.01-.02.06.02.12.02.05.04.05.05.05l.05.12Z"/><path class="cls-1" d="m338.24,230.02c1.47-.76,2.97-1.63,4.38-2.64.51-.37.97-.8,1.47-1.19.88-.68,1.7-1.42,2.47-2.16.37-.38.72-.78.96-1.16.21-.32.33-.8.31-1.18-.03-.34-.17-.59-.38-.71.02-.03-.21-.04-.39-.03-.2.02-.42.07-.64.13-1.15.29-2.36.79-3.41,1.47-.3.22-.35.15-.23-.22.14-.35.48-1.02,1.09-1.57.55-.47,1.12-.91,1.81-1.27.34-.19.73-.3,1.18-.4.25-.03.5-.07.84-.03.15,0,.41.09.6.16.16.08.29.14.42.24.54.36.89.95,1.03,1.47.15.54.16,1.04.1,1.51-.06.47-.22.92-.44,1.35-.21.39-.45.71-.69,1-1.16,1.37-2.35,2.57-3.67,3.65-1.45,1.16-2.98,2.21-4.62,3.1-.5.27-1.03.52-1.56.76-.27.11-.54.23-.82.33-.29.11-.5.19-.94.31-1.11.31-2.2.34-2.95-.28-.1-.09-.18-.21-.25-.33-.09-.11-.16-.24-.18-.38-.04-.13-.07-.27-.05-.4,0-.13,0-.27.05-.4.12-.52.48-1,.88-1.48.71-.75,1.13-1.09,1.64-1.55.5-.43,1-.85,1.51-1.24.23-.18.43-.36.68-.51.9-.56,1.27-.56,1.7-.36.1.05.21.09.29.14.27.18.08.68-.45,1.3-.78.9-1.71,1.6-2.55,2.37-1.18,1.08-.7.71-.79.78h0s-.01.03,0,.04c0,0,0,0,.01,0,0,0,.12-.04.18-.06.15-.05.3-.13.45-.19.3-.14.61-.29.91-.45l.03.05Z"/><path class="cls-1" d="m322.77,114.54c.36-.64.73-1.35,1.19-1.89s.98-.97,1.64-1.15c.55-.15,1.03-.04,1.48.28.5.36.85.9,1.21,1.45.29.45.89.64,1.37.36.45-.26.65-.91.36-1.37-.51-.79-1.06-1.54-1.82-2.09-.85-.62-1.88-.8-2.9-.61-2.08.4-3.3,2.29-4.25,4.01-.26.47-.11,1.09.36,1.37s1.11.12,1.37-.36h0Z"/><path class="cls-1" d="m327.57,121.5c.35,1.09.67,2.17.65,3.29-.01.84-.26,1.75-.79,2.35-.36.41-.4,1.02,0,1.41.36.36,1.06.41,1.41,0,.88-1,1.3-2.24,1.37-3.55s-.3-2.74-.72-4.03c-.17-.51-.69-.85-1.23-.7-.5.14-.87.71-.7,1.23h0Z"/><path class="cls-1" d="m336.7,460.27c-1.55-.07-3.1-.12-4.66-.14-.57-.01-1.13.05-1.7.04-2-.02-4-.13-6.01-.13-.89,0-1.78.06-2.66.12-1.12.13-2.26.13-3.4.03-.36-.04-.33-.28-.05-.58.28-.29.8-.7,1.44-.86,1.14-.31,2.3-.35,3.46-.46,1.16-.08,2.32-.12,3.5-.09,1.4.03,2.85-.14,4.28-.18,1.57-.04,3.15-.04,4.72-.03l2.91.03c1.47,0,2.94.08,4.4.08,1.14,0,2.25-.13,3.39-.11.25,0,.49-.02.75,0,.94.07,1.22.25,1.37.8.03.13.08.25.09.38.04.42-.36.73-1.03.83-.99.14-2,.27-3.02.34-1.02.04-2.06.07-3.11.08-1.55.04-3.11-.08-4.67-.08v-.06Z"/><path class="cls-1" d="m179.84,466.79c-2.42-.08-4.85-.15-7.29-.19-.89-.01-1.77.05-2.66.03-3.13-.13-6.27-.27-9.4-.4-1.39-.04-2.79-.07-4.17-.11-.89-.01-1.78-.03-2.66-.07-.89-.06-1.77-.22-2.65-.36-.55-.1-.47-.28,0-.53.48-.23,1.34-.61,2.36-.77,1.8-.11,3.59-.19,5.39-.26,1.8-.04,3.6-.02,5.42.05,2.17.11,4.43-.15,6.66-.17l7.35-.04,4.53.02c2.29.03,4.59.06,6.86.09.89-.02,1.78-.03,2.66-.05h2.58c.37,0,.73,0,1.1-.02,1.35-.01,1.74.09,2.14.69.09.14.21.27.27.4.24.45-.3,1.02-1.43,1.28-1.66.38-3.36.46-4.95.53-1.59.02-3.2.03-4.81.05-2.43-.04-4.87-.09-7.31-.13v-.07Z"/><path class="cls-1" d="m317.27,427.61l2.49,4.17c.83,1.39,1.66,2.78,2.53,4.15.62,1.01,1.32,1.96,1.96,2.95,2.22,3.52,4.53,6.99,6.94,10.4,1.05,1.53,2.21,2.98,3.34,4.43,1.46,1.85,2.83,3.79,4.21,5.72.42.61.2.67-.4.36-.59-.32-1.61-.96-2.64-1.89-.88-.85-1.77-1.69-2.61-2.57-.8-.92-1.56-1.87-2.33-2.81-1.53-1.89-2.97-3.86-4.28-5.94-1.59-2.46-3.45-4.88-5.12-7.36-1.82-2.74-3.6-5.51-5.28-8.34l-3.09-5.22c-1.53-2.65-3.07-5.32-4.58-7.95-1.18-2.04-2.44-3.99-3.63-6-.26-.44-.54-.86-.76-1.33-.43-.86-.68-1.45-.77-1.9-.07-.47-.03-.78.08-1.07.05-.14.09-.29.15-.39.11-.16.31-.1.63.12.32.23.77.6,1.18,1.18,1.31,1.65,2.45,3.46,3.64,5.27,1.2,1.8,2.32,3.69,3.42,5.58,1.65,2.81,3.29,5.64,4.99,8.43l-.06.04Z"/><path class="cls-1" d="m314.63,405.55c-4.99,1.26-10.03,2.2-15.11,2.86-5.08.65-10.19,1.05-15.34,1.06-1.88-.02-3.76-.04-5.66-.2-1.9-.14-3.8-.37-5.72-.88-.42-.09-.85-.23-1.27-.39-.43-.14-.85-.28-1.28-.51-.43-.2-.85-.39-1.26-.69l-.61-.42c-.19-.15-.35-.31-.53-.47-1.38-1.26-2.41-2.68-3.29-4.15-1.76-2.93-3.02-6.01-4.13-9.13-2.18-6.24-3.57-12.68-4.57-19.15-.87-5.74-1.46-11.56-1.64-17.33-.12-3.7-.08-7.43.27-11.14.1-.93.18-1.85.31-2.78.18-.92.31-1.84.53-2.75.39-1.82.86-3.63,1.46-5.38.77-2.19.78-1.84.64.11-.09.97-.08,2.38-.12,4.03,0,.84-.02,1.73,0,2.68.01.48,0,.96.02,1.47-.05.49-.07,1-.1,1.52-.45,7.35-.29,14.75.52,22.12.8,7.37,2.16,14.7,4.16,21.87.6,2.14,1.3,4.28,2.15,6.36.84,2.08,1.8,4.12,2.97,5.99.59.92,1.21,1.83,1.92,2.59.34.41.72.73,1.09,1.06.18.17.39.26.58.4l.29.2.34.15c1.8.84,4.06,1.24,6.27,1.49,4.91.51,9.97.38,14.98-.02,5.02-.4,10.03-1.11,14.98-2.09,6.09-1.18,12.09-2.98,17.62-5.52,2.05-1,4.06-2.19,5.5-3.73.17-.2.3-.41.46-.61.07-.1.16-.2.22-.3l.15-.31c.06-.13.17-.26.16-.43,0-.16-.05-.32-.11-.47-.13-.35-.44-.91-.72-1.37-.3-.49-.61-.97-.93-1.46-2.65-3.87-5.52-7.7-8.14-11.63-4.1-6.11-7.89-12.33-10.8-19.1-.63-1.49-1.24-2.96-1.79-4.5-.49-1.44-.86-2.64-1.08-3.68-.25-1.03-.39-1.87-.47-2.57-.08-.7-.12-1.26-.07-1.74.05-.48.15-.87.26-1.22.1-.32.17-.72.28-.91.32-.63,1.35,1.64,2.73,5.67,2.08,5.99,4.81,11.91,8.14,17.63,3.32,5.73,7.17,11.23,11.22,16.75.75,1.03,1.5,2.07,2.25,3.15.37.54.75,1.09,1.11,1.68.38.61.71,1.14,1.11,2.07.11.3.22.6.28.9.02.31.09.62.07.93l-.06.46c.06.17-.04.3-.05.46l-.4.89c-.1.2-.2.42-.31.61l-.36.51c-.25.33-.49.71-.77.97l-.82.83c-.28.27-.57.47-.85.71-.57.49-1.17.85-1.76,1.25-4.76,2.94-9.79,4.52-14.88,5.66l-.03-.07Z"/><path class="cls-1" d="m325.86,420.54c.93,1.87,1.89,3.73,2.89,5.57.36.67.8,1.3,1.16,1.97,1.29,2.36,2.58,4.74,3.91,7.1.59,1.04,1.24,2.06,1.89,3.06.78,1.32,1.56,2.65,2.08,4.12.17.45.03.46-.37.23-.38-.24-1.13-.65-1.74-1.3l-1.51-1.8c-.48-.62-.89-1.28-1.32-1.93-.85-1.31-1.67-2.65-2.42-4.03-.88-1.67-2.03-3.27-3.03-4.92-1.09-1.82-2.14-3.67-3.18-5.53l-1.88-3.45c-.9-1.77-1.81-3.54-2.71-5.3-.71-1.36-1.53-2.64-2.25-3.99-.16-.29-.35-.58-.48-.89-.23-.59-.34-1-.3-1.32.06-.34.21-.57.46-.81.11-.11.22-.23.33-.31.19-.14.43-.12.71.01.28.13.64.36.88.74.77,1.1,1.43,2.29,2.08,3.49.67,1.2,1.29,2.45,1.96,3.68.96,1.85,1.93,3.72,2.89,5.58l-.06.04Z"/><path class="cls-1" d="m178.96,420.41c-1.4,3.09-2.78,6.2-4.09,9.33-.49,1.14-.89,2.31-1.37,3.45-1.68,4.03-3.31,8.08-4.81,12.18-.68,1.81-1.24,3.68-1.81,5.52-.33,1.19-.66,2.38-1.05,3.55l-.57,1.76c-.19.59-.49,1.14-.74,1.72-.34.7-.53.55-.71-.18-.09-.36-.18-.87-.27-1.48-.05-.6,0-1.27.15-1.98.52-2.5,1.34-4.91,2.13-7.33.82-2.41,1.7-4.81,2.7-7.17,1.18-2.83,2.19-5.85,3.34-8.76,1.27-3.2,2.6-6.37,3.96-9.52l2.54-5.82c1.28-2.94,2.63-5.85,3.87-8.78.98-2.27,1.76-4.57,2.7-6.82.21-.5.39-.99.61-1.48.21-.46.39-.83.56-1.14.18-.3.39-.52.56-.7.35-.35.64-.51.98-.59.15-.04.31-.11.44-.11.41-.03.42.88.15,2.37-1.24,4.22-3.17,8.38-5.01,12.6-1.39,3.12-2.79,6.26-4.18,9.39l-.06-.02Z"/><path class="cls-1" d="m184.77,429.89c1.02-2.15,2.07-4.29,3.13-6.42.38-.78.7-1.59,1.1-2.35,1.46-2.68,2.92-5.36,4.38-8.04.63-1.2,1.22-2.42,1.84-3.61.75-1.55,1.49-3.11,2.67-4.45.36-.42.41-.32.45.21.03.35.06.73.09,1.08.01.44-.03.92-.16,1.41-.1.44-.25.86-.42,1.26l-.49,1.23c-.34.81-.65,1.64-1.05,2.42-.79,1.57-1.63,3.12-2.52,4.65-1.08,1.83-1.87,3.89-2.84,5.82-1.05,2.13-2.12,4.26-3.13,6.4-.63,1.32-1.25,2.65-1.84,3.98-.89,2.02-1.78,4.06-2.53,6.13-.57,1.61-.96,3.24-1.4,4.87-.1.36-.2.71-.3,1.06-.4,1.32-.82,1.65-1.44,1.78-.15.03-.3.07-.43.08-.44,0-.64-.65-.57-1.71.1-.77.22-1.55.38-2.32.19-.76.38-1.54.62-2.3.47-1.53,1-3.05,1.59-4.56.86-2.25,1.84-4.45,2.81-6.65l.06.02Z"/><path class="cls-1" d="m226.62,407.15c-6.22.73-12.47.26-18.47-1.06-6.02-1.28-11.8-3.44-17.27-6.17-3.97-2.04-7.83-4.36-11.25-7.28-1.53-1.26-2.94-2.67-4.29-4.16-1.36-1.47-2.6-3.11-3.55-4.97-.24-.46-.47-.93-.64-1.44-.19-.5-.38-.99-.48-1.54l-.18-.8c-.05-.27-.05-.56-.08-.83-.02-.28-.05-.56-.05-.83l.06-.79c.16-2.1.63-3.98,1.1-5.9,2.01-7.56,4.92-14.76,8.26-21.75,2.98-6.19,6.32-12.25,10.08-17.95,4.81-7.3,10.22-14.39,16.95-20.03,2.08-1.76,1.89-1.42.53.47-.69.94-1.61,2.31-2.83,3.84-1.14,1.61-2.45,3.49-4.05,5.38-5.51,6.83-10.17,14.31-14.41,22.01l-1.57,2.9-1.47,2.96c-1.01,1.96-1.87,3.99-2.8,5.99-1.75,4.05-3.4,8.15-4.8,12.34-.42,1.25-.78,2.52-1.17,3.8-.29,1.28-.69,2.57-.88,3.85-.11.64-.26,1.3-.28,1.9l-.08.93c0,.3.04.57.06.86.14,1.14.52,2.32,1.13,3.43,1.18,2.23,2.85,4.33,4.83,6.11,1.95,1.81,4.11,3.42,6.35,4.88,4.94,3.19,10.28,5.85,15.9,7.72,2.8.94,5.66,1.71,8.56,2.3,2.9.55,5.84.9,8.78,1.02,3.62.13,7.26-.12,10.79-.85.88-.19,1.77-.37,2.62-.64.87-.23,1.73-.51,2.56-.85l1-.37c.23-.11.29-.33.41-.59.29-.76.53-1.65.75-2.52,1.28-5.39,2.32-10.97,3.56-16.46,1.22-5.5,2.54-10.97,4-16.38,2.28-8.4,4.75-16.6,7.98-24.63.71-1.77,1.42-3.49,2.23-5.24,3-6.48,4.56-8.25,6.04-9.14.34-.2.74-.5,1-.57.45-.13.42.5.01,1.73-.4,1.24-1.13,3.1-2.22,5.4-6.32,13.76-11.07,29.07-14.68,44.76-1.36,5.83-2.53,11.7-3.79,17.65-.32,1.49-.65,2.98-1.06,4.52-.1.39-.22.78-.34,1.18l-.21.63-.12.33c-.05.12-.15.32-.22.48-.16.33-.35.65-.58.93-.11.15-.24.28-.37.4-.16.08-.29.22-.45.29-.31.2-.65.29-.98.41l-.59.21c-3.03,1.01-6.12,1.86-9.27,2.21l-.03-.08Z"/><path class="cls-1" d="m258.95,288.49l2.42,6.03.93,2.15.07.17s.01.04.02.06l.03.1.07.22c.05.15.11.33.2.5.07.17.17.39.36.39.17-.02.21-.18.25-.32.07-.29.07-.65.07-1.07l-.06-.81-.09-.9c-.07-.6-.17-1.2-.27-1.8-.13-.76-.29-1.53-.44-2.29-.1-.78-.22-1.54-.22-2.35,0-.51.01-.44.3-.09.31.34.88.99,1.27,1.84.52,1.55.93,3.12,1.24,4.74.08.41.14.81.2,1.23l.05.46c.02.19.04.38.04.57.02.38.04.75.02,1.11,0,1.5-.4,2.33-.93,2.77-.11.1-.25.19-.42.27-.18.08-.41.11-.6.09-.4-.05-.61-.22-.87-.39-.49-.38-1.03-1.23-1.51-2.17l-.36-.72-.18-.36-.14-.29-.41-.89-2.57-5.98c-.53-1.22-1.07-2.44-1.64-3.63-.87-1.81-1.76-3.62-2.85-5.27-.85-1.27-1.82-2.44-2.84-3.45-.22-.23-.48-.4-.68-.64-.8-.8-.95-1.05-.85-1.77.01-.14,0-.29,0-.39.02-.18.17-.28.52-.37.38-.12.8.01,1.3.26,1.44.75,2.48,1.94,3.43,3.11.97,1.18,1.67,2.53,2.36,3.86,1.02,1.98,1.95,3.98,2.83,6l-.05.03Z"/><path class="cls-1" d="m270.69,299l.32.41c.08.09.07.1.07.1l.02.03s.05.1.09.16c.08.11.21.29.39.38.07.06.18.08.19.02.04-.12-.08-.32-.08-.43,0-.11-.02-.25-.05-.41,0,0-.05-.17-.09-.3l-.12-.4-.25-.79c-.35-1.06-.69-2.13-1.07-3.18-.33-.94-.72-1.86-1.11-2.77-.55-1.14-.91-2.38-1.19-3.65-.08-.4.11-.41.45-.18.33.23.9.66,1.32,1.27.79,1.06,1.25,2.27,1.81,3.45.53,1.19,1.04,2.39,1.44,3.65.12.38.25.75.39,1.13l.22.57.11.28.06.15c.04.07.07.15.1.23.51,1.25.92,2.63.87,3.49-.02.35-.08.64-.21.9-.05.13-.17.23-.35.34-.12.17-.34.15-.49.17-.58-.02-1.1-.21-1.71-.61-.6-.38-1.23-.99-1.79-1.61-.14-.15-.28-.31-.42-.47l-.29-.35-.51-.66c-.33-.44-.65-.9-.96-1.35-.94-1.38-1.76-2.84-2.56-4.28-.62-1.12-1.28-2.21-1.81-3.38-.12-.26-.25-.5-.35-.77-.35-1.01-.12-1.44.14-1.74.06-.07.12-.16.17-.2.1-.08.23-.03.41.1.18.14.43.36.66.67,1.14,1.88,2.17,3.88,3.36,5.84.88,1.45,1.81,2.88,2.87,4.17l-.04.03Z"/><path class="cls-1" d="m275.82,296.72c.08.1.2.23.4.36.09.05.22.14.32.14.05-.04.05-.08.05-.14-.01-.09-.16-.25-.17-.34-.02-.09-.04-.19-.09-.32-.03-.12-.11-.3-.39-.82l-1.42-2.6c-.41-.78-.85-1.55-1.29-2.3-.3-.48-.54-.99-.75-1.53-.1-.27-.22-.53-.28-.82-.05-.29-.1-.59-.14-.88-.03-.37-.01-.32.24-.11.13.1.34.23.6.37.28.13.57.3.78.54.85.78,1.52,1.67,2.19,2.58l.5.69.43.74c.28.5.55,1.01.8,1.53.27.79,2.46,3.6,2.83,5.11.13.44.15.76.14,1.06-.04.3.03.55-.28.89-.66.33-1.42.19-2.32-.19-.53-.2-1.1-.54-1.65-.9l-.83-.58-.8-.69c-.2-.16-.41-.39-.53-.51l-.39-.41-.73-.85c-.47-.58-.91-1.17-1.34-1.77-.65-.93-1.36-1.82-1.93-2.8-.13-.22-.27-.42-.39-.64-.16-.44-.23-.75-.21-.99.04-.25.14-.42.29-.59.07-.08.12-.16.19-.22.11-.09.26-.07.46.02.2.09.47.25.67.51.66.74,1.13,1.57,1.71,2.35.56.78,1.13,1.57,1.76,2.3.45.55.94,1.07,1.45,1.56.08.08.03.04.05.06v.03s.04.04.06.07l.03.09Z"/><path class="cls-1" d="m278.98,287.06c.7.4,1.4.81,2.1,1.21.26.16.55.25.8.43.87.64,1.7,1.4,2.4,2.23.33.34.61.75.89,1.11.16.25.34.5.49.76.13.27.24.55.33.84.05.18-.11.24-.36.2-.25-.04-.61-.13-.84-.34-.42-.38-.83-.72-1.25-1.04-.39-.34-.75-.71-1.15-1.08-.46-.47-1.14-.68-1.73-1.01-.66-.37-1.35-.73-2.06-1.07-.44-.22-.88-.43-1.32-.65-.67-.32-1.34-.68-2.02-.99-.53-.25-1.09-.41-1.63-.65-.11-.07-.23-.11-.33-.19-.2-.13-.3-.28-.32-.45-.03-.16,0-.32.07-.52.03-.09.05-.18.09-.25.11-.25.43-.39.85-.45.28.03.54.05.8.08.25.05.5.12.74.19l.72.23c.24.09.45.22.69.32.69.35,1.38.71,2.07,1.06l-.02.05Z"/><path class="cls-1" d="m268.85,276.12l.77.24.24.09s.03.02.04.03c.05,0,.09.04.16.05.26.05.66.04,1.07-.03.84-.13,1.76-.44,2.66-.81.66-.27,1.29-.62,1.97-.91.6-.26,1.2-.52,1.83-.76l.49-.18.25-.09.37-.11c.51-.13,1.03-.2,1.5-.08.88.4,1.45,1.42,1.4,2.43-.07,1.1-.53,1.7-.98,2.28-.81,1.01-1.77,1.77-2.75,2.45-1.27.83-2.6,1.73-4.21,1.69-.5-.03-.45-.11-.2-.54.26-.45.67-1.27,1.33-1.68,1.23-.64,2.43-1.38,3.39-2.26.49-.43.91-.91,1.15-1.35.08-.11.1-.22.14-.3.05-.06.04-.06.07-.1.04-.07.05-.16.03-.27-.02-.05-.03-.14-.09-.18-.06-.03-.12-.03-.19-.03-.08.01-.1.01-.25.06-.19.07-.39.15-.6.24-.81.35-1.64.78-2.5,1.15-.94.42-1.91.81-2.92,1.15-1.03.31-2.08.68-3.45.47-.11-.02-.21-.03-.32-.08l-.16-.06-.08-.03h-.04s-.02-.02-.02-.02h-.01s0,0,0,0c.12-.29-.27.64.27-.64l-.02.04-.03.08-.22.52h0s0,0,0,0h0s-.05-.02-.08-.03l-.23-.06c-.32-.09-.63-.19-.95-.29-.62-.22-1.24-.46-1.83-.75-1.81-.83-3.42-2.02-4.88-3.3-1.12-1.01-2.27-1.99-3.21-3.16-.19-.27-.4-.52-.58-.8-.34-.52-.37-.98-.42-1.28-.03-.32.02-.54.13-.75.05-.1.08-.21.13-.28.16-.23.68.03,1.45.52.55.39,1.02.81,1.53,1.21.43.46.91.86,1.34,1.31.92.84,1.88,1.64,2.81,2.44,1.42,1.15,3,2.16,4.73,2.7v.06Z"/><path class="cls-1" d="m219.55,204.25c-1.75,1.71-3.4,3.51-4.93,5.38-1.52,1.87-2.93,3.84-3.91,5.9l-.36.77-.26.77c-.2.48-.27,1.11-.41,1.66-.14.57-.21,1.15-.28,1.74-.08.58-.15,1.17-.16,1.76-.15,2.37,0,4.78.36,7.17.5,3.5,1.48,6.94,2.6,10.32,2.01,5.97,4.71,11.74,7.85,17.25,3.16,5.5,6.76,10.78,10.94,15.52,1.87,2.08,3.87,4.07,6.09,5.66.27.21.57.36.85.55.26.18.61.36.83.46l.22.11c.08.04.16-.04.24-.05l.84-.31c1.3-.5,2.57-1.06,3.82-1.66,3.18-1.58,6.22-3.47,8.86-5.85.65-.6,1.31-1.2,1.9-1.86.63-.62,1.21-1.3,1.78-1.98,1.11-1.39,2.09-2.88,2.91-4.47.95-2.01.95-1.73.47.16-.13.47-.33,1.02-.55,1.67-.25.63-.53,1.35-.91,2.11-.2.38-.4.78-.61,1.18-.23.4-.48.8-.74,1.23-.53.83-1.13,1.7-1.9,2.47-1.3,1.43-2.74,2.72-4.27,3.89-1.53,1.17-3.13,2.25-4.82,3.16-1.69.91-3.44,1.7-5.23,2.38l-.8.3c-.21.08-.42.16-.64.23l-.32.11c-.05.01-.11.05-.16.04l-.15-.07-1.19-.58c-.24-.12-.48-.24-.69-.38-.89-.52-1.7-1.11-2.48-1.71-3.07-2.45-5.57-5.33-7.93-8.3-2.34-2.98-4.46-6.12-6.42-9.35-2.34-3.87-4.57-7.9-6.54-12.1-1.98-4.19-3.71-8.55-4.94-13.04-1.36-4.92-2.17-10.08-1.79-15.29l.24-1.95c.09-.65.26-1.29.38-1.93.1-.64.39-1.3.58-1.95.28-.6.53-1.24.85-1.81,1.25-2.32,2.79-4.39,4.42-6.36,4.07-4.8,8.73-8.98,13.59-12.86,7.38-5.86,15.42-10.94,23.76-15.15,6.49-3.26,13.1-6.08,20.13-7.84,1.54-.41,3.07-.74,4.65-1.04,1.47-.25,2.71-.38,3.74-.5,1.04-.06,1.88-.1,2.57-.09,1.39.02,2.19.23,2.83.46.29.11.67.22.84.33.28.18-.18.38-1.23.58-.52.11-1.2.19-2,.33-.8.15-1.73.29-2.78.43-3.09.55-6.19,1.26-9.27,2.16-3.07.94-6.13,2.03-9.15,3.28-6.06,2.46-12.01,5.46-17.72,8.9-4.24,2.55-8.36,5.33-12.31,8.34-3.94,3.01-7.76,6.21-11.24,9.71l-.06-.04Z"/><path class="cls-1" d="m271.37,76.23c.9-1.92,2.19-3.62,3.7-5.02,1.52-1.41,3.26-2.5,5.09-3.35,1.34-.59,2.67-1.19,4.12-1.5,2.52-.6,5.13-.73,7.68-.37,2.54.36,5.04,1.21,7.2,2.66l1.37,1.06c.44.37.83.81,1.24,1.22.75.89,1.42,1.85,1.87,2.92.64,1.35.94,2.83,1.02,4.3.07.37-.05.73-.09,1.09l-.18,1.08c-.03.36-.19.7-.33,1.03l-.4.99c-.35.81-.44.64-.61-.13-.11-.46-.23-.98-.37-1.54-.15-.61-.39-1.28-.46-1.98l-.28-1.79c-.2-.56-.34-1.13-.58-1.66-.52-1.04-1.15-2.01-2-2.83-1.61-1.7-3.87-2.95-6.37-3.59-3.01-.77-6.41-.44-9.43.62-3.37,1.12-6.48,3.1-8.53,5.96-.64.87-1.16,1.82-1.53,2.83-.4,1-.65,2.06-.74,3.13-.15,1.62.02,3.29.54,4.86.52,1.57,1.37,3.03,2.45,4.29,1.68,1.98,3.92,3.33,6.24,4.37.51.23,1.05.39,1.57.62,1.99.71,2.57,1.1,2.85,1.86.06.18.16.36.18.52.09.52-.91.73-2.59.4-2.44-.59-4.91-1.64-7.14-3.21-2.21-1.59-4.19-3.73-5.44-6.34-1.94-3.83-1.98-8.65-.15-12.54l.07.02Z"/><path class="cls-1" d="m306.37,161.9c.33.21.63.46.97.63l1.03.53c.68.4,1.42.61,2.15.87,1.48.46,3.04.67,4.6.7.57.07,1.14-.08,1.7-.13.57-.07,1.14-.11,1.66-.26,1.89-.37,3.67-1.28,5.16-2.61,1.5-1.32,2.72-3.02,3.67-4.86.86-1.63,1.42-3.44,1.83-5.24.14-.58.27-1.16.35-1.75.11-.59.2-1.17.26-1.77.09-.59.15-1.18.22-1.77.02-.3.1-.59.15-.89.07-.3.07-.59.2-.89.42-.74.39-.66.89,0,.26.33.51.8.76,1.39.18.58.3,1.28.24,2.01-.1,1.3-.27,2.6-.55,3.88-.13.64-.3,1.28-.51,1.91-.19.63-.4,1.26-.65,1.87-.97,2.46-2.34,4.83-4.25,6.78-1.18,1.12-2.41,2.27-3.93,3.05-.18.1-.36.22-.55.31l-.59.25c-.4.16-.78.34-1.19.47-.82.19-1.66.46-2.47.48-3.57.44-7.22-.26-10.44-1.75-2.01-.88-3.77-2.21-5.38-3.65-2.43-2.23-4.22-5.06-5.53-8.01-1.01-2.3-1.75-4.68-2.13-7.18-.03-.55-.08-1.09-.1-1.65-.06-1.04.1-1.72.26-2.18.13-.23.25-.41.37-.55.09-.15.2-.26.32-.35.11-.09.21-.2.3-.25.15-.08.28.1.42.46.06.18.16.42.28.69.14.28.12.58.16.93.55,4.08,1.61,8.22,3.9,11.77,1.69,2.6,3.78,5,6.41,6.69l-.03.06Z"/><path class="cls-1" d="m284.85,166.15c.62-1.48,1.45-2.85,2.44-4.06.34-.46.71-.88,1.1-1.3,1.46-1.36,3.09-2.46,4.81-3.28.74-.42,1.51-.74,2.26-1.1.94-.52,2-.75,3.08-.84.34-.02.35.17.19.53-.17.34-.46.99-.94,1.34l-.66.41c-.11.06-.22.14-.32.22l-.33.18c-.44.25-.88.48-1.33.7-.83.53-1.78.9-2.62,1.43-.26.15-.52.31-.77.48-.23.19-.45.41-.67.62-.21.21-.44.42-.64.65-.19.24-.38.47-.58.7-.47.47-.79,1.05-1.19,1.58-.19.27-.32.58-.49.86-.16.29-.33.58-.44.89-.14.38-.33.75-.45,1.15l-.35,1.19c-.25,1.23-.48,2.51-.38,3.79.04.99.34,1.95.59,2.9.05.21.11.41.15.63.15.8,0,1.08-.62,1.4-.14.07-.28.16-.43.21-.49.19-.98-.06-1.29-.66-.48-.87-.81-1.83-.94-2.85-.18-1.01-.22-2.06-.17-3.12.05-1.57.39-3.18.94-4.69l.07.02Z"/><path class="cls-1" d="m311.98,188.84c2.69.09,5.43-.13,7.97-.95.93-.3,1.79-.72,2.63-1.17.75-.37,1.44-.84,2.1-1.33.29-.27.62-.52.9-.81.26-.31.57-.58.8-.92.98-1.3,1.71-2.83,2.09-4.48.32-1.46.38-3.01.2-4.5-.04-.48-.17-.95-.26-1.43-.1-.47-.3-.92-.37-1.4-.13-.46-.21-.96-.38-1.42-.08-.23-.15-.48-.21-.72l-.27-.71c-.22-.6-.09-.61.43-.3.51.31,1.61.9,2.34,2.03.16.25.34.49.46.76l.3.82c.17.55.33,1.12.45,1.69.22,1.14.35,2.32.3,3.49-.17,2.34-.94,4.68-2.32,6.63-.85,1.15-1.81,2.22-2.95,3.13-1.12.87-2.36,1.57-3.63,2.08-2.82,1.11-5.77,1.59-8.7,1.68-1.8.05-3.6-.08-5.38-.33-2.69-.38-5.33-1.11-7.85-2.11-1.94-.81-3.86-1.69-5.56-3.07-.39-.28-.71-.64-1.06-.98-.59-.7-.91-1.22-1.02-1.65-.07-.45,0-.77.15-1.05.07-.13.12-.28.2-.36.13-.15.35-.11.65.05.29.17.72.41,1.07.82,2.34,2.25,5.43,4.04,8.91,5.14,2.56.83,5.3,1.24,8.02,1.3v.05Z"/><path class="cls-1" d="m248.22,215.1c.94-.62,1.87-1.24,2.85-1.79.95-.59,1.94-1.12,2.93-1.62.71-.39,1.42-.78,2.16-1.13,2.6-1.19,5.26-2.22,7.96-3.08,1.19-.41,2.38-.82,3.55-1.22l2.28-.74c.77-.21,1.55-.41,2.33-.56.49-.1.49.13.16.49-.33.36-.97.88-1.81,1.23-2.98,1.24-5.88,2.56-8.86,3.78-1.81.68-3.53,1.72-5.24,2.67-1.88,1.06-3.74,2.15-5.55,3.34l-1.65,1.12-1.59,1.21c-.81.61-1.55,1.28-2.33,1.93-.75.68-1.47,1.38-2.17,2.09-.53.57-1.02,1.16-1.5,1.76l-1.36,1.85c-.21.26-.38.55-.58.83-.74,1.02-1.17,1.19-1.84,1.05-.15-.03-.32-.05-.45-.1-.46-.17-.48-.84-.07-1.73,1.33-2.57,3.12-5.11,5.4-7.16.81-.8,1.72-1.49,2.58-2.23.91-.68,1.8-1.39,2.74-2.03l.04.05Z"/><path class="cls-1" d="m245.89,243.42c.79,1.44,1.78,2.76,2.88,4.01.42.44.86.85,1.31,1.27,1.51,1.54,3.21,2.94,4.95,4.33.78.61,1.61,1.16,2.43,1.7,1.08.65,2.13,1.38,3.05,2.29.28.29.06.53-.43.65-.48.12-1.25.17-1.92-.14-.6-.26-1.16-.59-1.71-.92-.55-.33-1.11-.68-1.65-1.03-1.09-.72-2.17-1.47-3.16-2.38-1.18-1.07-2.55-2.03-3.75-3.18-1.31-1.27-2.47-2.69-3.51-4.18-.6-.94-1.2-1.89-1.7-2.88-.41-.73-.73-1.51-1.06-2.28-.36-.76-.62-1.55-.94-2.31-.5-1.18-1.02-2.33-1.42-3.54-.08-.27-.18-.52-.25-.79-.27-1.01-.18-1.37.25-1.72.1-.08.19-.17.29-.23.33-.18.79.13,1.16.79.27.49.53,1,.78,1.5.26.5.56.99.77,1.51.42,1.05.92,2.06,1.36,3.09.75,1.49,1.45,2.99,2.32,4.39l-.05.04Z"/><path class="cls-1" d="m322.53,198.98c.16.8.32,1.61.47,2.41.06.29.18.57.22.87.14,1.06.28,2.12.42,3.17.08.46.16.93.22,1.39.09.59.16,1.19.11,1.8-.01.19-.15.18-.34.06-.18-.13-.46-.37-.6-.69-.23-.56-.5-1.11-.68-1.67-.15-.57-.27-1.15-.36-1.75-.1-.72-.42-1.41-.64-2.11-.2-.79-.41-1.59-.61-2.38-.12-.49-.25-.98-.37-1.47-.2-.74-.36-1.5-.6-2.23-.19-.56-.49-1.09-.74-1.64-.06-.12-.1-.24-.13-.37-.09-.48.02-.67.53-.88.11-.05.22-.11.33-.14.36-.13.78-.02,1.01.28.39.43.61.91.78,1.42.19.5.32,1.02.46,1.54.19.79.37,1.58.56,2.37l-.05.02Z"/><path class="cls-1" d="m214.96,171.31c2.54.91,5.05,1.91,7.55,2.9.91.37,1.85.68,2.75,1.06,3.18,1.37,6.31,2.85,9.43,4.3,1.39.64,2.81,1.23,4.2,1.82,1.78.79,3.7,1.28,5.19,2.73.45.48.34.54-.3.72-.66.23-1.84.57-2.91.21-1.84-.74-3.69-1.46-5.49-2.32-1.8-.85-3.58-1.73-5.35-2.66-2.12-1.11-4.47-1.93-6.73-2.84-2.48-1.02-4.98-1.98-7.5-2.91-1.55-.56-3.11-1.12-4.68-1.63-2.38-.79-4.77-1.57-7.18-2.21-1.87-.5-3.75-.81-5.62-1.19-.41-.08-.83-.14-1.24-.23-1.55-.28-1.93-.84-2.11-1.47-.04-.15-.11-.3-.12-.43-.02-.22.14-.37.47-.5.33-.12.83-.27,1.41-.21,3.45.39,6.97,1.3,10.48,2.3,2.6.77,5.19,1.61,7.77,2.5l-.02.06Z"/><path class="cls-1" d="m170.66,209.9c-2.16,5.69-4.2,11.43-6.11,17.23-.7,2.11-1.3,4.26-1.99,6.38-2.4,7.48-4.72,14.99-7.01,22.52-.99,3.35-1.99,6.72-2.98,10.05-.65,2.14-1.28,4.28-2.02,6.4-.71,2.13-1.55,4.23-2.71,6.19-.89,1.15-.9.9-.89-.38,0-.64.1-1.49.22-2.5.08-.5.15-1.05.27-1.61.13-.56.3-1.14.49-1.75,1.38-4.27,2.56-8.65,3.9-12.98,1.31-4.35,2.65-8.71,4.07-13.07,1.7-5.21,3.16-10.74,4.83-16.1,1.83-5.89,3.78-11.76,5.86-17.58,1.28-3.58,2.66-7.14,4.08-10.67,2.16-5.35,4.56-10.63,7.18-15.74,2.06-3.95,4.07-7.89,6.76-11.47.62-.77,1.2-1.55,1.84-2.31.62-.69,1.21-1.2,1.68-1.64.48-.44.86-.78,1.26-.99.78-.43,1.28-.59,1.73-.66.21-.03.45-.1.58-.09.23.02.11.32-.24.89-.18.29-.42.64-.71,1.04-.14.21-.31.41-.49.63-.17.23-.36.47-.55.73-4.68,5.99-8.56,13.12-12.02,20.54-2.54,5.52-4.86,11.21-6.97,16.97l-.07-.02Z"/><path class="cls-1" d="m258.64,320.27c3.71.98,7.39,2.12,11.07,3.2l5.5,1.76c1.83.58,3.66,1.18,5.47,1.82,3.63,1.25,7.25,2.56,10.84,3.9,3.59,1.34,7.16,2.71,10.73,3.94,5.21,1.81,10.55,3.03,15.97,4.17l.89.19c.13.02.17.03.26.06.17.03.25-.17.33-.28,0-.01.07-.17.16-.27l.2-.37c.14-.25.26-.51.39-.78.25-.53.51-1.07.71-1.64.84-2.26,1.6-4.59,2.35-6.92l4.4-14.07c2.93-9.39,5.98-18.76,9.32-28.03,2.97-8.22,6.12-16.44,9.62-24.4,2.24-5.11,4.65-10.17,7.34-15.1,2.71-4.89,5.53-9.81,9.34-13.96,1.18-1.29,1.73-1.82,1.76-1.73.04.09-.42.82-1.09,2.14-.67,1.32-1.52,3.26-2.59,5.53-1.11,2.25-2.51,4.81-4.04,7.59-2.72,4.92-5.2,9.98-7.51,15.12-2.33,5.14-4.5,10.35-6.56,15.63-4.12,10.55-7.8,21.31-11.36,32.17-2.13,6.5-4.12,13.19-6.21,19.92-.53,1.68-1.06,3.37-1.63,5.05-.29.84-.58,1.68-.9,2.53-.29.86-.58,1.71-.97,2.59-.43.96-1.47,2.76-2.96,2.35l-2.96-.52c-1.74-.32-3.47-.71-5.2-1.12-3.79-.89-7.55-2.02-11.22-3.31-3.67-1.28-7.26-2.66-10.87-3.98-3.61-1.32-7.23-2.61-10.87-3.83-1.82-.63-3.65-1.18-5.48-1.77-1.83-.58-3.65-1.18-5.5-1.7-9.05-2.72-18.24-5.03-27.43-7.34-13.93-3.47-27.96-7.02-41.56-11.45-10.57-3.44-20.82-7.32-30.66-12.37-2.16-1.13-4.32-2.13-6.4-3.45-1.95-1.17-3.56-2.16-4.9-3.01-1.32-.88-2.28-1.74-3.1-2.41-1.62-1.36-2.43-2.31-2.98-3.2-.25-.4-.63-.87-.75-1.13-.43-.86,3,.67,8.56,4.07,16.62,10,35.88,17.12,55.72,22.67,14.75,4.13,29.82,7.6,44.78,11.66v.08Z"/><path class="cls-1" d="m181.03,221.92c1.49-4.99,3.1-9.98,4.93-14.9l.99-2.7c.34-.89.72-1.78,1.09-2.66.34-.77.66-1.56,1.01-2.32l1.12-2.28c.38-.76.73-1.53,1.14-2.27l1.25-2.21c.43-.73.81-1.49,1.27-2.2.42-.74.88-1.45,1.33-2.17l.83-1.32.53-.81c.06-.21.25-.1.4-.06l.48.12,1.61.42,1.22.35c2.88.85,5.74,1.8,8.52,2.83,1.79.65,3.57,1.34,5.3,2.12,1.74.77,3.46,1.55,5.03,2.68.98.7.83.66-.23.61-.53-.03-1.33.04-2.21-.08-.44-.05-.93-.09-1.42-.2-.48-.12-.99-.27-1.5-.46-3.64-1.28-7.12-2.81-10.73-3.99-.9-.3-1.8-.59-2.71-.87l-2.44-.72s-.13-.08-.16,0l-.5.71-.84,1.16c-.29.38-.61.75-.87,1.15-2.42,3.9-4.4,8.28-6.16,12.66-1.91,4.83-3.57,9.78-5.11,14.77-.94,3.08-1.86,6.17-2.76,9.27-1.36,4.69-2.82,9.39-4.33,14.02-1.22,3.58-2.34,7.13-3.82,10.6-.32.77-.63,1.52-.95,2.29-.66,1.41-1.2,2.28-1.64,2.86-.44.58-.81.85-1.21,1-.18.07-.38.18-.53.2-.47.07-.28-1.25.58-3.29,2.63-6.03,4.94-12.56,7-19.25,1.51-4.98,2.96-10.02,4.44-15.08h.06Z"/><path class="cls-1" d="m189,269.12c2.27.99,4.55,1.95,6.87,2.82.84.33,1.71.59,2.56.9,2.98,1.15,5.98,2.28,9.01,3.31,1.35.45,2.7.91,4.04,1.36,1.73.55,3.45,1.12,5.15,1.79.53.21.43.27-.06.25-.49-.02-1.4-.06-2.43-.26-1.81-.39-3.63-.79-5.43-1.23-1.8-.44-3.57-1.04-5.34-1.65-2.11-.75-4.37-1.32-6.54-2.07-2.38-.83-4.75-1.7-7.09-2.64-1.45-.57-2.87-1.18-4.3-1.78-2.16-.93-4.3-1.94-6.42-2.91-1.66-.73-3.3-1.46-4.94-2.19-.36-.16-.72-.31-1.08-.5-1.32-.67-1.6-1.14-1.59-1.79,0-.15-.01-.31.02-.44.1-.44.81-.49,1.85-.15,2.95,1.2,5.94,2.62,8.95,4.05,2.24,1.06,4.51,2.1,6.8,3.07l-.02.05Z"/><path class="cls-1" d="m221.7,276.36c-.18.22-.36.45-.52.69-.06.09-.07.19-.13.28-.19.31-.46.61-.66.93-.09.14-.13.3-.18.45-.05.2-.07.41-.24.58-.05.06-.24.01-.44-.08-.19-.09-.41-.24-.43-.38-.05-.46-.04-.93.18-1.33.12-.24.16-.53.24-.79.11-.28.24-.56.37-.83.08-.17.17-.34.25-.5.12-.26.31-.48.4-.74.07-.2.06-.44.14-.64.01-.05.02-.1.04-.14.08-.16.25-.14.59,0l.24.09c.25.11.44.28.52.46.08.24.14.47.16.68-.01.19-.06.37-.11.55-.06.27-.24.49-.39.73l-.04-.02Z"/><path class="cls-1" d="m223.43,271.26c-.11.12-.23.25-.33.38-.04.05-.03.11-.09.15-.17.15-.35.3-.49.46-.06.07-.1.15-.13.24-.04.11-.05.22-.18.3-.07.05-.68-.27-.7-.42,0-.25.03-.48.21-.67.11-.11.08-.27.13-.41.07-.14.16-.28.24-.41.05-.08.1-.17.15-.25.06-.13.18-.25.22-.39.03-.11,0-.24,0-.36,0-.03-.01-.06,0-.08.05-.08.15-.07.43,0l.19.05c.2.07.37.17.44.27.22.29.18.5.15.72-.01.16-.11.29-.2.43h-.03Z"/><path class="cls-1" d="m192.31,221.73c-.32-.2-.65-.4-.97-.58-.12-.07-.25-.09-.37-.16-.42-.24-.83-.5-1.23-.76-.18-.11-.38-.19-.57-.26-.25-.09-.51-.16-.72-.35-.07-.06,0-.22.14-.37.13-.15.33-.31.49-.3.56.05,1.1.12,1.58.38.28.19.62.22.93.33.34.13.68.27,1.02.41.21.09.42.17.62.26.32.11.62.28.95.37.25.07.53.03.8.04.06,0,.12,0,.17.02.2.07.23.21.16.63l-.05.29c-.07.32-.23.55-.41.63-.56.23-1.03.07-1.51-.06-.36-.09-.68-.31-1.02-.47v-.04Z"/><path class="cls-1" d="m198.52,222.47c.25.18.49.36.74.53.09.06.2.08.29.15.3.26.61.51.93.73.14.1.3.17.45.24.2.09.4.16.57.32.11.09-.25.51-.51.49-.44-.08-.88-.18-1.26-.42-.22-.15-.51-.17-.77-.27-.26-.13-.53-.27-.8-.4-.16-.08-.33-.17-.49-.25-.25-.12-.5-.26-.75-.35-.21-.06-.43-.06-.63-.15-.04-.02-.09-.02-.13-.05-.15-.09-.16-.22-.09-.48l.05-.18c.06-.19.2-.33.36-.4.23-.07.47-.13.7-.16.2.03.39.09.58.16.27.13.52.31.78.46v.03Z"/><path class="cls-1" d="m272.88,217.06c-.37-.17-.73-.34-1.1-.5-.13-.06-.28-.08-.41-.14-.47-.21-.94-.46-1.4-.71-.21-.1-.43-.17-.64-.24-.28-.08-.57-.14-.81-.35-.15-.12.36-.85.68-.82.58.09,1.15.21,1.68.5.32.18.69.23,1.03.34.37.14.75.28,1.13.42.23.09.47.17.7.26.36.12.7.27,1.06.38.28.09.58.08.86.15.06.02.13.02.19.05.22.09.26.21.21.51l-.04.2c-.05.22-.21.38-.4.42-.58.16-1.1.07-1.62-.02-.38-.09-.74-.28-1.12-.41v-.04Z"/><path class="cls-1" d="m281.79,220.78c-.3-.17-.61-.35-.91-.52-.11-.06-.24-.08-.35-.15-.39-.22-.77-.47-1.16-.71-.17-.1-.36-.17-.54-.24-.24-.08-.49-.13-.68-.32-.12-.11.35-.85.65-.83.51.08,1.01.21,1.46.49.26.18.58.24.88.36.31.14.63.29.95.43.2.09.39.18.58.27.3.12.59.27.89.38.23.08.5.07.74.14.05.01.11.02.16.04.19.08.21.2.15.5l-.04.2c-.06.22-.2.38-.38.43-.53.17-.99.08-1.45-.01-.33-.1-.64-.29-.96-.43v-.04Z"/><path class="cls-1" d="m315.07,230.68c1.49.64,2.97,1.32,4.44,2.06.74.37,1.47.76,2.22,1.22l.28.18c.08.05.22.14.38.26.3.22.58.46.8.73.21.27.38.56.43.91,0,.08,0,.17,0,.25l-.06.24-.13.48-2.87,5.39c-.87,1.68-1.73,3.37-2.55,5.08-1.09,2.31-2.06,4.66-3,7.02-.56,1.39-1.09,2.8-1.55,4.21-.25.71-.47,1.42-.68,2.13-.1.36-.22.71-.31,1.07l-.38,1.52-.39.66c-.27,0-.37.28-.66.27-.51.03-1.26-.23-1.7-.34l-2.18-.66c-1.44-.46-2.87-.93-4.3-1.42-2.86-.97-5.7-1.97-8.53-2.99-3.78-1.37-7.59-2.72-11.32-4.15-4.77-1.86-9.63-3.65-14.06-6.31-1.37-.84-1.15-.79.19-.47,1.35.31,3.84.78,6.6,1.79,9.72,3.7,19.46,7.39,29.38,10.85,1.12.39,2.26.76,3.4,1.12.51.15,1.02.3,1.53.45.09.03.18.05.28.07.02,0,.05.01.07,0l.02-.07.04-.14.27-1.04.42-1.47c.29-.98.61-1.94.94-2.91.67-1.92,1.41-3.82,2.2-5.68,1.07-2.5,2.23-4.96,3.41-7.4.6-1.22,1.21-2.43,1.83-3.63l1.74-3.35c.03-.08.11-.15.1-.24-.02-.09-.09-.16-.15-.22-.07-.06-.14-.11-.21-.17-.1-.07-.31-.2-.47-.29-.69-.41-1.43-.78-2.18-1.14-3.9-1.83-7.95-3.5-11.97-5.18-3.07-1.27-6.05-2.65-9.17-3.58-1.56-.48-3.14-.88-4.73-1.18-.39-.08-.8-.14-1.18-.19-.12-.01-.23-.03-.35-.02-.11.03-.2.12-.28.2-.12.13-.35.52-.52.85-.18.35-.35.71-.51,1.07-1.92,4.64-3.26,9.5-5.09,14.23-.4,1.05-.79,2.07-1.24,3.11-.83,1.93-1.59,3.13-2.18,3.93-.6.8-1.06,1.17-1.51,1.4-.21.1-.45.26-.59.29-.48.1.36-1.32,1.53-4.04,1.77-4.04,3.22-8.4,4.73-12.84.76-2.22,1.5-4.46,2.44-6.74.25-.57.5-1.15.84-1.75l.29-.48c.15-.22.37-.45.55-.67.45-.35.95-.66,1.54-.62.71.06.89.09,1.23.14l.93.15c.61.11,1.21.24,1.81.38,1.78.41,3.53.92,5.25,1.52,1.73.59,3.41,1.31,5.03,1.98l9.86,4.07v.05Z"/><path class="cls-1" d="m304.51,285.9c-.67,1.74-1.35,3.48-2.05,5.22-.25.64-.44,1.29-.7,1.93-.92,2.23-1.84,4.47-2.76,6.69-.4.99-.81,1.99-1.21,2.98l-.79,1.9c-.3.62-.7,1.2-1.06,1.78-.24.36-.34.25-.4-.17-.04-.41-.11-1.16.03-1.94.4-1.32.85-2.62,1.29-3.93.47-1.3,1.02-2.57,1.58-3.85.68-1.53,1.15-3.21,1.72-4.82.63-1.77,1.27-3.55,1.95-5.31l1.24-3.26c.64-1.64,1.27-3.29,1.9-4.93.5-1.26.88-2.55,1.41-3.8.12-.27.21-.55.34-.82.47-1.01.85-1.22,1.23-1.31.09-.02.19-.05.27-.05.25,0,.28.52.15,1.33-.61,2.32-1.28,4.73-2.15,7.09-.65,1.76-1.3,3.52-1.95,5.28h-.05Z"/><path class="cls-1" d="m238.23,286.16l4.2,1.72c.51.21,1.05.35,1.56.56,1.8.74,3.63,1.42,5.44,2.13.81.31,1.64.57,2.46.82,1.05.34,2.08.75,3.09,1.23.31.15.23.27-.1.37-.33.09-.93.23-1.58.19-.57-.06-1.15-.1-1.71-.19-.55-.13-1.1-.27-1.65-.42-1.1-.3-2.18-.64-3.23-1.13-1.26-.55-2.63-.91-3.95-1.39-1.44-.53-2.88-1.09-4.3-1.66l-2.62-1.09c-1.32-.54-2.64-1.11-3.97-1.6-1.04-.37-2.06-.72-3.08-1.11-.22-.09-.45-.16-.67-.25-.81-.38-1.02-.64-1.1-.95-.02-.07-.05-.15-.05-.21-.01-.21.4-.25,1.07-.18,1.96.33,3.98.77,5.89,1.52,1.43.53,2.86,1.06,4.3,1.59l-.02.05Z"/><path class="cls-1" d="m251.3,145.82c-.81-3.13-1.75-6.36-2.39-9.66-.65-3.29-1.09-6.64-1.24-10.02-.09-2.47-.09-4.96.25-7.43.32-2.18.83-4.33,1.53-6.42.75-2.07,1.67-4.09,2.81-5.98,2.35-3.83,5.71-6.9,9.56-9.03.83-.52,1.75-.88,2.63-1.3.89-.4,1.84-.68,2.76-1.02.96-.22,1.9-.52,2.87-.66.98-.11,1.95-.32,2.93-.28,5.02-.26,10.29,1.52,13.68,5.16,1.05,1.13.86,1-.41.61-.64-.18-1.55-.42-2.6-.67-1.08-.2-2.2-.59-3.42-.9-2.14-.64-4.32-.98-6.51-.99-2.19-.03-4.39.39-6.51,1.03-1.08.3-2.1.78-3.13,1.22-.99.54-2.01,1.04-2.94,1.71-1.88,1.27-3.67,2.76-5.12,4.54-.44.52-.82,1.1-1.23,1.65-.36.61-.72,1.22-1.08,1.84-.31.64-.62,1.29-.93,1.94l-.78,2.02c-.93,2.74-1.44,5.64-1.64,8.54-.22,3.2-.08,6.44.37,9.66.45,3.22,1.18,6.41,2.05,9.57,1.06,3.9,2.31,7.87,2.75,12.07.13,1.59.19,3.22-.1,4.85-.2,1.63-.8,3.22-1.62,4.67-.46.69-.89,1.42-1.48,1.99-.28.3-.55.62-.85.9l-.95.77c-.61.55-1.32.93-2.01,1.36-.67.46-1.42.75-2.14,1.11-2.28,1.01-4.72,1.57-7.12,1.86-2.39.32-4.78.37-6.87.84-.23.05-.46.1-.68.16l-.63.23c-.44.12-.78.37-1.17.55-1.33.82-2.05,1.6-2.64,2.17-.17.13-.31.24-.45.35-.13.12-.25.22-.38.31-.25.18-.51.3-.76.4-.23.09-.49.25-.67.29-.31.07-.38-.28-.3-1.08.06-.79.41-2.02,1.49-3.32l.61-.72c.22-.23.49-.41.74-.61.5-.42,1.07-.71,1.65-1,.58-.31,1.18-.44,1.77-.66.59-.14,1.19-.28,1.77-.37,2.33-.35,4.49-.36,6.54-.6,2.05-.24,3.99-.68,5.82-1.44l1.35-.62,1.26-.77c.45-.23.8-.55,1.17-.85.38-.3.76-.59,1.05-.95l.7-.76.56-.85c.21-.27.35-.58.49-.89.13-.32.32-.6.41-.94.47-1.3.62-2.75.67-4.23-.04-3.01-.71-6.15-1.57-9.31l.06-.03Z"/><path class="cls-1" d="m343.54,88c-3.81-4.2-9.41-6.75-15.24-7.85-2.15-.36-4.32-.56-6.51-.61-3.87-.14-7.71.2-11.43,1.22-3.72,1.01-7.31,2.6-10.53,4.77-2.88,1.9-5.45,4.29-7.54,6.98-.66.87-1.28,1.78-1.88,2.69l-.84,1.41-.43.7-.36.74-.74,1.47c-.26.48-.4,1.02-.66,1.5-.5.99-.9,2.01-1.36,3.04-.59,1.28-.57,1.11-.58-.12-.01-.34-.03-.71-.04-1.13-.06-.45-.02-.94.04-1.47.07-.53.12-1.12.25-1.73.12-.61.36-1.22.63-1.84,1.82-4.47,4.89-8.36,8.51-11.49,3.63-3.14,7.85-5.6,12.42-7.09,5.42-1.88,11.45-2.69,17.24-2.23,3.19.25,6.38.79,9.45,1.79,3.06,1.01,6.02,2.45,8.62,4.43,3.2,2.43,5.76,5.74,7.22,9.48l.23.52.16.55.32,1.09.32,1.09c.1.37.13.74.2,1.11l.35,2.23c.03.76.11,1.52.09,2.28-.04,3.04-.76,6.06-2.11,8.77-2.12,4.18-5.55,7.63-9.7,9.7-.45.23-.9.46-1.35.69-.47.19-.94.38-1.41.57-.88.37-1.65.55-2.28.71-.64.14-1.16.25-1.61.25-.88.05-1.42-.11-1.87-.34-.2-.1-.46-.18-.58-.27-.21-.16.04-.39.63-.78.58-.42,1.55-.71,2.72-1.26,1.8-.63,3.49-1.54,5.13-2.49,1.58-1.05,3.08-2.18,4.4-3.51,1.3-1.34,2.41-2.84,3.27-4.49.85-1.65,1.38-3.46,1.64-5.3.23-1.37.18-2.78.09-4.17-.24-1.4-.37-2.86-.84-4.2-.8-2.72-2.15-5.26-4.06-7.36l.05-.06Z"/><path class="cls-1" d="m291.22,156.44c-1.26.16-2.45,0-3.59-.32-.57-.16-1.13-.39-1.67-.68-.52-.28-1.11-.67-1.5-1.13-.29-.33-.64-.61-.9-.97-.25-.37-.52-.74-.72-1.14-.67-1.46-.75-3.1-.43-4.55.33-1.47,1.05-2.78,2.02-3.85.88-.93,1.93-1.72,3.13-2.24.41-.11.81-.25,1.22-.33.42-.02.84-.12,1.26-.05.41.11.81.23,1.19.38.37.19.71.42,1.02.65.37.36.27.36-.2.57-.23.11-.54.24-.87.41-.33.15-.68.46-.99.56-1.07.42-1.91.65-2.81,1.24-.86.59-1.63,1.47-2.14,2.52-.68,1.29-.35,2.84.38,3.98.15.36.49.6.73.92.26.28.56.48.91.68.71.38,1.56.63,2.41.68,1.04.06,2.09-.12,2.8-.71,1.18-.89,1.82-2.61,1.84-4.25,0-1.29-.44-2.55-1.09-3.51-.16-.19-.3-.4-.47-.56-.13-.17-.24-.3-.34-.42-.08-.12-.11-.26-.13-.39-.06-.23-.02-.5.07-.87.04-.17.06-.35.11-.51.08-.27.27-.43.6-.48.33-.05.82.03,1.29.34,1.35,1,2.1,2.53,2.47,4.06.35,1.55.36,3.17-.09,4.78-.32,1.18-.9,2.38-1.87,3.37-.49.47-1.05.94-1.71,1.25-.64.32-1.3.49-1.94.58v-.07Z"/><path class="cls-1" d="m334.36,227.67c1.43-.86,2.85-1.86,4.22-2.91.5-.38.95-.84,1.44-1.23.86-.67,1.83-1.33,2.55-1.99.35-.33.68-.71.93-1.1.26-.37.46-.77.45-.92.02-.06-.03-.12-.13-.24l-.17-.12-.23-.08c-.35-.08-.79-.03-1.23.07-1.12.3-2.28.86-3.31,1.53-.31.22-.38.11-.26-.26.13-.36.45-1.02,1.06-1.55.55-.45,1.13-.89,1.83-1.2.7-.3,1.51-.6,2.61-.38.56.14,1.09.4,1.55,1.01.47.66.5,1.43.42,1.94-.15,1.08-.67,1.71-1.18,2.3-.3.34-.65.7-.97,1l-.93.87c-.61.58-1.23,1.13-1.9,1.61-1.47,1.07-2.97,2.07-4.54,3-.97.57-1.95,1.11-3.05,1.56-.63.24-1.28.43-1.87.38-.3,0-.58-.12-.81-.3-.25-.19-.34-.48-.43-.75-.05-.25-.04-.49-.07-.73.03-.25.07-.5.12-.75l.25-.73.26-.55c.66-1.21,1.37-2.31,2.25-3.32.2-.21.39-.43.61-.63.83-.74,1.3-.78,1.77-.49.1.07.21.13.29.2.12.13.13.32.08.53-.05.21-.17.5-.39.77-.32.42-.64.86-.95,1.31-.34.42-.66.86-.97,1.29-.31.43-.59.88-.82,1.3-.3.61-.16.35-.19.41h0s-.02.03,0,.03c0,0,0,0,.01,0l.22-.1c.16-.08.32-.16.48-.25.32-.18.65-.38.97-.58l.03.05Z"/><path class="cls-1" d="m201.23,459.17c.41.24.79.46,1.24.74.7.47,1.36.98,1.84,1.51.47.55.72,1.08.72,1.73-.02.16-.02.35-.11.47l-.28.33c-.19.22-.36.45-.56.66-.73.3-1.4.67-2.17.9l-.91.21c-.24.06-.48.1-.72.13-.96.14-1.9.22-2.83.27-1.36.07-2.71.1-4.04.04-2.36-.14-4.68-.43-6.98-.81l-1.72-.3c-.32-.08-.65-.16-.97-.25l-.88-.35c-1.13-.52-2.15-1.14-3.14-1.8-1.73-1.2-3.37-2.51-4.9-3.91-.98-.9-1.96-1.82-2.79-2.88-.39-.55-.79-1.1-1.09-1.72-.16-.3-.28-.63-.41-.94-.14-.31-.25-.63-.34-.96-.23-.82-.14-.71.38-.21.24.26.66.57,1.17.92.23.18.56.33.82.54.25.21.52.43.8.67l.71.64.65.7c.46.45.89.91,1.37,1.34.93.88,1.92,1.7,2.92,2.5,1.01.79,2.05,1.52,3.11,2.2.53.34,1.07.63,1.61.9.26.1.54.25.79.33.26.07.47.17.83.23,3.11.66,6.42.91,9.62.97,1.76.02,3.53-.02,5.19-.37l.92-.23c.17-.07.37-.1.54-.2l.27-.14c.08-.07.05-.19,0-.27-.1-.16-.25-.29-.4-.41-.1-.07-.2-.15-.3-.22l-.26-.16-.35-.21c-.46-.27-.94-.54-1.43-.8l-2.94-1.55c-3-1.55-6-3.16-8.9-4.92-2.25-1.37-4.49-2.71-6.51-4.52-.44-.4-.89-.79-1.26-1.28-1.37-1.81-1.48-2.66-1.15-3.33.07-.15.12-.33.2-.42.24-.31.99.26,1.96,1.28,3.03,2.96,6.94,5.52,11.12,7.8,3.1,1.72,6.32,3.28,9.59,5.05l-.03.06Z"/><path class="cls-1" d="m363,448.31c.74-.32,1.47-.67,2.15-1.05.33-.19.65-.4.95-.61l.18-.13.04-.02s.06-.04.09-.07c.12-.08.26-.31.1-.42-.06-.05-.14-.09-.23-.12-.05-.01-.08-.03-.15-.04l-.56-.09c-1.17-.16-2.41-.14-3.66-.19-4.43-.14-8.96-.11-13.47-.25-2.01-.06-4.03-.11-6.03-.24-1.28-.07-2.58-.2-3.85-.48-.64-.13-1.27-.29-1.9-.48-.32-.07-.62-.23-.91-.38-.3-.14-.59-.3-.88-.46-.71-.42-.57-.43.14-.46.35-.01.86-.08,1.47-.19.59-.07,1.24-.06,1.95-.02,2.5.12,5.01.35,7.57.38,2.57.03,5.14.06,7.74.09,3.12.06,6.36-.27,9.64-.21.9.02,1.81.07,2.76.18l.36.05c.16.02.34.04.51.09.34.09.7.15,1.02.27.64.24,1.22.55,1.57,1.05.36.5.47,1.18.32,1.77-.14.6-.48,1.18-.95,1.68-.23.25-.45.5-.74.72-.23.2-.4.32-.61.47-.39.29-.8.53-1.2.77-2,1.15-4.09,1.93-6.2,2.61-3.21.99-6.52,1.58-9.8,2.01-2.55.31-5.07.63-7.65.64-.57,0-1.12,0-1.69-.05-2.11-.18-2.75-.56-3.09-1.28-.08-.16-.19-.33-.22-.48-.11-.5.78-.82,2.25-.89,4.36-.21,8.87-.45,13.34-1.36,3.3-.66,6.6-1.57,9.62-2.87l.04.07Z"/><path class="cls-1" d="m193.73,263.62c-3.08.33-5.99-.88-8.1-2.83-.77-.71-1.5-1.5-2.02-2.43-1.94-3.31-1.35-7.67,1.08-10.39,1.07-1.22,2.47-2.13,3.99-2.61,1.95-.73,4.16-.4,5.89.49.55.27.38.43-.18.54-.56.08-1.49.21-2.46.3-.21.02-.43.02-.64.06-.21.05-.41.1-.62.1-.41.03-.81.16-1.2.25-.78.25-1.5.63-2.15,1.1-.62.51-1.24,1.05-1.7,1.74-.44.69-.86,1.43-1.06,2.26-.26.97-.3,2.08-.06,3.08.25,1.01.76,1.97,1.4,2.81,1.41,1.87,3.63,3.24,5.99,3.49,1.45.18,2.92-.16,4.2-.9,1.94-1.13,3.33-3.18,3.53-5.43.18-1.73-.33-3.47-1.27-4.76-.22-.28-.44-.53-.68-.79-.86-.94-1.18-1.17-1.14-1.9,0-.16-.02-.33,0-.47.03-.24.22-.36.59-.39.37-.04.87.13,1.44.48,1.72,1.05,2.78,3.01,3.18,4.98.39,2,.12,4.14-.79,6.04-.69,1.41-1.75,2.59-2.99,3.48-1.23.91-2.68,1.54-4.23,1.75v-.05Z"/><path class="cls-1" d="m331.35,129.21c1.34,1.09,2.69,2.26,3.76,3.79.38.56.77,1.16,1,1.86.21.61.29,1.3.24,1.98-.1.69-.3,1.32-.69,1.9-.83,1.16-2.08,1.58-3.17,1.82-1,.21-1.96.3-2.93.38-1.24.1-2.5.12-3.71-.21-.38-.1-.32-.18.01-.31.33-.11.93-.43,1.61-.54,1.21-.11,2.4-.31,3.56-.56,1.14-.22,2.25-.5,2.94-1.09.2-.18.36-.37.46-.64.12-.27.16-.55.18-.83.01-.57-.21-1.16-.53-1.73-.73-1.26-1.86-2.46-3.1-3.52-.77-.66-1.58-1.29-2.41-1.9-1.26-.93-2.55-1.88-3.79-2.9-.96-.79-1.94-1.58-2.76-2.58-.17-.22-.34-.45-.49-.69-.55-.92-.44-1.35-.18-1.7.07-.08.12-.18.19-.24.24-.2.65.05,1.16.53.33.38.69.74,1.06,1.08.34.36.7.71,1.08,1.06.76.69,1.58,1.35,2.46,2,1.31.96,2.71,1.93,4.09,2.99l-.03.04Z"/><path class="cls-1" d="m310.38,124.45c.26,1.84,1.32,3.61,2.54,4.98,1.12,1.26,2.79,2.51,4.57,2.34,1.5-.14,2.61-1.12,2.96-2.59s.11-2.91-.18-4.31c-.26-1.23-.66-2.42-1.03-3.62s-2.31-.7-1.93.53c.28.9.58,1.8.82,2.72.16.61.29,1.22.39,1.84,0,.06.02.12.03.19-.03-.19,0,.01,0,.06.01.14.03.28.04.42.02.33.04.65.02.98,0,.13-.02.25-.03.38-.02.16.05-.24,0,.02-.01.05-.02.1-.03.16-.03.13-.06.25-.1.37-.01.05-.03.09-.05.14-.05.18.1-.15-.03.06-.06.09-.11.18-.16.27-.11.19.15-.12-.02.01-.03.03-.07.07-.1.1-.18.18.1-.03-.13.1-.04.02-.09.05-.13.07-.18.1.15-.02-.04.02-.13.03-.26.07-.4.1.21-.04,0,0-.05,0-.08,0-.16,0-.24,0-.06,0-.13,0-.2-.01.21.03-.11-.03-.13-.03-.17-.04-.33-.09-.49-.16.13.06-.07-.04-.1-.05-.08-.04-.16-.08-.24-.13-.16-.09-.32-.2-.48-.31-.24-.17-.55-.45-.8-.7-1.2-1.21-2.13-2.79-2.37-4.46-.08-.54-.76-.83-1.23-.7-.58.16-.77.69-.7,1.23h0Z"/><path class="cls-1" d="m318.67,115.89c-.32-1.29-1.13-2.41-2.22-3.17-1.19-.82-2.7-1.05-4.1-.77-.51.1-.86.74-.7,1.23.18.55.68.81,1.23.7.03,0,.26-.05.12-.03s.12-.01.12-.01c.13-.01.26-.02.38-.01s.26,0,.38.02c.27.02-.12-.03.03,0,.07.01.14.02.21.04.13.03.25.06.37.1.07.02.14.04.2.07.02,0,.24.1.12.04s.12.06.11.06c.05.03.1.05.15.08.12.07.24.14.35.22.04.03.08.06.13.09-.18-.13-.03-.02,0,.01.09.08.17.15.26.24.09.09.18.19.26.29.07.08.04.04-.01-.02.04.05.08.1.11.16.14.2.26.42.36.64.08.17-.03-.1,0,.01.02.06.05.12.07.18.04.12.08.25.11.37.13.51.73.86,1.23.7s.83-.69.7-1.23h0Z"/><path class="cls-1" d="m318.95,149.91c.89,1.81,3.08,2.75,5.02,2.3.51-.12.86-.73.7-1.23-.17-.53-.68-.82-1.23-.7-.09.02-.18.03-.26.05.27-.07.16-.02.08-.01-.04,0-.09,0-.13,0-.18,0-.36,0-.54-.02.33.02.04,0-.05-.02-.09-.02-.18-.04-.26-.06s-.17-.05-.26-.08-.2-.12.04.02c-.04-.02-.08-.04-.12-.06-.16-.08-.32-.17-.47-.27-.04-.03-.07-.05-.11-.08-.14-.1.14.12.05.04-.07-.06-.14-.12-.2-.18s-.13-.13-.19-.19c-.03-.03-.06-.07-.09-.1-.11-.13.11.15.04.05-.11-.16-.21-.31-.29-.48-.23-.47-.94-.64-1.37-.36-.48.31-.61.87-.36,1.37h0Z"/><path class="cls-1" d="m330.19,226.24c.72-.47,1.43-1.02,2.13-1.59.71-.55,1.42-1.14,2.1-1.74.5-.44.95-.94,1.44-1.4.84-.78,1.67-1.59,2.48-2.41.22-.23.35-.35.5-.55.14-.19.26-.39.35-.59.08-.19.1-.26.1-.41,0-.13-.07-.27-.19-.33l-.06-.04c-.1-.07-.22-.11-.36-.11-.17-.03-.39.01-.59.04-.43.11-.87.3-1.3.54-.55.31-1.1.66-1.65,1.03l-.41.28-.46.23c-.31.16-.61.31-.93.47-.42.19-.4.07-.25-.3.1-.27.2-.55.3-.8.07-.17.14-.34.22-.53.04-.09.1-.18.14-.28.07-.07.13-.15.2-.22.71-.68,1.44-1.41,2.45-1.87.52-.23,1.03-.46,1.72-.54.31-.05.71-.04,1.16.03.22.06.43.14.64.23.2.1.39.22.58.33.64.52.92,1.39.77,2.2-.08.44-.19.74-.32,1-.13.27-.28.51-.45.74-.14.2-.34.43-.49.6l-.44.48-.87.97c-.59.65-1.18,1.3-1.8,1.9-1.38,1.32-2.8,2.62-4.39,3.74-.49.35-.99.68-1.51,1-.26.16-.53.31-.82.45-.14.07-.29.13-.44.2-.18.07-.4.15-.59.21-.44.13-.89.18-1.3.07-.42-.09-.78-.4-.95-.78-.32-.7-.29-1.59-.04-2.28.22-.6.51-1.14.83-1.65.79-1.21,1.67-2.31,2.78-3.24.25-.2.47-.42.75-.59,1.01-.66,1.51-.6,1.93-.15.09.09.2.17.26.25.18.24-.04.88-.6,1.31-.86.64-1.68,1.4-2.41,2.23-.71.81-1.42,1.76-1.61,2.58,0-.02,0,0,0,0,0,0,0,.03.02.04.01,0-.01.01.03,0l.18-.09.38-.21c.26-.15.51-.32.77-.5l.03.04Z"/><path class="cls-1" d="m297.55,132.35c.65-.03,1.32-.47,1.96-1.4.63-.89,1.16-2.02,1.65-3.18.97-2.34,1.79-4.85,2.77-7.33.7-1.81,1.41-3.65,2.36-5.4,1.65-3.07,3.84-6.02,6.72-8.17,1.42-1.07,3-1.98,4.75-2.56,1.74-.55,3.69-.75,5.51-.27,1.62.4,3.09,1.28,4.26,2.4,1.19,1.11,2.06,2.48,2.74,3.89,1.71,3.64,2.07,7.9.85,11.65-.42,1.16-.56.93-.72-.12-.21-1.06-.47-2.88-.72-4.9-.12-.9-.28-1.78-.47-2.66-.22-.86-.48-1.71-.83-2.51-.7-1.6-1.7-3.04-2.97-4.05-1.26-1.03-2.8-1.53-4.41-1.51-1.61.05-3.27.64-4.83,1.54-1.86,1.09-3.59,2.61-4.95,4.42-1.39,1.8-2.5,3.87-3.47,5.99-1.09,2.33-1.99,4.78-2.91,7.26-.46,1.24-.93,2.49-1.47,3.74-.56,1.24-1.14,2.51-2.08,3.68-.57.71-1.32,1.41-2.32,1.78-1,.36-2.04.35-3.03.01-.5-.18-1.01-.49-1.36-.9-.38-.39-.6-.83-.81-1.24-.38-.81-.63-1.54-1-2.12-.52-.9-1.38-1.42-2.45-1.67-1.06-.22-2.18-.27-3.13.15-.95.4-1.72,1.19-2.19,2.16-.47.97-.67,2.09-.64,3.19.09,1.73.77,3.4,1.84,4.7,1.09,1.35,2.46,2.21,4.05,2.38.69.09,1.4.03,2.12-.08,2.68-.55,3.59-.9,4.48-.54.2.07.44.1.59.18.46.19-.32,1.44-2.63,2.43-1.71.63-3.72,1.02-5.81.54-1.03-.24-2.04-.69-2.92-1.33l-.63-.5c-.19-.18-.36-.36-.54-.54l-.53-.56c-.17-.19-.31-.41-.47-.62-1.23-1.66-1.98-3.71-2.09-5.83-.13-2.11.46-4.4,2.01-6.21,1.15-1.35,2.99-2.18,4.71-2.22,1.7-.02,3.31.24,4.89,1.35.77.56,1.35,1.33,1.75,2.05.4.72.65,1.41.88,1.89.24.5.42.72.58.81.16.1.55.19.91.18v.06Z"/><path class="cls-1" d="m321.82,179.3c.09-.31.18-.62.22-.95.02-.12,0-.24.02-.36.1-.42.16-.87.16-1.32.02-.2-.04-.4-.09-.58-.08-.24-.2-.46-.16-.75.01-.09.26-.2.54-.25.28-.05.62-.04.73.1.35.51.68,1.11.53,1.76-.06.38.06.75.05,1.13-.01.41-.12.82-.22,1.22-.06.24-.14.48-.22.72-.1.36-.29.7-.4,1.04-.1.27-.12.56-.22.84-.02.06-.03.13-.06.18-.11.21-.23.23-.56.1l-.22-.09c-.24-.12-.39-.31-.41-.48-.05-.52,0-.95.06-1.38.03-.32.15-.62.2-.93h.04Z"/><path class="cls-1" d="m316.91,179.17c.15-.27.36-.53.48-.84.05-.11.03-.23.08-.34.17-.39.33-.82.37-1.26.04-.2.01-.39-.02-.58-.06-.24-.17-.46-.07-.75.03-.09.35-.2.69-.24.34-.04.74,0,.84.15.33.57.52,1.24.27,1.88-.12.38-.05.77-.11,1.15-.07.42-.2.82-.36,1.21-.1.24-.22.47-.34.7-.18.34-.38.67-.57,1-.16.25-.19.57-.37.81-.04.05-.07.11-.12.15-.2.15-.35.13-.67-.08l-.21-.14c-.22-.17-.35-.4-.39-.61-.05-.31-.13-.62-.09-.83.03-.22.01-.45.12-.62.13-.26.29-.52.41-.8l.05.02Z"/><path class="cls-1" d="m307.95,179.05c.09-.28.25-.54.35-.82.04-.1.03-.21.07-.31.14-.36.29-.73.38-1.12.04-.17.04-.34.04-.51,0-.22-.06-.43.08-.66.08-.14,1.13-.04,1.24.25.07.25.12.49.13.75-.03.25-.09.5-.2.74-.13.29-.09.6-.15.9-.07.33-.16.65-.27.96-.08.19-.16.38-.23.57-.11.29-.25.56-.34.85-.06.23-.05.48-.13.7-.01.05-.02.1-.04.15-.09.17-.2.19-.51.1l-.2-.06c-.22-.08-.38-.23-.43-.39-.06-.23-.12-.46-.15-.68.01-.2.05-.39.09-.58.06-.28.16-.56.23-.84h.04Z"/><path class="cls-1" d="m241.52,254.06c-1.05.63-2.06,1.33-3.02,2.09-.36.27-.66.61-1.01.89-1.24,1-2.43,2.07-3.49,3.28-.51.5-.93,1.09-1.36,1.65l-.78,1.12c-.24.38-.54.74-.85,1.09-.2.22-.27.14-.29-.15,0-.28-.08-.85.15-1.34.81-1.75,1.77-3.49,3.24-4.8.84-.81,1.61-1.74,2.49-2.56.98-.88,2.03-1.66,3.1-2.41.67-.45,1.35-.88,2.04-1.28,1.04-.63,2.16-1.14,3.24-1.69.85-.4,1.66-.88,2.53-1.26.19-.09.37-.2.58-.24.76-.2,1.04-.12,1.31.35.06.11.14.21.18.32.15.38-.06.78-.53,1.06-1.37.82-2.86,1.36-4.31,2.12-1.07.55-2.16,1.12-3.18,1.8l-.03-.04Z"/><path class="cls-1" d="m252.14,255.23c.26.54.32,1.11.19,1.69-.05.21-.08.43-.22.62-.49.67-1.27.89-1.96.63-.31-.13-.57-.33-.68-.6-.17-.31-.2-.77.12-1.03.1-.08.23.06.39.2.16.15.45.22.45.19.17-.02.14-.07.05.05-.02.02-.03.05-.03.06h0s.03-.09.03-.09h0s0-.03,0-.03c0-.03-.01-.14-.01-.13.07.09.07-.04.06-.04.04-.03.08-.16.05-.31,0-.04-.02-.09-.04-.13,0-.02-.02,0,.01-.05.06-.07.09-.12.11-.15.03-.1-.01.05.05.15.02.03-.02.03,0,.07.04.02.16.13.27.22.02.02.07.05.08.08.03.12-.17.22-.71.35l-.37.09c-.41.09-.79.09-1.01-.04-.28-.2-.42-.53-.42-1.02,0-.23.07-.52.26-.82.17-.27.39-.48.66-.66.39-.25.99-.43,1.63-.23.66.22.93.66,1.08.89l-.04.03Z"/><path class="cls-1" d="m299.13,242.8c-.82.31-1.64.63-2.45.97-.29.14-.58.27-.87.4-1.04.45-2.1.86-3.13,1.32-.46.2-.91.44-1.35.67-.56.31-1.13.61-1.74.82-.19.07-.2,0-.1-.16.1-.16.29-.46.58-.71,1.08-.75,2.2-1.45,3.4-2.01.71-.34,1.43-.75,2.15-1.12.8-.39,1.61-.77,2.42-1.13l1.51-.66c.76-.33,1.54-.64,2.28-.99.58-.28,1.12-.61,1.69-.89.12-.06.24-.13.37-.19.48-.21.67-.19.89.07.05.06.11.11.15.18.14.21.03.48-.29.71-.47.34-.96.65-1.47.94-.52.27-1.06.51-1.6.75-.81.35-1.62.71-2.44,1.04l-.02-.03Z"/><path class="cls-1" d="m306.84,247.35c-.51.19-1.03.37-1.54.56-.19.07-.36.17-.55.23-.66.24-1.32.47-1.97.73-.29.11-.57.25-.84.39-.35.18-.69.39-1.09.48-.24.06-.24-.66.15-.89.71-.39,1.43-.75,2.2-1.02.46-.16.9-.43,1.35-.64.5-.22,1-.45,1.5-.68.31-.14.62-.27.92-.41.47-.21.94-.4,1.39-.63.32-.19.67-.4,1.01-.6.08-.04.14-.09.22-.13.29-.13.42-.11.59.09.04.04.08.09.11.13.11.16.06.36-.11.53-.26.25-.55.49-.84.71-.3.2-.64.35-.97.52-.5.23-1,.45-1.51.65v-.02Z"/><path class="cls-1" d="m364.05,76.63c-.03.43-.46.57-1.13.54-.21-.01-.73-.31-.75-.44-.05-.26-.09-.52-.09-.76.01-.14.66-2.1.83-2.79.18-.66.41-1.29.68-1.92.52-1.28.99-2.59,1.47-3.9.11-.29.24-.57.39-.85.54-.94.9-1.94,1.2-2.97.05-.17.13-.34.1-.53-.05-.31.9-3.06,1.09-3.4.47-.83.88-1.68,1.32-2.53.06-.12.08-.27.22-.35.33-.19.39-.47.5-.74.16-.37.34-.74.55-1.09.11-.17.31-.31.48-.46.16-.13.47.09.49.16.05.21.26.13.41.17.05.01.12.03.15.05.08.05-.1,2.43-.18,2.66,0,.03-.24.85-.48,1.72-.24.87-.48,1.77-.52,1.96-.04.2-.16.37-.26.55-.04.08-.71,2.71-.75,2.81-.21.52-.3,1.09-.69,1.54-.08.09-.1.2-.14.31-.28.93-.69,1.81-1.07,2.7-.19.46-.34.93-.52,1.4-.03.08-.1.16-.14.23-.06.1-.13.19-.16.3-.4,1.11-.96,2.16-1.34,3.29-.08.26-.87,1.34-.98,1.64-.06.17-.66.51-.68.68Z"/><g class="cls-7"><path class="cls-1" d="m376.56,87.56c-.06.21-.32.1-.72-.21-.13-.1-.42-.47-.42-.56,0-.16,0-.33.04-.46.01-.09.73-.88.98-1.14.24-.27.52-.45.81-.63.59-.35,1.16-.72,1.74-1.04.13-.07.27-.13.42-.16.51-.12.95-.35,1.36-.63.07-.05.15-.08.18-.18.06-.16,1.19-.84,1.35-.89.43-.11.82-.27,1.23-.42.06-.02.09-.08.19-.05.22.08.3-.02.42-.09.16-.09.32-.18.5-.24.09-.03.23,0,.36.01.12.01.27.26.27.31,0,.12.14.19.22.28.03.03.07.07.08.1.05.06-.52,1.17-.63,1.24-.01.04-1.29,1.1-1.44,1.22-.07.07-.18.08-.28.11-.04.02-1.07.83-1.12.85-.24.12-.43.32-.75.29-.06,0-.1.03-.15.06-.38.25-.8.41-1.21.6-.21.09-.39.23-.59.34-.04.02-.08.02-.13.03-.05.01-.11.02-.15.05-.44.29-.95.48-1.33.84-.09.08-.68.22-.78.33-.05.06-.45-.05-.47.03Z"/></g><path class="cls-1" d="m385.22,105.2c-.38.27-.8.05-1.26-.47-.15-.16-.27-.74-.17-.85.2-.21.4-.42.61-.59.13-.1,2.41-.93,3.18-1.22.75-.29,1.52-.48,2.29-.65l4.72-1.04c.35-.07.71-.12,1.07-.13,1.24-.06,2.44-.28,3.64-.55.2-.05.41-.07.59-.19.29-.21,3.57-.79,4.01-.78,1.08,0,2.16-.07,3.24-.1.15,0,.31-.06.46.02.36.2.68.1,1.01.07.46-.05.92-.07,1.38-.06.23,0,.47.11.71.19.21.07.16.45.09.5-.19.15,0,.29.04.44.01.05.03.12.03.16-.01.09-2.5,1.12-2.78,1.16-.03,0-.98.21-1.98.43-.99.22-2.03.46-2.24.53-.22.06-.45.05-.68.05-.11,0-3.07.76-3.19.78-.63.09-1.23.31-1.89.21-.13-.02-.25.02-.38.05-1.06.25-2.14.38-3.21.55-.55.09-1.08.24-1.63.35-.1.02-.2,0-.3.01-.13,0-.26,0-.38.04-1.28.31-2.59.48-3.84.88-.29.09-1.76.16-2.09.28-.19.07-.9-.17-1.05-.07Z"/><g class="cls-7"><path class="cls-1" d="m389.78,126.95c-.12.14-.23-.11-.34-.59-.03-.15-.04-.63,0-.69.07-.13.14-.26.2-.35.04-.05.73-.29.96-.39.23-.09.45-.11.68-.12.46-.01.92-.04,1.39-.06.1,0,.21.02.31.06.35.14.71.14,1.06.1.06,0,.12,0,.17-.07.09-.12,1.05-.14,1.17-.08.31.14.62.22.93.32.04.01.09-.01.13.07.1.2.19.16.29.17.13.02.27.05.4.11.07.03.13.14.2.23.06.08.03.38.01.41-.06.09,0,.23,0,.36,0,.04,0,.1,0,.13,0,.07-.75.61-.83.61-.02,0-1.12.19-1.25.24-.07.02-.13-.02-.2-.05-.03-.01-.91.19-.95.18-.18-.02-.37.07-.55-.1-.04-.03-.07-.02-.11-.02-.31.04-.63-.02-.95-.05-.16-.02-.32.01-.48.02-.03,0-.06-.03-.09-.04-.04-.01-.07-.04-.11-.03-.38.04-.76-.05-1.14.04-.09.02-.51-.18-.61-.15-.06.02-.25-.3-.3-.24Z"/></g><path class="cls-1" d="m372.33,139.56c-.44-.14-.51-.61-.37-1.28.05-.21.43-.66.58-.65.29.03.57.06.83.13.16.04,2.15,1.35,2.84,1.78.67.42,1.27.91,1.86,1.41l3.62,3.04c.27.22.52.47.75.73.8.9,1.71,1.67,2.67,2.37.16.12.31.26.51.3.33.09,2.88,2.03,3.19,2.31.73.75,1.52,1.43,2.3,2.14.11.1.26.16.31.32.12.38.41.53.67.72.36.27.71.55,1.04.86.16.16.27.39.39.61.11.19-.18.45-.26.44-.23-.01-.19.22-.26.36-.02.05-.05.11-.08.14-.07.07-2.6-.82-2.83-.99-.06-.04-3.31-2.04-3.7-2.28-.2-.11-.35-.3-.51-.46-.08-.07-2.66-1.76-2.74-1.85-.48-.41-1.04-.74-1.39-1.31-.07-.11-.18-.18-.28-.26-.87-.66-1.65-1.42-2.44-2.16-.4-.38-.85-.71-1.27-1.07-.08-.06-.13-.15-.19-.23-.08-.09-.16-.2-.26-.28-1.01-.82-1.92-1.76-2.99-2.51-.24-.18-1.16-1.3-1.45-1.49-.16-.11-.39-.82-.57-.87Z"/><path class="cls-1" d="m141.21,439.31c-.17.13-.29-.12-.43-.61-.05-.16-.05-.63,0-.69.11-.13.22-.25.35-.33.08-.07,1.23-.18,1.6-.18.38-.03.73.05,1.08.12.7.18,1.38.35,2.04.56.15.05.29.11.42.2.45.31.94.48,1.44.61.08.02.16.06.26.02.17-.07,1.47.37,1.61.47.37.26.75.47,1.13.67.05.03.12.02.15.11.08.22.22.22.33.25.17.04.34.12.49.18.08.04.15.16.24.25.08.09.04.38,0,.41-.09.09-.02.23-.01.35,0,.04,0,.1,0,.13,0,.1-1.33.47-1.45.4-.05.02-1.74-.28-1.93-.31-.1-.01-.18-.08-.26-.14-.04-.02-1.34-.27-1.39-.29-.25-.1-.53-.12-.72-.37-.04-.05-.09-.06-.14-.07-.44-.11-.85-.31-1.26-.49-.21-.09-.44-.12-.65-.19-.04-.01-.07-.05-.11-.07-.05-.03-.09-.06-.14-.08-.52-.12-1.01-.34-1.53-.34-.12,0-.63-.3-.77-.28-.07,0-.29-.34-.36-.28Z"/><path class="cls-1" d="m110.46,448.43c-.5.14-.9-.15-1.27-.72-.12-.18-.1-.72.05-.8.29-.14.58-.28.87-.37.18-.08,3.04-.18,4-.16.94-.02,1.86.1,2.79.21,1.87.27,3.73.54,5.56.86.41.07.81.17,1.21.29,1.36.42,2.75.68,4.15.88.23.03.47.09.7.05.39-.05,4.14.55,4.61.67,1.18.32,2.37.57,3.57.81.17.03.36.03.51.13.35.25.72.24,1.1.28.52.07,1.04.11,1.55.2.26.04.51.18.76.29.23.1.11.44.02.47-.24.1-.05.27-.02.41,0,.05.02.11,0,.15-.01.04-.79.19-1.62.33-.83.12-1.7.2-1.87.19-.02,0-.32,0-.76-.04-.44-.03-1.03-.06-1.64-.1-1.2-.1-2.44-.2-2.71-.22-.27-.02-.53-.11-.79-.18-.13-.02-3.69-.43-3.83-.45-.73-.15-1.47-.19-2.16-.52-.14-.06-.28-.08-.43-.1-1.25-.19-2.48-.48-3.71-.74-.63-.14-1.27-.2-1.9-.31-.11-.02-.22-.07-.33-.1-.14-.04-.28-.09-.42-.11-1.5-.2-2.98-.52-4.49-.57-.34-.02-1.96-.41-2.36-.38-.22,0-.93-.41-1.13-.34Z"/><path class="cls-1" d="m268.7,90.97c1.7-.87-4.11-6.05-5.29-2.49-.93,2.82,5.29,2.49,5.29,2.49Z"/></svg>