<?xml version="1.0" encoding="UTF-8"?><svg id="Layer_39" xmlns="http://www.w3.org/2000/svg" width="520" height="520" viewBox="0 0 520 520"><defs><style>.cls-1,.cls-2,.cls-3{fill:#231f20;}.cls-4,.cls-3{opacity:.45;}.cls-5,.cls-2{opacity:.55;}</style></defs><path class="cls-1" d="m308.42,247.61c.66,2.52,1.17,5.07,1.4,7.64.08.94.26,1.87.26,2.81.12,3.32-.15,6.62-.5,9.88-.14,1.45-.33,2.9-.5,4.33-.28,1.83-.62,3.66-.99,5.47-.12.56-.18.48-.22-.02-.04-.5-.12-1.42-.06-2.48l.16-2.83.27-2.8c.18-1.87.32-3.74.44-5.62.08-1.12.04-2.27.04-3.43-.07-1.15-.15-2.31-.22-3.46-.23-2.51-.53-5.03-1.16-7.48-.2-.75-.36-1.51-.59-2.26l-.76-2.2c-.84-2.19-1.81-4.37-3.06-6.35-.43-.8-.99-1.52-1.54-2.23-.56-.7-1.06-1.45-1.66-2.12-.27-.29-.53-.58-.8-.87-.99-1.1-1.23-1.52-1.3-1.91-.01-.09-.05-.19-.04-.26,0-.21.54.12,1.36.87.61.57,1.22,1.14,1.84,1.72.57.63,1.11,1.29,1.68,1.95l.84,1c.28.34.49.72.74,1.09.48.74.95,1.49,1.43,2.23.61,1.16,1.2,2.34,1.72,3.56.42,1.25.91,2.48,1.27,3.74h-.04Z"/><path class="cls-1" d="m237.54,183.4c1.17-.56,2.33-1.11,3.46-1.72.41-.23.81-.46,1.21-.7,1.42-.81,2.8-1.7,4.1-2.7.55-.47,1.08-.98,1.59-1.49.32-.34.65-.66.97-1.01.29-.36.58-.7.89-1.08.19-.22.2-.17.12.07-.09.24-.24.69-.49,1.19-.21.45-.51.84-.78,1.27-.14.2-.26.43-.43.62l-.52.53c-.69.72-1.48,1.33-2.29,1.89-1,.63-2,1.35-3.05,1.94-1.15.65-2.32,1.24-3.49,1.82l-2.16,1.07c-1.08.55-2.17,1.09-3.17,1.74-.4.24-.76.52-1.12.79-.37.26-.72.55-1.05.85l-.45.39c-.51.52-.74.63-1.02.6-.06,0-.14,0-.19-.02-.17-.05-.08-.38.27-.86.25-.37.55-.68.86-1,.3-.33.63-.63.98-.92.33-.31.71-.56,1.09-.79.38-.24.76-.48,1.15-.69,1.15-.66,2.34-1.23,3.51-1.82v.02Z"/><path class="cls-1" d="m412.8,468.01s17.83,1.92,18.51,4.94c.99,4.39-41.1,3.39-41.1,3.39,0,0,16.36-3.09,17.85-5.25,1.5-2.17,4.73-3.07,4.73-3.07Z"/><path class="cls-1" d="m373.78,467.17c.68.81,1.56,1.4,2.34,2.09.81.67,1.74,1.18,2.6,1.77.68.36,1.38.67,2.07,1.01,2.48,1.07,5.11,1.8,7.8,2.16,1.19.16,2.4.23,3.6.26.77-.02,1.54-.05,2.3-.05h1.16c.38-.01.77-.03,1.16-.04.48,0,.44.1.06.3-.38.2-1.11.58-2.02.75-.8.21-1.62.21-2.43.23-.81.01-1.63-.05-2.44-.08-.81-.1-1.62-.24-2.42-.39-.79-.2-1.59-.37-2.37-.62-1.85-.61-3.8-1.2-5.55-2.17-.48-.26-.99-.48-1.45-.76l-1.38-.89-.69-.45c-.22-.16-.43-.34-.64-.51l-1.26-1.04c-.54-.4-.95-.95-1.43-1.41-.45-.5-.97-.93-1.35-1.49-.6-.82-1.26-1.6-1.8-2.46-.52-.87-1.03-1.74-1.54-2.61-.33-.7-.66-1.4-.99-2.1-.33-.7-.71-1.38-.9-2.13-.1-.32-.21-.64-.31-.97-.37-1.22-.44-1.62-.34-1.93.02-.07.03-.16.05-.2.07-.14.37.31.72,1.16.53,1.26,1.01,2.56,1.64,3.81.29.64.59,1.28.88,1.92l1.08,1.83c.28.44.5.94.84,1.34l.95,1.26c.59.88,1.36,1.61,2.09,2.38v.02Z"/><path class="cls-1" d="m408.07,433.42c.03.14.78,4.66,3.54,3.29,1.69-.83-3.54,3.67-3.54,3.67v-6.96Z"/><path class="cls-1" d="m422.67,444.72c.22.65.41,1.3.59,1.96.06.24.17.47.22.71.21.86.29,1.75.32,2.63.01.39.07.78.06,1.18-.02.5-.06,1.02-.29,1.49-.07.15-.2.1-.35-.06-.15-.15-.34-.39-.42-.65-.28-.9-.35-1.76-.43-2.71-.04-.57-.24-1.13-.4-1.7-.16-.62-.34-1.25-.55-1.87-.13-.38-.26-.76-.39-1.14-.21-.58-.42-1.16-.7-1.7-.21-.42-.51-.79-.74-1.19-.05-.09-.1-.18-.15-.26-.04-.08-.07-.15-.09-.2v-.03s0-.01,0-.01c-.01.01.04-.04.06-.06h.07s.1-.03.13-.06c.03-.03.04-.08.03-.11,0-.02-.02-.03-.03-.05.01.02.02.03.04.04.06.05.15.04.22-.01.03-.03.06-.06.08-.1,0-.03,0,0,0-.01h0c-.03.08-.06.17-.14.25-.04.04-.07.08-.1.11-.06.05-.14.06-.23.02-.05-.02-.1-.04-.15-.1l-.04-.04s-.06-.16-.02-.27c.05-.13.08-.2.21-.25.14-.08.41.01.47.11l.03.03.06.05c.79.59,1.26,1.35,1.74,2.14.34.59.67,1.2.93,1.83l-.03.02Z"/><path class="cls-3" d="m416.06,442.98s-2.24-5.25-6.22-3.13c-3.63,1.93-1.86,6.73-.86,8.2s4.04,1.73,5.1.79c1.06-.94,3.11-2.14,1.98-5.86Z"/><path class="cls-1" d="m413.27,442.98c.22.95,1.01,1.72.87,2.93-.29,2.5-2.42,2.93-2.42,2.93,0,0,3.98-.75,4.19-2.93s-2.63-2.93-2.63-2.93Z"/><path class="cls-1" d="m334.21,420.43s1.17-3.33,3.35-5.61c1.95-2.04,4.67-3.56,5.36-4.67,2.03-3.24-4.27-7.69-7.34-5.75s-14.34,17.85-16.07,17.66c-1.73-.19,2.95,3.33,2.95,3.33l11.75-4.98Z"/><path class="cls-1" d="m358.63,443.45s5.05-24.85,7.73-22.17,2-4.87,0-5.79-5.22-3.95-8.75,0c-3.53,3.95-7.01,21.24-7.01,21.24l-3.75,12.11,2.45.91,9.34-6.29Z"/><path class="cls-1" d="m348.42,444.7s-.78,4.14,2.19,3.62c2.44-.43-6.9,4.66-6.9,4.66l4.71-8.28Z"/><path class="cls-1" d="m320.73,421.28s-.01,1.5,1.02,2.28c1.55,1.18,4.82.32,2.96,1.06-3.18,1.27-10.94,1.18-10.94,1.18l6.97-4.52Z"/><path class="cls-1" d="m317.34,425.19c1.6-.18,3.22-.45,4.82-.9.58-.16,1.15-.37,1.72-.57,2.05-.62,4.09-1.38,6.11-2.2.89-.37,1.79-.77,2.66-1.19,1.13-.51,2.21-1.19,3.51-1.32.4-.06.47.25.32.74-.08.24-.2.54-.38.84-.17.32-.4.58-.72.72-1.11.57-2.24,1.13-3.39,1.66-1.16.51-2.37.95-3.6,1.34-1.48.47-2.94,1.16-4.45,1.66-1.68.51-3.38.98-5.14,1.23-1.07.2-2.17.24-3.25.33-1.65.04-3.31-.06-4.93-.31-.62-.11-1.27-.12-1.89-.25l-1.86-.39c-.27-.08-.53-.15-.79-.25-.98-.37-1.22-.65-1.2-1.23,0-.13,0-.26.02-.39.08-.4.61-.59,1.32-.47.53.08,1.04.22,1.57.29.53.07,1.06.14,1.58.24.52.12,1.05.15,1.57.25l.79.13.8.06,1.19.09h1.2c.8.04,1.61-.1,2.42-.15v.05Z"/><path class="cls-1" d="m345.18,450.92c1.25-.65,2.48-1.36,3.7-2.11.45-.28.85-.61,1.3-.89,1.57-.98,3.17-1.95,4.78-2.92.71-.43,1.4-.91,2.08-1.38.46-.28.9-.57,1.38-.82.48-.24,1.01-.4,1.57-.5.35-.06.35.06.22.4-.14.33-.32,1.02-.74,1.46-.39.36-.8.69-1.2,1.04-.41.33-.86.61-1.29.92-.88.6-1.78,1.18-2.72,1.72-1.15.62-2.18,1.5-3.3,2.24-1.22.81-2.48,1.59-3.76,2.34-.79.46-1.6.89-2.41,1.31-1.24.64-2.55,1.17-3.88,1.62-1.04.33-2.09.76-3.28.78-.26.01-.52,0-.78-.04-.98-.18-1.23-.5-1.24-1,0-.12-.02-.24,0-.34.07-.37.49-.52,1.02-.59.4-.04.79-.13,1.18-.26.38-.12.77-.18,1.17-.31.79-.23,1.61-.54,2.43-.9,1.22-.56,2.49-1.13,3.72-1.83l.03.05Z"/><path class="cls-1" d="m346.84,396.21s-9.42,6.72-5.12,9.56c3.22,2.13-7.5-.79-7.5-.79l8.01-7.41,4.62-1.37Z"/><path class="cls-1" d="m234.68,247.84c-2.5-1.77-4.89-3.79-6.79-6.26-.71-.88-1.38-1.8-1.95-2.78-2.03-3.46-3.08-7.35-3.6-11.22-.21-1.72-.41-3.46-.45-5.18-.03-.55-.05-1.1-.04-1.66.01-.55-.02-1.1.03-1.66.08-1.1.27-2.2.47-3.28.13-.68.18-.58.31,0,.13.59.46,1.66.57,2.91.27,4.4.35,8.77,1.38,13.05.6,2.56,1.78,5.06,3.26,7.28,1.6,2.47,3.72,4.58,6.08,6.4,1.46,1.12,3,2.14,4.58,3.1,2.39,1.46,4.87,2.86,7.24,4.4,1.83,1.21,3.62,2.48,5.13,4.09.32.37.64.72.94,1.11,1.07,1.48,1.22,2.06,1.25,2.49,0,.1.02.22,0,.29-.06.23-.54-.33-1.35-1.3-.61-.71-1.3-1.37-2.02-1.99-.71-.63-1.46-1.23-2.25-1.8-1.59-1.11-3.27-2.18-5-3.21-2.58-1.53-5.25-3.03-7.8-4.78l.02-.03Z"/><path class="cls-3" d="m264.6,144.72s3.54-4.22,8.29-3.44c4.75.78-.29,9.82-3.68,10.86-3.38,1.04-7.99-1.39-6.96-4.69s2.34-2.74,2.34-2.74Z"/><path class="cls-1" d="m298.05,151.02s-.5-2.5-4.69-1.6c-1.93.42,8.61-1.6,8.61-1.6l-3.93,3.19Z"/><path class="cls-1" d="m255.89,134.46c1.36-.63,2.74-1.19,4.16-1.69.51-.19,1.02-.4,1.55-.55,1.86-.54,3.77-.94,5.74-1.01.87-.03,1.76-.04,2.64.09.57.09,1.14.22,1.7.46.27.12.54.27.78.45l.35.29c.11.1.17.26.26.39.18.35-.05.45-.49.52-.22.03-.51.1-.75.09-.24,0-.48-.02-.7-.13-1.61-.65-3.71-.67-5.81-.47-1.27.12-2.54.56-3.8.96-1.38.45-2.75.97-4.09,1.55-.82.36-1.64.74-2.44,1.16-1.21.63-2.42,1.28-3.56,2.03-.88.58-1.7,1.21-2.54,1.84l-.54.42c-.69.51-.97.59-1.29.48-.07-.03-.16-.04-.22-.08-.19-.11-.04-.49.41-.96,1.35-1.35,2.9-2.68,4.66-3.7,1.28-.79,2.62-1.49,3.98-2.16l.02.03Z"/><path class="cls-1" d="m269.22,151.35c-7.84.47-4.62-7.62-1.12-9.3,0,0-3.29-.72-4.94.64-1.65,1.36-3.31,3.82-3.16,5.52s1.12,4.87,4.05,4.83c2.93-.04,5.18-1.69,5.18-1.69Z"/><path class="cls-2" d="m126.24,271.45s-15.41-2.73-15.83-8.56c-.36-4.95,16.21,1.21,16.21,1.21l-.38,7.34Z"/><path class="cls-1" d="m116.48,260.69c1.2.08,2.36.25,3.5.51.41.1.84.12,1.25.24,1.43.41,2.82.94,4.15,1.57.58.31,1.19.54,1.77.84.75.36,1.45.87,2.03,1.5.18.2.06.3-.24.35-.3.05-.77.1-1.22,0l-1.18-.28c-.37-.14-.73-.29-1.11-.42-.37-.14-.74-.29-1.11-.43-.37-.16-.72-.36-1.09-.53-.88-.43-1.88-.6-2.84-.82-1.06-.23-2.12-.44-3.2-.52l-.99-.07-.99.03c-.5,0-.98.12-1.48.18-.49.09-.95.26-1.41.4-.33.17-.64.37-.95.57-.3.21-.51.51-.8.72-.13.08-.25.19-.35.3-.43.39-.67.45-1.04.35-.09-.02-.18-.04-.25-.06-.25-.09-.27-.43-.05-.96.16-.38.33-.8.61-1.13.3-.29.59-.65.96-.88.36-.23.74-.46,1.12-.68.4-.16.8-.31,1.21-.45.61-.19,1.24-.24,1.86-.34.61-.02,1.23-.07,1.84-.05v.05Z"/><path class="cls-1" d="m106.93,446.53s-14.83-.88-17.28.92c-6.76,4.98,23.72,11.29,23.72,11.29,0,0-7.37-4.22-6.92-6.28s.48-5.94.48-5.94Z"/><path class="cls-1" d="m230.9,436.49c-.08,1.24-.15,2.48-.2,3.72,0,.45-.01.9-.02,1.36-.07,1.59-.12,3.19-.15,4.78-.02.71,0,1.42.04,2.12.06.9.03,1.8-.03,2.71-.02.28-.15.26-.34.04-.18-.22-.48-.64-.6-1.16-.26-.92-.31-1.86-.34-2.79-.05-.93,0-1.87.09-2.81.1-1.12.06-2.29.11-3.43.05-1.26.13-2.51.21-3.77l.16-2.32c.09-1.17.18-2.34.26-3.5.07-.9.03-1.79.12-2.69.02-.2.02-.39.05-.59.1-.73.2-.96.44-1.09.06-.03.11-.07.16-.09.18-.05.29.26.32.8.13,1.61.03,3.27-.06,4.95-.07,1.24-.13,2.5-.2,3.74h-.03Z"/><path class="cls-1" d="m217.61,426.58l-4.96,2.2c-.6.27-1.19.57-1.8.83-2.13.93-4.3,1.76-6.45,2.63-.96.39-1.9.81-2.86,1.17-1.22.48-2.47.92-3.71,1.35-.39.13-.35.08-.06-.12.29-.2.82-.58,1.48-.96l1.75-1.01c.58-.33,1.16-.69,1.78-.94,1.22-.56,2.44-1.1,3.69-1.61,1.49-.62,2.99-1.37,4.48-2.07l4.94-2.29,3.02-1.44c1.52-.74,3.04-1.49,4.53-2.27,1.15-.61,2.24-1.29,3.35-1.95.24-.14.48-.3.73-.43.93-.51,1.34-.46,1.67-.34.08.03.17.06.23.1.18.12-.09.52-.68,1.07-1.87,1.4-4,2.61-6.17,3.74-1.63.82-3.28,1.6-4.93,2.37l-.02-.03Z"/><path class="cls-1" d="m136.34,428.65c3.77.67,7.56,1.28,11.36,1.88l4.16.6,14.64,2.36c2.17.35,4.35.7,6.5,1.04,1.38.23,2.77.45,4.15.73,1.38.28,2.77.55,4.06,1.21.81.38.67.42-.11.51-.47.07-1.02.15-1.61.23-.65.05-1.38-.04-2.17-.16-2.78-.51-5.59-.9-8.4-1.39-2.81-.49-5.62-.99-8.46-1.49-3.38-.62-6.94-1.04-10.42-1.56-3.83-.58-7.66-1.18-11.48-1.81-2.35-.4-4.71-.8-7.06-1.2-3.56-.63-7.12-1.34-10.64-2.1-2.73-.6-5.44-1.1-8.11-1.96-.58-.21-1.17-.35-1.75-.6-.54-.23-.99-.4-1.35-.61-.36-.21-.62-.42-.84-.59-.43-.36-.61-.68-.71-.97-.05-.14-.12-.29-.13-.39,0-.17.22-.19.63-.1.21.04.45.12.74.21.3.08.66.16,1.03.3,2.21.83,4.65,1.38,7.08,2.02,2.45.6,4.97,1.16,7.5,1.68,3.76.77,7.57,1.49,11.38,2.14v.04Z"/><path class="cls-1" d="m142.39,421.86c-1.28-.14-2.58-.27-3.87-.36-.47-.03-.94,0-1.42-.05-1.66-.12-3.33-.27-5-.36-.74-.04-1.48-.01-2.21.02-.94.04-1.88.02-2.81-.06-.29-.03-.3-.25-.08-.54.21-.28.66-.7,1.21-.84.49-.13.97-.25,1.46-.32.49-.04.98-.06,1.47-.07.98-.02,1.96,0,2.94.1,1.17.14,2.39.06,3.59.11,1.32.06,2.64.15,3.95.25l2.43.21c1.23.12,2.46.23,3.68.35.95.06,1.9.07,2.87.18.21.03.43.04.64.08.8.16,1.03.47,1.02.95,0,.12,0,.23,0,.34-.06.36-.46.58-.98.61-.79.01-1.62.02-2.46.01-.84,0-1.69-.13-2.56-.19-1.28-.12-2.57-.26-3.87-.36v-.05Z"/><path class="cls-1" d="m193.06,411.6c-1.1-.13-2.2-.24-3.31-.29-.41-.02-.81.02-1.21,0-1.43-.09-2.87-.07-4.32-.12-.64-.01-1.28.04-1.91.09-.81.09-1.64.04-2.47-.02-.26-.03-.24-.1-.04-.27.2-.15.56-.47,1.01-.67.4-.14.8-.38,1.22-.44.41-.09.83-.17,1.24-.25.83-.13,1.67-.26,2.53-.2,1.02.04,2.07-.13,3.11-.17,1.15-.03,2.29-.02,3.44.02.71.01,1.41.07,2.12.12,1.07.07,2.14.21,3.2.28.41.03.82.03,1.24.02.41.01.82.02,1.24.05.18.01.36,0,.54.04.67.13.85.36.89.9,0,.12.03.25.02.36-.02.39-.35.68-.85.79-.73.11-1.46.17-2.19.19-.73-.02-1.46-.08-2.19-.14-1.09-.09-2.19-.18-3.3-.25v-.06Z"/><path class="cls-1" d="m193.73,258.15c.12.7.25,1.4.37,2.09.05.25.14.5.17.75.11.9.23,1.82.34,2.72.04.4.13.8.21,1.19.12.5.23,1,.25,1.52,0,.16-.13.18-.32.09-.19-.09-.47-.27-.62-.54-.25-.47-.49-.94-.7-1.42-.1-.24-.2-.48-.28-.73-.06-.25-.1-.51-.14-.77-.08-.63-.36-1.22-.53-1.84-.18-.68-.3-1.38-.46-2.06-.09-.42-.19-.85-.28-1.27-.14-.64-.3-1.28-.47-1.91-.13-.49-.36-.94-.53-1.41-.04-.1-.09-.2-.12-.31-.09-.4.03-.58.34-.77.07-.04.14-.09.21-.13.24-.12.51-.03.75.21.59.75,1.07,1.6,1.36,2.51.19.68.33,1.39.49,2.08h-.05Z"/><path class="cls-3" d="m136.45,413.89s14.7,9.24,19.97,8.96,6.28-.24,4.69-2.1c-2.43-2.85-17.68-9.27-17.68-9.27l.41-8.55-8.53-.65,1.14,11.62Z"/><path class="cls-3" d="m184.8,394.18l1.37,10.02s15.14,7.99,20.51,7.81,4.85-1.22,1.45-3.29-14.77-8.47-14.77-8.47l-.75-7.12-7.81,1.04Z"/><path class="cls-1" d="m141.68,404.43c-.47-.03-.94-.05-1.41-.08-.17,0-.34.03-.52.02-.62-.05-1.25-.14-1.87-.26-.29-.04-.55-.07-.83-.1-.35-.05-.74-.05-1.03-.32-.07-.15,0-.34.19-.64.18-.29.4-.57.57-.56.31.01.61.02.91.06.3.06.61.14.94.23.39.12.81.03,1.22.03.46,0,.93,0,1.39,0,.29,0,.59,0,.87,0,.45,0,.9,0,1.34,0,.35,0,.7-.11,1.05-.11.08,0,.15,0,.23.03.28.09.36.22.37.54,0,.07,0,.14,0,.21-.01.23-.16.42-.36.54-.16.09-.31.18-.44.26-.14.05-.28.07-.42.11-.28.05-.57.12-.86.11-.45,0-.9-.01-1.35-.02v-.04Z"/><path class="cls-1" d="m189.8,395.41c-.36,0-.73.02-1.09.03-.13,0-.26.05-.39.05-.48-.03-.97-.07-1.44-.1-.21-.02-.42.04-.63.04-.27,0-.55.09-.82-.15-.08-.07-.06-.3,0-.58.07-.28.18-.66.31-.71.46-.26.93-.25,1.47-.13.32.08.62-.07.94-.1.35-.04.71-.04,1.06-.07.22-.01.44-.03.66-.05.33-.04.67-.05,1-.14.25-.07.48-.24.73-.33.06-.02.11-.06.16-.07.22-.04.3.07.41.5l.07.29c.06.33.02.62-.11.76-.19.2-.38.36-.59.48-.21.09-.44.15-.67.19-.34.07-.7.09-1.06.14v-.04Z"/><path class="cls-1" d="m178.97,234.65s-2.34,13.4-2.41,19.91c-.08,8.48,2.01,18.49,1.72,20.47s-9.19,1.84-9.19,1.84c0,0-25.09-4.85-31.36-7.99-1.8-.9-11.12-4.01-11.12-4.01,0,0,1.36,7.29,0,10.16s-8.39,46.59-9.14,59.44-1.28,37.67.3,49.69c.99,7.51,1.3,12.36,3.35,14.78,1.23,1.45,3.1,1.4,6.12,2.31,0,0,20.15,2.31,30.31,1.51,10.16-.8,18.37-4.44,18.37-4.44,0,0-3.12-6.37-5.24-10.06s-3.72-17.17-4.22-21.92c-.5-4.75-.6-24.28-.6-24.28,0,0,2.67,13.41,3.97,20.59,1.3,7.18,6.16,27.15,10.47,29.99,4.31,2.84,22.56-2.39,22.56-2.39,0,0,15.35-6.77,15.09-9.95s-9.67-19.43-13.39-29.18c-3.72-9.75-12.78-31.54-14.18-38.02-1.41-6.48-8.72-32.41-8.72-32.41l-2.43-29.68-.26-16.35Z"/><path class="cls-1" d="m222.9,188.42c.25.65.5,1.3.69,1.97.08.24.18.48.23.73.22.87.35,1.77.37,2.68.03.4.03.8.06,1.2.02.51-.04,1.03-.23,1.51-.06.15-.22.1-.39-.05-.17-.15-.38-.41-.4-.68-.1-.48-.07-.94-.09-1.42-.02-.46-.04-.93-.06-1.44-.01-.59-.21-1.18-.36-1.76-.17-.64-.37-1.28-.6-1.92-.14-.39-.29-.78-.46-1.16-.25-.58-.52-1.15-.83-1.7-.24-.42-.53-.81-.81-1.21-.06-.09-.13-.17-.17-.27-.17-.36-.12-.54,0-.7.03-.04.05-.08.07-.11.06-.08.3-.03.54.17.39.28.6.68.86,1.05.25.39.47.79.69,1.21.32.62.61,1.25.9,1.89h-.02Z"/><path class="cls-1" d="m167.81,216.97c-1.65-1.05-3.24-2.18-4.81-3.31-.57-.42-1.16-.81-1.73-1.24-1.98-1.53-3.89-3.13-5.76-4.77-.83-.73-1.69-1.43-2.49-2.17-.52-.48-1.05-.94-1.55-1.43-.5-.5-.98-1.01-1.46-1.53-.3-.32-.2-.35.16-.19.35.16,1,.46,1.66.93,1.15.85,2.32,1.68,3.42,2.59,1.09.91,2.18,1.82,3.29,2.75,1.31,1.11,2.78,2.13,4.22,3.13,1.57,1.12,3.18,2.19,4.8,3.23,1.01.61,2.02,1.25,3.06,1.82,1.56.9,3.15,1.75,4.78,2.49,1.28.54,2.55,1.02,3.83,1.49.28.1.56.2.85.3,1.03.45,1.33.69,1.48,1.02.03.08.08.16.1.22.04.22-.45.24-1.3.11-2.49-.43-5.01-1.33-7.38-2.51-1.77-.87-3.5-1.83-5.16-2.89l.02-.04Z"/><path class="cls-1" d="m173.53,185.69c-1.06-1.3-2.1-2.62-3.12-3.94l-1.15-1.42c-1.31-1.7-2.59-3.42-3.96-5.06-.61-.73-1.26-1.42-1.89-2.11-.86-.85-1.64-1.77-2.51-2.62-.26-.27-.21-.27.09-.13.29.15.88.37,1.49.75,2.15,1.4,3.76,3.36,5.29,5.34.91,1.2,1.96,2.35,2.91,3.54l3.16,3.92c.65.8,1.32,1.59,2,2.35,1.03,1.17,2.1,2.31,3.23,3.36.88.81,1.81,1.53,2.77,2.2.21.14.4.32.61.47.78.56.98.82,1.04,1.14.01.07.04.15.04.21,0,.19-.42.12-1.11-.18-1.05-.4-1.99-1.05-2.9-1.73-.45-.35-.91-.7-1.35-1.07-.43-.38-.83-.79-1.25-1.19-1.19-1.22-2.32-2.51-3.41-3.81l.02-.02Z"/><path class="cls-1" d="m179.6,53.69s27.41-10.13,40.91,4.47c8.14,8.8,5.64,17.59,3.95,21.47-1.17,2.7-8.62,9.96-13.76,11.43-11.89,3.4-24.02-3.2-26.16-5.78s-4.54-5.6-4.54-5.6c0,0-5.2,6.93-10.22,9.25s-6.98,4-6.98,4c0,0,1.56,6.91.84,9.15s-1.37,2.64-2.87,1.06c-1.49-1.58-6.53-8.34-8.41-8.86s-6.28-.03-7.47,3.01.92,8.34,3.56,9.42c2.64,1.09,6.2,1.25,6.2,1.25,0,0,2.87,14.09,9.82,20.92,6.95,6.83,14.8,8.64,18.56,7.64s13.63-9.53,14.23-13.12c0,0,5.01,8.36,8.09,10.93,3.08,2.58,7.75,6.46,7.59,8.34s-.13,4.6-3.44,5.25c-3.31.65-17.44-1.01-20.63-1-3.18,0-5.84-1.42-5.89.56s2.17,6.31,1.45,7.65-4.83,3.44-7.35,1.23c-2.52-2.21-12.38-7.7-14.18-10.85-1.8-3.15-1.14-4.05-5.09-2.32s-11.6,11.94-11.6,11.94c0,0-6.73-1.18-7.64-5.68s-2.4-9.54-4.57-9.99c-2.18-.45-19.28-.98-22.42-5.26s-3.47-14.92-3.47-14.92c0,0-9.41.7-12.23-4.47s-4.03-7.68-.86-10.92c3.18-3.24,6.19-6.21,11.43-9.41s13.39-6.46,14.84-11.29c5.53-18.44,19.01-33.92,37.26-35.29,10.14-.76,12.83.26,21.02,5.77Z"/><path class="cls-1" d="m408.27,431.21l.25,3.38c.03.41.12.82.14,1.23.07,1.45.11,2.91.11,4.37,0,.65.02,1.3.06,1.93.11.82-.06,1.66-.27,2.48-.07.26-.24.22-.48,0-.23-.21-.61-.6-.78-1.06l-.22-.61c-.07-.2-.06-.41-.09-.61-.04-.41-.09-.81-.13-1.22-.03-.41-.08-.82-.07-1.23.02-.41.03-.83.05-1.25.07-1-.15-2.02-.24-3.04l-.31-3.36-.22-2.07c-.12-1.04-.21-2.1-.39-3.13-.12-.8-.43-1.56-.54-2.36-.03-.18-.07-.34-.09-.52-.04-.33-.01-.56.1-.72.09-.17.21-.27.38-.37.08-.04.15-.1.22-.12.23-.09.52.14.84.58.72,1.34,1,2.81,1.26,4.31.19,1.11.34,2.24.47,3.37h-.05Z"/><path class="cls-1" d="m418.07,442.01c-.69-1.21-1.64-2.22-2.78-2.82-.56-.32-1.18-.48-1.81-.58l-.48-.05-.39.03c-.13-.01-.26.05-.39.08-.13.04-.27.06-.39.14-.77.35-1.44,1.1-1.98,1.92-.99,1.44-1.45,3.35-1.09,4.97.17.81.64,1.52,1.26,2,.61.49,1.35.66,2.12.45,1.35-.34,2.65-1.9,2.59-3.15.02-.21-.09-.34-.12-.51-.12-.12-.17-.29-.36-.37-.29-.26-.65-.34-.98-.29-.33.05-.72.24-.93.52-.16.3-.52.34-.28.68.37.36.48.52-.32.56-.2,0-.49-.08-.76-.35-.29-.28-.42-.74-.44-1.24.08-.92.73-1.77,1.73-2.17.88-.37,2.04-.3,2.88.17.2.12.4.26.59.41.2.14.38.3.53.52.15.21.32.42.43.65.1.24.18.48.25.73.19.97.05,1.92-.28,2.64-.13.4-.37.71-.56,1.06-.24.3-.46.63-.74.89-.29.26-.56.53-.91.73-.32.23-.67.41-1.05.56-.35.18-.79.24-1.19.34-.42.04-.86.06-1.28.01-.85-.13-1.68-.48-2.27-.99-.31-.25-.61-.5-.83-.82-.24-.3-.48-.6-.63-.95-.85-1.62-.94-3.43-.61-5.05.34-1.63,1.02-3.18,2.17-4.43.62-.69,1.41-1.27,2.32-1.68.48-.17.96-.32,1.49-.34.27-.04.51-.03.73,0,.23.02.46.03.69.07.92.14,1.8.47,2.6.91.8.45,1.48,1.03,2.11,1.66,1.49,1.59,2.47,3.51,3.07,5.5.9,3.02,1.04,6.24.45,9.28-.45,2.36-1.17,4.67-2.46,6.74-.31.43-.57.89-.93,1.29-.62.79-1.17,1.18-1.6,1.39-.44.2-.75.25-1.04.22-.14-.01-.29,0-.38-.04-.33-.11.08-.82.71-2,.55-.79,1.02-1.64,1.42-2.52.44-.85.78-1.76,1.09-2.67.28-.92.5-1.87.65-2.83.14-.96.18-1.94.24-2.91.09-2.87-.44-5.9-1.91-8.29l.05-.04Z"/><path class="cls-1" d="m346.54,394.59c.6-.26,1.19-.53,1.82-.74l.93-.33.97-.27c1.29-.35,2.66-.57,4.1-.49,1.03.03,2.14.19,3.15.69.87.36,1.83,1.21,2.28,2.16.48.95.6,1.93.62,2.81.02,1.79-.34,3.39-.67,4.97-.3,1.4-.56,2.78-.71,4.13-.11.86-.15,1.72-.12,2.52,0,.4.08.78.1,1.15,0,.19.03.37.06.55.02.19.05.38.1.57.13.47.03.63-.63.5-.31-.08-.82-.25-1.24-.65-.2-.19-.43-.43-.58-.7-.13-.28-.23-.58-.27-.89-.28-2.2.08-4.09.47-5.91.38-1.81.85-3.55,1.07-5.22.13-.99.05-1.99-.33-2.66-.18-.34-.42-.6-.75-.79-.35-.2-.79-.39-1.23-.51-1.99-.53-4.4,0-6.62.81-.7.24-1.37.56-2.06.85-.67.34-1.35.65-2,1.02-2.01,1.08-3.94,2.36-5.77,3.73-1.4,1.09-2.67,2.3-3.98,3.47-.28.26-.56.53-.84.79-1.09.96-1.61,1.06-2.18.88-.13-.04-.28-.07-.38-.12-.18-.09-.21-.3-.12-.6.09-.3.28-.71.63-1.13,1.02-1.26,2.21-2.41,3.44-3.56,1.27-1.1,2.61-2.16,4.02-3.15,2.09-1.47,4.31-2.81,6.69-3.93l.03.06Z"/><path class="cls-1" d="m116.38,414.63c1.27-.57,2.55-1.14,3.8-1.75.46-.22.89-.5,1.35-.72,1.63-.77,3.28-1.51,4.89-2.33.72-.35,1.4-.8,2.1-1.17.89-.5,1.73-1.1,2.82-1.26.43.1.35.06.29.49-.03.23-.11.46-.22.73-.06.13-.12.27-.2.41-.04.07-.08.13-.12.2-.05.05-.11.1-.17.14-1.66,1.3-3.51,2.27-5.47,3.1-1.17.49-2.26,1.23-3.42,1.81-1.27.64-2.56,1.25-3.85,1.85l-2.39,1.09c-1.21.55-2.44,1.06-3.64,1.62-.93.42-1.78.99-2.72,1.41-.2.1-.4.2-.61.28-.78.3-1.09.25-1.43-.15-.08-.09-.17-.18-.23-.27-.2-.32,0-.76.5-1.11,1.48-1.1,3.18-1.86,4.88-2.65,1.27-.58,2.54-1.17,3.82-1.76l.03.05Z"/><path class="cls-1" d="m137.08,408.66c.03.98.09,1.98.17,2.97.03.36.12.72.15,1.08.08,1.29.19,2.59.23,3.9.03.58.09,1.16.16,1.73.1.73-.03,1.49-.2,2.23-.06.23-.17.2-.36.02-.18-.19-.52-.52-.7-.92l-.24-.53-.12-.26-.04-.27c-.06-.36-.11-.71-.17-1.07-.1-.72-.19-1.45-.19-2.2,0-.9-.27-1.8-.41-2.7-.15-1-.28-2.01-.39-3.02l-.18-1.88c-.1-.95-.11-1.92-.17-2.87-.04-.74-.2-1.48-.24-2.24-.01-.17-.06-.33-.01-.5.12-.62.3-.8.88-.84.13,0,.25-.03.36-.03.36,0,.77.31.89.73.24.63.28,1.23.35,1.86.06.62.11,1.25.15,1.89.04.95.05,1.93.13,2.92h-.05Z"/><path class="cls-1" d="m156.01,416.13c1.02.51,2.03,1.04,3.03,1.65.52.32.95.59,1.52,1,.77.55,1.48,1.2,2.17,1.85.22.21.3.43.44.64.17.22.17.41.22.6.05.21.1.34.05.56-.02.23-.15.48-.3.64-.4.5-1.04.78-1.84.97-.41.08-.83.17-1.3.19l-.7.03h-.35s-.23-.01-.23-.01c-4.01-.37-7.75-1.47-11.35-2.96-1.58-.7-3.15-1.44-4.63-2.31-.94-.57-1.91-1.13-2.71-1.91-.85-.72-1.49-1.67-2.11-2.57-.36-.59-.29-.52.22-.22.25.15.63.34,1.1.53.25.1.5.2.76.3.14.05.26.11.42.15.12.08.26.13.39.21.45.27.95.47,1.39.74.44.27.89.53,1.35.77.92.49,1.87.93,2.83,1.34,1.94.79,3.91,1.57,5.95,2.22,1.22.39,2.5.66,3.8.83.65.08,1.3.15,1.94.18l1.27.05c.23,0,.5.01.74-.11.15-.08.05-.22-.02-.3-.06-.1-.15-.19-.23-.28-.1-.11-.21-.2-.34-.31l-.23-.18-.47-.32c-.64-.41-1.3-.8-1.99-1.17-1.58-.84-3.23-1.61-4.9-2.33l-3.82-1.65c-1.28-.57-2.55-1.1-3.82-1.83-.27-.16-.51-.31-.81-.55-.32-.26-.57-.58-.7-.96-.12-.62-.1-.99-.12-1.4l-.03-1.19c-.02-.79-.02-1.57-.02-2.35,0-.47-.01-.93,0-1.4.04-.87.1-1.45.25-1.84.18-.39.41-.6.73-.77.15-.07.29-.17.42-.21.23-.06.42.09.59.42.16.33.32.84.32,1.47.03,1.16.02,2.33,0,3.51,0,.59-.02,1.17-.03,1.77,0,.29,0,.58,0,.86l.02.4c0,.07,0,.03.01.05.01,0,0,0,.02,0,0,0-.02-.02.13.08.21.15.51.32.81.48.62.32,1.3.64,1.99.94,2.66,1.17,5.46,2.3,8.2,3.62l-.02.05Z"/><path class="cls-1" d="m186.51,399.39c.08.9.21,1.82.35,2.74.05.33.17.66.21,1,.16,1.2.34,2.41.42,3.64.05.54.13,1.08.2,1.62.12.69-.01,1.4-.17,2.09-.06.22-.17.19-.35.02-.18-.17-.51-.48-.69-.84-.07-.16-.16-.32-.23-.48l-.12-.24-.04-.24c-.06-.33-.12-.65-.19-.98-.11-.66-.23-1.32-.27-2.01-.04-.83-.36-1.64-.55-2.47-.21-.91-.4-1.84-.57-2.78-.11-.58-.2-1.16-.29-1.75-.15-.89-.2-1.79-.29-2.69-.06-.7-.23-1.39-.28-2.11-.02-.16-.06-.32-.02-.47.11-.58.29-.75.85-.78.12,0,.24-.03.35-.02.35,0,.75.29.88.68.24.58.29,1.13.37,1.69.08.56.13,1.13.2,1.71.07.86.13,1.76.27,2.66h-.05Z"/><path class="cls-1" d="m206.35,406.03c.74.45,1.47.92,2.19,1.44l.54.4.61.5.83.76c.24.26.47.53.69.79.22.35.52.71.53,1.01.04.17.09.31.08.44,0,.13-.02.32-.1.5-.09.17-.21.31-.31.44-.14.11-.26.22-.41.32-.29.19-.67.33-1.09.43-.37.11-.76.21-1.2.25-.21.03-.44.03-.66.04-.26,0-.35.03-.5.03-.55,0-1.09.03-1.62-.05-3.74-.52-7.3-1.61-10.69-3.09-1.49-.69-2.97-1.42-4.37-2.27-.89-.55-1.8-1.1-2.56-1.84-.8-.7-1.4-1.6-1.98-2.46-.34-.56-.27-.5.21-.21.24.14.6.32,1.05.5l.72.28c.13.04.25.11.4.14.11.08.24.13.37.2.43.26.9.45,1.32.72.42.26.85.51,1.28.75.87.48,1.76.91,2.67,1.31,1.83.77,3.69,1.55,5.62,2.21,2.3.81,4.87,1.09,7.29,1.28l.59.05h.23c.16.01.32,0,.49-.02.14-.02.42-.08.34-.27-.08-.13-.18-.26-.29-.39-.07-.07-.14-.15-.22-.23l-.12-.11-.21-.17c-.39-.32-.82-.61-1.24-.9-1.41-.94-2.91-1.78-4.45-2.57-2.32-1.21-4.71-2.33-7.07-3.58-.46-.25-.92-.51-1.38-.81-.23-.15-.46-.31-.69-.53-.27-.22-.48-.56-.61-.91-.35-1.05-.61-2-.82-3.04-.09-.45-.19-.9-.24-1.37-.21-1.74.12-2.32.73-2.63.14-.07.28-.17.41-.21.22-.06.41.09.58.38.16.3.35.74.4,1.31.11.82.25,1.64.43,2.47.09.41.18.83.28,1.24l.16.62.16.56s0,0,.05.03c.03.03.09.08.16.13.06.05.13.1.22.16.31.22.7.45,1.1.66.8.44,1.66.87,2.52,1.29,2.51,1.24,5.1,2.48,7.62,3.96l-.02.05Z"/><path class="cls-1" d="m184.12,394.51c-1.32-.11-2.69-.29-4.09-.96-.35-.21-.7-.37-1.02-.68-.15-.14-.35-.29-.45-.42l-.32-.39-1.25-1.56c-.36-.55-.69-1.11-1.04-1.67-.17-.28-.35-.56-.51-.84l-.42-.87-.83-1.75-.69-1.79c-.36-.86-.63-1.75-.91-2.63-.29-.88-.57-1.76-.77-2.66-1.56-6.3-2.46-12.64-3.34-18.96-.4-2.8-.88-5.6-1.39-8.36-.36-1.76-.64-3.55-1.01-5.31l-.26-1.33-.2-1.34c-.15-.89-.3-1.78-.45-2.67-.18-1.11-.09-.98.33-.11.25.51.55,1.12.88,1.81.18.38.39.79.58,1.23.1.22.18.45.29.68.07.24.15.49.22.74.53,1.79.99,3.58,1.43,5.39.37,1.81.75,3.63,1.07,5.45.65,3.65,1.28,7.29,1.77,10.96.61,4.39,1.62,8.88,2.89,13.16.36,1.17.71,2.35,1.16,3.48.22.57.39,1.16.66,1.7l.76,1.65c.23.57.58,1.05.87,1.58.32.5.58,1.06.97,1.51l1.1,1.4c.34.35.71.65,1.24.86,1.22.56,2.75.74,4.22.78,1.49.04,3-.07,4.51-.24,4.56-.56,9.1-1.68,13.44-3.19,3.37-1.18,6.55-2.66,9.63-4.33.67-.39,1.32-.77,1.99-1.16,2.45-1.49,3.32-1.81,4.1-1.79.18,0,.4-.01.53.03.43.1-.31,1.13-2.05,2.49-5.36,3.71-11.75,6.3-18.34,8.14-2.45.68-4.95,1.22-7.49,1.61-2.54.37-5.13.61-7.81.4v-.05Z"/><path class="cls-1" d="m115.24,345.56c.37-6.87.98-13.72,1.74-20.55.27-2.49.51-4.99.83-7.47,1.16-8.76,2.7-17.45,4.26-26.12.69-3.85,1.34-7.72,1.93-11.55.39-2.46.71-4.93,1.06-7.38.37-2.45.72-4.9.98-7.3.32-1.49.33-1.37.93-.05.56,1.32,1.04,3.89.76,6.79-.2,2.58-.67,5.09-1.06,7.61-.43,2.51-.86,5.02-1.29,7.53-.91,5-1.83,10.01-2.75,15.05-1.11,6.02-1.87,12.34-2.64,18.55-.85,6.82-1.54,13.67-2.01,20.53-.16,2.11-.25,4.23-.38,6.34-.08,2.11-.18,4.23-.22,6.34-.17,6.41-.12,12.85.27,19.2.11,2.47.4,4.9.62,7.33.31,2.42.55,4.84.9,7.26.15,1.06.3,2.1.46,3.18.52,3.98.54,5.27.12,6.22-.08.21-.14.49-.21.62-.19.43-.96-1.11-1.61-4.02-.95-4.31-1.58-8.81-2.09-13.38-.44-4.58-.77-9.23-.89-13.9-.22-6.93-.09-13.9.23-20.84h.06Z"/><path class="cls-1" d="m276.12,185.7c-1.27-.59-2.5-1.3-3.61-2.26-.41-.33-.83-.72-1.19-1.15l-.59-.82c-.28-.4-.51-.82-.65-1.24-.27-.83-.12-1.65.35-2.3.51-.62,1.29-.62,2.08-.45.27.08.54.14.81.25.27.09.56.2.71.27.38.14.74.31,1.08.5.44.24.89.46,1.31.74.2.15.43.26.58.47.16.21.3.44.45.66.17.29.02.41-.38.54-.2.07-.47.14-.78.22-.15.04-.32.1-.47.1-.13-.01-.26-.04-.38-.09-.78-.37-1.61-.61-2.32-.98l-.14-.06s-.02-.02-.02-.02v-.03s-.04-.05-.07-.08c-.05-.05-.19-.17-.32-.15-.03,0-.07.01-.1.03-.28.25-.03.44.79,1.48.74.88,1.78,1.64,2.88,2.26.68.39,1.4.73,2.14,1.01,1.12.41,2.3.75,3.47.86.91.1,1.82-.05,2.61-.27.17-.06.34-.11.49-.18.27-.13.48-.17.62-.18.17.03.34.11.54.23.09.06.19.1.27.16.14.09.18.23.14.44-.05.19-.18.55-.49.72-.9.62-1.91.8-2.89.88-.99.08-1.95-.06-2.9-.22-1.4-.27-2.73-.77-4.04-1.3l.02-.04Z"/><path class="cls-1" d="m272.77,171.5c-.06.03-.07.1-.04.2-.04-.02.19.28.35.48.18.21.37.43.57.63.29.3.64.55.96.84,1.12,1.03,2.34,2.01,3.63,2.87.57.38,1.19.7,1.8.99.4.18.78.38,1.17.57l.29.14.26.21c.18.14.35.28.54.41.23.17.2.23-.08.37-.14.07-.35.16-.61.26-.13.05-.27.1-.42.14-.08.03-.15.03-.23.06-.07-.01-.14-.02-.2-.04-.48-.12-.95-.24-1.4-.42-.43-.21-.85-.43-1.26-.67-.82-.48-1.59-1.02-2.32-1.63-.87-.73-1.88-1.33-2.77-2.09-.49-.42-.96-.87-1.41-1.36-.11-.12-.22-.25-.33-.38-.14-.15-.29-.38-.42-.57-.27-.4-.47-.82-.55-1.23-.11-.5-.02-1.02.32-1.42.18-.18.4-.31.62-.41.24-.06.49-.13.75-.12.39-.04.82.06,1.23.14.42.11.63.19.94.3.57.21,1.12.44,1.66.67.84.36,1.7.66,2.53,1.06.18.09.37.16.55.27.67.37.72.74.56,1.21-.04.11-.07.23-.12.33-.17.33-.6.43-1.12.31-1.43-.52-2.86-1.19-4.28-1.71-.26-.1-.52-.18-.78-.26-.36-.09-.18-.06-.24-.08-.01-.02-.06-.05-.1-.02l-.07-.04Z"/><path class="cls-1" d="m295.57,154.51c-1.2.82-2.37,1.66-3.49,2.56-.4.34-.76.72-1.16,1.05-1.36,1.22-2.72,2.47-3.74,3.97-.27.31-.41.69-.61,1.03-.17.36-.41.69-.51,1.07l-.47,1.43c-.05.5-.31.95-.52,1.44-.15.3-.45.25-.76-.08-.29-.31-.75-.96-.72-1.67.26-1.18.63-2.35,1.23-3.39.28-.54.64-1,1.01-1.46.36-.46.74-.91,1.18-1.3.99-.97,1.9-2.05,2.95-2.97.57-.5,1.15-1,1.75-1.45.59-.47,1.19-.92,1.81-1.35.74-.55,1.51-1.06,2.25-1.59,1.14-.8,2.3-1.56,3.37-2.4.82-.66,1.58-1.38,2.31-2.07.16-.15.31-.3.49-.44.6-.53.94-.56,1.33-.5.09.02.19.02.26.04.24.07.21.49-.05,1.2-.98,1.93-2.64,3.18-4.24,4.36-1.2.85-2.41,1.7-3.62,2.55l-.03-.04Z"/><path class="cls-1" d="m282.42,127.35c2.71-.02,5.43.05,8.16.27,1,.12,2,.12,3,.3.88.17,1.76.28,2.63.56.44.13.87.24,1.3.39l1.28.52c.43.15.84.41,1.25.64l.61.35c.23.13.31.2.51.32.73.45,1.52.95,2.22,1.56,1.27,1.04,2.32,2.45,2.88,4.01.14.51.32,1.02.35,1.55l.08.79-.02.78c-.01.26,0,.52-.06.77l-.21.75c-.12.5-.37.95-.55,1.42-.26.57-.29.47-.38-.08-.05-.27-.13-.66-.23-1.1-.08-.24-.15-.47-.22-.71-.04-.12-.06-.25-.12-.37,0-.12,0-.25-.02-.37-.08-.89-.22-1.74-.54-2.49-.27-.77-.65-1.47-1.18-2.1-.53-.62-1.18-1.17-1.91-1.67-.38-.25-.75-.48-1.2-.74-.53-.34-.85-.5-1.23-.73-.42-.3-.97-.46-1.5-.65-.51-.21-1.1-.3-1.66-.42-.56-.13-1.14-.23-1.73-.31-.59-.08-1.16-.19-1.76-.24-2.59-.33-5.25-.42-7.91-.43-1.64,0-3.28.04-4.92.13-2.48.13-4.99.31-7.44.63-1.91.25-3.76.63-5.63.98-.41.08-.81.18-1.23.23-.39.05-.71.09-.98.11-.27,0-.5-.04-.69-.08-.38-.09-.62-.23-.82-.44-.09-.1-.21-.18-.27-.28-.2-.3.37-.74,1.46-1.24,1.65-.55,3.38-.96,5.14-1.34.88-.18,1.77-.35,2.67-.5.9-.11,1.81-.22,2.71-.33,2.7-.28,5.43-.44,8.16-.53v.07Z"/><path class="cls-1" d="m291.07,149.73l-5.84.52c-.71.07-1.41.2-2.11.27-2.48.25-4.96.54-7.39,1.04-1.09.2-2.13.55-3.17.88-.65.24-1.31.48-1.97.71-.33.11-.65.25-.98.36-.32.13-.7.14-1.06.19-.48.01-.49-.13-.29-.59.1-.24.26-.53.47-.88.22-.31.54-.57.92-.77.69-.3,1.37-.61,2.08-.88.71-.22,1.44-.41,2.16-.6,1.45-.34,2.92-.59,4.4-.74,1.77-.18,3.57-.55,5.35-.77,1.96-.23,3.93-.42,5.88-.61,1.2-.12,2.41-.24,3.6-.39,1.81-.22,3.63-.46,5.4-.82.68-.16,1.35-.34,2.02-.53l1.96-.65c.29-.09.56-.21.85-.31.54-.15.91-.21,1.2-.17.29.06.49.18.68.38.09.09.19.17.26.26.11.15.07.33-.08.54-.15.21-.42.49-.81.68-2.32,1.19-4.99,1.74-7.63,2.18-1.97.32-3.95.53-5.92.75v-.05Z"/><path class="cls-1" d="m259.07,131.42c.62-.29,1.29-.46,1.94-.67.66-.19,1.3-.44,1.99-.54l2.04-.39,2.1-.15c.7-.07,1.42.05,2.12.08l.6.04c.12,0,.24.01.39.05.13.07.27.1.4.15.26.11.51.27.76.41l.51.42c1.14,1.06,1.96,2.25,2.61,3.54.97,1.86,1.53,3.95,1.56,6.04,0,1.83-.28,3.66-.91,5.33-.57,1.68-1.39,3.27-2.51,4.71-1.12,1.42-2.63,2.68-4.46,3.22-.91.27-1.82.41-2.74.39-.92,0-1.86-.15-2.73-.51-1.55-.57-3.01-1.87-3.44-3.62-.46-1.74.13-3.53,1.05-4.83,1.19-1.67,2.69-3,4.46-3.99.89-.48,1.84-.88,2.85-1.07,1.01-.15,2.06-.21,3.05.04,1.19.59.94.54-.07.95-.5.24-1.15.47-1.85.81-.35.18-.71.37-1.09.57-.38.18-.78.37-1.2.58-1.48.72-2.86,1.85-3.89,3.13-1.01,1.22-1.41,2.61-.91,3.69.24.55.7,1.03,1.31,1.38.62.33,1.36.51,2.13.56.78.02,1.62-.08,2.34-.31.74-.23,1.43-.63,2.06-1.14,1.53-1.23,2.63-3.25,3.26-5.34.64-2.09.81-4.29.36-6.36-.22-1.14-.66-2.24-1.23-3.25-.56-.99-1.34-2-2.09-2.61-.12-.08-.19-.17-.37-.16l-.84-.06-.9-.07c-.3,0-.61.04-.91.05-.6.07-1.22.03-1.82.18l-1.81.35c-2.96.75-5.8,2.08-8.44,3.72-4,2.5-7.63,5.7-10.65,9.34-2.33,2.85-4.21,5.94-5.87,9.14-.34.72-.67,1.42-1.04,2.13-1.34,2.65-1.87,3.46-2.72,3.82-.18.09-.37.22-.5.27-.41.16-.45-1.19.21-3.39.24-.82.6-1.59.9-2.39.32-.8.62-1.62,1.05-2.37.41-.77.82-1.54,1.24-2.31.43-.77.93-1.49,1.4-2.24,1.94-2.96,4.21-5.79,6.81-8.31,1.9-1.91,4.01-3.61,6.23-5.18,1.16-.72,2.26-1.52,3.49-2.13.61-.32,1.2-.66,1.82-.95l1.9-.82.03.06Z"/><path class="cls-1" d="m192.85,325.53c-2.76-7.79-5-15.77-6.98-23.79-.69-2.94-1.51-5.84-2.03-8.81-2.07-10.42-3.55-20.93-4.51-31.48-.55-4.66-.78-9.44-.77-14.11.05-6.01.36-12.08,1.76-17.94.48-1.82.48-1.56.56.04.17,1.62.31,4.54.16,7.95-.38,6.04-.37,12.07.11,18.09.22,2.99.58,6.04.87,9.07.16,1.52.27,3.04.46,4.56.19,1.52.37,3.04.56,4.56.82,7.29,2.43,14.76,3.99,22.09,1.8,8.04,3.93,16.02,6.43,23.88l2.44,7.22,2.66,7.14c2.82,7.16,5.9,14.26,9.23,21.14,2.62,5.34,5.38,10.47,8.21,15.63.62,1.13,1.23,2.25,1.86,3.39,2.3,4.26,2.92,5.68,2.84,6.9,0,.27.03.61-.01.79-.11.59-1.5-.91-3.27-3.99-5.32-9.1-10.5-18.96-15.2-29.12-3.47-7.55-6.61-15.31-9.42-23.17l.06-.03Z"/><path class="cls-1" d="m181.32,147.41l.1-.58.05-.29c.02-.09.04-.22.05-.23h0s1.63-.51,1.63-.51c.25-.08.6-.14.82-.19.17-.04.34-.07.51-.08.68-.09,1.34-.13,1.99-.14,1.3-.02,2.55.08,3.78.21,2.46.27,4.84.69,7.21,1.06,1.8.28,3.6.47,5.37.62,1.56.14,3.11.19,4.56-.01,1.45-.19,2.8-.66,3.6-1.62.23-.22.36-.51.54-.78.12-.3.28-.61.32-.89.13-.57.06-1.18-.18-1.8-.49-1.26-1.56-2.44-2.67-3.53-2-1.95-4.35-3.66-6.5-5.59-1.38-1.25-2.77-2.56-3.87-4.19-.54-.82-1.02-1.7-1.31-2.68-.3-.98-.31-2.04-.12-3.03.42-1.22.57-.91.95.05.12.24.24.51.38.81.16.29.33.6.54.91.36.63.8,1.32,1.28,2.09.85,1.38,2.08,2.65,3.4,3.85,1.32,1.21,2.76,2.36,4.19,3.59,1.43,1.23,2.89,2.5,4.21,4.07.65.8,1.28,1.69,1.7,2.79.43,1.08.55,2.47.12,3.65-.42,1.29-1.35,2.54-2.53,3.29-1.17.77-2.46,1.13-3.7,1.33-2.49.38-4.89.2-7.22-.05-2.56-.3-5.06-.74-7.55-1.09-2.48-.35-4.97-.68-7.34-.51-.41.04-.82.07-1.2.16-.18.02-.39.09-.59.15h0c-.1.19-.1.5-.07.76.05.47.19.97.34,1.47.32,1.02.77,2.05,1.05,3.27.12.65.22,1.41-.07,2.22-.09.19-.18.39-.29.57-.13.16-.27.32-.41.47-.29.27-.62.48-.95.64-1.37.61-2.73.5-3.96.31-2.49-.44-4.72-1.46-6.82-2.63-3.23-1.86-6.19-4.1-8.68-6.87-.55-.61-1.09-1.21-1.54-1.9-.44-.63-.76-1.19-1.01-1.66-.23-.48-.38-.9-.48-1.24-.21-.69-.23-1.13-.19-1.51.02-.17.02-.38.05-.49.12-.37.87.63,2.29,2.2,1.98,2.4,4.16,4.69,6.72,6.61,2.53,1.93,5.39,3.54,8.31,4.51,1.07.35,2.18.56,3.12.54.47,0,.87-.1,1.11-.22.26-.17.28-.18.3-.25.05-.09.04-.5-.1-1-.12-.5-.32-1.06-.54-1.67-.21-.6-.44-1.26-.62-1.97-.09-.39-.16-.69-.22-1.2-.06-.31-.04-.61,0-.9.03-.3.04-.59.07-.89l.06.02Z"/><path class="cls-1" d="m174.08,134.31c1.86.61,3.82,1.01,5.73.78,1.95-.18,3.95-.68,5.77-1.49.67-.3,1.3-.68,1.94-1.03.59-.43,1.22-.81,1.81-1.25,2.1-1.52,3.9-3.5,5.41-5.68l.58-.81.52-.86c.34-.58.7-1.14,1.01-1.74.59-1.21,1.23-2.39,1.71-3.66l.67-1.67.55-1.72c.18-.58.37-1.15.53-1.73.14-.58.29-1.17.43-1.75.41-1.48.6-3.02.99-4.52.4-1.49.56-3.03,1.3-4.49.47-.91.31-.8.49.05.21.86.79,2.49.53,4.3-.21,1.61-.45,3.2-.91,4.77l-.62,2.35-.76,2.32c-1.07,3.08-2.39,6.12-4.23,8.89-.5.85-1.15,1.63-1.71,2.47-.61.81-1.27,1.59-1.92,2.37-.74.72-1.39,1.52-2.21,2.16l-1.19.99-1.29.87c-3.84,2.39-8.44,3.67-13.02,2.99-2.78-.45-5.34-1.62-7.64-3.08-3.53-2.21-6.38-5.31-8.63-8.7-1.73-2.65-3.21-5.43-4.1-8.48-.25-.65-.37-1.33-.53-2.01-.09-.65-.18-1.18-.18-1.63,0-.46.03-.83.07-1.13.06-.61.21-.96.38-1.25.08-.13.14-.3.19-.37.15-.25.68.75,1.15,2.48.17.64.49,1.26.64,1.91l.27.96.35.94c.25.62.42,1.28.72,1.88.28.61.56,1.23.84,1.85,1.25,2.41,2.76,4.71,4.55,6.78,2.68,3.02,6,5.63,9.8,6.86v.06Z"/><path class="cls-1" d="m225.41,56.61c2.09,2.9,3.25,6.31,3.79,9.71.54,3.44.23,7.04-.95,10.32-.82,2.4-2.06,4.66-3.67,6.59-2.81,3.42-6.46,6.01-10.46,7.72-2.01.87-4.15,1.36-6.28,1.73-1.08.09-2.15.29-3.23.27l-1.62.04-1.61-.09c-3.8-.26-7.61-1.07-11.07-2.67-2.24-.98-4.34-2.35-6.16-4.04-1.83-1.66-3.32-3.88-3.77-6.34-.31-1.52-.09-1.31.75-.31.22.26.47.55.75.87.36.29.67.65,1.03,1.01.17.19.35.38.54.57.21.18.44.35.63.56.4.41.75.88,1.23,1.29,1.5,1.61,3.4,2.88,5.43,3.88.99.55,2.08.91,3.14,1.33,1.1.32,2.18.69,3.32.89,1.12.29,2.27.38,3.41.55,1.15.05,2.3.18,3.46.12,1.16.02,2.3-.14,3.46-.24,1.13-.22,2.29-.36,3.38-.72,5.33-1.47,10.27-5.33,13.21-10.1,1.63-2.63,2.64-5.64,2.76-8.73.13-3.08-.44-6.26-1.66-9.12-1.48-3.54-4.09-6.56-7.41-8.54-5.04-3.04-11.27-3.94-17.17-3.5-4.62.33-9.07,1.52-13.35,3.11-.95.34-1.85.75-2.79,1.12-1.74.72-2.87,1.23-3.72,1.45-.88.18-1.43.21-1.94.11-.23-.05-.52-.06-.68-.14-.27-.13-.11-.45.43-.95.27-.24.62-.56,1.06-.91.43-.35,1.01-.63,1.64-.98,7.56-3.86,16.65-6.25,25.94-5.42,3.43.33,6.88,1.16,10.08,2.71,3.19,1.54,6.11,3.84,8.19,6.78l-.05.05Z"/><path class="cls-1" d="m118.18,135.67c2.86.96,5.99,1.4,9.16,1.68,1.16.11,2.33.11,3.53.22.53.05,1.06.11,1.62.19.58.11,1.08.13,1.92.51.23.1.32.18.45.27l.37.26c.25.16.47.38.7.57.45.41.86.87,1.21,1.36.7,1.01,1.13,2.15,1.37,3.25.25,1.1.34,2.17.46,3.17.2,1.79.74,3.35,2,4.26.81.59,1.83.91,2.89,1.22.52.16,1.08.27,1.63.39.28.04.56.13.83.23l.85.24c.71.22.61.4-.03.75-.32.17-.79.42-1.37.64-.58.2-1.26.25-2,.18-1.31-.13-2.67-.53-3.95-1.37-1.29-.79-2.35-2.22-2.8-3.6-.92-2.79-.65-5.11-1.39-6.95-.21-.55-.52-1.05-.93-1.49-.2-.22-.43-.43-.68-.62-.11-.1-.26-.18-.39-.27l-.2-.13-.05-.03-.02-.02h-.01s0,0,0,0c-.07.11.09-.16.07-.12v.02s-.03.03-.03.03l-.05.07s0,0,0,0h-.01s-.02,0-.02,0c-.03,0-.04-.02-.09-.04l-.2-.04c-.12-.04-.28-.06-.44-.08-.31-.05-.68-.08-1.02-.11-.73-.05-1.46-.1-2.18-.15-3.24-.22-6.58-.5-9.85-1.28-2.01-.48-4-1.15-5.87-2.15-2.83-1.48-5.24-4.08-6.23-7.16-.82-2.35-1.14-4.83-.87-7.23.03-.53.12-1.04.21-1.57.32-1.96.86-2.46,1.41-2.74.13-.06.26-.16.36-.18.18-.05.29.14.39.51.09.38.2.95.12,1.62-.05.5-.03,1.01-.05,1.51-.02.5-.03,1,.01,1.5.03,1,.15,1.97.24,2.93.25,1.91.87,3.68,1.93,5.14,1.58,2.16,4.14,3.67,7.03,4.57l-.02.07Z"/><path class="cls-1" d="m170.52,181.28c.78.93,1.55,1.89,2.38,2.77.8.92,1.66,1.78,2.54,2.62.62.64,1.36,1.14,2.01,1.73,2.36,2.03,4.91,3.88,7.7,5.33.61.33,1.26.6,1.9.89.64.29,1.27.57,1.94.77.84.29,1.69.55,2.53.86.42.14.85.28,1.27.44l.63.24c.21.09.4.23.61.34.5.32.41.4-.13.59-.55.25-1.54.48-2.6.32-3.73-.75-7.29-2.34-10.42-4.56-.47-.34-.94-.66-1.43-.98-.48-.32-.94-.68-1.42-1.02-.97-.66-1.9-1.38-2.78-2.14-1-.8-1.88-1.74-2.82-2.6-.87-.93-1.78-1.83-2.6-2.8-1.04-1.17-2.02-2.38-3-3.58-1.47-1.84-2.84-3.76-4.26-5.6-1.09-1.44-2.3-2.75-3.38-4.16-.24-.31-.5-.6-.73-.92-.22-.3-.39-.55-.52-.77-.12-.23-.17-.45-.21-.63-.08-.36-.05-.63.04-.89.04-.12.06-.25.11-.34.15-.28.78,0,1.7.65,1.13,1.15,2.28,2.33,3.31,3.63,1.05,1.28,2.06,2.61,3.09,3.93,1.53,1.96,3.02,3.93,4.61,5.82l-.04.04Z"/><path class="cls-1" d="m186.15,177.9c-.12-1.89-.19-3.79-.27-5.7-.03-.7-.11-1.39-.13-2.09-.05-2.47-.03-4.94.15-7.42.06-1.1.16-2.2.28-3.3.1-.7.19-1.41.35-2.1.14-.7.48-1.36.83-1.98.23-.39.42-.23.57.21.07.22.14.51.19.84.04.33.15.72.03,1.07-.56,2.61-.69,5.36-.78,8.16-.06,1.68.16,3.43.31,5.15l.47,5.71.24,3.54c.11,1.79.16,3.6.16,5.41,0,1.4.05,2.81-.22,4.27-.06.32-.13.64-.26.96-.47,1.18-.94,1.45-1.49,1.34-.13-.02-.26-.04-.37-.08-.18-.08-.27-.27-.3-.51-.02-.24.02-.52.09-.87.38-2.05.47-4.46.39-6.96-.05-1.85-.15-3.75-.3-5.65h.05Z"/><path class="cls-1" d="m178.43,243.67c-.22,1.3-.42,2.6-.6,3.9-.14,1.31-.34,2.61-.42,3.93-.06.96-.08,1.92-.13,2.88-.18,3.38-.16,6.78.11,10.17.2,1.49.31,3.01.62,4.47.18.94.36,1.89.54,2.83.24.93.36,1.89.48,2.87.07.61-.05.56-.39.13-.17-.22-.4-.53-.67-.91-.28-.38-.56-.85-.75-1.39-1.37-3.81-2.01-7.85-2.02-11.91,0-2.43-.18-4.94-.1-7.41.06-1.36.1-2.72.24-4.07l.18-2.03.25-2.02c.18-1.66.49-3.3.74-4.95.44-2.49,1-4.96,1.54-7.4.19-.95.38-1.9.57-2.85.18-.95.36-1.89.59-2.83.1-.42.17-.83.28-1.24.19-.77.5-1.23.73-1.54.24-.31.52-.44.86-.5.15-.03.3-.09.42-.09.38-.03.68.75.56,1.9-.5,3.38-1.37,6.8-2.07,10.29-.28,1.29-.51,2.59-.77,3.89-.29,1.3-.47,2.61-.71,3.91h-.06Z"/><path class="cls-1" d="m145.1,272.79c-4.22-1.53-8.36-3.23-12.49-4.9l-4.53-1.75c-2.65-1.05-5.29-2.08-7.98-2.89-1.34-.4-2.69-.74-4.04-.9-1.33-.16-2.69-.18-3.78.26-.48.19-.89.47-1.2.85-.2.28-.29.62-.23,1.08.18.93.87,1.93,1.69,2.72,1.08,1.02,2.34,1.91,3.71,2.61,1.38.68,2.83,1.27,4.37,1.69.95.27.83.43-.07.61-.22.05-.5.1-.82.15-.32.03-.67.05-1.07.07-.8.04-1.75-.03-2.7-.36-.43-.12-.85-.29-1.27-.46-.42-.16-.83-.36-1.24-.57-.41-.19-.8-.44-1.2-.68-.38-.26-.73-.58-1.09-.88-.7-.63-1.36-1.34-1.9-2.22-.53-.86-1.05-1.9-.96-3.33.03-.35.14-.73.25-1.08.16-.34.39-.69.6-.97.4-.43.86-.82,1.36-1.1,1.01-.58,2.07-.79,3.04-.84,1.95-.1,3.68.32,5.35.76,3.97,1.12,7.89,2.52,11.7,4.01,4.18,1.66,8.31,3.38,12.49,4.95,2.57.96,5.16,1.88,7.78,2.69,3.96,1.22,8.01,2.28,12.08,2.81,3.16.41,6.3.43,9.39.12.68-.07,1.34-.17,2.02-.27,2.51-.39,3.32-.39,4.02.07.15.09.35.16.45.24.32.19-.56,1.09-2.5,1.63-5.78,1.44-12.14.98-18.14-.27-4.48-.93-8.85-2.29-13.13-3.79v-.06Z"/><path class="cls-1" d="m191.95,258.39c-.76-2.21-1.42-4.45-2.07-6.68-.22-.82-.5-1.63-.71-2.45-.69-2.92-1.3-5.86-1.67-8.85-.15-1.32-.31-2.65-.44-3.97-.05-.85-.15-1.7-.16-2.55.03-.43.04-.86.13-1.28.1-.42.2-.84.3-1.27.16-.52.14-.45.34,0,.1.22.25.54.45.92.09.19.22.39.3.6.06.21.11.44.14.67.16.83.22,1.66.32,2.49.06.83.26,1.65.36,2.48.1.83.27,1.65.4,2.49.11.84.21,1.68.35,2.52.28,2.02.93,4.05,1.51,6.06.61,2.21,1.33,4.41,2.07,6.59.48,1.34.95,2.68,1.46,4l1.19,3.01.66,1.57c.17.67.75,1.49,0,1.89-.17.2-.44.35-.69.51l-.63.4-1.03.69c-.67.47-1.3.99-1.91,1.5-.27.23-.52.45-.8.67-.49.39-.81.63-1.09.72-.3.08-.55.03-.89-.07-.15-.05-.33-.07-.47-.12-.24-.09-.36-.3-.33-.66.04-.37.23-.83.61-1.24.57-.6,1.14-1.17,1.8-1.6.64-.46,1.34-.82,1.99-1.25l.99-.61.24-.15s0,0,.01-.02c0,0,0-.01,0-.01,0,0-.01-.01-.01-.01h0s-.19-.43-.19-.43c-.94-2.13-1.81-4.33-2.61-6.54l.05-.02Z"/><path class="cls-1" d="m194.87,168.4c.7.99,1.41,1.96,2.18,2.88.28.33.6.64.87.99.97,1.22,2.01,2.4,3.13,3.51.5.48,1.02.96,1.53,1.42.67.59,1.35,1.17,1.96,1.84.19.21.07.3-.23.3-.29,0-.79-.08-1.25-.33-.8-.47-1.6-.95-2.36-1.49-.71-.59-1.4-1.23-2.03-1.92-.76-.83-1.67-1.56-2.47-2.39-.86-.92-1.64-1.94-2.39-2.93-.46-.62-.91-1.25-1.36-1.9-.67-.97-1.25-2.04-1.75-3.12-.39-.84-.83-1.64-1.11-2.51-.06-.19-.13-.38-.17-.57-.09-.36-.09-.61-.01-.81.06-.19.16-.31.31-.43.07-.05.12-.11.18-.15.19-.12.5.12.86.56.86,1.37,1.39,2.79,2.21,4.08.59.96,1.21,1.96,1.94,2.92l-.04.03Z"/><path class="cls-1" d="m209.63,225.14c-.49.2-1.1.32-1.69.31-.6,0-1.19-.22-1.62-.42-.27-.14-.57-.22-.84-.37-.96-.51-1.91-1.05-2.86-1.6-.43-.23-.84-.5-1.25-.75-.55-.28-.99-.78-1.39-1.26-.12-.16-.07-.19.13-.2.2,0,.59-.08.96-.05.68.02,1.2.29,1.78.46.54.24,1.05.57,1.57.89.62.4,1.37.59,2.07.88l.58.24c.16.05.29.13.44.15.28.09.56.08.88.02.38-.08.8-.26,1.21-.52.62-.38,1.26-.84,1.84-1.35.45-.4.83-.89,1.26-1.33.09-.1.17-.21.28-.3.39-.32.63-.26,1.02.11.09.09.18.17.26.26.27.31.31.71.12,1.04-.6.92-1.4,1.61-2.3,2.34-.68.52-1.4,1.07-2.41,1.5l-.02-.05Z"/><path class="cls-1" d="m227.99,173.37c.2-.73.33-1.84.49-2.82.16-1.01.34-2.04.59-3.06.18-.75.34-1.51.59-2.23.22-.64.48-1.27.75-1.89l.24-.52.36-.72c.25-.46.51-.91.79-1.27.55-.76,1.09-1.21,1.65-1.45.28-.1.62-.2.99-.03l.13.06s.03.04.05.06l.06.15c.04.1.1.22.15.32.05.13.15.27.22.41,0,.71-.02,1.43-.05,2.16-.04.66-.07,1.32-.11,1.97-.08,1.48-.25,3.06-1.25,4.36-.3.4-.36.28-.47-.16-.05-.22-.15-.53-.28-.89-.06-.18-.14-.37-.19-.56-.03-.19-.05-.38-.05-.59-.05-.85.08-1.68.13-2.53v-.16s.01-.01.02-.02v-.02s.02-.01.03-.03c.02-.03.03-.05.06-.13,0-.04.12-.26.05-.37-.05-.09-.11-.13-.2-.11-.07.01-.15.09-.22.2-.04.05-.07.11-.11.18-.02.04-.02.04-.06.12l-.13.3c-.34.81-.62,1.66-.88,2.51-.56,1.85-.81,3.81-1.09,5.85-.04.29-.09.59-.15.9-.07.32-.1.61-.31,1.04-.35.65-.72,1.2-1.1,1.77-1.09,1.6-2.31,3.09-3.6,4.52-1,1.1-1.99,2.23-3.26,3.11-.28.19-.55.39-.87.53-1.2.5-1.7.35-2.03.13-.08-.06-.17-.1-.22-.16-.17-.19.23-.55.84-1.12.46-.4.88-.86,1.34-1.24l.66-.64c.21-.23.43-.45.66-.66.89-.87,1.76-1.82,2.59-2.83,1.13-1.36,2.27-2.91,3.11-4.35,0,0,0,0,0,0l.03-.11h.05Z"/><path class="cls-1" d="m242.84,156.62c.47-.75.97-1.56,1.39-1.93.42-.4.72-.47.98-.55.13-.03.24-.04.38-.04.07,0,.15,0,.29.06.09.06.14.13.21.2.06.07.14.13.19.22l.12.29.12.29c.03.11.04.25.05.38l.08.55c.03.18,0,.45,0,.67-.02.46,0,.9-.16,1.5-.11.5-.2.98-.33,1.47-.07.25-.15.49-.23.74l-.17.48c-.21.58-.45,1.16-.7,1.72-.5,1.13-1.07,2.22-1.71,3.27-.56.94-1.14,1.87-1.78,2.75l-.65.84c-.24.26-.51.5-.77.75-.54.47-1.16.89-1.9,1.03-.44.11-.38.05-.17-.3.24-.33.43-1.1.89-1.61.72-1.06,1.53-2.06,2.21-3.2.7-1.12,1.3-2.32,1.93-3.52.38-.72.68-1.49.93-2.28l.13-.43.05-.2.1-.42c.08-.33.17-.73.12-1.18.01-.17-.12-.1-.15-.05-.05.05-.1.11-.15.17-.1.12-.2.26-.31.41l-.43.62-.29.42-.47.74c-.94,1.49-1.95,2.95-2.97,4.39-.79,1.13-1.57,2.25-2.67,3.21-.24.21-.49.42-.78.6-.53.35-1.03.4-1.35.38-.33-.02-.53-.17-.66-.35-.06-.09-.12-.17-.14-.24-.04-.25.36-.42.81-.85.74-.61,1.44-1.52,2.09-2.48.69-.94,1.45-1.89,2.16-2.9l1.58-2.28.78-1.16,1.33-2.23.02.06Z"/><path class="cls-1" d="m244.68,167.82c.35-.69.65-1.42.93-2.16.1-.27.14-.55.24-.83.33-.96.61-1.94.85-2.94.1-.44.16-.9.2-1.35.01-.58.15-1.15.32-1.73.06-.18.2-.15.38.01.17.16.41.47.48.82.15.63.05,1.24,0,1.85-.08.61-.17,1.23-.39,1.82-.24.71-.34,1.48-.56,2.2-.23.8-.54,1.58-.85,2.35-.21.47-.41.94-.64,1.4-.33.7-.73,1.37-1.09,2.05-.29.52-.5,1.08-.78,1.62-.06.12-.1.25-.19.34-.16.19-.28.3-.42.34-.16.02-.3,0-.47-.07-.07-.03-.15-.05-.21-.08-.1-.05-.16-.15-.21-.29-.04-.14-.1-.35-.03-.51.28-1.03.88-1.85,1.35-2.79.37-.68.75-1.37,1.06-2.08h.04Z"/><path class="cls-1" d="m235.53,182.72l.52-.25.46-.21.91-.41c.62-.26,1.2-.59,1.8-.89,1.19-.62,2.33-1.3,3.43-2.05.42-.26.78-.58,1.16-.87.39-.29.76-.59,1.14-.9,1.33-1.06,2.59-2.22,3.63-3.54l.52-.7c.09-.15.21-.31.29-.49.2-.35.34-.79.38-1.26.02-.21-.02-.42-.09-.59-.13.12-.23.29-.35.45-.23.32-.47.65-.7.95-.15.19-.29.37-.44.54-.31.34-.74.72-1.16,1.03-.43.31-.88.62-1.4.81-.52.18-1.08.29-1.63.26-.69-.08-.54-.18-.06-.43.24-.14.54-.37.84-.69l.45-.53c.18-.17.35-.33.53-.5.34-.3.65-.66.98-.99l.12-.13.19-.2.51-.58c.34-.4.68-.85,1.04-1.32l1.11-1.56c.38-.52.64-.61.83-.69.42-.21.54-.02.67.02.07.04.09.06.19.13l.02.02h0s.06-.11.03-.06h0s0,.01,0,.01l.03.03.06.07.13.13c.07.1.19.16.23.29.19.52.28,1.05.31,1.61.05,1.13-.55,2.69-1.37,4.2-.12.23-.28.45-.43.66l-.29.4c-.18.28-.41.52-.61.78-.4.53-.85,1-1.28,1.5-.45.48-.92.94-1.39,1.4-.49.43-.97.88-1.49,1.28-2.27,1.75-4.75,3.16-7.31,4.34l-1.19.54c-.36.18-.72.34-1.07.53-.69.41-1.36.87-2.01,1.39-1.93,1.6-3.67,3.51-5.24,5.52-1.22,1.56-2.28,3.2-3.43,4.82-.25.36-.49.72-.77,1.05-.53.63-.91,1.02-1.24,1.24-.35.21-.61.27-.88.26-.12,0-.26.02-.36,0-.16-.04-.18-.23-.1-.54.08-.32.25-.76.56-1.26.87-1.53,1.91-2.99,2.97-4.51,1.07-1.5,2.22-3,3.46-4.46,1.87-2.13,3.91-4.27,6.71-5.71l.03.04Z"/><path class="cls-1" d="m248.82,165.07c.1-.36.19-.73.26-1.1.03-.14.02-.27.05-.41.08-.48.17-.97.26-1.46.04-.22.04-.44.05-.66,0-.28,0-.56.05-.84.02-.18.31.03.4.36.11.57.24,1.15.19,1.74-.06.35-.03.72-.06,1.08-.03.4-.09.79-.16,1.18-.05.24-.09.48-.14.72-.07.36-.17.72-.26,1.08-.07.28-.09.57-.15.85-.01.06-.02.13-.04.19-.08.23-.17.27-.42.23-.06-.01-.11-.02-.17-.03-.18-.05-.3-.2-.31-.37-.02-.51.05-.99.14-1.48.09-.35.2-.71.28-1.08h.02Z"/><path class="cls-1" d="m164.12,355.43c-.31-5.81-.34-11.63-.5-17.37-.04-1.04-.08-2.09-.16-3.13-.09-1.04-.17-2.08-.22-3.13-.46-7.36-1.5-14.69-2.66-22.03-.5-3.26-1.08-6.54-1.55-9.8l-.42-3.16c-.08-1.07-.24-2.12-.25-3.2-.05-2.14.02-4.33.76-6.4.35-1.29.35-1.1.55.04.1.57.34,1.37.61,2.31.13.47.3.97.39,1.5.07.53.18,1.09.23,1.68.6,8.31,2.54,16.74,3.44,25.4.59,5.17,1.38,10.55,1.65,15.89.26,5.9.11,11.7.28,17.51.07,3.58.24,7.15.51,10.71.42,5.39,1.14,10.78,2.43,15.98,1,4.04,2.35,7.9,4.06,11.61.34.83.78,1.6,1.17,2.42.36.76.66,1.39.91,1.91.27.52.47.94.61,1.31.14.36.23.67.28.93.02.28,0,.53-.02.75-.02.21,0,.45-.03.58-.02.4-1.28-.48-2.57-2.68-1.89-3.26-3.48-6.81-4.75-10.53-1.23-3.73-2.16-7.61-2.86-11.52-.99-5.82-1.61-11.7-1.94-17.57h.06Z"/><path class="cls-1" d="m155.41,403.8c-1.43.07-2.86.07-4.29.11-1.43-.02-2.86,0-4.28-.05-1.04-.04-2.08-.01-3.12-.05-3.66-.23-7.3-.59-10.92-1.11-1.61-.23-3.22-.45-4.81-.68-1.02-.18-2.05-.27-3.06-.53-.5-.14-1.01-.26-1.49-.44-.48-.19-.97-.38-1.46-.58-.6-.25-.51-.27.07-.35.29-.04.7-.12,1.19-.21.24-.04.51-.11.79-.13.27-.01.56,0,.85.01.52.06,1.05.03,1.56.12l1.54.23c1.02.17,2.05.28,3.08.43,1.03.15,2.06.28,3.09.4,1.03.13,2.07.3,3.11.41,2.49.33,5.11.34,7.67.38,1.41.02,2.82.05,4.23.02,1.41,0,2.82-.05,4.23-.12,1.74-.06,3.47-.22,5.2-.38,2.61-.3,5.24-.61,7.77-1.23.49-.12.98-.25,1.47-.37.48-.15.95-.31,1.42-.47l1.41-.48,1.38-.55c.41-.16.79-.34,1.21-.48.75-.3,1.24-.49,1.64-.5.41.02.71.15,1,.37.13.1.28.18.38.27.16.16.12.38-.08.71-.19.32-.56.71-1.13,1-3.31,1.8-7.16,2.77-11.01,3.4l-2.15.33-2.16.23c-1.44.18-2.89.23-4.33.35v-.06Z"/><path class="cls-1" d="m138.62,427.49c4.25.82,8.51,1.6,12.78,2.35l4.68.74c5.49.96,10.98,1.96,16.47,2.99,2.44.43,4.9.86,7.32,1.28,3.1.6,6.28,1.12,9.18,2.68.88.58.67.55-.15.4-.42-.05-1.02-.08-1.75-.08-.37,0-.76,0-1.17,0-.21,0-.42-.01-.64,0-.21-.03-.43-.06-.65-.1-1.57-.25-3.15-.45-4.74-.68l-4.74-.81c-3.17-.53-6.35-1.08-9.54-1.7-3.81-.77-7.82-1.26-11.74-1.91-4.31-.71-8.62-1.45-12.93-2.23-2.65-.49-5.3-.98-7.94-1.47-4.01-.76-8.02-1.61-11.99-2.47-3.08-.68-6.13-1.24-9.18-2.11-.67-.21-1.34-.35-2.01-.61-2.48-.93-3.12-1.76-3.25-2.57-.04-.18-.11-.36-.11-.49,0-.22.27-.25.78-.23.26,0,.53.07.87.14.35.06.74.17,1.16.3,2.53.79,5.24,1.49,8.01,2.13,2.78.65,5.61,1.29,8.47,1.87,4.24.88,8.53,1.73,12.83,2.51v.06Z"/><path class="cls-1" d="m108.3,435.73c-.05,1.63-.13,3.26-.22,4.88-.04.59,0,1.19-.05,1.78-.16,2.09-.4,4.17-.62,6.24-.1.92-.15,1.85-.19,2.76-.03,1.18-.18,2.35-.58,3.5-.12.36-.36.29-.65-.05-.27-.33-.72-.94-.8-1.62-.13-1.21,0-2.39.1-3.58.11-1.19.25-2.37.43-3.56.22-1.43.15-2.92.2-4.39.05-1.61.1-3.23.11-4.84v-2.99c-.02-1.51-.02-3.03-.15-4.52-.09-1.16-.33-2.29-.51-3.43-.04-.25-.11-.5-.1-.75-.01-.95.21-1.27.67-1.51.1-.05.2-.12.3-.16.17-.06.32,0,.5.16.17.16.38.42.5.76.47,1,.56,2.06.73,3.14.14,1.07.22,2.17.28,3.27.08,1.63.12,3.28.1,4.92h-.06Z"/><path class="cls-1" d="m188.43,459.53l.3-4.85c.03-.59.01-1.18.06-1.77.18-2.07.35-4.15.41-6.23.04-.92-.03-1.85-.02-2.76l-.06-1.76c0-.59.08-1.18.15-1.78.05-.37.22-.34.48-.05.25.29.68.84.91,1.51.2,1.21.43,2.42.43,3.64.01,1.22-.03,2.44-.14,3.67-.13,1.46-.05,2.98-.1,4.48-.08,1.64-.23,3.28-.35,4.91l-.23,3.02c-.1,1.52-.23,3.05-.26,4.56-.02,1.17.06,2.33.11,3.49.01.26.04.51,0,.76-.09.95-.3,1.25-.61,1.46-.07.05-.14.11-.2.14-.1.05-.2-.03-.31-.2-.11-.17-.26-.45-.34-.8-.36-1.05-.33-2.12-.41-3.21-.04-1.09-.04-2.19-.02-3.3.03-1.64.11-3.28.17-4.92h.05Z"/><path class="cls-1" d="m216.93,426.39l-6.18,3.15c-.75.38-1.49.8-2.25,1.17-2.68,1.3-5.41,2.51-8.19,3.62-1.22.51-2.47,1-3.69,1.49-1.6.56-3.23,1.16-4.97,1.17-.54.03-.49-.15-.12-.52.19-.18.45-.42.77-.68.16-.13.33-.28.52-.39.19-.11.4-.18.62-.28,1.55-.65,3.1-1.25,4.69-1.81,1.57-.62,3.15-1.25,4.75-1.88,1.91-.76,3.78-1.81,5.65-2.76,2.06-1.05,4.12-2.12,6.17-3.21l3.78-2.02c1.91-1.02,3.83-2.05,5.73-3.06,1.47-.8,2.86-1.69,4.34-2.47.32-.18.63-.36.96-.53,1.23-.63,1.77-.49,2.19-.24.1.06.21.11.28.18.12.11.07.28-.1.52-.17.23-.44.56-.86.83-2.51,1.5-5.2,2.99-7.93,4.48-2.02,1.12-4.08,2.21-6.13,3.31l-.03-.04Z"/><path class="cls-1" d="m222.61,414.8c-.75-.2-1.5-.41-2.24-.61-.27-.07-.56-.1-.83-.19-.96-.29-1.92-.64-2.83-1.07-.41-.17-.83-.35-1.24-.5-.52-.23-1.02-.54-1.45-.93-.13-.12-.05-.21.15-.29.2-.07.55-.17.86-.13.28.04.57.06.83.12.26.08.52.15.78.23.52.16,1.04.32,1.55.53.61.29,1.31.36,1.98.51.74.17,1.49.34,2.23.5.46.1.93.19,1.39.29.71.13,1.41.3,2.12.43.55.11,1.11.07,1.66.21.12.03.24.04.36.08.44.13.54.32.56.65,0,.07.01.15,0,.21,0,.2-.26.41-.6.47-1.03.2-2.02.1-3.03-.02-.75-.11-1.49-.32-2.25-.48v-.04Z"/><path class="cls-1" d="m232.38,449.5c-.05.43-.07.88-.2,1.24v.02s0,0,0,0c-.05-.02.07.04.05.03h0s-.03.03-.03.03l-.05.05-.11.11-.22.22c-.14.15-.31.29-.49.42-.17.11-.43.26-.53.32l-.32.18-.64.36-2.54,1.41-5.08,2.77c-1.24.66-2.46,1.37-3.71,2.02-4.41,2.27-8.85,4.48-13.32,6.65-1.98.96-3.94,1.98-5.94,2.89-1.26.61-2.55,1.19-3.85,1.75-.65.27-1.35.46-2.02.67-.34.1-.67.22-1.03.29-.35.07-.72.09-1.07.15-.89.08-.75.12-.11-.3.32-.21.74-.6,1.27-.94.52-.39,1.14-.82,1.83-1.21,2.52-1.3,5.04-2.59,7.57-3.89,2.55-1.26,5.11-2.53,7.69-3.81,3.09-1.51,6.17-3.34,9.24-5.06,3.37-1.89,6.79-3.72,10.14-5.64l.71-.41c.12-.07.25-.14.36-.22.02-.14,0-.28,0-.42l-.05-.82-.22-3.59c-.2-3.63-.24-7.28-.16-10.9.04-2.81.16-5.58.57-8.37.08-.61.15-1.22.3-1.83.13-.57.24-1.04.36-1.43.13-.39.3-.68.43-.92.14-.24.27-.42.41-.56.16-.13.32-.23.46-.31.13-.07.26-.18.35-.22.22-.15.52.93.25,2.5-.69,4.75-.71,9.83-.73,14.96,0,1.9.08,3.82.16,5.74l.16,2.88.1,1.45.05.73.03.37.02.29-.03.33h-.06Z"/><path class="cls-1" d="m293.24,404.13c.05-4.83.54-9.52.95-14.18.42-4.66.79-9.29.9-13.91.1-4.62-.05-9.23-.68-13.76-.63-4.53-1.72-8.99-3.37-13.23-.31-.77-.6-1.55-.94-2.31l-1.07-2.25c-.34-.76-.79-1.46-1.19-2.19-.41-.72-.81-1.48-1.24-2.06-1.76-2.47-4.5-4.44-7.22-6.45-4.86-3.49-9.94-7.33-13.65-12.41-3.77-5.02-6.18-10.94-7.46-16.96-1.27-6.04-1.66-12.19-1.47-18.28.05-1.51.14-3.08.16-4.53l.05-2.21c.03-.74-.06-1.47-.09-2.2-.02-1.47-.28-2.91-.48-4.36-.12-.72-.33-1.41-.48-2.12-.14-.72-.39-1.39-.63-2.08-1.58-4.93-5.12-8.93-9.33-12.01-4.2-3.13-9.02-5.56-13.34-8.85-2.78-2.1-5.36-4.6-7.32-7.58-1.98-2.96-3.28-6.34-4.03-9.77-1.48-6.92-.97-13.97.29-20.7.92-4.19,1.06-3.55,1.08.07-.02,1.81.02,4.37.1,7.41.14,3.04.25,6.57.85,10.28.56,3.28,1.54,6.43,3.07,9.27,1.53,2.85,3.65,5.33,6.17,7.46,5.04,4.3,11.54,7.15,17.16,11.93,2.79,2.39,5.23,5.38,6.85,8.78,1.64,3.39,2.46,7.07,2.81,10.7l.15,2.73c.06.91-.02,1.81-.02,2.71-.03,1.84-.12,3.51-.19,5.25-.06,3.44-.06,6.9.29,10.31.38,4.09,1.11,8.18,2.43,12.1,1.33,3.91,3.19,7.66,5.71,10.95,2.5,3.31,5.61,6.15,9,8.69,1.69,1.28,3.45,2.51,5.21,3.8,1.75,1.29,3.53,2.64,5.11,4.32.88.89,1.67,1.97,2.34,3.05.58,1.06,1.19,2.11,1.75,3.18.51,1.1,1.05,2.18,1.54,3.29.44,1.13.92,2.24,1.32,3.38,1.62,4.56,2.65,9.3,3.2,14.08.56,4.77.66,9.57.5,14.34-.17,4.76-.59,9.49-1,14.2-.47,5.77-1.09,11.57-.55,17.2.28,2.8.9,5.56,2.25,7.9,1.32,2.35,3.4,4.21,5.84,5.38,1.85.86,3.88,1.25,5.9,1.05,2.02-.18,4-.91,5.83-1.93,3.68-2.06,6.77-5.2,9.45-8.58,1.33-1.7,2.67-3.52,4.14-5.2.74-.84,1.49-1.68,2.34-2.46.43-.39.88-.78,1.46-1.12.55-.3,1.11-.54,1.71-.72,1.19-.34,2.49-.4,3.71-.09,1.21.31,2.35.91,3.26,1.73.91.83,1.66,1.79,2.15,2.93.56,1.13.71,2.36.78,3.54.06,1.85-.31,3.6-.76,5.29-.45,1.69-1.04,3.31-1.68,4.9-1.27,3.18-2.73,6.22-4.15,9.25-1.44,3.02-2.84,6.04-3.99,9.1-.55,1.53-1.05,3.08-1.36,4.63-.29,1.54-.41,3.09-.13,4.48.24,1.22.82,2.25,1.7,3.05l.72.55c.24.18.57.31.8.45l.18.09.2-.02c.27-.03.62,0,.92-.1,2.3-.38,3.86-1.8,5.03-3.08,1.16-1.32,1.93-2.6,2.58-3.65,1.28-2.12,2.04-3.4,2.87-4.33.37-.43.81-1.02,1.09-1.24.47-.37.4.52-.17,2.47-.3.98-.72,2.22-1.36,3.68-.66,1.45-1.51,3.15-2.89,4.88-1.02,1.27-2.32,2.45-3.9,3.27-.79.4-1.64.73-2.52.9-.22.05-.44.1-.66.14l-.67.05-.93.06h-.25c-.08,0-.15-.06-.23-.09l-.44-.23-.68-.35c-.2-.11-.4-.2-.59-.32l-1.11-.84c-.69-.64-1.34-1.37-1.8-2.22-.95-1.7-1.21-3.62-1.17-5.36.04-1.76.4-3.4.82-4.99.42-1.59.99-3.09,1.55-4.6,1.18-2.97,2.52-5.82,3.86-8.65,1.36-2.81,2.71-5.61,3.87-8.42.57-1.41,1.1-2.82,1.49-4.23.41-1.4.69-2.81.69-4.11.03-.34,0-.64-.04-.95l-.04-.46-.11-.42-.1-.42c-.04-.14-.11-.25-.16-.38-.11-.25-.2-.5-.38-.76-.63-1.02-1.53-1.81-2.53-2.19-1-.38-2.09-.39-3.14.04-.13.04-.26.12-.39.18l-.19.09-.12.08c-.19.13-.44.32-.69.55-.5.45-1.02.99-1.52,1.54-1.51,1.67-2.89,3.48-4.33,5.38-1.49,1.95-3.1,3.82-4.92,5.54-1.82,1.71-3.82,3.3-6.11,4.55-2.28,1.24-4.9,2.14-7.68,2.23-2.77.11-5.57-.7-7.87-2.08-2.32-1.34-4.37-3.3-5.74-5.64-1.39-2.33-2.14-4.89-2.56-7.38-.44-2.51-.5-4.98-.5-7.42l.08-.02Z"/><path class="cls-1" d="m399.57,475.65c-5.5,1.24-11.26,1.5-16.83.07-2.76-.72-5.46-1.88-7.81-3.56-2.36-1.68-4.36-3.83-5.9-6.24-2.22-3.54-3.63-7.49-4.37-11.48-.63-3.53-.88-7.1-.84-10.64.08-3.54.36-7.06.86-10.54l.37-2.61c.14-.87.31-1.73.46-2.59l.47-2.59c.15-.82.29-1.63.34-2.46.13-1.64.05-3.31-.38-4.81-.42-1.5-1.33-2.75-2.63-2.97-1.24-.26-2.54.14-3.58,1-1.06.85-1.91,2.08-2.63,3.36-1.44,2.6-2.42,5.51-3.33,8.4-1.16,3.73-2.1,7.56-3.27,11.36-.59,1.89-1.23,3.79-2.01,5.64-.8,1.83-1.65,3.72-3.13,5.22-.25.22-.45.4-.64.55-.2.13-.37.23-.5.31-.26.15-.38.2-.4.15-.02-.05.08-.19.24-.44.09-.13.19-.27.3-.43.1-.19.2-.4.32-.63.92-1.87,1.92-5.39,3.13-9.71,1.08-3.81,2.09-7.7,3.22-11.6.57-1.95,1.19-3.9,1.93-5.85.75-1.94,1.6-3.88,2.84-5.73.65-.91,1.36-1.83,2.35-2.59.45-.4,1.04-.71,1.6-1.02l.93-.34c.31-.11.65-.13.98-.2.33-.07.66-.07.99-.05.34.02.64,0,1,.08.69.12,1.41.37,2,.78,1.22.8,1.96,1.98,2.4,3.09.86,2.27.94,4.51.76,6.66-.08,1.07-.29,2.18-.48,3.16l-.56,2.95c-.85,4.72-1.39,9.59-1.42,14.48-.05,4.88.46,9.79,1.83,14.38.8,2.5,1.89,4.9,3.36,7.03,1.47,2.13,3.35,3.96,5.52,5.36,2.17,1.4,4.63,2.37,7.19,2.94,2.57.55,5.23.72,7.88.61,3.25-.17,6.56-.72,9.57-1.82,1.51-.57,2.96-1.32,4.37-2.13,1.38-.87,2.74-1.79,3.99-2.84,3.84-3.15,7.11-7.04,9.64-11.33,2.54-4.29,4.28-9.05,4.93-13.92.53-3.79.26-7.61-.69-11.22-.97-3.61-2.7-6.96-4.91-9.95l-.18-.25-.14-.13c-.07-.1-.18-.18-.3-.26-.1-.09-.23-.17-.37-.23-.13-.07-.26-.15-.42-.2-.59-.25-1.29-.38-2.02-.43-1.35-.1-2.54.08-3.5.29-.98.19-1.75.43-2.42.59-1.33.35-2.17.52-2.95.55-.35.02-.79.11-1.04.07-.42-.06-.18-.55.69-1.45.9-.84,2.47-2.16,5-2.83,1.86-.5,3.87-.69,5.96-.26,1.04.24,2.12.62,3.13,1.41.25.18.49.41.72.68.1.12.25.28.31.37l.2.29.79,1.16c2.09,3.11,3.65,6.67,4.5,10.43.86,3.75,1.03,7.69.49,11.51-.22,1.92-.69,3.8-1.2,5.66-.58,1.83-1.22,3.66-2.04,5.39-2.38,5.18-5.74,9.88-9.86,13.82-2.06,1.97-4.32,3.75-6.78,5.24-2.44,1.5-5.2,2.66-8.02,3.34l-.03-.06Z"/><path class="cls-1" d="m386.75,409.87c.49,1.9.47,3.65.45,5.33l-.19,4.92c-.03,1.17.05,2.32.12,3.45.06,1,.18,1.98.4,2.91.12.47.24.92.41,1.38l.55,1.42c.78,1.86,1.76,3.64,3.07,5.13,1.16,1.32,2.66,2.28,4.28,2.9,1.04.39,2.14.64,3.27.78.28.05.56.08.85.11.28.06.56.13.85.18.58.1,1.15.22,1.74.36.73.19.64.37,0,.74-.32.18-.77.47-1.34.66-.28.1-.59.21-.93.28-.17.03-.34.07-.52.1-.17,0-.35,0-.54-.01-1.3-.12-2.61-.35-3.91-.76-1.3-.42-2.53-1.09-3.63-1.92-1.11-.83-2.01-1.85-2.83-2.91-.76-1.09-1.43-2.23-1.94-3.42-.32-.71-.63-1.41-.9-2.14-.29-.7-.6-1.48-.81-2.27-.43-1.57-.63-3.16-.69-4.71-.14-3.4.27-6.72.02-9.84-.16-1.9-.68-3.72-2.14-4.55-2.36-1.52-5.46-1.65-8.31-1.08-2.25.47-4.31,1.46-6.36,2.44-.45.22-.9.44-1.35.66-.43.2-.79.36-1.09.49-.31.12-.59.16-.82.2-.46.08-.77.05-1.07-.06-.14-.05-.3-.07-.39-.13-.31-.17.18-.88,1.28-1.88.87-.64,1.79-1.26,2.75-1.84.96-.58,2.01-1.03,3.09-1.45,2.16-.81,4.5-1.44,7.03-1.46,1.86-.02,3.82.34,5.6,1.2.44.24.86.47,1.29.73.48.33.93.71,1.29,1.16.75.89,1.2,1.9,1.46,2.85l-.06.02Z"/><path class="cls-1" d="m314.95,308.76c-2.88-5-4.97-10.46-6.11-16.12-1.17-5.66-1.24-11.5-.69-17.15.38-4.13.96-8.15,1.09-12.11.17-3.49-.17-6.96-.89-10.37-.7-3.35-2.08-6.66-3.59-9.84-1.56-3.16-3.29-6.29-5.63-8.82-2.35-2.6-5.13-4.81-8.02-6.9-2.56-1.86-5.25-3.59-7.87-5.47-2.62-1.87-5.19-3.9-7.34-6.38-1.37-1.59-2.56-3.4-3.39-5.38-.84-1.97-1.27-4.11-1.35-6.23-.16-4.25.83-8.4,2.37-12.21,1.14-2.32,1.14-1.92.89.26-.22,2.17-1.01,6.04-.98,10.44,0,3.9,1.17,7.62,3.55,10.67,2.35,3.07,5.6,5.53,8.97,7.88,3.37,2.36,6.91,4.65,10.22,7.36,1.65,1.36,3.24,2.83,4.69,4.44,1.51,1.61,2.72,3.47,3.8,5.31,1.31,2.21,2.47,4.51,3.53,6.88,1.03,2.38,2.02,4.83,2.62,7.45,1.32,5.14,1.35,10.6.8,15.74-.28,2.84-.65,5.61-.87,8.38-.22,2.77-.29,5.53-.15,8.28.28,5.5,1.48,10.95,3.54,16.07,1.26,3.16,2.84,6.19,4.7,9.05.92,1.44,1.93,2.81,2.98,4.15,1.07,1.29,2.2,2.54,3.47,3.68,3.77,3.51,8.26,6.32,12.27,9.86,2,1.77,3.87,3.75,5.35,6.02,1.47,2.27,2.57,4.8,3.19,7.42.95,4.09.89,8.25.66,12.26-.22,4.03-.71,7.98-.63,11.87.04,1.71.2,3.36.53,5.02.62,3.07,1.58,4.89,2.21,6.19.32.65.57,1.17.79,1.62.19.46.32.86.45,1.21.11.32.31.72.36.93.08.36-.37.09-1.39-.66-.99-.78-2.34-2.28-3.47-4.61-1.67-3.46-2.19-7.39-2.22-11.16-.05-3.79.34-7.52.61-11.17.25-3.65.3-7.27-.43-10.68-.7-3.43-2.33-6.54-4.61-9.24-3.42-4.04-8.23-6.97-12.73-10.59-2.26-1.81-4.46-3.8-6.35-6.13-1.85-2.27-3.5-4.67-4.97-7.19l.05-.05Z"/><path class="cls-1" d="m272.65,166.15c.04-.3.25-.56.49-.84.07-.06.14-.12.21-.17.03-.03.08-.04.09-.09l.11-.05c.15-.06.3-.09.42-.15.49-.09,1.09-.02,1.77.22.34.15.68.27,1.01.45l.5.25.4.22c.44.25.91.46,1.33.73,1.48.99,2.9,2.02,4.21,3.21.6.51,1.2,1.03,1.79,1.54.38.34.7.74,1,1.18.28.45.56.95.55,1.61-.09.44-.24.24-.46.04-.24-.21-.7-.33-1.11-.6-.36-.26-.78-.47-1.17-.72-.35-.29-.73-.57-1.1-.86-.75-.58-1.54-1.13-2.26-1.8-.88-.79-1.98-1.33-3.01-1.93l-.71-.41-.16-.09-.07-.04-.14-.09c-.19-.12-.42-.25-.68-.34-.1-.03-.21-.07-.31-.02-.2.08-.18.31-.13.47.05.17.14.35.25.52.08.13.17.27.27.4.13.17.36.46.55.67.4.46.83.9,1.29,1.31.71.63,1.51,1.12,2.3,1.58.18.1.36.17.52.28.3.2.49.33.58.5.08.2.1.38.09.61,0,.1.01.21,0,.3-.01.15-.11.25-.32.34-.21.08-.53.15-.84.03-.96-.26-1.74-.79-2.5-1.35-.75-.57-1.45-1.22-2.11-1.92-.24-.26-.48-.53-.71-.81l-.41-.51c-.21-.27-.38-.54-.57-.8l-.56-.8-.27-.41c-.09-.14-.09-.26-.14-.38-.15-.5-.19-.94-.06-1.31l.05.03Z"/><path class="cls-1" d="m275.67,180.69c-.62-.46-1.23-.93-1.84-1.41-.22-.17-.47-.31-.68-.5-.76-.64-1.48-1.34-2.17-2.05-.3-.32-.62-.64-.93-.94-.19-.21-.43-.38-.56-.64-.15-.25-.26-.52-.37-.79-.06-.17.05-.23.29-.24.23,0,.63,0,.93.13.29.09.49.27.68.46.2.17.41.35.6.53.42.34.76.76,1.13,1.18.43.51,1.03.86,1.57,1.28.59.45,1.19.91,1.8,1.34.38.27.76.54,1.15.79.59.38,1.18.77,1.8,1.09.49.24,1,.41,1.5.63.11.05.22.08.33.14.39.2.47.37.37.76-.02.09-.04.18-.07.27-.1.28-.38.42-.72.36-.5-.09-1-.22-1.48-.39-.48-.19-.92-.45-1.38-.7-.67-.39-1.31-.82-1.95-1.25l.02-.03Z"/><path class="cls-1" d="m252.71,190.22c-1.23.05-2.46.18-3.67.38-.45.06-.86.25-1.3.33-1.55.31-3.06.77-4.52,1.41-.63.31-1.26.65-1.78,1.1-.76.48-1.38,1.11-2.19,1.58-.25.14-.45-.07-.51-.47-.06-.39,0-1.01.35-1.49.63-.81,1.39-1.54,2.27-2.06.44-.26.88-.52,1.34-.75.47-.2.94-.38,1.43-.54,1.17-.32,2.3-.85,3.48-1.15,1.3-.34,2.62-.54,3.93-.7.81-.09,1.62-.16,2.43-.21,1.22-.08,2.45-.1,3.66-.15.94-.05,1.86-.23,2.79-.28.21-.02.4,0,.61.01.76.1.97.29,1.14.8.04.12.08.23.11.34.07.37-.24.7-.81.92-1.66.74-3.32.69-5,.81-1.24.04-2.49.05-3.72.17v-.06Z"/><g class="cls-4"><path class="cls-1" d="m250.49,206.02c-.66.12-1.34.22-2.01.36-.24.06-.47.16-.71.21-.86.19-1.72.41-2.55.71-.37.13-.71.33-1.07.48-.45.22-.88.46-1.38.6-.16.04-.25-.13-.25-.38,0-.25.07-.62.29-.84.41-.36.81-.76,1.29-.99.48-.24.99-.43,1.51-.57.63-.16,1.21-.5,1.83-.71.68-.23,1.37-.45,2.08-.59.43-.09.87-.19,1.3-.28.66-.13,1.32-.23,1.97-.38.5-.12.98-.3,1.49-.43.11-.03.22-.07.33-.09.42-.06.57.05.7.51.03.1.07.21.09.31.07.35-.06.67-.34.82-.82.45-1.67.78-2.56.92-.66.13-1.33.24-2,.38v-.05Z"/></g><path class="cls-1" d="m293.09,263.23c-1.06.27-2.12.58-3.18.93-.39.13-.75.31-1.14.44-1.37.45-2.77.84-4.16,1.29-.62.2-1.24.39-1.85.59-.79.25-1.6.49-2.46.49-.27,0-.24-.17-.06-.38.19-.21.51-.5.93-.67,1.49-.6,2.93-1.4,4.54-1.89.95-.31,1.87-.83,2.83-1.2,1.06-.42,2.13-.8,3.22-1.16.67-.22,1.35-.42,2.04-.61,1.04-.29,2.11-.49,3.2-.66.84-.12,1.71-.3,2.66-.17.21.02.42.06.63.11.78.27.93.6.75,1.12-.04.12-.08.24-.14.35-.21.37-.6.51-.97.48-.56-.05-1.12,0-1.73.05-.61.04-1.28.1-1.96.22-1.02.17-2.08.41-3.13.72l-.02-.05Z"/><g class="cls-5"><path class="cls-1" d="m294.39,273.8c-.7.03-1.43.12-2.15.24-.26.05-.51.16-.77.2-.93.18-1.9.28-2.85.47-.42.08-.83.22-1.23.35-.51.18-1.02.38-1.58.43-.18.01-.23-.2-.18-.48.05-.28.19-.64.47-.81.97-.57,1.96-1.1,3.06-1.36.65-.17,1.3-.46,1.96-.67.73-.22,1.49-.39,2.25-.55.47-.09.95-.17,1.43-.22.73-.09,1.47-.11,2.2-.15.57-.02,1.14-.15,1.72-.08.13.01.25,0,.38.03.46.12.58.29.58.75,0,.11,0,.21,0,.31-.03.34-.27.6-.58.71-.47.15-.93.34-1.36.45-.44.08-.86.19-1.31.21-.66.06-1.33.13-2.03.23v-.06Z"/></g><path class="cls-1" d="m291.47,284.94c-.27-.07-.55-.14-.82-.18-.1-.02-.2,0-.3-.01-.36-.07-.72-.15-1.08-.18-.16-.02-.31,0-.47.04-.2.04-.38.13-.6.03-.14-.06-.15-1.11.09-1.19.42-.12.84-.17,1.28-.07.26.07.52-.03.78-.04.29,0,.57,0,.86.01.18,0,.36.02.53.02.27,0,.54.04.8.02.21-.02.41-.13.62-.2.05-.01.09-.05.14-.05.18-.02.23.1.23.56v.31c0,.35-.09.64-.21.74-.35.29-.69.34-1.05.36-.27-.02-.54-.09-.81-.12v-.04Z"/><path class="cls-1" d="m323.39,359.76c-.74.26-1.5.58-2.26.9-.28.12-.54.28-.82.4-1.01.39-2.06.73-3.13,1-.48.1-.94.26-1.42.36-.31.06-.61.14-.93.17-.32.01-.64,0-.95-.07-.2-.04-.16-.37-.01-.72.15-.34.39-.72.69-.78,1.05-.28,2.1-.53,3.24-.83.69-.17,1.3-.59,1.96-.92.73-.37,1.47-.74,2.21-1.1.47-.22.94-.44,1.42-.64.73-.31,1.52-.53,2.32-.73.62-.14,1.25-.4,1.93-.38.15,0,.3-.04.44,0,.55.12.69.29.67.78,0,.11,0,.22-.02.33-.06.35-.33.62-.64.71-.93.33-1.68.47-2.59.77-.33.13-.67.23-1.02.38-.35.11-.72.25-1.08.41l-.02-.05Z"/><path class="cls-1" d="m398.86,456.72c-.18.63-.4,1.24-.65,1.84-.08.22-.12.45-.23.66-.36.75-.91,1.4-1.39,2.05-.23.28-.45.56-.66.84-.27.36-.55.72-.94.97-.12.08-.25-.05-.35-.27-.09-.22-.2-.55-.12-.78.28-.84.41-1.66.97-2.31.3-.41.37-.94.58-1.4.22-.52.42-1.04.58-1.59.1-.34.19-.67.27-1.02.11-.52.21-1.06.19-1.59-.02-.41-.11-.81-.18-1.21-.01-.09-.04-.17-.05-.26-.03-.33.08-.45.45-.59.08-.03.17-.07.25-.09.28-.08.55.02.72.27.47.74.85,1.62.8,2.51,0,.66-.06,1.32-.19,1.97h-.05Z"/><path class="cls-1" d="m112.47,89.84c1.53-.94,2.91-2.08,4.08-3.42,1.18-1.34,2.15-2.89,2.98-4.56,1.65-3.34,2.77-7.12,4.06-10.92.94-2.77,1.9-5.6,3.28-8.28,2.36-4.75,5.88-8.97,10.03-12.2,4.11-3.31,8.95-5.68,14.06-6.94l.85-.22.87-.14,1.73-.29c1.16-.17,2.34-.18,3.5-.27,1.17.06,2.35.05,3.51.18l1.73.26.87.13c.28.06.56.14.85.22l2.17.57,2.1.81c.35.14.71.26,1.04.42l.99.53c.65.36,1.34.68,1.97,1.09,1.22.87,2.5,1.66,3.53,2.75.54.52,1.09,1.02,1.6,1.55.47.58.85,1.23,1.28,1.83,1.01,1.55.76,1.39-.6.58-.36-.2-.77-.44-1.24-.7-.12-.06-.23-.14-.38-.19-.11-.08-.23-.16-.35-.24-.25-.16-.53-.3-.8-.47-.56-.32-1.14-.69-1.74-1.09-.29-.21-.62-.39-.95-.57-.32-.2-.64-.4-.97-.62-1.11-.85-2.4-1.36-3.6-2.04-1.3-.46-2.54-1.07-3.9-1.34l-1-.26c-.33-.1-.67-.17-1.01-.2l-2.04-.29c-.68-.07-1.38-.06-2.06-.09-.34,0-.69-.04-1.03-.03l-1.03.07c-.69.07-1.38.04-2.07.17l-2.06.34c-.69.12-1.35.34-2.03.5l-1.01.26-.99.36c-2.68.86-5.18,2.23-7.59,3.73-.7.49-1.41.97-2.11,1.47-.66.56-1.32,1.12-1.98,1.68-1.29,1.16-2.5,2.42-3.56,3.81-2.17,2.75-3.82,5.88-5.14,9.16-1.47,3.6-2.52,7.43-3.84,11.27-1.3,3.82-3.07,7.76-6,10.88-1.77,1.94-3.97,3.44-6.26,4.59-2.28,1.09-4.43,2.08-6.55,3.28-3.18,1.79-6.31,3.79-8.78,6.35-1.21,1.27-2.29,2.7-2.71,4.26-.21.78-.26,1.57-.12,2.33.11.77.53,1.48.97,2.24.65,1.17,1.59,2.14,2.56,3.02,1.06.78,2.18,1.5,3.45,1.9,2.48.88,5.21,1.07,7.82.6.57-.13,1.14-.23,1.7-.38.55-.18,1.11-.35,1.67-.53,2.03-.8,3.37-1.36,4.31-1.81.99-.37,1.56-.62,2.15-.68.26-.03.58-.12.77-.11.32.02.16.39-.4,1.1-.28.35-.64.81-1.18,1.26-.52.45-1.13,1-1.92,1.46-2.29,1.47-4.99,2.33-7.8,2.69-2.81.33-5.8.06-8.59-1.06-.71-.25-1.35-.66-2.04-.99-.65-.4-1.28-.84-1.89-1.3-.56-.53-1.18-1.01-1.67-1.6l-.73-.9-.36-.46-.3-.49c-.39-.68-.82-1.25-1.14-2.14-.19-.4-.27-.86-.39-1.3-.07-.45-.14-.91-.15-1.37-.04-1.85.56-3.57,1.36-4.97,1.2-2.08,2.8-3.66,4.44-5.04,1.65-1.38,3.39-2.57,5.16-3.66,1.78-1.08,3.59-2.07,5.43-2.98.92-.46,1.85-.9,2.76-1.32.85-.41,1.64-.82,2.41-1.3l.05.06Z"/><path class="cls-1" d="m164.72,98.96c.09.54.17,1.09.23,1.64l.07.84.02.43c.02.25.01.49,0,.74,0,.98-.2,1.89-.67,2.45-.22.28-.6.54-.96.6l-.56.02c-.18.02-.4-.09-.6-.13-.2-.04-.41-.13-.61-.23-.2-.1-.41-.16-.61-.31l-.59-.38c-.19-.13-.39-.32-.49-.39-.46-.4-.86-.83-1.23-1.26-.74-.86-1.36-1.73-1.98-2.58-.89-1.24-1.83-2.39-2.8-3.39-.85-.88-1.8-1.59-2.81-1.91-1.01-.32-2.13-.23-3.24.16-.91.31-1.68,1.16-2.03,2.21-.37,1.05-.37,2.27-.11,3.47.47,2.16,1.61,4.19,3.46,5.18,1.17.65,2.55.9,3.93.92,1.39.04,2.79-.13,4.28-.28,1.01.1.89.02.31.8-.29.4-.78.83-1.45,1.3-.67.43-1.55.76-2.55.87-1.77.12-3.65-.19-5.36-1.05-.86-.41-1.63-1.01-2.33-1.67-.66-.7-1.23-1.47-1.65-2.29-.43-.84-.74-1.63-.97-2.5-.23-.86-.38-1.77-.37-2.71-.02-1.85.6-3.91,2.15-5.29.45-.41.97-.76,1.56-1,.58-.23,1.05-.36,1.62-.47,1.09-.22,2.3-.21,3.42.13,2.26.7,3.82,2.31,5.07,3.84,1.38,1.71,2.51,3.51,3.82,4.99.17.18.33.36.5.52.15.16.4.36.44.4.17.13.35.26.56.34.1.03.23.11.32.03.09-.07.12-.19.14-.29.05-.22.05-.45.05-.69-.12-2.46-.7-5-1.39-7.45l-.42-1.4c-.08-.31-.05-.55-.08-.83.09-.24.26-.42.54-.56.26-.14.58-.25.89-.36l.77-.27,2.48-.91c1.65-.6,3.22-1.41,4.71-2.28,2.56-1.52,4.81-3.44,6.64-5.66.4-.49.75-1,1.12-1.51.68-.96,1.06-1.62,1.44-2.03.39-.4.71-.6,1.1-.71.17-.05.36-.14.5-.15.25-.02.35.23.33.74-.03.5-.19,1.26-.66,2.1-1.34,2.52-3.35,4.74-5.65,6.56-2.3,1.83-4.92,3.25-7.58,4.47-.99.51-2,1.02-3.06,1.38l-.78.28-.1.03s-.01,0-.01,0h0s0,0,0,0c-.01,0-.02,0-.02.01,0,.03-.02-.04.01.07l.22.76.41,1.54c.26,1.03.48,2.07.67,3.13l-.06.02Z"/><path class="cls-1" d="m131.97,183.1c-2.76,6.06-5.14,12.29-7.33,18.61-.8,2.31-1.48,4.65-2.22,6.97-2.61,8.2-4.88,16.51-7,24.88-.94,3.71-1.81,7.46-2.71,11.17-.58,2.38-1.16,4.77-1.86,7.14-.75,2.35-1.45,4.77-3.21,6.83-.67.57-1.12.62-1.13.53-.04-.11.26-.41.45-1.04.18-.63.41-1.47.62-2.53.2-1.06.47-2.29.89-3.6,1.4-4.69,2.5-9.56,3.69-14.4,1.18-4.85,2.41-9.71,3.78-14.56,1.64-5.8,3.17-11.89,5.01-17.79,2.02-6.48,4.31-12.89,6.95-19.16,1.61-3.86,3.38-7.66,5.28-11.39,2.88-5.65,6.18-11.13,9.85-16.26,2.86-3.98,5.85-7.78,9.29-11.25.77-.75,1.5-1.52,2.31-2.23,3.1-2.57,4.33-3.09,5.38-3.09.23-.01.5-.07.65-.06.47.01-.52,1.4-2.6,3.35-3.03,2.95-6.08,6.01-8.86,9.41-2.79,3.39-5.4,7.01-7.79,10.8-3.55,5.62-6.67,11.58-9.4,17.71l-.06-.02Z"/><path class="cls-1" d="m186.54,221.17c1.59.06,3.32-.28,5.01-.76,1.7-.49,3.38-1.15,5.02-1.9,3.3-1.51,6.47-3.36,9.5-5.43,2.22-1.5,4.32-3.17,6.36-4.89,1.8-1.52,3.55-3.1,5.15-4.81.8-.85,1.57-1.73,2.29-2.65.34-.46.71-.92,1.02-1.4.15-.24.33-.47.47-.72l.32-.54v-.65c0-.29,0-.58-.02-.87-.01-.58-.07-1.16-.12-1.74-.12-1.15-.31-2.3-.59-3.42-.57-2.23-1.5-4.39-2.91-6.18-.31-.4-.65-.77-1-1.13l-.34-.31c-.05-.08-.12-.03-.18-.02-.06.02-.12.03-.18.06l-.62.27-.7.35c-.47.23-.93.49-1.39.74-1.85,1.02-3.68,2.09-5.51,3.14-2.35,1.36-4.71,2.7-7.17,3.9-2.45,1.2-4.95,2.37-7.69,2.9-1.75.2-1.47.05-.14-.44.65-.3,1.55-.75,2.59-1.39,1.05-.6,2.29-1.3,3.64-2.04,2.4-1.31,4.76-2.73,7.16-4.08,2.4-1.37,4.76-2.78,7.24-4.12l.95-.49c.15-.08.34-.16.51-.24l.26-.12c.09-.04.25-.13.4-.17l.96-.26.24-.06.18.15.35.3.69.59.39.41c1.04,1.1,1.89,2.35,2.56,3.67,1.33,2.66,1.98,5.56,2.2,8.43.07.86.1,1.73.1,2.59v.49c0,.09.02.18-.01.27l-.13.23-.39.68c-.22.39-.48.75-.71,1.12-.99,1.46-2.1,2.81-3.27,4.11-2.35,2.58-4.92,4.95-7.62,7.1-2.97,2.37-6.1,4.52-9.39,6.44-3.29,1.9-6.75,3.59-10.49,4.65-1.16.3-2.34.57-3.57.66-1.22.12-2.53,0-3.66-.2-2.35-.38-4.64-1.02-6.84-1.84-6.7-2.54-12.59-6.68-17.99-11.1-4.2-3.45-8.15-7.03-11.95-10.81-.84-.83-1.67-1.63-2.49-2.49-2.96-3.26-3.79-4.32-3.99-5.46-.06-.24-.19-.52-.22-.68-.16-.5,1.74.21,4.06,2.47,1.79,1.6,3.49,3.3,5.23,4.99,1.74,1.69,3.51,3.37,5.32,5.03,3.62,3.31,7.41,6.52,11.45,9.33,3.01,2.07,6.13,3.98,9.43,5.45,1.65.73,3.33,1.38,5.06,1.85.86.27,1.73.43,2.6.63.85.12,1.81.32,2.54.34v.06Z"/><path class="cls-1" d="m137.16,461.84c4.24.84,8.5,1.61,12.77,2.34l4.69.71,16.5,2.8c2.44.42,4.91.78,7.34,1.17,3.11.56,6.3,1.01,9.22,2.55.89.58.67.54-.15.4-.42-.04-1.02-.07-1.74-.06-.37,0-.76,0-1.17,0-.21,0-.42,0-.64.01-.21-.03-.43-.06-.65-.09-1.57-.23-3.16-.4-4.75-.6l-4.76-.73c-3.18-.49-6.37-.99-9.57-1.57-3.82-.72-7.84-1.18-11.77-1.79-4.32-.68-8.64-1.41-12.94-2.19-2.65-.48-5.3-1-7.94-1.52-4-.8-8.01-1.72-11.95-2.71-3.06-.78-6.1-1.47-9.1-2.56-.66-.23-1.32-.46-1.97-.78-2.42-1.15-2.95-2.1-2.99-2.91-.01-.18-.07-.37-.05-.5.03-.21.3-.21.8-.13.26.03.53.12.84.25.33.1.71.24,1.11.41,2.4,1.02,5.04,1.88,7.76,2.65,2.72.77,5.52,1.49,8.36,2.13,4.21.97,8.48,1.86,12.76,2.66v.06Z"/><path class="cls-1" d="m171.39,158.41c.69.4,1.42.78,2.17,1.12.28.12.57.18.85.29.99.39,2.02.69,3.07.93.47.1.95.17,1.42.19.61.05,1.22.03,1.83.12.19.03.18.21.03.41-.15.2-.46.45-.83.5-1.31.13-2.67.21-3.94-.25-.76-.25-1.58-.35-2.35-.62-.85-.27-1.67-.63-2.46-1.05-.48-.28-.96-.55-1.41-.86-.69-.46-1.35-.97-1.96-1.53-.49-.41-.97-.83-1.42-1.28-.1-.1-.19-.2-.28-.32-.31-.43-.32-.63-.15-.88.04-.06.07-.12.12-.17.15-.16.43-.1.73.11.83.68,1.69,1.32,2.57,1.94.32.24.64.48.98.68.33.23.68.43,1.04.62l-.02.03Z"/><g class="cls-4"><path class="cls-1" d="m218.93,440.51l-2.76.98c-.33.13-.66.26-.99.4-1.18.42-2.38.85-3.56,1.27-.52.19-1.04.4-1.56.62-.66.27-1.31.57-2.01.73-.43.11-.15-.76.59-1.09,1.32-.57,2.65-1.14,4.03-1.62.83-.28,1.64-.7,2.46-1.06l2.73-1.14,1.69-.68c.86-.34,1.73-.64,2.57-.99.66-.26,1.27-.61,1.93-.87.14-.06.28-.13.43-.17.55-.18.76-.16.97.09.05.06.1.11.14.17.12.2-.04.46-.4.68-1.07.69-2.27,1.19-3.49,1.67-.9.36-1.82.72-2.74,1.05v-.03Z"/></g><path class="cls-1" d="m321.73,352.09c-.61.26-1.23.51-1.84.77-.22.1-.44.23-.68.31-.84.28-1.7.56-2.59.72-.39.08-.79.14-1.17.21-.25.03-.51.06-.76.08-.26,0-.51-.04-.76-.09-.16-.04-.12-.2,0-.38.13-.18.35-.41.59-.48.9-.23,1.66-.7,2.6-.88.56-.13,1.06-.48,1.58-.75.59-.29,1.2-.56,1.81-.85.38-.17.77-.35,1.15-.52.58-.27,1.2-.47,1.79-.73.47-.18.91-.45,1.41-.64.11-.05.21-.1.33-.12.43-.08.58.03.71.51.03.11.06.22.08.33.06.37-.07.7-.3.85-.69.44-1.4.65-2.17.97-.57.22-1.16.46-1.75.73l-.02-.04Z"/><path class="cls-1" d="m250.85,213.46c-.45.08-.91.19-1.38.34-.17.05-.32.16-.5.21-.61.2-1.29.29-1.94.48-.29.07-.56.2-.83.32-.35.15-.71.27-1.12.23-.13-.02-.2-.28-.21-.59,0-.31.04-.7.21-.84.15-.11.3-.25.45-.34.17-.07.33-.14.51-.21.34-.13.7-.23,1.09-.29.46-.08.86-.36,1.32-.5.5-.16,1.03-.3,1.57-.41.33-.07.66-.12.99-.17.5-.07,1.01-.08,1.51-.11.38-.04.76-.12,1.14-.16.08,0,.17-.02.25-.02.31.01.41.12.45.47,0,.08.02.16.02.24,0,.27-.13.49-.35.57-.64.25-1.25.39-1.85.53-.44.11-.89.15-1.33.28v-.04Z"/><path class="cls-1" d="m177.52,104.91c0,.95.25,1.95.6,2.83.49,1.24,1.22,2.42,2.39,3.13,1.24.74,2.87.8,4.14.09,1.17-.66,1.85-1.88,2.31-3.1.44-1.15.64-2.36.99-3.54.39-1.33-1.68-1.9-2.07-.57-.27.92-.44,1.86-.72,2.77-.07.24-.16.48-.25.72-.02.06-.04.11-.06.17-.06.15.07-.16,0-.01-.06.13-.12.27-.19.4-.11.22-.23.43-.37.63-.03.05-.06.09-.1.14.14-.19.03-.04-.01,0-.09.1-.18.2-.28.29-.04.04-.08.07-.12.11-.12.1.22-.12,0,0-.09.05-.18.11-.28.17-.05.03-.1.05-.15.07.21-.1.08-.03.03-.02-.14.04-.27.08-.41.11-.27.06.15,0-.03,0-.06,0-.12,0-.19,0-.14,0-.29,0-.43-.02.23.03-.11-.03-.17-.05-.08-.02-.46-.18-.24-.07-.1-.05-.21-.1-.3-.16-.06-.04-.12-.08-.18-.12-.03-.02-.17-.13-.06-.04.09.07-.17-.15-.21-.2-.1-.1-.19-.21-.29-.32-.03-.04-.12-.16,0,.01-.03-.05-.07-.09-.1-.14-.07-.11-.14-.22-.21-.33-.13-.22-.25-.45-.35-.69-.07-.16.09.24,0-.02-.02-.07-.05-.13-.07-.2-.05-.13-.09-.26-.13-.39-.08-.24-.14-.49-.2-.74-.02-.11-.05-.23-.07-.34,0-.05-.02-.11-.03-.16-.04-.19.01.21,0,.08,0-.17-.03-.34-.04-.51-.01-1.38-2.16-1.39-2.15,0h0Z"/><path class="cls-1" d="m195.54,105.6c-.19.51-.38,1.02-.57,1.53-.05.13-.1.26-.16.4-.09.24.04-.08-.05.12s-.19.42-.3.62-.21.38-.33.57c-.02.04-.25.35-.1.15-.06.07-.11.14-.18.21-.14.16-.3.31-.46.45-.1.08-.1.08,0,0-.05.04-.11.08-.16.11-.07.05-.14.09-.21.13s-.15.07-.22.11c.27-.13.03-.02-.04,0-.08.02-.16.03-.24.06-.2.07.24,0-.03,0-.08,0-.17,0-.25,0-.04,0-.33-.04-.15,0s-.12-.03-.15-.04c-.08-.02-.17-.06-.25-.08-.07-.03-.05-.02.08.03-.05-.02-.1-.05-.14-.07-.08-.05-.16-.1-.25-.15-.23-.14.06.08-.09-.07-.08-.07-.16-.14-.23-.22-.08-.08-.15-.16-.22-.25.13.15-.08-.12-.11-.16-.16-.24-.29-.49-.41-.75-.25-.53-1-.66-1.47-.39-.54.32-.63.94-.39,1.47.73,1.57,2.22,2.97,4.06,2.82,1.75-.14,3.08-1.46,3.84-2.96.51-.99.86-2.06,1.25-3.1.2-.53-.22-1.2-.75-1.32-.61-.14-1.11.19-1.32.75h0Z"/><path class="cls-1" d="m193.05,99.18c-.9,1.19-1.61,2.57-2.06,4.08-.18.54-.23,1.12-.35,1.69-.42,2-.46,4.11-.29,6.22.08.94.26,1.87.49,2.77.16.58.32,1.16.51,1.72l.13.43.07.45c.05.3.1.6.15.91.05.39-.12.41-.47.2-.18-.1-.41-.26-.67-.46-.23-.21-.6-.44-.7-.79-.98-2.39-1.71-4.98-1.55-7.64.08-1.58.02-3.22.35-4.83.35-1.76.97-3.48,1.91-5.03.3-.47.59-.95.96-1.37l.52-.65.59-.59c1.14-1.22,2.75-2.16,4.46-2.48,1.32-.27,2.69-.27,3.99.02.29.06.57.11.85.21.51.19.8.41.95.66.15.24.19.46.17.74-.01.13,0,.26-.03.36-.09.36-.61.48-1.34.48-2.01-.37-3.81-.59-5.39.16-.59.27-1.15.64-1.68,1.13l-.8.78-.7.87-.05-.03Z"/><path class="cls-1" d="m188.05,92.36c-.8-1.77-2.74-2.41-4.55-2.42-1.83,0-3.68.47-5.38,1.09-.57.21-.96.76-.79,1.38.15.55.81.99,1.38.79.72-.26,1.46-.49,2.21-.67.4-.1.8-.18,1.2-.24.04,0,.34-.05.14-.02.11-.01.22-.03.33-.04.2-.02.39-.03.59-.04s.39,0,.58,0c.09,0,.17,0,.26.01.03,0,.34.03.2.02-.15-.02.11.02.14.03.09.02.19.04.28.06.17.04.33.1.49.15.13.05-.16-.09.02.01.08.04.16.08.24.13s.15.1.22.15c-.12-.09-.07-.06.01.02.05.05.1.11.16.16.19.18-.09-.17.05.06.1.16.2.32.28.5.25.55,1.05.69,1.54.4.57-.33.65-.98.4-1.54h0Z"/><path class="cls-1" d="m186.92,125.88c-.47,1.02-1.05,1.68-1.69,1.94-.23.1-.49.24-.76.24-.47.02-1.01-.16-1.27-.55-.27-.34-.35-.75-.38-1.24,0-.23,0-.45.06-.69.03-.12.03-.23.05-.34.04-.12.07-.24.12-.35.07-.15.09-.3.16-.44.07-.13.19-.3.24-.39.12-.18.28-.34.47-.46.12-.07.26.08.38.3.11.22.26.5.23.68,0,.03-.01.1-.02.1-.01-.01.02,0,0,0h0s-.02,0-.04.03c-.04.04-.12.14-.2.41-.09.37.18.32.3.29.16-.01.28-.14.41-.32.08-.11.17-.25.21-.42.08-.24.06-.6-.19-.76-.04-.03-.12-.05-.12-.02,0,0-.01.02-.02.03h0s0,0,0,0h0s0,0,0,0l.03-.21h0s0,0,0,0h0s0,.02,0,.02v.03c0,.09.1.24.07.2-.01-.01-.05-.05-.11-.07-.11-.06-.19-.05-.2-.04h0s.02,0-.02,0c-.05.02-.11.05-.17.08-.11.06-.2.13-.3.2-.16.11-.32.19-.54.14-.21-.04-.5-.27-.52-.63-.06-.52.1-.98.39-1.33.28-.35.72-.66,1.35-.73.65-.04,1.12.2,1.37.36.3.19.56.44.75.75.29.45.45,1,.44,1.57,0,.57-.19,1.15-.42,1.66l-.05-.02Z"/><path class="cls-1" d="m247.25,69.19c-.16.21-.45.17-.8.01-.11-.05-.28-.31-.25-.39.06-.16.12-.32.19-.47.06-.07.99-1.2,1.32-1.56.31-.36.67-.66,1.03-.96l2.22-1.79c.17-.13.35-.24.54-.32.67-.29,1.28-.67,1.85-1.12.1-.07.21-.13.25-.27.08-.23,1.71-1.33,1.96-1.4.62-.19,1.21-.44,1.82-.65.09-.03.15-.11.28-.06.3.13.44,0,.62-.09.25-.11.5-.21.78-.27.14-.03.33.03.5.07.16.03.3.4.28.46-.04.17.14.28.23.41.03.05.07.1.09.15.03.09-.92,1.47-1.06,1.55-.02.01-.48.34-.96.69-.48.35-.98.71-1.08.8-.1.09-.25.11-.38.14-.06.02-1.48,1.11-1.54,1.14-.33.17-.6.44-1.02.45-.08,0-.14.05-.2.09-.51.37-1.12.6-1.69.89-.29.14-.56.33-.84.5-.05.03-.12.04-.17.06-.07.02-.15.04-.21.08-.65.41-1.36.74-1.97,1.21-.13.12-.99.37-1.15.5-.1.06-.56.05-.62.14Z"/><path class="cls-1" d="m243.03,78.55c-.21-.03-.29-.29-.32-.61,0-.1.1-.34.17-.36.16-.04.31-.08.42-.11.09-.03,1.26.06,1.67.04.39,0,.77.03,1.13.08.72.18,1.44.33,2.16.48.16.03.31.1.45.18.49.29,1.03.45,1.58.54.09.01.18.06.29-.02.18-.11,1.66.21,1.82.36.42.34.86.57,1.3.86.06.04.14.03.18.16.09.3.24.3.39.36.2.09.4.18.59.32.09.07.17.22.25.35.07.11-.04.43-.08.46-.12.09-.07.26-.08.4,0,.05-.01.11-.02.15-.02.06-1.4.56-1.54.56-.04.05-1.92-.08-2.14-.08-.11,0-.21-.09-.3-.16-.05-.02-1.54-.21-1.6-.24-.29-.12-.61-.11-.84-.44-.04-.06-.11-.07-.17-.09-.51-.16-.97-.45-1.44-.7-.24-.13-.5-.21-.75-.32-.04-.02-.08-.07-.12-.1-.05-.04-.1-.09-.15-.12-.6-.22-1.12-.63-1.7-.88-.13-.06-.67-.6-.82-.65-.09-.03-.25-.43-.34-.44Z"/><path class="cls-1" d="m288.91,253.95c-.86.35-1.73.78-2.59,1.23-.32.17-.61.38-.92.54-1.12.58-2.28,1.13-3.47,1.62-.53.23-1.05.46-1.57.68-.34.14-.67.29-1.02.42-.35.1-.72.19-1.09.22-.23.02-.27-.27-.16-.61.11-.34.33-.73.69-.86,1.27-.54,2.49-1.19,3.81-1.76.8-.33,1.54-.86,2.32-1.3.85-.49,1.74-.96,2.64-1.41.57-.26,1.12-.54,1.72-.75.88-.36,1.83-.58,2.77-.76.74-.12,1.48-.27,2.26-.24.17,0,.34-.02.51.02.62.12.8.28.79.73,0,.1,0,.21,0,.3-.05.33-.36.55-.74.57-1.15.04-2.23.14-3.37.45-.84.27-1.69.55-2.55.96l-.02-.04Z"/></svg>