<?xml version="1.0" encoding="UTF-8"?><svg id="Layer_1" xmlns="http://www.w3.org/2000/svg" width="520" height="520" viewBox="0 0 520 520"><defs><style>.cls-1{fill:none;opacity:.45;}.cls-2,.cls-3,.cls-4,.cls-5{fill:#231f20;}.cls-3{opacity:.13;}.cls-4{opacity:.55;}.cls-5{opacity:.65;}</style></defs><path class="cls-3" d="m248.85,367.09c-14.5-23.54-4.95-131.02-30.68-141.08-10.63-4.16-44.7,1.87-44.7,1.87l-90.3,17.86-46.05,4.03s-3.09-.85-1.47,13.36,12.93,88.31,16.33,101.43c3.4,13.13,8.11,27.74,17.02,33.23,11.96,7.38,47.66,1.06,65.46-2.63,16-3.33,116.33-24.91,114.38-28.07Zm-182.9-99.68c-.76,1.13-5.92,3.73-7.44,2.01-1.51-1.73-1.45-3.75-1.45-3.75,0,0-1.01-1.75,2.22-3.25s5.06-.9,5.91,0c.85.9,1.52,3.86.76,4.99Zm29.45-8.62s.85-3.48,3.25-4.35,4.09-.58,5.5,1.25c1.41,1.84,1.46,3.67,1.02,4.8-.45,1.13-4.41,3.02-5.96,2.64-1.55-.38-4.25-3.09-3.81-4.34Zm-9.87,4.34c0,1.74-3.86,4.21-5.75,3.61-1.89-.6-3.23-2.46-3.41-4.7,0,0,.68-3,2.37-3.97,1.7-.97,2.78-1.27,4.99.72,2.21,1.98,1.81,2.6,1.8,4.34Zm78.62,26.59c-4.7.13-8.84,4.93-8.84,4.93,0,0-9.69-4.81-13.96-6-4.87-1.36-2.75.5-6.42,1.91-3.67,1.41-15.13,17.16-21.6,18.33-6.48,1.17-20.33,5.25-21.84-6.58-1.11-8.69-1.7-14.81-1.6-15.02l10.7-2.64s85.87-13.43,89.26-12.58,4.06,18.56,3.6,19.9c-1.34,3.88-19.98,3.88-19.98,3.88,0,0-4.61-6.27-9.32-6.13Zm48.1,75.04c-20.36,1.67-33.8-23.36-18.97-40.42,13.94-16.04,43.54-7.96,43.53,15.75,0,12.61-7.45,23.26-24.56,24.67Z"/><path class="cls-2" d="m53.44,366.86c-2.15-7.88-4.06-15.81-5.82-23.77-.64-2.91-1.32-5.8-1.91-8.72-2.05-10.28-3.83-20.61-5.28-30.99-.64-4.6-1.31-9.23-1.89-13.81-.38-2.94-.77-5.88-1.03-8.84l-.35-4.44c-.07-.74-.06-1.48-.06-2.23.01-.74-.04-1.48.03-2.23.25-1.87.05-1.6.54-.08.26.76.55,1.85.94,3.16.33,1.31.63,2.86.85,4.54.18,1.5.43,2.98.6,4.48.17,1.5.35,2.99.55,4.48.39,2.99.79,5.97,1.18,8.97.81,5.98,1.74,11.96,2.64,17.97,1.09,7.19,2.65,14.6,4.2,21.88,1.69,8,3.56,15.97,5.63,23.89,1.28,4.87,2.64,9.72,4.13,14.52,1.14,3.63,2.33,7.26,3.68,10.81.68,1.78,1.37,3.54,2.16,5.25.77,1.71,1.61,3.41,2.64,4.9.19.31.4.56.63.8l.33.37.4.34.8.68c.28.21.58.4.87.59,1.15.8,2.44,1.39,3.73,1.94,2.62,1.05,5.4,1.7,8.22,2.13.62.1,1.24.18,1.86.24.62.07,1.24.13,1.87.18,4.69.41,6.18.42,7.23.98.24.1.55.18.7.25.49.15-1.45,1.03-5.05,1.08-2.66.08-5.36-.14-8.07-.56-2.71-.45-5.45-1.11-8.09-2.26-.66-.3-1.32-.57-1.95-.95l-.96-.53c-.31-.19-.62-.41-.92-.62-.3-.22-.62-.41-.91-.65l-.86-.74c-.29-.24-.57-.49-.84-.82-.27-.31-.57-.64-.76-.95-1.71-2.51-2.81-5.07-3.91-7.66-3.14-7.71-5.51-15.62-7.75-23.56l.05-.03Z"/><path class="cls-2" d="m207.94,220.97c3.63-.26,7.26-.46,10.91-.58,1.33-.05,2.66-.17,4-.16,2.36.02,4.72.09,7.12.34,1.21.15,2.41.31,3.69.7.7.21,1.2.48,1.76.72.55.27,1.1.53,1.63.85,1.91,1.06,3.71,2.54,5,4.36.8,1.17,1.58,2.38,1.88,3.74.41,1.32.47,2.7.63,4.02.06.84.01.74-.43.14-.22-.29-.56-.71-1-1.18-.23-.25-.46-.5-.7-.76-.13-.13-.23-.28-.39-.41-.08-.16-.22-.29-.31-.45-.34-.55-.81-1.02-1.08-1.55-.29-.53-.59-1.03-.92-1.49-.66-.93-1.43-1.71-2.33-2.4-.91-.67-1.91-1.32-3.01-1.88-.54-.26-1.19-.6-1.6-.74-.49-.18-1.09-.33-1.7-.46-2.99-.6-6.38-.39-9.64-.32-3.6.07-7.23.23-10.85.47-2.23.15-4.46.31-6.68.52-3.37.32-6.76.64-10.09,1.1-2.59.37-5.09.92-7.62,1.43-.56.11-1.1.24-1.66.33-2.08.35-2.76.3-3.35-.26-.13-.13-.3-.25-.39-.38-.32-.45.46-1.08,1.97-1.57,4.49-1.48,9.33-2.28,14.2-3.03,3.62-.51,7.28-.85,10.94-1.19v.08Z"/><path class="cls-2" d="m346.46,396.46c.26-.28.59-.43.92-.47.35,0,.71.1,1.03.29.21.12.35.7.23.84-.23.28-.45.5-.63.78-.06.08-.67.52-1.16,1.27-.51.73-.91,1.72-1.09,2.24-.36,1.08-.7,2.1-1.05,3.14l-.42,1.24c-.07.21-.16.44-.26.69-.08.23-.24.52-.43.85-.26.27-.51.58-.77.81-.25.17-.52.35-.77.48l-.69.3c-.22.08-.42.14-.64.22-.83.26-1.59.44-2.3.63-.5.13-.97.23-1.44.33-1.6.33-2.87,1.06-3.05,2.17-.07.17-.1.39-.02.6.04.33-.04.65.58,1.3.61.63,1.68,1.01,1.86,1.08.47.23,1.13.31,1.81.33.67,0,1.36-.07,2.04-.23.2-.04.38-.15.59-.12.49.08.89-.17,1.29-.36.56-.28,1.1-.6,1.65-.93.27-.16.6-.26.91-.4.28-.12.42.25.37.35-.15.29.15.25.28.34.04.03.1.07.12.11.02.04-.6.9-1.44,1.66-.82.78-1.87,1.42-2.09,1.5-.03,0-.41.19-1,.4-.6.21-1.41.44-2.28.55-.43.06-.88.09-1.31.1-.22,0-.43,0-.63-.01-.22-.02-.45-.03-.65-.07-.8-.13-1.35-.34-1.54-.41-.4-.14-.75-.39-1.1-.64-.05-.08-1.45-.72-2.32-2.36-.44-.78-.54-1.93-.45-2.44.02-.3.04-.56.06-.75.04-.19.08-.32.09-.35.29-1.29,1.19-2.59,2.31-3.11.22-.11.41-.27.61-.38,1.73-1.06,3.48-1.31,5.03-1.67.77-.17,1.55-.42,1.99-.66.06-.04.14-.05.21-.07.05-.03.07-.03.12-.05.01-.04.04-.1.07-.15l.11-.26c.08-.17.15-.41.23-.61l.48-1.37c.33-.94.68-1.92,1.07-2.9.09-.23.45-.85.88-1.45.42-.61.95-1.17,1.13-1.41.11-.13.42-.34.74-.52.34-.17.65-.32.75-.44Z"/><g class="cls-1"><path class="cls-2" d="m351.36,102.27c.94-.9,2.25-.79,3.2.02.31.25.41,1.2.2,1.38-.44.35-.8.75-1.13,1.09-.1.1-1.09.72-1.83,1.85-.78,1.1-1.31,2.67-1.51,3.49-.2.8-.38,1.61-.55,2.44l-.24,1.21c-.09.46-.16.94-.29,1.36-.13.42-.34.77-.57,1.04-.13.12-.21.28-.4.34-.1.17-.28.18-.41.28-.34.35-1.2.23-1.87.28-.45-.08-.9-.07-1.29-.06h-.33s-.27.04-.27.04c-.36.03-.73.07-1.1.14-.74.11-1.49.29-2.22.5-1.47.42-2.89,1.01-4.16,1.74-.33.17-.62.36-.93.54-.32.17-.62.36-.91.55-1.03.63-1.94,1.44-2.55,2.41-.63.93-.94,1.94-.94,2.91-.04.32.03.64.19.91.18.21.48,1.44,1.61,2.17,1.04.81,2.83,1.06,3.23,1.11,1.97.43,4.44.22,6.61-.34.32-.08.62-.26.96-.23.81.08,1.45-.32,2.12-.65.94-.48,1.88-.96,2.85-1.45.48-.23,1.04-.34,1.58-.49.49-.13.61.5.5.65-.3.43.18.44.36.61.06.06.14.14.15.21.02.07-1.13,1.23-2.46,2.36-1.31,1.15-2.92,2.21-3.28,2.35-.04.02-.64.32-1.58.69-.94.38-2.24.78-3.55,1.05-.68.11-1.36.24-2.03.33-.68.05-1.34.1-1.93.12-.61-.03-1.14-.05-1.56-.07-.43-.04-.75-.11-.91-.13-.34-.05-.67-.13-1-.25-.32-.15-.65-.3-.97-.44-.04-.01-.21-.08-.49-.18-.27-.14-.64-.32-1.07-.54-.44-.21-.89-.6-1.39-.96-.46-.42-.97-.88-1.36-1.43-.87-1.07-1.35-2.39-1.6-3.4-.2-1.02-.26-1.75-.23-1.85.03-2.1.61-4.24,1.93-5.67.26-.27.45-.59.65-.91,1.87-2.61,4.54-4.3,7.21-5.41,1.38-.57,2.75-1.13,4.19-1.47.26-.07.53-.08.8-.11.34-.04.67-.07,1-.12.55-.09,1.09-.19,1.66-.23.28-.02.56-.06.85-.06h.2c.1,0,.25.08.32.02.03-.1.05-.21.08-.33l.3-1.27c.14-.58.3-1.15.48-1.74.12-.39.62-1.47,1.3-2.51.66-1.05,1.53-2.01,1.86-2.4.17-.23.71-.57,1.26-.84.55-.28,1.11-.49,1.29-.66Z"/></g><path class="cls-2" d="m199.87,171.83c.48.06.93.22,1.24.5.3.31.52.69.64,1.1.08.26-.29.73-.52.7-.46-.04-.86-.16-1.28-.13-.12,0-1.09-.3-2.16,0-1.08.23-2.19.99-2.7,1.43-1.01.84-1.95,1.82-2.76,2.91-.42.55-.77,1.13-1.06,1.71-.12.28-.26.57-.32.81l-.18.58c-.07.24-.16.48-.27.72-.41.96-1.12,1.87-1.96,2.5-.84.64-1.75,1.01-2.6,1.28-.76.24-1.5.37-2.2.46-2.37.26-4.63.7-5.15,2.02-.11.21-.22.47-.19.75,0,.11-.05.47-.04,1.03.06.48.06.78.4,1.13.32.33.81.69,1.36.86.25.11.49.18.7.23.2.05.35.1.43.12,1.68.46,3.65.41,5.54.1.27-.04.55-.14.82-.12.63.06,1.21-.15,1.77-.37.8-.27,1.57-.62,2.37-.94.38-.18.81-.27,1.23-.39.38-.11.41.31.31.41-.28.3.09.29.2.39.04.04.09.09.09.13,0,.03-.25.24-.65.57-.39.34-.97.72-1.56,1.1-.59.4-1.25.71-1.77.99-.54.25-.96.41-1.1.46-.03.01-.52.19-1.28.38-.75.21-1.77.42-2.85.52-.54.06-1.08.1-1.62.09-.53.02-1.04-.02-1.51-.07-.46-.02-.88-.12-1.2-.19-.33-.06-.57-.11-.69-.16-.52-.16-1.01-.38-1.49-.72-.05-.04-.53-.24-1.16-.79-.33-.22-.63-.66-.95-1.08-.16-.21-.25-.49-.38-.75-.12-.27-.23-.54-.26-.83-.05-.28-.09-.57-.12-.86-.01-.26,0-.46,0-.69,0-.44.06-.88.14-1.26.14-.77.41-1.32.44-1.39.38-.79.97-1.53,1.66-2.05.69-.52,1.44-.83,2.15-.97.28-.06.55-.15.82-.23,2.24-.65,4.35-.72,5.84-1.44.76-.36,1.21-.88,1.5-1.57.06-.12.14-.24.19-.38l.12-.28c.05-.15.1-.3.16-.44.51-1.5,1.29-2.62,2.17-3.72.88-1.08,1.88-2.06,3.01-2.95.25-.21,1.09-.71,2.02-1.06.93-.37,1.96-.53,2.36-.58.23-.02.72,0,1.19.12.47.14.91.26,1.11.27Z"/><path class="cls-2" d="m216.81,325.15s-.42-1.98,4.94,0c5.36,1.98,4.89,6.15,4.89,6.15l-7.96,2.06-1.87-8.21Z"/><path class="cls-5" d="m208.55,323.41s-10.8,3.15-12.78,12.61c-1.98,9.46,4.62,18.5,8.4,19.69,3.78,1.19,12.45,2.65,16.81-.59,4.36-3.24,7.5-6.4,7.94-10.35.44-3.95-.21-8.12-.21-8.12,0,0-12.44,3.8-13.47,2.51s-3.43-16.36-5.06-16.05l-1.64.31Z"/><g class="cls-1"><path class="cls-2" d="m328.4,283.74c2.54,2.25,5.08,4.6,7.7,6.6l.35.26.32.2c.19.14.47.25.72.36.49.25,1.04.44,1.58.66,1.94.76,4.04,1.34,6.15,1.88,2.12.52,4.26,1.01,6.42,1.46,1.92.4,3.86.7,5.79,1,1.24.17,2.48.42,3.71.7,1.23.29,2.46.62,3.59,1.33.7.43.6.38-.12.51-.36.06-.87.25-1.47.37-.3.06-.63.15-.96.17-.33.01-.68.02-1.03-.01-1.25-.15-2.54-.13-3.79-.37l-3.78-.6c-2.52-.43-5.06-.9-7.58-1.57-3.01-.84-6.22-1.34-9.34-2.68-.43-.22-.86-.38-1.29-.65-.21-.13-.44-.27-.63-.41l-.55-.4c-.73-.54-1.41-1.08-2.1-1.63-1.36-1.1-2.69-2.23-4-3.38-1.61-1.42-3.19-2.87-4.77-4.31-2.39-2.19-4.71-4.48-7.03-6.7-1.81-1.73-3.68-3.34-5.42-5.12-.38-.4-.77-.78-1.13-1.19-1.38-1.53-1.56-2.25-1.31-3,.06-.17.1-.37.18-.5.14-.23.42-.25.82-.1.4.15.92.45,1.45.96,3.28,2.87,6.56,6.03,9.93,9.18,2.51,2.33,5.03,4.67,7.63,6.93l-.05.06Z"/></g><path class="cls-2" d="m332.95,283.05c.82-.49,1.63-.98,2.43-1.5.29-.19.55-.42.85-.6,1.03-.67,2.12-1.26,3.14-1.94.46-.31.9-.61,1.36-.91.57-.39,1.16-.78,1.79-1.1.2-.1.23,0,.16.21-.07.21-.21.58-.47.9-.47.55-.93,1.1-1.43,1.62-.55.45-1.12.88-1.72,1.26-.72.46-1.37,1.09-2.07,1.6-.78.57-1.57,1.12-2.36,1.67l-1.47,1.01c-.75.51-1.49,1.02-2.23,1.52-.57.4-1.07.89-1.63,1.32-.12.09-.23.2-.36.29-.5.32-.75.25-1.08-.12-.08-.09-.16-.17-.23-.26-.22-.3-.17-.7.09-1.03.83-.9,1.77-1.73,2.82-2.44.8-.51,1.6-1.02,2.4-1.54l.03.04Z"/><path class="cls-2" d="m117,307.1s16.15-18.56,21.35-19.3c5.85-.84,16.96,6.85,16.96,6.85,0,0,3.43-5.18,7.06-5.62,3.63-.43,11.1,5.62,11.1,5.62l-56.47,12.45Z"/><path class="cls-2" d="m64.92,267.15c0,1.48-1.99,2.68-3.46,2.68s-2.68-1.2-2.68-2.68,1.59-3.3,3.07-3.3c2.28,0,3.07,1.82,3.07,3.3Z"/><path class="cls-2" d="m85.53,263.47c0,1.57-2.11,2.84-3.68,2.84s-2.84-1.27-2.84-2.84,1.69-3.5,3.26-3.5c2.42,0,3.26,1.94,3.26,3.5Z"/><path class="cls-2" d="m103.24,259.58c0,1.38-1.85,2.49-3.23,2.49s-2.49-1.12-2.49-2.49,1.48-3.08,2.86-3.08c2.12,0,2.86,1.7,2.86,3.08Z"/><g class="cls-1"><path class="cls-2" d="m443.91,219.67c-1,0-2.27.4-3.46.89-.44.19-.84.46-1.28.66-1.56.71-3.09,1.58-4.62,2.45-.68.39-1.29.89-1.93,1.33-.85.54-1.61,1.17-2.69,1.49-.42.12-.38-.13-.35-.51.03-.39.08-1.11.46-1.57.66-.82,1.32-1.69,2.21-2.25.85-.61,1.73-1.2,2.73-1.62,1.17-.53,2.23-1.33,3.42-1.92,1.31-.64,2.68-1.2,4.21-1.51.94-.17,1.99-.25,3.09.13.85.33,1.44.92,1.89,1.61.42.69.63,1.42.79,2.12.25,1.08.42,2.13.47,3.17,0,.23.05.46.03.69-.04.85-.27,1.1-.96,1.2-.16.02-.32.06-.48.06-.53.02-.93-.36-1.05-.95-.18-.87-.32-1.73-.47-2.53-.14-.78-.26-1.54-.49-2-.16-.36-.32-.54-.56-.71-.11-.09-.45-.2-.94-.16v-.07Z"/></g><g class="cls-1"><path class="cls-2" d="m450.99,286.78c4.68-1.67,9.27-3.6,13.73-5.79,1.64-.79,3.18-1.74,4.78-2.58,1.39-.78,2.81-1.52,4.15-2.37.67-.41,1.38-.82,2.03-1.24.63-.43,1.28-.84,1.88-1.33,2.46-1.86,4.65-4.13,6.52-6.64,1.66-2.22,2.98-4.72,3.88-7.3,1.27-3.31,1.76-6.76,2.15-10.36.25-1.15.23-1.02.74-.09.49.91,1.46,2.78,1.43,5.08.03.51-.03,1.01-.1,1.51l-.19,1.5c-.22.98-.36,1.99-.67,2.94-.25.98-.65,1.9-1.06,2.82-.37.93-.89,1.79-1.34,2.69-1.98,3.47-4.54,6.59-7.67,9.08-1.82,1.51-3.88,2.93-5.85,4.14-.98.65-2,1.25-3.01,1.85-1.01.61-2.03,1.19-3.07,1.73-4.54,2.41-9.23,4.52-14,6.4-2.94,1.14-5.91,2.2-8.91,3.17-4.53,1.51-9.18,2.68-13.8,3.75-3.58.85-7.12,1.67-10.76,2.19-.8.09-1.59.21-2.41.28-1.51.16-2.52.07-3.22-.06-.71-.15-1.11-.41-1.43-.83-.15-.19-.34-.38-.42-.58-.28-.65.92-1.24,3.03-1.53,1.57-.23,3.14-.54,4.73-.8.79-.16,1.59-.34,2.39-.48.8-.13,1.61-.28,2.41-.46,1.61-.33,3.23-.64,4.85-1.05,1.63-.35,3.24-.77,4.86-1.2,4.81-1.28,9.6-2.77,14.29-4.53l.04.08Z"/></g><g class="cls-1"><path class="cls-2" d="m371.63,324.66c2.45-1.43,4.86-3.11,7.19-4.89.85-.65,1.63-1.39,2.47-2.05,2.95-2.37,5.96-4.72,8.79-7.26,1.26-1.13,2.49-2.3,3.66-3.5,1.48-1.57,3.01-3.07,4.7-4.46.52-.44.52-.33.35.26-.18.59-.43,1.77-1.12,2.85-2.51,3.76-5.57,7.02-9.01,9.92-2.04,1.75-4.02,3.73-6.12,5.51-2.32,1.95-4.73,3.8-7.25,5.53-1.56,1.06-3.18,2.05-4.93,2.9-.67.32-1.36.61-2.11.84-.39.1-.75.23-1.19.27-.41.08-.86.08-1.37.04-1.01-.16-1.88-.66-2.49-1.44-.63-.78-.86-1.72-.93-2.54-.09-1.3.09-2.48.33-3.61.24-1.13.6-2.21,1.01-3.25.18-.46.35-.92.57-1.37.87-1.63,1.5-1.95,2.44-1.79.22.04.45.06.64.13.65.26.73,1.13.39,2.33-.56,1.75-1.18,3.5-1.53,5.15-.19.8-.28,1.59-.24,2.13.02.27.08.44.12.5.04.06.02.05.09.09,0,.02.09.03.04.03,0-.02,0-.02,0,0,0-.02.09.03.31-.03.38-.03.97-.24,1.53-.46,1.17-.48,2.41-1.18,3.6-1.94l.05.07Z"/></g><path class="cls-4" d="m440.18,240.61s18.73,15.47,21.98,16.41c3.26.94,22.64-8.17,22.64-8.17,0,0-15.25-13.86-44.63-8.24Z"/><path class="cls-2" d="m162.3,287.29c1.49-.55,3.18-1.02,5-.9.65.03,1.34.12,1.94.33,1.05.38,1.92.92,2.72,1.53.81.59,1.56,1.21,2.3,1.84.66.54,1.32,1.09,1.97,1.63.85.67,1.63,1.44,2.29,2.31.2.28.03.39-.34.38-.37-.02-.97-.11-1.5-.42-1.84-1.13-3.59-2.32-5.32-3.5-.51-.35-1.08-.64-1.66-.85-.56-.24-1.14-.43-1.64-.53-1.13-.26-2.42-.04-3.71.41-.79.29-1.6.64-2.4,1.04-1.23.59-2.39,1.22-3.51,2.01-.87.61-1.62,1.37-2.46,2.04-.19.15-.36.32-.56.45-.75.5-1.12.46-1.65-.12-.12-.13-.25-.26-.36-.4-.35-.49-.28-1.07.14-1.54,1.25-1.39,2.82-2.54,4.57-3.64.64-.4,1.36-.8,2.05-1.14.67-.33,1.37-.68,2.12-.99l.03.06Z"/><path class="cls-2" d="m468.61,258.33c-1.47.36-3,.64-4.66.68-.84-.01-1.7-.03-2.63-.28-.89-.2-1.98-.82-2.47-1.22-.89-.64-1.78-1.21-2.6-1.87-2.88-2.36-5.57-4.8-8.38-7.15-1.24-1.05-2.53-2.04-3.82-3-.84-.6-1.65-1.25-2.44-1.92-.39-.34-.8-.66-1.15-1.05-.35-.4-.7-.79-1.03-1.2-.37-.57-.21-.65.49-.66.35,0,.81.02,1.35.09.27.04.56.07.84.15.27.09.54.21.79.37l1.36.82.68.41.64.47c.85.63,1.69,1.26,2.53,1.91,1.67,1.29,3.29,2.65,4.86,4.12,1.87,1.74,4.05,3.23,6.1,4.75.56.41,1.13.82,1.69,1.2.13.08.29.2.4.26.1.05.2.1.29.16.23.08.45.18.73.22,1.07.24,2.43.09,3.74-.14,1.63-.3,3.29-.79,4.91-1.36,2.47-.88,4.94-1.87,7.33-3.01,1.86-.89,3.58-1.96,5.45-2.91.42-.21.8-.45,1.26-.59.83-.29,1.44-.4,1.91-.33.48.1.79.32,1.05.69.11.17.24.32.31.49.11.28,0,.56-.2.85-.21.29-.53.67-1.02.94-1.42.97-3.05,1.8-4.71,2.68-1.67.86-3.41,1.69-5.2,2.48-2.66,1.16-5.42,2.23-8.37,3.04l-.03-.08Z"/><path class="cls-2" d="m323.31,285.51c-2.38-2.32-4.74-4.67-7.05-7.06-1.16-1.19-2.31-2.4-3.45-3.62-1.14-1.23-2.21-2.36-3.4-3.51-1.71-1.68-3.52-3.19-5.36-5.06l-.45-.49c-.18-.24-.38-.48-.55-.72-.35-.49-.6-1.02-.72-1.56-.13-.53-.11-1.1.1-1.62.18-.53.63-.87,1.02-1.26l.94-.64.8-.45c.45-.25.91-.42,1.37-.63.93-.35,1.87-.64,2.81-.83,1.89-.4,3.8-.53,5.69-.46,1.89.07,3.76.36,5.58.84.91.24,1.81.54,2.69.88.96.39,1.78.89,2.54,1.34,3.28,1.98,6.49,4.01,9.66,6.04,4.05,2.62,8.21,5.21,11.47,8.94.9,1.3.78,1.08-.5.66-.7-.23-1.6-.52-2.62-.86-.54-.17-1.1-.4-1.69-.64-.3-.12-.59-.26-.91-.38-.28-.17-.57-.34-.86-.53l-3.09-1.95-1.55-.96-1.53-1.01c-2.04-1.34-4.09-2.66-6.15-3.97l-3.09-1.93c-1.01-.6-2.11-1.31-2.9-1.62-2.06-.83-4.31-1.33-6.6-1.54-1.69-.16-3.44-.08-5.11.26-.84.15-1.65.41-2.44.71-.73.29-1.69.81-1.74.89-.15.09-.33.24-.26.44.05.18.16.33.28.48l.39.47.54.6c.38.4.76.81,1.17,1.2l3.61,3.47c1.2,1.17,2.39,2.45,3.5,3.64,2.26,2.42,4.59,4.79,6.95,7.13,2.9,2.88,5.85,5.73,8.85,8.5,1.14,1.05,2.28,2.1,3.43,3.12l.87.76c.28.24.6.51.75.61l.96.46c.33.14.69.26,1.04.4,2.82,1.01,5.87,1.63,8.87,2.17,4.69.81,9.36,1.21,14.05,1.49,1.03.07,2.04.08,3.08.14,3.85.2,5.04.33,5.88,1.18.19.18.45.36.56.54.4.55-1.22,1.24-4.13,1.3-4.31.08-8.71-.17-13.15-.67-4.44-.51-8.91-1.21-13.42-2.37-.84-.22-1.68-.47-2.53-.75l-1.29-.47c-.45-.2-.9-.42-1.35-.63-.2-.09-.75-.49-.83-.57l-.53-.44-.97-.84-1.89-1.69c-2.49-2.26-4.94-4.56-7.37-6.87l.05-.06Z"/><path class="cls-2" d="m292.54,284.83c3.24,1.33,6.53,2.55,9.83,3.47.41.11.83.24,1.23.35l1.22.27c.84.22,1.55.26,2.3.37,1.46.06,3.12-.19,4.75-.57,2.39-.54,4.75-1.47,7.11-2.37,4.16-1.62,8.25-3.56,12.22-5.72,3.97-2.16,7.84-4.53,11.46-7.19,1.6-1.18,3.16-2.45,4.58-3.79.7-.68,1.38-1.38,1.95-2.11.59-.71,1.07-1.51,1.28-2.15.12-.33.07-.62-.09-.86-.08-.12-.2-.21-.31-.29-.07-.03-.11-.07-.2-.1-.09-.04-.2-.09-.31-.13-.93-.34-2.15-.42-3.35-.41-1.21.02-2.45.14-3.68.32-1.22.2-2.49.29-3.68.59-.75.16-1.09.19-1.16.03-.07-.16.16-.54.71-1.08.54-.54,1.4-1.21,2.51-1.89,1.13-.62,2.55-1.09,4.16-1.3,1.44-.16,2.91-.25,4.59.04.42.07.86.18,1.32.35.23.07.45.19.75.31.28.18.58.33.83.55,1.04.8,1.72,2.08,1.65,3.4-.02.32.05.67-.04.97-.07.32-.15.59-.22.85-.17.49-.37.87-.57,1.29l-.66,1.05-.7.92c-.95,1.16-1.95,2.19-2.99,3.13-2.07,1.9-4.3,3.48-6.56,5-2.27,1.51-4.6,2.9-6.98,4.2-5.71,3.06-11.6,6.35-17.94,8.58-1.74.61-3.52,1.15-5.37,1.54-1.84.38-3.79.7-5.82.47-.49-.07-1.02-.1-1.48-.2l-1.38-.31c-.93-.18-1.8-.47-2.69-.72-.89-.24-1.75-.54-2.62-.83-.86-.29-1.74-.57-2.58-.9-4.21-1.52-8.28-3.33-12.31-5.22-6.09-2.88-12.01-6.18-17.71-9.68-4.44-2.7-8.69-5.55-12.8-8.7-.87-.73-1.75-1.42-2.61-2.19-1.62-1.38-2.53-2.48-3.14-3.27-.59-.81-.82-1.38-.87-1.96-.02-.26-.09-.57-.05-.77.13-.67,1.7.18,4.02,2.11.84.73,1.81,1.36,2.7,2.05.93.66,1.77,1.42,2.74,2.05,1.89,1.31,3.75,2.68,5.74,3.91,3.89,2.58,7.95,5.02,12.09,7.34,6.18,3.41,12.58,6.52,19.15,9.13l-.03.09Z"/><path class="cls-2" d="m489.52,256.7c-.39-2.88-1.64-5.67-3.52-8.09-1.85-2.43-4.23-4.57-6.84-6.19l-.98-.56c-.34-.18-.73-.34-1.09-.52l-2.2-1.02c-.72-.37-1.49-.63-2.25-.91l-2.28-.83c-1.54-.47-3.11-.89-4.67-1.28l-2.39-.44c-.8-.15-1.59-.31-2.4-.37-4.7-.63-9.48-.43-14.21.14-4.17.51-8.33,1.32-12.41,2.5-4.09,1.15-8.13,2.51-12.1,4.1-7.97,3.12-15.67,6.98-23.31,10.98-6.78,3.56-13.49,7.35-20.23,10.95-4.32,2.32-8.7,4.58-13.21,6.59-4.51,1.99-9.17,3.83-14.09,4.61-3.06.47-2.67.17-.34-1.04,1.18-.55,2.76-1.6,4.73-2.54,1.93-1.07,4.22-2.2,6.76-3.3,8.97-4.04,17.61-8.96,26.38-13.78,8.75-4.84,17.67-9.57,27.04-13.56,5.6-2.37,11.4-4.66,17.44-6.4,6.03-1.74,12.32-2.97,18.64-3.19,1.73-.13,3.48,0,5.22.03.87,0,1.74.13,2.61.21l2.6.27,2.57.47c.86.17,1.72.29,2.56.54,1.68.48,3.39.84,5.01,1.5l2.46.9c.82.3,1.59.71,2.38,1.07l2.37,1.11,1.19.67,1.13.73c2.93,2.03,5.56,4.49,7.57,7.48,2.53,3.61,3.94,8.16,3.59,12.65-.42,4.49-2.36,8.6-4.89,12.09-3.95,5.29-9.33,9.16-14.92,12.26-5.65,3.05-11.61,5.37-17.63,7.28-9.37,2.94-18.77,5.09-28.36,6.56-2.11.33-4.18.64-6.32.89-3.97.47-6.61.49-8.46.44-.93-.04-1.66-.13-2.27-.25-.61-.15-1.1-.36-1.54-.55-.4-.18-.91-.33-1.14-.47-.77-.39,2.41-1.41,8.12-2.11,8.47-1.11,17.13-2.45,25.76-4.42,8.61-1.97,17.25-4.48,25.3-8.16,5.94-2.74,11.62-6.16,16.02-10.71,2.18-2.27,4.03-4.85,5.21-7.65,1.23-2.77,1.74-5.75,1.32-8.63l.09-.03Z"/><path class="cls-2" d="m364.45,327.96l-.07.77c.01.22,0,.47.01.66.03.15.04.39.08.42,0,.08.05.07.04.13.16.21.69.4,1.5.29.8-.12,1.74-.44,2.65-.88,1.83-.89,3.64-2.11,5.39-3.41,1.63-1.23,3.16-2.61,4.73-3.96,5.51-4.79,10.71-10.03,15.76-15.4,2.24-2.38,4.39-4.88,6.51-7.34,2.75-3.14,5.32-6.47,8.58-9.18,1.05-.81,1.03-.6.64.52-.33,1.17-1.13,3.16-2.55,5.12-5.26,6.74-11.03,13.09-17.23,19.15-3.73,3.6-7.41,7.54-11.48,11.02-2.24,1.9-4.55,3.74-7.14,5.29-1.3.77-2.67,1.48-4.25,1.94-.79.22-1.65.38-2.59.3-.95-.08-1.94-.43-2.73-1.18l-.04-.04c-.19-.29-.44-.54-.6-.84-.12-.31-.27-.63-.32-.91-.05-.28-.1-.57-.13-.84l-.02-.78c.04-1.01.18-1.96.38-2.87.4-1.83.96-3.56,1.56-5.26,1.85-5.16,4.16-10.08,6.34-14.99,1.7-3.81,3.25-7.6,4.84-11.39.34-.84.68-1.65,1.02-2.5.66-1.55,1.15-2.54,1.64-3.17.45-.65.91-.94,1.43-1.12.23-.09.47-.23.64-.26.53-.15.77,1.46-.03,3.85-2.48,7.03-5.85,14.01-8.93,21.09-1.15,2.63-2.27,5.26-3.27,7.91-.5,1.32-.97,2.65-1.37,3.98-.4,1.32-.75,2.65-.9,3.88h-.08Z"/><path class="cls-2" d="m442.97,217.37c-2.15.93-4.28,2.4-6.3,3.96-.74.57-1.41,1.22-2.13,1.83-2.54,2.13-4.99,4.4-7.32,6.81-1.03,1.07-2.03,2.18-2.97,3.31-.6.73-1.19,1.47-1.83,2.17-.32.35-.62.72-.97,1.04-.35.32-.71.65-1.07.97-.45.4-.48.29-.38-.26.07-.36.15-.75.22-1.14.05-.23.09-.5.19-.75.1-.24.22-.49.36-.73,2.07-3.38,4.7-6.33,7.65-8.99,1.77-1.58,3.43-3.41,5.27-5.01,2.03-1.75,4.14-3.43,6.53-4.79.74-.42,1.5-.81,2.32-1.12.81-.32,1.69-.57,2.65-.63.28-.03.58-.01.88.03.29,0,.59.13.97.23.69.24,1.16.89,1.4,1.53.22.59.3,1.14.36,1.67.1,1.07.06,2.08.02,3.08-.07,1.91-.13,3.78-.2,5.67,0,.4,0,.8-.01,1.21-.04.74-.07,1.2-.23,1.52-.19.32-.42.5-.76.69-.15.09-.29.21-.44.28-.24.12-.49.05-.77-.26-.26-.3-.54-.81-.56-1.42-.16-1.81-.05-3.53.06-5.25.11-1.7.27-3.44.19-4.94-.03-.46-.09-.89-.17-1.16-.06-.15-.02-.07-.03-.1,0,0,0-.01,0-.01.02,0,.03.01.04.01-.04,0-.06-.04-.11-.04-.1,0-.19-.02-.29-.04-.23.01-.47.01-.76.08-.56.11-1.17.31-1.79.6l-.03-.06Z"/><path class="cls-2" d="m287.44,317.76l-6.89,6.03c-.84.73-1.6,1.54-2.44,2.27-2.96,2.57-6.04,5-8.98,7.57-1.31,1.13-2.56,2.35-3.79,3.55l-2.4,2.29c-.42.37-.8.76-1.26,1.09-.46.32-.92.64-1.41.93-.67.3-.72.12-.64-.62.03-.38.14-.86.29-1.42.08-.27.16-.58.29-.86.15-.27.32-.53.53-.77l2.25-2.57c.78-.83,1.6-1.6,2.42-2.39,1.65-1.56,3.35-3.06,5.13-4.5,2.12-1.73,4.06-3.8,6.12-5.67l6.79-6.18c1.39-1.27,2.77-2.55,4.13-3.84,2.05-1.97,4.14-3.93,6.05-6.01,1.49-1.62,2.75-3.38,4.11-5.06.3-.37.56-.76.87-1.13,1.15-1.36,1.77-1.56,2.74-1.21.22.08.47.14.66.25.67.36.65,1.32-.02,2.5-1.04,1.7-2.24,3.34-3.55,4.92-1.34,1.55-2.77,3.06-4.24,4.52-2.17,2.19-4.46,4.28-6.71,6.39l-.07-.06Z"/><path class="cls-2" d="m171.92,225.8c9.02-1.71,18.07-3.36,27.16-4.79,4.55-.71,9.11-1.37,13.7-1.91,4.59-.54,9.21-.96,13.9-1.09,1.72-.02,3.43-.04,5.19.08,1.75.1,3.52.28,5.36.79.45.09.93.31,1.4.47.48.17.89.44,1.58.8.15.1.25.27.38.4l.33.37c.19.21.33.42.47.63.3.42.55.84.77,1.25.9,1.67,1.47,3.34,1.98,5,.88,2.94,1.51,5.87,2.05,8.81.54,2.94.99,5.88,1.39,8.82.8,5.88,1.42,11.76,1.97,17.64,1.1,11.76,1.95,23.53,2.81,35.29.74,10.43,1.57,20.92,2.56,31.24.67,6.63,1.34,13.26,2.18,19.86.92,6.58,1.66,13.23,3.54,19.52.64,1.93,1.1,2.69.97,2.7-.1,0-.78-.78-1.62-2.36-1.76-3.13-4.01-9.43-5.37-17.05-2.35-13.53-3.52-27.13-4.69-40.73-1.18-13.6-2.03-27.24-3.09-40.9-.64-8.17-1.48-16.49-2.67-24.78-.61-4.14-1.3-8.28-2.23-12.32-.47-2.02-.99-4.01-1.65-5.91-.32-.96-.7-1.86-1.11-2.72-.22-.4-.43-.84-.68-1.17-.12-.17-.23-.37-.36-.5-.14-.14-.11-.17-.22-.22l-.49-.26-.67-.25c-.45-.16-.97-.27-1.47-.4-1.04-.2-2.11-.34-3.22-.42-2.2-.16-4.47-.15-6.73-.05-4.54.18-9.1.67-13.66,1.23-9.11,1.15-18.21,2.71-27.28,4.35-11.17,2.04-22.32,4.25-33.46,6.5-16.87,3.42-33.83,6.86-50.63,10.09-13.06,2.49-25.87,5.02-38.97,6.71-2.89.37-5.72.71-8.65.95-5.45.42-9.09.39-11.64.11-1.27-.11-2.28-.35-3.1-.56-.82-.27-1.46-.54-2.01-.87-.5-.32-1.15-.65-1.41-.93-.82-.98,3.42-.59,11.18-1.03,5.76-.29,11.62-.99,17.53-1.81,5.91-.82,11.87-1.8,17.88-2.84,12-2.09,24.15-4.46,36.33-6.9,18.08-3.62,36.24-7.4,54.43-10.94l.04.09Z"/><path class="cls-2" d="m60.55,386.08c1.41,4.1,2.98,8.21,5.09,11.72.5.93,1.12,1.62,1.69,2.4.57.57,1.19,1.14,2.03,1.56,1.6.91,3.59,1.5,5.62,1.9,4.11.79,8.48.94,12.83.89,4.36-.07,8.75-.37,13.14-.79,6.4-.63,12.78-1.62,19.15-2.6,22.49-3.54,44.84-8.35,67.15-13.22,9.9-2.17,19.83-4.5,29.65-6.7,6.31-1.41,12.64-2.83,19-4.11,6.37-1.22,12.78-2.28,19.24-2.96,4.04-.3,3.53.06.26,1.18-3.28,1.12-9.27,3.09-16.49,4.81-25.71,5.64-51.4,11.69-77.54,16.87-15.63,3.08-31.86,6.58-48.06,8.91-8.9,1.24-17.87,2.27-26.96,2.33-2.27.01-4.55-.05-6.84-.24-2.29-.19-4.59-.49-6.88-1.05-2.28-.57-4.6-1.4-6.66-2.95-.53-.35-.98-.87-1.44-1.32l-1.12-1.44c-.4-.47-.66-.99-.98-1.49-.3-.51-.63-1-.9-1.51-2.65-5.06-4.45-10.34-6.1-15.64-1.62-5.31-3.01-10.67-4.3-16.04-3.84-16.3-6.72-32.85-9.41-49.2-2.07-12.72-4.12-25.19-5.86-37.82-.38-2.78-.79-5.5-1.13-8.31-1.27-10.42-1.24-13.8-.4-16.13.18-.53.35-1.22.54-1.54.6-1.05,1.75,3.12,2.76,10.7,3.15,22.49,6.57,46.2,10.8,69.84,1.59,8.77,3.29,17.54,5.23,26.25.98,4.35,2,8.69,3.15,12.98,1.13,4.3,2.37,8.56,3.81,12.71l-.08.05Z"/><path class="cls-2" d="m61.56,268.54c1.09-.27,2.12-.83,2.7-1.59.22-.28.3-.59.37-.89.31-.98-.38-2.8-1.71-3.37-.6-.28-1.34-.32-2.04-.2-.92.14-1.72.61-2.66.95-.29.11-.37-.03-.31-.39.05-.37.27-1.03.85-1.37,1-.61,2.18-1.03,3.49-.98,1.3.01,2.69.7,3.49,1.78.43.62.88,1.25,1.14,2.06.25.8.29,1.72.04,2.54-.57,1.83-2,2.93-3.39,3.64-.44.21-.89.39-1.35.54-.54.15-1.09.23-1.62.21-1.59-.05-3.16-.8-4.12-2.22-.75-1.1-1.01-2.55-.76-3.78.04-.28.1-.53.18-.8.35-.95.75-1.06,1.57-.78.19.07.38.13.56.22.6.31.92.88.85,1.39-.06.76-.06,1.4.06,1.74.11.33.16.5.48.79.23.2.6.38.98.47.19.04.38.07.56.07.18,0,.28,0,.6-.1l.03.06Z"/><path class="cls-2" d="m81.14,264.79c1.09-.27,2.12-.83,2.7-1.59.22-.28.3-.59.37-.89.31-.98-.38-2.8-1.71-3.37-.6-.28-1.34-.32-2.04-.2-.92.14-1.72.61-2.66.95-.29.11-.37-.03-.31-.39.05-.37.27-1.03.85-1.37,1-.61,2.18-1.03,3.49-.98,1.3.01,2.69.7,3.49,1.78.43.62.88,1.25,1.14,2.06.25.8.29,1.72.04,2.54-.57,1.83-2,2.93-3.39,3.64-.44.21-.89.39-1.35.54-.54.15-1.09.23-1.62.21-1.59-.05-3.16-.8-4.12-2.22-.75-1.1-1.01-2.55-.76-3.78.04-.28.1-.53.18-.8.35-.95.75-1.06,1.57-.78.19.07.38.13.56.22.6.31.92.88.85,1.39-.06.76-.06,1.4.06,1.74.11.33.16.5.48.79.23.2.6.38.98.47.19.04.38.07.56.07.18,0,.28,0,.6-.1l.03.06Z"/><path class="cls-2" d="m100.78,261.16c1.09-.27,2.12-.83,2.7-1.59.22-.28.3-.59.37-.89.31-.98-.38-2.8-1.71-3.37-.6-.28-1.34-.32-2.04-.2-.92.14-1.72.61-2.66.95-.29.11-.37-.03-.31-.39.05-.37.27-1.03.85-1.37,1-.61,2.18-1.03,3.49-.98,1.3.01,2.69.7,3.49,1.78.43.62.88,1.25,1.14,2.06.25.8.29,1.72.04,2.54-.57,1.83-2,2.93-3.39,3.64-.44.21-.89.39-1.35.54-.54.15-1.09.23-1.62.21-1.59-.05-3.16-.8-4.12-2.22-.75-1.1-1.01-2.55-.76-3.78.04-.28.1-.53.18-.8.35-.95.75-1.06,1.57-.78.19.07.38.13.56.22.6.31.92.88.85,1.39-.06.76-.06,1.4.06,1.74.11.33.16.5.48.79.23.2.6.38.98.47.19.04.38.07.56.07.18,0,.28,0,.6-.1l.03.06Z"/><path class="cls-2" d="m102.94,336.57c3.07-.46,6.14-.95,9.22-1.47,1.12-.19,2.23-.45,3.35-.62,3.97-.61,7.95-1.19,11.93-1.72,1.77-.26,3.54-.52,5.29-.77,2.25-.29,4.51-.69,6.81-.57.72.06.65.36.09.83-.55.5-1.59,1.1-2.86,1.31-4.52.83-9.04,1.55-13.65,2.14-2.76.34-5.57,1.06-8.37,1.61-3.07.61-6.16,1.18-9.25,1.75l-5.72,1.01c-2.9.47-5.81.94-8.68,1.41-1.12.17-2.23.38-3.33.61l-3.32.61c-.49.09-.97.19-1.46.24-1.85.16-2.46-.01-2.91-.76-.1-.17-.23-.34-.3-.51-.22-.58.49-1.15,1.79-1.49,1.94-.48,3.92-.86,5.94-1.22,2.02-.37,4.07-.71,6.14-1.02,3.07-.46,6.16-.92,9.25-1.44l.02.07Z"/><path class="cls-2" d="m99.14,350.37c2.13-.26,4.26-.55,6.39-.88.78-.12,1.54-.31,2.32-.42,2.75-.4,5.51-.8,8.26-1.19,1.22-.18,2.43-.45,3.64-.67,1.55-.27,3.09-.68,4.7-.61.51.04.49.34.15.82-.33.51-1,1.12-1.87,1.34-3.08.86-6.2,1.47-9.42,1.88-1.92.23-3.86.8-5.8,1.19-2.13.43-4.28.8-6.44,1.16l-3.98.64c-2.02.3-4.04.6-6.04.9-1.56.24-3.06.64-4.61.92-.34.07-.67.16-1.02.19-1.28.11-1.71-.08-2.04-.84-.07-.17-.17-.34-.22-.52-.16-.59.32-1.13,1.21-1.43,1.33-.44,2.7-.73,4.09-1,1.39-.27,2.81-.52,4.24-.7,2.12-.28,4.27-.54,6.41-.86l.02.07Z"/><path class="cls-2" d="m96.7,362.61c1.55-.15,3.1-.31,4.64-.51.56-.07,1.11-.22,1.68-.29,2-.23,4.01-.45,6.01-.72.89-.12,1.76-.33,2.64-.48,1.12-.2,2.23-.53,3.41-.4.37.06.38.36.15.82-.22.49-.67,1.07-1.29,1.25-2.21.72-4.47,1.16-6.81,1.39-1.4.13-2.8.57-4.21.85-1.55.3-3.11.55-4.68.79l-2.89.43c-1.46.22-2.94.38-4.39.63-1.13.18-2.22.52-3.34.76-.25.06-.48.14-.74.17-.93.08-1.25-.12-1.5-.88-.06-.17-.13-.35-.17-.52-.13-.59.21-1.13.85-1.4.95-.41,1.93-.65,2.93-.88,1-.22,2.02-.41,3.05-.52,1.54-.18,3.09-.36,4.63-.54l.02.07Z"/><path class="cls-2" d="m203.66,353.31c1.13.65,2.34,1.17,3.6,1.56,1.27.35,2.58.61,3.89.66,1.28.04,2.69-.05,4.04-.27,1.35-.2,2.68-.52,3.93-1,1.84-.68,3.47-1.76,4.82-3.09,1.78-1.71,3.01-3.98,3.66-6.46.33-1.24.51-2.53.57-3.82.02-.65.02-1.3-.03-1.93l-.07-.68c-.02-.14-.05-.28-.1-.42-.03-.12-.16-.12-.26-.11-.1,0-.21.02-.31.04l-.16.03-.26.06-.71.17-2.89.76c-1.4.36-2.81.73-4.26,1.01-.73.14-1.47.26-2.24.31-.39.02-.79.03-1.21,0-.51-.04-1.06-.19-1.52-.44l-.2-.15c0-.12-.08-.15-.11-.23-.08-.15-.17-.29-.25-.44l-.16-.51-.11-.36c-.6-2.09-1.02-4.2-1.34-6.34-.17-1.07-.25-2.16-.26-3.25,0-1.09.01-2.2.26-3.28.58-1.32.41-1.09.63.04.11.29.15.62.24,1,.1.39.21.81.33,1.26.13.47.28.96.43,1.48.08.26.13.53.24.81.06.28.12.56.18.85.28,1.36.62,2.71.99,4.05l.58,2,.27.97s0,0,0,0h0s0,0,0,.01h.07s.11.01.16.01c.11,0,.22,0,.35,0,.49-.01,1.03-.08,1.58-.17,1.11-.19,2.25-.46,3.4-.76l3.5-.94.9-.24,1.1-.26c.55-.14,1.1-.2,1.61-.19.5.01.89.31,1.27.58.46.62.69,1.48.82,2.36.08.63.11,1.11.12,1.67.05,2.82-.36,5.68-1.46,8.39-1.07,2.7-2.96,5.17-5.35,6.84-2.63,1.88-5.71,2.85-8.75,3.29-.76.13-1.53.17-2.29.25-.79.02-1.58.07-2.36,0-.79-.02-1.56-.17-2.34-.28-.76-.18-1.53-.32-2.27-.58-1.83-.58-3.6-1.4-5.18-2.51-1.58-1.11-2.98-2.48-4.12-4.04-3.46-4.81-4.05-11.21-2.22-16.63,1.4-4.24,4.32-7.97,8.23-10.25.88-.44,1.71-.98,2.66-1.29,3.49-1.25,4.75-.97,5.58-.27.19.17.44.33.55.51.2.31-.04.65-.6.98-.56.34-1.46.61-2.56,1.03-.84.24-1.62.65-2.41.98-.4.17-.75.42-1.13.62-.38.2-.75.42-1.09.68-1.44.93-2.67,2.13-3.71,3.47-1.03,1.34-1.85,2.86-2.41,4.49-.54,1.63-.8,3.36-.85,5.09-.07,2.56.54,5.17,1.72,7.4,1.16,2.26,3.09,4.1,5.33,5.42l-.03.07Z"/><path class="cls-2" d="m228.61,330.96c-.03.18-.07.36-.1.54-.03.18-.15.32-.23.48l-.07.12-.03.06h0s0,0,0,0c-.02,0,.13.08.07.04h0s0,.02,0,.02l-.02.02c-.04.07-.09.13-.15.19l-.17.18-.24.14c-.29.2-.71.32-1.07.46-.39.09-.81.24-1.16.28-.88.19-1.75.37-2.63.53-.64.12-1.27.3-1.93.38l-1.06.11c-.5.06-1,.04-1.51.02-.16.01-.28-.08-.41-.11l-.2-.07-.1-.03h0s0,0,0,0c-.02.03.18-.29.1-.15h0s0-.01,0-.01l-.02-.02-.03-.03c-.17-.18-.34-.39-.52-.62-.16-.24-.19-.62-.29-.91l-.16-.7-.47-2.36c-.19-.98-.49-1.93-.69-2.89-.14-.62-.3-1.23-.42-1.85-.14-.62-.18-1.26-.1-1.93.22-.45.12-.38.51-.13.21.12.42.31.7.54.13.11.28.24.39.38.1.14.19.3.26.47,1.04,2.37,1.68,4.85,2.13,7.39.04.23,0,.18.02.26,0,.05,0,.11.01.17,0,.06.02.12.04.18.05.02.11,0,.16.02l.23-.03c.09-.01.16-.02.4-.08l1.21-.27c.82-.18,1.65-.39,2.47-.61l1.17-.33c.18-.04.37-.08.58-.13.06-.02.14-.03.17-.07.03-.05.04-.11.05-.17.01-.12,0-.24,0-.37-.02-.13-.03-.24-.08-.4-.06-.22-.14-.43-.24-.65-.54-1.29-1.52-2.48-2.76-3.29-.97-.62-2.1-.93-3.22-1.17-.25-.06-.49-.09-.73-.17-.93-.2-1.13-.57-1.15-1.42,0-.2-.02-.39-.01-.58.04-.63.57-1.05,1.42-1.09,2.48-.02,5.1,1.12,7.14,3.15.74.76,1.42,1.63,1.91,2.62.25.49.47,1,.63,1.55.21.73.38,1.63.32,2.39h-.08Z"/><path class="cls-2" d="m125.62,290.47c1.2-1.03,2.48-2.07,3.95-2.93,1.46-.85,3.16-1.56,4.99-1.69,1.37-.05,2.68.06,3.81.41,4.05,1.2,7.54,3.05,11.09,4.84,1.56.8,3.17,1.52,4.75,2.24,2.02.95,4.09,1.7,6.05,2.78.57.52.52.36-.13.51-.33.08-.79.12-1.35.15-.55.03-1.19-.01-1.81-.22-2.24-.67-4.42-1.43-6.5-2.39-2.09-.93-4.17-1.87-6.2-2.9-1.22-.61-2.49-1.14-3.79-1.57-1.29-.44-2.62-.8-3.86-.99-2.61-.55-5.25.77-7.58,2.61-1.43,1.14-2.85,2.43-4.22,3.72-2.07,1.98-4.13,4-6.04,6.13-1.48,1.65-2.79,3.4-4.15,5.13-.3.38-.57.77-.88,1.15-1.13,1.4-1.71,1.66-2.51,1.5-.18-.04-.38-.06-.54-.12-.53-.22-.41-1.09.28-2.25,2.2-3.33,4.93-6.49,7.82-9.55,2.15-2.27,4.4-4.46,6.76-6.58l.05.05Z"/><path class="cls-2" d="m102.86,311.59c-1.52.19-3.05.36-4.66.42-.81.03-1.62.04-2.59-.08l-.4-.07c-.17-.03-.34-.06-.5-.13-.33-.11-.66-.24-.96-.42-.29-.18-.56-.42-.78-.69l-.34-.39-.22-.32c-1.01-1.63-1.51-3.06-2.05-4.56-.51-1.48-.94-2.97-1.33-4.46-.75-3-1.33-6-1.61-9.17-.06-.81-.11-1.59-.07-2.51.06-1.28.36-2.75,1.55-3.32.29-.15.58-.28.88-.4.28-.11.66-.25.82-.28l1.11-.3c.74-.2,1.49-.4,2.22-.57,4.29-1.06,8.55-2.09,12.83-3.02,15.13-3.19,30.34-5.94,45.63-8.21,6.79-.96,13.62-1.99,20.42-2.66l3.28-.35,3.3-.24c1.1-.07,2.2-.17,3.31-.22l3.34-.04c.56,0,1.11,0,1.67,0,.16,0,.23-.01.46.02.21.03.43.07.64.11.42.08.78.29,1.15.46,1.34.86,2.02,2.01,2.57,3.09.55,1.09.87,2.23,1.09,3.35.21,1.13.4,2.25.43,3.38.01,1.42-.16,2.04-.31,2-.18-.03-.4-.69-.93-1.76-.54-1.05-1.24-2.56-2.31-4.09-.52-.75-1.03-1.57-1.62-2.13-.14-.13-.28-.28-.42-.35-.07-.04-.13-.11-.19-.13-.06-.02-.11-.03-.15-.06-.05-.04-.08-.02-.11-.02-.03.01-.05-.03-.07,0-.02.02-.02.03-.03.02.02,0-.06,0-.14,0h-.23c-8.61-.04-17.46.92-26.24,1.99-8.8,1.11-17.61,2.45-26.47,3.84-10.59,1.68-21.49,4.09-32.19,6.47-2.94.67-5.87,1.34-8.78,2.06l-2.14.57-.26.07-.12.03-.2.07c-.14.02-.26.12-.29.26-.05.13-.06.27-.07.41-.01.21-.02.62,0,.95.02.69.07,1.41.16,2.13.33,2.89.96,5.82,1.66,8.69.37,1.43.77,2.86,1.25,4.23.24.69.51,1.35.8,1.97.14.31.31.61.46.85.09.15.14.22.19.27.05.06.12.13.19.17.22.17,1.23.25,2.06.24.88,0,1.78-.07,2.68-.14,1.81-.16,3.64-.4,5.47-.67,3.66-.54,7.31-1.21,10.95-1.9,11.04-2.12,22.12-4.45,33.07-6.73,8.51-1.77,16.84-3.65,25.33-5.17,1.87-.33,3.7-.67,5.6-.95,7.05-1.01,9.39-.89,10.95-.18.36.16.82.32,1.03.49.68.58-2.13,1.13-7.2,1.9-7.52,1.16-15.23,2.71-23.05,4.3-7.82,1.6-15.74,3.31-23.69,5-5.9,1.26-11.83,2.51-17.78,3.7-5.96,1.18-11.91,2.35-18.03,3.21l-.03-.08Z"/><path class="cls-2" d="m338.88,137.43c-3.6.28-7.51-.36-10.71-2.65-1.57-1.12-2.88-2.58-3.81-4.29-.94-1.69-1.47-3.73-1.31-5.71.13-2.78,1.2-5.55,2.98-7.62,1.32-1.56,2.92-2.82,4.66-3.73,1.74-.92,3.57-1.63,5.48-1.98,1.91-.36,3.86-.48,5.82-.26l.73.13c.21.04.58.1.55.11.18.03.35.11.54.17l.28.09c.1.02.2-.05.2-.15.02-.18.02-.37.07-.56l.04-.2s.01-.08.01-.06l.07-.26c.09-.34.17-.69.3-1.01.23-.67.51-1.31.84-1.92,1.94-3.61,5.51-6.44,9.73-6.88,2.7-.24,5.37.61,7.48,2.18.27.18.52.41.76.63.25.21.48.45.7.7.43.51.79,1.08,1.08,1.67.59,1.19.89,2.52.76,3.8-.37,1.58-.37,1.26-.69.04-.26-.59-.57-1.4-1.26-2.11-.14-.19-.34-.35-.53-.52-.18-.18-.38-.34-.61-.49-.21-.16-.41-.33-.68-.44-.2-.18-.42-.34-.65-.49-1.26-.91-2.83-1.42-4.31-1.55-.75,0-1.47-.04-2.16.09-.71.14-1.43.34-2.1.68-1.35.65-2.58,1.67-3.51,2.92-.46.62-.88,1.29-1.18,2-.17.35-.28.72-.4,1.08l-.15.55c-.07.32-.07.5-.11.74l-.08.68c-.04.23-.06.51-.12.7l-.26.48c-.19.31-.28.68-.57.89-.15.13-.34.24-.51.31-.09.03-.14.07-.25.06l-.31-.03-1.22-.11-.6-.06-.3-.03-.35-.11c-.12-.03-.22-.08-.36-.1l-.32-.06-.33-.07c-.43-.12-.89-.16-1.35-.21-5.14-.56-11.11,2.27-13.43,6.83-.68,1.23-.91,2.65-1,4.02-.02,1.32.41,2.67,1.14,3.87,1.47,2.45,4.1,4.08,7.05,4.58,3.64.65,7.59-.13,11.07-1.74,1.02-.48,2.01-1.04,2.95-1.66.47-.31.93-.64,1.38-.99.23-.17.44-.35.66-.53.09-.07.28-.24.43-.38l.48-.44c.25-.23.51-.35.76-.53.24-.19.53-.3.85-.23.15.03.26.1.34.18l.35.24c.28.19.55.4.8.66l.34.22c.08.06.19.11.28.16.19.1.37.21.57.31.4.19.79.39,1.21.54,1.64.66,3.39,1.1,5.12,1.22,2.2.16,4.37-.32,6.1-1.41.46-.23.81-.63,1.22-.93.37-.33.68-.69.95-1.1.55-.8.92-1.73,1.11-2.7.17-.85.17-1.7.08-2.55-.23-1.56-.7-2.45-.98-3.13-.13-.35-.26-.62-.32-.91-.03-.32-.05-.61-.07-.89-.01-.26-.1-.55-.1-.75,0-.33.36-.36,1.23-.14.43.1.9.4,1.36.85.47.45.95,1.06,1.33,1.82,1.17,2.28,1.29,4.99.56,7.49-.38,1.25-.97,2.47-1.86,3.54-.45.53-.95,1.04-1.47,1.41l-.78.61c-.27.2-.57.34-.86.51-2.33,1.33-5.05,1.79-7.56,1.64-2.53-.17-4.93-.8-7.21-1.82-.41-.18-.82-.38-1.23-.62-.19-.1-.44-.24-.6-.35-.02-.02,0,0-.01-.01,0,0,0,0,0,0h0s-.02.02.02-.02l-.18.15c-.26.22-.52.44-.8.65-.54.43-1.1.82-1.67,1.21-1.14.76-2.35,1.42-3.6,1.99-2.5,1.13-5.17,1.89-7.96,2.14l-.02-.09Z"/><path class="cls-2" d="m190.95,195.57c-2.57,1.61-5.44,2.37-8.35,2.53-1.45.05-2.93-.01-4.48-.48-1.49-.48-2.92-1.29-4.01-2.57-.79-.92-1.39-2.12-1.56-3.39-.17-1.25.11-2.58.53-3.53.98-2.75,3.28-5.06,5.89-6.14,1.3-.57,2.65-.94,4.01-1.15.68-.09,1.36-.16,2.04-.19h1.02c.44,0,.42,0,.59.02.09.01.18.02.27.04l.14.02c.05,0,.06-.06.08-.1.05-.17.08-.35.12-.53l.1-.46.15-.66c.11-.44.23-.88.37-1.31.5-1.54,1.23-3.07,2.36-4.34,1.11-1.29,2.61-2.23,4.17-2.75,1-.31,2.08-.52,3.18-.48,1.09.04,2.18.28,3.17.76.99.49,1.83,1.28,2.41,2.2.58.93.85,2,.87,3.02-.07,1.28-.19,1.05-.54.09-.23-.46-.54-1.11-1.13-1.65-.56-.55-1.31-.96-2.13-1.22-1.2-.51-2.63-.64-3.87-.29-1.37.42-2.62.92-3.56,1.86-.96.9-1.64,2.16-2.11,3.58-.12.35-.22.73-.31,1.1l-.13.58-.06.3-.1.56c-.13.79-.3,1.62-.73,2.07-.1.12-.21.25-.39.29-.08.14-.26.13-.39.2-.23.15-.7.07-1.06.09-.24-.04-.47-.07-.7-.09-.12-.01-.23-.02-.34-.02l-.27-.02c-.22-.02-.45-.02-.68-.03-.45-.02-.91,0-1.37.01-2.15.11-4.34.78-5.96,2.1-.81.65-1.5,1.45-1.97,2.39-.28.44-.45.95-.63,1.45-.21.51-.25.93-.3,1.39-.02.97.34,1.9,1.09,2.65.73.75,1.77,1.32,2.87,1.6,1.07.28,2.38.32,3.59.24,1.23-.09,2.47-.33,3.65-.72.86-.28,1.7-.64,2.47-1.09.39-.22.77-.46,1.12-.73.17-.14.36-.26.52-.41l.27-.24c.15-.14.27-.26.4-.4.38-.23.7-.71,1.19-.56.46.06.94.27,1.4.45l1.85.74c2.27.88,4.61,1.6,6.97,1.88,2.33.29,4.78.08,6.58-1.17.7-.48,1.27-1.1,1.72-1.82.22-.35.42-.75.57-1.13l.17-.54c.06-.18.05-.37.08-.55.05-.74-.12-1.47-.47-2.14-.37-.67-.91-1.25-1.53-1.74-.55-.43-1.18-.72-1.83-.99-1.22-.48-2.09-.52-2.7-.73-.62-.14-1.02-.37-1.4-.66-.17-.14-.4-.25-.52-.38-.21-.21-.03-.47.54-.85.28-.22.68-.34,1.18-.45.25-.07.52-.11.81-.12.29,0,.62-.06.95-.01,1.97.21,3.97.98,5.53,2.48.79.73,1.46,1.65,1.89,2.75.44,1.08.63,2.36.39,3.58l-.08.46-.14.44c-.1.28-.2.6-.32.85-.22.48-.49.95-.79,1.41-.61.91-1.41,1.75-2.34,2.41-1.88,1.33-4.13,1.8-6.16,1.83-2.6.04-5.01-.51-7.29-1.21-1.14-.36-2.26-.75-3.35-1.17l-1.33-.52s-.04-.03-.06,0h-.01c.06-.05-.07.07-.15.14-.17.16-.35.32-.53.45-.36.29-.73.56-1.12.8l-.04-.05Z"/><path class="cls-2" d="m344.92,417.19c-2.24,1.55-4.78,2.35-7.37,2.61-1.3.11-2.62.11-4.05-.25-1.37-.37-2.7-1.04-3.76-2.16-.77-.81-1.37-1.88-1.58-3.05-.21-1.14-.01-2.38.33-3.24.75-2.48,2.7-4.64,4.95-5.73,1.12-.57,2.29-.96,3.47-1.2.59-.12,1.18-.21,1.78-.27.3-.04.6-.04.89-.06.19-.01.23,0,.28,0h.17c.09.02.17.02.25.03.08,0,.19.07.24,0,.06-.15.07-.32.1-.48l.15-.82c.08-.41.17-.82.28-1.23.38-1.39.97-2.79,1.93-3.98.94-1.2,2.24-2.11,3.62-2.66.88-.31,1.84-.55,2.83-.56.98-.01,1.97.16,2.88.55.91.4,1.69,1.1,2.24,1.91.55.82.82,1.77.86,2.68-.03,1.14-.17.93-.56.12-.25-.39-.58-.93-1.14-1.33-.54-.42-1.23-.68-1.93-.82-1.03-.34-2.23-.37-3.24,0-.29.11-.57.21-.83.35-.27.11-.53.23-.77.37-.49.28-.91.62-1.29,1.02-.74.8-1.28,1.89-1.61,3.15-.08.31-.16.64-.22.97l-.04.26-.05.36-.14,1.07c-.11.71-.35,1.28-.75,1.66-.23.21-.46.25-.7.38l-.99.09-1.14-.06h-.6c-.37,0-.73.01-1.1.04-1.85.15-3.71.82-5.02,2.01-.66.59-1.21,1.29-1.57,2.1-.22.39-.34.83-.47,1.26-.16.45-.17.78-.2,1.16.02.79.34,1.52.99,2.12.63.6,1.54,1.04,2.48,1.23.91.2,2.05.18,3.09.06,1.06-.12,2.12-.38,3.13-.77.72-.27,1.41-.61,2.05-1.01.33-.19.63-.42.92-.65.31-.26.49-.39.99-.95l.49-.4.24-.2h.02s0-.02,0-.02h0s-.03-.1.03.09h0s0,0,0,0h.04s.05-.03.07-.04l.15-.03.3-.04.32.07c.21.05.44.13.64.19l1.84.64c2.03.67,4.1,1.21,6.16,1.36,2.04.14,4.15-.13,5.62-1.29.58-.43,1.04-1,1.38-1.64.19-.3.31-.67.44-.99.08-.31.16-.62.15-.92,0-.61-.18-1.2-.5-1.74-.34-.54-.83-.99-1.37-1.37-.48-.34-1.04-.54-1.59-.74-1.05-.34-1.78-.36-2.31-.55-.53-.12-.89-.36-1.25-.67-.16-.14-.38-.26-.5-.39-.2-.22-.07-.49.42-.9.24-.23.59-.37,1.03-.51.44-.16.98-.22,1.58-.23,1.79.08,3.64.67,5.14,1.96.75.63,1.42,1.44,1.87,2.43.46.97.7,2.15.53,3.3-.02.29-.07.57-.16.84-.08.26-.16.57-.26.8-.2.44-.39.89-.66,1.32-.5.86-1.2,1.67-2.03,2.3-.82.64-1.75,1.12-2.69,1.43-.94.3-1.89.46-2.81.52-2.36.15-4.55-.25-6.62-.78-1.04-.28-2.06-.58-3.04-.91l-.73-.25c-.15-.05-.16-.06-.17-.06-.02-.02-.04-.02-.05,0-.03.02.03-.03-.08.07-.14.14-.29.28-.44.4-.29.26-.6.5-.92.72l-.05-.06Z"/><path class="cls-2" d="m463.56,244.51c.65.09,1.3.2,1.95.32.24.04.47.05.71.1.83.17,1.63.41,2.43.68.35.11.71.2,1.07.29.46.11.92.22,1.34.44.27.13-.26.6-.78.55-.93-.13-1.85-.24-2.76-.48-.54-.16-1.13-.19-1.7-.26-.63-.09-1.25-.17-1.89-.22-.39-.04-.78-.07-1.17-.08-.59-.02-1.19-.05-1.77,0-.46.05-.89.19-1.33.31-.1.02-.19.07-.29.09-.36.08-.49-.02-.62-.45-.03-.1-.07-.19-.09-.29-.08-.33.04-.63.32-.75.81-.36,1.7-.43,2.6-.42.67,0,1.33.07,1.99.13v.04Z"/><path class="cls-2" d="m298.87,248.82c.27.04.26.39.1.89-.05.16-.34.53-.44.55-.19.03-.38.07-.55.07-.1,0-1.36-.46-1.83-.55-.44-.11-.83-.28-1.21-.46-.78-.38-1.57-.71-2.36-1.05-.17-.08-.32-.2-.45-.35-.45-.5-1.02-.81-1.64-1.03-.1-.04-.19-.1-.35-.04-.26.1-1.86-.6-2.02-.78-.39-.47-.84-.83-1.25-1.27-.06-.07-.16-.06-.15-.25.02-.44-.16-.46-.31-.57-.19-.16-.4-.29-.55-.56-.08-.11-.06-.44-.09-.66-.02-.21.22-.59.28-.64.17-.1.19-.36.26-.54.03-.06.06-.15.09-.2.14-.29,1.91-.59,2.06-.51.07-.05,2.07.79,2.31.86.13.03.2.18.28.3.05.04,1.66.72,1.71.77.28.23.65.32.78.79.03.09.1.12.16.15.53.31.99.75,1.43,1.19.23.22.49.39.74.59.04.04.07.11.1.16.04.06.08.14.13.18.59.45,1.09,1.03,1.71,1.43.14.09.6.84.77.94.09.06.15.58.26.59Z"/><path class="cls-2" d="m310.42,240.65c.11.27-.31.33-1.01.28-.22-.02-.85-.22-.92-.31-.14-.18-.28-.35-.36-.51-.05-.1-.07-1.4-.12-1.85-.04-.44,0-.85.13-1.23l.67-2.38c.05-.18.14-.34.26-.49.41-.53.61-1.12.73-1.74.02-.1.07-.2-.01-.33-.14-.22.36-1.85.51-2.03.37-.45.75-.91,1.11-1.37.05-.07.04-.16.2-.18.36-.06.37-.23.45-.38.11-.21.24-.42.42-.61.09-.09.29-.15.46-.21.15-.06.57.13.61.18.11.14.34.13.52.18.06.02.14.04.19.06.1.04.52,1.59.49,1.74,0,.02-.06.52-.12,1.06-.04.54-.15,1.08-.15,1.2,0,.12-.12.21-.2.31-.04.05-.26,1.63-.28,1.69-.14.3-.12.65-.5.87-.08.04-.08.11-.09.18-.13.55-.41,1.05-.65,1.56-.12.26-.17.55-.26.82-.02.05-.07.08-.11.13-.04.05-.1.1-.12.17-.18.66-.52,1.26-.67,1.93-.03.15-.62.75-.64.93-.02.1-.58.27-.53.38Z"/><path class="cls-2" d="m29.05,413.97c-.34.15-.67-.04-.99-.4-.1-.11-.14-.5-.04-.57.18-.14.37-.28.56-.39.12-.06,2.02-.64,2.65-.89.62-.23,1.24-.4,1.86-.56,1.27-.33,2.54-.58,3.79-.92.28-.07.56-.11.85-.14.99-.07,1.95-.32,2.87-.66.15-.06.32-.09.44-.23.21-.21,2.71-1.09,3.05-1.15.86-.13,1.7-.33,2.56-.48.12-.02.23-.11.38-.04.34.15.57.01.83-.07.36-.11.71-.23,1.09-.29.19-.03.42.03.63.07.2.03.28.43.24.49-.1.18.1.3.18.44.03.05.06.11.08.16.03.1-1.7,1.65-1.93,1.74-.03.01-.77.38-1.55.77-.79.34-1.62.7-1.8.77-.18.08-.38.08-.58.1-.08.03-2.53.95-2.64.96-.53.11-1.03.33-1.61.24-.11-.02-.22.02-.32.05-.89.24-1.81.35-2.73.47-.47.06-.92.17-1.38.26-.08.01-.17,0-.26,0-.11,0-.22-.01-.32,0-1.09.22-2.21.2-3.29.41-.25.04-1.49-.05-1.77,0-.16.03-.73-.2-.87-.14Z"/><path class="cls-2" d="m32.27,404.6c-.23.11-.45,0-.68-.22-.07-.07-.11-.31-.05-.36.12-.1.24-.19.37-.27.08-.04,1.35-.48,1.78-.66.41-.17.83-.29,1.26-.41.86-.24,1.7-.5,2.54-.77.19-.06.38-.1.57-.12.67-.08,1.32-.24,1.94-.49.1-.04.22-.06.3-.16.14-.16,1.84-.75,2.07-.79.59-.07,1.16-.2,1.74-.31.08-.02.15-.08.26-.02.24.13.39.03.57-.03.24-.07.48-.15.74-.18.13-.02.29.05.44.09.14.04.21.36.19.41-.07.14.08.24.14.37.02.04.05.09.06.13.03.09-1.16,1.13-1.32,1.17-.02,0-.53.23-1.07.46-.53.22-1.09.45-1.22.5-.12.06-.26.05-.39.06-.06.01-1.7.63-1.78.63-.36.07-.69.22-1.09.15-.08-.01-.15.01-.22.03-.6.17-1.23.21-1.84.28-.32.04-.62.11-.93.16-.06,0-.12,0-.17,0-.07,0-.15,0-.22,0-.73.13-1.48.18-2.2.34-.17.03-1,.02-1.19.06-.11.02-.5-.1-.59-.06Z"/></svg>