<?xml version="1.0" encoding="UTF-8"?><svg id="Layer_1" xmlns="http://www.w3.org/2000/svg" width="520" height="520" viewBox="0 0 520 520"><defs><style>.cls-1{opacity:.45;}.cls-1,.cls-2,.cls-3{fill:none;}.cls-2{isolation:isolate;}.cls-4{fill:#242021;}.cls-5,.cls-6,.cls-7,.cls-8{fill:#231f20;}.cls-6{opacity:.2;}.cls-3{mix-blend-mode:multiply;}.cls-7{opacity:.55;}.cls-8{opacity:.65;}</style></defs><path class="cls-7" d="m223.52,310.12s3.19,4.46-2.88,12.22c-6.28,8.03-14.88,15.29-18.8,20.91-3.37,4.83-10.16,19.09-9.98,24.09.1,2.59-2.86-6.69-.33-12.05,2.54-5.36,8.53-16.24,8.53-16.24,0,0,18.73-19.32,20.31-21.72,1.58-2.4,3.14-7.22,3.14-7.22Z"/><path class="cls-7" d="m188.25,245.51s3.89.86,5.15,10.2c1.47,10.88-9.71,54.23-9.86,59.47-.19,6.84.6,10.93,7.35,4.14,8.39-8.43,22.61-17.69,27.11-10.86,0,0,3.34-1.29,3.18,1.8-.16,3.09,1.11-2.91-10.6-1.03-11.71,1.88-19.42,14.62-22.39,16.7-2.97,2.08-8.52,3.45-9.19-1.81-.68-5.25,5.15-32.65,5.15-32.65,0,0,7.08-33.41,6.14-37.01-.94-3.6-2.03-8.95-2.03-8.95Z"/><path class="cls-7" d="m368.37,300.7c-2.93-2.49-12.76-12.18-13.6-25.57-.33-5.26.55-14.33,1.42-18.42,1.29-7.02.07-6.91.07-6.91l4.01-2.22,1.5-.83,2.23-1.24s1.39.77,0,3.39c-1.4,2.63-4.39,9.3-4.47,14.38-.08,5.07,2.26,19.24,4.09,22.72,1.82,3.48,4.75,14.7,4.75,14.7Z"/><path class="cls-7" d="m338.45,199.93l-2.43,1.44c-.51.3-.9.77-1.1,1.32l-1.28,3.52s-7.61,5.47-8.67,7.89c-1.06,2.42-1.34,3.22-1.34,3.22,0,0-5.08,4.42-5.51,6.61-.42,2.18,0,8.46,0,8.46l2.78-.72-.32-8.13s5.95-6.74,7.11-7.73,8.56-7.38,8.56-7.38l2.2-8.5Z"/><path class="cls-5" d="m112.14,386.06s5,6.77,12.3,8.06c4.87.87-15.31-2.2-15.31-2.2l3.01-5.87Z"/><path class="cls-5" d="m85.95,417.54s15.36-23.8,19.76-25.61c4.41-1.82,20.52,2.9,26.94,6.49,6.41,3.59,19.65,14.33,20.67,17.54,1.01,3.21,1.01,21.59.19,25.11-.82,3.52-14.82,1.18-19.33-4.47-4.52-5.65-13.84-10.45-22.31-7.34-8.47,3.11-16.61-10.58-22.02-10.16s-3.89-1.56-3.89-1.56Z"/><path class="cls-5" d="m175.48,272.57c-.67,1.93-1.31,3.88-2.01,5.8-.25.7-.45,1.42-.7,2.13-.89,2.48-1.78,4.96-2.67,7.43-.4,1.1-.76,2.21-1.12,3.32-.42,1.43-.95,2.83-1.68,4.16-.22.42-.21.36-.21-.05,0-.21-.01-.5-.04-.86-.04-.36-.04-.78.04-1.2.18-1.53.66-2.98,1.05-4.45.39-1.47.95-2.9,1.48-4.34.66-1.71,1.13-3.56,1.71-5.35.62-1.96,1.29-3.92,1.96-5.87l1.22-3.61c.6-1.82,1.23-3.65,1.78-5.48.4-1.42.8-2.82,1.2-4.24.09-.31.17-.62.27-.93.39-1.14.67-1.46,1.04-1.61.09-.03.18-.09.25-.1.25-.04.31.49.22,1.39-.4,2.62-.98,5.33-1.85,7.97-.6,1.97-1.26,3.93-1.89,5.9h-.05Z"/><path class="cls-5" d="m196.17,147.65c-5.61,1.62-11.24,3.17-16.91,4.61-2.07.52-4.12,1.12-6.2,1.59-3.67.84-7.37,1.58-11.09,2.21-3.72.64-7.46,1.13-11.24,1.41-3.35.24-6.72.45-10.07.33-1.07-.04-2.15-.15-3.23-.22-1.07-.14-2.15-.27-3.21-.47-1.06-.24-2.13-.43-3.14-.87l-1.52-.58c-.49-.23-.96-.52-1.44-.78-1.17-.68-.97-.63.18-.5,1.15.14,3.24.15,5.58.39,8.26,1.16,16.79.2,25.32-.96,5.13-.68,10.36-2.04,15.5-3.34,5.66-1.43,11.3-2.99,16.92-4.64,3.46-1.01,6.91-2.05,10.35-3.13,5.21-1.63,10.46-3.24,15.62-4.95,4.01-1.33,7.89-2.79,11.85-4.13.87-.3,1.72-.62,2.61-.89,1.64-.53,2.77-.72,3.58-.77.82-.05,1.33.09,1.79.38.21.13.47.25.61.4.48.5-.73,1.38-3.06,2.33-6.95,2.66-14.4,5.06-21.92,7.45-5.58,1.77-11.22,3.49-16.86,5.19l-.03-.07Z"/><path class="cls-5" d="m266.97,379.32s47.6-16.68,50.62-15.93c3.03.75-17.07,7.58-15.68,8.97,1.39,1.39-34.94,6.96-34.94,6.96Z"/><path class="cls-5" d="m371.26,314.19s5.06,4.28,4.9,3.24.76,15.77.76,15.77l-5.66-19.01Z"/><path class="cls-5" d="m383.98,242.3s-.58-2.47,1.07-6.02c1.65-3.55-6.17,1.44-6.17,1.44l5.09,4.58Z"/><polygon class="cls-5" points="364 245.51 354.97 250.53 358.06 241.42 364 245.51"/><polygon class="cls-5" points="323.63 220.09 326.31 228.52 326.31 219.35 323.63 220.09"/><path class="cls-5" d="m333.55,220.75s-1.23-8.86,0-10.45,3.9-1.09,3.9-1.09l-3.9,11.53Z"/><path class="cls-5" d="m344.52,223.15s.53,16.07-.65,18.27c-1.18,2.2,3.21-14.12,3.21-14.12l-2.56-4.15Z"/><path class="cls-5" d="m358.64,216.66s4.62-.14,6.21-2.55c.54-.82-3.51,5.8-4.34,4.8-.83-1-1.87-2.25-1.87-2.25Z"/><path class="cls-5" d="m356.78,243.06c-3.81-1.55-10.6-9.81-10.6-13.38l.89-.18,7.89,10.16,1.81,3.39Z"/><path class="cls-5" d="m391.36,402.25s-6.04-19.25-6.75-26.12c-.71-6.87,0-16.15,0-16.15,0,0,10.62,1.53,18.1-4.83,7.48-6.36,28.18-22.64,28.95-27.16s10.18,7.34,10,7.91,17.92,29.85,18.78,31c.86,1.15-.79,7.21-12.61,8.15s-16.69,6.02-19.43,12.61-14.69,16.38-23.45,13.74c-7.78-2.35-13.59.84-13.59.84Z"/><path class="cls-5" d="m392.33,348.89s-9.6,7.91-6.76,10.45,8.77-.16,8.77-.16l-2.01-10.29Z"/><path class="cls-5" d="m417.27,344.72c-1.81,1.59-3.69,3.1-5.61,4.55-.69.55-1.37,1.1-2.09,1.61-2.54,1.77-5.18,3.42-7.97,4.81-.61.32-1.25.6-1.88.89-.63.28-1.24.61-1.91.82l-1.25.48c-.41.17-.88.21-1.32.31-.45.07-.88.18-1.34.19-.46.01-.93-.1-1.37-.15-.56-.09-.47-.17-.03-.46.22-.15.52-.36.86-.62.17-.13.35-.19.55-.31.19-.12.4-.23.61-.32l1.14-.47c.37-.2.76-.35,1.14-.52.77-.29,1.51-.72,2.27-1.09.77-.35,1.48-.83,2.26-1.19.78-.36,1.52-.81,2.3-1.21,1.85-.97,3.54-2.37,5.25-3.67,1.88-1.43,3.71-2.92,5.53-4.46,1.09-.97,2.2-1.92,3.26-2.93,1.61-1.52,3.2-3.07,4.65-4.72.56-.65,1.09-1.31,1.59-1.98l1.48-2.05c.21-.31.42-.61.63-.91.81-1.12,1.25-1.33,1.96-1.16.16.04.34.06.48.12.47.19.5.93-.02,1.84-1.54,2.71-3.64,5.22-5.89,7.59-.83.89-1.69,1.75-2.57,2.58-.87.85-1.77,1.67-2.67,2.49l-.05-.04Z"/><path class="cls-5" d="m378.88,237.72c11.21-8.01,6.8-22.48-1.96-22.48s-11.48,7.91-11.48,7.91l13.44,14.57Z"/><path class="cls-5" d="m320.53,233.24c.3-.6-9.76-.53-15,6.73-2.16,3-3.68,6.22-3.62,12.12.14,13.9,16.99,23.65,30.71,14.22,4.36-2.99,5.14-8.01,5.14-8.01l-14.7-9.76s-2.56-15.26-2.53-15.3Z"/><path class="cls-6" d="m287.12,236.33c0,22.22-18.01,40.23-40.23,40.23-33.92,0-52.74-41.38-30.11-66.92,7.57-8.54,18.71-13.54,30.11-13.54,22.22,0,40.23,18.01,40.23,40.23Z"/><path class="cls-5" d="m150.26,402.85l1.08-3.47c.13-.42.17-.86.31-1.29.5-1.49.97-2.98,1.55-4.45.24-.66.43-1.33.61-1.99.12-.43.23-.86.37-1.28.16-.42.41-.81.66-1.19.17-.23.44-.1.7.24.26.33.58.87.58,1.38-.28,1.73-.46,3.47-1.14,5.14-.41,1-.49,2.12-.72,3.19l-.83,3.53-.55,2.18c-.26,1.1-.57,2.21-.77,3.32-.14.87-.14,1.76-.24,2.65-.02.2-.02.4-.05.59-.17.72-.45.89-1.29.78-.19-.02-.39-.04-.57-.08-.63-.14-1.06-.57-1.11-1.1-.16-1.57.06-3.12.44-4.68.26-1.16.59-2.32.88-3.5h.08Z"/><path class="cls-5" d="m118.83,374.02c-.66,1.58-1.33,3.14-2.02,4.7-.25.57-.42,1.17-.7,1.72-.98,1.97-2.03,3.89-3.09,5.8-.46.85-.87,1.73-1.32,2.58-.29.54-.57,1.1-.87,1.63-.31.54-.65,1.06-1.18,1.46-.38.23-.44.13-.62-.34-.09-.24-.18-.54-.26-.9-.05-.34-.01-.68.12-1.01.85-2.32,1.92-4.51,3.16-6.68.75-1.29,1.17-2.79,1.75-4.2.63-1.55,1.28-3.1,1.87-4.67.37-.96.73-1.94,1.06-2.91.5-1.48,1.03-2.97,1.39-4.49.28-1.18.37-2.38.52-3.58.03-.26.04-.53.08-.79.18-.97.5-1.21,1.37-1.22.2,0,.4-.02.6,0,.66.06,1.09.58,1.12,1.34.04,2.24-.53,4.47-1.2,6.68-.5,1.64-1.11,3.25-1.7,4.87l-.07-.02Z"/><path class="cls-5" d="m266.14,380.06c4-1.13,7.98-2.35,12.01-3.38l6.02-1.6,6.05-1.49,4.41-1.11c1.47-.36,2.95-.69,4.43-1.02,10.43-2.31,20.94-4.21,31.49-5.82,4.67-.77,9.39-1.41,14.04-2.09,2.99-.37,6-.75,9-1.13,1.5-.2,3.01-.28,4.52-.37,1.51-.08,3.02-.2,4.53-.2,1.9.17,1.65.25.12.92-.77.35-1.87.68-3.2,1.05-1.33.34-2.89.76-4.61.93l-9.1,1.25c-3.03.45-6.05.96-9.09,1.37-6.07.93-12.14,1.89-18.24,2.93-3.66.56-7.33,1.42-11.05,2.19-3.71.81-7.4,1.76-11.09,2.6-4.03,1.01-8.08,1.99-12.1,3.04-4.01,1.11-8.05,2.11-12.03,3.32l-7.37,2.18-7.32,2.34c-3.7,1.18-7.35,2.51-11.02,3.76-3.65,1.32-7.27,2.71-10.85,4.1-2.76,1.15-5.48,2.33-8.18,3.53-2.69,1.22-5.33,2.52-8.01,3.77-1.18.55-2.32,1.12-3.49,1.71-4.36,2.14-5.86,2.59-7.18,2.27-.3-.07-.67-.11-.88-.23-.72-.39.84-1.74,4-3.47,9.39-5.07,19.73-9.54,30.32-13.43,3.91-1.5,7.91-2.8,11.87-4.19,4-1.28,7.99-2.59,12.01-3.81l.03.07Z"/><path class="cls-5" d="m386.34,375.57c.13,1.33.26,2.66.44,3.98.14,1.33.34,2.65.56,3.98.14.97.41,1.91.58,2.87.62,3.39,1.36,6.77,2.31,10.1.38,1.49.92,2.94,1.43,4.38.36.91.72,1.82,1.02,2.76l.48,1.4c.16.46.22.97.33,1.46.11.62-.03.59-.49.23-.3-.24-.62-.51-.94-.77-.35-.34-.69-.77-.97-1.27-1.02-1.78-1.75-3.69-2.47-5.6-.73-1.91-1.29-3.88-1.7-5.9-.53-2.4-1.28-4.84-1.81-7.3-.57-2.7-1.03-5.42-1.36-8.16l-.29-2.53-.23-2.53c-.23-2.56-.3-5.14-.44-7.68-.07-1.98-.33-3.92-.36-5.89-.01-.43-.04-.86-.02-1.29.12-1.62.44-2.11,1.08-2.42.15-.07.3-.16.44-.2.47-.12.86.56,1.1,1.72.58,3.45.49,7.02.74,10.62.06,1.34.17,2.67.25,4.02.13,1.34.21,2.68.38,4.02h-.07Z"/><path class="cls-5" d="m390.57,342.28c-.28-2.33-.63-4.66-1.07-6.98-.15-.85-.42-1.67-.58-2.51-.61-2.97-1.22-5.97-1.99-8.92-.33-1.31-.77-2.6-1.2-3.87-.26-.82-.56-1.64-.78-2.47-.23-.84-.42-1.69-.59-2.55-.1-.54.14-.55.58-.22.43.33,1.15.96,1.66,1.84.46.78.78,1.61,1.16,2.42.35.82.63,1.67.93,2.51.58,1.69,1.09,3.4,1.49,5.16.49,2.1,1.19,4.22,1.73,6.36.57,2.35,1.06,4.73,1.48,7.11l.37,2.2.31,2.21c.32,2.23.51,4.5.79,6.72.09.87.23,1.72.38,2.57.14.85.22,1.71.32,2.57.04.38.1.75.1,1.14.02,1.43-.35,1.89-1,2.19-.15.07-.3.16-.44.2-.24.07-.46-.04-.69-.29-.23-.25-.48-.64-.62-1.15-.38-1.49-.73-3.01-.95-4.55-.21-1.54-.37-3.1-.56-4.67-.14-1.17-.28-2.33-.42-3.5l-.51-3.51.08-.02Z"/><path class="cls-5" d="m376.88,331.8l-.62-6.25c-.08-.76-.22-1.51-.29-2.27-.26-2.68-.5-5.36-.82-8.03-.15-1.18-.3-2.37-.48-3.54-.11-.75-.26-1.5-.34-2.26-.07-.76-.12-1.52-.15-2.29-.01-.48.16-.45.45-.09.28.36.75,1.03,1.04,1.87.45,1.5.74,3.03,1.05,4.56.26,1.54.42,3.09.55,4.66.15,1.87.54,3.79.81,5.68l.82,6.27.47,3.86c.25,1.95.48,3.9.82,5.82.24,1.49.57,2.94.86,4.41.06.32.12.64.16.97.14,1.22.07,1.63-.27,1.96-.08.07-.15.17-.23.22-.26.17-.6-.28-.93-1.14-.52-1.27-.91-2.61-1.26-3.97-.17-.68-.35-1.37-.5-2.06-.11-.7-.23-1.4-.35-2.1-.32-2.08-.58-4.19-.86-6.28h.05Z"/><path class="cls-5" d="m345.08,166.25l-1.5-10.39c-.19-1.26-.44-2.51-.61-3.78-.56-4.47-.99-8.95-1.49-13.42-.2-1.99-.51-3.97-.73-5.93-.27-2.53-.63-5.06-.58-7.62.04-.8.17-.71.54-.08.4.63.97,1.8,1.26,3.23,1.14,5.07,1.82,10.18,2.43,15.36.34,3.1,1.06,6.27,1.56,9.42l1.7,10.39,1.1,6.39c.59,3.22,1.09,6.48,1.74,9.66.48,2.48,1.23,4.86,1.71,7.32.11.54.24,1.06.34,1.61.32,2.04.15,2.73-.39,3.28-.13.13-.25.28-.38.36-.43.28-1.01-.47-1.57-1.9-1.62-4.24-2.51-8.86-3.42-13.5-.69-3.44-1.22-6.94-1.79-10.42l.07-.02Z"/><path class="cls-5" d="m298.79,254.78c-.13,4.52,1.34,9.08,4.23,12.61,1.06,1.28,2.33,2.37,3.66,3.38,4.7,3.52,11.18,4.65,17.15,3.26,2.65-.57,5.22-1.69,7.37-3.3.69-.51,1.31-1.1,1.97-1.66l.87-.94c.3-.31.59-.62.82-.98,1.08-1.34,1.88-2.81,2.85-4.34.66-.95.63-.85.75.2.04.3.09.63.14.99.12.42.07.83,0,1.28-.07.46-.16.95-.3,1.48-.07.26-.14.54-.25.79-.14.24-.27.5-.43.74-.28.44-.53.9-.84,1.31l-.98,1.2c-.62.85-1.45,1.46-2.21,2.17-.81.63-1.66,1.22-2.53,1.76l-1.35.73-.68.36-.71.29c-.94.39-1.89.78-2.88,1.02-.49.13-.98.26-1.48.37l-1.51.23c-2.01.3-4.05.27-6.06.08-.6-.07-1.2-.19-1.8-.28l-.9-.14-.89-.22c-.6-.15-1.2-.29-1.79-.45l-1.76-.63c-.6-.18-1.15-.48-1.71-.76-.55-.29-1.15-.52-1.66-.87-1.07-.64-2.08-1.37-3.02-2.18-4.13-3.58-6.8-8.73-7.43-14.06-.38-3.28-.13-6.61.77-9.74,1.33-4.76,4.03-9.11,7.77-12.32,2.85-2.54,6.48-4.26,10.38-4.69.85-.08,1.7-.09,2.57-.09,3.2.3,4.09.99,4.46,1.99.08.23.2.48.22.69.03.36-.29.59-.86.72-.29.07-.63.09-1.03.08-.4-.01-.84-.07-1.34-.07-2.95-.22-5.87.26-8.48,1.49-2.62,1.23-4.88,3.3-6.71,5.72-2.67,3.67-4.27,8.2-4.32,12.76h-.09Z"/><path class="cls-5" d="m320.96,246.62c-.42-2.69-.62-5.29-.83-7.92-.08-.96-.22-1.91-.28-2.86-.19-3.37-.29-6.74-.33-10.14v-1.15s0-.3,0-.3c0-.12-.01-.26.01-.4.06-.27.05-.56.17-.81.13-.24.3-.47.48-.69l.38-.46.74-.86c.63-.73,1.3-1.41,1.98-2.08.35-.33.68-.67,1.08-.95.4-.28.82-.54,1.26-.78.56-.29.65-.07.61.59-.02.33-.05.79-.15,1.3-.05.25-.09.53-.19.78-.11.24-.24.47-.41.69-.59.76-1.16,1.55-1.76,2.29-.6.64-1.49,1.65-1.29,1.38,0,0-.01,0-.02.03l-.02.28c-.02.2-.02.46-.03.69l-.05,1.43c-.04.97-.08,1.94-.11,2.91-.1,2.34.18,4.75.31,7.13.15,2.61.31,5.24.59,7.82.08.8.19,1.59.32,2.35.08.34.14.81.23,1,.02.06.03.13.06.18.04.04.07.08.1.12.07.09.25.23.37.34,1.81,1.46,3.95,2.8,6.02,4.05,1.62.97,3.29,1.8,4.94,2.73.36.21.73.38,1.09.61.66.41,1.08.73,1.31,1.04.21.34.26.64.22.97-.02.15-.02.31-.06.44-.07.21-.29.29-.62.28-.32-.02-.79-.09-1.27-.36-2.94-1.49-6-3.24-9.01-5.15-1.12-.72-2.24-1.43-3.38-2.24-.29-.22-.56-.4-.88-.69-.16-.15-.28-.21-.52-.49-.11-.12-.21-.24-.3-.37-.07-.12-.12-.25-.18-.38-.1-.24-.24-.56-.27-.74l-.13-.54c-.1-.37-.16-.72-.22-1.05h.06Z"/><path class="cls-5" d="m326.13,241.24c-.25-3.22-.45-6.43-.62-9.64-.07-1.17-.22-2.34-.26-3.51-.08-2.07-.14-4.14-.17-6.21l-.03-3.12v-.79c.03-.27-.04-.48.07-.94l.11-.59c.05-.18.14-.34.21-.5.14-.34.32-.59.49-.84.62-.88,1.3-1.57,1.99-2.24.68-.68,1.39-1.29,2.09-1.91.9-.78,1.86-1.49,2.83-2.17.98-.67,1.97-1.31,3.12-1.7.8-.12.76-.01.58.79-.09.41-.28.89-.52,1.46-.26.53-.64,1.05-1.12,1.51l-2.53,2.4c-.86.74-1.71,1.5-2.47,2.25-.37.38-.72.76-1.01,1.12-.16.18-.25.33-.39.49-.05.12-.17.24-.16.26,0,.02-.04.03-.05.05,0,.05-.01.26-.02.38l-.04.87-.08,1.78c-.13,2.86.21,5.82.36,8.75.17,3.22.32,6.44.53,9.65.13,1.97.26,3.96.48,5.9.05.36.08.75.14,1.08l.08.52.13.4c.06.27.27.58.4.87l.56.89c.82,1.17,1.82,2.28,2.84,3.34,1.6,1.65,3.37,3.08,5.09,4.65.38.35.77.67,1.14,1.05.68.7,1.09,1.23,1.26,1.72.07.26.09.46.07.68-.04.23-.12.43-.23.61-.1.17-.17.35-.28.46-.18.18-.46.15-.85.05-.2-.03-.39-.12-.63-.25-.24-.11-.42-.3-.68-.52-1.45-1.29-3.04-2.66-4.61-4.12-1.57-1.47-3.14-3.02-4.62-4.8l-.82-1.04c-.27-.36-.53-.77-.78-1.15l-.36-.69-.18-.35c-.06-.13-.11-.29-.16-.43-.09-.28-.21-.63-.25-.86l-.12-.68c-.26-1.71-.4-3.31-.57-4.94h.08Z"/><path class="cls-5" d="m331.89,230.24c.29-3.36.69-6.71,1.14-10.05.16-1.22.23-2.45.41-3.66.68-4.29,1.4-8.55,2.56-12.84.15-.48.29-.96.46-1.45.07-.24.19-.5.29-.75.09-.23.25-.54.45-.86.23-.28.45-.56.77-.74.16-.09.31-.18.48-.26l.38-.16c.48-.21.94-.37,1.4-.54,1.2-.38,2.39-.74,3.61-1.01,1.21-.3,2.48-.43,3.8-.23.43.17.6.3.58.39,0,.1-.21.2-.49.49-.28.31-.67.62-1.13,1.02-.23.19-.48.41-.75.58-.28.15-.58.29-.9.4-1.13.39-2.27.81-3.36,1.26-.54.23-1.1.41-1.57.61l-.16.07s0,0-.02,0h-.02s-.01,0-.02,0h0s-.05.08-.05.08c-.36.79-.67,2.01-.99,3.13-.32,1.15-.61,2.35-.91,3.55-.72,2.88-.94,5.98-1.33,9-.42,3.33-.8,6.66-1.16,10-.21,2.06-.41,4.11-.55,6.17l-.13,2.33c-.03.75-.06,1.58-.02,2.22.07.57.31,1.28.62,1.95.3.68.66,1.35,1.04,2.01,1.21,2.05,2.65,3.93,4.1,5.84.32.42.65.82.96,1.26,1.14,1.63,1.32,2.3.8,3.11-.11.18-.21.39-.34.53-.44.46-1.35.11-2.25-1-1.37-1.63-2.7-3.4-4.02-5.25-1.29-1.9-2.57-3.77-3.57-6.25-.18-.46-.35-1-.47-1.64-.06-.39-.06-.62-.07-.87-.02-.26-.01-.47-.02-.71,0-.9.02-1.77.06-2.63.07-1.72.18-3.42.3-5.12h.08Z"/><path class="cls-5" d="m408.44,258.16c.75-4.99,1.82-9.86,2.79-14.71.48-2.42.95-4.84,1.31-7.25.36-2.4.66-4.82.58-7.09-.02-.82-.13-1.62-.33-2.27-.05-.17-.1-.33-.17-.45-.06-.13-.11-.26-.22-.42-.18-.3-.42-.62-.67-.93-1.02-1.25-2.32-2.44-3.64-3.58-4.73-4.02-10.07-7.5-15.48-10.77-5.44-3.24-11.05-6.23-16.82-8.84-2.56-1.15-5.17-2.21-7.81-3.11-2.64-.89-5.34-1.66-7.97-1.94-1.66-.15-3.43-.13-4.14.77-1.08,1.05-1.91,2.62-2.68,4.16-.77,1.57-1.5,3.19-2.22,4.84l-1.11,2.48c-.18.42-.41.81-.63,1.22-.23.4-.42.82-.7,1.19-.66.96-1.05,1.32-1.18,1.21-.14-.11-.05-.69,0-1.7.11-2.03.51-5.53,2.14-9.54.78-1.76,1.65-3.52,3.01-5.25l.55-.64c.2-.21.43-.42.64-.62.17-.18.55-.46.9-.68.34-.18.7-.36,1.02-.46,1.34-.45,2.47-.44,3.54-.41,2.13.11,4.03.55,5.9,1.05,1.86.51,3.66,1.12,5.44,1.79,7.06,2.69,13.73,6.11,20.2,9.9,3.86,2.28,7.78,4.65,11.62,7.2,3.82,2.59,7.64,5.24,10.96,8.74.45.49.89,1.01,1.3,1.58.21.28.4.59.59.91.17.34.38.74.49,1.09.49,1.47.56,2.83.59,4.16.01,2.65-.33,5.18-.7,7.69-.78,5-1.83,9.9-2.74,14.8-.57,3.01-1.12,6.02-1.5,9.04-.19,1.51-.35,3.01-.42,4.51-.09,1.5-.04,2.97.05,4.51.4,9.22,2.11,18.43,4.73,27.23,2.05,6.85,4.69,13.36,7.63,19.79.64,1.42,1.32,2.78,1.99,4.2,2.49,5.26,3.21,6.97,3.02,8.47-.03.34-.02.75-.1.98-.22.75-1.89-1.09-3.89-4.91-5.97-11.3-11.12-23.97-14.1-37.35-1.11-4.96-1.89-10.02-2.32-15.11-.14-1.27-.16-2.55-.25-3.83-.09-1.25-.1-2.64-.05-3.94.12-2.62.41-5.18.78-7.7h.08Z"/><path class="cls-5" d="m363.09,214.55c.31-.53.55-1.13.77-1.74.08-.22.07-.47.15-.69.27-.81.47-1.65.68-2.51.09-.38.1-.77.12-1.15-.01-.49,0-.99.23-1.49.07-.15.32-.13.62,0,.29.13.67.38.77.67.22,1.03.31,2.09.02,3.14-.19.62-.14,1.29-.26,1.95-.12.71-.33,1.43-.55,2.13-.16.43-.31.86-.51,1.27-.27.64-.67,1.23-1,1.85-.28.47-.45,1.02-.76,1.52-.06.11-.11.24-.2.34-.32.36-.57.3-1.1-.21-.12-.12-.24-.23-.35-.35-.36-.41-.55-.91-.48-1.19.21-.82.59-1.34.97-1.99.27-.48.57-.98.82-1.54l.06.02Z"/><path class="cls-5" d="m382.3,212.62c2.88,1,5.57,3.09,7,5.89.52,1.01.93,2.06,1.13,3.15.32,1.93.22,3.79-.15,5.61-.39,1.82-1.15,3.52-2.14,5.03-.88,1.34-1.95,2.56-3.2,3.54-.79.65-1.67,1.18-2.58,1.62-.47.19-.94.4-1.45.46l-.75.14c-.25.02-.51,0-.77,0-.64-.03-.56-.19-.15-.63.42-.45,1.08-1.26,1.89-1.8,1.53-.83,2.78-2.04,3.84-3.36,1.07-1.32,1.88-2.85,2.42-4.5.34-.98.39-2.07.32-3.15-.07-1.07-.31-2.12-.67-3.07-.4-1.05-.95-2.03-1.67-2.88-.73-.85-1.65-1.56-2.68-2.09-1.27-.66-2.74-1.09-4.21-1.23-2.22-.21-4.54.19-6.54,1.26-1.56.84-2.78,2.13-3.84,3.47-.24.3-.41.63-.68.91-.9,1.1-1.32,1.36-2.21,1.19-.2-.04-.41-.05-.59-.11-.6-.19-.74-1.03-.26-2.19.7-1.73,1.94-3.27,3.43-4.59,1.5-1.32,3.34-2.37,5.35-2.99,2.99-.91,6.32-.75,9.21.24l-.02.09Z"/><path class="cls-5" d="m215.25,309.07c-1.7.19-3.43.64-5.03,1.29-1.56.63-3.12,1.63-4.62,2.65-2.98,2.14-5.71,4.73-8.38,7.46-1.34,1.36-2.67,2.76-4.07,4.15-.7.69-1.43,1.38-2.22,2.06-.43.33-.79.68-1.28.99-.24.16-.46.32-.71.47l-.86.43c-.56.24-1.05.36-1.57.54-.51.17-1.11.24-1.66.35-.57.08-1.2.08-1.81.06-.64-.11-1.28-.17-1.91-.48-.65-.22-1.19-.67-1.72-1.08-.45-.48-.91-.98-1.18-1.52-.36-.53-.52-1.08-.75-1.62-.16-.54-.32-1.08-.42-1.61-.57-3.11-.37-6.04-.08-8.93.33-2.88.84-5.7,1.48-8.48.56-2.45,1.21-4.87,1.88-7.27l.99-3.55.09-.36.09-.48.21-.94.44-1.83c1.21-4.83,2.46-9.61,3.58-14.42,1.11-4.81,2.13-9.64,2.83-14.49.34-2.43.61-4.86.68-7.28.03-1.21.02-2.41-.1-3.58-.11-1.17-.32-2.33-.75-3.3-.18-.43-.42-.81-.7-1.1-.14-.15-.28-.27-.44-.37-.07-.05-.16-.1-.24-.13-.05-.03-.11-.05-.18-.07-.13-.04-.26-.06-.39-.06-.13.03-.23.13-.32.22-.05.05-.09.09-.13.15-.06.07-.15.17-.22.27-.15.2-.3.41-.44.63-1.15,1.76-2.13,3.74-3.08,5.7-1.87,3.95-3.6,7.98-5.22,12.01-4.12,10.39-7.84,21.04-10.67,31.78-.38,1.69-.51,2.42-.63,2.36-.11-.06-.2-.92-.13-2.43.06-1.5.27-3.63.66-6.18.43-2.54,1.16-5.46,2.11-8.57,1.71-5.51,3.6-10.94,5.64-16.33,2.06-5.38,4.19-10.73,6.85-15.95.67-1.31,1.36-2.6,2.22-3.91.22-.33.45-.66.73-1,.12-.17.42-.49.65-.71.25-.24.52-.44.82-.58.6-.31,1.3-.26,1.96-.12.32.06.69.18.98.33.27.11.49.28.74.42.92.66,1.49,1.54,1.88,2.35.39.83.61,1.64.78,2.44.32,1.59.4,3.12.41,4.63,0,3.01-.32,5.94-.73,8.84-.42,2.9-.95,5.76-1.54,8.61-1.41,6.81-3.14,13.68-4.77,20.55-.2.86-.39,1.71-.55,2.55l-.13.66c-.06.28-.11.49-.17.72l-.34,1.31c-.46,1.72-.92,3.42-1.34,5.13-.84,3.42-1.6,6.84-2.11,10.26-.28,1.88-.48,3.76-.53,5.62-.04,1.85.07,3.7.55,5.3.28.75.59,1.51,1.08,1.95.48.44,1.01.78,1.75.82.34.07.75,0,1.13,0,.41-.09.81-.14,1.23-.25l1.24-.41c.32-.17.65-.3,1-.57,1.4-.97,2.77-2.37,4.11-3.72l4.07-4.18c2.77-2.77,5.69-5.5,9.07-7.7.5-.36,1.06-.66,1.59-.97.53-.32,1.09-.61,1.68-.89,1.16-.53,2.36-.94,3.58-1.26,2.44-.62,5-.96,7.66-.39,1.31.3,2.7.92,3.69,2.09.27.25.44.65.65.99.19.35.26.76.38,1.14.04.38.07.77.07,1.15-.05.36-.08.73-.15,1.08-.31,1.39-.94,2.52-1.59,3.6-.65,1.09-1.41,2.06-2.17,3.03-2.34,2.87-4.94,5.46-7.52,8.01-2.56,2.54-5.09,5.12-7.5,7.79-2.39,2.68-4.67,5.44-6.59,8.41-1.92,2.97-3.43,6.18-4.94,9.45-1.18,2.53-2.37,5.08-3.65,7.55-1.3,2.48-2.69,4.96-4.35,7.26-3.25,4.65-8,8.44-13.17,10.74-2.24,1.08-4.45,1.99-6.59,3.03-4.01,1.86-6.22,3.61-7.87,4.77-.8.61-1.5,1.03-2.07,1.41-.56.39-1.05.66-1.54.87-.45.19-.99.49-1.32.56-.55.11-.32-.61.61-2.06.24-.36.51-.77.84-1.21.36-.42.77-.87,1.22-1.36.45-.49.94-1.03,1.56-1.5.6-.48,1.23-1.04,1.95-1.54,2.13-1.5,4.44-2.71,6.76-3.8,2.31-1.06,4.59-2.05,6.73-3.16,2.14-1.1,4.06-2.47,5.87-3.98,1.71-1.63,3.35-3.37,4.71-5.4.69-1,1.41-1.98,1.98-3.09.6-1.09,1.25-2.11,1.81-3.27,1.18-2.26,2.27-4.57,3.37-6.91,1.1-2.34,2.2-4.76,3.52-7.14,1.32-2.38,2.83-4.69,4.49-6.82,2.45-3.19,5.13-6.1,7.86-8.94,1.36-1.43,2.76-2.8,4.14-4.19,1.38-1.37,2.73-2.71,4.04-4.1,1.3-1.38,2.55-2.79,3.66-4.24,1.09-1.43,2.1-2.99,2.44-4.3.17-.65.15-1.1.02-1.38-.06-.07-.08-.14-.13-.23-.09-.08-.17-.17-.25-.27-.2-.16-.41-.33-.7-.45-1.12-.56-2.86-.67-4.54-.47l-.03-.08Z"/><path class="cls-5" d="m127.77,255.97c-.26-2.73-.55-5.49-.74-8.29-.09-1.41-.17-2.81-.15-4.29.01-.75.04-1.47.18-2.36.18-1.2.75-2.44,1.9-2.89l1.25-.41c.3-.11.65-.14.98-.2.34-.04.67-.12,1.02-.11l1.06.05c1.42.19,2.8.8,3.82,1.7,1.33,1.14,2.21,2.5,2.94,3.85.72,1.36,1.26,2.75,1.69,4.14,1.47,4.86,2.34,9.85,2.76,14.83.45,4.98.43,9.97.49,14.85.03,1.07.06,2.16.17,3.19.11,1.04.29,2.13.46,3.2.34,2.17.68,4.33,1.01,6.48.76,5.52,1.71,11.21.63,16.87-.46,1.74-.6,1.45-1.02-.04-.52-1.51-1.21-4.12-1.58-7.23-.48-5.56-1.39-11.09-2.3-16.73-.23-1.38-.43-2.99-.48-4.45-.07-1.47-.08-2.9-.11-4.33-.05-2.85-.05-5.68-.14-8.51-.1-3.38-.5-6.8-1.17-10.18-.7-3.34-1.57-6.8-2.87-9.78-.72-1.65-1.68-3.15-2.9-4-.61-.41-1.26-.68-1.99-.69-.18,0-.36-.05-.55-.02l-.57.08c-.19.02-.38.05-.58.13-.25.08-.24.07-.34.1-.2.02-.32.2-.37.38-.03.1-.05.15-.07.31-.03.19-.06.4-.07.62-.07.86-.07,1.79-.04,2.72.07,1.87.22,3.77.4,5.67l.7,7.09c.11,1.19.21,2.38.29,3.59.08,1.21.09,2.45.09,3.63-.03,7.22-.42,14.46-.19,21.52.36,5.54.72,10.97,1.08,16.45.09,1.2.17,2.38.26,3.59.25,4.5.14,5.92-.7,6.94-.19.23-.36.54-.55.68-.61.49-1.41-1.33-1.75-4.64-.53-4.91-.86-9.94-1.14-15.04-.07-1.27-.13-2.55-.2-3.83-.08-1.28-.16-2.57-.23-3.86-.12-2.68-.1-5.27-.08-7.88.06-3.85.12-7.72.18-11.58.02-1.92.06-3.84-.06-5.64-.11-1.86-.31-3.77-.51-5.68l.08-.02Z"/><path class="cls-5" d="m110.54,312.37c-2.44-7.05-5.6-13.89-8.63-20.88-.55-1.28-1.13-2.55-1.66-3.87-.54-1.31-1.03-2.67-1.39-4.17l-.18-1.05c-.06-.35-.05-.78-.06-1.17,0-.2.05-.43.08-.65.05-.22.04-.42.16-.67l.3-.72c.12-.23.29-.43.45-.64.67-.79,1.77-1.23,2.69-1.25.89-.03,1.66.12,2.35.35,2.75.95,4.74,2.68,6.54,4.52,1.74,1.88,3.24,3.92,4.55,6.05,1.27,2.15,2.4,4.36,3.42,6.6,1.81,3.98,3.46,8.01,5.04,12,1.03,2.55,2.07,5.1,3.1,7.66.53,1.27,1.06,2.54,1.56,3.82.47,1.29.99,2.57,1.48,3.86.52,1.65.41,1.45-.53.3-.47-.58-1.13-1.41-1.87-2.45-.36-.52-.78-1.08-1.16-1.7-.37-.63-.73-1.31-1.08-2.03-1.24-2.55-2.42-5.12-3.57-7.69l-1.72-3.85-1.65-3.86c-2.24-5.1-4.58-10.14-7.78-14.49-.48-.65-1.02-1.24-1.54-1.87-.55-.59-1.12-1.15-1.73-1.67-1.2-1.03-2.59-1.91-3.94-2.33-.66-.2-1.33-.23-1.57-.12-.14.04-.24.14-.32.26-.04.06-.06.14-.09.2-.02.08-.02.24-.05.36-.04.55.08,1.31.28,2.07.19.77.46,1.56.74,2.35,1.27,3.49,2.86,6.97,4.39,10.47,1.54,3.5,3.06,7.02,4.46,10.6,1.72,4.41,3.25,8.9,4.35,13.57.78,3.53,1.26,7.09,1.68,10.65.4,3.56.71,7.11.92,10.66.24,5.48.95,10.75,2.32,15.9.3,1.14.65,2.23.98,3.37.64,2.1,1.06,3.49,1.26,4.51.18,1.02.15,1.66-.05,2.24-.09.26-.15.59-.25.76-.33.58-1.54-.92-2.73-4.02-1.77-4.59-3.11-9.58-3.76-14.73-.34-2.56-.52-5.17-.65-7.72-.14-2.5-.37-5.03-.62-7.56-.4-3.75-.88-7.5-1.56-11.17-.35-1.85-.74-3.6-1.29-5.39-.25-.9-.52-1.79-.82-2.68-.29-.89-.58-1.78-.91-2.66l.07-.03Z"/><path class="cls-5" d="m361.87,274.7c.48,3.54,1.52,7.01,2.96,10.32.47,1.24,1.22,2.33,1.79,3.52,2.19,4.1,5.02,7.9,8.39,11.16,1.47,1.47,3.15,2.74,4.87,3.87.54.39,1.13.68,1.71,1.01.57.33,1.12.71,1.71.99.58.31,1.16.62,1.74.96.6.26,1.16.65,1.75.98.72.45.56.65-.26.8-.41.07-.98.15-1.69.19-.71.04-1.44-.16-2.22-.44-2.77-.97-5.2-2.65-7.45-4.46-1.15-.89-2.18-1.91-3.2-2.94-.5-.52-.95-1.09-1.43-1.64-.47-.55-.93-1.1-1.34-1.7-2.08-2.75-4.19-5.65-5.79-8.79-1.76-3.44-3.08-7.11-3.92-10.88-.2-1.17-.46-2.33-.59-3.51-.1-1.18-.27-2.37-.32-3.54-.2-3.54-.1-7.15.45-10.68.4-2.74,1.01-5.44,2-8.04.21-.58.44-1.13.69-1.7,1.01-2.06,1.76-2.46,2.59-2.5.19,0,.4-.04.56-.01.27.05.38.32.37.78,0,.46-.14,1.09-.4,1.83-.84,2.16-1.67,4.32-2.26,6.58-.59,2.26-.96,4.61-1.12,7.01-.21,3.55-.06,7.31.46,10.82l-.07.02Z"/><path class="cls-5" d="m343.5,258.64c-.26-.06-.51-.21-.76-.33-.26-.12-.48-.28-.69-.46-.47-.36-.72-.71-1.1-1.24-.33-.56-.49-1.27-.5-1.66-.05-.47-.04-.87-.03-1.26.07-1.56.31-2.96.56-4.37.18-1.02.31-2.05.53-3.05.79-3.54,1.7-7.01,2.48-10.5.33-1.55.63-3.12.89-4.66.14-.99.28-1.99.47-2.97l.25-1.47c.06-.49.31-.97.41-1.47.19-.62.2-.56.49-.02.21.36.43.75.66,1.15.22.49.33,1.06.37,1.67.05,1.08.05,2.15-.09,3.2-.11,1.05-.24,2.1-.41,3.13-.43,2.05-.94,4.08-1.52,6.1-.69,2.41-1.08,4.98-1.55,7.46-.26,1.36-.5,2.73-.67,4.07-.09.67-.14,1.34-.15,1.97,0,.31.01.61.05.87.06.22.04.32.19.48.36.49.83.75,1.47.81.64.06,1.38-.1,2.1-.38,1.09-.42,2.16-1.09,3.1-1.86.9-.75,1.72-1.76,2.4-2.79,1.05-1.62,1.73-3.41,2.28-5.25.11-.41.22-.81.33-1.22.42-1.53.81-1.95,1.54-2.14.17-.04.34-.11.5-.12.52-.04.82.72.74,1.99-.23,1.85-.69,3.76-1.47,5.63-.76,1.88-1.99,3.62-3.4,5.16-1.21,1.24-2.48,2.13-3.98,2.87-.74.36-1.55.67-2.45.85-.89.18-1.93.26-3.03-.1l.02-.07Z"/><path class="cls-5" d="m414.59,349.32c-3.16,2.41-6.42,4.69-9.87,6.7-1.25.74-2.48,1.54-3.81,2.18-2.33,1.13-4.75,2.12-7.36,2.74-2.58.6-5.48.86-8.24-.37-.61-.3-1.22-.7-1.72-1.26-.51-.55-.86-1.27-1.03-1.97-.3-1.44,0-2.75.4-3.9.54-1.48,1.29-2.81,2.25-3.97.47-.58.99-1.13,1.54-1.63.26-.27.58-.47.9-.67.32-.2.63-.4.97-.56.91-.33.8-.22.52.58-.13.42-.32.97-.49,1.65-.21.64-.53,1.28-.91,1.92-.66,1.15-1.29,2.29-1.68,3.41-.19.56-.31,1.1-.34,1.57-.04.48.05.82.12,1.05.09.23.2.43.52.65.31.22.79.42,1.34.55,1.14.31,2.32.31,3.64.19,1.56-.15,3.18-.67,4.74-1.35,1.57-.66,3.11-1.49,4.62-2.33,3.34-1.84,6.56-4,9.65-6.32,1.9-1.44,3.77-2.93,5.56-4.5,2.71-2.39,5.37-4.88,7.71-7.59,1.8-2.11,3.31-4.41,4.58-6.73.27-.51.49-1.03.74-1.54.43-.94.75-1.5,1.04-1.84.16-.17.35-.31.54-.41.17-.1.38-.19.61-.28.22-.08.44-.22.64-.29.35-.12.64.05.88.6.13.29.2.63.23,1.04.05.43-.03.87-.15,1.34-.35,1.41-.96,2.66-1.62,3.85-.66,1.21-1.41,2.32-2.21,3.42-1.6,2.19-3.41,4.21-5.3,6.15-2.81,2.87-5.85,5.51-8.98,8.02l-.06-.06Z"/><path class="cls-5" d="m446.25,341.65l4.28,7.5c.53.91,1.14,1.75,1.66,2.66.93,1.6,1.83,3.21,2.73,4.82.92,1.6,1.84,3.2,2.81,4.77.86,1.39,1.78,2.75,2.7,4.08.59.86,1.24,1.67,1.83,2.52.57.87,1.15,1.73,1.69,2.63.33.57.07.68-.55.48-.6-.21-1.66-.68-2.56-1.53-1.46-1.6-2.83-3.27-4.15-4.98-1.27-1.74-2.44-3.55-3.53-5.41-1.31-2.23-2.94-4.37-4.34-6.6-1.55-2.45-3.06-4.92-4.57-7.39l-2.81-4.54c-1.44-2.27-2.83-4.6-4.38-6.76-1.21-1.68-2.59-3.19-3.94-4.7-.3-.33-.62-.63-.91-.97-1.04-1.27-1.13-1.83-.63-2.76.11-.21.2-.43.33-.61.41-.59,1.37-.51,2.43.31,2.97,2.52,5.21,5.77,7.39,9.02,1.63,2.42,3.11,4.93,4.6,7.42l-.07.05Z"/><path class="cls-5" d="m145.89,210.99c-.64-2.34-1.25-4.69-1.96-7.01l-1.03-3.49-1.12-3.46c-.53-1.69-1.2-3.33-1.79-4.99-1-2.96-2.07-5.88-3.15-8.81-1.16-2.89-2.29-5.8-3.61-8.63-1.1-2.55-2.49-4.95-3.73-7.4-.88-1.53-1.76-3.06-2.64-4.59-.85-1.55-1.68-3.11-2.46-4.72-.43-1.04-.19-1.03.69-.49.85.55,2.36,1.64,3.75,3.23,1.06,1.51,2.03,3.07,3.04,4.61.95,1.57,1.88,3.17,2.71,4.81,1.63,3.3,3.14,6.66,4.43,10.12,1.56,4.13,3.44,8.31,4.94,12.56.82,2.34,1.58,4.69,2.35,7.04.71,2.37,1.47,4.72,2.13,7.11l1.24,4.39,1.17,4.41c1.18,4.45,2.2,8.96,3.3,13.39.81,3.45,1.79,6.8,2.61,10.22.19.75.37,1.49.5,2.26.49,2.85.42,3.8-.25,4.55-.15.17-.29.39-.45.5-.53.38-1.26-.68-1.93-2.69-.24-.75-.48-1.5-.73-2.25-.25-.75-.5-1.51-.7-2.28-.42-1.54-.84-3.09-1.26-4.66-.41-1.57-.81-3.15-1.23-4.73-.43-1.58-.81-3.18-1.19-4.77-.59-2.37-1.18-4.74-1.77-7.12-.64-2.36-1.22-4.74-1.91-7.09l.08-.03Z"/><path class="cls-5" d="m115.98,390.28c6.24,1.34,12.18,3.6,17.73,6.54,1,.55,2.02,1.08,3.03,1.62.99.58,1.97,1.17,2.94,1.78,3.36,2.25,6.56,4.77,9.4,7.7.69.76,1.44,1.45,2.03,2.31.61.84,1.28,1.61,1.79,2.53l.81,1.34c.27.45.44.96.66,1.44.2.5.45.93.59,1.49.17.56.26,1.08.34,1.59.49,3.63.51,7.15.41,10.66-.09,2.25-.24,4.5-.55,6.74-.31,2.23-.74,4.49-1.71,6.59-.64,1.3-.71,1.01-.59-.18.04-.29.04-.66.05-1.07.01-.41.03-.86,0-1.37.02-1,.06-2.15.15-3.41.32-4.43.18-8.94-.13-13.35-.09-1.1-.2-2.2-.37-3.24-.07-.54-.19-1.01-.29-1.51l-.19-.62c-.08-.21-.21-.45-.31-.67l-.65-1.36-.85-1.32-.42-.66-.5-.63-1-1.27c-3.32-4.03-8-7.25-12.69-10.01-5.18-3.08-10.79-5.45-16.58-7.11-3.57-.99-7.23-1.73-10.91-1.83l-1.04-.06c-.3.01-.5,0-.77.08-.51.11-1.06.36-1.58.71-1.06.68-2.05,1.64-2.97,2.66-1.85,2.07-3.46,4.42-5.01,6.79-2.39,3.71-4.43,7.56-6.76,11.33-.51.83-1,1.66-1.57,2.47-2.11,3.01-3.12,3.76-4.37,3.73-.29,0-.6.03-.84-.04-.79-.24-.31-1.72,1.04-3.91,1.98-3.34,4.01-6.76,6.07-10.23,2.12-3.49,4.28-7.06,6.93-10.52.99-1.28,2.05-2.55,3.33-3.76.67-.6,1.34-1.19,2.2-1.72.85-.52,1.8-1.03,3.04-1.25.3-.06.63-.07.94-.09h.24s.15,0,.15,0l.31.02,1.23.07c.82.06,1.64.06,2.45.17,1.6.25,3.24.37,4.8.75v.09Z"/><path class="cls-5" d="m240.43,386.41c10.72-4.38,21.56-8.47,32.48-12.33,3.99-1.4,7.95-2.87,11.97-4.18,14.17-4.58,28.53-8.66,43.14-11.62,6.48-1.32,13.02-2.55,19.54-3.39,8.36-1.04,16.91-1.72,25.32-.6,2.61.4,2.24.44.01.67-2.23.3-6.28.83-11.04,1.3-16.9,1.5-33.56,5.06-50.23,9.25-9.99,2.49-20.16,5.92-30.12,9.37-10.96,3.79-21.83,7.87-32.6,12.2-6.63,2.66-13.24,5.4-19.79,8.24-4.96,2.15-9.92,4.35-14.86,6.59l-3.7,1.68-1.86.84-.56.24c-.22.08-.44.21-.67.26-.22.06-.45.14-.67.16-.21.03-.45.09-.66-.03-.45-.13-.84-.4-1.24-.66-.19-.14-.37-.31-.56-.49-.19-.18-.3-.28-.43-.43-.51-.55-.95-1.13-1.36-1.71-.82-1.16-1.5-2.37-2.16-3.58-2.01-3.77-3.66-7.61-5.21-11.49-1.54-3.87-2.93-7.79-4.15-11.78-.54-1.76-1.07-3.48-1.53-5.28-1.66-6.69-1.63-9-.81-10.59.19-.36.36-.83.56-1.05.69-.72,1.62,1.9,2.87,6.63,1.89,7.03,4.31,14.15,7,21.22,1.37,3.52,2.85,7.03,4.56,10.32.86,1.61,1.8,3.25,2.8,4.43l.36.41.07.06-.02-.02s-.02-.02-.02-.02h0s0,0,0,0l.14-.06,1.32-.59c10.54-4.86,21.28-9.59,32.07-14.07l.05.08Z"/><path class="cls-5" d="m372.35,311.69c.7,2.96,1.43,5.92,2.19,8.88.28,1.08.63,2.13.9,3.21.95,3.81,1.96,7.6,2.86,11.43.41,1.7.89,3.38,1.33,5.06.62,2.13,1.15,4.31,1.41,6.54.09.69-.16.65-.57.14-.41-.51-.99-1.46-1.45-2.66-1.39-4.29-2.84-8.57-3.93-13-.63-2.66-1.57-5.35-2.36-8.03-.86-2.95-1.68-5.92-2.49-8.89l-1.45-5.5c-.73-2.78-1.4-5.59-2.11-8.35-.3-1.07-.6-2.13-.89-3.19-.31-1.06-.63-2.11-.88-3.2-.12-.47-.26-.94-.37-1.42-.27-1.83-.11-2.45.55-2.91.15-.11.3-.24.46-.31.53-.22,1.1.45,1.49,1.68,1.15,3.67,2.08,7.61,3.09,11.59.76,2.96,1.52,5.93,2.27,8.9l-.07.02Z"/><path class="cls-5" d="m247.79,245.23s.06-.03.1-.05c.01-.01.04-.03.05-.04l.02-.03.11-.23.99-2.18c.67-1.46,1.34-2.92,2.05-4.36.5-1.06.92-2.16,1.47-3.2.97-1.83,2-3.63,3.07-5.4,1.11-1.76,2.26-3.47,3.46-5.17,1.08-1.48,2.07-3.04,3.21-4.48,1.41-1.86,2.93-3.73,4.96-5.02.61-.42.84-.01.79.81-.07.81-.25,2.12-.99,3.14-2.55,3.72-4.96,7.5-7.47,11.4-1.53,2.32-2.64,5-3.8,7.6-1.31,2.86-2.53,5.7-3.73,8.7l-.42,1.05-.55.9c-.09.15-.19.28-.29.42-.1.14-.3.18-.45.25-.31.14-.66.22-1.02.26-.36.04-.73.05-1.09.06-.34,0-.8-.02-1.01-.04-.53-.03-1.04-.09-1.56-.16-3.1-.41-6.07-1.3-8.94-2.4-2.23-.86-4.48-1.73-6.55-3.1-.46-.29-.92-.59-1.35-.93-1.57-1.35-1.72-2.15-1.05-3.21.15-.25.29-.51.48-.72.65-.71,1.66-.6,2.69.06,3.05,1.97,6.4,3.58,10.13,4.69,1.38.4,2.79.74,4.2.97.7.11,1.41.2,2.09.25l.22.02h.01s.03.02.03.02c.02,0,.04.02.07.02l.07.11Z"/><g class="cls-2"><g class="cls-3"><path class="cls-4" d="m245.03,194.92s.05-.06.08-.06c1.02-.18,2.04-.29,3.06-.25,1.02,0,2.02.15,3.03.15,1.01.05,2.02.15,3.04.35.51.12,1.04.18,1.54.43.25.12.52.2.75.4.12.1.22.18.34.3.05.06.09.14.14.22l.07.11-.11.39s0-.05,0-.07l-.13.35c-.11.14-.25.34-.43.6-.04.08-.06.14-.07.18l-.28.3s.01-.03-.04.06h0s0,0,0,0h-.02s-.05.02-.05.02c-.06.01-.13.04-.18.04-.09,0-.21,0-.32,0-.2-.01-.4-.09-.6-.13-.2-.04-.42-.09-.62-.17l-.64-.17c-.88-.21-1.8-.35-2.72-.43-.46-.05-.93-.07-1.4-.01-.47.03-.93.08-1.39.14-.92.15-1.83.21-2.7.42-.02.01-.05.02-.07.03-.02,0-.05,0-.07-.05l-.14-.21c-.04-.07-.08-.17-.08-.26v-.23s0-.08-.02-.12l-.05-.16s-.01-.05-.02-.08l-.03-.2c0-.05-.02-.11-.04-.15l-.08-.22c-.02-.06-.03-.14,0-.17l.05-.1s.01-.06.01-.1l-.02-.15s-.01-.07-.03-.11l-.08-.2s-.02-.05-.02-.08v-.12c-.02-.08,0-.14.02-.16l.15-.06s.09-.06.13-.12l.09-.14Z"/></g></g><g class="cls-2"><g class="cls-3"><path class="cls-4" d="m261.55,197.84s.1-.03.14-.02c1.47.34,2.92.76,4.31,1.37,1.4.57,2.72,1.28,4.08,1.94,1.34.7,2.65,1.5,3.87,2.45.31.23.6.49.9.75.31.24.57.54.83.85.26.3.52.62.72.97.1.17.18.37.26.56.04.1.05.21.07.31l.03.16-.25.34s.01-.05.01-.08c-.1.11-.19.21-.25.29-.16.07-.38.19-.66.35-.06.06-.11.11-.13.14l-.41.11s.02-.02-.07.03h0s0-.01-.01-.02l-.03-.02-.06-.03c-.08-.04-.17-.08-.25-.13-.13-.11-.25-.22-.4-.32-.28-.2-.46-.47-.73-.68-.51-.44-.96-.95-1.51-1.37-1.06-.88-2.25-1.65-3.5-2.33-.61-.36-1.27-.65-1.94-.89-.67-.25-1.35-.47-2.03-.68-1.38-.38-2.73-.81-4.13-1.07-.04,0-.08,0-.13-.01-.03,0-.06-.03-.08-.08l-.1-.26c-.03-.08-.02-.19.03-.27l.13-.21s.03-.08.03-.12v-.17s.01-.05.02-.08l.06-.2c.02-.05.02-.11.02-.16v-.23c0-.07.03-.14.07-.16l.13-.07s.05-.04.06-.08l.05-.14s.02-.07.02-.11v-.22s0-.05,0-.08l.04-.11c.03-.07.08-.12.13-.12l.24.02c.07,0,.15,0,.23-.04l.18-.09Z"/></g></g><g class="cls-2"><g class="cls-3"><path class="cls-4" d="m280.42,212.14s.08.04.11.07c.74,1.08,1.48,2.18,2.1,3.37.65,1.17,1.19,2.4,1.82,3.61.59,1.23,1.11,2.52,1.46,3.9.15.69.34,1.4.33,2.13-.01.37.01.73-.05,1.09-.04.18-.1.36-.15.54-.03.09-.09.18-.13.26l-.07.13-.4.1s.04-.03.06-.05c-.15.02-.27.04-.38.06-.17-.04-.41-.08-.73-.13-.09,0-.15.01-.19.03l-.39-.15s.03,0-.07-.01h0s0-.02,0-.02l-.02-.03-.03-.06c-.04-.08-.09-.16-.11-.23-.04-.15-.07-.3-.11-.44-.09-.29-.08-.58-.14-.87-.08-.29-.09-.58-.14-.88-.06-.29-.09-.59-.16-.89-.26-1.18-.69-2.36-1.21-3.52l-.41-.87-.5-.82c-.35-.54-.7-1.08-1.08-1.62-.77-1.05-1.46-2.16-2.24-3.24-.03-.03-.06-.06-.08-.09-.02-.02-.02-.06,0-.11l.11-.25c.04-.08.12-.15.21-.18l.23-.07s.08-.03.11-.06l.13-.12s.04-.03.06-.05l.18-.1s.09-.06.13-.1l.16-.17s.12-.08.16-.07l.13.03s.06,0,.1-.02l.13-.07s.06-.04.09-.07l.15-.16s.04-.03.06-.05l.11-.06c.07-.04.14-.04.17-.01l.15.15s.11.08.18.1l.18.05Z"/></g></g><g class="cls-2"><g class="cls-3"><path class="cls-4" d="m286.94,233.05s.06.08.07.13c.18,1.53.26,3.06.16,4.58-.07,1.52-.28,3.02-.41,4.53-.17,1.51-.42,3.01-.8,4.51-.09.38-.2.75-.31,1.12-.09.38-.25.75-.42,1.1-.16.36-.32.73-.56,1.06-.12.16-.25.33-.39.48-.07.08-.17.14-.25.21l-.13.1-.41-.07s.05-.01.07-.02c-.14-.04-.27-.08-.37-.1-.13-.11-.34-.25-.6-.44-.08-.03-.14-.05-.19-.05l-.28-.32s.03.01-.06-.04h0s0-.02,0-.02v-.04s0-.07,0-.07c0-.1,0-.2.01-.28.04-.17.08-.33.11-.51.07-.34.23-.64.31-.99.19-.67.47-1.32.64-2.02.39-1.38.67-2.81.86-4.25.04-.36.1-.72.13-1.09l.03-1.1c0-.73-.01-1.46-.05-2.19-.11-1.45-.15-2.9-.38-4.31-.01-.04-.02-.08-.03-.12,0-.03,0-.07.05-.1l.21-.19c.07-.06.18-.09.27-.07l.24.05s.08,0,.12,0l.17-.05s.05-.01.08-.01h.21c.05-.01.11-.03.16-.04l.22-.08c.06-.02.14-.02.17.02l.11.1s.06.03.1.03h.15s.08,0,.11-.02l.21-.08s.05-.01.08-.01h.12c.08,0,.14.03.16.08l.07.24c.02.07.06.14.12.2l.14.15Z"/></g></g><g class="cls-2"><g class="cls-3"><path class="cls-4" d="m282.66,255.46s0,.09,0,.12c-.59,1.17-1.19,2.35-1.92,3.48-.71,1.15-1.52,2.24-2.28,3.39-.8,1.13-1.71,2.21-2.78,3.18-.55.46-1.09.96-1.75,1.29-.33.15-.64.35-1,.46l-.55.12c-.09.01-.2,0-.29,0h-.15s-.27-.31-.27-.31c.02.01.05.02.07.03-.09-.12-.16-.22-.23-.31-.05-.17-.12-.4-.23-.71-.05-.07-.08-.12-.11-.16l-.05-.42s.02.03-.02-.07h0s0,0,.01-.01l.02-.03.04-.05c.05-.07.1-.15.15-.21l.35-.31c.22-.22.49-.35.72-.53.23-.2.47-.37.72-.53l.71-.56c.93-.78,1.76-1.72,2.52-2.74l.56-.78.47-.85c.31-.57.6-1.15.89-1.75.54-1.2,1.19-2.36,1.77-3.58.01-.04.02-.08.04-.11.01-.03.05-.05.09-.05l.27-.02c.08,0,.19.04.26.1l.17.17s.07.05.11.06l.16.06s.05.02.07.03l.18.11s.1.05.15.06l.22.06c.06.02.12.07.14.11l.04.13s.03.05.06.08l.12.08s.07.04.1.05l.21.06s.05.02.07.03l.1.07c.06.04.1.1.09.15l-.06.2c-.02.06-.02.13,0,.21l.05.18Z"/></g></g><g class="cls-2"><g class="cls-3"><path class="cls-4" d="m265.91,271.44s-.03.08-.06.11c-1.03.78-2.11,1.52-3.29,2.1-1.16.61-2.4,1.08-3.61,1.61-1.23.49-2.52.87-3.85,1.1-.66.1-1.33.24-2,.21-.34-.02-.67,0-1-.07l-.5-.14c-.08-.03-.16-.08-.24-.13l-.12-.07-.11-.4s.03.04.05.05c-.02-.15-.05-.27-.07-.38.03-.17.06-.42.09-.74-.01-.09-.02-.15-.03-.19l.13-.39s0,.03,0-.07h0s0,0,.01,0l.03-.02.06-.03c.08-.04.15-.09.23-.12l.45-.12c.3-.08.59-.08.89-.13.29-.06.58-.08.88-.1l.88-.1c1.17-.17,2.32-.47,3.44-.88l.84-.33.79-.43c.52-.31,1.03-.63,1.54-.97.98-.71,2.01-1.37,2.97-2.15.02-.03.05-.05.08-.08.02-.02.06-.02.1,0l.25.1c.08.03.15.12.19.2l.08.22s.04.07.07.1l.12.12s.04.04.05.06l.11.17s.07.09.1.12l.17.15c.05.04.08.11.08.16l-.02.13s0,.06.03.1l.07.13s.04.06.07.09l.17.14s.04.04.05.06l.06.1c.04.07.05.14.02.17l-.14.15s-.07.11-.09.18l-.04.18Z"/></g></g><g class="cls-2"><g class="cls-3"><path class="cls-4" d="m243.83,276.93s-.08.05-.12.05c-1.39-.01-2.79-.03-4.2-.22-1.42-.15-2.83-.43-4.27-.67-1.43-.28-2.87-.72-4.23-1.33-.67-.32-1.36-.62-1.96-1.08-.29-.23-.61-.42-.87-.69l-.36-.43c-.06-.08-.1-.17-.15-.26l-.07-.13.14-.39s0,.05,0,.07c.06-.13.12-.25.15-.35.12-.12.29-.3.51-.54.04-.08.07-.14.08-.18l.35-.23s-.02.03.05-.05h0s0,.01.02.01h.04s.07.02.07.02c.09.02.19.03.28.05l.48.19c.31.13.58.31.87.46.29.14.58.3.86.47.28.16.58.3.86.45,1.17.57,2.42.98,3.72,1.27l.99.19,1.01.08c.68.04,1.36.06,2.05.07,1.38-.02,2.78.04,4.19.03.04,0,.08-.01.12-.02.03,0,.07.02.09.06l.15.23c.05.07.06.19.02.27l-.08.23s-.02.08-.01.12l.02.17s0,.05,0,.08l-.02.21c0,.05,0,.11,0,.16l.05.23c.01.07,0,.14-.04.17l-.11.09s-.04.05-.04.09l-.02.15s0,.08,0,.11l.05.22s0,.05,0,.08l-.02.12c-.01.08-.05.14-.1.15l-.22.03c-.07,0-.13.04-.2.09l-.15.12Z"/></g></g><g class="cls-2"><g class="cls-3"><path class="cls-4" d="m224.42,271s-.06.02-.08.01c-.61-.33-1.28-.64-1.95-1.06-.68-.39-1.35-.86-2.11-1.26-.74-.43-1.47-.98-2.11-1.65-.16-.17-.32-.34-.46-.53-.15-.18-.29-.37-.38-.59-.09-.22-.23-.41-.26-.65l-.03-.36c0-.06.03-.13.04-.2l.02-.1.33-.23s-.03.04-.04.05l.32-.2.7-.25.16-.1.39-.1s-.03.02.07-.03h0s0,0,0,0h.02s.04.02.04.02c.06.02.12.04.17.06l.22.16c.14.11.21.24.32.36.22.22.35.51.57.73.4.48.91.9,1.49,1.28.14.1.3.19.45.28.16.08.34.14.51.21l1.07.41c.75.25,1.48.64,2.25,1.05.03,0,.05.01.08.02.02,0,.03.04.02.08l-.04.25c-.01.08-.06.18-.13.24l-.16.17s-.05.07-.07.1l-.07.16-.04.07-.11.17s-.06.09-.08.14l-.09.21c-.03.06-.07.12-.11.14l-.1.05s-.04.04-.07.07l-.08.12s-.04.06-.05.1l-.09.2s-.02.05-.04.07l-.07.1c-.04.06-.09.11-.11.1l-.11-.03s-.08,0-.13.03l-.12.07Z"/></g></g><g class="cls-2"><g class="cls-3"><path class="cls-4" d="m213.99,262.14s-.08,0-.1-.02c-.77-.65-1.43-1.4-1.91-2.22-.51-.8-.87-1.65-1.34-2.42-.44-.79-.83-1.58-1.2-2.36-.17-.4-.41-.76-.51-1.19-.05-.21-.15-.4-.16-.62v-.34c0-.06.02-.13.04-.19l.03-.1.33-.23s-.03.04-.04.05l.32-.2.69-.26c.07-.04.13-.08.16-.1l.4-.08s-.03.02.07-.03h0s0,.01,0,.01h.02s.05.04.05.04c.06.03.13.06.18.1l.25.25c.16.17.23.38.35.57.24.38.34.81.52,1.2.33.8.66,1.58,1.03,2.33.17.38.38.73.64,1.05.24.33.49.64.76.92.54.56,1.02,1.13,1.6,1.54.02,0,.04.02.06.03.02,0,.02.04,0,.08l-.08.24c-.02.07-.09.17-.15.23l-.17.16s-.06.06-.08.1l-.09.15-.05.06-.13.16s-.07.09-.09.13l-.11.2c-.03.06-.08.11-.12.12l-.11.03s-.05.03-.08.06l-.1.11s-.05.06-.06.09l-.1.19s-.03.04-.05.06l-.08.09c-.05.06-.11.09-.14.08l-.14-.07s-.1-.03-.17-.02l-.16.03Z"/></g></g><g class="cls-2"><g class="cls-3"><path class="cls-4" d="m206.27,246.95s-.07-.07-.08-.11c-.4-1.38-.79-2.78-1.04-4.24-.28-1.45-.44-2.92-.67-4.4-.19-1.49-.27-3-.19-4.53.02-.38.04-.76.09-1.14.04-.38.08-.76.19-1.13.11-.37.16-.75.32-1.11l.27-.52c.05-.09.13-.16.19-.24l.1-.12.42-.03s-.05.02-.07.04c.15,0,.28.01.38,0,.16.07.39.16.69.27.09,0,.15,0,.19,0l.35.24s-.03,0,.07.03h0s0,.02,0,.02v.04s.02.07.02.07c.02.1.05.19.06.29v.53c0,.35-.07.69-.11,1.03-.04.69-.2,1.36-.23,2.05-.11,1.37-.07,2.77.08,4.18.05.7.18,1.4.36,2.1.16.69.35,1.39.56,2.08.44,1.37.79,2.79,1.22,4.2.02.04.04.08.05.12.01.03,0,.07-.03.11l-.18.21c-.06.07-.16.11-.26.1l-.24-.02s-.08,0-.12.02l-.16.07s-.05.02-.08.02l-.2.04c-.05,0-.1.03-.15.05l-.2.11c-.06.03-.14.03-.18,0l-.12-.08s-.06-.02-.1-.02l-.15.02s-.07.02-.11.03l-.19.11s-.05.02-.07.02l-.12.02c-.08.01-.15-.01-.17-.05l-.09-.21c-.03-.06-.08-.12-.14-.17l-.16-.11Z"/></g></g><g class="cls-2"><g class="cls-3"><path class="cls-4" d="m208.72,219.86c-.01-.05,0-.1.01-.15.63-1.48,1.29-2.98,2.1-4.42.78-1.46,1.69-2.86,2.57-4.29.92-1.41,1.99-2.78,3.29-3.97.66-.58,1.34-1.17,2.14-1.59.41-.19.8-.42,1.22-.56l.67-.14c.11-.02.24-.01.35-.02h.17s.29.3.29.3c-.03-.01-.05-.02-.08-.03.09.12.16.23.23.31.03.17.09.41.18.73.05.07.08.13.11.16v.43s-.01-.03.02.07h0s-.01,0-.01.01l-.03.03-.05.06c-.07.08-.14.16-.21.23l-.46.33c-.29.25-.61.41-.92.62-.28.24-.59.45-.9.65l-.87.7c-1.13.99-2.12,2.2-3.01,3.51l-.64,1-.55,1.07c-.35.72-.69,1.45-1.01,2.2-.61,1.5-1.3,2.98-1.93,4.52-.01.05-.03.1-.04.14-.01.04-.05.07-.1.08l-.28.07c-.09.02-.2-.01-.26-.08l-.17-.18s-.07-.05-.11-.06l-.17-.04s-.05-.02-.07-.03l-.18-.1s-.1-.05-.15-.05l-.23-.04c-.07-.01-.13-.06-.14-.11l-.04-.15s-.03-.06-.06-.08l-.12-.08s-.07-.03-.1-.04l-.22-.03s-.05-.01-.07-.03l-.1-.06c-.07-.04-.1-.11-.09-.16l.07-.25c.02-.08.02-.16,0-.24l-.04-.21Z"/></g></g><g class="cls-2"><g class="cls-3"><path class="cls-4" d="m225.61,201.95s.03-.08.06-.1c.97-.68,1.96-1.38,3.03-1.98,1.05-.63,2.17-1.18,3.25-1.82,1.1-.61,2.26-1.15,3.48-1.57.61-.2,1.23-.43,1.88-.5.33-.03.64-.11.97-.08l.5.06c.08.02.17.06.25.09l.13.05.16.38s-.03-.04-.05-.05c.04.14.08.26.12.36,0,.17,0,.42.02.74.02.08.04.14.06.18l-.07.41s0-.03,0,.08h0s0,0-.01,0l-.03.02-.05.04c-.07.05-.13.11-.2.15l-.4.19c-.27.12-.55.17-.82.25-.53.19-1.1.27-1.64.45-1.09.34-2.15.79-3.2,1.32-.26.13-.52.28-.78.42-.25.16-.49.33-.74.5-.49.34-.97.7-1.46,1.06-.95.75-1.98,1.42-2.99,2.16-.03.03-.05.05-.08.08-.02.02-.06.02-.1,0l-.24-.12c-.07-.04-.15-.12-.17-.21l-.07-.23s-.03-.08-.06-.11l-.12-.13s-.03-.04-.05-.06l-.1-.18s-.06-.09-.1-.13l-.16-.16s-.08-.12-.07-.16l.02-.13s0-.06-.02-.1l-.07-.13s-.04-.06-.07-.09l-.16-.15s-.03-.04-.05-.06l-.06-.11c-.04-.07-.04-.14-.02-.17l.14-.13s.07-.1.09-.17l.03-.17Z"/></g></g><path class="cls-5" d="m253.84,336.73c-3.11.89-6.2,1.85-9.24,2.98-1.12.39-2.18.92-3.29,1.34-3.88,1.52-7.76,3.11-11.54,4.94-1.68.8-3.32,1.71-4.92,2.63-1.02.61-2.04,1.21-3.07,1.82-1.02.61-2.06,1.18-3.2,1.59-.7.26-.91-.29-.69-1.15.11-.43.33-.94.66-1.46.34-.5.81-.96,1.4-1.32,4.21-2.5,8.57-4.77,13.18-6.61,2.74-1.12,5.5-2.48,8.32-3.61,1.54-.63,3.12-1.18,4.68-1.76,1.59-.52,3.15-1.09,4.75-1.56l2.94-.88,2.96-.81c1.5-.41,3.02-.74,4.52-1.11,1.51-.33,3.03-.66,4.53-.99,1.17-.24,2.32-.53,3.47-.82,1.15-.26,2.31-.48,3.48-.71.51-.1,1.01-.2,1.54-.27,1.94-.24,2.58-.11,3.07.53.11.15.25.29.32.44.24.51-.49,1.05-1.85,1.43-2.03.51-4.09,1.13-6.19,1.57-2.1.46-4.23.93-6.36,1.4-3.16.71-6.33,1.51-9.45,2.44l-.03-.07Z"/><path class="cls-5" d="m265.55,343.93c-2.48.6-4.93,1.34-7.38,2.11-.9.26-1.75.64-2.64.93-3.12,1.07-6.22,2.25-9.22,3.65-1.34.61-2.64,1.31-3.94,1.98l-2.47,1.35c-.81.47-1.66.89-2.51,1.3-.53.25-.51.14-.17-.25.36-.37.97-1.12,1.87-1.73,1.61-1.07,3.22-2.15,4.92-3.09,1.7-.92,3.44-1.8,5.24-2.55,2.14-.92,4.33-1.98,6.55-2.87,1.21-.5,2.46-.93,3.7-1.37,1.25-.39,2.5-.8,3.77-1.16,1.55-.45,3.12-.86,4.69-1.24,2.37-.59,4.79-1.03,7.17-1.52,1.86-.3,3.66-.79,5.53-.98.41-.05.81-.12,1.22-.14,1.54-.09,2.04.03,2.4.48.08.1.19.2.24.3.17.34-.43.7-1.51.98-3.21.88-6.55,1.56-9.94,2.19-1.26.24-2.51.52-3.77.78-1.25.31-2.51.56-3.75.92l-.02-.05Z"/><path class="cls-5" d="m303.44,124.43c1.38-.11,2.76-.18,4.13-.2.5-.02,1-.08,1.5-.06,1.77.07,3.52.22,5.26.43.77.09,1.54.2,2.31.27.98.11,1.97.23,2.91.54.3.1.22.33-.08.56-.29.22-.8.49-1.36.49-.98.01-1.96.03-2.95.04-.98.04-1.95-.12-2.93-.2-1.18-.15-2.4.03-3.6.09-1.32.05-2.65.13-3.97.27-.81.08-1.63.18-2.43.32-1.22.2-2.45.44-3.64.76-.92.27-1.77.69-2.64,1.07-.19.08-.37.18-.56.26-.72.28-1.01.21-1.38-.31-.08-.12-.18-.23-.25-.35-.24-.42-.07-.89.44-1.23,1.51-1,3.27-1.7,5.09-2.15,1.36-.31,2.75-.5,4.14-.66v.06Z"/><path class="cls-8" d="m87.2,109.8c0,2.13-1.47,3.85-3.28,3.85s-3.28-1.72-3.28-3.85c0-4.77,6.57-5.12,6.57,0Z"/><path class="cls-5" d="m88.72,108.75c.15,1.1.05,2.19-.26,3.22-.26,1.04-1,2.22-1.98,2.82-.7.47-1.46.8-2.27.89-1.45.16-2.83-.36-3.86-1.13-1.05-.77-1.8-1.83-2.24-3-.38-1.03-.56-2.23-.15-3.33.27-.71.76-1.31,1.38-1.7.62-.39,1.4-.54,2.09-.35.43.15.28.27-.05.42-.35.15-.78.54-1.12.93-.33.32-.56.74-.62,1.13-.04.38-.08.81.02,1.25.18.89.75,1.77,1.45,2.52.41.46.98.78,1.56.92.58.14,1.15.1,1.7-.08.6-.19,1.12-.56,1.41-1.05.31-.49.45-1.27.44-1.97-.01-.88-.26-1.77-.74-2.47-.68-1.07-2.02-1.72-3.25-1.6-.97.1-1.62.84-1.91,1.62-.06.17-.11.34-.15.51-.1.3-.14.49-.31.64-.18.15-.42.28-.73.43-.14.07-.28.16-.41.22-.23.1-.45.08-.72-.11-.26-.19-.56-.57-.59-1.11-.17-1.59.6-3.23,2.02-4.27,1.49-1.07,3.42-1.26,5.03-.75,1.18.41,2.24,1.18,3,2.17.74.98,1.17,2.1,1.35,3.21l-.07.02Z"/><path class="cls-5" d="m104.02,112.87c.32,1,.16,2.02-.23,2.79-.14.29-.26.59-.49.83-.38.43-.9.77-1.48.9-.57.14-1.27.03-1.69-.27-.39-.26-.72-.56-.96-.95-.16-.24-.28-.53-.31-.84-.04-.31.06-.67.28-.9.14-.16.38.08.63.3.24.24.6.37.65.39.08.07.22.21.37.29.16.08.23.14.32.24.23.09.44-.18.56-.45.16-.3.24-.7.18-1.02-.04-.2-.13-.42-.28-.58-.19-.24-.53-.37-.6-.26-.03.04-.06.14-.03.24.02.05.04.09.06.13.01.03.11.06,0,.03-.07-.02-.13-.03-.2-.03-.11,0-.15.02-.14.02,0,0,0,0,0,0-.11.06-.23.14-.38.25-.13.1-.26.21-.38.32-.21.18-.42.32-.68.32-.25.01-.54-.13-.73-.42-.29-.44-.41-1-.3-1.47.09-.47.27-.92.59-1.27.31-.35.73-.65,1.26-.83.26-.09.56-.14.85-.15.25,0,.49.02.72.07.7.16,1.25.53,1.64.94.39.42.66.88.84,1.36l-.06.03Z"/><path class="cls-5" d="m72.52,142.39c2.41,0,2.42-3.75,0-3.75s-2.42,3.75,0,3.75h0Z"/><path class="cls-5" d="m75.12,138.24c.61,1.28.49,2.89-.39,3.87l-.32.34c-.23.21-.49.41-.78.53-.67.26-1.3.29-1.93.22-.62-.08-1.24-.29-1.75-.71-.44-.34-.84-.88-.97-1.44-.09-.35-.12-.73-.02-1.11.1-.37.35-.74.72-.92.25-.11.36.26.52.61.14.38.46.64.5.7.03.14.16.35.22.36.1.09.27.22.59.38.19.09.42.08.63.01.21-.06.4-.2.47-.22l.07-.03c.2-.12.35-.39.33-.7-.01-.21-.09-.45-.26-.63-.24-.27-.72-.39-1.04-.15-.27.17-.3.6-.28.82,0,.05.04.1.03.13-.04.11-.32.11-1.03.26l-.49.11c-.51.13-1.07-.02-1.3-.62-.28-.87-.04-1.86.54-2.55.53-.71,1.47-1.27,2.45-1.36,1.48-.14,2.91.73,3.56,2.04l-.05.04Z"/><path class="cls-5" d="m63.56,215.55l-.19-.19c-.23-.24-.49-.42-.8-.52-.3-.16-.62-.23-.96-.22-.34-.01-.67.06-.96.22-.31.1-.58.27-.8.52l-.39.51c-.23.39-.34.81-.34,1.26l.09.66c.12.42.33.79.64,1.1l.19.19c.23.24.49.42.8.52.3.16.62.23.96.22.34.01.67-.06.96-.22.31-.1.58-.27.8-.52l.39-.51c.23-.39.34-.81.34-1.26l-.09-.66c-.12-.42-.33-.79-.64-1.1h0Z"/><path class="cls-5" d="m66.01,215.46c.19.99.11,2-.17,2.96-.28.95-.86,1.88-1.64,2.5-.55.46-1.16.84-1.82,1.03-1.17.31-2.36.26-3.44-.13-1.08-.36-2.05-1.14-2.6-2.09-.51-.84-.8-1.76-.88-2.69-.09-1.19.25-2.45,1.08-3.31.26-.26.43-.04.55.35.09.39.25.95.24,1.42-.03.43.03.85.11,1.25.05.4.15.78.3,1.14.31.72.76,1.24,1.41,1.67.82.52,2.02.37,2.84-.07.94-.45,1.51-1.4,1.45-2.55-.03-.69-.27-1.39-.69-1.93-.62-.81-1.61-1.18-2.64-.94-.79.2-1.4.87-1.7,1.5-.08.14-.11.28-.19.4-.25.45-.45.54-1.27.59l-.56.05c-.31.01-.58-.07-.78-.3-.21-.23-.33-.6-.3-1.06.08-.66.26-1.37.65-1.95.38-.58.88-1.08,1.45-1.5,1.15-.8,2.67-1.26,4.28-.99,1.18.24,2.28.91,3.01,1.77.74.86,1.17,1.85,1.38,2.85l-.07.02Z"/><path class="cls-5" d="m455.39,138.31c3.22,0,3.22-5,0-5s-3.22,5,0,5h0Z"/><path class="cls-5" d="m458.95,137.45c-.41.8-1.04,1.47-1.81,1.91-.74.42-1.55.6-2.3.62-.55.01-1.09.03-1.6-.11-1.81-.48-3.24-1.88-3.75-3.59-.23-.76-.24-1.61,0-2.33.27-.92.97-1.85,1.99-2.04.32-.05.32.25.25.61-.08.36-.1.82-.22,1.08-.25.48-.26,1.08-.17,1.51.05.43.28.93.64,1.41.46.59,1.3.82,2.03.89.82.1,1.64-.12,2.08-.65.29-.33.48-.8.44-1.2-.01-.57-.57-1.19-1.37-1.31-.6-.1-1.21.21-1.79.53-.13.07-.25.16-.4.23-.52.24-.8.1-1.25-.61-.1-.16-.21-.31-.3-.47-.29-.53-.28-1.16.14-1.55.62-.57,1.48-1.03,2.55-1.15,1.09-.14,2.36.11,3.41.82.79.53,1.51,1.41,1.78,2.49.27,1.07.08,2.09-.31,2.92l-.07-.02Z"/><path class="cls-5" d="m435.76,156.71c.38.66.61,1.4.63,2.19.02.79-.22,1.58-.62,2.19-.28.45-.59.87-1,1.16-.72.51-1.56.78-2.43.78-.88-.01-1.72-.33-2.32-.97-.56-.55-.85-1.39-.78-2.08.05-.89.37-1.61.88-2.14.17-.16.46.04.72.37.25.33.5.79.46,1.11-.04.28-.05.53-.02.7.04.17.09.23.13.26,0,.03.23.21.54.38.41.21.96-.17,1.26-.52.37-.4.52-.83.34-1.39-.11-.34-.34-.68-.65-.9-.46-.34-1.03-.45-1.52-.13-.39.25-.5.8-.52,1.15,0,.08.04.17,0,.22-.11.22-.33.27-1.09.44l-.51.13c-.54.14-1.12-.07-1.33-.76-.15-.49-.18-1.05-.02-1.54.13-.51.38-.98.73-1.38.68-.81,1.73-1.4,2.95-1.51.91-.07,1.82.16,2.52.58.71.42,1.27.98,1.69,1.63l-.06.04Z"/><path class="cls-8" d="m72.88,332.64s-3.79-1-1.1-4.85c1.79-2.56,2.36,1.59,2.25,2.43s-1.15,2.43-1.15,2.43Z"/><path class="cls-5" d="m75.29,328.66c.17,1.1.07,2.34-.52,3.41-.21.39-.46.81-.81,1.1-.61.51-1.34.8-2.11.87-.78.06-1.6-.16-2.19-.75-.51-.54-.74-1.19-.77-1.83-.02-.41.03-.84.23-1.25.2-.4.6-.76,1.06-.84.3-.05.3.34.31.74-.01.41.2.76.2.85-.05.2,0,.59.11.78.06.1.08.13.15.2.1.07.21.15.39.21.44.15,1-.25,1.29-.63.35-.4.54-1.1.48-1.81-.04-.44-.14-.9-.33-1.33-.27-.64-.69-1.26-1.21-1.41-.09-.03-.2-.04-.28-.03-.07.01-.14.05-.2.09-.12.1-.23.23-.28.33-.02.05-.01.1-.02.12,0,.04-.04-.02-.22-.02-.15,0-.36.03-.63.11-.13.04-.25.09-.37.13-.2.07-.39.08-.6-.06-.2-.13-.41-.43-.42-.85.16-1.2,1.02-2.09,2.18-2.31,1.34-.23,2.33.37,3.01,1,.98.99,1.35,2.06,1.59,3.17l-.06.02Z"/><path class="cls-5" d="m358.85,101.69c.17.4-.11.77-.59,1.12-.15.11-.64.14-.73.03-.17-.22-.33-.44-.47-.67-.07-.14-.69-2.4-.95-3.16-.24-.74-.39-1.5-.51-2.25l-.37-2.31c-.1-.77-.18-1.54-.25-2.32-.03-.34-.03-.69.03-1.03.18-1.18.11-2.36-.01-3.54-.02-.2,0-.4-.14-.59-.25-.31-.3-3.52-.18-3.93.28-1.03.46-2.05.7-3.08.03-.15-.02-.3.16-.43.42-.3.36-.61.4-.93.05-.44.14-.88.31-1.31.08-.21.33-.42.53-.62.18-.18.77-.05.83.02.18.21.47.06.72.05.08,0,.19,0,.26,0,.07.01.37.66.64,1.33.25.67.48,1.36.47,1.5,0,.03.04.95.09,1.92.06.96.12,1.97.16,2.18.03.21-.06.43-.13.64-.04.1.25,2.99.24,3.1-.04.6.06,1.2-.28,1.8-.07.12-.05.24-.05.36.03,1.03-.11,2.06-.2,3.1-.05.53,0,1.05,0,1.58,0,.1-.05.19-.08.29-.03.12-.07.24-.07.36,0,1.25-.17,2.51-.05,3.76.01.29-.26,1.69-.21,2.02.02.19-.34.83-.27.99Z"/><g class="cls-1"><path class="cls-5" d="m368.82,107.46c-.16.29-.55.11-1.07-.32-.16-.14-.47-.67-.45-.79.05-.23.11-.47.19-.66.05-.12,1.27-1.3,1.68-1.73.39-.42.85-.74,1.31-1.03.95-.59,1.88-1.24,2.88-1.75.22-.12.46-.2.71-.24.87-.15,1.64-.5,2.38-.92.12-.07.27-.11.34-.29.12-.3,2.24-1.27,2.58-1.22.8.01,1.56-.06,2.33-.09.11,0,.2-.09.34.04.33.29.53.17.75.13.31-.06.63-.09.97-.06.17.02.37.17.57.29.18.11.26.66.23.73-.08.21.1.43.18.64.03.07.06.17.07.23.02.13-1.35,1.59-1.52,1.66-.01,0-.16.08-.39.19-.22.11-.52.26-.82.42-.6.32-1.22.66-1.33.75-.13.09-.3.05-.46.05-.08,0-1.85.96-1.93.99-.41.1-.74.38-1.25.24-.1-.03-.17.02-.25.06-.64.32-1.35.48-2.04.7-.35.11-.67.3-1.01.43-.06.02-.14,0-.21.02-.09.01-.18,0-.26.04-.78.38-1.66.6-2.38,1.09-.17.1-1.19.26-1.37.4-.11.07-.71-.11-.77.02Z"/></g><path class="cls-5" d="m233.12,132.1c14.05-4.03,28.14-8.05,42.42-11.45,5.21-1.23,10.43-2.47,15.71-3.43,4.66-.85,9.36-1.54,14.1-1.98,4.74-.44,9.54-.61,14.36-.18,2.41.24,4.83.64,7.2,1.35.59.19,1.19.35,1.76.6l.87.35c.16.07.26.09.46.2.18.1.38.2.55.31,1.31.93,2,2.04,2.67,3.11,1.27,2.18,2.13,4.42,2.94,6.67.79,2.25,1.49,4.52,2.13,6.8,2.27,8.08,4.13,16.27,5.98,24.34,2.46,10.33,4.47,20.86,7.21,30.98.46,1.56.74,2.19.6,2.22-.12.02-.66-.6-1.41-1.84-.73-1.23-1.79-3.02-2.67-5.3-.92-2.27-1.84-4.97-2.62-7.95l-2.03-7.91c-.66-2.64-1.23-5.29-1.84-7.93-1.21-5.29-2.41-10.57-3.7-15.82-1.3-5.24-2.66-10.48-4.36-15.53-.86-2.5-1.81-5.02-3.05-7.13-.61-1.04-1.35-1.95-1.93-2.17-1.15-.49-2.34-.91-3.59-1.24-6-1.55-12.69-1.36-19.25-.71-6.59.67-13.2,1.9-19.71,3.25-14.33,3.03-28.51,6.96-42.66,11-8.7,2.52-17.41,5.05-26.11,7.57-13.18,3.82-26.48,7.53-39.75,10.76-10.32,2.46-20.49,4.82-31.03,5.94-2.32.26-4.6.43-6.97.52-4.39.14-7.31-.22-9.32-.64-2.01-.42-3.12-.95-3.93-1.61-.37-.29-.87-.6-1.06-.84-.61-.83,2.82-.34,8.94-.22,9.13.08,18.56-1.36,28.02-3.22,9.47-1.88,19.02-4.26,28.55-6.81,14.16-3.81,28.32-7.98,42.48-12.13l.04.08Z"/><path class="cls-5" d="m345.44,209.99c.52-.78,1.26-1.46,2.04-2.05.54-.35,1.22-.68,1.93-.74.71-.09,1.37.01,1.91.18,1.1.35,1.85.88,2.54,1.39.68.53,1.27,1.07,1.82,1.63,2.17,2.23,3.93,4.55,5.76,6.82,1.32,1.66,2.71,3.24,4.05,4.85,4.69,5.65,10.1,10.79,15.52,15.91l1.83,1.7.93.87.47.46c.17.18.3.29.54.6.54.85.89,1.55,1.27,2.33.37.77.72,1.53,1.04,2.3.86,1.96,1.58,3.97,2.28,5.97.71,2,1.34,4.01,1.97,6,.42,1.22.15,1.2-.72.37-.42-.42-.99-1.05-1.62-1.85-.6-.8-1.19-1.79-1.72-2.9l-1.36-2.94-.69-1.45-.63-1.46c-.43-.96-.86-1.92-1.32-2.83-.23-.45-.46-.91-.71-1.32-.34-.59-.19-.35-.65-.81-1.59-1.43-3.19-2.86-4.78-4.29-1.62-1.46-3.18-3-4.7-4.58-3.64-3.77-7.65-7.57-11.06-11.76-1.88-2.27-3.69-4.59-5.54-6.8-.92-1.11-1.87-2.17-2.85-3.14-.49-.47-1-.92-1.51-1.28-.5-.36-1.02-.6-1.4-.66-.22-.02-.38,0-.56.1-.08.02-.23.15-.37.26-.14.11-.29.21-.4.35-.53.49-.94,1.15-1.26,1.86-.66,1.43-.9,3.11-.9,4.8.02,5.16,2.35,10.26,5.17,14.72,2.24,3.47,5.05,6.45,8.17,8.96.35.27.7.53,1.05.8.36.25.72.5,1.08.75.67.48,1.24.83,1.7,1.17.47.31.85.58,1.14.83.59.5.88.91,1.02,1.45.07.24.19.5.2.71.02.35-.33.49-1.02.43-.7-.04-1.68-.38-2.86-.97-3.47-1.83-6.63-4.43-9.32-7.46-2.7-3.04-4.99-6.5-6.77-10.25-1.33-2.74-2.39-5.85-2.76-9.07-.17-1.62-.19-3.29.08-4.98.27-1.68.8-3.43,1.91-5.01l.07.04Z"/><path class="cls-5" d="m158.9,248.41l1.08-5.88c.39-1.98.76-3.99,1.56-6.11.45-1.04.96-2.23,2.09-3.2.29-.22.57-.47.91-.62.32-.16.68-.35.96-.42.59-.2,1.24-.36,1.95-.36,1.42-.07,3.02.62,3.94,1.63.97.99,1.48,2.09,1.89,3.14.58,1.55.88,3.07,1.11,4.59.23,1.51.34,3.01.39,4.5.14,5.26-.32,10.4-.82,15.53-.52,5.14-1.31,10.24-2.29,15.29-.85,4.49-1.83,8.97-2.79,13.38-.64,2.83-1.21,5.69-2.03,8.51-.42,1.41-.89,2.81-1.46,4.19-.56,1.38-1.28,2.74-2.18,3.93-1.12,1.48-1.28,1.04-.93-.52.35-1.59.8-4.22,1.53-7.39,1.38-5.61,2.7-11.41,3.94-17.15,1.23-5.75,2.28-11.53,3.07-17.38.47-3.49.74-7.12.9-10.73.14-3.61.13-7.25-.25-10.74-.22-1.9-.57-3.82-1.27-5.41-.34-.79-.8-1.46-1.32-1.84-.51-.37-1.08-.5-1.83-.37-.82.13-1.38.35-1.86.88-.5.53-.88,1.34-1.17,2.22-.57,1.78-.92,3.75-1.28,5.7-.85,4.85-1.7,9.76-2.87,14.59-.88,3.66-1.91,7.29-3.04,10.88-.56,1.79-1.14,3.58-1.73,5.35l-.89,2.65-.43,1.32-.2.64-.09.31-.05.23c-.3,1.58-.69,2.89-1.04,4.3-.36,1.39-.69,2.77-1.02,4.15-.64,2.76-1.22,5.52-1.73,8.3-.21,1.23-.41,2.43-.62,3.66-.77,4.58-1.08,6.01-2.06,6.91-.22.2-.44.48-.64.59-.66.38-1.05-1.6-.69-5.08.54-5.14,1.53-10.37,2.82-15.57.33-1.29.66-2.59,1-3.89l.51-1.93c.16-.61.34-1.32.42-1.77.18-.98.42-1.58.62-2.25l.64-1.93,1.26-3.82c1.23-3.78,2.38-7.58,3.38-11.42,1.02-3.83,1.81-7.7,2.52-11.63h.08Z"/></svg>