<?xml version="1.0" encoding="UTF-8"?><svg id="Layer_1" xmlns="http://www.w3.org/2000/svg" width="520" height="520" viewBox="0 0 520 520"><defs><style>.cls-1{opacity:.75;}.cls-1,.cls-2,.cls-3,.cls-4{fill:#231f20;stroke-width:0px;}.cls-2{opacity:.10;}.cls-3{opacity:.75;}</style></defs><path class="cls-4" d="m146.04,470.39l-7.16-5.69-2.65-2.01c-3.07-2.42-6.18-4.77-9.46-6.87-1.46-.91-2.98-1.76-4.51-2.5-1.96-.98-3.99-1.75-6.04-2.52-.64-.24-.53-.38.09-.48.61-.09,1.82-.26,3.09.13,4.54,1.27,8.5,3.74,12.25,6.38,2.23,1.61,4.65,3.14,6.92,4.79,2.5,1.8,4.93,3.69,7.35,5.58,1.49,1.16,2.98,2.32,4.49,3.45,2.28,1.71,4.57,3.44,6.96,4.94,1.85,1.16,3.79,2.13,5.73,2.89.43.15.86.31,1.28.44,1.57.58,1.98.73,2.28,1.43.07.16.17.32.21.47.07.26-.08.46-.46.61-.19.07-.44.13-.73.15-.28,0-.61-.02-.98-.06-2.15-.33-4.06-1.27-5.92-2.23-1.85-.99-3.61-2.15-5.33-3.34-2.56-1.77-5.01-3.66-7.46-5.53l.03-.05Z"/><path class="cls-2" d="m220.19,162.95c.08.89-.8,1.29,3.45,9.29,4.25,8,13.76,21.29,15.43,29.91,1.67,8.62,1.28,24.42,1.31,27.79.03,3.37.71,3.38,7.75,4.69,7.03,1.31,12.92.35,12.32-3.87-.6-4.22-4.55-25.41-2.97-28.75,1.57-3.34,8.37-7.37,8.05-13.19s-1.33-10.28-4.84-14.57c-3.51-4.29-6.36-6.46-5.59-16.99.77-10.53,2.26-13.87.19-17.1-2.07-3.23-4.17-3.72-4.96-1.66s-3.32,11.39-4.45,13.75c-.92,1.92-3.04,9.28-4.42,12.74-.4.99-2.91,1.86-3.96,1.67l-17.3-3.71Z"/><path class="cls-3" d="m256.37,312.14l27.53-15.17s-6.87-25.26-6.26-41.64c.61-16.37-2.69-24.56-2.69-24.56,0,0-13.64,6.25-20.98,5.4-7.34-.85-27.64,2.18-30.34-7.97,0,0-2.34,3.4-2.94,11.32-.59,7.92,1.86,53.33,2.19,59,.32,5.66-.76,37.56-.76,37.56,0,0,10.99-9.22,12.51-7.33,1.52,1.9,16.51,19.36,16.51,19.36,0,0,18.42-7.67,28.03-15.14,2-1.56-18.99-11.75-22.8-20.83Zm6.27-47.13c1.15,0,3.65,1.83,2.32,3.44-.75.92-5.46,4.58-7.98,3.16-2.36-1.32,1.79-6.6,5.66-6.6Zm-30.38-13.24c-.64-1.36.68-2.78,3.22-1.56,1.44.69,5.54,3.85,4.72,5.4-2.13,4.03-6.55-.89-7.94-3.84Zm12.68,46.01c-1.51-.25-6.3-2.07-6.83-4.74-.91-4.57,7.02-1.59,9.15.8.98,1.11.34,4.38-2.32,3.94Zm6.2,35.24c-1.13.19-3.91-1.87-2.53-3.43.79-.89,4.98-4.61,7.06-3.95,3.89,1.24-2.08,6.97-4.53,7.38Z"/><path class="cls-4" d="m222.15,311.71c-.18-3.23-.37-6.46-.49-9.69-.05-1.18-.16-2.36-.19-3.53-.12-4.16-.21-8.32-.19-12.48,0-1.85-.05-3.7-.09-5.53,0-1.18-.08-2.35-.04-3.53l.13-1.77c0-.29.07-.59.14-.88.06-.29.07-.59.11-.88.09-.73.12-.63.28-.01.09.31.16.75.42,1.28.19.53.31,1.15.41,1.82l.12.9.05.9.08,1.79.16,3.59c.09,2.39.19,4.79.2,7.2-.01,2.89.28,5.88.45,8.83l.55,9.73.38,5.99c.21,3.02.4,6.06.69,9.06.22,2.33.57,4.6.85,6.9.06.51.15,1,.2,1.51.09.95.12,1.58.04,2.02-.1.45-.27.72-.53.94-.12.1-.23.23-.35.3-.2.11-.4-.03-.6-.36-.2-.33-.43-.86-.53-1.55-.73-4.08-1.16-8.42-1.54-12.78-.28-3.24-.5-6.5-.74-9.75h.06Z"/><path class="cls-1" d="m221.04,480.19s15.21-14.23,20.68-7.93c5.06,5.84,12.99,5.38,12.99,5.38,0,0-11.02-18.25-9.27-19.99,1.74-1.74-24.4,22.54-24.4,22.54Z"/><path class="cls-1" d="m212.21,480.76c-.87-1-12.56-16.93-24.8-11.09-14.57,6.94-18.87,6.67-16.14,3.97s17.69-16.31,19.9-14.97,16.84,12.93,20.05,15.68c3.21,2.75.99,6.41.99,6.41Z"/><path class="cls-1" d="m314.56,469.67c-1.96-.88-11.27-9.62-37.8-.48-17.02,5.86,15.18-8.71,23.69-10.57,8.51-1.86,14.93-1.96,14.93-1.96l-.82,13.01Z"/><path class="cls-1" d="m151.35,397.12c-3.29-2.61,5.54-4.06-1.01-10.21-5.15-4.83.3-6.24.3-6.24l15.05,12.4-6.96,8.67-7.38-4.62Z"/><path class="cls-1" d="m265.85,412.73c2.39-6.08,38.93-12.2,38.93-12.2-14.97,4.49-20.31-2.98-19.48-7.03l-23.05,16.07,3.6,3.16Z"/><path class="cls-1" d="m399.45,453.3s.79-18.26,18.67-28.91c11.09-6.6-21.08,10.65-21.08,10.65l2.42,18.26Z"/><path class="cls-4" d="m362.61,317.19c-.09-.31-.4-.74-.75-1.13-.36-.39-.77-.78-1.2-1.15-.32-.27-.68-.49-1.01-.75-.59-.46-1.2-.92-1.81-1.37-.61-.46-1.22-.92-1.85-1.37-.56-.4-1.15-.74-1.69-1.15-.7-.52-1.46-.97-2.02-1.7-.17-.22-.16-.18.07-.11.12.03.29.06.52.08.21.03.44.1.68.19.81.35,1.68.6,2.46,1.02.78.42,1.55.86,2.29,1.38.88.63,1.88,1.14,2.8,1.77,1.01.71,2.01,1.46,2.87,2.52.26.33.51.71.68,1.18.08.23.14.5.14.79v.11s0,0,0,0h0c.46.02-.63-.02-.51-.02h.06s.13.01.13.01h.26c.13,0,.04,0,.07,0h0s0,.05.01.08c.01.09.03.21.04.32.07.72-.15,1.43-.44,1.99-.3.58-.66,1.08-1.05,1.53-.58.73-1.17,1.42-1.85,1.99-.15.13-.28.27-.44.39-.61.41-.89.41-1.31.05-.1-.08-.2-.16-.28-.25-.28-.3-.23-.75.08-1.16.47-.6.92-1.19,1.37-1.77.45-.54.94-1.02,1.25-1.5.24-.35.37-.67.44-.91.01-.06.02-.12.03-.2,0-.06,0-.07,0-.18l-.02-.23v-.2s0,0,0,0h0c.25,0,.07,0,.12,0h0s0,0,0,0h-.01s-.02,0-.02,0c-.09,0-.07,0-.06,0,0-.01,0-.02,0-.04-.01-.04,0-.09-.04-.17l.05-.03Z"/><path class="cls-4" d="m217.95,340.17l-2.84,2.2c-.34.27-.66.57-1.02.83-1.23.92-2.55,1.75-3.87,2.55-.58.37-1.15.74-1.73,1.1-.75.45-1.56.81-2.4,1.07-.26.08-.26,0-.12-.23.15-.22.41-.61.78-.93.33-.3.64-.6.97-.88l1.04-.76c.69-.52,1.39-1.02,2.12-1.51.86-.59,1.67-1.33,2.49-2.02.91-.75,1.82-1.51,2.72-2.29.55-.48,1.11-.96,1.64-1.45.82-.74,1.65-1.49,2.42-2.28.6-.61,1.1-1.31,1.64-1.97.12-.15.22-.3.35-.44.47-.52.73-.57,1.23-.28.11.07.23.13.34.2.35.26.39.71.11,1.16-.83,1.32-1.93,2.48-3.1,3.59-.88.81-1.81,1.59-2.73,2.36l-.03-.03Z"/><path class="cls-4" d="m220.54,318.99c-.12-.8-.27-1.61-.49-2.4-.07-.29-.22-.55-.3-.84-.3-1.02-.66-2.02-1.11-2.99-.18-.44-.44-.84-.69-1.24-.34-.5-.71-.98-.91-1.59-.07-.19.06-.26.32-.26.24.02.69.05.98.3.89.94,1.78,1.95,2.2,3.22.28.74.71,1.43,1.02,2.17.34.81.61,1.65.85,2.5.15.52.27,1.05.38,1.58.18.8.27,1.61.44,2.4.13.62.35,1.21.49,1.83.03.14.08.27.1.41.06.52-.08.69-.65.82-.13.03-.26.07-.39.09-.44.06-.82-.12-.98-.46-.48-1.01-.7-2.05-.87-3.12-.13-.79-.27-1.59-.44-2.38l.05-.02Z"/><path class="cls-4" d="m266.9,305.03c1.47-.69,2.94-1.42,4.37-2.2.53-.28,1.01-.63,1.53-.92,1.86-.98,3.63-2.1,5.44-3.17.8-.49,1.54-1.05,2.26-1.62.92-.74,1.73-1.56,2.68-2.27.3-.24.3-.19.25.15-.08.31-.03,1.17-.53,1.71-.39.53-.83.97-1.25,1.45-.44.44-.89.89-1.35,1.32-.94.83-1.89,1.64-3,2.23-1.3.74-2.52,1.71-3.8,2.52-1.42.89-2.86,1.73-4.32,2.54-.9.5-1.81.98-2.72,1.46-1.38.73-2.79,1.4-4.15,2.14-1.06.57-2.03,1.27-3.07,1.88-.23.14-.44.3-.68.41-.89.44-1.26.39-1.73-.23-.11-.14-.23-.27-.32-.42-.3-.5-.12-1.1.45-1.52,1.69-1.25,3.61-2.25,5.55-3.27,1.45-.74,2.91-1.49,4.35-2.26l.04.06Z"/><path class="cls-4" d="m230.51,331.68c-.64.32-1.28.65-1.91,1-.23.13-.42.31-.66.42-.85.4-1.71.8-2.54,1.23-.37.19-.72.42-1.07.65-.22.15-.45.3-.7.41-.25.11-.52.21-.85.17-.2-.02-.21-.16-.18-.43.02-.18.04-.36.06-.51.03-.17.09-.32.19-.43.34-.4.79-.65,1.21-.96.43-.29.89-.56,1.38-.8.59-.27,1.07-.76,1.62-1.13.62-.39,1.25-.76,1.88-1.14.39-.23.79-.46,1.18-.68.59-.35,1.21-.66,1.8-1.04.46-.28.86-.69,1.41-.98.11-.07.25-.14.39-.19.56-.18,1,.05.97.67,0,.14-.02.28-.05.41-.06.22-.17.42-.21.59-.02.16-.04.3-.07.37-.35.49-1.18.95-1.96,1.39-.61.34-1.23.68-1.85,1.02l-.03-.04Z"/><path class="cls-4" d="m242.16,334l2.62,3.22c.32.39.69.74,1,1.13,1.1,1.39,2.2,2.79,3.3,4.19.5.61,1.01,1.21,1.53,1.79l1.01,1.12.24.29.18.34c.11.23.22.46.34.7.13.3-.03.38-.41.36-.19,0-.44-.04-.73-.09-.14-.03-.29-.06-.44-.1-.08-.02-.14-.05-.23-.07-.06-.04-.11-.09-.16-.14-.74-.71-1.46-1.42-2.16-2.17-.68-.76-1.3-1.58-1.9-2.42-.72-1.01-1.66-1.89-2.49-2.83l-2.73-3.13-1.69-1.91c-.87-.95-1.72-1.93-2.64-2.81-.72-.68-1.53-1.25-2.31-1.83-.17-.13-.35-.23-.52-.37-.3-.24-.46-.4-.53-.6-.03-.1,0-.16.02-.28.04-.12.08-.27.13-.44.04-.15.06-.3.1-.43.06-.22.18-.37.48-.48.16-.07.32-.05.5,0,.13.03.27.09.42.17,1.71.93,3.02,2.24,4.32,3.61.96,1.01,1.88,2.07,2.79,3.12l-.04.04Z"/><path class="cls-4" d="m223.65,325.64s0,7.43,4.95,5.74c2.57-.88-7.25,5.26-6.68,1.88.57-3.38,1.73-7.62,1.73-7.62Z"/><path class="cls-4" d="m255.64,154.81s-.18,10.17,4.78,11.86c4.96,1.69-7.93,5-6.7-5.93,1.23-10.93,1.92-5.93,1.92-5.93Z"/><path class="cls-4" d="m253.54,236.44c-1.46-.03-2.92-.09-4.38-.18-.53-.02-1.07.01-1.6-.04-1.88-.32-3.73-.72-5.54-1.21-.8-.2-1.6-.4-2.4-.6-.51-.14-1.01-.3-1.5-.49-.48-.22-.95-.46-1.41-.72-.28-.17-.18-.3.15-.43.33-.12.9-.29,1.49-.25,1.05.02,2.04.18,3.05.29.5.07,1,.11,1.5.18.5.07,1,.14,1.51.21,1.21.24,2.49,0,3.74,0,1.38.02,2.77,0,4.17-.06l2.59-.14c1.31-.09,2.64-.16,3.93-.39,1.01-.17,1.98-.48,2.98-.71.22-.05.43-.13.66-.16.83-.11,1.12.07,1.39.83.06.17.14.34.18.52.15.59-.13,1.13-.7,1.42-1.7.83-3.52,1.46-5.45,1.65-1.42.18-2.87.3-4.34.36v-.08Z"/><path class="cls-4" d="m240.38,223.42s-15.6,3.97-13.62,7.34c2.6,4.43,12.73,4.43,12.73,4.43l.89-11.77Z"/><path class="cls-4" d="m259.4,223.42s11.25,1.36,13.86,4.7c2.61,3.35-12.05,8.04-12.05,8.04l-1.81-12.75Z"/><path class="cls-4" d="m211.25,142.5c-.28,3.02-.72,6.03-1.28,9.02-.18,1.09-.39,2.19-.63,3.27l-.73,2.85-.21.7-.11.35-.04.12-.09.24-.04.13s.07.02.1.03l2.12.38,2.86.55c1.69.33,3.38.69,5.04,1.07,2.14.47,4.27.99,6.39,1.52.66.17.56.2-.02.18-.58-.02-1.66-.03-2.92-.17-2.22-.27-4.43-.53-6.65-.8-2.19-.32-4.38-.64-6.6-.96-.58-.06-1.16-.16-1.73-.23l-.85-.12.26-.85c.25-.86.51-1.73.76-2.61.32-1.32.62-2.66.87-3.99.57-2.93.98-5.91,1.28-8.9.18-1.84.35-3.69.47-5.54.19-2.81.36-5.64.46-8.44.05-2.18.1-4.33.15-6.49.02-.48.02-.95.07-1.43.17-1.78.39-2.33.92-2.65.12-.07.25-.17.36-.21.4-.12.64.63.64,1.92.02,3.83-.12,7.84-.27,11.91-.12,3.02-.29,6.07-.53,9.12h-.05Z"/><path class="cls-4" d="m302.15,119.24s.97,2.86,1.69,2.2-4.54,14.46-4.54,14.46l2.84-16.66Z"/><path class="cls-4" d="m205.92,304.76l-.91-.49c-.21-.11-.14-.07-.17-.1-.02-.02-.04-.04-.06-.05-.1-.11-.15,0-.28.09l-1.34,1.55-1.38,1.63c-.67.8-1.28,1.64-1.96,2.43-2.41,2.77-4.88,5.5-7.38,8.2-1.11,1.2-2.2,2.43-3.34,3.58-1.45,1.49-2.92,3.03-4.8,4.07-.65.24-.6.14-.39-.46.24-.57.63-1.61,1.37-2.51,1.39-1.53,2.67-3.17,4.03-4.75,1.4-1.55,2.8-3.12,4.25-4.67,1.74-1.85,3.25-4.02,4.86-6.06l2.68-3.36,1.49-1.83c.17-.22.37-.42.55-.62.19-.2.42-.28.62-.42.1-.05.21-.15.33-.15.12.02.24.02.37.06l.75.19c.3.12.65.28.92.41l.61.29,1.2.61c.8.41,1.58.83,2.37,1.26,2.37,1.3,4.67,2.75,6.93,4.23,1.76,1.14,3.55,2.22,5.21,3.61.36.31.76.57,1.09.94.61.68.96,1.18,1.05,1.65.11.45,0,.81-.27,1.2-.12.18-.23.37-.38.51-.51.47-1.35.22-2.17-.48-2.59-2.08-5.54-4.2-8.66-6.24-2.33-1.5-4.74-2.96-7.21-4.24l.03-.07Z"/><path class="cls-4" d="m273.81,167.5c2.2.49,4.39,1.04,6.56,1.64.8.2,1.6.36,2.39.6,2.76.86,5.5,1.81,8.16,2.95,1.18.48,2.4.91,3.58,1.37.75.32,1.52.59,2.25.96.35.22.71.41,1.04.67.32.27.65.53.98.81.4.35.32.34-.16.39-.24.03-.6.09-1.03.18-.21.04-.46.1-.69.12-.23,0-.46,0-.7-.04l-.62-.09-.59-.16-1.18-.33c-.79-.21-1.55-.49-2.31-.76-1.53-.55-3.06-1.09-4.57-1.73-1.8-.8-3.82-1.19-5.75-1.71-2.13-.58-4.28-1.11-6.44-1.58-1.33-.29-2.67-.56-4.02-.79-2.04-.35-4.09-.68-6.14-.85-1.59-.11-3.17-.05-4.75-.02-.35,0-.69.03-1.04.03-1.29-.06-1.69-.39-1.93-1.13-.05-.17-.13-.35-.16-.52-.1-.57.46-1.02,1.44-1.25,2.9-.46,5.94-.31,8.97.07,2.25.27,4.5.68,6.73,1.11v.08Z"/><path class="cls-4" d="m298.28,145.39c.55-3.48,1.15-6.95,1.94-10.38.28-1.25.45-2.53.76-3.77,1.03-4.4,2.2-8.77,3.42-13.12.58-1.92,1.04-3.88,1.63-5.78.36-1.23.71-2.46,1.16-3.67.43-1.2.84-2.44,1.58-3.53.44-.68.49-.53.51.2,0,.36.07.9-.02,1.47-.09.57-.18,1.24-.36,1.94-1.31,4.95-2.41,9.99-3.69,15.04-.78,3.02-1.25,6.24-1.81,9.37l-1.81,10.37c-.34,2.13-.71,4.26-.96,6.4-.22,1.62-.43,3.24-.59,4.87l-.24,2.44c-.05.81-.09,1.62-.14,2.43-.07,1.26-.07,2.5,0,3.74.04,1.24.1,2.47.2,3.69.04.54.1,1.06.12,1.61.19,1.98-.07,2.63-.63,3.17-.13.12-.26.28-.39.36-.43.27-.96-.49-1.45-2.03-1.05-4.58-.83-9.43-.51-14.2.28-3.55.72-7.1,1.23-10.61h.07Z"/><path class="cls-4" d="m238.27,207.13c-.55-3.59-1.42-7.14-2.68-10.56-.45-1.25-1.05-2.44-1.56-3.67-.96-2.14-1.99-4.26-3.18-6.3-.61-1.02-1.16-2.06-1.84-2.98l-2.1-2.94c-1.24-1.77-2.5-3.55-3.64-5.4-.74-1.19-1.39-2.44-1.89-3.76-.52-1.31-.89-2.71-.95-4.14.04-.91.24-.8.84-.2.54.62,1.61,1.59,2.29,2.88.33.57.64,1.14,1.01,1.7l.54.83.49.86c.67,1.14,1.38,2.28,2.14,3.4.75,1.12,1.53,2.24,2.33,3.37.4.56.8,1.13,1.2,1.73.2.3.4.6.61.95.2.33.35.63.53.95,1.7,2.97,3.49,6.06,4.87,9.29,1.5,3.55,2.66,7.25,3.43,11.01.23,1.16.42,2.33.62,3.49l.43,3.51c.35,3.56.33,7.14.25,10.67-.06,1.37-.04,2.73-.12,4.09l-.08,2.04c-.04.68-.1,1.35-.16,2.03-.05.6-.07,1.19-.14,1.79-.33,2.21-.68,2.88-1.56,3.19-.2.07-.4.18-.6.2-.63.09-1.02-.9-.92-2.49.27-4.74.69-9.64.66-14.57-.04-3.65-.29-7.32-.91-10.93l.07-.02Z"/><path class="cls-4" d="m258.31,224.65c-.11-1.54-.19-3.1-.32-4.65-.05-.57-.16-1.12-.2-1.69-.12-2.01-.24-4.02-.36-6.03-.04-.89-.11-1.79-.2-2.67-.1-1.13-.13-2.28.1-3.43.09-.36.19-.31.44-.03.27.28.67.8.85,1.43.37,1.11.54,2.23.72,3.36.2,1.12.29,2.27.34,3.43.05,1.39.41,2.79.62,4.2l.64,4.65.33,2.88c.18,1.45.29,2.93.49,4.37.16,1.13.47,2.22.68,3.35.05.25.1.49.11.75.04.95-.22,1.25-.94,1.45-.16.05-.33.11-.48.13-.51.09-1.06-.28-1.29-.92-.15-.47-.35-.95-.45-1.44-.1-.49-.18-.98-.27-1.48-.15-.99-.27-2.01-.38-3.04-.16-1.54-.31-3.08-.47-4.62h.07Z"/><path class="cls-4" d="m220.96,296.3c-.27-5.44-.62-10.88-.97-16.34-.13-1.99-.34-3.98-.44-5.97-.35-7.03-.63-14.09-.4-21.16,0-1.57.07-3.14.13-4.7.07-1.57.07-3.13.17-4.69.13-2,.25-4,.45-5.99.29-1.99.58-3.98,1.19-5.9.6-1.17.51-1,.9.11.21.56.38,1.33.57,2.26.15.92.19,1.97.11,3.1-.09,1-.07,2-.12,3-.03,1-.12,2-.18,3-.16,1.99-.13,4.01-.23,6.01-.11,2-.06,4.02-.11,6.04-.02,2.02-.05,4.05-.07,6.08-.08,4.87.42,9.93.74,14.91l1.09,16.47c.22,3.39.38,6.78.53,10.17.12,2.57.14,5.15.22,7.72,0,2.58,0,5.15,0,7.71-.04,1.99-.04,3.96-.03,5.93-.07,1.97-.13,3.93-.2,5.91-.02.87-.06,1.72-.16,2.59-.09.81-.18,1.48-.27,2.04-.11.56-.26,1-.39,1.36-.27.72-.61,1.11-1.02,1.4-.19.13-.37.31-.53.38-.48.24-.96-1.16-.98-3.51.23-3.45.26-7.01.43-10.59.03-1.8.06-3.61.08-5.43.04-1.82-.02-3.65-.02-5.48.03-2.72-.14-5.45-.18-8.19-.12-2.74-.24-5.48-.4-8.22h.08Z"/><path class="cls-4" d="m277.05,269.78c-.25-3.67-.45-7.33-.64-10.99-.07-1.34-.24-2.66-.29-4-.17-4.71-.24-9.41-.45-14.1-.11-2.08-.26-4.17-.44-6.22-.12-1.32-.28-2.63-.43-3.94-.07-.65-.1-1.31-.16-1.95l-.1-.96c-.04-.31-.02-.64-.07-.93-.05-.36-.04-.46.03-.55.06-.08.3-.03.63.26.7.54,1.58,1.79,1.99,3.32.57,2.73.93,5.44,1.23,8.16.21,2.72.33,5.45.37,8.19.03,3.28.49,6.66.68,10,.22,3.67.43,7.34.7,11.01.16,2.26.34,4.51.56,6.76.34,3.4.68,6.82,1.27,10.16.46,2.59,1.17,5.08,1.93,7.53.17.54.35,1.06.5,1.6.29,1,.44,1.66.44,2.17-.03.52-.18.87-.46,1.22-.13.16-.24.36-.38.48-.23.21-.53.15-.91-.14-.38-.29-.84-.81-1.18-1.56-1.11-2.21-1.82-4.6-2.38-7.02-.57-2.43-.98-4.9-1.33-7.38-.52-3.69-.85-7.4-1.18-11.09h.08Z"/><path class="cls-4" d="m230.04,128.77c.45-1.62.87-3.27,1.19-4.93.13-.61.14-1.23.25-1.83.37-2.15.83-4.31,1-6.5.05-.49.07-.97.07-1.46.01-.49.04-.98.03-1.46,0-.62-.05-1.24,0-1.87.07-.63.1-1.25.3-1.9.13-.4.19-.36.46-.04.29.31.82.89,1.1,1.61.14.32.2.64.24.97l.15.98c.09.65.17,1.31.18,1.97,0,1.31-.08,2.63-.29,3.94-.23,1.57-.22,3.21-.47,4.81-.26,1.76-.62,3.5-1.02,5.22-.25,1.06-.53,2.11-.81,3.16-.42,1.59-.94,3.16-1.39,4.73-.37,1.21-.6,2.45-.95,3.66-.07.27-.12.54-.22.8-.36.97-.67,1.21-1.41,1.14-.17-.02-.35-.02-.51-.05-.55-.12-.82-.68-.73-1.43.3-2.22.77-4.44,1.4-6.62.48-1.62.97-3.25,1.37-4.9h.07Z"/><path class="cls-4" d="m240.71,122.86c.18-.75.36-1.51.55-2.25.06-.27.05-.56.12-.83.25-.96.61-1.91.86-2.88.13-.43.12-.86.22-1.31.05-.29.09-.6.2-.91.03-.08.06-.15.09-.23.06-.07.11-.14.17-.2.12-.13.26-.26.4-.36.2-.13.39.04.64.32.16.17.32.34.44.48.09.1.17.18.23.25.04.04.06.08.11.12,0,.03.02.06.02.09,0,.42.17.95.02,1.53-.1.56-.25,1.12-.47,1.67-.27.66-.21,1.39-.37,2.08-.17.76-.34,1.52-.51,2.28-.11.47-.21.94-.32,1.4-.16.71-.31,1.42-.42,2.13-.07.55-.02,1.11-.04,1.66,0,.12,0,.24,0,.36-.06.45-.23.57-.74.61-.12,0-.23.02-.35.02-.38,0-.68-.23-.79-.58-.31-1.03-.44-2.09-.41-3.14.06-.77.17-1.54.29-2.31h.07Z"/><path class="cls-4" d="m270.74,139.44c.51-1.63.99-3.27,1.39-4.94.17-.6.24-1.22.4-1.83.57-2.14,1.08-4.3,1.43-6.49.16-.97.28-1.95.38-2.92.11-1.25.19-2.5.42-3.76.08-.39.29-.33.54,0,.24.34.57.96.66,1.7.12,1.3.2,2.61.2,3.92,0,1.31-.21,2.61-.45,3.9-.3,1.55-.37,3.19-.62,4.78-.26,1.75-.7,3.47-1.13,5.18-.26,1.06-.56,2.1-.84,3.15-.43,1.59-.95,3.16-1.38,4.73-.33,1.23-.52,2.47-.83,3.69-.06.27-.1.54-.19.81-.32.99-.63,1.23-1.44,1.16-.18-.01-.37-.01-.55-.05-.6-.12-.93-.68-.87-1.44.17-2.26.7-4.49,1.35-6.69.48-1.64,1.02-3.27,1.47-4.93h.07Z"/><path class="cls-4" d="m281.36,300.55c-3.7,2.05-7.45,3.98-11.19,5.94-1.37.71-2.69,1.49-4.07,2.17l-4.02,1.99-2.01.98-.77.41-.52.28c-.3.03-.6.17-.36.39l.2.29.11.15.17.21c.76.91,1.55,1.8,2.37,2.68,1.61,1.74,3.39,3.33,5.17,4.86,2.29,1.98,4.79,3.58,7.13,5.48.76.53.58.72-.34.75-.46.01-1.11-.02-1.87-.14-.38-.07-.82-.1-1.23-.24-.4-.16-.79-.36-1.18-.6-1.38-.87-2.69-1.81-3.95-2.8-1.27-.98-2.47-2.05-3.6-3.17-1.14-1.12-2.24-2.27-3.3-3.48l-.79-.92-.93-1.13c-.9-1.09-1.82-2.32-1.08-3.12.24-.28.39-.52.71-.83.64-.27,1.29-.54,1.94-.82l.76-.33c.2-.09.4-.19.6-.29.79-.4,1.59-.81,2.38-1.22,1.59-.83,3.18-1.66,4.76-2.49,3.76-1.93,7.49-3.91,11.18-5.97,2.26-1.28,4.54-2.54,6.75-3.89,3.38-2,6.72-4.12,9.89-6.38,1.2-.91,2.38-1.84,3.52-2.8,1.09-1.01,2.22-1.97,3.26-3.01.45-.46.87-.93,1.34-1.38.9-.81,1.36-1.42,1.85-1.71.49-.3.9-.38,1.37-.34.21.02.45,0,.63.05.3.08.38.38.25.88-.13.49-.44,1.2-1.03,1.96-.86,1.13-1.86,2.11-2.85,3.16-1.04.95-2.12,1.89-3.22,2.82-1.13.87-2.28,1.74-3.43,2.6-1.19.81-2.38,1.62-3.57,2.43-3.59,2.33-7.27,4.52-10.99,6.61l-.04-.06Z"/><path class="cls-4" d="m353.93,311.02c-3.9-2.34-7.77-4.75-11.61-7.2-1.4-.9-2.84-1.73-4.22-2.65-4.87-3.25-9.67-6.63-14.27-10.26-2.05-1.6-4.13-3.19-6.12-4.84-1.29-1.04-2.57-2.11-3.77-3.28-1.21-1.14-2.38-2.35-3.33-3.74-.54-.92-.42-.82.43-.44.85.4,2.39,1.08,3.81,2.29,2.61,2.06,5.16,4.18,7.84,6.19,2.68,2,5.36,4.01,8.07,6.04,3.22,2.45,6.82,4.64,10.31,6.87,3.84,2.45,7.72,4.85,11.64,7.18,2.41,1.44,4.83,2.86,7.28,4.24,1.85,1.04,3.71,2.09,5.57,3.13.27.16.68.35.95.56.26.22.56.44.75.66l.16.17.04.04.02.02h0c-.07.03.1-.03.08-.02h0s0,.02,0,.02v.12c.04.17-.01.33-.03.5-.08.33-.21.67-.39.99-.17.33-.39.64-.6.95-.18.25-.34.46-.51.68-.34.43-.69.85-1.05,1.26-2.22,2.51-4.44,4.89-6.82,7.17-.53.5-1.02,1.01-1.58,1.49-2.05,1.79-2.93,2.09-3.9,1.74-.22-.08-.47-.13-.63-.23-.54-.32-.04-1.47,1.36-2.78,2.09-1.95,4.24-3.94,6.37-6,1.05-1.03,2.13-2.06,3.09-3.16.48-.54.94-1.09,1.34-1.63l.08-.11h0s0,0,0,0h0s0,0,0,0l-1.42-.79-3-1.69-5.97-3.44.03-.06Z"/><path class="cls-4" d="m286.68,307.81c-1.09.43-2.19.84-3.28,1.24-.4.15-.78.35-1.18.48-1.42.49-2.89.84-4.32,1.25-.64.18-1.27.39-1.88.61-.79.29-1.6.56-2.45.63-.27.02-.31-.24-.18-.58.13-.34.41-.79.84-1,1.55-.7,3.13-1.28,4.77-1.75.99-.27,1.92-.79,2.89-1.17,1.06-.43,2.13-.86,3.18-1.32.65-.28,1.3-.57,1.93-.88.96-.47,1.94-.93,2.84-1.49.7-.44,1.31-1,1.96-1.49.14-.11.27-.24.42-.34.55-.38.82-.36,1.26.08.1.1.21.19.3.3.31.36.28.84-.07,1.23-.52.58-1.11,1.09-1.75,1.55-.65.44-1.34.83-2.04,1.2-1.04.55-2.13,1.02-3.21,1.5l-.03-.05Z"/><path class="cls-4" d="m275.9,95.78c4.32.23,8.65.37,12.99.45l6.51.07h6.98c.69.01,1.42,0,1.96.2.29.07.44.27.58.46l.05.07.03.04v.02c.07-.05-.12.12.15-.11h0s0,0,0,0h0s.04.22.04.22l.08.42.16.83.08.41c.02.14-.01.33-.02.5-.03.64-.16,1.51-.19,1.79-.18,1.61-.4,3.18-.64,4.75-1.7,11.07-3.39,22.11-4.51,33.22-.28,2.46-.42,4.94-.61,7.41-.13,2.47-.26,4.94-.31,7.39-.03,1.57-.02,3.15-.07,4.73l.04,4.72c-.02,1.58.15,3.14.11,4.71-.08,1.58.08,3.14.08,4.72-.06,1.99-.14,1.75-.78.15-.58-1.6-1.96-4.62-2.16-8.33-.51-6.55-.27-13.09.17-19.59.44-6.51,1.18-12.99,2.11-19.47,1.12-7.74,2.12-15.82,3.22-23.69l.19-1.52c.03-.19.05-.37.07-.57v-.14s.04-.12-.02-.11c-.09-.01-.19-.02-.28-.02h-.65s-6.58-.02-6.58-.02c-4.4-.02-8.8-.1-13.2-.26-5.41-.19-10.83-.51-16.23-.94-8.18-.66-16.37-1.7-24.4-3.12-6.24-1.11-12.37-2.33-18.42-4.18-1.33-.41-2.64-.81-3.96-1.3-1.23-.44-2.22-.88-3.03-1.3-.81-.41-1.45-.78-1.96-1.12-.51-.34-.89-.65-1.18-.94-.28-.32-.48-.63-.64-.91-.15-.27-.37-.55-.44-.74-.25-.57,1.92-.23,5.4.97,10.32,3.65,21.68,6.1,33.25,7.69,8.59,1.18,17.31,1.97,26.03,2.35v.08Z"/><path class="cls-4" d="m211.83,128.48l-.46,4.12-.56,4.11c-.4,2.73-.8,5.46-1.31,8.18-.33,1.99-.67,3.97-1.08,5.94-.33,1.7-.78,3.38-1.17,5.07-.19.84-.41,1.68-.64,2.52l-.31,1.26c-.03.13-.03.15-.04.18v.1s-.04.21-.04.21c-.2.06-.06.02-.1.03h0s0,0,0,0h0s0,.01,0,.01h0s0,.04,0,.04v.06s-.04.12-.04.12c0,.07-.09.19-.02.23.15.03.32.05.49.07l.26.03.5.03,1.35.08c1.8.1,3.61.22,5.41.35,3.13.24,6.29.45,9.4.82,2,.25,4,.52,5.99.93.99.21,1.99.43,2.96.75.48.16.96.35,1.44.53.47.2.86.66,1.31.9,1.1.67.92.62-.19.62-.54-.05-1.45.41-2.34.37-.46.02-.96.06-1.47.03-.51-.04-1.04-.1-1.59-.19-3.9-.68-7.88-1.01-11.88-1.46-2-.2-4.01-.37-6.03-.54l-3.04-.24-1.53-.12-1.14-.08c-.45-.04-.91-.06-1.31-.14-.31-.06-.6-.15-.82-.27-.14-.04-.15-.19-.22-.27l-.08-.14-.04-.07-.02-.04v-.03c-.09.06.16-.13-.18.13h0s0,0,0,0h0s0,0,0,0h0s-.05-.8-.05-.8l-.02-.4v-.2s-.02-.1-.02-.1v-.05s0-.02,0-.02h0s0-.02,0-.02h0s0,0,0,0h0c-.05.01.12-.04-.12.03l.44-1.32.21-.66.11-.37c.15-.5.29-1,.42-1.5.27-1.01.47-2.04.71-3.06.47-2.05.87-4.11,1.28-6.17,1.06-5.38,1.96-10.8,2.55-16.26.36-3.36.66-6.73.83-10.11.29-5.11.38-10.26.17-15.34-.15-3.95-.62-7.81-1.1-11.68-.11-.85-.25-1.68-.35-2.54-.35-3.19-.2-4.23.42-5.01.15-.18.28-.4.43-.52.5-.38,1.12.87,1.67,3.21,1.38,6.95,1.8,14.44,1.82,21.94,0,5.57-.31,11.16-.81,16.72h-.07Z"/><path class="cls-4" d="m257.57,144.14c.35,3.19-.04,6.15-.43,9.04-.39,2.88-.92,5.71-1.09,8.42-.02.49-.07,1-.03,1.46.01.48.02.96.1,1.39.03.22.05.46.09.66.06.18.08.34.16.54.14.38.34.78.55,1.19.8,1.45,1.9,2.89,3.03,4.32,1.13,1.44,2.33,2.85,3.43,4.47.28.4.55.85.79,1.31l.58,1.34.57,1.34c.2.44.28.93.43,1.4l.39,1.41c.14.46.15.97.23,1.45l.19,1.45c.01.49,0,.98-.01,1.47-.06,3.47-1.2,6.87-3,9.72-1.19,1.81-2.59,3.48-4.18,4.94-.4.36-.83.69-1.24,1.03l-1.32.93c-.45.29-.92.56-1.37.84-.48.24-.98.46-1.49.63-1.33.33-1.1.31-.3-.5.76-.89,2.12-2.38,3.72-4.03,2.95-2.77,5.3-6.19,6.19-9.95.15-.46.21-.94.26-1.42.05-.48.16-.95.16-1.43-.04-.96.05-1.93-.17-2.88-.08-.48-.13-.96-.22-1.44l-.42-1.42c-.21-.96-.7-1.86-1.08-2.79l-.36-.83c-.14-.24-.25-.48-.42-.73-.31-.5-.68-1-1.06-1.5-.77-1-1.62-2.01-2.47-3.03-.85-1.03-1.71-2.08-2.51-3.22-.78-1.16-1.57-2.37-1.96-4.04-.51-3.27,0-6.19.37-9.07.4-2.88.88-5.71,1.01-8.51.11-1.72.03-3.42-.33-5.01-.09-.4-.17-.8-.34-1.15-.15-.36-.25-.76-.48-1.06-.21-.3-.38-.7-.62-.94-.22-.27-.49-.48-.68-.57-.31-.17-.71-.16-1,.04-.27.17-.54.56-.7,1.07-.07.22-.14.58-.22.9l-.22.99-.45,1.98c-.62,2.64-1.28,5.27-2.01,7.87-1.15,4.03-2.32,8-4.1,11.85-.43.83-.8,1.68-1.3,2.49-.49.75-.86,1.38-1.28,1.86-.42.48-.77.85-1.09,1.12-.68.52-1.25.65-1.75.64-.24,0-.5.02-.67-.05-.29-.1-.26-.49,0-1.05.13-.28.32-.6.56-.97.2-.41.48-.84.8-1.31,1.83-2.91,3.15-6.35,4.36-9.87,1.19-3.53,2.19-7.22,3.06-10.95.33-1.39.63-2.78.93-4.18l.22-1.06.11-.54c.04-.2.12-.5.2-.74.18-.52.4-1.03.79-1.55.41-.55.97-1.05,1.61-1.36,1.27-.64,2.9-.42,4.01.38,1.05.72,1.54,1.53,2.01,2.3.92,1.58,1.37,3.29,1.54,4.88l-.07.02Z"/><path class="cls-4" d="m259.8,237.41c-2.1.28-4.22.46-6.33.52-1.06.04-2.12.03-3.17.01l-3.1-.09c-1.51-.05-3.02-.03-4.53-.14-2.66-.19-5.33-.48-8-.94-2.66-.48-5.34-1.07-7.92-2.32-1.13-.58-2.27-1.33-3.13-2.49-.85-1.16-1.3-2.76-.72-4.28.37-.94,1.02-1.64,1.68-2.17.69-.51,1.41-.88,2.14-1.2.73-.31,1.47-.54,2.21-.75.74-.22,1.52-.24,2.27-.35.95-.08.85.04.19.58-.33.27-.79.67-1.31,1.17-.54.46-1.19.89-1.87,1.3-.61.36-1.16.75-1.62,1.16-.45.4-.84.78-.96,1.1-.23.47-.03,1.25.65,1.89.7.67,1.89,1.27,3.15,1.8,1.28.51,2.68.92,4.11,1.28,3.45.85,7.25.95,10.95,1.12,2.04.09,4.09.15,6.14.17,2.01.02,4.03-.06,6.04-.26,2.48-.24,4.95-.63,7.35-1.23,1.82-.46,3.63-1,5.32-1.74.84-.37,1.66-.78,2.4-1.27.73-.48,1.39-1.07,1.69-1.65.12-.21.14-.39.16-.59-.01-.52-.11-1.03-.3-1.46-.21-.43-.53-.8-.92-1.14-.81-.68-1.89-1.2-3-1.72-.57-.25-1.14-.49-1.72-.73-1.08-.47-1.79-.84-2.22-1.25-.22-.19-.38-.38-.5-.57-.11-.21-.18-.43-.23-.64-.05-.2-.13-.39-.15-.53-.07-.42,1.11-.74,2.87-.31.89.25,1.79.52,2.7.85.91.32,1.85.68,2.79,1.24.93.55,1.93,1.25,2.76,2.4.84,1.14,1.24,2.68,1.18,4.02-.02.83-.35,1.7-.72,2.29-.37.61-.79,1.04-1.21,1.45-.84.77-1.69,1.31-2.55,1.79-2.05,1.12-4.13,1.84-6.23,2.42-2.1.58-4.21,1.01-6.33,1.33l-.02-.08Z"/><path class="cls-4" d="m356.96,341.35s4.23,3.7,2.91,7.39-23.62,9.23-23.62,9.23c0,0,12.92-2.54,21.46-4.44,4.76-1.06,8.17-.84,7.22-2.45-3.6-6.13-7.98-9.73-7.98-9.73Z"/><path class="cls-4" d="m271.53,332.99s5.65.45,3.07,2.34c-2.58,1.89,10.79-8.17,10.79-8.17l-13.86,5.83Z"/><path class="cls-4" d="m296.24,320.24c-2.57,1.74-5.16,3.45-7.82,5.05-.96.6-1.89,1.24-2.89,1.79-3.47,1.97-7.08,3.71-10.74,5.29-1.61.74-3.26,1.39-4.89,2.06-2.13.74-4.21,1.73-6.53,1.81-.72.03-.64-.03-.15-.46.25-.21.57-.57,1-.9.21-.16.43-.36.69-.51.26-.14.53-.27.83-.38l3.1-1.32c1.03-.45,2.03-.97,3.07-1.39,2.06-.91,4.12-1.83,6.19-2.79,2.49-1.13,4.86-2.7,7.25-4.13,2.61-1.61,5.21-3.26,7.74-5.02,1.56-1.07,3.11-2.18,4.62-3.31,2.3-1.72,4.59-3.49,6.75-5.35,1.67-1.46,3.19-3.03,4.78-4.54.35-.34.68-.67,1.03-1.01,1.31-1.24,1.9-1.45,2.62-1.23.16.05.35.07.48.14.43.21.21,1.07-.65,2.1-1.29,1.52-2.69,3.01-4.19,4.44-1.52,1.4-3.12,2.76-4.76,4.07-2.43,1.96-4.96,3.82-7.51,5.64l-.04-.05Z"/><path class="cls-4" d="m324.45,312.91c-3.03-2.23-6.12-4.41-9.26-6.4l-.58-.36-.12-.08c-.07-.05-.16-.11-.22-.02l-.15.13-.36.32-1.05.96-4.24,3.83c-2.07,1.86-4.1,3.76-6.21,5.57-7.45,6.37-15.11,12.52-23.19,18.11-3.58,2.48-7.22,4.93-10.95,7.15-2.41,1.4-4.87,2.73-7.45,3.86-2.57,1.1-5.27,2.07-8.09,2.33-1.78.05-1.51,0-.16-.64.68-.3,1.6-.8,2.69-1.38,1.09-.6,2.38-1.2,3.78-1.88,9.87-4.93,18.94-11.61,27.95-18.42,5.41-4.07,10.67-8.79,15.85-13.41,2.85-2.54,5.66-5.12,8.47-7.71l1.17-1.06c.28-.23.51-.5.82-.69.3-.18.57-.49.93-.34.65-.01,1.34.44,1.99.82l1.24.78c1.63,1.05,3.22,2.13,4.8,3.24,3.88,2.72,7.65,5.59,11.36,8.52,5.61,4.45,11.02,9.21,16.13,14.18,3.97,3.86,7.8,7.74,11.23,12.08.76.95,1.5,1.89,2.2,2.9,1.3,1.88,2.04,3.21,2.42,4.21.39,1,.44,1.66.3,2.28-.06.28-.09.62-.19.8-.34.63-1.58-.76-3.4-3.38-5.44-7.79-12.52-15.07-20.06-21.9-5.63-5.05-11.53-9.89-17.69-14.34l.04-.07Z"/><path class="cls-4" d="m422.99,418.53s-4.05,5.32,0,3.77c2.48-.95-16.12,5.71-16.12,5.71l16.12-9.48Z"/><path class="cls-4" d="m401.02,393.58c.01.77.05,1.56.12,2.35.03.29.12.56.15.85.05,1.02.09,2.06.23,3.09.03.46.13.91.23,1.35.07.28.14.57.2.85.04.29.03.6.05.9,0,.19-.1.21-.31.13-.21-.09-.6-.26-.87-.54-.65-1.08-1.24-2.2-1.27-3.46-.04-.75-.37-1.46-.46-2.21-.11-.82-.19-1.65-.24-2.49-.02-.51-.05-1.03-.07-1.54-.03-.78,0-1.57,0-2.36-.01-.62,0-1.25.16-1.92.03-.15.08-.29.17-.44.31-.53.62-.62.99-.42.08.04.16.08.23.12.2.16.32.49.36.76.17.84.4,1.73.33,2.71,0,.73,0,1.5.07,2.28h-.06Z"/><path class="cls-4" d="m300.47,370.87c.04-.36.13-.7.25-1.02.18-.28.49-.47.76-.69.12-.11.3-.22.41-.27l.27-.14.53-.27c.7-.36,1.4-.7,2.1-1.03.51-.25,1-.54,1.52-.77,1.83-.81,3.69-1.54,5.58-2.2.84-.29,1.67-.62,2.53-.88.55-.17,1.1-.34,1.67-.46.58-.09,1.18-.09,1.78,0,.37.05.3.28.03.6-.28.3-.71.73-1.26,1.01-1,.31-2.02.72-3.05,1.11-1.05.36-2.1.73-3.17,1.1-1.29.43-2.52,1.15-3.76,1.77l-2.04,1.05-1.01.54-.81.45s-.1.05-.14.09c-.03.05-.03.1-.04.15l-.03.17-.03.33c-.04.46-.07.93-.09,1.4-.07,1.42-.09,2.86-.04,4.27.05,1.1.25,2.16.45,3.2.05.23.11.45.15.67.15.84.07,1.09-.36,1.42-.1.08-.2.17-.3.23-.33.22-.79-.07-1.09-.74-.81-2-1.04-4.14-1.11-6.26,0-.79.03-1.58.07-2.37l.08-1.19.11-1.28h.05Z"/><path class="cls-4" d="m385.35,408.87c-.64-.58-21.6,4.84-19.64,6.53,2.51,2.16,13.86-.14,13.86-.14,0,0-33.01,4.76-27.83,1.29,5.19-3.47,33.61-7.67,33.61-7.67Z"/><path class="cls-4" d="m319.72,454.65c.85-.18,1.7-.34,2.56-.44.31-.05.61-.14.93-.15,1.11-.08,2.22.02,3.31.12.48.04.96.06,1.43.12.3.07.6.13.9.21.29.09.58.21.87.33.18.08.14.11-.03.19-.17.07-.49.23-.83.31-1.23.39-2.33.3-3.51.3-.71-.03-1.41.21-2.12.32-.78.14-1.55.29-2.32.51-.47.12-.95.27-1.41.43-.7.25-1.42.49-2.07.86-.5.29-.93.68-1.41,1-.1.07-.19.16-.3.22-.4.24-.6.2-.95-.17-.08-.08-.17-.16-.24-.25-.24-.29-.24-.67,0-.98.35-.47.76-.88,1.2-1.26.48-.32.99-.6,1.52-.85.39-.19.8-.34,1.21-.5l1.26-.37.02.05Z"/><path class="cls-4" d="m295.56,461.1c-.65-.29-5.74,4.23-2.42,4.63,2.3.28-15.75,2.8-18.34,2.55-2.58-.25,20.76-7.18,20.76-7.18Z"/><path class="cls-4" d="m259.54,404.59c.52.34,1.05.66,1.6.91.2.09.41.1.59.19.61.31,1.39.49,2.13.39.34-.03.66-.14.95-.29.37-.21.68-.48,1.05-.75.12-.08.27.01.37.24.1.22.16.61-.02.91-.65,1.05-1.87,1.76-3.06,1.67-.7-.04-1.45.07-2.14-.12-.73-.22-1.37-.52-2-.83-.39-.2-.76-.41-1.13-.62-.57-.32-1.1-.7-1.67-1.01-.43-.25-.92-.43-1.38-.69-.1-.06-.21-.1-.3-.18-.35-.26-.3-.53.03-.98.08-.11.15-.22.24-.31.29-.33.67-.49.97-.45.83.19,1.59.44,2.25.92.51.32,1.02.68,1.56.98l-.02.05Z"/><path class="cls-4" d="m294.32,387.93c.53.37.68.68,1.17,1.12l-1.73.83-.87.4-.48.21c-.63.28-1.27.59-1.89.9l-1.64.88c-1.95.99-3.9,2.02-5.85,3.03-.87.44-1.73.92-2.58,1.38-1.07.63-2.23,1.12-3.4,1.57-.37.14-.35.06-.11-.19.24-.25.68-.71,1.25-1.15,1-.8,2.1-1.42,3.16-2.11,1.07-.68,2.18-1.3,3.33-1.87,1.37-.69,2.7-1.57,4.07-2.34.76-.42,1.52-.83,2.29-1.23.38-.19.8-.41,1.15-.57l.54-.22s.12-.02.04-.05c-.1-.16-.32-.28-.47-.44-.03-.05-.08-.08-.19-.18l-.31-.19-.63-.38c-1.34-.87-2.66-1.79-4.02-2.63-1.04-.67-2.15-1.21-3.18-1.89-.23-.15-.46-.29-.68-.46-.82-.62-1.02-.98-.9-1.42.03-.1.05-.21.09-.29.18-.26.58-.19,1.21.15,1.94.92,3.8,2.29,5.7,3.61l2.1,1.52c.36.24.66.58.99.86l.24.22.16.07.28.15.36.11.27.2.54.4h-.04Z"/><path class="cls-4" d="m252.52,472.5c.14.18.27.36.42.53.14.17.34.39.31.36-.02.05.15.1.23.17.16.03.28.11.49.13.27.06.57,0,.87.02,1.1.05,2.34.03,3.53-.2.53-.1,1.06-.24,1.56-.43.31-.13.63-.26.94-.39.29-.16.69-.11,1.03-.18.23-.02.32.13.31.47,0,.17-.03.41-.1.65-.03.12-.07.25-.12.37-.02.07-.06.12-.08.19-.04.04-.08.08-.13.11-.67.45-1.36.81-2.08,1.1-.72.29-1.51.38-2.29.44-.94.04-1.89.33-2.92.26-.56-.03-1.15-.12-1.77-.34-.32-.14-.63-.27-.93-.55l-.21-.19-.13-.15-.25-.3c-.4-.49-.79-1-1.15-1.52-.55-.79-1.02-1.64-1.47-2.49-.33-.66-.72-1.3-.98-2.02-.06-.16-.13-.31-.17-.47-.07-.63.07-.86.47-1.04.09-.04.18-.09.27-.12.3-.09.61.1.88.43.41.5.65,1,.99,1.49.33.49.65.97.94,1.48.46.74.96,1.48,1.56,2.16l-.04.04Z"/><path class="cls-4" d="m254.94,448.05c1.32-1.63,2.55-3.34,3.84-5.01.47-.61.87-1.27,1.33-1.88,1.62-2.18,3.21-4.38,4.73-6.64.69-.99,1.28-2.05,1.97-3.03.87-1.27,1.69-2.58,2.72-3.75.31-.37.27-.32.14.07-.07.2-.15.49-.24.84-.08.36-.2.77-.39,1.17l-.99,2.16c-.17.36-.33.72-.52,1.07l-.61,1.01c-.82,1.35-1.67,2.68-2.59,3.98-1.09,1.55-2.07,3.28-3.14,4.9-1.17,1.79-2.42,3.53-3.71,5.25l-2.42,3.13c-1.22,1.58-2.54,3.1-3.79,4.64-.99,1.19-1.87,2.43-2.86,3.61-.22.26-.41.54-.65.78-.86.93-1.29,1.08-1.89.83-.14-.06-.29-.1-.4-.17-.38-.23-.32-.9.22-1.63,1.61-2.15,3.45-4.25,5.25-6.43,1.32-1.63,2.67-3.25,3.95-4.94l.04.03Z"/><path class="cls-4" d="m176.5,451.48c.99.55,2.01,1.08,3.04,1.59.38.19.77.32,1.15.51,1.31.72,2.62,1.44,3.93,2.16.58.33,1.19.6,1.74.99.73.43,1.46.93,2.02,1.63.18.21.06.26-.21.24-.29-.02-.69-.09-1.15-.24-.75-.32-1.58-.52-2.35-.83-.75-.36-1.52-.71-2.27-1.13-.9-.5-1.94-.78-2.9-1.22-1.06-.47-2.11-.97-3.17-1.48l-1.94-.97c-.49-.24-.97-.5-1.45-.77-.49-.26-.96-.53-1.45-.8-.38-.19-.77-.38-1.15-.59-.39-.19-.79-.38-1.16-.66-.16-.12-.34-.22-.5-.34-.56-.55-.6-.89-.23-1.34.09-.11.16-.22.26-.31.33-.3.81-.33,1.18-.13,1.17.55,2.34,1.3,3.65,2.03.97.54,1.95,1.09,2.98,1.6l-.02.05Z"/><path class="cls-4" d="m175.03,440.31c1.02-.8,2.06-1.58,3.1-2.36.38-.29.72-.61,1.1-.89,1.33-1,2.68-1.98,3.97-3.02.58-.45,1.11-.97,1.66-1.45l1.08-.9c.38-.28.81-.51,1.22-.76.26-.15.26-.09.17.17-.1.25-.22.79-.48,1.31-1.11,1.65-2.67,2.82-4.22,3.98-.95.68-1.8,1.54-2.71,2.3l-3.02,2.48c-.62.5-1.24,1.01-1.85,1.53-.92.78-1.85,1.57-2.7,2.41-.65.66-1.21,1.39-1.81,2.09-.13.15-.25.32-.38.47-.51.55-.77.64-1.24.42-.11-.05-.22-.09-.32-.15-.33-.21-.34-.65-.04-1.14.45-.74.97-1.43,1.54-2.1.59-.64,1.23-1.26,1.89-1.85.98-.88,2-1.72,3.01-2.55l.03.03Z"/><path class="cls-4" d="m203.35,469.07c2.36-.33,10.74,13.9,10.74,13.9-.81-.2,7.24,1.23,1.83-4.41-5.41-5.63-12.57-9.49-12.57-9.49Z"/><path class="cls-4" d="m174.06,472.22c-1.25,1.3-2.46,2.67-3.56,4.1-.41.52-.74,1.09-1.13,1.62-.27.4-.59.78-.84,1.19l-.4.6-.2.37c-.05.09-.1.18-.14.28-.06.08-.04.24-.15.25.01.22-.11.23-.16.33l-.19.23-.09.11-.05.06h-.01s0,.02,0,.02h0c.06.17-.09-.23-.07-.19h0s0,0,0,0c-.01,0-.02,0-.03.01l-.24.04c-.09,0-.17.07-.28.01-.11-.07-.22-.11-.33-.21-.22-.17-.44-.36-.65-.54l-.83-.74-.76-.7c-.79-.71-1.57-1.42-2.35-2.13-.98-.93-1.95-1.88-2.78-2.95-.25-.34-.16-.34.16-.16.31.19.89.52,1.51.99,1.09.82,2.19,1.63,3.24,2.49.53.42,1.06.85,1.6,1.28l.79.64.1.08s0,.02.01.02c.01.01.02.03.04.04l.09.11s.11.14.14.11c.03-.03.02-.12.09-.13-.07-.11,0-.05,0-.09l.05-.06c.06-.14.13-.31.21-.45l.44-.88c.31-.57.63-1.15,1.01-1.67,1.08-1.56,2.24-3.04,3.48-4.46.76-.87,1.55-1.72,2.35-2.56,1.21-1.26,2.5-2.47,3.82-3.61.51-.45.99-.92,1.51-1.35.5-.45,1.01-.9,1.56-1.3.24-.18.46-.37.71-.55.96-.59,1.36-.64,1.8-.3.1.08.22.15.3.24.27.31.05.82-.55,1.31-1.76,1.46-3.56,3.02-5.32,4.69-1.33,1.21-2.65,2.47-3.87,3.82l-.04-.03Z"/><path class="cls-4" d="m208.43,409.96s7.78-10.52,6.32-12.83c-1.45-2.31,4.7,1.16,3.74,2.4s-10.07,10.44-10.07,10.44Z"/><path class="cls-4" d="m208.43,393.07s11.53,5.18,15.23-1.04c3.1-5.22-4.58,7.03-5.27,6.22-.69-.81-9.95-5.18-9.95-5.18Z"/><path class="cls-4" d="m161.55,405.44c-.64-.95-1.28-1.88-1.71-3.21-.17-.45-.25-1.21-.1-1.69.24-.85.6-1.48.96-2.12.36-.64.74-1.24,1.12-1.84.35-.53.67-1.07.99-1.6.4-.69.77-1.41,1.42-1.93.19-.17.34-.04.46.27.09.3.27.86.11,1.29-.7,1.46-1.39,2.89-2.32,4.18-.26.39-.48.83-.63,1.26-.16.41-.28.9-.29,1.14,0,.25.16.7.37,1.13.24.44.51.88.81,1.32.37.54.76,1.08,1.17,1.61.62.8,1.25,1.63,1.92,2.41.51.62,1.13,1.14,1.63,1.82.12.14.24.28.33.45.37.6.31.94-.11,1.24-.1.07-.19.15-.3.21-.36.18-.76.07-1.04-.22-.94-.87-1.83-1.92-2.76-3.05-.69-.84-1.37-1.71-2.05-2.62l.04-.03Z"/><path class="cls-4" d="m169.57,386.97c.65-.35,1.32-.7,1.96-1.09.24-.14.43-.33.67-.46.83-.5,1.72-.93,2.56-1.42.37-.22.72-.47,1.08-.71.45-.32.9-.64,1.43-.85.16-.06.23.09.22.32-.02.23-.09.57-.31.8-.76.8-1.51,1.62-2.43,2.25-.55.39-1.03.89-1.56,1.33-.59.47-1.2.92-1.82,1.37-.38.28-.78.52-1.17.79-.59.4-1.21.77-1.78,1.2-.45.33-.81.78-1.25,1.16-.1.08-.18.19-.29.25-.41.25-.62.17-.99-.37-.08-.12-.17-.24-.25-.37-.25-.44-.28-.89-.09-1.16.55-.82,1.32-1.33,2.12-1.87.61-.39,1.23-.79,1.85-1.19l.04.05Z"/><path class="cls-4" d="m408.48,426.76c1.69-.77,3.39-1.53,5.11-2.24.63-.26,1.22-.59,1.87-.82,2.24-.86,4.56-1.54,6.91-2.06,1.03-.25,2.08-.5,3.11-.73.67-.1,1.35-.21,2.02-.29.68-.04,1.38.02,2.06.06.43.04.38.22.06.51-.33.28-.91.78-1.62,1.06-2.52.91-5.04,1.51-7.63,2.24-1.57.37-3.09,1.12-4.61,1.76-1.67.72-3.35,1.45-5,2.25-1.02.48-2.03.99-3.04,1.51-1.52.8-3.06,1.58-4.52,2.46-1.13.7-2.18,1.49-3.28,2.21-.24.16-.47.34-.72.49-.93.57-1.36.51-1.86.07-.12-.1-.25-.19-.34-.3-.32-.37-.14-.95.43-1.53.9-.79,1.86-1.53,2.86-2.23,1.02-.68,2.1-1.29,3.19-1.9,1.62-.9,3.3-1.73,4.97-2.57l.03.06Z"/><path class="cls-4" d="m396.93,427.89c-.03-.81-.07-1.62-.17-2.43-.03-.3-.12-.58-.16-.87-.14-1.04-.32-2.08-.6-3.09-.12-.45-.29-.89-.45-1.32-.19-.56-.39-1.13-.55-1.71-.05-.18.03-.19.19-.09.15.1.43.3.64.59l.52.79c.16.27.27.56.4.85.24.57.46,1.17.61,1.78.18.73.49,1.45.7,2.19.22.82.41,1.64.54,2.48.09.51.16,1.03.23,1.54.12.78.13,1.57.24,2.35.07.6.26,1.19.38,1.79.03.13.08.26.07.4-.02.5-.17.66-.67.77-.11.02-.23.06-.34.07-.37.05-.7-.15-.88-.49-.29-.51-.35-1.03-.44-1.55-.08-.53-.12-1.06-.17-1.6-.08-.79-.07-1.61-.13-2.41h.04Z"/><path class="cls-4" d="m430.18,407.83c.7,1.24,1.21,2.13,2.22,4.29l.11.69.06.34.03.17h0s0,.02,0,.02h0c.12.03-.16-.03-.13-.02v.07s0,.09,0,.09c-.01.11,0,.21-.03.32-.06.09-.11.19-.18.28-.13.19-.32.37-.55.52-.43.33-.99.59-1.48.82-.29.15-.39.14-.56.19-.16.04-.32.06-.45.15l-3.24,1.73-3.6,2c-4.26,2.29-8.52,4.59-12.63,7.12-1.82,1.12-3.6,2.35-5.3,3.61-2.2,1.62-4.2,3.45-6.58,4.85-.78.39-.82.19-.58-.63.19-.88.83-2.22,2.04-3.29,4.37-3.69,9.2-6.69,14.19-9.41,2.99-1.62,6-3.46,9.05-5.13l4.35-2.34,1.08-.58c.35-.18.71-.59.81-.58.15-.08.3-.16.46-.26.24-.08.03-.28,0-.43l-.47-.91c-1.07-2.03-2.27-4.02-3.5-6-1.88-2.99-3.77-6.09-5.32-9.33-1.2-2.52-2.32-5.06-3.08-7.74-.19-.59-.34-1.17-.48-1.77-.28-1.11-.27-1.88-.21-2.42.07-.54.28-.88.62-1.16.15-.13.3-.29.45-.38.5-.27,1.17.55,1.63,2.07.72,2.26,1.39,4.54,2.27,6.76.89,2.22,1.94,4.4,3.16,6.54,1.81,3.18,3.96,6.33,5.94,9.7l-.06.04Z"/><path class="cls-4" d="m403.64,384.84c1.04-.46,2.09-.89,3.14-1.31.38-.16.74-.36,1.13-.5,1.37-.5,2.76-.94,4.15-1.35.62-.18,1.22-.42,1.83-.6.78-.23,1.57-.48,2.41-.5.26,0,.29.27.16.61-.13.34-.41.78-.82.98-1.45.76-2.95,1.24-4.54,1.68-.95.25-1.83.78-2.73,1.2-.99.47-1.99.94-2.98,1.44-.6.31-1.22.61-1.81.94-.9.5-1.82.99-2.67,1.57-.66.46-1.22,1.03-1.82,1.54-.13.11-.25.24-.39.35-.52.39-.79.37-1.26-.09-.11-.1-.22-.2-.32-.31-.33-.37-.33-.86-.01-1.25.93-1.18,2.18-2.06,3.5-2.83.97-.58,2-1.1,3.01-1.62l.03.05Z"/><path class="cls-4" d="m272.64,469.41c2.51-.62,5.03-1.23,7.56-1.76.92-.2,1.83-.48,2.76-.64,3.27-.63,6.57-1.1,9.88-1.43,1.47-.17,2.93-.33,4.39-.5,1.86-.31,3.78-.06,5.65.12.58.07.51.07.02.23-.49.14-1.37.57-2.41.89l-1.38.43c-.46.14-.93.14-1.39.22l-2.79.41c-1.86.29-3.72.57-5.61.82-2.27.26-4.55.9-6.82,1.42-2.49.6-4.98,1.2-7.46,1.9-1.53.41-3.04.87-4.56,1.32-2.29.71-4.59,1.42-6.81,2.28-1.73.67-3.35,1.5-5.01,2.28-.37.17-.71.37-1.09.52-1.39.56-1.91.55-2.49-.02-.13-.13-.28-.25-.39-.39-.35-.47.05-1.14,1.01-1.74,2.84-1.77,6.12-3,9.43-4.15,2.46-.85,4.97-1.59,7.49-2.3l.02.06Z"/><path class="cls-4" d="m174.1,323.06c1.85,1.94,3.67,3.88,5.53,5.79l2.09,2.03c2.39,2.44,4.8,4.86,7.3,7.19,1.11,1.02,2.29,1.99,3.48,2.89.74.61,1.51,1.18,2.28,1.76.75.6,1.47,1.25,2.18,1.94.38.55.42.33-.13.25-.54-.08-1.65-.11-2.72-.57-.92-.45-1.78-1-2.64-1.53-.84-.56-1.62-1.2-2.41-1.83-1.56-1.27-3.05-2.62-4.47-4.05-1.67-1.74-3.57-3.36-5.32-5.08-1.92-1.89-3.8-3.82-5.68-5.74-1.15-1.17-2.33-2.39-3.47-3.48l-.33-.31c-.06-.05-.11-.11-.18-.15-.06-.05-.14-.09-.2-.03-.21.16-.37.3-.62.53l-1.05.98c-.69.67-1.38,1.34-2.07,2.01-1.38,1.37-2.63,2.81-4.01,4.19-.31.3-.59.62-.92.9-1.22,1.06-1.85,1.22-2.52.81-.15-.09-.32-.18-.44-.29-.39-.42-.14-1.07.61-1.87,2.24-2.43,4.79-4.94,7.4-7.43l1.14-1.08.42-.39c.19-.18.39-.31.59-.47.2-.14.39-.34.59-.43l.59-.29h.24c.09.12.17.05.25.09.16.04.31.04.48.11l.49.17c.16.11.31.25.47.37.15.13.31.25.46.39l.4.37.46.45,1.77,1.77-.04.05Z"/><path class="cls-4" d="m157.88,329.5c1.68-1.84,3.33-3.73,4.95-5.64l2.4-2.89c.2-.24.39-.49.6-.73l.8-.95c.31-.41.7-.75,1.07-1.11.39-.25.75-.38,1.1-.56.13-.2.27-.02.39,0,.12.05.27.14.4.21.27.12.56.39.85.63.29.21.56.56.84.84l.61.65,1.87,2.02c4.32,4.8,8.74,9.53,13.46,13.91,2.08,1.96,4.28,3.82,6.53,5.51,1.44,1.1,2.96,2.1,4.46,3.08,1.49,1.01,3.03,1.91,4.57,2.84.89.78.81.68-.29.8-1.08.11-3.09-.07-5.06-1.09l-1.29-.69c-.42-.25-.82-.52-1.22-.78-.81-.52-1.6-1.07-2.38-1.64-1.56-1.12-3.05-2.31-4.51-3.54-1.47-1.22-2.87-2.5-4.22-3.85-1.36-1.33-2.68-2.7-3.97-4.1-3.09-3.34-6.46-6.66-9.57-10.1l-.64-.71-.26-.3-.22-.26s-.08-.09-.12-.13c-.05,0-.08.06-.12.1-.14.16-.29.32-.5.59-.35.46-.78.99-1.18,1.47-1.62,1.98-3.26,3.93-4.95,5.86-2.07,2.37-4.21,4.69-6.4,6.95-3.32,3.43-6.83,6.7-10.46,9.76-2.82,2.38-5.61,4.71-8.73,6.72-.68.45-1.35.89-2.07,1.28-1.33.76-2.29,1.11-2.98,1.29-.72.13-1.19.07-1.62-.16-.2-.1-.44-.18-.58-.31-.47-.43.47-1.31,2.27-2.4,5.36-3.24,10.58-7.37,15.53-11.91,3.66-3.38,7.2-6.98,10.55-10.74l.06.04Z"/><path class="cls-4" d="m152.86,386.91s.62-4.04-2.22-6.24,15.26,10.23,13.9,10.58c-1.36.35-11.68-4.33-11.68-4.33Z"/><path class="cls-4" d="m151.27,387.69c-1.9-1.2-3.73-2.52-5.54-3.83-.65-.49-1.33-.94-1.97-1.44-2.23-1.81-4.39-3.71-6.48-5.65-.93-.86-1.86-1.73-2.78-2.58-.58-.56-1.18-1.1-1.75-1.67-.54-.6-1.03-1.25-1.54-1.88-.31-.4-.24-.37.14-.15.37.23,1.11.59,1.89,1.11,2.47,2.14,4.96,4.21,7.47,6.33,1.5,1.27,3.21,2.39,4.87,3.5,1.81,1.26,3.68,2.42,5.56,3.56,1.18.67,2.35,1.36,3.55,1.99,1.8.98,3.66,1.89,5.55,2.66,1.48.58,2.99.97,4.49,1.42.33.09.66.19.99.28,1.21.43,1.54.73,1.63,1.38.02.15.06.3.05.44-.02.46-.64.66-1.62.54-2.9-.36-5.77-1.45-8.54-2.73-2.04-.98-4.08-2.01-6-3.22l.03-.05Z"/><path class="cls-4" d="m143.68,372.89l1.39,1.35,1.44,1.3c.95.88,1.96,1.7,2.95,2.53.72.61,1.53,1.12,2.27,1.72,2.63,2.07,5.29,4.13,8.08,6.02,1.24.84,2.51,1.64,3.79,2.4,1.62,1,3.35,1.87,4.79,3.18.46.39.23.6-.38.63-.31.02-.72,0-1.19-.06-.47-.05-.97-.2-1.45-.48-3.4-1.91-6.79-3.87-9.99-6.23-1.91-1.41-4.04-2.67-5.97-4.15-2.14-1.6-4.19-3.33-6.19-5.11-1.2-1.12-2.42-2.23-3.58-3.41l-1.32-1.32-1.27-1.37c-.86-.9-1.69-1.83-2.51-2.75-1.33-1.39-2.61-2.78-3.9-4.2-.27-.32-.54-.63-.8-.97-.94-1.26-1.08-1.78-.68-2.46.09-.15.16-.33.27-.46.37-.43,1.11-.19,1.92.61,2.36,2.38,4.61,5,6.93,7.59,1.75,1.9,3.53,3.81,5.44,5.57l-.04.05Z"/><path class="cls-4" d="m206.6,394.1c-.76-.52-1.52-1.05-2.25-1.6-.75-.54-1.48-1.09-2.19-1.67-.53-.41-1.08-.78-1.59-1.23-1.79-1.55-3.48-3.2-5.09-4.91-.74-.73-1.43-1.53-2.12-2.29l-.64-.77c-.2-.27-.38-.55-.56-.83-.39-.54-.54-1.26-.86-1.83-.24-.33-.17-.31.06-.06.12.13.34.27.63.42.17.08.33.16.48.23.09.04.16.09.27.12.06.06.15.11.22.17l.83.58c.27.19.49.43.73.65l1.47,1.28c.93.9,1.86,1.81,2.81,2.73,1.12,1.12,2.53,2,3.84,2.93,1.46,1.02,2.91,2.05,4.41,3.02.93.58,1.86,1.18,2.82,1.71,1.44.83,2.92,1.63,4.43,2.29,1.18.5,2.42.8,3.64,1.12l.81.2c.99.29,1.23.6,1.18,1.44,0,.19,0,.39-.03.58-.1.63-.67.98-1.49.9-2.42-.27-4.78-1.17-7.04-2.26-1.65-.87-3.25-1.83-4.81-2.84l.03-.06Z"/><path class="cls-4" d="m167.34,389.86c1.63-1.37,3.31-2.67,5-3.94.62-.46,1.21-.96,1.84-1.41,2.24-1.55,4.51-3.02,6.78-4.5,1.01-.65,1.97-1.37,2.96-2.02,1.26-.87,2.49-1.78,4.01-2.24.5-.11.45-.07.26.37-.15.49-.49,1.29-1.12,1.93-.54.59-1.18,1.02-1.77,1.53-.61.49-1.2.99-1.84,1.41-1.27.88-2.56,1.74-3.89,2.57-1.59.98-3.04,2.27-4.53,3.45-1.64,1.3-3.28,2.58-4.88,3.93-.98.83-1.95,1.67-2.88,2.56-1.42,1.33-2.82,2.69-4.08,4.16-.97,1.15-1.77,2.4-2.58,3.64-.19.27-.34.55-.53.82-.72.98-1.11,1.17-1.86.93-.17-.05-.35-.09-.51-.16-.53-.24-.6-.93-.2-1.77,1.21-2.51,3.08-4.75,5.07-6.84,1.48-1.56,3.08-3.02,4.69-4.44l.05.05Z"/><path class="cls-4" d="m283.92,403.7c2.58-.64,5.18-1.17,7.8-1.63.95-.19,1.89-.41,2.84-.55,3.37-.49,6.75-.86,10.14-1.04,1.5-.11,3.01-.22,4.49-.36,1.91-.13,3.83-.28,5.75.1.6.1.52.22.03.5-.32.18-.67.37-1.01.55-.21.1-.44.24-.68.32-.24.08-.5.14-.77.18-1.91.37-3.81.56-5.72.79-1.91.22-3.82.45-5.75.61-2.32.16-4.67.75-6.99,1.21-1.28.25-2.55.54-3.83.81-1.27.31-2.54.59-3.81.92l-2.33.61-2.31.68c-2.33.71-4.66,1.47-6.9,2.39-1.73.74-3.34,1.66-4.97,2.56-.36.19-.7.42-1.06.6-1.36.69-1.89.69-2.56.07-.15-.14-.33-.27-.45-.43-.42-.52-.09-1.28.86-1.95,2.81-2,6.13-3.43,9.52-4.65,1.26-.47,2.54-.85,3.82-1.27,1.29-.37,2.58-.76,3.88-1.1l.02.07Z"/><path class="cls-4" d="m322.39,420.5c.76,2.57,1.58,5.14,2.59,7.65.34.93.76,1.82,1.14,2.73,1.27,3.25,2.7,6.45,4.29,9.57.69,1.39,1.51,2.73,2.29,4.06,1.05,1.69,2.08,3.39,2.94,5.2.26.57-.08.69-.7.45-.61-.24-1.52-.81-2.22-1.74-.59-.84-1.23-1.65-1.76-2.53-.54-.87-1.07-1.75-1.58-2.64-1.02-1.78-1.98-3.61-2.83-5.5-1.02-2.26-2.28-4.51-3.34-6.82-1.13-2.55-2.1-5.18-2.96-7.84-.26-.82-.53-1.63-.77-2.46l-.69-2.49c-.35-1.26-.6-2.54-.91-3.8-.25-1.28-.5-2.56-.75-3.83-.16-.99-.36-1.97-.56-2.95l-.46-2.96c-.07-.44-.14-.87-.16-1.31-.08-1.65.1-2.18.81-2.54.16-.08.32-.18.49-.23.55-.15,1.04.5,1.26,1.64.31,1.7.62,3.43.94,5.18.37,1.74.66,3.51,1.04,5.27.23,1.32.6,2.61.89,3.93.34,1.3.7,2.61,1.09,3.9l-.07.03Z"/><path class="cls-4" d="m271.58,467.73c5.01-1.98,10.06-3.86,15.15-5.62,1.86-.63,3.69-1.34,5.57-1.93,3.3-1.04,6.63-2.02,9.99-2.89,3.35-.89,6.74-1.66,10.15-2.29,3.03-.57,6.08-1.11,9.13-1.46.98-.12,1.96-.25,2.95-.28.99-.07,1.98-.12,2.97-.09h1.49s1.49.13,1.49.13c.99.05,1.97.29,2.94.54,1.19.41,1,.44-.07.72-1.07.25-2.95.76-5.12.86-1.93.09-3.86.39-5.79.58-1.93.22-3.87.52-5.8.85-3.87.66-7.72,1.53-11.61,2.39-4.65,1.04-9.36,2.65-13.98,4.22-5.09,1.72-10.14,3.57-15.16,5.53-3.08,1.21-6.16,2.46-9.2,3.76-2.11.9-4.21,1.81-6.31,2.75l-3.13,1.41-1.56.72-.96.43c-.34.17-.71.29-1.08.39-.56.04-.99-.42-1.37-.9-.2-.25-.45-.6-.58-.79l-.42-.62-.82-1.23c-.53-.82-1.05-1.65-1.55-2.48-1.01-1.67-1.9-3.4-2.72-5.2-.36-.79-.71-1.57-1-2.41-1.09-3.12-.79-4.41-.06-5.14.15-.17.29-.38.4-.47.21-.15.4.1.74.61.37.5.68,1.27,1.04,2.3.9,2.47,2.13,4.97,3.48,7.43.68,1.23,1.32,2.5,2.03,3.72.36.61.7,1.23,1.1,1.8l.14.21c.04.06.02.02.03.03h0s0,0,0,0h0s.08-.04.08-.04l.59-.28c.61-.28,1.22-.56,1.83-.85,4.91-2.27,9.92-4.4,14.95-6.46l.03.06Z"/><path class="cls-4" d="m289.98,416.3l3.68-.7c.45-.08.88-.23,1.33-.3,1.58-.26,3.17-.47,4.75-.69.71-.08,1.4-.21,2.09-.33.88-.18,1.78-.3,2.71-.18.29.06.27.17.08.44-.19.29-.56.71-1.04.92-.85.4-1.74.57-2.61.81-.88.24-1.78.35-2.7.44-1.1.11-2.18.48-3.27.74-1.2.28-2.4.55-3.6.86-.74.18-1.47.37-2.2.57-1.1.32-2.22.62-3.28,1.03-.83.32-1.58.78-2.36,1.19-.17.09-.34.19-.51.26-.66.26-.94.18-1.32-.34-.09-.12-.18-.23-.25-.36-.24-.41-.12-.9.32-1.26,1.29-1.1,2.9-1.67,4.51-2.19,1.21-.37,2.44-.65,3.67-.95l.02.05Z"/><path class="cls-4" d="m286.93,425.15l4.4-1.29c.54-.15,1.05-.38,1.59-.51,1.89-.52,3.83-.89,5.74-1.32.85-.19,1.68-.44,2.52-.65.53-.14,1.07-.29,1.6-.42.54-.13,1.08-.22,1.67-.18.36.02.36.2.16.56-.1.18-.25.41-.44.67-.19.23-.45.41-.74.54-1.05.41-2.08.87-3.15,1.18-1.07.31-2.16.59-3.27.81-1.32.28-2.63.8-3.94,1.2-1.45.45-2.9.89-4.34,1.36-.89.29-1.78.58-2.66.9-1.33.48-2.68.93-3.97,1.5-1,.44-1.92,1.02-2.88,1.54-.21.12-.4.25-.62.36-.83.33-1.16.25-1.59-.27-.1-.12-.21-.23-.29-.35-.27-.42-.09-.94.43-1.38,1.58-1.25,3.49-2.01,5.4-2.78,1.43-.56,2.89-1.04,4.35-1.54l.02.06Z"/><path class="cls-4" d="m294.07,432.34c1.01-.23,2.03-.46,3.04-.69.37-.08.72-.22,1.09-.29,1.31-.26,2.63-.45,3.95-.59.59-.07,1.16-.2,1.74-.27.74-.1,1.49-.19,2.25-.14.24.02.22.16.06.38-.17.21-.48.52-.88.67-1.41.59-2.83.98-4.32,1.21-.9.1-1.77.45-2.66.71-.97.28-1.95.55-2.92.85l-1.79.57c-.9.31-1.8.6-2.66.99-.68.28-1.28.68-1.92,1.02-.14.07-.27.17-.42.23-.54.25-.77.2-1.1-.2-.07-.09-.16-.18-.22-.27-.21-.32-.12-.71.22-1.03.51-.47,1.07-.88,1.66-1.26.59-.38,1.21-.72,1.87-.95.97-.38,1.97-.69,2.97-1l.02.05Z"/><path class="cls-4" d="m362.51,460.55c-4.97.81-9.94,1.7-14.89,2.67l-5.4,1.15c-6.37,1.27-12.73,2.58-19.08,3.97l-3.9.89-2.16.5c-.25.05-.5.11-.74.15-.24.04-.5.11-.68.05l-.57-.09c-.16-.04-.43-.03-.47-.23-.07-.27-.15-.54-.22-.8-.07-.29-.05-.67-.08-1.01l-.02-1-.04-1.36-.14-2.7c-.05-.89-.11-1.78-.21-2.66-.06-.43-.11-.87-.2-1.28-.06-.2-.05-.43-.08-.64-.02-.21-.12-.39-.09-.64-.05-1.11-.2-1.04.79-.4,1.02.65,2.13,2.51,2.46,4.71.21,1.19.25,2.37.29,3.54l.03,1.53s0,0,0,.01c0,.01,0,.01.01.02.02,0-.03.01.05,0l.47-.1.95-.2,3.84-.81c2.57-.53,5.15-1.04,7.74-1.51,4.46-.81,9.04-1.96,13.59-2.89,5-1.02,10.02-1.96,15.05-2.84,3.1-.54,6.2-1.04,9.31-1.51,4.7-.73,9.45-1.34,14.17-1.83,3.67-.37,7.27-.8,11.01-.73.82.02,1.64.03,2.49.14,3.15.39,4.22,1.41,4.34,2.41.03.24.08.49.03.67-.08.3-.45.35-.91.29-.5-.05-1.2-.15-2.16-.33-2.89-.47-6.18-.32-9.45-.16-3.29.2-6.65.52-10.02.92-5.01.58-10.05,1.3-15.05,2.18l-.02-.06Z"/><path class="cls-4" d="m395.82,440.94c-.09-2.25-.15-4.49-.26-6.72-.04-.81-.16-1.62-.2-2.43-.13-2.86-.36-5.7-.74-8.52-.14-1.26-.47-2.49-.75-3.7-.39-1.56-.85-3.09-1.01-4.76-.06-.52,0-.47.34-.14.23.23.48.47.71.69.16.16.32.32.48.48.09.08.15.18.26.27l.17.32c.36.78.67,1.57,1,2.37.3.8.47,1.64.7,2.46.39,1.66.68,3.34.76,5.05.13,2.04.48,4.11.66,6.17.18,2.26.31,4.52.46,6.77.08,1.39.18,2.77.29,4.14.19,2.08.36,4.18.71,6.22.15.79.34,1.56.54,2.33l.69,2.27c.09.34.22.65.33.99.27,1.26.16,1.72-.42,2.17-.13.1-.25.22-.38.3-.42.25-1.02-.14-1.49-1.04-1.35-2.69-1.9-5.78-2.32-8.83-.31-2.28-.42-4.57-.58-6.83h.07Z"/><path class="cls-4" d="m365.44,418.8c-1.71.11-3.43.23-5.14.28-1.71.08-3.43.12-5.15.14-1.25.04-2.5.1-3.75.08-4.41-.06-8.82-.3-13.2-.72-1.95-.18-3.9-.36-5.83-.54-2.47-.29-4.99-.35-7.36-1.33-.73-.33-.61-.41.09-.69.71-.33,1.99-.8,3.4-.68,4.99.51,9.97.81,15.01,1.35,3.02.31,6.17.2,9.27.18,1.7,0,3.41-.07,5.11-.1,1.7-.09,3.41-.13,5.11-.26l3.14-.23,3.13-.31c3.16-.34,6.33-.76,9.44-1.34,2.41-.48,4.73-1.12,7.06-1.78.51-.15,1.01-.3,1.53-.45,1.93-.5,2.6-.41,3.17.07.13.11.29.22.38.34.31.4-.39,1-1.77,1.57-4.14,1.55-8.7,2.53-13.31,3.25-1.71.28-3.43.48-5.15.71-1.73.17-3.45.38-5.18.51v-.06Z"/><path class="cls-4" d="m381.21,435.72c.1-1.01.17-2.03.19-3.05.01-.37-.05-.74-.04-1.11.02-1.31,0-2.64-.1-3.95-.03-.59-.14-1.17-.25-1.74-.15-.73-.36-1.45-.37-2.21-.01-.48,1.25-.17,1.54.68.44,1.5.8,3.04.79,4.64,0,.95.2,1.91.26,2.88.06,1.06.08,2.12.06,3.18,0,.65-.03,1.3-.06,1.95-.03.99-.13,1.97-.15,2.95-.03.76.09,1.52.11,2.28,0,.17.03.33.01.5-.05.62-.23.8-.86.85-.14.01-.29.03-.43.03-.48,0-.84-.31-.94-.76-.31-1.35-.19-2.69-.09-4.05.09-1.01.2-2.03.26-3.05h.05Z"/><path class="cls-4" d="m211.33,357.02l6.49-3.55c.79-.43,1.54-.93,2.34-1.35,2.81-1.47,5.62-2.93,8.43-4.4,1.24-.66,2.47-1.36,3.69-2.03.79-.43,1.55-.9,2.36-1.29.82-.38,1.66-.71,2.55-.94.56-.15.55,0,.27.47-.19.31-.39.65-.58.97-.26.37-.59.75-.99,1.08-.35.3-.73.56-1.12.8l-1.16.73c-.78.47-1.54.98-2.35,1.41-1.61.87-3.24,1.7-4.9,2.49-1.99.94-3.9,2.21-5.85,3.33l-6.43,3.69-3.94,2.3c-1.98,1.18-3.98,2.35-5.89,3.61-1.48.98-2.84,2.09-4.26,3.13-.32.22-.61.46-.94.67-1.21.79-1.7.88-2.32.52-.14-.08-.3-.15-.41-.25-.39-.33-.12-1,.66-1.75.58-.55,1.18-1.09,1.8-1.62.64-.5,1.29-.99,1.97-1.47,1.34-.95,2.74-1.86,4.15-2.75,2.1-1.32,4.25-2.59,6.39-3.85l.04.05Z"/><path class="cls-4" d="m228.12,363.29l2.99-1.5c.36-.18.7-.41,1.07-.59,1.3-.61,2.61-1.19,3.92-1.75.58-.26,1.14-.55,1.69-.85.7-.39,1.45-.7,2.26-.89.25-.06.32.17.26.5-.07.33-.26.82-.62,1.12-.63.56-1.34.94-2.06,1.33-.72.38-1.45.74-2.22,1.05-.93.35-1.77.94-2.65,1.42l-2.91,1.59c-.59.33-1.19.66-1.77,1.01-.89.53-1.79,1.04-2.62,1.64-.65.46-1.21,1.02-1.81,1.54-.13.11-.25.24-.39.35-.51.39-.77.39-1.21,0-.1-.09-.21-.18-.3-.27-.31-.33-.31-.79.01-1.18.94-1.13,2.12-2.08,3.42-2.86.95-.6,1.94-1.13,2.92-1.68l.03.04Z"/><path class="cls-4" d="m283.22,396.94c-1.82.86-3.61,1.79-5.36,2.81-.65.36-1.25.79-1.89,1.15-2.28,1.28-4.54,2.63-6.72,4.11-.97.65-1.89,1.38-2.8,2.1-1.18.91-2.34,1.85-3.69,2.56-.42.22-.51.02-.39-.46.12-.48.38-1.31.98-1.93.54-.55,1.07-1.12,1.63-1.65.58-.5,1.18-.98,1.79-1.46,1.21-.95,2.47-1.85,3.79-2.67,1.58-.98,3.07-2.21,4.66-3.27,1.75-1.15,3.59-2.16,5.44-3.15,1.14-.6,2.3-1.17,3.46-1.73,1.76-.85,3.58-1.58,5.36-2.36,1.39-.57,2.69-1.33,4.11-1.86.31-.13.6-.27.92-.36,1.22-.25,1.66-.13,2.08.43.1.13.21.24.28.37.23.43-.13.98-.89,1.49-2.24,1.47-4.76,2.28-7.23,3.4-.93.38-1.83.82-2.76,1.21-.91.44-1.83.85-2.73,1.32l-.04-.06Z"/><path class="cls-4" d="m168.63,374.13l1.72,1.9c.21.23.46.42.66.66.72.85,1.37,1.76,1.97,2.7.28.4.57.8.86,1.19.4.48.68,1.06.82,1.69.04.2-.19.29-.52.3-.33,0-.79-.05-1.05-.27-.51-.36-.8-.85-1.19-1.29-.37-.45-.72-.92-1.06-1.42-.4-.61-1.01-1.06-1.54-1.58l-1.78-1.72-1.13-1.05c-.59-.52-1.15-1.07-1.78-1.54-.49-.36-1.05-.63-1.58-.96-.12-.07-.25-.13-.35-.21-.4-.32-.39-.56.01-1.12.09-.13.18-.26.28-.38.34-.41.79-.59,1.15-.47,1.07.36,1.93,1,2.75,1.76.61.55,1.2,1.16,1.81,1.75l-.04.05Z"/><path class="cls-4" d="m246.5,345.59c-2.11-2.47-4.22-4.96-6.29-7.47l-3.09-3.78-1.53-1.91-.68-.85-.39-.51-.11-.15s-.1.03-.15.05l-.15.09-.46.31-2.75,1.94c-2.6,1.85-5.15,3.78-7.77,5.61-9.25,6.44-18.72,12.61-28.51,18.24-4.35,2.49-8.75,4.95-13.2,7.2-5.75,2.79-11.66,5.53-18.02,6.75-2,.3-1.8-.09-.32-1.04.73-.49,1.78-1.09,3.04-1.8,1.26-.72,2.74-1.47,4.41-2.16,11.7-5.13,22.97-11.43,34.1-18.24,6.67-4.06,13.25-8.83,19.75-13.49l5.15-3.7,2.61-1.85.93-.64c.36-.23.72-.46,1.08-.6.18-.06.35-.11.52-.13.16-.02.37-.05.5.1l.86.66,2.48,3.1,2.17,2.65c1.44,1.77,2.92,3.51,4.39,5.27,3.51,4.12,7.06,8.21,10.69,12.22,5.51,6.06,11.16,12.06,17.06,17.65,2.27,2.2,4.65,4.22,7,6.26,2.41,1.96,4.8,3.95,7.3,5.78,1.09.83,2.17,1.62,3.3,2.37,1.04.73,1.9,1.34,2.6,1.87.7.54,1.3.91,1.75,1.29.92.73,1.35,1.33,1.6,1.99.12.3.31.63.35.87.15.76-2.01.26-5.36-1.7-4.88-2.98-9.46-6.6-13.96-10.41-4.42-3.89-8.78-7.97-12.94-12.23-6.22-6.3-12.19-12.89-18.01-19.56l.05-.06Z"/><path class="cls-4" d="m125.87,381.29c2.14.52,4.05,1.32,5.94,2.19.69.3,1.38.61,2.05.94,1.17.63,2.31,1.3,3.43,1.99,1.1.73,2.18,1.49,3.24,2.27.93.71,1.89,1.37,2.78,2.12,1.15.93,2.24,1.97,3.19,3.11.3.36.15.4-.25.27-.41-.14-1.08-.45-1.78-.91-2.48-1.63-4.9-3.24-7.41-4.83-1.48-.98-3.17-1.75-4.83-2.49-1.81-.82-3.67-1.58-5.55-2.1l-.86-.23-.86-.17c-.54-.09-1.24-.16-1.45-.13h-.03c-.14-.03-.23.07-.3.17-.08.11-.12.17-.26.4l-.71,1.22c-.47.83-.94,1.66-1.41,2.48-.73,1.29-1.35,2.63-2.18,3.89-.18.28-.35.56-.56.83-.78.98-1.23,1.15-1.88.86-.15-.07-.31-.12-.44-.21-.44-.3-.39-.92.02-1.63,1.21-2.14,2.56-4.34,3.91-6.69l.95-1.62c.19-.31.27-.45.68-1.07.18-.24.37-.48.61-.65.06-.04.13-.06.2-.09.03-.03.09,0,.08-.07l.1-.03.41-.13c.38-.01.8-.04,1.15-.05l.71.07c.48.03.88.14,1.32.22v.06Z"/><path class="cls-4" d="m113.6,401.13c-.79,1.2-1.54,2.41-2.4,3.56l-1.25,1.75-1.32,1.69c-.32.41-.63.83-.93,1.26-.32.41-.65.81-.99,1.21-2.38,2.81-5.13,5.28-7.91,7.65-1.28,1.01-2.47,2.12-3.78,3.06-1.61,1.3-3.35,2.46-5.28,3.25-.62.22-.66-.04-.42-.67.23-.66.77-1.63,1.67-2.33.84-.58,1.53-1.36,2.36-1.94.8-.62,1.62-1.22,2.38-1.9.77-.67,1.57-1.29,2.34-1.96.75-.69,1.52-1.37,2.3-2.04.92-.82,1.75-1.77,2.59-2.71.8-.98,1.6-1.97,2.4-2.95.85-1.1,1.69-2.2,2.52-3.32.77-1.16,1.62-2.27,2.34-3.46l1.37-2.18,1.27-2.24c.64-1.13,1.21-2.31,1.82-3.47.55-1.18,1.13-2.35,1.6-3.56.76-1.87,1.28-3.78,1.83-5.7.12-.42.21-.84.34-1.26.47-1.57.85-1.99,1.73-2.07.2-.02.41-.06.59-.05.62.04.93.85.71,2.07-.68,3.61-2.05,7.23-3.7,10.74-.58,1.32-1.29,2.58-1.95,3.86-.72,1.26-1.41,2.53-2.17,3.76l-.06-.03Z"/><path class="cls-4" d="m151.43,471.31c-4.63-4.07-9.09-8.29-13.57-12.43-1.64-1.5-3.33-2.95-4.99-4.41-5.82-5.2-11.95-10.03-18.71-13.92-1.53-.81-3.06-1.63-4.58-2.44-1.57-.73-3.16-1.41-4.73-2.11-2.02-.88-4.15-1.52-6.18-2.39-1.02-.43-2.09-.74-3.13-1.12-1.05-.36-2.06-.83-3.1-1.24-1.28-.55-1.07-.63.14-.57.67.04,1.53.09,2.5.15,1.03.1,2.21.31,3.47.63,2.2.65,4.38,1.4,6.53,2.21l3.18,1.35c1.06.46,2.13.88,3.15,1.43,2.05,1.06,4.15,2.05,6.1,3.3.99.6,1.99,1.19,2.95,1.83l2.84,2.01c4.47,3.28,9.04,6.77,13.28,10.48,4.64,4.09,9.13,8.29,13.76,12.32,1.42,1.25,2.84,2.49,4.3,3.68,1.45,1.21,2.89,2.43,4.38,3.58,1.27.98,2.5,2.01,3.8,2.96,1.18.87,2.36,1.74,3.54,2.61.14.1.29.22.44.31.16-.07.27-.23.39-.36l.34-.42.52-.67c.76-1,1.52-2,2.28-2.99,2.71-3.53,5.33-7.05,8.48-10.27.69-.71,1.37-1.4,2.14-2.06,2.85-2.44,4.21-2.74,5.26-2.41.25.08.54.14.71.26.55.42-.5,1.43-2.38,3.05-2.83,2.42-5.42,5.36-7.96,8.44-1.27,1.54-2.51,3.13-3.75,4.75l-1.86,2.45-.99,1.29c-.58.71-1.27,1.69-2.03,2.06-.18.09-.36.15-.54.19-.19.06-.4.04-.58-.03l-1.14-.31-4.23-3.07c-1.17-.83-2.29-1.73-3.42-2.62-1.12-.9-2.27-1.76-3.37-2.68l-3.28-2.78.04-.06Z"/><path class="cls-4" d="m118.81,408.92c-.97,1.34-1.98,2.66-3.04,3.92-.37.47-.73.96-1.13,1.41-1.41,1.58-2.9,3.09-4.45,4.52-.69.64-1.37,1.27-2.05,1.91-.86.82-1.84,1.52-2.86,2.14-.32.19-.36.06-.25-.28.12-.34.36-.93.79-1.47.71-.99,1.55-1.82,2.36-2.68.79-.88,1.69-1.66,2.55-2.49,1.05-.98,1.92-2.2,2.83-3.34,1-1.26,1.96-2.55,2.87-3.88.56-.82,1.11-1.65,1.62-2.5.78-1.29,1.53-2.6,2.15-3.96.47-1.06.77-2.17,1.1-3.27l.23-.71c.34-.87.6-1.09,1.24-1.07.15,0,.3,0,.43.02.47.07.69.57.59,1.3-.08.54-.16,1.08-.3,1.61-.16.52-.33,1.05-.54,1.56-.42,1.03-.91,2.04-1.45,3.03-.8,1.47-1.71,2.89-2.65,4.27l-.05-.03Z"/><path class="cls-4" d="m150.31,393.75c3.3,2.74,6.47,5.6,9.57,8.52,1.14,1.06,2.32,2.07,3.43,3.14,3.91,3.82,7.75,7.69,11.59,11.54,1.7,1.71,3.47,3.36,5.26,4.94,2.3,2,4.6,4,6.91,6.02.72.63.54.71-.32.53-.43-.09-1.04-.23-1.75-.46-.71-.24-1.45-.63-2.21-1.13-2.69-1.77-5.11-3.83-7.49-5.92-1.19-1.05-2.35-2.11-3.51-3.2-1.13-1.11-2.23-2.24-3.33-3.39-2.63-2.74-5.61-5.31-8.46-7.92-3.13-2.87-6.28-5.71-9.51-8.46-2-1.67-4.01-3.34-6.1-4.89-3.15-2.36-6.41-4.63-9.84-6.47-2.67-1.41-5.46-2.46-8.27-3.24-.62-.15-1.23-.32-1.86-.45-2.32-.54-3.01-.77-3.42-1.74-.09-.21-.23-.44-.27-.64-.17-.69.94-1.13,2.88-.95,2.86.3,5.69,1.17,8.39,2.31,2.71,1.15,5.33,2.54,7.81,4.12,3.72,2.31,7.19,4.95,10.56,7.66l-.04.07Z"/><path class="cls-4" d="m205.14,475.34c-1.03-1.1-2.1-2.16-3.25-3.13-.42-.36-.88-.65-1.31-.99-.76-.6-1.55-1.16-2.36-1.7-.79-.57-1.63-1.08-2.49-1.54-.76-.41-1.58-.73-2.39-1.02-1.05-.36-2.12-.63-3.19-.95-.33-.1-.27-.25.05-.37.32-.12.91-.26,1.58-.17,2.34.32,4.66,1.02,6.73,2.22,1.23.71,2.52,1.45,3.71,2.28,1.3.93,2.51,1.96,3.67,3.04.72.66,1.4,1.35,2.09,2.04,1.04,1.04,1.99,2.16,2.98,3.22.77.83,1.62,1.55,2.4,2.35.16.18.33.35.48.55.56.73.61,1.06.36,1.53-.06.11-.11.22-.17.31-.23.3-.72.23-1.29-.16-.42-.29-.84-.58-1.26-.89-.38-.34-.75-.69-1.11-1.04-.73-.71-1.44-1.46-2.15-2.2-1.07-1.08-2.03-2.28-3.11-3.34l.04-.04Z"/><path class="cls-4" d="m212.47,477.55c-3.76-4.11-8.05-7.78-12.57-11.14-4.53-3.36-9.32-6.38-14.26-9.14-3.62-2-7.35-3.78-11.1-5.49l-1.25-.55-.63-.27c-.23-.11-.38-.13-.68-.33l-3.26-1.9c-.26-.16-.55-.31-.8-.48-.02-.28.04-.47.13-.72.15-.48.6-1.04,1.18-1.56.28-.26.58-.52.88-.78l.82-.7,1.06-.89c2.83-2.36,5.65-4.7,8.44-7.08,5.57-4.76,11.07-9.62,16.36-14.69,4.7-4.49,9.23-9.21,13.46-14.07,2.72-3.12,5.36-6.31,7.87-9.59,2.52-3.28,4.91-6.64,7.32-10,1.59-2.04,1.6-1.66.98.54-.31,1.1-.88,2.6-1.67,4.36-.82,1.74-1.96,3.68-3.37,5.66-2.51,3.49-5.17,6.88-7.95,10.14-2.81,3.24-5.73,6.38-8.73,9.44-6.01,6.11-12.32,11.93-18.88,17.47-3.92,3.31-7.92,6.69-11.94,10.09l-1.24,1.06-.47.42-.11.11s-.11.1,0,.11l.36.15.73.3,3.34,1.49c1.2.56,2.4,1.13,3.59,1.69,5.22,2.56,10.29,5.41,15.18,8.56,4.87,3.16,9.6,6.59,13.94,10.49.73.67,1.48,1.33,2.2,2.02l2.13,2.1,2.04,2.19c.35.36.66.75.98,1.13l.68.82.19.23.09.11s.09-.03.14-.04c.17-.09.34-.19.5-.3l.81-.54.96-.67c1.27-.91,2.53-1.85,3.77-2.81,8.43-6.55,16.45-13.77,23.74-21.48,5.66-6,10.74-12.32,15.35-19,1.02-1.47,1.96-2.94,2.94-4.46,3.59-5.62,4.66-7.44,6.09-8.31.32-.2.68-.5.93-.59.81-.31.08,2.44-2.37,6.8-7.31,12.93-17.61,24.89-28.91,35.67-3.69,3.51-7.5,6.89-11.44,10.13-1.97,1.62-3.97,3.21-6.02,4.76-1.03.77-2.06,1.53-3.12,2.28l-.81.56-.33.22-.39.25c-.26.16-.52.33-.78.46-.26.16-.53.25-.78.31-.25-.05-.48-.12-.7-.2l-.04-.02h-.02s-.01-.01-.01-.01c-.02.12.04-.27-.06.26l-.08-.05-.16-.1-.33-.2-.65-.39-1.86-2.23c-.45-.53-.94-1.03-1.41-1.54l.04-.06Z"/><path class="cls-4" d="m256.31,406.18c-2.05-1.58-4.16-3.12-6.35-4.57-.8-.53-1.63-1-2.44-1.53-2.81-1.91-5.69-3.76-8.41-5.85l-1.84-1.36c-.61-.46-1.25-.87-1.83-1.36l-2.24-1.86c-.73-.65-1.34-1.43-1.99-2.15-.39-.47-.23-.51.31-.36.53.17,1.54.41,2.48.99,1.63,1.05,3.3,2.03,4.88,3.14,1.6,1.08,3.24,2.12,4.81,3.32,1.89,1.41,4.07,2.56,6.12,3.85,2.25,1.43,4.51,2.89,6.69,4.47,1.36.94,2.66,1.99,3.97,3,1.94,1.61,3.81,3.31,5.59,5.07.68.7,1.42,1.32,2.1,2.01l2.03,2.07c.3.31.57.62.84.96,1,1.24,1.06,1.83.68,2.5-.09.16-.17.33-.28.46-.36.42-1.13.19-1.98-.56-2.31-2.39-4.66-4.86-7.22-7.2-1.86-1.77-3.91-3.37-5.96-4.97l.04-.06Z"/><path class="cls-4" d="m359.03,367.71c-2.4.26-4.8.57-7.19.99-.87.14-1.72.38-2.59.54-3.06.58-6.11,1.24-9.13,2.05-1.34.35-2.66.81-3.96,1.26l-2.48.93c-.84.29-1.7.51-2.57.72-.55.12-.57-.13-.25-.58.33-.45.97-1.17,1.88-1.7,3.36-1.46,6.85-2.64,10.45-3.44,2.16-.45,4.36-1.11,6.57-1.57,2.43-.51,4.88-.92,7.33-1.26,1.51-.22,3.03-.39,4.54-.56,2.29-.26,4.61-.39,6.89-.59,1.77-.13,3.51-.41,5.27-.5.39-.03.77-.07,1.16-.05,1.45.05,1.91.22,2.22.73.07.12.16.23.2.35.13.38-.45.72-1.5.93-3.09.66-6.33.78-9.59,1.08-2.42.21-4.85.42-7.26.72v-.06Z"/><path class="cls-4" d="m366.08,410.63c2.81-.62,5.62-1.19,8.44-1.74,1.03-.2,2.04-.46,3.07-.65,3.65-.61,7.31-1.1,10.99-1.51,1.64-.15,3.27-.36,4.9-.5.52-.05,1.04-.11,1.57-.14.53,0,1.06,0,1.59.02.53.02,1.07.09,1.59.15.53.03,1.06.18,1.58.35.64.21.53.23-.04.41-.28.08-.68.26-1.13.38-.47.17-1,.35-1.57.45-.51.1-1.02.23-1.53.35-.51.11-1.02.13-1.54.23-1.03.15-2.06.29-3.09.47-2.06.35-4.16.53-6.27.79-2.53.25-5.1.94-7.65,1.44-2.81.55-5.61,1.13-8.41,1.76-1.72.37-3.44.8-5.15,1.21-2.59.67-5.2,1.31-7.73,2.12-1.97.62-3.83,1.43-5.75,2.11-.42.16-.82.34-1.25.48-1.6.5-2.2.38-2.73-.06-.12-.1-.27-.2-.36-.31-.29-.36.23-.96,1.31-1.62,3.27-1.81,6.97-2.99,10.71-4.07,2.78-.79,5.6-1.49,8.42-2.18l.02.07Z"/><path class="cls-4" d="m395.69,387.34c-.62-2.6-1.18-5.21-1.73-7.83-.21-.95-.45-1.9-.63-2.86-.63-3.39-1.07-6.81-1.41-10.24-.18-1.52-.33-3.05-.49-4.56-.05-.97-.1-1.95-.16-2.93.03-.98.19-1.97.31-2.94.09-.61.25-.52.53-.02.26.51.79,1.43,1.07,2.51.69,3.84,1.02,7.69,1.47,11.62.24,2.35.83,4.74,1.31,7.11.52,2.61,1.09,5.21,1.7,7.81.39,1.6.76,3.2,1.18,4.79.62,2.41,1.25,4.84,1.97,7.2.56,1.84,1.26,3.6,1.9,5.4.14.4.3.78.43,1.18.44,1.51.34,2.06-.13,2.54-.11.11-.21.24-.33.32-.39.27-.95-.24-1.48-1.28-1.41-3.12-2.46-6.55-3.48-10.01-.74-2.58-1.43-5.19-2.09-7.8l.06-.02Z"/><path class="cls-4" d="m363.88,375.1c-1.22.14-2.44.3-3.64.53-.44.07-.86.23-1.31.3-1.57.24-3.14.52-4.68.93-.69.16-1.34.44-2.02.64-.85.29-1.7.6-2.59.8-.28.06-.31-.1-.17-.38.14-.27.45-.69.9-.98,1.6-1.02,3.36-1.7,5.21-2.13,1.1-.25,2.19-.72,3.31-1.01,1.24-.3,2.48-.54,3.74-.76.77-.14,1.54-.25,2.31-.37,1.17-.19,2.35-.3,3.5-.5.9-.14,1.77-.39,2.66-.55.2-.04.39-.1.59-.12.74-.08.99.06,1.19.65.05.13.1.27.13.4.1.46-.17.86-.69,1.06-1.53.55-3.13.92-4.78,1.09-1.22.15-2.44.28-3.66.46v-.06Z"/><path class="cls-4" d="m317.06,361.95c1.46-.51,2.95-.94,4.42-1.41,1.47-.47,2.95-.92,4.44-1.33l4.46-1.27,4.49-1.15c2.17-.59,4.36-1.14,6.56-1.63,7.77-1.65,15.63-2.96,23.57-3.5.88-.07,1.75-.18,2.64-.23l2.65-.12c1.76-.07,3.52-.22,5.27-.24,2.25.02,4.51.1,6.77.17,1.13.07,2.25.28,3.36.49l1.67.32c.55.11,1.09.33,1.64.46,1.36.37,1.16.39-.06.6-1.23.26-3.45.87-5.96.8-4.49.05-8.95.05-13.45.27-2.25.02-4.49.32-6.75.48-1.13.1-2.26.15-3.39.29l-3.39.4c-1.35.17-2.72.31-4.09.54-1.36.26-2.73.52-4.11.79-2.76.5-5.48,1.23-8.21,1.84-1.5.32-2.99.73-4.47,1.11-1.49.39-2.98.76-4.46,1.17-2.95.86-5.92,1.68-8.84,2.64l-2.71.86-2.69.92c-1.8.6-3.58,1.24-5.35,1.91-2.69.99-5.37,2.05-8,3.16l-.94.42c-.19.08-.38.16-.56.26l-.14.07s-.01.09-.02.14l.03.3.1.75c.2,1.41.44,2.82.69,4.22.79,4.36,1.79,8.6,2.93,12.82.26.92.51,1.83.78,2.76.48,1.72.74,2.86.78,3.71.05.84-.04,1.36-.31,1.85-.12.22-.22.5-.35.65-.42.51-1.42-.74-2.41-3.27-1.26-3.79-2.17-7.76-3.05-11.79-.44-2.01-.83-4.05-1.2-6.1-.17-1.03-.35-2.06-.53-3.1l-.24-1.57-.09-.66c-.01-.25-.1-.53-.05-.75.07-.45.12-.94.22-1.36,0-.04.02-.08.02-.12l.09-.08.19-.16.4-.31c.27-.19.57-.43.88-.62l1.41-.63,2.17-.92c1.45-.61,2.91-1.16,4.36-1.74l4.39-1.63,4.42-1.54.03.07Z"/><path class="cls-4" d="m161.12,78.37c-.36.09-.58-.29-.75-.9-.05-.2.04-.75.15-.81.22-.13.44-.27.65-.36.13-.05,2.14-.19,2.84-.26.68-.08,1.34-.02,1.98.11,1.31.25,2.63.49,3.92.83.29.07.57.18.82.35.89.54,1.84.87,2.83,1.14.16.05.32.13.53.05.36-.16,2.95.87,3.22,1.14.67.64,1.41,1.16,2.04,1.84.09.09.24.11.24.33,0,.52.27.6.49.76.3.23.58.5.81.82.12.16.13.47.17.74.04.24-.4.76-.49.79-.25.09-.31.43-.45.67-.05.08-.11.19-.16.25-.11.12-2.43.05-2.61-.04-.01-.03-.72-.27-1.42-.6-.71-.31-1.45-.62-1.61-.66-.17-.04-.27-.22-.4-.36-.05-.08-2.25-.82-2.33-.87-.41-.26-.9-.32-1.21-.84-.06-.1-.16-.12-.25-.16-.78-.28-1.5-.72-2.25-1.09-.38-.19-.8-.29-1.2-.44-.07-.03-.13-.1-.2-.14-.08-.06-.17-.13-.26-.15-.97-.29-1.91-.71-2.9-.91-.22-.06-1.24-.68-1.52-.7-.15-.03-.56-.56-.71-.52Z"/><path class="cls-4" d="m258.76,56.32c.15.33-.24.56-.93.75-.22.06-.86,0-.95-.11-.17-.2-.33-.39-.45-.59-.07-.12-.33-1.95-.45-2.58-.12-.61-.14-1.21-.06-1.81.12-1.21.22-2.42.37-3.62.03-.27.1-.53.22-.78.38-.87.54-1.78.62-2.7.01-.15.06-.3-.04-.48-.18-.28.28-2.76.45-3.05.41-.79.77-1.48,1.16-2.21.06-.1.04-.23.22-.3.42-.15.42-.4.51-.63.12-.32.27-.64.48-.94.1-.15.35-.26.55-.37.18-.11.69.12.73.18.13.19.4.14.63.18.07.02.17.04.23.06.12.05.56,2.15.52,2.35,0,.02-.09.73-.18,1.48-.07.75-.19,1.51-.18,1.68,0,.17-.12.31-.21.46-.05.07-.23,2.31-.25,2.39-.14.44-.09.92-.49,1.31-.08.08-.08.17-.09.26-.1.79-.36,1.55-.57,2.32-.11.39-.13.8-.2,1.2-.01.07-.07.14-.1.21-.04.09-.09.17-.1.27-.11.96-.39,1.89-.44,2.86-.02.22-.51,1.24-.5,1.5,0,.14-.53.57-.46.7Z"/><path class="cls-4" d="m330.37,96.68c-.26.2-.53-.15-.77-.79-.08-.2-.11-.83-.04-.93.13-.19.27-.38.4-.52.09-.07,1.46-.64,1.89-.92.43-.24.86-.4,1.3-.53.89-.27,1.74-.64,2.6-.97.19-.07.4-.09.61-.09.74.02,1.41-.22,2.02-.58.1-.06.22-.09.27-.26.09-.27,1.76-1.14,2.01-1.16.66-.04,1.27-.19,1.91-.31.09-.02.14-.12.3,0,.37.26.5.1.68.02.25-.1.51-.2.81-.23.15-.02.4.12.62.21.2.08.51.66.51.74,0,.24.26.44.43.66.05.07.13.17.16.23.1.15-.78,1.98-.97,2.05-.02.01-.55.39-1.11.79-.57.38-1.16.77-1.29.86-.12.1-.3.07-.47.08-.06.03-1.85,1.07-1.94,1.08-.41.11-.78.37-1.29.18-.1-.04-.18,0-.25.04-.68.26-1.42.34-2.14.42-.37.04-.73.14-1.09.2-.07.01-.14-.02-.21-.03-.09-.01-.18-.04-.26-.03-.86.16-1.74.11-2.58.31-.2.05-1.18-.22-1.4-.17-.13.03-.58-.41-.69-.33Z"/><path class="cls-4" d="m327.8,147.25c-.39,0-.61-.35-.76-.86-.05-.16.08-.56.21-.6.24-.06.48-.13.72-.17.14-.02,2.28.19,3.03.23.72.04,1.42.16,2.1.32,1.39.34,2.75.77,4.11,1.21.3.1.59.23.86.4.93.59,1.94.99,2.98,1.32.17.06.34.15.55.09.36-.1,3.1,1.03,3.4,1.3.75.63,1.52,1.21,2.26,1.83.11.09.26.11.29.32.06.49.35.57.59.73.34.22.66.48.94.79.14.16.19.46.27.72.07.24-.34.74-.43.77-.26.08-.28.41-.4.65-.04.08-.09.18-.14.24-.11.13-2.56-.08-2.76-.21-.01,0-.21-.1-.5-.23-.29-.13-.68-.3-1.08-.48-.8-.34-1.63-.71-1.81-.76-.19-.06-.32-.23-.46-.38-.07-.08-2.5-1.02-2.59-1.07-.46-.29-1-.41-1.36-.93-.07-.1-.18-.14-.28-.18-.86-.36-1.65-.86-2.48-1.31-.42-.23-.87-.38-1.31-.57-.08-.03-.14-.11-.22-.16-.09-.06-.18-.14-.28-.18-1.06-.38-2.03-1.04-3.11-1.38-.24-.1-1.32-.82-1.61-.9-.16-.05-.58-.57-.74-.56Z"/><path class="cls-4" d="m158.5,152.25c-.29.25-.66.22-1.06.1-.13-.04-.26-.29-.19-.39.13-.19.25-.38.39-.57.09-.1,1.62-1.53,2.1-2.08.47-.52.98-.98,1.5-1.43l3.3-2.48c.24-.18.51-.33.79-.45.97-.41,1.83-1,2.68-1.6.14-.1.3-.18.38-.38.12-.33,2.5-1.87,2.86-1.97.9-.26,1.75-.62,2.66-.88.13-.04.22-.16.41-.07.43.19.64,0,.9-.13.36-.16.72-.31,1.13-.4.2-.04.47.04.73.09.23.05.44.58.42.66-.06.24.2.4.34.59.05.07.1.15.13.21.06.13-1.35,2.15-1.56,2.27-.02.02-.69.52-1.4,1.04-.71.51-1.46,1.04-1.6,1.16-.15.13-.37.15-.56.2-.09.03-2.21,1.58-2.31,1.62-.5.23-.89.63-1.54.6-.13,0-.22.06-.31.11-.81.46-1.71.77-2.58,1.14-.44.18-.85.43-1.28.64-.08.04-.17.04-.26.07-.11.03-.22.05-.32.1-.98.56-2.09.9-3.09,1.43-.24.11-1.49.43-1.75.59-.15.08-.78.09-.89.2Z"/><path class="cls-4" d="m262.78,244.54c-1.37.23-2.74.42-4.12.48-.5.04-1,.1-1.5.11-1.77.01-3.53-.09-5.26-.29-.77-.07-1.55-.16-2.31-.26l-1.46-.24c-.48-.11-.96-.24-1.43-.4-.29-.1-.21-.26.08-.41.29-.14.8-.31,1.35-.27.98.06,1.96.05,2.92.11.96.06,1.93.13,2.92.19,1.17.1,2.39-.09,3.58-.21,1.31-.14,2.61-.33,3.91-.57.8-.15,1.59-.32,2.38-.54,1.19-.32,2.38-.7,3.5-1.19.86-.41,1.65-.92,2.44-1.42l.51-.34c.66-.39.94-.38,1.37.02.1.09.21.18.29.28.29.34.19.81-.27,1.22-.66.62-1.43,1.13-2.23,1.61-.82.44-1.7.79-2.59,1.1-1.32.46-2.7.8-4.07,1.08v-.05Z"/></svg>