<?xml version="1.0" encoding="UTF-8"?><svg id="Layer_1" xmlns="http://www.w3.org/2000/svg" width="520" height="520" viewBox="0 0 520 520"><defs><style>.cls-1,.cls-2{opacity:.35;}.cls-1,.cls-3,.cls-4{fill:#231f20;stroke-width:0px;}.cls-5{opacity:.3;}.cls-6{opacity:.5;}.cls-3{opacity:.02;}</style></defs><path class="cls-3" d="m72.35,77.21c-2.26,2.38-10.44.88-17.82,17.03-11.12,24.34-15.25,274.9.72,321.22,0,0,6.86,5.23,54.7,7.64,52.86,2.66,107.92,2.52,107.92,2.52,0,0,195.4-4.69,207.58-5,12.18-.31,41.42-1.31,45.56-23.82,4.13-22.51,6.26-301.11-7.96-308.72-12.16-6.51-57.61-11.5-77.22-12.44-19.61-.95-108.53-5.16-126.48-5.73-17.95-.56-87.04-2.17-110.09-.16-23.05,2.01-76.9,7.46-76.9,7.46Z"/><path class="cls-4" d="m332.82,184.99c14.1,3.31,35.54-15.02,36.85-23.61.83-5.43,2.46-8.93,2.02-15.99-.45-7.06-10.53-22.06-16.57-27.77-6.05-5.72-21.64-8.43-28.35-8.25-6.71.18-18.63,6.31-22.92,8.15-4.29,1.84-14.48.44-17.39-.58s-18.92-9.95-28.1-13.05c-9.17-3.1-13.64.12-26.42,5.09-12.77,4.97-18.25,23.11-18.25,23.11-4.86,20.87,15.98,40.33,21.1,40.33l6.55-3.95s4.03-16.5,9.09-23.08c2.82-3.67,6.52-5.56,6.52-5.56l24.27,18.4s29.55,19.27,36.8,22.28c7.24,3.01,14.81,4.47,14.81,4.47Z"/><path class="cls-4" d="m267.12,192.26c.4-1.18.7-2.39.97-3.65.09-.46.09-.93.16-1.4.26-1.65.41-3.35.42-5.06,0-.76-.07-1.52-.13-2.28-.06-.97-.35-1.92.13-2.96.13-.32.18-.29.47-.06.15.11.37.27.65.46.24.2.42.44.55.71.26.98.47,1.98.58,2.99.07,1.02.06,2.05-.04,3.09-.13,1.24,0,2.53-.11,3.82-.12,1.4-.36,2.81-.79,4.17-.25.84-.55,1.66-.89,2.47-.51,1.22-1.15,2.38-1.83,3.51-.53.87-1.04,1.75-1.71,2.55-.14.18-.27.36-.44.52-.61.6-.96.62-1.44.3-.11-.08-.23-.14-.33-.23-.32-.29-.31-.79-.01-1.25.86-1.42,1.58-2.84,2.34-4.29.54-1.08,1.03-2.23,1.37-3.43l.07.02Z"/><path class="cls-4" d="m341.96,194.26c.21,2.88-.43,5.66-1.46,8.08-.36.86-.67,1.73-1.1,2.56-1.57,2.88-3.64,5.53-6.21,7.57-1.13.91-2.35,1.75-3.69,2.32-1.68.74-3.58,1.32-5.41.87-.57-.1-.47-.26-.03-.58.28-.2.59-.41.88-.62.17-.13.35-.3.55-.41.2-.1.4-.18.62-.25,1.54-.52,2.89-1.37,4.14-2.34,1.27-.95,2.43-2.1,3.53-3.36,1.32-1.52,2.16-3.51,2.96-5.44.92-2.17,1.51-4.23,1.51-6.43-.06-1.32-.22-2.66-.73-3.87-.7-1.85-2.01-3.5-3.77-4.33-1.37-.65-2.91-.6-4.32-.34-.32.09-.62.22-.93.28-1.16.25-1.61.12-2.24-.81-.14-.21-.31-.4-.43-.6-.41-.68-.07-1.53,1-2.17,1.62-.8,3.62-1.24,5.68-.91,2.05.29,4.09,1.25,5.67,2.68.55.56,1.14,1.1,1.56,1.76.22.32.46.63.66.96.18.34.35.69.51,1.03.36.68.51,1.43.75,2.14.18.72.28,1.46.4,2.18l-.1.02Z"/><path class="cls-4" d="m292.37,202.51c4.19-1.17,7.94-4.3,10.75-8.18,1.04-1.41,1.87-2.98,2.71-4.53.38-.68.72-1.39,1.06-2.09l.74-1.64c.05-.12.1-.24.15-.37.01-.06.07-.14.03-.19-.05-.04-.11-.07-.16-.09-.12-.05-.24-.1-.37-.14l-.2-.07s-.08-.02-.19-.07l-.28-.11c-3.11-.89-6.33-1.54-9.52-2.27-2.84-.63-5.71-1.18-8.55-1.74-3.63-.75-7.39-1.22-10.76-3.12-1.01-.7-.84-.66.23-.85.54-.11,1.28-.21,2.17-.35.44-.05.93-.15,1.42-.16.49.01.99.06,1.52.15,7.35,1.42,14.76,2.8,22.2,4.72.56.14,1.12.31,1.69.42l.95.14c.47.13.97.23,1.42.39l.68.22.55.33c.31.26.63.45.86.79.09.76.15,1.59-.19,2.54l-.44,1.35-.32.86c-.22.57-.46,1.14-.7,1.7-.49,1.12-1.05,2.21-1.65,3.27-1.33,2.32-2.89,4.53-4.75,6.52-1.84,1.99-4.01,3.74-6.46,5.04-3.02,1.59-6.51,2.35-9.89,2.15-.64-.05-1.28-.07-1.91-.19-.63-.1-1.26-.18-1.89-.38-.62-.19-1.26-.32-1.87-.56l-1.79-.82c-2.32-1.27-4.19-3.23-5.5-5.41-1.03-1.7-1.82-3.49-2.36-5.34-.32-.92-.48-1.86-.71-2.8-.14-.94-.33-1.89-.39-2.85-.09-.84-.16-1.67-.14-2.52.04-1.58.2-2.62.49-3.31.3-.69.73-1.06,1.19-1.31.22-.11.43-.27.61-.32.32-.08.54.2.76.77.2.56.42,1.41.44,2.45.21,3.1.61,6.24,1.59,9.12.91,2.91,2.51,5.37,4.6,7.01,1.56,1.24,3.49,1.88,5.69,2.22,2.19.34,4.38.16,6.47-.46l.04.1Z"/><path class="cls-4" d="m286.98,165.1c-5.19-3.62-10.3-7.34-15.37-11.08-1.85-1.37-3.76-2.65-5.6-4.04-3.23-2.45-6.41-4.98-9.6-7.44-.25-.19-.26-.2-.35-.27l-.22-.18-.24-.18c-.04-.05-.08,0-.12.02l-.11.09c-.15.13-.29.25-.45.4l-.99,1.01c-1.33,1.43-2.6,2.93-3.74,4.54-2.05,2.83-3.59,6.01-4.84,9.22-1.55,4.17-2.25,8.58-2.59,13.06-.16,1.4-.43,1.26-.97.07-.6-1.18-1.33-3.51-1.16-6.3.4-4.89,1.7-9.8,4.11-14.11,1.19-2.16,2.6-4.19,4.14-6.11.76-.96,1.59-1.87,2.44-2.77l.65-.65.33-.33c.14-.13.33-.37.53-.49l2.31-1.58.04-.03h.02s.01-.02.01-.02c0-.07.06.63.04.33h0s.09,0,.09,0h.17s.35,0,.35,0c.25,0,.5-.03.76.16.26.12.51.29.75.48l.74.54c.59.45,1.18.9,1.78,1.35,1.15.85,2.31,1.71,3.48,2.56,2.34,1.69,4.71,3.37,7.02,5.08,5.09,3.76,10.2,7.49,15.38,11.12,3.19,2.23,6.39,4.44,9.64,6.57,4.93,3.22,9.92,6.41,15.04,9.18,3.99,2.14,8.07,3.93,12.21,5.45.91.33,1.82.61,2.73.91,1.69.6,2.78.99,3.52,1.39.74.41,1.13.83,1.43,1.36.14.25.33.5.41.73.12.39-.21.66-.96.83-.75.16-1.91.2-3.31-.09-2.09-.37-4.12-1.01-6.12-1.74-2-.73-3.96-1.57-5.9-2.48-3.88-1.82-7.66-3.9-11.37-6.09-5.51-3.26-10.86-6.79-16.14-10.37l.05-.09Z"/><path class="cls-4" d="m266.48,103.78c7.55,3.34,13.86,8.17,20.74,10.98,1.71.74,3.45,1.23,5.19,1.63,1.74.28,3.51.52,5.25.34,3.49-.26,6.86-1.66,10.39-3.35,2.57-1.21,5.23-2.51,8.03-3.54,2.8-1.04,5.69-1.84,8.67-2.29,10.54-1.7,21.59,1.31,29.98,7.59,8.49,6.19,14.64,15.34,17.27,25.4,1.23,4.46,1.59,9.12,1.54,13.68-.07,4.58-.71,9.17-2.11,13.54-.51,1.38-.93,2.8-1.6,4.12-.32.67-.6,1.35-.95,2.01l-1.13,1.92c-.19.32-.37.65-.58.95l-.66.9-1.33,1.79-1.52,1.64c-.51.54-1,1.11-1.59,1.56-1.14.95-2.25,1.96-3.53,2.7l-1.87,1.19c-.64.37-1.32.66-1.97.99l-1.99.95-2.07.73c-.69.25-1.39.46-2.08.68l-2.14.45c-3.55.71-3.1.26-.37-1.09.67-.36,1.52-.69,2.41-1.23.88-.58,1.91-1.1,3.01-1.7,1.07-.65,2.17-1.44,3.38-2.17.56-.43,1.14-.87,1.73-1.33.58-.46,1.23-.86,1.77-1.41,4.15-3.5,7.41-8.02,9.16-13.21l.66-1.94.51-2c.08-.33.18-.66.25-1l.18-1.02c.11-.68.26-1.36.35-2.04.34-2.75.51-5.53.42-8.32-.1-2.81-.35-5.55-.95-8.24-.58-2.69-1.44-5.33-2.55-7.87-2.22-5.08-5.4-9.76-9.33-13.75-2.35-2.39-5.04-4.48-7.99-6.18-2.94-1.72-6.13-3.03-9.46-3.84-6.67-1.72-13.74-1.21-20.32.88-3.62,1.14-7.07,2.81-10.69,4.51-1.82.84-3.72,1.66-5.74,2.26-2.02.6-4.16.99-6.3,1-4.29,0-8.42-1.18-12.13-2.85-3.72-1.68-7.16-3.73-10.57-5.71-4.19-2.41-8.36-4.81-12.82-6.14-2.2-.64-4.52-1.05-6.87-1.18-2.34-.15-4.69-.1-7.02.17-3.52.45-6.98,1.4-10.25,2.83-3.25,1.46-6.33,3.34-9.07,5.64-5.5,4.57-9.76,10.62-12.34,17.25-4.04,10.31-4.06,21.96.36,31.81.91,2.19,2.14,4.17,3.44,6.15,2.52,3.62,4.61,5.64,6.02,7.13,1.46,1.44,2.21,2.42,2.76,3.37.24.44.61.96.72,1.3.17.57-.61.48-2.23-.23-.84-.32-1.75-.96-2.9-1.69-1.08-.81-2.34-1.78-3.57-3.06-7.5-7.5-11.7-18.46-11.5-29.56.09-5.53,1.16-11.07,3.16-16.3,1.99-5.23,4.88-10.16,8.63-14.4,5.52-6.3,12.92-11.14,21.17-13.23,4.11-1.06,8.39-1.46,12.6-1.21,1.05.09,2.11.14,3.15.32l1.57.23,1.6.35c1.08.2,2.07.58,3.11.88,1,.35,1.99.74,2.95,1.14l-.02.1Z"/><path class="cls-4" d="m231.9,180.14c-.33,1.62-.35,3.45-.22,5.2.07.64.23,1.26.36,1.89.37,2.25,1.2,4.44,2.38,6.47.54.89,1.2,1.71,1.94,2.43.47.47,1,.88,1.49,1.32.48.46.97.91,1.44,1.44.22.43.07.6-.51.82-.57.22-1.51.3-2.3-.1-1.35-.78-2.5-1.86-3.52-3.03-1.02-1.18-1.86-2.53-2.39-4.01-.65-1.74-1.47-3.49-1.85-5.35-.41-2.05-.48-4.1-.32-6.16.1-1.27.37-2.54.76-3.79.63-1.88,1.82-3.67,3.48-4.89,1.28-.95,2.75-1.68,4.3-1.98.34-.09.67-.14,1.02-.17,1.29-.09,1.67.26,1.82,1.19.03.22.08.43.09.65.01.72-.5,1.29-1.22,1.44-1.08.29-2.06.56-2.9.95-.83.4-1.5.9-2.06,1.58-.85.99-1.43,2.47-1.69,4.11h-.08Z"/><path class="cls-4" d="m241.56,192.03c-2.62-4.07-3.96-8.86-4.06-13.56-.02-1.71-.05-3.44.23-5.12.04-.4.24-1.48.41-2.34l.32-.61.16-.3.08-.15.02-.04v-.02s.06.06.05.04h0s0-.01,0-.01c.02-.03.04-.05.06-.07.34-.29.82-.35,1.35-.35.53,0,1.1.09,1.62.17l.59.1.49.09c1.3.25,2.57.52,3.84.8,2.54.56,5.07,1.15,7.59,1.75,2.47.56,4.96,1.13,7.41,1.69,1.57.37,3.15.73,4.72,1.15,1.57.42,3.13.88,4.62,1.56.91.48.71.65-.22.84-.47.1-1.11.17-1.88.22-.76.02-1.61-.05-2.52-.22-6.43-1.22-12.84-2.56-19.28-4.04-1.38-.31-2.8-.58-4.21-.79l-1.57-.21c-.12-.01-.23-.02-.35-.02-.08,0-.06.08-.08.13l-.03.17-.05.27-.08.71c-.06.54-.13,1.08-.15,1.63-.3,4.22.39,8.52,2.26,12.32,1.15,2.33,2.71,4.47,4.6,6.3,1.46,1.4,2.97,2.57,4.78,3.31,1.78.76,3.73,1.12,5.67,1.09,1.51,0,2.99-.31,4.36-.82,1.39-.47,2.66-1.22,3.83-2.05.51-.38.98-.78,1.43-1.23,1.73-1.57,2.33-2.05,3.39-1.97.23.01.49-.01.69.03.34.08.46.4.37.96-.09.55-.33,1.4-1,2.22-1.85,2.58-4.75,4.48-7.95,5.49-1.6.5-3.29.8-5,.8-1.71.06-3.43-.2-5.1-.66-.61-.19-1.24-.35-1.83-.63-.6-.25-1.19-.5-1.75-.84l-.85-.48c-.28-.17-.53-.37-.8-.56l-.79-.58-.69-.6c-1.83-1.6-3.46-3.45-4.81-5.49l.07-.05Z"/><path class="cls-1" d="m244.08,178.75c-.1,2.06.07,7.48,1.85,11.54,2.7,6.18,7.75,9.18,11.59,9.01s8.65-2.12,11.13-6.2.99-10.73.99-10.73c-11.91-1.12-25.52-4.45-25.56-3.62Z"/><path class="cls-1" d="m271.54,182s29.36,5.14,29.35,6.8c-.03,5.78-6.98,15.22-14.44,15.22-5.66,0-10.78-3.89-12.29-8.81s-2.62-13.2-2.62-13.2Z"/><polygon class="cls-4" points="164.67 162.41 168.57 162.41 166.62 158.47 164.67 162.41"/><path class="cls-4" d="m164.21,169.39c-.9.6,1.03,14.17,1.03,14.17l3.85,4.65,4.68-12.11-1.09-8.3-8.47,1.6Z"/><polygon class="cls-4" points="356.27 414.72 348.6 412.96 356.27 421.05 356.27 414.72"/><path class="cls-4" d="m348.67,412.46c.94.62,1.87,1.27,2.74,2,.32.26.67.48.98.75,1.05,1.02,2.09,2.05,2.91,3.28.2.25.37.54.57.8.2.25.38.53.55.82l.33.54c.08.2.14.42.2.63.15.41.13.88.1,1.31-.03.27-.27.24-.6.08-.35-.17-.74-.38-1.04-.66-.24-.26-.45-.49-.66-.76l-.3-.4-.35-.39c-.22-.27-.46-.53-.71-.79-.23-.27-.47-.55-.71-.85-.27-.36-.62-.67-1.01-.93-.37-.28-.77-.53-1.16-.79-.41-.31-.84-.59-1.27-.88-.42-.31-.86-.58-1.3-.87-.54-.35-1.1-.67-1.67-.98-.87-.45-1.74-.91-2.67-1.2-.72-.22-1.49-.25-2.22-.3-.16-.01-.32-.03-.48-.05-.57-.13-.71-.39-.69-1.15,0-.17,0-.35.01-.52.05-.57.4-.99.93-1.09.8-.2,1.56-.1,2.32.05.75.17,1.48.41,2.19.72,1.06.44,2.06,1,3.05,1.57l-.03.06Z"/><path class="cls-4" d="m153.16,243.8c1.09.37,2.14.81,3.14,1.28.37.17.75.29,1.11.47,1.26.67,2.45,1.41,3.63,2.13.53.31,1.05.63,1.57.94.33.2.68.38,1,.61.32.23.62.49.91.75.18.17.11.24-.15.29-.25.04-.72.11-1.18.03-.79-.19-1.52-.48-2.26-.74-.72-.31-1.39-.7-2.06-1.1-.8-.49-1.74-.75-2.62-1.07-.97-.36-1.94-.69-2.94-.94-.61-.16-1.22-.31-1.85-.4-.94-.15-1.9-.27-2.83-.18-.73.05-1.41.4-2.07.61-.15.05-.28.12-.43.17-.55.14-.76.02-1.1-.66-.08-.15-.17-.3-.23-.46-.23-.53-.12-1.06.32-1.38,1.31-.98,3.01-1.14,4.59-1.03,1.19.08,2.34.33,3.46.63v.06Z"/><path class="cls-4" d="m263.26,203.81c-.34.51-.73,1-1.13,1.45-.14.17-.23.37-.4.52-.61.51-1.26.96-1.93,1.32-.3.16-.58.35-.89.47-.38.2-.82.33-1.27.25-.14-.02-.13-.23-.07-.48.07-.25.16-.53.29-.66.5-.42.88-.88,1.45-1.27.35-.23.49-.69.71-1.04.27-.38.53-.79.76-1.21.13-.27.28-.53.38-.81.16-.42.34-.86.36-1.31.02-.36-.15-.72-.21-1.06-.02-.08-.07-.15-.06-.22,0-.27.21-.35.92-.41l.48-.04c.54-.03.99.1,1.18.37.31.39.42.81.48,1.24.03.42-.09.83-.21,1.23-.19.6-.49,1.16-.79,1.69l-.06-.02Z"/><path class="cls-4" d="m333.96,188.95c-.56.1-1.13.18-1.69.26-.2.03-.38.13-.59.15-.73.03-1.47-.01-2.18-.01-.31,0-.62.06-.92.14-.38.08-.78.18-1.19-.04-.13-.07-.16-.52-.12-1,.05-.48.15-1.02.34-1.13.17-.09.34-.19.51-.25.18-.04.35-.08.53-.1.36-.05.73-.05,1.12,0,.48.08.87-.21,1.32-.29.49-.1.99-.18,1.48-.3.3-.07.61-.14.9-.24.45-.15.91-.28,1.31-.53.15-.1.28-.24.41-.39.14-.12.27-.24.42-.34.06-.04.12-.11.19-.14.27-.12.45,0,.83.5l.26.34c.27.38.37.79.28,1.1-.14.45-.33.86-.57,1.22-.3.25-.64.43-.99.59-.52.24-1.08.38-1.63.54l-.03-.07Z"/><path class="cls-4" d="m298.75,301.15c.53-.08,1.06-.18,1.59-.36.19-.06.35-.19.55-.25.67-.26,1.41-.48,2.09-.83.3-.15.58-.34.84-.55.34-.27.7-.5,1.15-.62.14-.04.26.15.33.43.06.27.09.66-.05.88-.25.4-.59.7-.95.98-.36.28-.75.52-1.18.71-.51.23-.95.62-1.48.87-.57.29-1.17.51-1.79.7-.38.12-.76.2-1.14.3-.58.1-1.16.21-1.73.31-.44.11-.86.33-1.3.42-.1.02-.19.06-.29.07-.37.04-.49-.14-.59-.72-.02-.13-.05-.26-.06-.39-.04-.43.08-.84.32-1.01.35-.24.7-.47,1.05-.57.35-.1.71-.13,1.06-.18.53-.06,1.05-.12,1.57-.23l.02.05Z"/><path class="cls-4" d="m315.6,400.27c-.31-1.64-.65-3.28-1.04-4.91-.14-.6-.35-1.17-.49-1.76-.5-2.1-1-4.2-1.57-6.29-.26-.92-.55-1.84-.86-2.74-.38-1.16-.9-2.28-1.02-3.54-.02-.4.31-.45.79-.28.51.17,1.14.59,1.4,1.24.48,1.16.93,2.33,1.33,3.52.38,1.2.69,2.42.95,3.67.31,1.49.88,2.96,1.3,4.46.46,1.64.87,3.3,1.26,4.96l.69,3.08c.35,1.55.6,3.14.94,4.68.25,1.2.62,2.36.9,3.55.07.26.15.51.19.78.13,1,0,1.34-.55,1.62-.13.07-.25.15-.38.19-.43.15-.86-.2-1.14-.89-.78-2.04-1.22-4.22-1.73-6.41-.39-1.62-.65-3.28-1.03-4.92l.06-.02Z"/><path class="cls-4" d="m199.11,359.75l3.08-5.28c.37-.64.69-1.31,1.08-1.95,1.4-2.22,2.87-4.39,4.3-6.58.63-.98,1.26-1.96,1.88-2.93.79-1.25,1.53-2.54,2.56-3.63.32-.35.49-.16.55.34.04.48.08,1.35-.3,2.11-.66,1.36-1.33,2.7-2.03,4.03-.75,1.3-1.6,2.54-2.46,3.79-1.06,1.48-1.84,3.2-2.8,4.79-1.04,1.75-2.08,3.5-3.09,5.27-.62,1.09-1.24,2.18-1.84,3.28-.9,1.67-1.87,3.32-2.7,5.02-.64,1.32-1.17,2.66-1.75,3.99-.12.29-.25.58-.37.88-.51,1.08-.79,1.36-1.3,1.41-.12.01-.24.04-.34.03-.35-.03-.4-.59-.16-1.45.73-2.53,1.74-5.1,2.86-7.63.42-.94.84-1.88,1.31-2.79l1.46-2.72.05.03Z"/><path class="cls-4" d="m118.36,373.54c-1.55-1.54-2.85-3.3-4.08-5.08-.44-.66-.87-1.32-1.26-2.01-1.27-2.49-2.24-5.11-2.87-7.79-.14-.6-.22-1.21-.34-1.8-.12-.6-.26-1.19-.31-1.79-.09-.77-.16-1.54-.18-2.32.02-.78.07-1.55.14-2.32.05-.48.19-.41.41-.01.21.4.58,1.11.76,1.95.13.75.42,1.47.59,2.2.12.74.34,1.45.54,2.17l.28,1.08c.12.35.22.71.32,1.07.2.72.35,1.46.62,2.16.28.86.6,1.72,1.07,2.53l.66,1.22.74,1.17c1.01,1.76,2.27,3.38,3.59,4.94.87.91,1.72,1.85,2.7,2.65,1.42,1.28,3.01,2.39,4.66,3.36,1.3.71,2.65,1.26,4.03,1.75.3.11.6.22.9.33,1.11.44,1.43.71,1.54,1.23.03.12.07.24.08.35.02.36-.55.48-1.48.35l-1.05-.16c-.35-.06-.68-.19-1.02-.28-.67-.22-1.39-.4-2.04-.7-.67-.29-1.34-.57-2.01-.9-.65-.34-1.28-.74-1.91-1.12-1.82-1.23-3.56-2.61-5.11-4.19l.04-.04Z"/><path class="cls-4" d="m146.85,248.28l1.61-.29.8-.14.82-.07,1.63-.13c.54-.03,1.1.02,1.64.03.4.01.79,0,1.19,0,.4.03.8.06,1.19.12,2.77.45,5.51,1.37,7.79,2.99.49.39.98.76,1.47,1.11.48.37.91.82,1.36,1.22,1.1,1.08,2.1,2.34,2.5,3.86.15.46-.13.52-.66.38-.51-.16-1.41-.37-1.93-.91-1.05-.89-2.08-1.68-3.2-2.35-.58-.3-1.1-.69-1.71-.93-.3-.13-.58-.3-.86-.48-.27-.2-.6-.3-.89-.46-.36-.18-.74-.35-1.13-.48-.4-.09-.82-.17-1.23-.25-.82-.2-1.68-.13-2.52-.24-1.85-.06-3.75-.01-5.63.35-.58.12-1.16.2-1.74.35l-1.71.51c-1.7.58-3.41,1.27-4.94,2.24-.61.35-1.15.8-1.67,1.26-.52.47-1.05.9-1.55,1.39-.22.22-.43.43-.67.62-.89.7-1.42.63-2.14.17-.17-.11-.35-.2-.49-.32-.49-.39-.47-1.11,0-1.96.4-.57.78-1.18,1.27-1.69.5-.49,1.03-.96,1.58-1.42,1.06-.97,2.38-1.63,3.65-2.35.98-.47,2-.89,3.01-1.3,1.06-.32,2.09-.69,3.16-.95l.03.09Z"/><path class="cls-4" d="m328.09,314.6c-1.24-1.1-2.52-2.18-3.87-3.18-.49-.37-1.02-.68-1.5-1.06-1.7-1.35-3.46-2.63-5.29-3.83-.8-.54-1.65-1.03-2.48-1.5-1.07-.62-2.22-1.1-3.15-1.98-.3-.26-.18-.39.23-.46.2-.04.48-.07.81-.09.33-.03.69,0,1.02.15,2.35.98,4.68,2.06,6.76,3.6,1.26.9,2.69,1.63,4.01,2.51,1.42,1,2.8,2.07,4.14,3.19.82.69,1.63,1.4,2.42,2.13,1.21,1.08,2.31,2.3,3.44,3.46l1.3,1.36c.44.45.8.96,1.2,1.46.17.22.36.42.49.67.53.9.57,1.27.26,1.69-.07.1-.13.21-.21.28-.27.26-.76.07-1.27-.44-.37-.39-.75-.76-1.16-1.12-.41-.36-.77-.75-1.2-1.1-.42-.36-.76-.78-1.15-1.16l-1.17-1.16c-1.2-1.12-2.38-2.29-3.67-3.36l.04-.05Z"/><path class="cls-4" d="m206.65,289.6c1.48-.98,3.01-1.89,4.53-2.82.55-.34,1.08-.73,1.64-1.06,1.98-1.15,4-2.26,6.07-3.28.92-.44,1.85-.89,2.79-1.3.6-.28,1.22-.52,1.88-.65.66-.15,1.34-.23,2.04-.15.43.05.35.2.02.43-.33.19-.83.64-1.44.96-2.19,1.16-4.41,2.4-6.77,3.54-1.41.69-2.72,1.67-4.07,2.55l-4.44,2.93-2.74,1.81c-1.38.93-2.76,1.85-4.1,2.82-1.04.74-2.01,1.56-3.04,2.31-.23.17-.44.34-.68.5-.88.59-1.26.62-1.66.41-.09-.05-.2-.09-.27-.15-.24-.2-.02-.64.52-1.19,1.66-1.53,3.42-3.15,5.34-4.58,1.42-1.07,2.89-2.09,4.35-3.13l.03.04Z"/><path class="cls-4" d="m236.35,289.49c.67.93,1.41,1.81,2.24,2.63.3.3.65.54.96.83,1.03,1.12,2.17,2.17,3.43,3.06.56.4,1.15.75,1.74,1.1.75.45,1.56.8,2.33,1.22.24.13.18.17-.06.16-.24-.02-.68-.09-1.16-.26-1.69-.63-3.48-1.18-5.02-2.21-.91-.62-1.99-1.11-2.87-1.85-.96-.81-1.85-1.71-2.67-2.67-.51-.59-.98-1.2-1.43-1.83-.69-.95-1.26-1.98-1.83-3-.43-.79-.95-1.54-1.32-2.38-.08-.18-.17-.36-.23-.55-.23-.72-.12-1,.35-1.28.11-.06.21-.14.33-.18.38-.16.79.03,1.06.46.9,1.25,1.49,2.59,2.29,3.89.58.96,1.17,1.94,1.89,2.84l-.04.04Z"/><path class="cls-4" d="m251.16,254.62s-6.61-4-14.17,2.55c-5.25,4.54,12.21-12.16,15.13-9.64,2.92,2.52-.97,7.09-.97,7.09Z"/><path class="cls-4" d="m279.21,167.84c.86-.27,1.73-.48,2.62-.63.14-.02.27-.04.41-.06-.22.03-.2.03.05,0,.21-.02.41-.05.62-.06.45-.04.9-.07,1.35-.09,1.85-.08,3.7,0,5.55.07,1.11.05,2.17-1.01,2.13-2.13-.05-1.19-.93-2.08-2.13-2.13-3.93-.16-7.95-.27-11.75.94-1.06.34-1.85,1.49-1.48,2.61.34,1.06,1.48,1.85,2.61,1.48h0Z"/><path class="cls-4" d="m314.42,183.68c.65.15,1.3.28,1.98.4.25.05.49,0,.74.06.88.2,1.77.42,2.67.6.4.1.8.13,1.19.16.51-.02,1.02.16,1.49.48.15.11.09.39-.07.73-.17.33-.45.79-.73.93-.51.3-.99.25-1.48.3-.49.05-.98-.07-1.48-.23-.6-.2-1.23-.04-1.86-.06-.69-.02-1.4-.12-2.1-.21-.44-.06-.87-.12-1.3-.18-.66-.09-1.32-.24-1.98-.27-.51-.03-1.05.13-1.59.18-.12,0-.24.04-.35.03-.43-.04-.52-.29-.41-1.16.02-.2.04-.4.08-.59.12-.66.4-1.17.71-1.32.93-.45,1.74-.35,2.59-.25.63.1,1.27.21,1.91.31v.08Z"/><path class="cls-4" d="m172.46,191.92c-.15.65-.42,1.27-.76,1.79-.12.19-.19.4-.34.56-.55.57-1.2.94-1.83,1.2-.28.13-.53.25-.81.37-.33.17-.73.27-1.12.09-.13-.13-.12-.31-.09-.66.04-.34.09-.73.19-.85.37-.38.69-.56,1.15-.76.29-.11.35-.45.47-.68.15-.26.26-.53.33-.84.04-.19.07-.39.05-.59-.03-.3-.06-.64-.27-.88-.16-.19-.5-.23-.75-.25-.06,0-.12,0-.15-.02-.12-.08,0-.27.49-.99l.33-.49c.37-.55.81-.92,1.18-.9,1.11.04,1.66,1,1.91,1.86.19.67.18,1.37.09,2.04h-.07Z"/><path class="cls-4" d="m166.79,161.43c0-.09-.02-.2-.06-.35l-.07-.24-.04-.14s-.03-.13-.04-.06c-.02,0-.03,0-.05.01-.05.03-.05.24-.1.28-.09.1-.21.25-.36.53-.3.75-.58,1.52-.85,2.29-.23.69-.45,1.39-.64,2.08-.14.44-.22.9-.42,1.33-.09.21-.2.43-.31.63-.1.21-.32.39-.47.58-.23.23-.3.16-.49-.15-.14-.23-.28-.45-.39-.64-.13-.26-.2-.53-.2-.8.12-1.89.57-3.65,1.3-5.44l.15-.4.09-.29.1-.35.36-1.45c.24-1,.51-2,.81-2.94l.72-2.28c.62,1.12,1.26,2.45,1.9,3.63.31.59.61,1.12.92,1.65.3.5.67,1.07.84,1.32.63.99,1.26,2.02,1.95,3.01.54.76,1.22,1.46,1.73,2.29.12.18.25.35.35.55.34.73.14,1.1-.48,1.49-.15.09-.29.19-.44.27-.5.25-1.07.14-1.49-.22-.6-.55-1.09-1.12-1.56-1.74-.45-.63-.89-1.3-1.34-1.99l-1.01-1.6-.25-.42c-.08-.13-.2-.33-.16-.28,0-.02,0-.04,0-.06l.04-.08Z"/><path class="cls-4" d="m170.31,170.5c-1.16.39-2.36.38-3.4.19-.52-.1-1.02-.23-1.49-.4l-.17-.06-.04-.02-.09-.04c-.07-.03-.11-.06-.15-.08l-.25-.16-.07-.04s-.02.04-.03.05c0,.05,0,.1,0,.14,0,.1.02.19,0,.27v.12s-.02.07-.02.07c0,.01,0,.04,0,.15l.05,1.01.12,2.02.3,4.05c.1,1.2.28,2.39.46,3.57.24,1.51.57,3.01.61,4.55.02.47-.26.48-.68.16-.39-.33-1.02-.99-1.22-1.86-.74-3.08-1.38-6.16-1.58-9.34-.05-.95-.17-1.91-.29-2.89l-.21-1.68c-.09-.8-.2-1.68-.08-2.33.06-.28.15-.49.25-.68.05-.09.11-.18.18-.26.04-.04.07-.08.13-.12.05-.02.1,0,.16-.01l.62-.02c.06,0,.1,0,.16,0l.23.07.46.15c.5.25.96.41,1.43.58.27.11.39.14.52.17l.41.12c.54.12,1.08.19,1.6.18.37-.04.73-.08,1.07-.21.19-.07.27-.08.62-.3.15-.08.29-.26.43-.43l.42-.49.72-.78c.21-.17.38-.24.57-.36.2-.1.31-.07.45-.12l.14-.06.07-.03h.02s0-.01,0-.01c.08-.22-.1.3-.08.25h0s0,0,0,0h0s0,0,0,0l.05.04c.12.12.25.24.4.36.11.2.22.45.3.75.16.62.23,1.36.34,2.04l.27,1.82c.24,1.52.64,2.99.93,4.5.06.33.16.66.19,1,.13,1.26-.07,1.7-.85,2-.18.07-.36.16-.54.2-.61.14-1.13-.33-1.4-1.2-.41-1.29-.67-2.63-.91-4-.22-1.23-.51-3.37-.43-2.75,0,.02.05-.12,0-.07-.01,0-.01,0-.03-.02.01,0-.03.03-.21.12-.15.07-.31.12-.47.18l-.03-.06Z"/><path class="cls-4" d="m250.37,244.35c-1.15,1.15-2.27,8.32,1.79,16.19,4.78,9.26,15.51,11.29,24.26,7.91,6.5-2.52,11.58-11.71,11.58-11.71,0,0-14.12,3.67-21.95.07-5.57-2.56-15.67-12.46-15.67-12.46Z"/><path class="cls-4" d="m234.05,264.21c-.33.74-.52,1.54-.77,2.32-.15.81-.41,1.59-.47,2.43-.25,1.66-.34,3.34-.26,5,.05.61.13,1.21.21,1.81.12.6.27,1.18.38,1.78.84,4.19,2.8,8.28,5.7,11.75,1.25,1.57,2.74,2.96,4.25,4.28l1.5,1.23c.51.4,1.04.78,1.53,1.21,1.01.82,2.01,1.67,3,2.52.61.55.35.75-.44.68-.79-.08-2.15-.36-3.5-1.12-2.34-1.41-4.54-3.09-6.61-4.97-2.06-1.88-3.94-4.04-5.34-6.55-1.7-2.94-3.36-6.21-3.9-9.73-.65-3.85-.37-7.71.54-11.45.59-2.3,1.57-4.48,2.78-6.5,1.83-3.08,4.4-5.61,7.14-7.75,2.14-1.66,4.33-3.2,6.73-4.44.53-.27,1.03-.58,1.59-.79,2.04-.89,2.84-.73,3.55.03.16.18.36.34.47.53.38.61-.23,1.53-1.57,2.21-3.93,2.09-7.87,4.37-11.06,7.46-1.17,1.15-2.22,2.41-3.16,3.74-.87,1.37-1.69,2.79-2.22,4.34l-.09-.03Z"/><path class="cls-4" d="m252.6,179.91c-.12.43-.11.87,0,1.31,0,.03.01.05.02.07.07.18.14.35.22.52.09.18.26.36.38.51.03.04.07.08.11.12.14.12.29.24.44.34.02.01.04.03.07.04.17.08.34.15.51.22.03.01.06.02.09.02.19.04.38.06.56.08.03,0,.06,0,.09,0,.26,0,.5-.04.72-.16.23-.08.43-.2.6-.39.18-.17.31-.37.39-.6.12-.22.17-.46.16-.72l-.07-.5c-.09-.32-.25-.59-.48-.83l-.38-.29c-.29-.17-.61-.25-.95-.26-.04,0-.07,0-.11,0l.5.07c-.06,0-.11-.02-.16-.04l.45.19c-.05-.02-.1-.05-.14-.08l.38.29c-.05-.04-.1-.09-.14-.14l.29.38c-.04-.05-.07-.11-.1-.17l.19.45c-.02-.06-.04-.11-.05-.17l.07.5c0-.05,0-.1,0-.16l-.07.5s0-.05.02-.08c.08-.25.09-.5.03-.75-.01-.25-.09-.48-.22-.7-.12-.22-.28-.39-.48-.53-.18-.17-.39-.28-.64-.34l-.5-.07c-.34,0-.65.09-.95.26l-.38.29c-.23.23-.39.51-.48.83h0Z"/><path class="cls-4" d="m279.27,185.7l.28.99c.06.24.17.46.34.64.13.2.31.37.53.48.22.14.45.21.7.22.25.06.5.04.75-.03l.45-.19c.28-.17.51-.39.67-.67l.19-.45c.09-.33.09-.66,0-1l-.28-.99c-.06-.24-.17-.46-.34-.64-.13-.2-.31-.37-.53-.48-.22-.14-.45-.21-.7-.22-.25-.06-.5-.04-.75.03l-.45.19c-.28.17-.51.39-.67.67l-.19.45c-.09.33-.09.66,0,1h0Z"/><path class="cls-4" d="m302.01,249.3c-3.49,3.2-7.48,5.94-11.89,7.83-4.4,1.91-9.18,2.86-13.95,2.98-3.49.04-7.02-.39-10.36-1.52-5.9-1.96-11.03-5.85-14.72-10.68-3.73-4.85-6.03-10.49-7.69-16.17-1.42-5.07-2.45-10.26-2.96-15.43-.31-3.33-.47-6.67-.43-10.01.03-1.67.19-3.34.37-5,.2-1.66.41-3.31.83-4.93.56-2.02.52-1.73.75.05.23,1.78.74,5,1.01,8.72.11,3.3.3,6.6.71,9.87.45,3.26.78,6.53,1.47,9.74,1.3,6.41,3.27,12.76,6.52,18.36.99,1.66,2.12,3.26,3.45,4.69.63.75,1.37,1.4,2.08,2.08.76.62,1.49,1.29,2.32,1.83,1.59,1.16,3.34,2.11,5.15,2.87,1.8.79,3.72,1.31,5.64,1.69,4.24.84,8.7.58,12.95-.4,4.26-1,8.29-2.9,11.9-5.45,4.49-3.1,8.25-7.22,11.52-11.65,4.91-6.78,8.71-14.45,11.58-22.31,2.2-6.13,3.75-12.36,4.95-18.67.27-1.39.47-2.76.71-4.16.51-2.59.82-4.28,1.17-5.46.35-1.18.7-1.83,1.17-2.37.21-.24.41-.58.6-.73.62-.56,1.28,1.81.97,5.8-.19,2.96-.65,5.92-1.23,8.88-.58,2.96-1.29,5.93-2.11,8.9-1.67,5.92-3.76,11.82-6.42,17.53-3.93,8.44-9.01,16.62-16.02,23.19l-.07-.06Z"/><path class="cls-4" d="m313.67,278.86c-.13,3.26-.76,6.48-1.91,9.48l-.63,1.64c-.24.53-.47,1.07-.75,1.58-2.03,3.59-4.87,6.66-8.21,8.86-.72.51-1.5.95-2.26,1.41-.79.41-1.55.84-2.37,1.18-2.05.89-4.2,1.74-6.47,1.71-.7.03-.65-.31-.18-.84.24-.26.58-.58.99-.91.21-.15.43-.33.67-.49.24-.14.5-.27.78-.37,1.98-.74,3.83-1.7,5.58-2.79,1.77-1.07,3.41-2.34,4.92-3.79,1.84-1.73,3.09-4.1,4.08-6.45,1.12-2.59,1.71-5.4,1.9-8.24.08-1.75,0-3.51-.26-5.26-.41-2.63-1.16-5.27-2.42-7.63-.99-1.83-2.33-3.39-3.75-4.84-.3-.33-.65-.6-.95-.93-.55-.62-.9-1.04-1.02-1.46-.12-.42-.03-.83.21-1.35.11-.24.2-.49.34-.71.44-.71,1.46-.71,2.62.08,3.42,2.38,5.93,6.23,7.5,10.37,1.13,3.1,1.72,6.43,1.69,9.73h-.1Z"/><path class="cls-4" d="m198.25,298.12c-3.61,2.93-7.33,5.85-11.28,8.47l-2.15,1.45c-.74.46-1.47.92-2.22,1.35-5.33,2.97-10.85,5.35-16.46,7.55-2.51.92-5.02,1.87-7.52,2.73-1.61.56-3.25,1.06-4.91,1.46-.84.19-1.69.32-2.54.42-.85.12-1.71.2-2.56.25-1.07.07-.95-.12-.14-.62.82-.47,2.25-1.44,3.98-2.31,6.3-2.51,12.59-5.02,18.95-7.56,3.81-1.55,7.56-3.66,11.05-5.86,3.88-2.41,7.55-5.21,11.14-8.15l6.68-5.48c3.4-2.77,6.99-5.39,10.72-7.72,1.43-.94,2.91-1.77,4.37-2.64.74-.43,1.5-.79,2.26-1.19.76-.4,1.51-.79,2.31-1.1.69-.29,1.36-.61,2.07-.89,2.66-.92,3.61-.89,4.43-.08.19.18.41.34.54.53.42.62-.46,1.63-2.26,2.36-5.33,2.25-10.57,5.06-15.54,8.54-3.69,2.59-7.25,5.53-10.84,8.54l-.06-.07Z"/><path class="cls-4" d="m150.87,234.03l-1.57,4.19c-.19.51-.3,1.04-.5,1.54-.71,1.78-1.48,3.52-2.15,5.3-.3.79-.53,1.6-.78,2.4-.34,1.02-.5,2.09-1.28,2.98-.26.27-.19.25-.3-.08-.13-.33-.48-.97-.44-1.6.29-2.2.82-4.32,1.59-6.4.48-1.23.67-2.61,1.05-3.9l1.26-4.25c.26-.87.51-1.74.74-2.62.33-1.33.72-2.66.9-4,.14-1.05.09-2.1.08-3.14,0-.23-.03-.46-.02-.68.02-.42.09-.69.29-.87.22-.17.52-.25.97-.3.21-.02.41-.05.61-.06.34,0,.63.09.88.28.25.19.47.47.51.81.18,1,.21,2.03.12,3.04-.09,1.02-.33,2.01-.57,3.01-.37,1.47-.86,2.91-1.32,4.35l-.07-.02Z"/><path class="cls-4" d="m154.79,185.53c2.05.57,4.01,1.36,5.88,2.44.34.21.69.38,1.04.58.34.22.67.44.99.69,1.09.94,2.08,2.04,2.81,3.39.4.75.54,1.43.68,2.12.12.68.21,1.34.27,1.99.11,1.16.23,2.29.3,3.42.11,1.44.16,2.91-.3,4.38-.27.44-.39.33-.73-.07-.33-.4-.76-1.06-.93-1.83-.27-1.37-.51-2.74-.82-4.08-.3-1.32-.62-2.68-.96-3.77-.09-.36-.17-.56-.4-.87l-.31-.43c-.12-.14-.26-.26-.39-.39-.25-.27-.56-.5-.88-.73-.29-.24-.65-.44-.97-.66-1.43-.99-3.12-1.79-4.88-2.37-1.08-.37-2.2-.65-3.32-.82-.84-.14-1.72-.21-2.46-.15-.59,0-1.3.41-1.86.93-.89.83-1.42,2.06-2.06,3.29-.14.28-.26.56-.43.84-.65,1.01-1.18,1.17-2.02.8-.2-.09-.4-.16-.57-.27-.59-.37-.75-1.06-.52-1.84.39-1.14.9-2.31,1.71-3.57.81-1.22,2.05-2.59,3.89-3.36.99-.35,1.66-.38,2.28-.4.63-.02,1.19.03,1.76.07,1.1.13,2.18.31,3.22.58l-.02.09Z"/><path class="cls-4" d="m159.51,182.26c-1.48-1.03-3.11-1.91-4.72-2.14-.59-.1-1.17,0-1.68.04-.89.11-2,.54-3.04,1.12-1.05.58-2.08,1.31-3.06,2.12-.87.72-1.64,1.55-2.4,2.38-.49.53-.91,1.12-1.42,1.64-.5.53-1.12.96-1.75,1.39-.4.26-.59.06-.71-.51-.06-.29-.11-.68-.14-1.13,0-.22-.02-.48.01-.7.04-.22.11-.44.21-.65,1.6-2.73,3.9-4.97,6.74-6.66.88-.48,1.7-1.05,2.68-1.52.46-.26,1.01-.45,1.54-.64.58-.15,1.17-.28,1.73-.27,2.51-.1,4.69.83,6.59,1.9,1.18.66,2.24,1.48,3.27,2.3,1.55,1.27,2.88,2.74,4.19,4.18,1.02,1.12,2.1,2.18,3.06,3.37.21.26.44.51.63.79.37.51.5.92.48,1.26-.02.34-.18.62-.5.93-.14.14-.28.3-.43.42-.51.39-1.25.24-1.89-.35-1.74-1.84-3.35-3.8-5.14-5.61-1.33-1.34-2.73-2.61-4.27-3.6l.04-.07Z"/><path class="cls-4" d="m152.52,171.81l1.49-.76c.51-.27,1.06-.53,1.73-.77.46-.18,1.01-.43,1.66-.49.64-.04,1.05.06,1.51.15.45.1.87.25,1.27.41.8.36,1.5.82,2.14,1.33.58.44,1.1.94,1.57,1.5.29.36.59.74.79,1.22.1.23.13.51.15.77.01.27-.01.56-.24.81-.25.29-.28.18-.59-.05-.13-.11-.48-.21-.68-.27-.22-.06-.45-.1-.59-.18-.41-.33-.93-.68-1.49-.96-.52-.34-1.01-.74-1.56-1.09-.33-.23-.71-.33-1.08-.36-.18-.01-.39,0-.53,0-.1.01-.22.04-.36.07-.66.18-1.69.74-2.67,1.24l-1.87.97c-.94.5-1.94.92-2.86,1.45-.72.4-1.35.96-2.04,1.43-.15.11-.3.2-.47.27-.63.24-.93.09-1.36-.59-.1-.16-.21-.31-.29-.46-.28-.53-.24-1.12.09-1.54.47-.65,1.02-1.11,1.62-1.5.59-.41,1.2-.76,1.82-1.1.92-.52,1.86-1,2.8-1.56l.05.07Z"/><path class="cls-4" d="m332.59,313.54c2.16,2.53,4.29,5.08,6.27,7.74.73.96,1.52,1.88,2.19,2.88,2.41,3.51,4.64,7.12,6.76,10.77.94,1.62,1.9,3.24,2.86,4.83.61,1.03,1.23,2.05,1.78,3.1.55,1.06,1.06,2.14,1.51,3.25.28.69-.1.79-.79.46-.68-.34-1.73-1.06-2.53-2.17-1.45-1.94-2.73-3.97-4.08-5.95-1.35-1.98-2.58-4.04-3.84-6.11-1.47-2.5-3.45-4.77-5.27-7.09-2.03-2.52-4.04-5.08-6.22-7.48-1.31-1.51-2.7-2.95-4.09-4.38-1.09-1.05-2.16-2.13-3.27-3.17-1.13-1.01-2.23-2.05-3.43-2.97-.92-.72-1.86-1.4-2.83-2.04l-2.94-1.86c-.42-.28-.87-.51-1.29-.81-.78-.55-1.25-.96-1.47-1.4-.21-.45-.21-.89-.06-1.45.07-.25.11-.52.2-.75.16-.38.49-.59.97-.65.47-.05,1.1.03,1.74.35,3.92,1.8,7.43,4.66,10.78,7.67,2.5,2.23,4.82,4.69,7.11,7.14l-.07.07Z"/><path class="cls-4" d="m360.39,372.23c-.03,1.96-.08,3.94-.21,5.93-.14,2-.33,4.01-.81,6.09-.28,1.05-.54,2.1-1.12,3.22-.63,1.27-1.73,2.32-3.01,2.89-1.29.61-2.77.7-4.05.43-1.29-.26-2.39-.83-3.33-1.48-1.27-.89-2.34-1.72-3.49-2.55l-3.39-2.43c-.99-.7-1.99-1.36-2.98-1.91-.25-.14-.49-.26-.73-.38-.12-.05-.24-.11-.35-.15l-.18-.07c-.16-.06-.38-.12-.52.01-.14.15-.25.22-.33.53-.02.08-.05.16-.09.24l-.02.28c-.05.18,0,.4.01.61.1.88.57,1.9,1.15,2.87,1.18,1.96,2.81,3.82,4.46,5.62,1.67,1.81,3.42,3.56,5.19,5.32,1.57,1.57,3.16,3.13,4.71,4.75,1.55,1.63,3.07,3.3,4.34,5.27.2.32.38.66.57.99.17.36.33.71.47,1.09.27.82.39,1.52.5,2.26.22,1.46.31,2.9.34,4.34.02,1.44.03,2.87-.09,4.28l-.4,4.22c-.14,1.74-.27,1.53-.66.05-.19-.74-.44-1.81-.72-3.09-.13-.64-.31-1.33-.42-2.06-.09-.73-.16-1.5-.22-2.29-.1-1.41-.24-2.8-.46-4.13-.11-.67-.25-1.32-.41-1.95-.09-.31-.17-.48-.26-.74-.15-.25-.23-.5-.39-.76-1.21-2.12-3.21-4.2-5.17-6.19-2-2.01-4.09-3.98-6.17-6.03-2.07-2.05-4.14-4.16-6-6.57-1.1-1.45-2.21-2.97-2.99-4.91-.21-.46-.34-1.02-.48-1.55-.08-.58-.17-1.15-.09-1.79,0-.31.08-.62.17-.93.08-.31.17-.62.39-.95.21-.31.34-.68.6-.93l.76-.78c.56-.46,1.33-.57,2.04-.49.72.07,1.53.38,1.91.55.95.4,1.77.87,2.58,1.35,1.6.97,3.09,2.01,4.54,3.07l2.37,1.75c.76.56,1.61,1.21,2.25,1.6,1.39.84,2.83.98,3.9.27.27-.17.5-.4.69-.64.1-.13.16-.22.25-.4l.25-.54c.29-.78.54-1.64.7-2.55.34-1.81.54-3.71.66-5.63.29-4.73.26-9.54.28-14.36.01-2.8.04-5.61.27-8.46.12-1.42.28-2.85.63-4.3l.15-.55c.06-.21.13-.47.22-.69.22-.43.35-.93.65-1.29.14-.19.25-.4.41-.57l.49-.46c.37-.25.77-.45,1.21-.57,1.16-.19,2.12.55,2.78,1.49.32.48.64,1.01.87,1.56.2.43.35.84.51,1.26.99,2.77,1.6,5.52,2.19,8.27.57,2.75,1.05,5.51,1.44,8.29.17,1.23.36,2.42.48,3.67.22,2.3.26,3.84.11,4.93-.17,1.09-.49,1.72-.98,2.22-.22.23-.45.52-.67.64-.38.2-.69-.16-.98-.96-.29-.8-.6-2.06-.78-3.7-.57-4.45-1.23-9.04-2.06-13.6-.42-2.28-.9-4.56-1.5-6.73-.16-.54-.32-1.07-.49-1.58-.08-.26-.18-.49-.27-.74-.04-.13-.09-.24-.14-.35l-.07-.16s-.01,0-.01,0h0c-.02.05.06-.17-.1.36-.09.41-.19.79-.25,1.24-.15.85-.25,1.77-.32,2.7-.15,1.86-.21,3.77-.25,5.7-.09,3.87.02,7.79,0,11.75h-.09Z"/><path class="cls-4" d="m382.44,356.78c.43-1.52.83-3.05,1.13-4.57.16-.76.27-1.51.35-2.25l.08-.97c.01-.12.02-.23.02-.32.02-.3-.31-.58-.56-.4-.11.05-.21.13-.31.22-.05.05-.1.08-.16.16-.16.18-.31.36-.46.56-.61.77-1.19,1.61-1.74,2.47-1.1,1.73-2.12,3.54-3.08,5.39-.85,1.64-1.59,3.34-2.3,5.03-.46,1.08-.93,2.17-1.39,3.25l-.71,1.62c-.22.55-.6,1.03-.88,1.56-.39.64-.35.56-.35-.1,0-.33-.03-.81-.07-1.4,0-.57.11-1.21.29-1.88.33-1.18.68-2.35,1.05-3.51.39-1.16.84-2.29,1.3-3.42.93-2.26,1.97-4.49,3.21-6.65.74-1.29,1.47-2.62,2.32-3.96.1-.17.21-.34.33-.5l.46-.66.59-.74c.21-.22.44-.41.66-.61.89-.73,1.92-1.14,2.95-.65.51.29,1.06.58,1.35,1.09.08.13.16.24.23.38l.17.43c.05.14.12.28.16.43l.09.48c.15.61.12,1.33.15,1.89-.02.45-.04.9-.09,1.33-.18,1.74-.51,3.39-.88,5.02-.46,2.01-1.03,3.97-1.62,5.92-.89,2.96-1.94,5.87-2.94,8.76-.78,2.25-1.39,4.51-2.21,6.76-.18.49-.33.99-.54,1.48-.8,1.81-1.37,2.28-2.46,2.12-.24-.03-.5-.04-.71-.1-.71-.23-.93-1.22-.5-2.49,1.22-3.85,2.7-7.89,4.12-11.97,1.04-3.04,2.08-6.1,2.88-9.19l.09.02Z"/><path class="cls-4" d="m393.61,360.88c.27-.64.53-1.28.78-1.92l.09-.24c.03-.08.02-.04.03-.07l.04-.07.09-.16c.06-.12.12-.26.16-.43.05-.15.07-.42-.1-.44-.1-.04-.19,0-.29.05-.11.06-.23.18-.33.29-.1.11-.18.21-.37.41-.03.02-.28.32-.43.49l-.51.61-1.02,1.23c-.67.83-1.34,1.68-1.99,2.55-1.31,1.72-2.58,3.49-3.84,5.27-1.1,1.59-2.2,3.2-3.27,4.81-1.42,2.01-2.59,4.3-4.85,5.73-.73.41-.61.35-.45-.36.13-.75.17-2.17.84-3.39,1.28-2.15,2.56-4.29,3.85-6.44,1.35-2.12,2.83-4.19,4.4-6.23.94-1.21,1.83-2.5,2.75-3.8.46-.65.92-1.31,1.42-1.94l.38-.47.55-.65c.37-.45.82-.9,1.26-1.34.36-.38.74-.63,1.1-.94.36-.22.73-.49,1.07-.62.17-.07.34-.15.51-.21l.51-.13c.33-.03.67-.03,1.06.01.31.08.64.19.87.44.22.23.35.47.45.73.19.51.26,1.1.23,1.79-.03.69-.19,1.47-.4,2.26-.1.4-.23.79-.35,1.19l-.36,1.05c-.75,2.03-1.61,3.98-2.49,5.91-1.34,2.93-2.83,5.78-4.26,8.63-1.12,2.21-2.09,4.45-3.25,6.64-.26.48-.48.97-.78,1.44-1.1,1.74-1.74,2.14-2.69,1.96-.22-.04-.45-.06-.64-.14-.63-.28-.57-1.21.03-2.5,1.78-3.85,3.89-7.83,5.9-11.89,1.49-3.01,2.97-6.06,4.22-9.14l.08.03Z"/><path class="cls-4" d="m399.96,385.95l-.84.85-.48.46-.97.91-1.94,1.77c-1.29,1.17-2.56,2.32-3.81,3.5-.91.86-1.72,1.8-2.6,2.67-1.54,1.53-3.01,3.11-4.27,4.79-.61.84-1.17,1.71-1.6,2.6-.41.86-.73,1.86-1.01,2.91-.48,1.86-.75,3.81-1.01,5.73-.16,1.24-.27,2.48-.4,3.72l-.21,1.86c-.05.62-.29,1.24-.4,1.86-.19.77-.3.68-.66.02-.22-.42-.46-.9-.72-1.4-.24-.59-.37-1.27-.41-2.02-.08-2.62-.13-5.25.2-7.89.16-1.32.37-2.64.72-4.01.16-.68.43-1.41.77-2.1.33-.68.71-1.3,1.11-1.89,1.94-2.78,4-5.34,6.25-7.67,2.47-2.54,5.08-4.89,7.55-7.29l1.71-1.67c.38-.38.78-.8,1.13-1.28.2-.26.37-.55.5-.87.13-.31.15-.72-.09-.95-.26-.06-.51.08-.76.16-.25.1-.5.21-.76.33-.51.24-1.05.5-1.57.77l-.47.25-.83.42-1.7.85c-1.14.56-2.3,1.09-3.52,1.54-.54.2-1.06.41-1.62.56-2.1.54-2.89.31-3.42-.51-.12-.19-.27-.37-.34-.57-.24-.66.51-1.26,1.8-1.76,1.94-.75,3.89-1.65,5.87-2.64,1.27-.65,2.54-1.3,3.82-1.95,1.05-.55,2.14-1.15,3.19-1.61.54-.27,1.02-.43,1.49-.59.42-.1.85-.19,1.16-.18.28-.02.46.04.67.07.16.07.32.15.45.23l.92.54c.24.35.51.7.71,1.03.16.35.26.68.31,1.01.13.64.02,1.33-.18,2.09-.47,1.56-1.96,3.57-3.67,5.4l-.09-.04Z"/><path class="cls-4" d="m320.53,406.5c.46,3.76.94,7.52,1.55,11.25.21,1.37.54,2.71.77,4.07.78,4.81,1.68,9.6,2.69,14.38.43,2.12,1.04,4.21,1.58,6.29.72,2.66,1.48,5.32,2.08,8.03.18.85-.1.82-.62.22-.52-.6-1.34-1.75-1.97-3.23-2.19-5.26-3.84-10.71-5-16.32-.65-3.36-1.63-6.79-2.38-10.2-.81-3.76-1.51-7.54-2.16-11.33-.41-2.33-.75-4.67-1.11-7.01-.56-3.54-.99-7.11-1.58-10.62-.45-2.73-1.11-5.37-1.62-8.07-.12-.59-.27-1.17-.35-1.77-.31-2.23-.07-2.98.99-3.58.24-.14.48-.31.73-.4.84-.31,1.66.52,2.13,2.11.67,2.36,1.21,4.8,1.67,7.28.44,2.48.78,5.01,1.14,7.55.52,3.76.99,7.56,1.57,11.33l-.1.02Z"/><path class="cls-4" d="m194.96,373.82c-2.18,5.05-4.29,10.13-6.24,15.29-.7,1.88-1.35,3.79-2.03,5.68-1.22,3.33-2.44,6.66-3.59,10.01-1.19,3.34-2.32,6.71-3.42,10.08-.97,3-1.85,6.04-2.68,9.05-.54,1.93-1.04,3.88-1.63,5.81-.58,1.93-1.16,3.85-1.89,5.74-.45,1.18-.62.96-.69-.15-.06-1.11-.17-3.16.32-5.43.77-4.05,1.89-8.01,2.98-11.99,1.11-3.97,2.33-7.92,3.67-11.85,1.64-4.69,3.08-9.65,4.73-14.46,1.84-5.27,3.77-10.52,5.86-15.71,1.25-3.2,2.61-6.37,3.96-9.53,1.02-2.4,2.15-4.76,3.21-7.14,1.12-2.36,2.23-4.71,3.34-7.05.9-1.8,1.74-3.61,2.57-5.42.82-1.82,1.75-3.58,2.68-5.35.41-.78.77-1.57,1.25-2.32,1.73-2.81,2.51-3.56,3.7-3.62.27-.01.57-.07.8-.03.79.15.6,1.61-.43,3.74-.39.78-.79,1.57-1.18,2.36-.38.8-.76,1.61-1.14,2.42-.39.81-.76,1.63-1.18,2.42-.42.8-.84,1.6-1.22,2.43-.8,1.64-1.62,3.28-2.45,4.91-.79,1.66-1.59,3.33-2.39,5-1.21,2.47-2.3,5.01-3.48,7.52l-3.31,7.62-.09-.03Z"/><path class="cls-4" d="m289.62,107.98c.19.18,0,.53-.29.91-.09.12-.44.31-.54.28-.19-.06-.4-.11-.59-.17-.06-.02-.42-.25-.77-.56-.36-.3-.83-.6-1-.79-.38-.34-.66-.73-.92-1.14-.53-.83-1.08-1.64-1.58-2.49-.11-.19-.19-.39-.22-.61-.1-.77-.4-1.44-.79-2.09-.06-.11-.09-.23-.28-.29-.31-.09-1.15-1.94-1.14-2.22.02-.7-.05-1.36-.06-2.05,0-.1-.09-.17.06-.31.35-.32.21-.48.18-.68-.05-.27-.07-.56,0-.87.03-.15.24-.36.39-.54.14-.17.78-.29.86-.27.23.06.5-.13.76-.22.09-.03.2-.07.27-.09.08-.02.52.25.95.54.4.29.78.61.8.69,0,0,.06.14.15.34.09.19.21.45.34.72.26.53.53,1.08.6,1.18.08.11.03.27,0,.41-.01.07.85,1.61.87,1.68.07.36.33.64.14,1.12-.04.09,0,.16.04.22.28.56.35,1.21.49,1.83.07.32.22.6.33.91.02.05,0,.13,0,.19,0,.08,0,.17.02.23.3.7.45,1.48.86,2.12.12.13.05,1.12.17,1.29.04.11-.15.64-.08.71Z"/><path class="cls-4" d="m296.72,110.87c-.07.34-.57.2-1.27-.15-.22-.1-.69-.54-.73-.7-.09-.31-.11-.56-.13-.81-.02-.16.71-1.77.92-2.38.2-.59.57-1.01.94-1.44.76-.85,1.5-1.74,2.3-2.56.18-.18.39-.33.63-.43.84-.36,1.49-.93,2.07-1.59.1-.11.23-.18.22-.42-.02-.4,1.78-1.97,2.11-2.03.79-.21,1.58-.4,2.37-.58.11-.03.17-.15.38-.01.48.32.63.12.84.03.29-.14.62-.22,1.02-.19.19.01.48.19.73.3.23.11.53.74.53.83,0,.27.27.5.44.74.06.08.13.19.17.26.04.07-.11.68-.26,1.3-.19.56-.4,1.11-.48,1.15,0,0-.13.12-.31.29-.18.18-.41.41-.65.65-.46.51-1.01.92-1.08,1.06-.09.12-.29.1-.46.12-.09,0-1.49,1.44-1.56,1.47-.38.19-.6.56-1.2.47-.12-.02-.17.05-.24.1-.53.47-1.21.77-1.84,1.14-.32.18-.57.46-.86.68-.05.04-.14.04-.21.06-.09.03-.19.04-.25.1-.64.58-1.43,1.02-1.99,1.7-.14.14-1.19.46-1.32.66-.08.1-.81,0-.83.15Z"/><path class="cls-4" d="m258.71,179.47c.14.95-.12,1.94-.57,2.76-.48.8-.98,1.23-1.61,1.65-.45.29-.94.58-1.53.67-2.17.32-3.75-1.27-4.2-2.76-.22-.67-.33-1.34-.32-2.02.01-.44.05-.89.24-1.32.2-.42.54-.82.99-1.02.3-.11.36.18.41.53.03.37.23.77.25,1.02-.03.45-.01,1.01.15,1.52.15.51.37.92.65,1.27.18.22.47.33.72.36.26.02.46-.03.7-.13.26-.1.54-.31.78-.57.22-.28.32-.39.41-.64.08-.24.1-.54-.05-.79-.02-.04-.05-.09-.08-.12-.33-.39-.97-.52-1.47-.15-.46.31-.61.92-.53,1.27.01.08.08.14.1.17.06.07-.21-.03-1.04.47-.19.11-.37.24-.55.36-.31.2-.63.32-.96.25-.32-.07-.65-.35-.79-.8-.22-.67-.16-1.34,0-1.92.17-.58.45-1.09.83-1.54.41-.47.79-.78,1.3-1.07.13-.07.26-.14.39-.2.16-.08.32-.12.49-.18.33-.11.66-.18,1-.22,1.4-.13,2.82.44,3.63,1.52.35.48.58,1.03.71,1.61l-.07.03Z"/><path class="cls-4" d="m283.98,188.1c-.5.7-1.19,1.16-1.87,1.5-.71.28-1.51.36-2.21.09-.25-.11-.5-.17-.72-.33-.11-.07-.22-.15-.33-.21-.1-.08-.2-.19-.28-.29-.59-.77-.9-1.79-.72-2.82.03-.25.09-.49.15-.72l.15-.47c.1-.3.21-.61.34-.92.24-.54.5-1.1.95-1.57.29-.29.61-.57,1.03-.68.42-.09.86-.03,1.22.14.22.13.15.18-.04.31-.2.12-.44.5-.56.78-.03.06-.06.13-.08.17l-.1.11c-.07.08-.12.16-.17.25-.09.16-.17.37-.26.58-.08.22-.15.47-.22.74-.07.25-.15.63-.22.81-.21.23-.08.55.09.76.04.06.1.12.17.17.24.17.57.12.82-.08.1-.08.2-.17.28-.28.04-.06.08-.12.11-.18.03-.08.07-.18.09-.28.15-.58.09-1.1-.22-1.22-.12-.06-.29-.03-.39.06-.1.09-.1.21-.1.31,0,.04.03.11.04.13.02.05-.02,0-.22-.08-.18-.08-.48-.18-.93-.3-.21-.05-.41-.09-.62-.13-.34-.07-.64-.2-.85-.46-.2-.25-.31-.63-.19-1.04.21-.56.61-1.08,1.17-1.45.55-.38,1.31-.59,2.02-.57.71.02,1.4.23,2.01.63.62.4,1.14,1.03,1.42,1.66.44.97.44,1.9.29,2.66-.08.39-.18.73-.32,1.08-.18.41-.38.81-.63,1.17l-.07-.04Z"/><path class="cls-4" d="m264.72,228.32c-.4,1.06-.54,2.22-.31,3.34.34,1.66,2.12,3.31,3.85,2.3,1.27-.75,1.47-2.6,1.6-3.93.12-1.18,0-2.39-.26-3.54-.22-.96-1.37-1.61-2.31-1.31-1,.32-1.54,1.28-1.31,2.31.07.29.12.58.16.87l-.07-.5c.1.82.1,1.64,0,2.46l.07-.5c-.08.56-.19,1.14-.39,1.68l.19-.45c-.03.07-.06.13-.1.19l.29-.38s-.06.07-.09.1l.38-.29s-.07.05-.11.07l.45-.19-.07.02.5-.07h-.07c.17.03.33.05.5.07-.05,0-.1-.02-.14-.04l.45.19s-.09-.05-.13-.08l.38.29c-.1-.08-.18-.18-.26-.28l.29.38c-.09-.12-.16-.25-.22-.39l.19.45c-.08-.19-.13-.38-.16-.58l.07.5c-.04-.32-.03-.63,0-.94l-.07.5c.06-.43.18-.84.33-1.25.16-.43.04-1.06-.19-1.44s-.67-.76-1.12-.86c-.48-.11-1.02-.09-1.44.19s-.68.64-.86,1.12h0Z"/><path class="cls-4" d="m62.56,255.61c-.07.18-.09.4-.08.58.01.09.02.18.05.24,0,.07.12.2.17.32.28.33.32.46.9.4.4-.08.85-.41,1.3-.74.4-.3.79-.66,1.11-1.07.33-.41.48-.76.68-1.28.3-1.03.4-2.24.22-3.38-.15-1.02-.6-1.98-1.25-2.6-.09-.11-.21-.2-.32-.27-.11-.08-.21-.18-.33-.26-.25-.09-.47-.28-.76-.32-.53-.16-1.19-.33-1.91-.32-.45-.03-.49-.21-.19-.63.15-.21.38-.51.73-.82.18-.13.39-.27.64-.39.12-.07.25-.11.38-.19.13-.03.28-.03.43-.03.26,0,.53.01.8.03.27.04.53.12.8.2l.41.12.37.19c.24.14.52.25.72.44.82.73,1.41,1.6,1.79,2.48.76,1.78.9,3.62.56,5.41-.13.54-.25,1.08-.45,1.64-.19.56-.48,1.15-.78,1.62-.63.95-1.37,1.81-2.37,2.46-.54.36-1.17.65-1.88.82-.7.18-1.56.16-2.32-.11-.4-.12-.72-.35-1.05-.56-.27-.25-.59-.49-.77-.77-.44-.49-.82-1.26-.94-1.95-.17-.87-.09-1.75.22-2.57.31-.81.92-1.59,1.74-2.02.3-.14.6-.27.91-.39.34-.07.68-.11,1.02-.14.33.03.67.08.99.14l.86.34c1.05.55,1.79,1.27,2.54,1.92,1.13,1.01,2.3,1.93,3.4,2.48.24.1.48.22.69.27.76.26.8.42,1.1,1.31.07.2.15.39.22.59.11.33.06.63-.22.89-.14.13-.34.25-.59.35-.25.1-.53.08-.86.06-.51-.02-.89-.18-1.35-.31-.4-.16-.79-.34-1.16-.54-.7-.4-1.33-.87-1.88-1.32-1.1-.92-2.09-1.85-2.9-2.4-.14-.08-.27-.14-.4-.22-.11-.05-.19-.05-.27-.11-.05.02-.08,0-.12-.02-.02.04-.03,0-.08.01-.05.04-.13.06-.17.07-.02,0-.04.02-.06.04-.05.05-.15.17-.2.34h-.08Z"/><path class="cls-4" d="m67.46,265.81c-1.18-.08-2.36-.16-3.54-.2-.43-.02-.86.06-1.29.04-1.52-.07-3.06-.24-4.58-.25-.68-.03-1.35.09-2.02.11-.85.13-1.73.06-2.62-.18-.28-.08-.27-.35-.08-.73.19-.37.55-.95,1.03-1.22,1.71-.82,3.52-.72,5.33-.58,1.09.12,2.19-.11,3.29-.1,1.21,0,2.42.04,3.63.08l2.23.08c1.12.03,2.25.11,3.37.06.87-.03,1.72-.25,2.58-.38.19-.03.38-.08.57-.08.71-.02.93.2,1.06,1.02.03.19.07.37.08.56.05.63-.25,1.14-.76,1.34-1.52.59-3.11.59-4.7.6-1.18,0-2.37-.07-3.56-.09v-.08Z"/><path class="cls-4" d="m92.47,267.48c-.26.87-.86,1.36-1.41,1.64-.2.1-.39.23-.61.28-.77.15-1.61,0-2.2-.6-.26-.28-.42-.63-.46-.96-.03-.22-.02-.44.06-.67.08-.22.28-.43.52-.49.16-.04.23.24.35.51.06.13.15.27.23.34.01.01.05.04.1.06.09.04.2.04.21.04.02,0-.05,0-.12.05-.01,0-.03.02-.05.03l-.02.02h0s.17-.17.17-.17c0,0,.02-.02.04-.05-.01.02,0,.06.03.11.11.14.3,0,.44-.08.18-.08.33-.2.4-.3.04-.07.07-.11.06-.2,0-.13-.09-.22-.09-.2-.01.07-.01.11,0,.18,0,.03,0,0-.05-.06-.02-.03-.05-.05-.08-.07-.05-.04-.09-.05-.09-.05h-.01s0,0,0,0c-.07,0-.15-.02-.24-.03-.17-.02-.35-.02-.53-.03-.58.02-1.12-.22-1.06-.79.09-.8.69-1.38,1.38-1.6.35-.11.76-.15,1.19-.06.45.1.8.3,1.09.54.85.78.99,1.75.81,2.64h-.06Z"/><path class="cls-4" d="m91.32,255.68c-.46.22-.97.33-1.5.3-.55-.04-1.04-.24-1.42-.52-.27-.2-.55-.39-.72-.66-.58-.95-.5-2.13-.05-2.91.21-.34.43-.65.68-.9.32-.33.71-.61,1.18-.64.15,0,.2.2.21.46,0,.25.02.59-.06.74-.16.27-.25.54-.29.76-.02.22-.1.37-.18.53-.1.25.19.44.29.58.07.09.13.15.21.2.05.04.14.07.25.06.14-.01.31-.09.41-.19.15-.17.21-.3.08-.43-.12-.11-.41-.03-.45.09,0,0,0,.05,0,.03v-.08c-.03-.09-.05-.1-.05-.11-.02-.03-.05-.07-.09-.12-.07-.08-.16-.18-.28-.29-.1-.1-.22-.2-.33-.29-.37-.29-.57-.78-.14-1.2.65-.53,1.54-.57,2.22-.29.69.26,1.39.9,1.61,1.9.14.72-.04,1.4-.36,1.91-.32.51-.73.87-1.19,1.12l-.03-.05Z"/><path class="cls-4" d="m67.03,274.3c1.06-.07,2.18-.03,3.37.33,1.17.32,2.49,1.26,3.11,2.56.49.93.63,1.86.6,2.71-.13,1.33-.5,2.78-1.48,3.97-.99,1.2-2.43,1.7-3.64,1.89-1.1.16-2.16.25-3.18.18-1.31-.11-2.59-.3-3.78-.85-.35-.32-.28-.39.11-.75.39-.34,1.05-.75,1.75-.84,1.25-.13,2.43-.38,3.49-.4,1.06-.11,1.95-.31,2.57-.69.4-.22.62-.68.74-1.22l.07-.42v-.47c.04-.34-.03-.57-.03-.83-.1-.51-.25-.79-.61-1.05-.37-.24-.99-.48-1.7-.53-.43-.05-.89-.03-1.35.01-.26.02-.38.04-.84.14-.39.08-.77.24-1.15.36l-.16.05c-.55.19-1.13.4-1.46.34-.21,0-.37.01-.51.02l-.22.02c-.1-.02-.14-.15-.18-.22-.16-.34-.24-.75-.31-1.22-.07-.47-.01-1.05,0-1.59.06-1.99-.1-2.94-.19-4.22-.02-.27-.07-.53-.08-.8,0-.25,0-.45.04-.62.05-.17.14-.3.24-.41.2-.22.51-.34.95-.44.2-.05.38-.11.56-.14.57-.11,1.25.34,1.54,1.13.26,1.15.35,2.3.36,3.45-.01.82.04.51.06.57.02,0,.03-.01.03-.01,0,0-.03.03-.01.08.01,0,0,.01.04.02h.01s.08-.02.08-.02l.16-.03c.11-.03.22-.04.33-.06l.67-.09v.09Z"/><path class="cls-4" d="m92.7,261.45c-.76-.09-1.52-.18-2.28-.27-.28-.03-.55.01-.83-.02-.97-.14-1.94-.38-2.91-.51-.43-.06-.86-.06-1.28-.09-.55-.01-1.1.02-1.64-.28-.17-.08-.14-.35.01-.66.15-.3.42-.75.74-.84,1.11-.25,2.2-.29,3.32-.06.67.13,1.36-.03,2.04,0,.75.03,1.5.06,2.25.1.46.02.92.04,1.38.04.7,0,1.4.04,2.09-.05.54-.07,1.05-.32,1.57-.48.11-.04.22-.1.34-.12.43-.09.58.1.74.86.04.17.08.35.1.52.09.6-.05,1.1-.37,1.3-.93.59-1.95.7-2.98.71-.76.01-1.53-.05-2.3-.08v-.07Z"/><path class="cls-4" d="m194.58,390.33c.2-.56.79-1.25,1.43-1.89.65-.65,1.32-1.28,1.98-1.88l.4-.35.28-.24.57-.48.87-.74.97-.8c.93-.76,1.89-1.37,2.49-1.2l.27.02s.1.03.17,0c.05.02.07.06.11.07l.43.72c.08.14.16.24.23.42.07.16.15.31.16.57.1.95.06,2.07.02,2.99l-.12,3.68c-.02,1.11,0,2.22.05,3.32.09,1.41.02,2.82-.08,4.24-.04.44-.23.41-.53.06-.29-.35-.75-1-.98-1.81l-.27-1.08-.13-.54-.07-.54c-.09-.72-.16-1.45-.22-2.17-.11-1.45-.14-2.9-.1-4.35.02-.24.04-.31.06-.43.01-.11.02-.22.02-.33,0-.22,0-.45-.06-.63.01-.08-.04-.07-.07-.05l-.09.06-.17.11-.38.26-.21.15-.11.08-.27.24-.54.48-.27.24-.12.1-.52.43c-.22.19-.46.4-.7.63-.12.12-.25.24-.34.38-.03.05.02.06.05.06l.1.02.2.04.65.1c.34.05.71.09,1.1.12.13.01.58.03.89.04h1.01c1.4,0,2.77-.24,4.17-.38.31-.03.61-.1.92-.1,1.15-.01,1.52.22,1.76,1.05.05.19.12.38.15.56.1.63-.37,1.15-1.21,1.37-1.24.34-2.5.47-3.81.57-.65.04-1.32.07-1.99.07h-1.01s-1.18-.04-1.18-.04c-1.45-.06-2.89-.17-4.27-.32-.59-.07-.82-.32-1.12-.52-.38-.2-.39-.42-.54-.64-.06-.11-.13-.2-.18-.38-.04-.14-.06-.27-.07-.41-.03-.27.02-.58.13-.94l.11-.02Z"/><path class="cls-4" d="m175.52,399.67c-.25.84-.82,1.32-1.36,1.59-.2.1-.38.23-.59.27-.75.15-1.58.02-2.15-.57-.26-.27-.41-.62-.45-.94-.07-.39.05-.98.53-1.11.15-.04.25.19.4.45.14.26.37.45.38.44.03,0,.07.01.1.01.06,0,0,0-.08.05-.01,0-.03.02-.05.03l-.02.02h0s.17-.17.17-.17c0,0,0,0,0,0,0,.02.01.07.05.12.12.13.33,0,.48-.09.19-.09.35-.21.42-.34.05-.07.08-.13.06-.24-.01-.14-.11-.27-.14-.21,0,.02-.03.08-.01.15.03.11.02.03-.03-.01-.02-.03-.05-.05-.08-.07-.05-.04-.09-.05-.09-.05h-.01s.03,0-.02,0c-.07,0-.15-.02-.24-.03-.16-.02-.33-.02-.49-.02-.55.02-1.05-.21-.99-.76.09-.77.66-1.31,1.33-1.53.34-.11.73-.14,1.14-.06.43.09.76.28,1.04.52.81.74.96,1.68.78,2.54h-.05Z"/><path class="cls-4" d="m174.43,387.78c-.91.47-2,.39-2.78-.14-.28-.19-.57-.38-.77-.67-.33-.51-.41-1-.43-1.5,0-.5.13-.99.34-1.37.2-.34.42-.64.67-.89.31-.33.7-.6,1.16-.64.14-.01.19.18.2.43,0,.24,0,.56-.09.71-.37.55-.32,1.02-.5,1.33-.04.12,0,.25.07.36.04.05.08.1.12.14l.07.1c.09.16.3.31.55.29.15-.01.32-.07.44-.2.18-.2.22-.35.08-.5-.13-.12-.42-.05-.48.05-.02.01,0,.11-.02.02-.02-.09-.04-.1-.04-.11-.02-.04-.17-.23-.38-.42-.1-.1-.21-.18-.31-.27-.35-.27-.53-.74-.12-1.14.63-.51,1.48-.54,2.15-.27.67.26,1.34.87,1.55,1.83.13.69-.04,1.35-.34,1.84-.27.44-.67.82-1.12,1.07l-.03-.05Z"/><path class="cls-4" d="m175.84,393.54c-.76-.08-1.52-.17-2.27-.25-.28-.03-.55.01-.83-.02-.97-.13-1.94-.35-2.91-.48-.43-.06-.86-.06-1.28-.08-.55-.01-1.1.01-1.64-.26-.17-.08-.14-.33.01-.62.15-.28.42-.7.74-.79,1.11-.23,2.21-.27,3.32-.06.67.13,1.36-.03,2.04,0,.75.03,1.5.06,2.25.09.46.02.92.04,1.39.04.7,0,1.4.03,2.09-.06.54-.07,1.05-.3,1.57-.46.11-.04.23-.1.34-.12.43-.08.58.09.73.81.03.16.08.33.1.49.09.56-.06,1.03-.37,1.22-.93.56-1.95.66-2.98.68-.76.02-1.53-.04-2.3-.07v-.06Z"/><path class="cls-4" d="m216.57,394.64c-.26-1.13-.38-2.3-.42-3.49-.03-1.21.11-2.38.29-3.47.13-.81.21-1.61.42-2.39.78-2.73,1.86-5.36,3.32-7.8.66-1.07,1.32-2.18,2.22-3.12.57-.6,1.21-1.18,1.96-1.61.77-.41,1.66-.6,2.52-.56.54.04.45.33.12.75-.35.4-.8,1.08-1.28,1.59-.48.39-.93.84-1.33,1.37-.39.53-.78,1.08-1.18,1.66-.77,1.17-1.45,2.47-2.11,3.82-.8,1.62-1.11,3.52-1.47,5.31-.2.99-.37,1.99-.44,2.97-.07.96-.03,1.92.12,2.9.18,1.2.47,2.42.93,3.57.66,1.76,1.54,3.48,2.75,4.9.93,1.12,2.11,1.96,3.29,2.66.25.17.53.28.8.43.48.29.78.5.95.74.16.25.18.56.12,1-.03.2-.04.41-.08.6-.15.65-.84.9-1.85.61-1.43-.5-2.8-1.32-3.99-2.35-1.18-1.04-2.17-2.3-3.02-3.63-1.24-1.99-2.15-4.17-2.69-6.45l.07-.02Z"/><path class="cls-4" d="m240.6,393.41c-.05-.21-.56-.7-1.29-1.02-.71-.33-1.56-.59-2.43-.78-.32-.06-.65-.1-.98-.13l-.49-.04h-.03s0,0,0,0h-.03c-.18-.02-.45-.07-.76-.27-.31-.19-.6-.57-.69-.92-.1-.35-.08-.61-.05-.79.01-.07.03-.12.04-.18.03-.11.08-.22.13-.32l.08-.14.02-.03.08-.11c.09-.11.13-.16.18-.21.09-.1.16-.17.24-.24.25-.23.48-.42.71-.62l.33-.27.12-.07.56-.34.84-.52c.14-.08.43-.24.21-.25-.1-.03-.22-.05-.34-.08-.42-.07-1.06-.05-1.57-.02l-.26.02-.54-.02c-.36-.01-.72-.03-1.07-.06-.72-.06-1.44-.17-2.16-.47-.46-.19-.3-.59.12-1.04.42-.45,1.11-1.07,1.9-1.12l2.43-.2c.74-.02,1.5-.02,2.25-.01.74.02,1.56-.01,2.2.08.67.09.97.34,1.26.54.28.2.4.43.46.64.03.12.05.19.09.37.01.13,0,.18-.04.31-.06.23-.25.53-.39.87-.15.31-.51.71-1.06,1.1-1.06.8-1.95,1.58-2.83,2.42l-.79.76-.31.32-.02.02h0s0,0,0,0l-.06-.05-.13-.1c-.2-.15-.26-.22-.4-.33-.12-.09-.26-.18-.38-.26-.05-.07-.17-.1-.21-.11,0,0-.01-.01-.01,0h0c.22-2.93.06-.81.11-1.46h0s0,0,0,0h.02s.04,0,.04,0l.29.03c1.03.12,2.06.31,3.1.6,1.03.3,2.08.67,3.1,1.4.61.45,1.24,1.08,1.55,1.95.14.44.23.89.2,1.32,0,.24-.02.4-.04.56-.01.16-.05.35-.08.53-.11.55-.3,1.13-.64,1.67-.36.52-.83,1-1.37,1.27-1.06.6-2.13.7-3.13.79-1.55.08-3.04.14-4.5-.04-.32-.04-.64-.05-.96-.11-1.16-.3-1.44-.69-1.44-1.59,0-.21-.02-.41,0-.61.08-.66.69-1.09,1.54-1.16,1.26-.06,2.46-.06,3.6.03,1.11.05,2.24.03,2.85-.16.2-.08.35-.12.39-.17.06-.04.12-.05.2-.23.04-.09.08-.18.11-.34.02-.07.03-.14.05-.24.01-.1.03-.2.02-.19.04-.09.03-.05.03-.14l.07-.05Z"/><path class="cls-4" d="m273.31,176.97c.68,3.84.62,7.71-.06,11.47-.29,1.36-.51,2.74-1.01,4.07-1.73,4.65-4.6,8.59-7.87,11.98-1.45,1.51-2.98,2.96-4.57,4.28-2.05,1.67-4.23,3.36-6.88,4.02-.88.07-.8-.04-.41-.79.4-.73,1.12-1.94,2.23-2.82,4.06-3.01,7.6-6.65,10.65-10.72,1.85-2.43,3.02-5.42,3.75-8.35.76-3.27,1.07-6.71.7-10.11-.24-2.08-.65-4.16-1.44-6.1-1.13-2.94-2.89-5.7-5.32-7.66-.89-.83-2.02-1.32-3.04-1.9-.56-.22-1.12-.41-1.68-.61l-.83-.3-.87-.19c-.51-.12-1.02-.19-1.51-.35-.45-.16-.87-.2-1.19-.32-.32-.12-.57-.29-.78-.45-.41-.33-.62-.71-.77-1.21-.07-.23-.17-.46-.21-.67-.12-.69.82-1.19,2.54-1.35,1.26-.06,2.51.26,3.77.54.64.11,1.24.41,1.86.64.61.26,1.25.47,1.84.8,2.37,1.28,4.56,3.05,6.3,5.2,2.61,3.18,4.12,7.05,4.89,10.89l-.09.03Z"/><path class="cls-4" d="m185.34,209.37c.97-2.26,1.71-4.62,1.63-6.73,0-.27-.03-.52-.07-.77-.03-.26-.07-.51-.15-.74-.11-.51-.28-.87-.56-1.37-.55-.97-1.33-2-2.12-3.01-1.16-1.48-2.49-2.89-3.69-4.42-.83-1.07-1.62-2.02-2.46-3.29-.78-1.22-1.38-2.5-1.89-3.77-.26-.63-.49-1.27-.72-1.89l-.62-1.75c-.1-.28-.16-.5-.31-.75-.07-.11-.17-.24-.31-.23-.13,0-.24.1-.37.14-.14.08-.28.17-.4.29-.07.05-.12.12-.18.18-.06.05-.12.14-.21.28-.35.5-.63,1.08-.81,1.71-.71,2.5-.11,5.47,1.02,7.98.75,1.63,1.76,3.13,2.88,4.52,1.16,1.37,2.45,2.57,3.86,3.76.37.51.54.78.48.86-.06.09-.35.05-.99.15-.64.09-1.44-.04-2.42-.31-.47-.16-1-.33-1.49-.62-.5-.28-.97-.65-1.43-1.07-2.79-2.55-4.58-6.01-5.37-9.75-.37-1.88-.49-3.88,0-5.94.25-1.02.67-2.05,1.3-2.98.18-.23.28-.44.57-.74.27-.28.53-.58.82-.83l.9-.68.94-.51c.42-.11.84-.24,1.26-.27.43,0,.89.17,1.23.39.7.46,1.22,1.29,1.61,2.22.09.24.21.49.28.71l.21.57.29.86c.19.56.39,1.11.6,1.65.42,1.08.89,2.12,1.45,3.08.55.97,1.2,1.77,1.99,2.73.77.92,1.54,1.85,2.31,2.77.85,1.02,1.71,2.05,2.55,3.11.84,1.08,1.68,2.16,2.41,3.51.77,1.43,1.07,3.01,1.07,4.52,0,1.51-.26,2.94-.61,4.31-.94,3.36-2.48,6.35-4.06,9.26-2.41,4.41-5.18,8.56-7.59,12.82-1.88,3.31-3.46,6.69-4.79,10.12-.29.76-.53,1.51-.8,2.27-.94,2.84-1.48,3.63-2.45,4.1-.22.1-.46.26-.66.31-.35.08-.58-.21-.71-.84-.13-.63-.14-1.59.06-2.78.77-3.47,2.14-6.83,3.71-10.07,1.59-3.24,3.4-6.36,5.21-9.45,2.65-4.59,5.56-9.04,7.48-13.67l.09.03Z"/><path class="cls-4" d="m107.55,338.97c.3-7.6,1.34-15.11,2.73-22.52,1.42-7.41,3.22-14.74,5.47-21.93,1.61-5.26,3.37-10.48,5.47-15.57,3.74-8.94,8.1-17.74,14.31-25.47.77-.96,1.65-1.86,2.47-2.8l1.36-1.3c.48-.44.84-.85,1.52-1.33,1.25-.86,2.57-1.3,3.87-1.6,1.3-.29,2.59-.41,3.87-.44,2.56-.06,5.07.26,7.51.83,2.45.56,4.83,1.43,7.08,2.62,1.98,1.09,3.91,2.42,5.4,4.33.76.94,1.34,2.07,1.72,3.14.11.27.22.54.32.81l.23.81c.15.54.33,1.08.45,1.62.98,4.32,1.3,8.64,1.38,12.92l.04,2.06-.03,2.06c0,1.38-.07,2.75-.13,4.12-.16,2.74-.47,5.48-.83,8.2-.76,5.44-1.92,10.83-3.71,16.01-1.31,3.17-1.17,2.7-.83-.17.04-.36.08-.76.15-1.18.04-.43.09-.9.14-1.39.1-.99.25-2.1.33-3.32.1-1.22.23-2.54.32-3.94.06-.7.12-1.42.18-2.15.05-.74.11-1.49.16-2.26.24-2.72.34-5.45.4-8.18.02-1.36.04-2.72.08-4.08,0-1.36,0-2.72-.03-4.07-.09-2.7-.21-5.41-.53-8.05-.29-2.63-.65-5.3-1.42-7.63-.19-.57-.43-1.08-.63-1.63-.23-.44-.48-.87-.81-1.29-.66-.84-1.52-1.61-2.51-2.29-1.98-1.37-4.37-2.35-6.84-3.07-2.47-.7-5.07-1.11-7.59-1.09-1.26.01-2.51.12-3.63.42-.57.13-1.08.34-1.55.55-.47.26-.75.43-1.29.95-2.39,2.03-4.47,4.59-6.4,7.27-1.96,2.67-3.63,5.59-5.26,8.54-3.16,5.97-5.82,12.27-8.17,18.62-2.59,6.98-4.73,14.14-6.5,21.39-1.75,7.25-3.15,14.6-3.99,22.01-.53,4.56-.82,9.14-.87,13.71-.05,4.57.22,9.15.98,13.61.61,3.37,1.41,6.72,2.8,9.81,1.38,3.07,3.3,5.88,5.89,7.95,2.56,2.1,5.78,3.25,9.09,3.69,3.32.44,6.74.2,10.09-.4,2.6-.47,5.17-1.13,7.69-1.96,2.52-.8,4.99-1.75,7.44-2.77,4.89-2.03,9.64-4.36,14.43-6.72,2.11-1.04,4.15-2.11,6.3-3.14,7.94-3.87,11.01-4.4,13.11-3.94.48.12,1.09.22,1.36.38.46.29-.16.7-1.55,1.34-1.42.67-3.63,1.72-6.46,3.06-8.51,4.07-17.18,8.85-26.6,12.58-4.72,1.84-9.6,3.52-14.78,4.49-2.58.51-5.26.75-7.98.75-2.72.02-5.52-.43-8.2-1.33-2.02-.62-3.89-1.71-5.64-2.92-.82-.67-1.66-1.35-2.4-2.1l-1.06-1.18-.53-.59-.45-.64c-2.5-3.39-4.03-7.22-5.04-11.04-.99-3.84-1.53-7.72-1.85-11.59-.23-3.87-.33-7.73-.15-11.56l.09-.02Z"/><path class="cls-4" d="m142.43,200.97c1-1.63,2.09-3.17,3.46-4.61.69-.72,1.41-1.42,2.37-2.07.25-.16.49-.31.8-.47.35-.17.73-.32,1.11-.41.38-.09.78-.13,1.17-.11.39.04.77.15,1.14.29l.87.42.7.37c1.4.77,2.79,1.6,4,2.66,2.13,1.86,3.94,4.12,5.1,6.78.57,1.33.98,2.77.98,4.36,0,.79-.14,1.63-.53,2.45-.38.81-1.07,1.55-1.91,1.94-.74.4-1.83.46-2.61.13-.78-.31-1.32-.76-1.8-1.18-.96-.85-1.68-1.73-2.48-2.49-1-.97-2.08-1.74-3.2-2.07-1.1-.38-2.36-.39-3.76-.13-.86.17-.91-.06-.38-.82.27-.38.71-.88,1.39-1.39.69-.46,1.71-.81,2.87-.74,2.06.24,3.72,1.42,4.97,2.5,1.25,1.1,2.31,2.31,3.11,2.98.19.15.35.24.41.28.02,0,.04-.02,0,.13v.08s0-.02,0-.02c0-.02,0,.03-.01-.08-.02-.1-.02-.07-.02-.07.01,0,.03-.01.04-.02.03,0,.09-.05.14-.06.08-.06.17-.12.25-.23.35-.44.46-1.7.15-2.92-.35-1.49-1.2-2.99-2.29-4.29-1.09-1.3-2.4-2.45-3.81-3.43-.52-.38-1.08-.72-1.64-1.05-.28-.17-.57-.31-.86-.47-.14-.08-.29-.15-.44-.22l-.32-.15c-.22-.15-.5-.1-.73.02-.39.19-.86.55-1.29.95-.88.8-1.69,1.8-2.46,2.82-.71.96-1.38,1.98-1.98,3.02-.3.52-.58,1.05-.83,1.59l-.18.4-.11.31c-.05.21-.11.43-.12.68-.09,1.48.58,3.25,1.38,4.87.82,1.64,1.82,3.23,2.88,4.77,1.65,2.41,3.53,4.59,5.23,7.04.37.54.76,1.06,1.1,1.65,1.16,2.24,1.14,3.27.55,3.97-.14.16-.26.35-.41.45-.52.3-1.11-.42-2.08-1.73-2.83-3.97-6.43-8.1-9.43-13.03-.55-.92-1.08-1.89-1.55-2.94-.46-1.05-.88-2.18-1.1-3.5-.11-.66-.15-1.39-.07-2.15.07-.39.1-.78.24-1.18l.2-.58.17-.4c.47-1.05.98-2.02,1.54-2.97l.08.04Z"/><path class="cls-4" d="m422.86,144.89c.41-1.05,1.28-2.02,2.47-2.81l.92-.54.45-.23.27-.13c.34-.16.65-.32.94-.47.41-.23.67-.53.9-.73.17-.19.35-.37.42-.65.09-.28.12-.61.12-.89,0-.55-.47-1.12-1.22-1.47-.67-.31-1.49-.38-2.28-.32-.51.02-1,.18-1.49.28-.49.11-1.01.2-1.47.42-.3.11-.44-.04-.39-.47.03-.21.11-.51.28-.8.16-.31.41-.61.74-.83.58-.42,1.26-.55,1.92-.7.67-.13,1.36-.18,2.07-.12.71.05,1.44.22,2.15.58.72.32,1.41.97,1.84,1.74l.33.74c.07.25.12.51.18.76.07.26.03.5.05.74,0,.25.02.49-.04.74-.11,1.02-.67,2.04-1.34,2.67-.74.7-1.51,1.13-2.19,1.52-.21.12-.22.11-.31.16l-.23.11c-.16.08-.32.17-.48.28-.17.12-.35.27-.49.46-.16.2-.4.57-.13.73.29.2.64.28,1.02.36.19.03.39.06.6.07h.34s.53.01.53.01c1.1-.03,2.17-.3,3.24-.51.24-.05.46-.14.71-.12.89-.02,1.2.33,1.46,1.04.06.17.13.33.18.48.14.52-.18,1.07-.84,1.5-.98.59-2.04.7-3.11.85-.54.06-1.09.09-1.64.1h-.42s-.54-.01-.54-.01c-.52-.02-1.04-.06-1.55-.12-1.43-.15-2.72-.55-3.41-1.21-.35-.34-.62-.7-.8-1.24-.09-.27-.09-.52-.08-.78v-.38s.08-.38.08-.38l.15-.39h.09Z"/><path class="cls-4" d="m411.76,133.01s2.9-.13,2.65.63-.53,5.05-.53,5.05c0,0,5.06.09,5.07.65s.58,3.65-.98,3.38c-1.55-.27-4.24,0-4.24,0,0,0,.4,4.63.43,5.08s-1.28,1.28-2.41.29c-1.13-.99-.87-5.93-.87-5.93,0,0-5.1.42-5.24-.68-.14-1.11-.11-1.78.45-2.39s4.95-.4,4.95-.4l.71-5.67Z"/><path class="cls-4" d="m376.48,221.88c-.07.18-.09.4-.08.58.01.09.02.18.05.24,0,.07.12.2.17.32.28.33.32.46.9.4.4-.08.85-.41,1.3-.74.4-.3.79-.66,1.11-1.07.33-.41.48-.76.68-1.28.3-1.03.4-2.24.22-3.38-.15-1.02-.6-1.98-1.25-2.6-.09-.11-.21-.2-.32-.27-.11-.08-.21-.18-.33-.26-.25-.09-.47-.28-.76-.32-.53-.16-1.19-.33-1.92-.32-.45-.03-.49-.21-.19-.63.15-.21.38-.51.73-.82.18-.13.39-.27.64-.39.12-.07.25-.11.38-.19.13-.03.28-.03.43-.03.26,0,.53.01.8.03.27.04.53.12.8.2l.41.12.37.19c.24.14.52.25.72.44.82.73,1.41,1.6,1.79,2.48.76,1.78.9,3.62.56,5.41-.13.54-.25,1.08-.45,1.64-.19.56-.48,1.15-.78,1.62-.63.95-1.37,1.81-2.37,2.46-.54.36-1.17.65-1.88.82-.7.18-1.56.16-2.32-.11-.4-.12-.72-.35-1.05-.56-.27-.25-.59-.49-.77-.77-.44-.49-.82-1.26-.94-1.95-.17-.87-.09-1.75.22-2.57.31-.81.92-1.59,1.74-2.02.3-.14.6-.27.91-.39.34-.07.68-.11,1.02-.14.33.03.67.08.99.14l.86.34c1.05.55,1.79,1.27,2.54,1.91,1.13,1.01,2.3,1.93,3.4,2.48.24.1.48.22.69.27.76.26.8.42,1.1,1.31.07.2.15.39.22.59.11.33.06.63-.22.89-.14.13-.34.25-.59.35-.25.1-.53.08-.86.06-.51-.02-.89-.18-1.35-.31-.4-.16-.79-.34-1.16-.54-.7-.4-1.33-.87-1.88-1.32-1.1-.92-2.09-1.85-2.9-2.4-.14-.08-.27-.14-.4-.22-.11-.05-.19-.05-.27-.11-.05.02-.08,0-.12-.02-.02.04-.03,0-.08.01-.05.04-.13.06-.17.07-.02,0-.04.02-.06.04-.05.05-.15.17-.2.34h-.08Z"/><path class="cls-4" d="m425.39,216.33c1.06-.07,2.18-.03,3.37.33,1.17.32,2.49,1.26,3.11,2.56.49.93.63,1.86.6,2.71-.13,1.33-.5,2.78-1.48,3.97-.99,1.2-2.43,1.7-3.64,1.89-1.1.16-2.16.25-3.18.18-1.31-.11-2.59-.3-3.78-.85-.35-.32-.28-.39.11-.75.39-.34,1.05-.75,1.75-.84,1.25-.13,2.43-.38,3.49-.4,1.06-.11,1.95-.31,2.57-.69.4-.22.62-.68.74-1.22l.07-.42v-.47c.04-.34-.03-.57-.03-.83-.1-.51-.25-.79-.61-1.05-.37-.24-.99-.48-1.7-.53-.43-.04-.89-.03-1.35.01-.26.02-.38.04-.84.14-.39.08-.77.24-1.15.36l-.16.05c-.55.19-1.13.4-1.46.34-.21,0-.37.01-.51.02l-.22.02c-.1-.02-.14-.15-.18-.22-.16-.34-.24-.75-.31-1.22-.07-.47-.01-1.05,0-1.59.06-1.99-.1-2.94-.19-4.22-.02-.27-.07-.53-.08-.8,0-.25,0-.45.04-.62.05-.17.14-.3.24-.41.2-.22.51-.34.95-.44.2-.05.38-.11.56-.14.57-.11,1.25.34,1.54,1.13.26,1.15.35,2.3.36,3.45-.01.82.04.51.06.57.02,0,.03-.01.03-.01,0,0-.03.03-.01.08.01,0,0,.01.04.02h.01s.08-.02.08-.02l.16-.03c.11-.03.22-.04.33-.06l.67-.09v.09Z"/><path class="cls-4" d="m400.84,211.09s2.9-.13,2.65.63-.53,5.05-.53,5.05c0,0,5.06.09,5.07.65s.58,3.65-.98,3.38-4.24,0-4.24,0c0,0,.4,4.63.43,5.08s-1.28,1.28-2.41.29-.87-5.93-.87-5.93c0,0-5.1.42-5.24-.68s-.11-1.78.45-2.39,4.95-.4,4.95-.4l.71-5.67Z"/><path class="cls-4" d="m393.5,287.37c.41-1.05,1.28-2.02,2.47-2.81l.92-.54.45-.23.27-.13c.34-.16.65-.32.94-.47.41-.23.67-.53.9-.73.17-.19.35-.37.42-.65.09-.28.12-.61.12-.89,0-.55-.47-1.12-1.22-1.47-.67-.31-1.49-.38-2.28-.32-.51.02-1,.18-1.49.28-.49.11-1.01.2-1.47.42-.3.11-.44-.04-.39-.47.03-.21.11-.51.28-.8.16-.31.41-.61.74-.83.58-.42,1.26-.55,1.92-.7.67-.13,1.36-.18,2.07-.12.71.05,1.44.22,2.15.58.72.32,1.41.97,1.84,1.74l.33.74c.07.25.12.51.18.76.07.26.03.5.05.74,0,.25.02.49-.04.74-.11,1.02-.67,2.04-1.34,2.67-.74.7-1.51,1.13-2.19,1.52-.21.12-.22.11-.31.16l-.23.11c-.16.08-.32.17-.48.28-.17.12-.35.27-.49.46-.16.2-.4.57-.13.73.29.2.64.28,1.02.36.19.03.39.06.6.07h.34s.53.01.53.01c1.1-.03,2.17-.3,3.24-.51.24-.05.46-.14.71-.12.89-.02,1.2.33,1.46,1.04.06.17.13.33.18.48.14.52-.18,1.07-.84,1.5-.98.59-2.04.7-3.11.85-.54.06-1.09.09-1.64.1h-.42s-.54-.01-.54-.01c-.52-.02-1.04-.06-1.55-.12-1.43-.15-2.72-.55-3.41-1.21-.35-.34-.62-.7-.8-1.24-.09-.27-.09-.52-.08-.78v-.38s.08-.38.08-.38l.15-.39h.09Z"/><path class="cls-4" d="m433.44,287.37c.41-1.04,1.28-2.02,2.47-2.81l.92-.54.45-.23.27-.13c.34-.16.65-.32.94-.47.41-.23.67-.53.9-.73.17-.19.35-.37.42-.65.09-.28.12-.61.12-.89,0-.55-.47-1.12-1.22-1.47-.67-.31-1.49-.38-2.28-.32-.51.02-1,.18-1.49.28-.49.11-1.01.2-1.47.42-.3.11-.44-.04-.39-.47.03-.21.11-.51.28-.8.16-.31.41-.61.74-.83.58-.42,1.26-.55,1.92-.7.67-.13,1.36-.18,2.07-.12.71.05,1.44.22,2.15.58.72.32,1.41.97,1.84,1.74l.33.74c.07.25.12.51.18.76.07.26.03.5.05.74,0,.25.02.49-.04.74-.11,1.02-.67,2.04-1.34,2.67-.74.7-1.51,1.13-2.19,1.52-.21.12-.22.11-.31.16l-.23.11c-.16.08-.32.17-.48.28-.19.14-.39.31-.54.52-.08.1-.13.23-.19.35-.05.13.02.25.12.32.29.2.64.28,1.02.36.19.03.39.06.6.07h.34s.53.01.53.01c1.1-.03,2.17-.3,3.24-.51.24-.05.46-.14.71-.12.89-.02,1.2.33,1.46,1.04.06.17.13.33.18.48.14.52-.18,1.07-.84,1.5-.98.59-2.04.7-3.11.85-.54.06-1.09.09-1.64.1h-.42s-.54-.01-.54-.01c-.52-.02-1.04-.06-1.55-.12-1.53-.16-2.86-.61-3.54-1.34-.34-.35-.63-.82-.74-1.41-.03-.27,0-.54-.01-.81.05-.27.16-.55.23-.82h.09Z"/><path class="cls-4" d="m380.89,282.51c-.11.56-.17,1.13-.26,1.7-.04.58-.1,1.15-.12,1.74,0,.58-.04,1.17,0,1.75.03.59.05,1.19.14,1.7l.09.58.18.56c.11.38.24.75.39,1.11.95,2.64,2.93,5.04,5.44,6.78,1.11.79,2.38,1.32,3.63,1.86,1.63.65,3.34.97,5.05,1.53.54.18.45.49-.07.84-.51.33-1.53.87-2.65.74-.99-.11-1.98-.28-2.95-.53-.97-.25-1.95-.55-2.83-1.04-1.8-.91-3.48-2.13-4.86-3.66-1.64-1.8-3.31-3.85-4.08-6.34l-.3-1.02-.18-1.04c-.14-.71-.14-1.34-.2-2.01-.04-.66-.03-1.32-.05-1.98.03-.66.04-1.32.11-1.98.14-1.63.46-3.23.89-4.81.68-2.39,1.85-4.63,3.28-6.64,1.12-1.55,2.31-3.08,3.82-4.32.32-.28.66-.54,1.02-.78.67-.45,1.18-.62,1.58-.63.4-.01.71.15,1.04.49.15.15.32.3.44.46.4.57.11,1.36-.66,1.99-1.09,1.04-2.2,1.96-3.15,3.07-.95,1.09-1.81,2.26-2.53,3.55-1.02,1.93-1.78,4.07-2.14,6.34h-.08Z"/><path class="cls-4" d="m459.71,280.13c.23,2.19.16,4.4-.28,6.55-.15.78-.28,1.56-.52,2.31-.89,2.64-2.32,5.04-4.16,7.03-.79.9-1.66,1.73-2.55,2.5-1.13,1.01-2.5,1.79-3.98,2.17-.46.13-.48-.13-.26-.57.11-.22.28-.49.49-.76.21-.28.44-.6.75-.85.51-.48,1.05-.91,1.55-1.38.26-.22.49-.48.73-.72.25-.24.47-.5.69-.76.9-1.04,1.71-2.15,2.46-3.32.94-1.4,1.43-3.11,1.78-4.77.42-1.83.53-3.72.35-5.62-.1-1.16-.31-2.33-.64-3.46-.5-1.71-1.17-3.42-2.16-4.9-.77-1.16-1.78-2.11-2.78-3.02-.22-.21-.46-.37-.68-.57-.79-.77-.9-1.14-.43-2.03.11-.2.2-.41.32-.6.4-.63,1.18-.74,2.01-.26,1.2.74,2.3,1.71,3.25,2.83.97,1.11,1.68,2.44,2.32,3.79.93,2.02,1.52,4.21,1.81,6.41l-.08.02Z"/><path class="cls-4" d="m415.15,276.19s2.9-.13,2.65.63-.53,5.05-.53,5.05c0,0,5.06.09,5.07.65s.58,3.65-.98,3.38c-1.55-.27-4.24,0-4.24,0,0,0,.4,4.63.43,5.08s-1.28,1.28-2.41.29c-1.13-.99-.87-5.93-.87-5.93,0,0-5.1.42-5.24-.68s-.11-1.78.45-2.39,4.95-.4,4.95-.4l.71-5.67Z"/><path class="cls-4" d="m98.43,154.09c-.84-.13-1.68-.44-2.42-.94-.73-.49-1.35-1.13-1.79-1.97-.45-.84-.63-1.91-.45-2.85.17-.94.6-1.72,1.09-2.33.73-.89,1.55-1.6,2.56-2.03,1.19-.49,2.3-.66,3.29-.84.49-.08.98-.15,1.4-.24.18-.04.41-.07.57-.22.26-.28.06-.67-.12-.99-.51-.9-1.43-1.73-2.34-1.84-.32-.04-.54-.02-.77.07-.24.09-.47.27-.68.47-.42.41-.71.96-.59,1.47.09.3-.07.61-.68.39-.29-.12-.65-.47-.81-1.03-.17-.55-.12-1.26.22-1.87.26-.49.64-.92,1.13-1.25.48-.33,1.09-.58,1.76-.62,1.15-.09,2.27.32,3.09.88.42.28.79.61,1.12.95.16.17.32.35.46.53l.22.29c.13.13.2.3.31.45.87,1.21,1.02,2.65.27,3.71-.32.42-.74.73-1.24.94-.2.08-.39.18-.6.25-.21.06-.43.16-.54.19l-.8.24c-.52.16-1.03.27-1.5.4-.95.26-1.76.57-2.32.96-.67.45-1.16,1.12-1.2,1.6-.03.24,0,.48.14.75.14.27.41.54.71.73.74.48,1.91.53,2.79.07.67-.34,1.14-.92,1.34-1.69.2-.76.08-1.64-.33-2.28-.6-.99-2.07-1.28-3.68-1.93-.36-.15-.74-.31-1.11-.57-.69-.5-1.06-1.11-1.15-1.56-.08-.48.07-.81.4-1.11.15-.13.29-.27.46-.35.27-.14.58-.11.86-.06.28.06.56.11.83.19.83.23,2.12.54,3.79,1.36.42.23.85.49,1.29.86.44.35.88.86,1.19,1.37.65,1.04.95,2.22.95,3.39.03,1.71-.74,3.6-2.22,4.78-1.45,1.15-3.22,1.57-4.93,1.35v-.09Z"/><path class="cls-4" d="m78.65,163.86l9.21.35c1.12.04,2.24-.04,3.36.02l11.87.74c1.75.09,3.52.19,5.26.25,2.24.1,4.5.11,6.68.92.68.22.58.3-.02.57-.39.18-.82.38-1.25.59-.26.11-.54.27-.84.36-.29.07-.6.12-.92.15-1.14.12-2.27.15-3.4.16l-3.4.05c-2.27-.02-4.54-.15-6.83-.32-2.74-.22-5.59,0-8.39,0l-9.27-.1-5.71-.07c-2.89-.02-5.79-.12-8.65-.07-2.23.03-4.42.26-6.64.37-.49.03-.97.09-1.46.08-1.82-.05-2.39-.36-2.73-1.42-.08-.24-.18-.48-.22-.72-.13-.8.63-1.44,1.96-1.66,3.92-.61,8.01-.63,12.15-.57,3.08.07,6.17.14,9.25.21v.09Z"/><path class="cls-4" d="m77.22,182.3c.16-.54.68-1.21,1.31-1.85.63-.65,1.32-1.28,1.98-1.88l.5-.45.24-.22.14-.12.61-.51c.66-.57,1.31-1.12,1.95-1.63.93-.74,1.86-1.26,2.46-1.09l.28.02h.08s.02.02.02.02h0s0,.03.01-.03h0s0,0,0,0l.04.02.11.08.42.71c.08.13.15.25.22.4l.11.22c.03.08.05.2.07.3l.06.32v.39c.02.25.02.51.02.78l-.02,1.51-.16,3.84c-.03,1.11,0,2.22.04,3.32.09,1.41,0,2.82-.1,4.24-.04.44-.25.41-.56.06-.3-.34-.79-1-1.03-1.81l-.29-1.08-.14-.54-.07-.54c-.09-.72-.17-1.45-.23-2.17-.06-.72-.09-1.45-.11-2.17v-1.09s0-.54,0-.54v-.27c.01-.08,0-.21.03-.21.14-.35.12-.89.04-1.26,0-.14-.12-.01-.16,0l-.17.11c-.26.17-.46.29-.85.6l-.54.48-.25.19-.53.43c-.23.19-.47.4-.72.64-.12.12-.25.24-.34.38-.03.05.02.06.05.06l.1.02.2.04.72.11c.33.05.68.09,1.05.12l.28.02.46.02h.97c1.4,0,2.77-.26,4.17-.41.31-.03.61-.1.92-.1,1.15-.01,1.52.23,1.76,1.12.05.2.12.4.15.6.1.68-.38,1.23-1.21,1.46-1.23.36-2.5.51-3.81.61-.66.05-1.32.07-1.99.08h-1.01s-1.52-.05-1.52-.05c-1.35-.06-2.67-.16-3.95-.31l-.75-.2c-.15-.11-.29-.22-.43-.33-.13-.11-.32-.22-.39-.33l-.18-.33c-.06-.13-.12-.17-.19-.38-.05-.16-.07-.28-.08-.42-.04-.27,0-.59.09-.95l.12-.03Z"/><path class="cls-4" d="m82.72,138.35s2.9-.13,2.65.63-.53,5.05-.53,5.05c0,0,5.06.09,5.07.65s.58,3.65-.98,3.38c-1.55-.27-4.24,0-4.24,0,0,0,.4,4.63.43,5.08s-1.28,1.28-2.41.29c-1.13-.99-.87-5.93-.87-5.93,0,0-5.1.42-5.24-.68-.14-1.11-.11-1.78.45-2.39s4.95-.4,4.95-.4l.71-5.67Z"/><path class="cls-4" d="m69.12,152.7l-1.17,1.2-6.46-5.84-6.25,4.64s-1.32-1.24-1.32-1.66l5.74-4.63-2.64-2.38s1.7-2.45,2.54-2.17c.23.08,1.08.95,2.18,2.17l4.17-3.25,1.86,2.21-4.24,3.08c2.63,3.04,5.59,6.63,5.59,6.63Z"/><g class="cls-6"><path class="cls-4" d="m254.64,292.92c-.29.27-.58-.18-.78-1.03-.06-.27-.04-1.1.03-1.22.14-.23.26-.45.39-.61.09-.08,1.27-.59,1.59-.88.33-.25.69-.38,1.04-.53.72-.28,1.37-.72,1.97-1.19.13-.11.29-.18.46-.24.61-.2,1.04-.65,1.33-1.18.05-.09.13-.16.07-.31-.04-.12.15-.51.34-.92.19-.4.37-.81.45-.9.41-.41.69-.9.97-1.41.04-.07,0-.16.16-.22.37-.13.33-.32.36-.49.06-.25.11-.49.23-.75.05-.13.24-.26.4-.4.14-.13.66-.1.71-.06.17.12.41,0,.62-.02.07,0,.17-.02.23-.02.06,0,.35.44.58.94.23.5.4,1.06.38,1.16,0,.01,0,.2-.02.48-.01.28-.05.65-.1,1.03-.1.76-.29,1.54-.32,1.71-.03.17-.17.3-.28.44-.02.03-.2.61-.43,1.17-.23.56-.51,1.11-.55,1.15-.31.38-.51.86-1.06,1.02-.11.03-.16.12-.22.19-.53.65-1.23,1.12-1.94,1.53-.36.21-.68.48-1.04.69-.06.04-.15.03-.23.05-.09.02-.2.03-.28.07-.85.5-1.81.69-2.71,1.08-.22.1-1.33-.05-1.57,0-.14.05-.65-.46-.76-.36Z"/></g><path class="cls-4" d="m293.37,285.11c.23-.19.29.24.39,1.12.03.28-.04,1.1-.13,1.21-.18.21-.37.4-.57.53-.06.03-.53.09-1.07.05-.54-.02-1.14-.15-1.45-.21-.59-.13-1.12-.42-1.57-.77-.93-.7-1.75-1.51-2.41-2.42-.14-.2-.26-.43-.32-.68-.23-.86-.56-1.57-.91-2.28-.06-.12-.09-.25-.25-.33-.31-.12-.9-2.16-.83-2.43.08-.73.14-1.33.21-1.99.01-.09-.05-.18.08-.28.31-.24.22-.42.22-.61,0-.26.01-.53.09-.8.04-.13.21-.29.35-.43.12-.13.64-.15.71-.12.18.09.41-.04.62-.08.07-.01.16-.03.22-.04.13,0,1.24,1.3,1.26,1.44,0,.06.67,1.98.81,2.14.06.1.01.23,0,.35-.03.09.73,1.39.76,1.41.08.29.31.49.17.88-.03.08.01.12.05.17.27.39.43.85.67,1.27.12.22.32.37.48.54.03.03.03.1.04.14.02.06.03.12.07.16.44.35.8.83,1.35.94.11.02.5.6.67.57.07,0,.2.6.31.52Z"/><path class="cls-4" d="m278.75,341.97c-.3.25-.58-.18-.8-1.03-.07-.27-.06-1.1.02-1.22.15-.23.3-.46.44-.62.1-.08,1.48-.56,1.89-.82.41-.24.83-.34,1.23-.47.84-.23,1.6-.61,2.3-1.04.15-.1.33-.16.53-.2.65-.17,1.17-.58,1.52-1.11.06-.09.14-.16.11-.31-.01-.12.2-.52.44-.91.2-.42.45-.81.52-.91.44-.41.75-.92,1.07-1.46.04-.08,0-.18.17-.23.37-.12.35-.33.4-.52.09-.26.13-.53.28-.8.07-.13.27-.26.44-.4.15-.12.66-.05.72,0,.15.14.4.04.62.03.07,0,.17,0,.23,0,.06,0,.29.48.5,1.01.21.53.31,1.12.3,1.22,0,.01-.01.21-.03.5-.05.29-.11.68-.17,1.07-.16.79-.39,1.63-.45,1.79-.05.18-.21.31-.33.45-.02.04-.25.64-.56,1.22-.27.6-.68,1.13-.71,1.18-.35.39-.66.85-1.23.98-.11.02-.17.12-.25.18-.33.29-.68.57-1.06.79-.39.21-.77.41-1.17.59-.41.16-.77.41-1.17.58-.07.03-.16.01-.24.02-.1.01-.21,0-.3.05-.93.43-1.95.5-2.89.83-.23.11-1.34-.17-1.58-.08-.15.06-.64-.5-.76-.39Z"/><path class="cls-4" d="m209.56,318.86c-.35-.21-.02-.64.72-1.11.24-.15,1.03-.39,1.16-.35.26.07.52.13.71.21.11.07,1,1.12,1.4,1.37.36.27.61.59.89.91.54.65,1.21,1.19,1.89,1.65.16.1.29.24.41.39.42.55,1.04.84,1.68.97.11.03.21.08.34-.02.11-.08.58,0,1.06.06.48.06.97.12,1.08.17.56.27,1.16.39,1.77.49.09.02.17-.05.27.08.24.31.43.22.62.19.27-.02.54-.05.84-.02.14,0,.34.15.52.25.17.09.29.6.26.67-.07.2.12.39.2.59.03.07.07.15.08.21.01.06-.34.48-.78.85-.44.38-.95.71-1.06.72-.01,0-.2.06-.49.13-.29.07-.67.15-1.07.22-.79.13-1.64.18-1.82.2-.18.03-.36-.07-.53-.14-.04-.01-.67,0-1.31-.07-.64-.05-1.28-.17-1.33-.19-.48-.19-1.02-.24-1.37-.73-.07-.1-.17-.12-.26-.16-.82-.32-1.52-.88-2.16-1.44-.33-.29-.7-.53-1.03-.83-.06-.05-.09-.14-.13-.21-.06-.09-.09-.19-.17-.25-.77-.69-1.29-1.59-1.97-2.37-.17-.19-.4-1.34-.54-1.57-.1-.13.22-.79.09-.87Z"/><path class="cls-4" d="m168.08,349.68c-.09.34-.52.1-1.13-.51-.19-.2-.62-.9-.63-1.04-.01-.26-.02-.52,0-.72.03-.12.82-1.14,1.02-1.54.22-.37.49-.65.78-.92.59-.56,1.12-1.17,1.62-1.8.11-.14.26-.25.42-.35.58-.33.96-.85,1.23-1.42.04-.09.12-.17.06-.32-.06-.23.7-1.71.87-1.87.44-.39.79-.84,1.16-1.3.06-.06.03-.16.2-.18.38-.05.38-.24.46-.4.11-.22.22-.44.4-.65.09-.1.31-.17.49-.26.17-.08.66.1.7.15.13.15.39.12.6.15.07.01.17.03.22.05.14.03.58,1.82.5,2.01,0,0-.03.17-.08.4-.05.23-.13.54-.2.86-.17.62-.35,1.27-.39,1.42-.03.15-.17.24-.27.35-.02.06-.7,1.91-.77,1.97-.23.33-.35.75-.83.9-.09.03-.13.11-.16.18-.36.6-.87,1.08-1.37,1.55-.25.25-.46.53-.7.79-.04.05-.12.06-.18.09-.07.04-.16.07-.21.12-.55.62-1.27,1.07-1.81,1.71-.12.16-1.07.41-1.22.58-.08.1-.73-.13-.76,0Z"/><g class="cls-6"><path class="cls-4" d="m145.74,286.96c0-.34.46-.19,1.17.3.23.16.8.76.84.88.08.24.16.48.19.67,0,.11-.41,1.15-.46,1.54-.08.36-.23.65-.41.93-.34.58-.62,1.21-.85,1.85-.05.14-.15.27-.26.39-.41.41-.58.93-.62,1.47,0,.09-.05.17.06.28.14.17,0,1.56-.09,1.74-.26.44-.4.91-.56,1.4-.03.07.03.14-.11.21-.33.18-.25.33-.26.48-.02.22-.02.43-.1.66-.04.11-.21.26-.34.4-.12.13-.63.19-.7.17-.18-.07-.4.07-.61.13-.07.02-.16.04-.22.05-.06,0-.39-.29-.7-.64-.31-.35-.57-.75-.58-.83,0-.01-.05-.15-.08-.37-.04-.22-.1-.51-.16-.81-.08-.6-.17-1.22-.19-1.37-.03-.14.06-.27.12-.4-.01-.06-.05-1.9,0-1.98.1-.37.07-.77.46-1.06.08-.06.08-.13.09-.21.13-.64.45-1.21.76-1.77.15-.29.26-.6.4-.9.03-.05.09-.09.14-.13.06-.05.13-.1.16-.17.33-.71.86-1.28,1.2-1.98.07-.18.89-.6.99-.79.05-.11.71-.01.71-.14Z"/></g><g class="cls-6"><path class="cls-4" d="m246.91,348.71c.17-.31.53.04.93.8.13.24.34,1.04.31,1.18-.05.26-.09.5-.15.68-.05.1-.89.83-1.08,1.16-.22.28-.47.49-.75.67-.54.39-1.04.85-1.47,1.37-.1.11-.24.19-.38.27-.53.24-.86.68-1.07,1.18-.03.08-.1.15-.03.29.05.11-.07.48-.22.83-.14.36-.29.72-.37.79-.18.18-.33.37-.49.57-.13.21-.26.42-.4.64-.04.06,0,.14-.15.18-.36.1-.32.26-.36.41-.07.21-.11.42-.23.63-.06.11-.26.22-.41.33-.14.11-.66.07-.71.04-.16-.1-.41,0-.62.01-.07,0-.17.01-.23.01-.06,0-.32-.38-.56-.81-.23-.43-.39-.91-.38-1-.01-.02.01-.64.06-1.29.08-.64.18-1.33.21-1.47.01-.15.14-.26.24-.38-.01-.07.57-1.96.65-2.02.22-.34.34-.76.82-.92.09-.03.12-.11.16-.18.36-.59.89-1.06,1.42-1.5.26-.23.5-.49.75-.73.05-.04.12-.05.18-.08.08-.03.17-.05.23-.1.62-.56,1.38-.9,2.04-1.42.15-.15,1.14-.19,1.32-.31.1-.09.67.3.73.19Z"/></g><path class="cls-4" d="m268.96,403.04c-.31.33-.72-.05-1.12-.84-.13-.25-.25-1.07-.18-1.2.13-.26.26-.51.39-.69.1-.1,1.56-.91,1.96-1.3.41-.36.86-.6,1.3-.87.9-.53,1.7-1.22,2.41-1.96.15-.17.34-.3.55-.43.71-.43,1.2-1.11,1.53-1.85.06-.12.14-.23.08-.41-.05-.14.18-.69.37-1.26.2-.56.38-1.15.46-1.27.41-.62.67-1.31.91-2.02.04-.1,0-.22.14-.3.36-.21.31-.45.32-.68.04-.32.07-.65.16-.99.04-.17.22-.35.35-.53.12-.17.65-.16.71-.11.18.14.41-.02.62-.07.07-.01.16-.03.22-.03.06,0,.4.51.67,1.1.28.59.48,1.24.47,1.37,0,.02.02.24.02.58,0,.34,0,.78-.03,1.24-.05.92-.21,1.87-.23,2.07-.02.21-.15.39-.27.57-.02.04-.17.75-.39,1.44-.21.7-.49,1.38-.52,1.43-.31.49-.5,1.08-1.08,1.38-.11.06-.17.17-.23.26-.54.85-1.29,1.52-2.04,2.14-.39.32-.73.68-1.13.99-.07.06-.17.07-.25.11-.11.05-.22.08-.31.15-.93.73-2.03,1.17-3.04,1.79-.24.15-1.57.26-1.85.38-.16.09-.84-.31-.96-.19Z"/><g class="cls-6"><path class="cls-4" d="m318.06,344.15c-.26-.3.16-.6,1-.84.27-.08,1.09-.08,1.22-.01.24.14.47.27.63.4.08.09.62,1.37.93,1.73.24.38.41.76.56,1.16.33.8.74,1.57,1.25,2.27.11.16.18.35.24.54.2.69.65,1.23,1.19,1.64.09.07.16.16.33.14.13,0,.54.27.95.56.41.28.82.57.9.68.19.24.4.47.62.7.24.2.47.41.71.61.07.06.17.04.2.21.06.38.26.39.44.48.24.13.49.23.73.41.12.09.21.31.31.5.1.17-.06.66-.12.71-.16.13-.1.39-.13.61,0,.07-.02.17-.04.22-.02.06-.52.21-1.08.33-.55.1-1.15.12-1.25.09-.03,0-.74-.2-1.48-.45-.72-.28-1.49-.6-1.63-.68-.17-.06-.27-.23-.39-.36-.09,0-2.09-1.25-2.14-1.36-.34-.35-.77-.62-.87-1.18-.02-.11-.1-.17-.17-.24-.58-.6-.99-1.33-1.37-2.06-.22-.37-.43-.73-.64-1.09-.04-.07-.03-.15-.05-.23-.02-.1-.02-.2-.06-.29-.47-.88-.68-1.86-1.06-2.79-.12-.22.04-1.37-.04-1.61-.07-.15.44-.68.35-.79Z"/></g><path class="cls-4" d="m153.49,142.29c.23-.03.17.3-.04.86-.07.18-.38.64-.47.68-.17.07-.34.14-.49.17-.09.02-1.1-.29-1.46-.39-.35-.09-.64-.26-.92-.45-.57-.39-1.15-.76-1.7-1.17-.12-.09-.23-.21-.3-.35-.27-.48-.66-.82-1.1-1.12-.07-.05-.13-.12-.27-.1-.24.05-1.3-.92-1.37-1.11-.17-.47-.39-.89-.56-1.34-.03-.06-.11-.08-.04-.22.16-.32.02-.38-.05-.5-.11-.16-.17-.36-.2-.59-.01-.11.08-.31.14-.47.05-.15.46-.42.52-.43.17-.03.31-.23.46-.36.05-.04.12-.1.16-.13.05-.03.42,0,.79.05.36.05.69.14.72.19,0,0,.08.07.19.17.11.1.26.22.41.35.31.26.63.52.71.56.08.04.08.16.11.26,0,.05.99.75,1.01.78.14.21.39.3.38.67,0,.07.04.1.08.13.33.27.56.64.83.98.14.18.32.29.48.44.03.03.03.08.05.12.02.05.04.11.08.14.4.32.72.76,1.19,1,.1.06.39.64.53.69.07.03.05.51.15.49Z"/><path class="cls-4" d="m164.62,139.02c.15.27-.19.46-.79.67-.19.06-.76.05-.84-.04-.15-.17-.3-.35-.41-.54-.1-.12-.22-1.89-.21-2.5-.03-.6.09-1.15.21-1.71.27-1.12.64-2.2,1.07-3.24.09-.24.22-.45.39-.65.55-.69.93-1.44,1.29-2.22.06-.13.15-.25.12-.42-.08-.3,1.15-2.29,1.41-2.49.6-.5,1.15-1.03,1.76-1.51.09-.07.12-.19.29-.18.38.03.5-.18.67-.33.23-.22.49-.42.79-.58.15-.08.39-.06.59-.06.19,0,.46.4.46.47,0,.2.24.29.38.43.05.05.11.11.14.15.04.05-.1.51-.24.96-.13.47-.27.92-.33.99,0,0-.09.14-.22.33-.12.2-.3.44-.46.72-.33.54-.65,1.12-.69,1.25-.05.13-.19.21-.31.3-.07.04-.85,1.79-.88,1.86-.24.32-.31.73-.74.95-.08.04-.11.12-.14.19-.27.63-.66,1.19-.98,1.8-.18.3-.26.64-.39.96-.02.06-.08.1-.12.15-.05.07-.11.13-.14.2-.26.77-.68,1.5-.77,2.31-.03.18-.52.98-.5,1.2,0,.11-.48.46-.4.57Z"/><g class="cls-2"><path class="cls-4" d="m134.51,168.52c-5.3,5.26-10.57,10.55-15.79,15.9l-5.65,5.9c-6.68,6.89-13.4,13.77-19.95,20.78-2.93,3.1-5.78,6.29-8.63,9.42-3.64,4.03-7.27,8.11-11.08,11.98-1.19,1.21-1.18.91-.43-.34.77-1.24,2.18-3.51,4.17-5.93,7.12-8.53,14.6-16.73,22.34-24.83,4.63-4.84,9.3-10.01,14.02-14.98,5.19-5.46,10.44-10.87,15.71-16.24,3.26-3.3,6.52-6.6,9.77-9.89,4.97-4.96,9.96-9.94,14.89-14.86,3.83-3.83,7.47-7.69,11.23-11.51.83-.84,1.62-1.68,2.48-2.5,3.16-3.08,4.29-3.92,5.44-4.09.26-.04.57-.13.77-.1.66.08-.33,1.64-2.51,4.01-6.46,7.07-13.61,14.17-20.72,21.37-5.32,5.31-10.67,10.64-16,15.96l-.05-.04Z"/></g><g class="cls-2"><path class="cls-4" d="m154.66,230.67l-13.91,13.65-5.03,5.02-17.9,17.53c-2.65,2.59-5.27,5.24-7.86,7.85-1.67,1.67-3.31,3.38-5,5.04-1.7,1.65-3.42,3.28-5.14,4.89-1.08,1-1.05.76-.32-.28.73-1.03,2.1-2.9,3.91-4.94,6.56-7.08,13.23-14.04,20.2-20.83,4.16-4.06,8.32-8.47,12.49-12.71,4.59-4.66,9.2-9.31,13.83-13.93,2.85-2.85,5.69-5.7,8.53-8.55,4.3-4.33,8.64-8.65,12.85-13,3.27-3.38,6.37-6.81,9.56-10.19.7-.75,1.39-1.48,2.09-2.23,2.66-2.75,3.64-3.5,4.7-3.61.24-.03.52-.1.71-.07.63.1-.16,1.52-2.01,3.63-2.74,3.13-5.61,6.3-8.6,9.44-2.99,3.13-6.07,6.27-9.17,9.39-4.62,4.62-9.27,9.27-13.9,13.91l-.05-.04Z"/></g><g class="cls-2"><path class="cls-4" d="m365.55,263.39c-5.16,4.75-10.3,9.52-15.39,14.34l-5.52,5.32c-6.55,6.2-13.08,12.42-19.52,18.73-2.86,2.79-5.7,5.64-8.49,8.47-3.55,3.67-7.2,7.26-10.91,10.76-1.16,1.08-1.2.75-.49-.43.72-1.18,2.15-3.24,4.12-5.43,7.01-7.72,14.41-15.07,22.05-22.29,4.57-4.32,9.16-8.98,13.78-13.45,5.09-4.91,10.21-9.78,15.36-14.63,3.18-2.97,6.35-5.95,9.53-8.92,4.83-4.49,9.67-8.99,14.46-13.45,3.71-3.47,7.25-6.99,10.88-10.46.8-.76,1.57-1.52,2.4-2.28,3.05-2.79,4.15-3.54,5.26-3.64.25-.02.55-.09.74-.05.64.12-.32,1.57-2.44,3.74-1.59,1.59-3.2,3.2-4.82,4.83-1.66,1.59-3.34,3.19-5.03,4.81-3.4,3.21-6.87,6.44-10.36,9.66-5.18,4.79-10.39,9.6-15.58,14.41l-.05-.04Z"/></g><g class="cls-2"><path class="cls-4" d="m401.99,294.37l-16.24,14.67-5.86,5.41-20.87,18.87c-3.08,2.8-6.12,5.67-9.12,8.5-1.94,1.81-3.89,3.62-5.83,5.43-1.97,1.78-3.99,3.52-6.02,5.23-1.27,1.06-1.31.69-.53-.52.78-1.21,2.32-3.34,4.44-5.55l5.8-5.69c1.95-1.88,3.95-3.71,5.93-5.56,3.98-3.69,8-7.35,12.08-10.98,4.88-4.34,9.76-9.08,14.65-13.62l16.19-14.96c3.32-3.07,6.65-6.14,9.97-9.2,5.01-4.66,10.11-9.29,15.04-13.96,3.83-3.64,7.5-7.3,11.26-10.92.83-.8,1.64-1.58,2.47-2.39,3.13-2.95,4.28-3.72,5.4-3.87.26-.03.56-.12.75-.09.62.06-.34,1.6-2.5,3.9-3.22,3.39-6.58,6.82-10.03,10.26-3.47,3.41-7.08,6.78-10.68,10.16-5.35,5.03-10.83,9.96-16.26,14.94l-.05-.04Z"/></g><g class="cls-2"><path class="cls-4" d="m431.79,333.39l-5.22,4.35c-.63.53-1.24,1.09-1.88,1.61-2.25,1.85-4.54,3.65-6.83,5.45-1.01.8-2.01,1.63-2.99,2.46-1.26,1.06-2.51,2.14-3.86,3.09-.83.6-.39-.91,1-2.19,2.51-2.23,5.02-4.44,7.67-6.55,1.59-1.25,3.13-2.69,4.69-4.04l5.15-4.47,3.15-2.78c1.58-1.42,3.17-2.83,4.69-4.29,1.18-1.14,2.24-2.34,3.35-3.53.24-.26.48-.52.72-.79.93-.95,1.33-1.15,1.91-.95.13.04.28.07.39.14.39.22.23.84-.4,1.6-1.86,2.25-4.09,4.35-6.36,6.41-1.69,1.53-3.43,3.02-5.16,4.52l-.03-.03Z"/></g><g class="cls-5"><path class="cls-4" d="m172.14,428.66c-18.91-.46-37.81-1.13-56.71-2.37-9.45-.63-18.89-1.39-28.32-2.51-4.71-.57-9.43-1.21-14.13-2.06-4.7-.88-9.4-1.83-14.05-3.64-.85-.35-1.69-.72-2.54-1.19-.84-.45-1.68-1.02-2.48-1.79-.4-.39-.78-.87-1.1-1.44l-.21-.47c-.07-.16-.14-.32-.16-.41l-.19-.66c-.28-.89-.46-1.75-.67-2.62-.77-3.46-1.29-6.89-1.76-10.33-.94-6.88-1.63-13.75-2.22-20.63-2.01-24.26-3.13-48.55-3.93-72.84-.78-24.29-1.17-48.59-1.14-72.89.03-21.56.29-43.25,1.09-64.64.55-13.74,1.21-27.52,2.57-41.25.7-6.86,1.55-13.72,2.69-20.53.54-3.41,1.25-6.8,2.06-10.16.41-1.68.84-3.36,1.34-5.02.22-.84.51-1.66.77-2.48l.4-1.24c.09-.2.11-.42.25-.6l.25-.6c1.68-4.01,2.88-5.5,2.83-5.38.04.16-1.03,2.01-1.95,5.51-2,6.97-3.46,20.18-4.9,35.86-2.55,27.82-3.53,55.84-3.93,83.9-.39,28.07-.18,56.21.39,84.47.36,16.9,1.01,34.14,1.97,51.45.99,17.31,2.16,34.72,4.12,51.85.56,4.7,1.18,9.4,2.11,13.97.11.58.24,1.13.38,1.69.12.57.27,1.11.43,1.65l.12.4c.04.14.08.28.11.32.03.07.06.13.09.21l.16.22c.08.16.28.3.41.46l.55.46c1.65,1.18,3.86,2,6.04,2.69,4.42,1.35,9.07,2.25,13.73,3,4.66.75,9.36,1.35,14.07,1.86,18.86,2.02,37.87,2.97,56.87,3.7,23.39.85,46.82,1.22,70.22,1.33,35.45.15,71.09-.21,106.28-1.09,27.36-.7,54.16-1.77,81.17-3.13,5.95-.33,11.76-.65,17.76-.98,11.11-.62,18.42-1.09,23.56-1.33,2.57-.11,4.59-.18,6.28-.19,1.69,0,3.03.05,4.24.09,1.1.04,2.54-.02,3.19-.01,1.11,0-.57.69-4.57,1.47-4,.83-10.34,1.53-18.48,2.18-24.15,1.86-48.98,3.03-74.18,4.01-25.2.97-50.76,1.58-76.37,1.98-38.05.57-76.28.64-114.44-.17l-.04-.09Z"/></g><g class="cls-5"><path class="cls-4" d="m470.92,140.84c-.49-8.89-1.07-17.78-1.9-26.62-.42-4.42-.9-8.83-1.55-13.18-.33-2.17-.71-4.33-1.19-6.42-.26-1.03-.53-2.05-.87-2.96-.07-.24-.19-.44-.29-.66-.1-.2-.21-.46-.3-.6-.17-.35-.39-.56-.69-.87-.6-.57-1.46-1.1-2.35-1.57-.89-.48-1.87-.89-2.86-1.27-1.99-.76-4.08-1.4-6.19-1.97-4.23-1.12-8.57-2.01-12.93-2.77-8.73-1.53-17.56-2.64-26.41-3.61-12.92-1.39-25.89-2.33-38.86-3.2-45.75-3.02-91.64-4.31-137.51-4.65-20.36-.15-40.83.06-61.02.41-12.97.25-25.97.62-38.96,1.16-6.49.27-12.98.58-19.46.99-6.48.41-12.95.88-19.37,1.68-4,.51-5.71.83-5.62.67.09-.14,1.99-.71,5.37-1.35,6.74-1.31,19.31-2.85,34.26-3.75,13.25-.78,26.51-1.31,39.77-1.72,6.63-.2,13.27-.37,19.9-.49,6.64-.07,13.28-.14,19.92-.22,26.57-.17,53.2.08,79.93.8,31.97.9,65.26,1.88,97.91,4.38,8.97.69,17.94,1.49,26.9,2.49,8.96,1.01,17.9,2.17,26.8,3.83,4.45.85,8.88,1.8,13.27,3.15,2.19.69,4.37,1.44,6.5,2.53,1.06.55,2.11,1.16,3.1,2.04.47.45.98.98,1.31,1.6.34.61.59,1.13.84,1.71.86,2.29,1.31,4.52,1.73,6.77.43,2.24.74,4.49,1.05,6.73.59,4.49,1.04,8.97,1.44,13.46,1.9,22.11,2.73,44.25,3.44,66.37,1.01,33.51,1.31,67.2,1.27,100.48-.06,25.87-.16,51.24-1.05,76.82-.21,5.63-.41,11.15-.74,16.83-.32,5.26-.68,9.63-1.05,13.29-.37,3.65-.82,6.6-1.22,9.02-.83,4.84-1.66,7.6-2.63,9.72-.43.96-1.05,2.21-1.48,2.66-.33.39-.39.17-.24-.55.18-.69.41-2.01.7-3.85.54-3.71,1.06-9.65,1.54-17.3,1.49-22.71,2.01-46.17,2.37-69.95.33-23.78.39-47.91.22-72.09-.14-17.95-.4-35.95-.84-53.95-.45-18-1.07-36-2.07-53.95l.08-.05Z"/></g></svg>