<?xml version="1.0" encoding="UTF-8"?><svg id="Layer_1" xmlns="http://www.w3.org/2000/svg" width="520" height="520" viewBox="0 0 520 520"><defs><style>.cls-1{opacity:.2;}.cls-1,.cls-2{fill:#231f20;stroke-width:0px;}</style></defs><path class="cls-1" d="M163.59,160.81s-7.74,2.6-11.04.74-6.03-7.86-6.03-10.7c0-6.6,14.36.01,14.99-3.21s-2.64-14.49-2.64-14.49c0,0,22.01-20.69,22.79-25.79s15.79,4.14,15.79,4.14l12.75,9.05s5.82,22.2,6.6,26.34-1.96,23.29-14.74,28.21c-12.78,4.91-27.82-4.77-28.6-5.3s-9.9-8.98-9.9-8.98Z"/><path class="cls-2" d="M190.12,135.08c-.06-.26-.11-.51-.19-.75-.03-.09-.1-.14-.13-.23-.09-.32-.13-.67-.22-.99-.04-.14-.12-.25-.21-.35-.1-.14-.3-.2-.19-.51.03-.09.23-.24.49-.39.24-.13.66-.36.74-.3.33.19.6.42.68.81.05.23.25.35.38.53.13.2.24.41.36.63.07.13.14.26.22.39.12.19.21.4.39.54.13.11.4.11.58.18.04.01.1.01.13.04.06.04.06.1-.02.21-.1.12-.26.27-.51.49l-.33.29c-.19.16-.37.29-.54.39-.17.11-.36.2-.44.2-.58.08-.79-.16-.95-.45-.12-.21-.19-.46-.29-.68l.04-.04Z"/><path class="cls-2" d="M203.33,131.56c.02-.21.09-.45.1-.66,0-.08-.06-.11-.04-.19.05-.28.12-.58.13-.84.02-.12-.03-.21-.08-.29-.07-.1-.21-.16,0-.43.06-.08.39-.28.77-.48.37-.19.88-.44.99-.42.3.11.55.24.39.64-.08.22.13.28.2.42.07.16.1.33.15.5.02.11.03.22.07.33.05.15.06.33.19.44.1.08.35.07.53.09.04,0,.11,0,.13.01.1.06-.08.2-.81.68l-.5.33c-.57.36-1.07.62-1.28.67-.62.13-.87.02-.93-.21-.06-.16-.06-.36-.09-.54l.07-.04Z"/><path class="cls-1" d="M46.29,198.07s-2.01-6.52-1.45-8.99c.57-2.48,2.64-5.49,4.08-5.77,1.44-.28-.62,6-.62,5.9s.95-5.96,4.19-6.7c3.23-.74,0,4.07,0,4.07l-4.39,10.43-1.81,1.07Z"/><path class="cls-2" d="M47.08,197.28c.1-.5.21-1.01.31-1.51.04-.18.04-.37.09-.55.14-.64.4-1.27.61-1.89.09-.28.17-.56.25-.84.07-.37.27-.7.48-1.01.07-.1.13-.06.2.07.07.12.18.35.19.56.06.4-.08.73-.14,1.09-.08.36-.17.71-.28,1.06-.13.42-.16.88-.25,1.33-.09.49-.19.98-.26,1.47-.05.3-.09.61-.13.92-.05.46-.11.93-.11,1.4,0,.36.08.72.13,1.07.01.08.03.16.04.23,0,.29-.09.38-.4.45-.07.01-.14.03-.22.04-.24.03-.44-.09-.53-.31-.24-.65-.22-1.35-.18-2.04.03-.51.11-1.03.18-1.54h.03Z"/><path class="cls-2" d="M47.67,185.62s-.12-.03-.23.05l-.09.07s-.02.01-.05.05c-.06.09-.13.17-.18.26-.23.35-.45.71-.64,1.07-.14.26-.24.53-.33.8-.07.29-.14.58-.23.87-.52,2.09-.4,4.45.17,6.7.23,1.01.59,1.99,1,2.94.52,1.22,1.23,2.34,1.56,3.7.12.42.07.39-.28.18-.25-.14-.51-.29-.75-.42-.3-.19-.57-.46-.83-.77-1.49-2.42-2.65-5.12-2.91-8.07-.14-1.74-.29-3.62.17-5.45.26-1.04.72-1.98,1.27-2.81.11-.15.37-.57.58-.83.23-.28.45-.58.68-.83.47-.5.94-.94,1.4-1.26.57-.41,1.1-.64,1.65-.78.53-.12,1.18-.11,1.72.31.09.07.19.13.26.21.14.4,0,.64-.04.96-.08.32-.18.68-.37,1.13-.18.46-.51,1.02-.8,1.56-.29.53-.56,1.09-.77,1.59-.48,1.19-.64,2.41-.41,3.53.05.26.12.5.18.71.11.4.23.64.25.89.01.25-.05.46-.19.7-.06.11-.11.23-.19.32-.12.15-.31.18-.56.1-.25-.08-.58-.28-.85-.7-.43-.63-.65-1.41-.79-2.05-.15-.74-.15-1.51-.05-2.24.1-.73.28-1.43.51-2.09.04-.12.03-.08.03-.09h0s0,0,0,0h0s.03-.01.08-.08c.03-.06.01-.11-.01-.11l.04-.13Z"/><path class="cls-2" d="M53.53,183.6c.11-.1.28-.3.29-.29.03-.02.06-.05.08-.09.04-.08,0-.18-.09-.23-.03-.03-.07-.02-.11-.02-.04,0-.06.02-.2.01-.86.07-1.88.63-2.75,1.26-.39.29-.73.65-1.04,1.02-.39.48-.73,1.01-.93,1.59-.07.18-.12.16-.16-.03-.05-.18-.07-.54.05-.92.45-1.32,1.24-2.56,2.41-3.39.36-.23.73-.47,1.14-.68.2-.12.42-.21.65-.29.22-.1.47-.12.81-.19.75-.02,1.42.32,1.84.84.41.57.26,1.33-.05,1.92-.34.62-.72,1.02-1.09,1.45-.14.15-.27.32-.39.44-.09.08-.19.25-.31.42-.22.34-.41.69-.57,1.05-.25.56-.35,1.17-.47,1.76-.03.13-.04.27-.07.4-.14.48-.35.59-.85.56-.11,0-.23,0-.34-.03-.37-.06-.61-.35-.65-.77-.05-1.22.37-2.5.95-3.65.11-.21.22-.42.34-.63.02-.05.24-.38.3-.44.1-.13.18-.2.27-.29.34-.31.64-.58.89-.85l.04.03Z"/><path class="cls-2" d="M333.99,459.86c-1.98-.3-6.78,1.02-6.14,1.79,1.2,1.45,13.48.75,13.48.75l-7.34-2.54Z"/><path class="cls-2" d="M164.44,456.62s5.5.71,6.2,2.26c.71,1.55-13.84,1.84-13.84,1.84l7.63-4.09Z"/><path class="cls-2" d="M230.65,200.13s-2.16-2.52,0-1.78c1.83.63,1.88,1.03,2.26,1.76,1.22,2.4,1.47,4.85,1.47,4.85l-3.72-4.82Z"/><path class="cls-2" d="M32.31,204.33l3.95,2.67s1.08,4.42.4,5.52c-.69,1.1,5.04-6.31,3.18-7.39s-7.53-.79-7.53-.79Z"/><path class="cls-2" d="M313.08,436.24c.97-.39,1.88-.67,2.82-.96.34-.1.66-.26,1-.35,1.21-.32,2.42-.61,3.65-.83.55-.1,1.09-.23,1.63-.34l.53-.11c.18,0,.37,0,.55.01.37.03.75.1,1.11.24.22.09.16.16-.03.31-.1.08-.22.17-.36.29-.14.13-.3.27-.46.36l-.45.28c-.14.09-.32.1-.47.15-.32.09-.64.18-.97.26-.65.19-1.32.34-2.02.44-.84.12-1.63.5-2.44.78-.89.3-1.78.62-2.64.97-.53.23-1.01.43-1.41.73-.61.47-1.13,1.11-1.38,1.85-.2.58-.16,1.19-.05,1.75.03.13.07.24.06.37-.01.48-.1.66-.49.89-.09.05-.17.11-.25.15-.28.14-.61,0-.9-.43-.47-.63-.53-1.44-.49-2.23.06-.8.31-1.61.75-2.31.63-1.03,1.66-1.87,2.72-2.33l.02.04Z"/><path class="cls-2" d="M162.94,448.58c-.35-.47-.81-.93-1.39-1.32-.21-.14-.46-.22-.69-.35-.82-.44-1.77-.78-2.73-1.02-.43-.11-.85-.22-1.27-.33-.55-.13-1.09-.27-1.63-.46-.17-.06-.14-.1.02-.16.16-.05.44-.15.78-.16.59-.02,1.18-.03,1.77-.01.58.04,1.16.15,1.73.29.67.21,1.43.28,2.15.54.78.28,1.59.67,2.22,1.3.39.38.74.81,1.01,1.3.42.75.55,1.62.58,2.4.05.62.03,1.22-.05,1.8-.02.13-.02.26-.08.37-.19.44-.37.54-.74.55-.09,0-.17,0-.25,0-.26-.02-.45-.26-.54-.62-.29-1.07-.28-1.96-.33-2.65-.06-.51-.21-.98-.58-1.45l.03-.03Z"/><path class="cls-2" d="M164.29,448.03c-.05-.18-.1-.37-.18-.54-.03-.06-.09-.1-.12-.17-.11-.22-.19-.5-.34-.71-.06-.1-.15-.17-.24-.23-.12-.08-.26-.12-.31-.32-.02-.06.06-.18.18-.31.12-.12.31-.29.42-.27.34.11.65.29.84.6.12.18.31.29.44.46.14.19.26.39.37.59.06.13.13.26.19.38.09.2.17.39.26.58.08.15.22.26.32.4.02.03.06.06.07.09.06.13-.02.2-.34.33l-.22.09c-.25.09-.48.11-.58.06-.32-.14-.47-.32-.61-.51-.07-.16-.11-.34-.18-.5l.03-.02Z"/><path class="cls-2" d="M185.01,264.81c-.93,1.13-54.79,158.48-54.79,158.48,0,0-3.91,9.82-2.53,12.44s6.44,5.69,13.84,6.69c7.4,1.01,34.83,3.1,43.48,2.37s13.59-3.13,13.59-3.13c0,0,26.3-109.01,28.8-109.55,2.62-.56,19.36,25.27,19.36,25.27l27.16,47.23,19.14,32.01s30.63-1.48,42.39-5.7c11.76-4.22,19.57-10.15,19.57-10.15l-15.82-33.15s-32.59-60.31-34.99-62.57-30.31-46.1-30.31-46.1c0,0-17.7-32.3-20.24-32.3s-35.82,5.21-35.82,5.21l-32.83,12.96Z"/><path class="cls-2" d="M304.83,216.45c.38-.43.71-.97,1.02-1.53.12-.2.2-.43.32-.63.43-.74.83-1.52,1.29-2.28.22-.33.4-.68.63-1,.27-.42.6-.82.99-1.13.23-.21.15.26-.04.78-.41.88-.55,1.82-1.06,2.68-.28.53-.41,1.14-.64,1.73-.25.65-.61,1.26-.99,1.87-.25.37-.54.72-.85,1.05-.25.24-.5.48-.79.67-.24.2-.65.44-1.06.49-.65.08-1.18-.06-1.6-.09-.09,0-.18,0-.26-.01-.3-.03-.37-.1-.5-.45l-.09-.23c-.09-.25.06-.53.44-.63.55-.13,1.12-.06,1.47-.07.18,0,.29-.03.34-.06.05-.01.08-.02.15-.06.42-.28.84-.65,1.19-1.1l.03.02Z"/><path class="cls-1" d="M310.51,206.85s3.3,2.85,6.57,3.13,7.6,2.73,7.6,2.73c0,0,6.31,3.49,8,3.67s1.12-2.28,1.12-2.28c0,0-4.35-4.2-3.91-5.52s3.89-.77,5.74-.02,5.55,4.32,5.55,4.32c0,0,4.09,4.6,5.41,4.66s2.97-.97,2.97-.97l2.85.19.2-3.33s3.68,1,3.75.67-.47-4.19-1.11-4.2-4.7-7.27-5.98-8.11-4.41-2.4-4.41-2.4c0,0,1.54-1.45,2.59-1.36s4.97,1.69,4.97,1.69c0,0,.2-1.54-.64-2.23s-6.33-3.13-6.03-3.13-4.78.47-4.78.47c0,0-3.01,1.48-3.76,1.84s-9.22-1.61-11.95-1-9.51,1.93-9.51,1.93l-5.24,9.26Z"/><path class="cls-2" d="M312.03,203.53c.29-.7.64-1.36.98-1.98.13-.23.21-.48.35-.7.49-.78,1.02-1.54,1.63-2.23.26-.31.49-.64.73-.96.32-.4.65-.79,1.14-1.05.15-.08.2,0,.24.19.02.19.11.57,0,.84-.1.24-.18.48-.28.71-.12.21-.24.42-.37.64-.25.42-.5.84-.82,1.23-.4.46-.6,1.05-.87,1.59-.3.6-.59,1.21-.83,1.82-.14.38-.28.76-.4,1.15-.17.59-.32,1.2-.3,1.79,0,.46.17.9.34,1.27.04.08.09.15.13.23.14.27.06.4-.24.7l-.21.21c-.23.22-.57.22-.86-.06-.78-.9-.91-2.1-.85-3.14.06-.78.21-1.54.45-2.26h.04Z"/><path class="cls-1" d="M76.16,223.76s-5.37-4.76-7.3-4.89c-1.93-.13-10.95-3.97-13.59-6.33-3.27-2.92-6.63-11.22-6.63-11.22,0,0,1.39-10.81,2.85-12.54s8.29-2.91,9.44-2.11-.38,4.07-2.57,5c-2.19.93-1.35,4.29-2.14,5.51-.79,1.22,4.52,6.31,5.03,5.59s2.23-5.65,2.23-5.65c0,0-.99-6.84.76-6.81,1.76.03,3.73,4.52,4.28,6.14s2.18,7.07,2.18,7.07c0,0,3.61,2.03,4.16,5s5.85,5.9,8,5.45c2.15-.45-6.71,9.78-6.71,9.78Z"/><path class="cls-2" d="M78.05,180.61c-.17.15-.34.3-.49.45-.06.06-.09.13-.15.18-.21.19-.42.39-.6.6-.08.09-.15.2-.21.3-.08.13-.14.28-.28.38-.08.06-.46-.3-.42-.48.11-.3.24-.59.47-.83.14-.14.19-.34.28-.51.11-.19.23-.36.34-.54.07-.11.15-.22.22-.33.1-.17.23-.33.3-.52.06-.15.04-.33.05-.5,0-.04,0-.08,0-.12.04-.12.15-.1.5.07l.24.12c.27.14.46.32.49.44.08.36-.09.59-.27.82-.14.17-.3.32-.45.48h-.02Z"/><path class="cls-2" d="M75.92,225.6c-.36.42-.7.88-1.08,1.3-.14.16-.24.34-.38.49-.49.54-.99,1.1-1.48,1.63-.21.24-.4.51-.62.74-.26.32-.55.61-.87.88-.1.08-.14.03-.14-.11,0-.14,0-.38.09-.61.18-.39.29-.81.53-1.15.23-.34.48-.67.75-.99.33-.38.56-.85.83-1.28.3-.48.63-.93.97-1.39.21-.28.42-.57.63-.85.32-.43.65-.86.97-1.29.25-.33.41-.75.68-1.08.06-.07.11-.15.18-.22.26-.23.42-.23.71-.02.07.05.14.09.2.15.2.18.26.44.18.68-.2.76-.67,1.23-1.1,1.82-.34.43-.68.87-1.02,1.3l-.03-.02Z"/><path class="cls-2" d="M77.65,219.69c.56-.42,1.13-.86,1.62-1.4.17-.21.32-.43.47-.64.57-.75,1.2-1.54,1.65-2.44.21-.4.38-.82.54-1.23.11-.27.2-.54.34-.81.15-.26.31-.51.51-.74.12-.14.18-.08.23.11.03.19.12.52.09.85-.21,1.13-.5,2.31-1.07,3.41-.34.65-.63,1.38-1.07,2.02-.48.7-1.07,1.34-1.7,1.9-.4.34-.84.63-1.28.92-.81.49-1.63.55-2.42.64-.61.05-1.22.15-1.85.09-.14-.03-.28-.03-.41-.08-.51-.15-.63-.38-.58-.75.01-.08.02-.17.04-.25.08-.25.34-.41.65-.46.23-.03.46-.08.69-.12.23-.02.45-.04.67-.05.45-.04.9-.09,1.31-.18.3-.07.59-.16.78-.26.05-.03.07-.04.14-.09l.21-.16c.14-.11.29-.2.42-.32l.03.03Z"/><path class="cls-2" d="M79.01,222.16c-.26.15-.53.3-.78.45-.09.05-.16.14-.26.19-.35.18-.74.28-1.09.41-.16.06-.3.14-.44.23-.18.11-.35.27-.63.15-.08-.03-.15-.21-.19-.44-.04-.22-.1-.58-.04-.67.28-.23.56-.42.95-.51.23-.06.37-.27.56-.4.21-.15.42-.3.63-.45.13-.1.26-.19.38-.3.18-.17.39-.32.54-.51.12-.15.15-.37.25-.53.02-.04.03-.08.05-.12.1-.12.21-.09.53.11l.21.14c.23.16.38.36.39.53.04.49-.14.85-.36,1.17-.17.24-.44.39-.67.58l-.03-.03Z"/><path class="cls-2" d="M171.83,228.74c-.21-.93-.47-1.86-.81-2.77-.13-.33-.31-.63-.45-.96-.48-1.16-.94-2.37-1.51-3.54-.24-.53-.6-.98-.85-1.5-.37-.64-.72-1.29-.99-2-.08-.22.03-.27.29-.21.25.06.69.19,1.04.46.58.52,1.26.97,1.67,1.61.45.62.87,1.27,1.2,1.97.42.83.94,1.65,1.37,2.51.43.96.84,1.95,1.14,2.96.22.61.36,1.26.5,1.89.2.97.34,1.94.49,2.9.05.37.16.74.23,1.1.06.37.13.74.17,1.11.02.16.04.32.04.49,0,.62-.15.82-.6.95-.1.03-.2.07-.31.09-.33.06-.66-.18-.82-.6-.22-.62-.47-1.24-.67-1.85-.17-.62-.29-1.25-.46-1.86-.2-.93-.49-1.83-.75-2.74l.06-.02Z"/><path class="cls-2" d="M208.2,117.96c6.21-.87,13.15-13.98,11.86-21.91-.45-2.79-1.86-7.67-3.23-9.49-1.38-1.82-8.25-7.45-16.35-7.91s-18.02,6.34-18.02,6.34l-4.38,2.15s-12.23-3.71-17.82-4.09-13.44,4.25-17.04,7.78c-3.6,3.53-7.06,21.32-7.06,21.32,0,0-.95,5.62-2.26,9.11-1.31,3.49-15.45,5.94-13.04,22.16,2.56,17.28,21.66,20.64,27.36,16.94,0,0-2.95-6.71-1.7-9.55s6.59-3.16,7.94-2.57c1.35.59,6.67,2.57,6.67,2.57l1.95-3.22-3.57-12.29s9.34-7.65,12.92-11.61c3.58-3.95,9.24-13.93,9.24-13.93l.78-4.71,16.85,8.83,8.89,4.04Z"/><path class="cls-2" d="M147.84,461.47c-3.77.01-7.54-.11-11.33-.48-1.38-.14-2.78-.23-4.19-.51-.62-.12-1.24-.27-1.87-.45-.31-.09-.63-.19-.95-.3-.17-.05-.31-.11-.51-.19-.23-.08-.46-.21-.69-.31-.91-.45-1.64-1.13-1.94-2-.32-.9,0-1.85.49-2.65.26-.4.58-.77.94-1.09.32-.28.59-.48.89-.67.59-.39,1.19-.68,1.79-.94,1.19-.52,2.41-.85,3.61-1.15,2.13-.51,4.25-.94,6.35-1.32,2.7-.42,5.43-.58,8.18-.37.86.06.75.09.08.45-.67.34-1.88,1.23-3.38,1.74-.66.22-1.32.49-1.98.66l-1.98.53c-1.32.33-2.65.53-3.94.84-1.3.29-2.58.61-3.8.98-1.21.39-2.42.75-3.34,1.29l-.34.21s-.1.06-.15.1c-.1.08-.17.19-.22.31-.1.28.18.49.41.59l.27.11c.17.06.34.13.53.18.36.11.75.2,1.14.29.78.16,1.59.29,2.4.41,3.59.5,7.32.67,11.02.71,2.28.02,4.57-.02,6.85-.14,1.72-.1,3.46-.22,5.15-.44.82-.12,1.73-.24,2.32-.5.59-.22,1.14-.81,1.64-1.39.76-.96,1.33-2.12,1.79-3.3.47-1.19.84-2.42,1.17-3.66.13-.55.25-1.09.38-1.65.47-2.06.81-2.6,1.63-2.96.19-.08.38-.21.56-.26.6-.21,1.07.86.95,2.57-.3,2.49-.92,4.97-1.98,7.44-.54,1.23-1.16,2.46-2.1,3.65-.47.6-1.03,1.19-1.76,1.72-.35.27-.84.49-1.27.71-.49.19-.85.27-1.21.35-2.07.43-3.94.57-5.87.72-1.91.13-3.82.21-5.72.25v-.08Z"/><path class="cls-2" d="M325.26,452.74c3.02,1.74,6.18,3.32,9.41,4.62,1.18.47,2.39.83,3.57,1.22,1.41.47,3.36.92,3.49.7.22-.11.35-.36.36-.63,0-.07,0-.12-.02-.22-.03-.12-.04-.26-.08-.4-.07-.28-.18-.57-.3-.87-.53-1.19-1.26-2.42-2.08-3.58-1.15-1.63-2.53-3.13-3.88-4.63-1.76-1.9-3.63-3.72-5.24-5.81-.48-.68-.39-.61.27-.31.68.28,1.93.79,3.18,1.68,1.11.78,2.14,1.65,3.18,2.52,1.04.88,2.07,1.78,3,2.79.94,1,1.86,2.05,2.7,3.21.84,1.16,1.6,2.42,2.06,4.05.16.58.35,1.64.18,2.54-.16.92-.7,1.72-1.44,2.27-.76.47-1.69.57-2.55.57-.65-.04-1.26-.12-1.84-.22-1.16-.21-2.27-.51-3.34-.85-3.56-1.17-6.87-2.78-10.12-4.49-1.99-1.07-3.94-2.22-5.85-3.44-2.88-1.85-5.65-3.94-8.11-6.44-.95-.97-1.86-2.01-2.59-3.28-.36-.63-.68-1.33-.86-2.12-.18-.75-.23-1.43-.26-2.17-.01-.64,0-1.27.1-1.92.21-1.2.57-1.96.95-2.41.37-.45.8-.59,1.29-.57.22,0,.45-.01.63.04.59.18.64,1.16.42,2.41-.15.95-.15,1.94-.02,2.91.14,1.09.36,1.62.83,2.43.47.77,1.12,1.58,1.88,2.34.74.77,1.58,1.52,2.47,2.23,2.63,2.13,5.6,4.04,8.68,5.74l-.04.08Z"/><path class="cls-2" d="M350.79,198.28s.04,0,.06,0c.1-.02.09-.08.07-.15-.04-.09-.05-.14-.23-.31-.36-.3-.76-.54-1.13-.82-.66-.48-1.35-.95-2.06-1.26-.36-.15-.68-.27-1.02-.27-.43-.02-.86-.02-1.29-.02-.76.02-1.53.06-2.28.13-.97.07-1.92.29-2.94.2-.32-.01-.29-.07-.06-.26.16-.14.33-.28.47-.4.19-.18.44-.34.72-.41.99-.31,1.99-.57,3.01-.75.52-.05,1.03-.07,1.55-.08h.78c.29.01.7.06.97.16.7.22,1.31.49,1.91.78.6.29,1.17.62,1.7,1.01.3.22.55.42.87.68.43.36.84.73,1.19,1.1.7.76,1.06,1.43,1.1,2.06.01.18-.04.38-.16.58-.29.3-.59.45-.92.46-.33.03-.68,0-1.08-.1-.39-.09-.82-.25-1.24-.43l-1.16-.51c-.57-.25-1.15-.49-1.68-.57-.23-.04-.34-.03-.6,0-.24.03-.46.07-.69.11-.45.09-.84.24-1.23.38-.17.07-.33.15-.5.23-.64.3-.91.37-1.28.12-.08-.05-.17-.09-.24-.14-.2-.16-.13-.62.34-1.06.35-.33.77-.65,1.25-.91.49-.26,1.03-.36,1.52-.45.25-.04.49-.07.73-.09.19-.02.7-.03.95.03.61.09,1.1.27,1.57.44l.5.2.24.1c.1.04.03.02.05.03,0,0,0,.01.01.02.02.02.07.07.13.08l.09.07Z"/><path class="cls-2" d="M349.52,203.91c-1.54-1.63-3.91-2.91-6.27-3.88-.86-.38-1.79-.59-2.68-.91-3.18-1.02-6.51-1.62-9.88-1.89-.75-.08-1.5-.06-2.25-.06-.75-.01-1.5.05-2.24.12-.96.04-1.9.25-2.86.31-.48.03-.96.08-1.44.14-.24.05-.48.03-.74,0-.25-.01-.5-.01-.75-.02-.63-.03-.54,0-.08-.27.23-.14.55-.36.94-.71.4-.27.89-.53,1.44-.68.98-.29,1.99-.52,3.01-.6,1.02-.12,2.04-.22,3.06-.23,2.05-.07,4.11.06,6.13.44,2.41.46,4.93.89,7.33,1.68,2.62.89,5.2,1.98,7.49,3.7.36.25.7.55,1.03.87.34.3.63.64.92.97.55.67,1.06,1.36,1.54,2.06,1.43,2.14,2.7,4.35,3.6,6.83.15.42.38,1.16.4,1.85.03.66-.23,1.39-.84,1.7-.58.35-1.28.59-2.01.49-.71-.07-1.48-.49-1.91-.86-.43-.34-.77-.71-1.05-1.12-1.03-1.53-.83-2.19-.32-2.74.11-.12.2-.26.29-.34.16-.13.37-.07.71.09.35.16.69.47.98.88.43.61.96,1.13,1.37,1.37.22.1.25-.04.28-.08,0-.03,0-.06-.02-.07-.02-.04.02.12-.13-.38-.23-.72-.58-1.49-.96-2.25-1.14-2.23-2.54-4.58-4.14-6.37l.04-.04Z"/><path class="cls-2" d="M48.7,202.3c-.14.12-.37.28-.46.33l-.29.17-.58.33-1.14.66c-.28.16-.51.38-.79.53-.98.56-2.04.99-3.05,1.51-.45.22-.87.5-1.29.77-.26.19-.55.34-.84.48-.29.15-.63.23-1.04.15-.34-.25-.22-.08-.21-.45,0-.2.03-.38.05-.62.02-.11.03-.25.06-.35.04-.09.09-.17.15-.23.42-.48.94-.82,1.47-1.17.53-.34,1.08-.66,1.67-.93.7-.33,1.3-.87,1.97-1.29l2.19-1.39c.26-.18.35-.2.45-.29.1-.09.16-.2.2-.36.13-.59.12-1.47.11-2.31-.02-.66-.12-1.38.03-2.13.03-.16.04-.34.11-.5.24-.6.58-.66,1.14-.43.13.05.27.1.39.17.41.22.65.61.7.93.05.47.1.9.15,1.33v1.5c0,.43,0,.89-.08,1.49-.02.15-.06.31-.09.5l-.2.6c-.09.19-.19.38-.3.56l-.42.47-.05-.04Z"/><path class="cls-2" d="M210.22,169.03c-.15.44-3.71,8.72-11.72,10.6-8.15,1.91-16.69-1.18-21.37-2.89-4.19-1.53-12.04.21-15.73,3.54-3.7,3.34,2.43-4.13,5.72-5.56,3.29-1.42,6.72-1.85,8.35-1.84s6.01,1.77,9.03,2.07,8.32.76,10.97.56c3.84-.29,9.01-3.89,9.01-3.89l5.74-2.59Z"/><path class="cls-2" d="M147.81,196.57c-3.68,4.25-7.78,8.47-12.69,11.62-.9.57-1.78,1.15-2.73,1.65-.91.54-1.88,1-2.85,1.42-6.89,2.89-14.46,3.93-21.76,2.93-3.23-.45-6.44-1.16-9.47-2.26-3.87-1.42-7.7-3.26-10.67-6.17-.99-.8-.82-.73.14-.25.48.25,1.22.51,2.14.75.88.3,1.89.66,2.96,1.08,3.7,1.66,7.56,2.79,11.45,3.66,1.96.4,3.94.65,5.93.81,1.99.09,4,.15,6.01,0,2.4-.16,4.85-.63,7.22-1.36,2.39-.67,4.66-1.71,6.85-2.83,4.82-2.5,8.93-6.22,12.62-10.35,2.28-2.55,4.45-5.25,6.74-7.89,3.49-3.99,7.35-7.72,11.62-10.91,3.33-2.43,6.86-4.66,10.97-5.86.44-.15.9-.24,1.35-.36.45-.12.91-.22,1.39-.27,1.75-.27,2.94-.18,3.74,0,.81.17,1.24.56,1.55,1.05.14.23.33.46.39.67.11.37-.19.66-.78.88-.59.21-1.47.35-2.58.49-6.57.78-12.74,4.61-18.16,9.46-4.04,3.63-7.65,7.74-11.31,12.1l-.07-.05Z"/><path class="cls-2" d="M159.64,131.59c2.47-2.32,4.92-4.18,7.24-6.31.84-.77,1.61-1.61,2.42-2.4,2.88-2.78,5.51-5.8,7.71-9.15.96-1.49,1.79-3.08,2.44-4.71.43-1.04.84-2.09,1.22-3.16.36-1.07.77-2.13,1.33-3.18.36-.66.36-.57.53.09.15.65.74,1.97.42,3.33l-.4,1.81c-.17.59-.32,1.2-.51,1.78-.44,1.15-.93,2.29-1.49,3.39-1.12,2.2-2.46,4.28-4.05,6.16-1.9,2.24-3.77,4.63-5.86,6.74-2.29,2.32-4.76,4.45-7.14,6.54-.72.65-1.45,1.29-2.07,1.95-.12.14-.33.37-.39.44-.08.09-.15.19-.21.3-.17.22-.05.48.03.71l.79,2.02c.27.7.54,1.41.8,2.13.51,1.44.98,2.9,1.33,4.42.25,1.19.5,2.4.38,3.78-.1,1.34-.82,3.08-2.6,3.75-.76.29-1.56.3-2.24.15-1.26-.31-1.82-.79-2.15-1.19-.16-.21-.26-.4-.3-.61-.03-.22,0-.45.03-.67.03-.2.04-.4.09-.55.13-.46,1.24-.55,2.26-.21.38.12.74.16.98.13.25-.02.32-.12.38-.19.15-.21.32-.5.34-1.19.03-.68-.09-1.57-.31-2.47-.21-.91-.51-1.86-.84-2.81-.5-1.42-1.08-2.84-1.7-4.34l-.23-.57-.13-.34-.2-.56c-.13-.37-.23-.75-.21-1.12-.02-.37.06-.75.2-1.11.16-.35.28-.71.53-1.02l.33-.48c.11-.15.17-.21.25-.31.32-.39.63-.7.94-1.01l.06.05Z"/><path class="cls-2" d="M109.08,247.43c5.17.65,10.47.74,15.66.13,1.89-.28,3.76-.63,5.6-1.09,6.56-1.46,12.78-4.37,18.41-8.18,2.49-1.71,4.88-3.62,7.1-5.65,2.89-2.58,5.48-5.48,8.65-7.82.98-.74,1.08-.42.71.66-.19.54-.48,1.28-.86,2.15-.41.84-1.05,1.69-1.81,2.54-5.63,5.74-12.07,10.98-19.55,14.51-4.44,2.11-9.24,4.06-14.2,5.02-5.44,1.08-10.99,1.3-16.47.95-3.37-.23-6.75-.67-10.04-1.46-5.01-1.12-9.81-3.04-14.4-5.14-3.56-1.65-7.02-3.34-10.43-5.18-.75-.4-1.5-.78-2.24-1.21-1.39-.78-2.22-1.42-2.77-1.92-.55-.5-.77-.95-.87-1.44-.05-.22-.14-.45-.14-.62-.03-.54,1.4-.39,3.49.62,6.18,3.02,12.38,6.61,18.98,9.17,2.45.92,4.93,1.81,7.47,2.42,1.26.37,2.55.58,3.83.88,1.3.19,2.58.47,3.89.59v.07Z"/><path class="cls-2" d="M49.75,189.52c.72-1.17,1.56-2.32,2.83-3.23l.46-.35.54-.29c.37-.18.7-.39,1.14-.48.4-.1.89-.25,1.21-.27.34-.04.68-.07,1.02-.08.34-.02.68-.02,1.02-.02l.73.03c.28.01.55.05.82.08.55.04,1.04.18,1.55.28.44.16.91.31,1.27.52.76.4,1.31.88,1.7,1.48.18.3.31.66.39,1.05.06.39,0,.81-.08,1.19-.31.92-.83,1.3-1.58,1.7-.77.4-2.2.52-3.43.71-.57.11-.67.15-.87.22-.11.04-.14.05-.16.07-.03,0-.07.05-.11.08-.2.18-.45.56-.67.98-.43.86-.77,1.89-1.06,2.92-.14.37.01,1.1.39,1.84.37.74.9,1.47,1.51,2.12.3.32.63.63.96.89.17.13.34.26.5.36.1.07.15.09.23.14.15.07.35.13.49.02.13-.11.22-.26.3-.44.28-.7.42-1.67.52-2.62.1-.96.15-1.97.23-2.99.08-1.03.18-2.08.43-3.18.05-.24.18-.66.31-1.02.14-.36.31-.7.52-1.01.41-.62.97-1.07,1.62-1.32,1.24-.26,2.43.56,3.15,1.68.17.28.37.6.48.86.11.23.21.46.3.68.18.46.34.91.48,1.36.55,1.81.88,3.6,1.23,5.35l.38,1.87c.12.57.32,1.31.42,1.42.08.19.88.57,1.66,1.07.79.5,1.53,1.22,2.05,2.03.53.82.89,1.69,1.09,2.57.03.46.14.89.09,1.35-.04.45-.06.89-.11,1.32-.2,1.49-.08,1.25-.62.12-.25-.57-.94-1.3-1.61-2.04-.65-.74-1.24-1.48-1.96-2.01-.35-.27-.67-.55-1.17-.84-.25-.16-.53-.31-.89-.55l-.29-.2-.35-.32c-.25-.2-.44-.46-.63-.71-.12-.22-.24-.44-.33-.68-.05-.12-.09-.23-.12-.35l-.07-.25c-.08-.31-.15-.59-.21-.86-.12-.54-.21-1.05-.29-1.55-.18-1.01-.33-1.98-.53-2.94-.19-.95-.4-1.89-.65-2.77-.12-.44-.27-.86-.42-1.25-.07-.19-.16-.4-.23-.53-.01-.04,0-.04-.01-.06,0-.05-.08-.18-.17-.13-.04.01-.08.05-.11.09-.02.03-.03.03-.05.09-.06.18-.11.39-.16.6-.38,1.73-.45,3.79-.78,5.92-.12.75-.27,1.52-.54,2.33-.12.34-.38,1.02-.71,1.48-.34.48-.72.93-1.25,1.15-.53.22-1.12.21-1.69.07-.28-.07-.56-.18-.84-.31-.26-.12-.57-.29-.72-.4-.73-.47-1.34-1-1.91-1.57-1.11-1.17-2.12-2.44-2.64-4.23-.12-.45-.2-.94-.18-1.48,0-.27.05-.55.12-.83l.16-.55c.22-.73.48-1.46.8-2.18.34-.72.69-1.44,1.33-2.16.31-.35.77-.74,1.31-.95.23-.09.44-.16.65-.22.27-.07.3-.08.38-.09.27-.05.52-.06.8-.09.26-.04.58-.07.75-.33.16-.33-.08-.67-.38-.8-.3-.15-.64-.23-.99-.27l-.27-.03h-.13c-.09,0-.2-.02-.29-.01-.4,0-.8.01-1.19.05-.19.03-.42.03-.57.07-.15.04-.3.08-.46.12-.31.05-.6.29-.91.41-1.33.89-2.45,2.4-3.24,4.03-.8,1.64-1.33,3.45-1.53,5.27-.14,1.38-.11,2.78.23,4.07l.33.93c.14.29.32.56.47.84l1.25,1.83c1.67,2.39,3.5,4.66,5.62,6.59,1.64,1.51,3.43,2.81,5.35,3.79,1.91.95,4.07,1.71,6.15,2.58.93.38,1.84.75,2.77,1.21,3.45,1.72,4.27,3.04,4.36,4.02.02.24.07.52.02.69-.2.59-1.28-.37-3.48-1.59-1.66-.91-3.51-1.63-5.41-2.38-1.92-.77-3.85-1.45-5.88-2.52-3.96-2.15-7.23-5.34-9.95-8.79-1.01-1.27-1.96-2.66-2.85-3.88-1.23-1.7-1.67-3.64-1.76-5.44-.09-1.81.14-3.57.56-5.27.42-1.7,1.07-3.34,2-4.9l.07.03Z"/><path class="cls-2" d="M68.42,188.14c-1.09.7-2.17,1.42-3.25,2.16-.39.27-.73.61-1.13.88-1.39.96-2.83,1.86-4.25,2.79-.63.41-1.21.89-1.79,1.37-.36.32-.74.61-1.14.88-.21.12-.38.29-.64.34-.13.02-.27.04-.4.06-.13.02-.33-.05-.46-.01-.32.07-.35-.03-.3-.39.04-.16-.05-.58-.04-.92,0-.17-.02-.4.02-.55.05-.13.12-.26.22-.36.64-.75,1.41-1.33,2.19-1.91.78-.57,1.59-1.11,2.45-1.6,1.04-.58,1.92-1.43,2.88-2.15,1.06-.79,2.16-1.55,3.25-2.31l2.04-1.39c1.03-.7,2.09-1.36,3.09-2.08.78-.56,1.45-1.25,2.2-1.85.16-.13.31-.28.49-.4.65-.44.97-.4,1.49.16.12.13.25.25.35.38.36.46.33,1.03-.05,1.48-1.12,1.34-2.54,2.3-3.96,3.29-1.06.73-2.15,1.43-3.21,2.18l-.04-.05Z"/><path class="cls-2" d="M38.17,205.53c-.53-.09-1.08-.24-1.66-.3-.21-.03-.42.02-.63-.01-.76-.11-1.54-.17-2.31-.32-.34-.06-.69-.06-1.02-.07-.43.02-.87-.06-1.3-.25-.13-.06-.11-.21,0-.41.12-.19.33-.49.57-.59.43-.19.85-.22,1.27-.31.42-.05.84-.12,1.28-.03.53.09,1.06-.07,1.6-.1.6-.03,1.22-.03,1.84.01.38.03.77.09,1.15.13.58.08,1.15.21,1.71.27.44.04.9-.03,1.37-.05.1,0,.2-.03.3-.01.37.04.43.24.31.93-.03.16-.05.31-.09.47-.12.52-.38.91-.65,1-.8.23-1.5.13-2.2,0-.52-.1-1.03-.21-1.57-.28v-.06Z"/><path class="cls-2" d="M39.27,207.96c-.47.14-.93.28-1.41.4-.17.05-.31.16-.49.2-.62.14-1.24.28-1.84.46-.28.06-.52.18-.76.29-.16.08-.3.17-.46.23-.15.09-.38.02-.58.01-.14-.03-.21-.19-.25-.47-.03-.25-.11-.76,0-.95.51-.53,1.03-1.05,1.79-1.13.44-.07.76-.4,1.15-.6.43-.21.86-.41,1.32-.57.28-.11.56-.21.82-.33.41-.18.84-.33,1.2-.58.28-.19.48-.52.72-.79.05-.06.09-.14.15-.19.26-.11.44.03.82.58l.26.37c.27.42.39.85.32,1.15-.25.8-.82,1.09-1.39,1.41-.43.22-.89.39-1.33.58l-.03-.06Z"/><path class="cls-2" d="M41.29,207.85c-.38.39-.76.78-1.12,1.18-.13.15-.22.32-.36.46-.51.49-1.02.98-1.49,1.5-.2.24-.4.47-.59.71-.25.31-.43.65-.85.85-.12.07-.19,0-.28-.17-.06-.16-.27-.51-.18-.73.12-.4.25-.79.41-1.16.19-.36.45-.67.73-.97.35-.35.53-.83.79-1.25.31-.45.65-.88.98-1.31.2-.27.41-.54.61-.8.29-.41.62-.81.86-1.25.19-.35.25-.77.36-1.16.03-.08.04-.18.08-.26.15-.29.33-.28.89.03l.38.21c.42.26.68.6.68.88.01.84-.41,1.42-.83,2.01-.32.43-.69.83-1.03,1.25l-.04-.03Z"/><path class="cls-2" d="M279.39,175.59c-5.15-1.73-10.33-3.35-15.56-4.77-1.92-.47-3.84-.94-5.77-1.36-6.77-1.63-13.64-2.81-20.57-3.42-1.54-.1-3.09-.18-4.63-.24-1.54-.01-3.09.03-4.62.03-3.94.1-7.85.53-11.84.54-1.25-.03-1.11-.15-.12-.63.98-.5,2.83-1.38,5.12-1.88,8.16-1.24,16.52-.99,24.67.41,4.88.8,9.95,1.66,14.86,2.79,5.4,1.27,10.71,2.86,15.97,4.54,3.24,1.04,6.45,2.14,9.66,3.24,2.42.84,4.85,1.69,7.28,2.53,2.41.85,4.85,1.63,7.28,2.54,3.75,1.41,7.38,2.97,10.88,4.87.77.42,1.53.82,2.29,1.28,2.78,1.74,3.51,2.55,3.56,3.65.02.24.08.5.06.68-.07.58-1.51.34-3.48-.84-2.99-1.69-6.11-3.31-9.34-4.77-1.61-.74-3.26-1.42-4.93-2.05-1.66-.64-3.36-1.18-5.14-1.78-5.22-1.75-10.41-3.6-15.63-5.29l.02-.07Z"/><path class="cls-2" d="M350.71,215.37h.05s.09-.03.11-.08c.01-.03.02-.05.03-.09,0-.05.02,0-.01-.26-.1-.76-.3-1.58-.55-2.38-.2-.63-.48-1.23-.72-1.85-.42-1.08-.9-2.18-1.47-3.12-.51-.87-1.4-1.6-2.36-2.27-.85-.59-1.8-1.06-2.77-1.47-.31-.13-.62-.25-.94-.37l-.92-.42c-.61-.31-1.24-.52-1.84-.91-.38-.24-.31-.3.1-.46.42-.19,1.21-.44,2.05-.34.37.04.74.1,1.11.16.37.07.71.22,1.05.34.69.26,1.37.56,2.04.89,1.33.68,2.62,1.54,3.69,2.87.64.83,1.06,1.62,1.52,2.42.44.8.85,1.61,1.19,2.45.37.92.7,1.86.95,2.84.06.25.12.5.17.75l.07.38.07.46c.1.75.09,1.5-.14,2.11-.13.37-.37.69-.71.91-1.11.67-2.48.16-3.44-.73-.8-.74-1.32-1.47-1.84-2.27-.49-.79-.95-1.65-1.27-2.51-.5-1.2-1.28-2.27-2.11-3.18-.18-.2-.39-.37-.56-.57-.32-.37-.53-.59-.63-.82-.08-.26-.1-.48-.09-.74,0-.12,0-.25,0-.35.02-.18.16-.28.45-.32.29-.04.73-.02,1.15.24,1.32.68,2.19,1.81,2.96,2.96.38.59.71,1.21,1,1.87.17.4.21.5.35.77.12.23.26.48.4.71.43.71.94,1.41,1.47,1.95.38.37.22.23.27.29.01.02.04.04.07.05l.04.08Z"/><path class="cls-2" d="M176.08,233.43c.23,1.26.44,2.52.64,3.79.21,1.26.4,2.53.58,3.79.13.92.37,1.83.47,2.76.2,1.63.35,3.27.47,4.92.15,1.64.23,3.29.33,4.93.08,1.46.2,2.92.26,4.37.01.93.02,1.87.03,2.81,0,.23-.02.47-.04.7l-.17.7c-.11.46-.22.92-.34,1.39-.15.57-.26.48-.51-.02-.16-.33-.33-.68-.49-1.02-.11-.23-.21-.45-.31-.67-.06-.12-.09-.24-.16-.36-.01-.12-.03-.25-.03-.38l-.27-2.75c-.03-.46-.11-.92-.16-1.38l-.1-1.38c-.05-.92-.14-1.85-.21-2.78-.06-.93-.12-1.87-.18-2.81-.12-2.25-.67-4.54-1-6.83l-.61-3.76-.67-3.75c-.31-1.53-.58-3.08-.93-4.6-.51-2.31-1.02-4.65-1.7-6.89-.26-.88-.57-1.73-.91-2.56l-.97-2.51c-.14-.36-.3-.72-.41-1.09-.22-.67-.29-1.18-.26-1.52.02-.34.13-.61.32-.88.09-.13.15-.27.24-.37.15-.17.36-.16.66.01.28.17.72.53,1.05,1l.72,1.1c.22.37.39.76.58,1.14.37.78.74,1.56,1.01,2.37.57,1.63,1.04,3.3,1.47,4.98.64,2.5,1.17,5.03,1.67,7.57l-.07.02Z"/><path class="cls-2" d="M241.83,214.56l3.97,6.92c.49.84,1.03,1.65,1.5,2.5,1.64,3.01,3.09,6.14,4.57,9.24.65,1.38,1.36,2.73,1.97,4.11.41.88.84,1.75,1.16,2.67.17.46.32.92.47,1.39.17.46.15,1,.24,1.48.06.63.09.53-.32.16-.21-.18-.55-.42-1.01-.69-.4-.29-.76-.69-1.09-1.14l-.87-1.21c-.29-.4-.52-.83-.78-1.24-.48-.85-1.05-1.65-1.48-2.53-.86-1.75-1.71-3.51-2.52-5.32-.48-1.08-1.06-2.13-1.69-3.17-.61-1.04-1.23-2.09-1.84-3.13-1.31-2.31-2.63-4.62-3.99-6.92l-2.5-4.25c-1.27-2.14-2.52-4.32-3.83-6.41-1.03-1.63-2.16-3.15-3.22-4.73-.24-.35-.48-.68-.7-1.04-.83-1.33-.84-1.9-.43-2.53.09-.14.17-.3.26-.41.3-.34,1.09-.07,1.86.8,2.15,2.66,4.12,5.61,6.07,8.62,1.43,2.24,2.88,4.49,4.26,6.78l-.06.04Z"/><path class="cls-2" d="M211.86,208.25c.93,2.24,1.84,4.49,2.72,6.75.33.82.71,1.62,1.01,2.45,1.09,2.92,2.07,5.88,3,8.85.43,1.31.87,2.63,1.34,3.91.61,1.65,1.13,3.35,1.21,5.15.03.56-.08.52-.46.15-.25-.24-.52-.51-.78-.76-.3-.32-.58-.72-.81-1.17-.19-.41-.44-.79-.58-1.21l-.45-1.25-.89-2.51c-.59-1.68-1.16-3.36-1.71-5.07-.64-2.05-1.59-4.08-2.43-6.1-.92-2.23-1.85-4.46-2.83-6.67-.6-1.36-1.2-2.72-1.83-4.07-.95-2.04-1.92-4.1-2.96-6.08-.82-1.54-1.77-2.96-2.68-4.43-.2-.32-.42-.63-.61-.96-.72-1.22-.71-1.74-.25-2.33.11-.14.2-.29.32-.4.4-.37,1.07-.07,1.75.75,1.88,2.5,3.48,5.36,4.93,8.3,1.07,2.19,2.06,4.43,3.05,6.67l-.06.03Z"/><path class="cls-2" d="M321.51,432.2c4.76-1.03,9.49-2.23,14.14-3.64,4.63-1.41,9.28-2.96,13.48-5.05,1.03-.53,2.05-1.09,2.88-1.71.42-.3.8-.63,1.02-.91.12-.16.12-.15.15-.22.02-.05.04-.11.02-.17,0-.06-.03-.36-.09-.6-.04-.24-.1-.51-.18-.78-.12-.53-.32-1.1-.48-1.65-.37-1.12-.78-2.25-1.22-3.38-1.76-4.51-3.79-8.98-5.89-13.41-3.07-6.47-6.42-12.81-9.76-19.14-5.91-11.17-12.13-22.19-18.63-33.04-3.25-5.43-6.58-10.79-9.98-16.14-3.39-5.36-6.76-10.74-10.08-16.13-5.91-9.57-11.84-19.2-17.7-28.7-3.77-6.1-7.54-12.21-11.31-18.32-3.66-6.17-7.32-12.34-10.97-18.49-2.25-3.83-1.88-3.41.73-.6,2.55,2.85,7.03,8.29,11.64,15.16,7.82,12.4,15.38,24.92,23.06,37.4,3.84,6.24,7.69,12.48,11.54,18.73,3.85,6.25,7.83,12.44,11.66,18.77,9.17,15.13,18.53,31,26.85,47.08,2.28,4.42,4.51,8.88,6.64,13.39,2.12,4.52,4.19,9.05,5.96,13.79.44,1.19.85,2.39,1.19,3.67.17.65.33,1.28.4,2.09.05.49.03.99-.14,1.46-.14.46-.43.93-.69,1.26-1.03,1.26-2.16,1.97-3.28,2.67-1.13.68-2.28,1.26-3.43,1.8-4.63,2.12-9.39,3.71-14.2,5.12-5.92,1.71-11.92,3.12-17.98,4.23-6.07,1.06-12.18,1.97-18.47,1.84-.92-.03-1.84-.09-2.78-.21-.47-.07-.94-.14-1.41-.24-.23-.04-.47-.11-.71-.17-.25-.06-.44-.13-.79-.24-.73-.26-1.3-.93-1.62-1.31-.38-.44-.7-.88-1.01-1.33-.62-.89-1.2-1.78-1.76-2.68-1.12-1.8-2.18-3.62-3.23-5.44-2.09-3.65-4.11-7.32-6.13-10.99-4.02-7.34-8.02-14.67-12.07-21.9-6.98-12.45-14.1-24.5-21.68-36.35-1.67-2.61-3.36-5.13-5.09-7.72-6.45-9.6-8.62-12.51-9.37-15.09-.19-.57-.49-1.29-.54-1.67-.21-1.29,3.45,1.92,8.52,8.85,7.51,10.26,14.37,21.34,21.05,32.7,6.68,11.36,13.1,23.08,19.56,34.76,2.46,4.44,4.92,8.89,7.43,13.3,1.26,2.2,2.52,4.4,3.83,6.53.65,1.07,1.32,2.12,2,3.12.34.49.69.98,1.02,1.4.16.19.34.42.45.51.02.04.02.01.02.03,0,0-.01,0,0,0l.16.05.35.09c.23.07.49.1.73.16.51.08,1.04.16,1.6.2,1.1.09,2.24.12,3.39.1,2.31-.03,4.67-.23,7.02-.5,4.71-.55,9.43-1.4,14.11-2.42l.04.08Z"/><path class="cls-2" d="M139.35,104.49c-.79,3.42-1.1,6.95-1.66,10.72-.15.95-.33,1.92-.68,2.98-.17.52-.41,1.09-.79,1.68-.17.28-.49.62-.71.85l-.51.46c-1.37,1.24-2.73,2.45-4.04,3.69-1.92,1.8-3.69,3.69-5.2,5.68-1.34,1.76-2.42,3.66-3.18,5.71-.76,2.05-1.2,4.24-1.39,6.46-.34,4.39.59,8.91,3.14,12.52,2.26,3.19,5.6,5.62,9.25,7.09,2.38.9,4.87,1.47,7.4,1.81.63.13,1.27.14,1.91.22.64.08,1.28.13,1.92.18,1.29.09,2.58.21,3.92.37,1.67.23,1.47.17.13.81-.68.27-1.63,1.02-2.88,1.32-.62.18-1.31.42-2.04.55-.74.07-1.52.11-2.34.11-1.45-.04-2.9-.21-4.32-.55l-2.13-.52-2.08-.72c-2.73-1.07-5.41-2.45-7.68-4.44-2.27-1.96-4.17-4.4-5.49-7.13-1.24-2.77-1.87-5.76-1.96-8.71.06-1.76.1-3.54.38-5.26.29-1.73.65-3.49,1.29-5.18,1.17-3.41,3.24-6.49,5.58-9.04,2.58-2.82,5.42-5.21,8.1-7.71.36-.29.63-.97.84-1.77.21-.79.35-1.68.47-2.56l.68-5.48c.6-4.55,1.64-9.19,3.78-13.42,1.63-3.18,3.9-6.08,6.68-8.33,2.77-2.26,5.89-4.01,9.33-5.05,5.33-1.53,10.94-1.38,16.2.17,1.16.34,2.29.73,3.41,1.25,2.08.96,3.31,1.95,4.06,2.75.68.89.93,1.52.93,2.17,0,.29.05.61,0,.8-.1.33-.53.23-1.19-.13-.66-.36-1.69-.86-2.92-1.6-3.79-2.05-8.35-3.16-12.83-3.19-2.25-.01-4.49.26-6.61.87-.52.18-1.06.3-1.56.52l-1.51.65-1.52.81-1.45.89c-1.4.94-2.71,2-3.88,3.18-1.18,1.19-2.2,2.52-3.08,3.95-1.78,2.86-2.92,6.14-3.67,9.58h-.08Z"/><path class="cls-2" d="M439.19,180.36c-2.19-5.66-3.3-11.62-3.73-17.57-.43-5.95-.22-11.92.55-17.81.55-4.3,1.37-8.57,2.52-12.76,1.15-3.65,2.36-7.31,4.1-10.76.78-1.76,1.76-3.43,2.77-5.08,1.03-1.64,2.16-3.24,3.46-4.72,2.56-2.95,5.78-5.6,9.7-6.85,1.94-.63,3.99-.9,6.02-.83,2.03.09,4.04.56,5.9,1.36,3.33,1.4,6.04,3.84,8.22,6.53,2.17,2.71,3.86,5.72,5.21,8.82,1.74,3.97,3.09,8.11,3.97,12.33.82,4.23,1.42,8.53,1.09,12.84-.3,1.35-.45,1.92-.47,1.88-.04-.04-.02-.69-.41-1.79-.39-1.09-.77-2.64-1.38-4.47-.55-1.83-1.12-3.97-1.72-6.28-.26-1.02-.54-2.04-.83-3.05-.26-1.02-.56-2.03-.86-3.03-.61-2-1.32-3.97-2.13-5.88-.81-1.91-1.73-3.76-2.76-5.51-1.02-1.76-2.17-3.42-3.49-4.88-2.61-2.95-5.97-5-9.74-5.37-1.88-.2-3.79-.02-5.6.56-1.82.57-3.54,1.54-5.12,2.77-3.79,2.97-6.71,7.4-8.9,12.1-2.23,4.7-3.82,9.77-4.99,14.87-1.27,5.62-2,11.39-2.14,17.16-.14,5.77.3,11.57,1.5,17.2.13.88.42,1.72.63,2.58.24.85.42,1.72.71,2.55.61,1.65,1.11,3.36,1.91,4.93.39.79.69,1.63,1.15,2.37l1.35,2.26c.93,1.48,2.01,2.89,3.2,4.16,1.78,1.96,3.88,3.63,6.23,4.78,2.33,1.19,4.93,1.75,7.52,1.61,2.59-.11,5.12-.98,7.41-2.27,2.3-1.27,4.32-3,6.07-4.97,2.71-3.08,4.7-6.72,6.23-10.5,1.53-3.79,2.6-7.75,3.37-11.78.34-1.78.59-3.53.82-5.33.77-6.71,1.01-8.84,1.87-10.29.19-.33.37-.77.54-.97.53-.67,1.26,2.17,1.06,7.3-.46,7.58-1.97,15.37-5.15,22.8-1.62,3.69-3.69,7.29-6.46,10.45-2.75,3.15-6.29,5.81-10.39,7.25-1.51.57-3.14.89-4.78,1.05-1.65.1-3.31.02-4.92-.33-3.23-.69-6.15-2.29-8.6-4.28-4.97-3.95-8.35-9.4-10.59-15.09l.07-.04Z"/><path class="cls-2" d="M446.28,172.26c-1.44-3.53-2.14-7.2-2.5-10.87-.33-3.67-.35-7.35,0-11,.24-2.66.55-5.33,1.17-7.94,1.13-4.59,2.81-9.14,5.7-13.1,1.45-1.96,3.26-3.74,5.44-5,.55-.32,1.1-.62,1.69-.84l.88-.36.92-.25c.6-.19,1.23-.27,1.86-.35.61-.1,1.29-.12,1.94-.08,2.37.12,4.55,1.27,6.21,2.71,1.68,1.46,2.97,3.22,4.02,5.05,1.34,2.36,2.42,4.83,3.12,7.42.63,2.59,1.15,5.26.77,7.96-.31.84-.47,1.18-.49,1.16-.04-.02,0-.43-.37-1.09-.37-.66-.71-1.57-1.26-2.63-.49-1.06-.99-2.3-1.48-3.63-.21-.59-.45-1.18-.67-1.76-.21-.59-.43-1.17-.66-1.75-.47-1.15-1-2.27-1.59-3.33-1.2-2.11-2.62-4.06-4.31-5.36-3.18-2.68-8.33-1.24-11.72,2.06-1.05.99-1.95,2.19-2.78,3.46-.77,1.31-1.51,2.68-2.07,4.14-1.19,2.9-1.97,6.01-2.53,9.13-.63,3.43-.92,6.94-.91,10.44,0,3.51.37,7.01,1.09,10.42.46,2.09,1.09,4.14,1.98,6.06.88,1.91,2.07,3.66,3.63,5,2.32,2.1,5.59,2.95,8.61,2.21,3.05-.73,5.7-2.73,7.67-5.21,3.03-3.97,4.51-8.84,5.31-13.69.14-1.08.27-2.14.35-3.23.3-4.05.46-5.31,1.22-6.25.17-.21.33-.49.49-.62.28-.22.55.08.84.85.31.77.51,2.01.57,3.61.03,2.37-.23,4.76-.66,7.16-.43,2.39-1.11,4.78-2.07,7.1-.96,2.32-2.16,4.6-3.79,6.66-1.63,2.04-3.69,3.89-6.16,5.1-1.8.93-3.87,1.48-5.99,1.47-2.12-.01-4.24-.6-6.04-1.65-1.84-.99-3.37-2.41-4.6-4-1.25-1.6-2.13-3.35-2.88-5.12l.06-.04Z"/><path class="cls-2" d="M463.26,153.1c-.14,4.79-2.42,8.6-5.08,8.51-4.79-.16-5.05-10.48-3.37-14.1.75-1.61,2.05-3.32,3.89-3.26,2.66.09,4.71,4.05,4.56,8.84Z"/><path class="cls-2" d="M204.3,76.95c4.67,1.02,9.05,3.38,12.36,6.8,1.23,1.22,2.34,2.57,3.24,4.05,1.53,2.62,2.64,5.37,3.29,8.3.65,2.91.79,5.95.3,8.9-.43,2.61-1.29,5.15-2.58,7.44-.82,1.48-1.87,2.85-3.17,3.98-.66.56-1.35,1.09-2.16,1.46-.81.35-1.68.63-2.6.63-.58-.04-.81-.19-.79-.32.02-.14.28-.29.64-.59.35-.3.79-.7,1.22-1.21.22-.26.43-.55.67-.83.24-.27.51-.54.78-.83,1.94-2.05,3.38-4.67,4.21-7.46.79-2.81,1.07-5.79.74-8.82-.2-1.81-.74-3.63-1.51-5.37l-.61-1.29-.68-1.26-.73-1.19c-.26-.39-.54-.76-.8-1.14-2.42-3.29-5.94-5.76-9.88-7.11-2.42-.84-5-1.28-7.59-1.25-3.92.02-7.89,1-11.29,2.96-1.33.74-2.51,1.7-3.62,2.69-1.07,1.05-2.09,2.13-2.97,3.33-.42.5-.72,1.08-1.11,1.61-1.37,2.02-1.84,2.63-2.97,2.65-.24.01-.5.06-.7.04-.65-.05-.84-1.36.09-3.16,1.33-2.66,3.24-5.19,5.63-7.28,2.4-2.07,5.23-3.78,8.31-4.84,4.55-1.62,9.56-1.94,14.3-.98v.09Z"/><path class="cls-2" d="M217.05,158.36c-1.5,4.57-3.9,9.06-7.73,12.33-.5.38-.96.8-1.49,1.14l-1.58,1-1.61.85-1.66.73c-2.25.91-4.6,1.52-6.98,1.86-3.47.52-7.03.47-10.46-.18-3.03-.58-5.97-1.58-8.71-2.94-2.75-1.34-5.35-3.05-7.65-5.06-4.61-4.04-8.13-9.11-10.86-14.42l-.87-1.65c-.28-.51-.61-1.18-.76-1.28-.63-.49-1.44-1.04-2.24-1.33-.82-.3-1.67-.47-2.51-.44-1.67.08-3.21,1.02-3.85,2.42-.29.59-.4,1.21-.37,1.93,0,.74.11,1.45.31,2.14.4,1.37,1.21,2.58,2.32,3.47l.42.34.46.28c.3.21.63.35.96.5.64.34,1.35.57,2.08.74.73.16,1.48.24,2.25.24.38.01.76-.06,1.15-.08.2,0,.38-.07.57-.1l.28-.06c.06.01.07-.08.16.02h.16c1.04,0,1.53-.09,1.52-.03-.01.05-.44.27-1.15.95l-.14.12c-.03.11-.1.09-.15.14-.11.07-.23.15-.35.22-.25.17-.53.31-.84.44-.62.3-1.36.52-2.22.71-.43.07-.88.11-1.36.15-.47-.01-.98,0-1.5-.06-.51-.09-1.05-.15-1.59-.32-.52-.2-1.06-.41-1.56-.74-1.04-.57-1.94-1.41-2.76-2.31-.74-.96-1.41-2.02-1.78-3.19-.09-.29-.19-.58-.27-.88l-.15-.89c-.13-.6-.11-1.19-.12-1.78-.02-1.2.29-2.67.99-3.83.69-1.19,1.74-2.14,2.92-2.75,1.18-.62,2.48-.9,3.75-.91,1.28-.03,2.49.3,3.6.75l.82.37.76.45c.26.15.5.31.72.49l.76.59c.22.27.48.56.66.82l.34.6.52,1.01,1.02,1.94c.69,1.27,1.4,2.52,2.17,3.74,1.5,2.45,3.14,4.82,5.04,6.96,2.65,2.95,5.8,5.52,9.51,7.25,3.66,1.78,7.67,2.84,11.71,3.11,4.43.33,8.94-.43,13.01-2.19,2.06-.89,3.92-2.02,5.47-3.55,1.56-1.52,2.86-3.33,3.88-5.31,2.51-4.87,3.6-10.49,3.7-16.01l-.02-1.57c-.02-.52-.08-1.01-.12-1.52-.14-1.02-.32-2.05-.56-3.08-.47-2.06-1.06-4.11-1.73-6.14-1.33-4.06-2.9-8.06-4.63-11.94-.34-.75-.68-1.5-1.04-2.23-.36-.7-.75-1.58-1.02-1.75-.17-.13-.53-.35-.86-.52-.34-.18-.69-.35-1.06-.52-.72-.34-1.47-.65-2.23-.96-3.02-1.25-6.09-2.46-9.12-3.84-1.34-.61-2.65-1.2-3.98-1.91-2.45-1.31-3.98-2.42-4.91-3.39-.47-.48-.8-.9-1.02-1.3-.22-.41-.32-.8-.39-1.14-.05-.33-.16-.71-.15-.93.04-.38.5-.21,1.38.2.9.39,2.11,1.16,3.8,2.06,4.94,2.78,10.54,4.82,16.24,7.27.72.31,1.44.64,2.18,1,.37.18.75.38,1.14.6.41.26.78.41,1.41,1.01.26.27.54.56.7.87.18.3.28.49.37.67.19.37.38.75.55,1.1.35.73.67,1.44,1,2.17,1.28,2.89,2.46,5.81,3.54,8.79.8,2.22,1.56,4.45,2.2,6.75.64,2.31,1.23,4.64,1.49,7.2.13,1.33.12,2.51.09,3.75-.03,1.22-.13,2.44-.3,3.65-.32,2.42-.82,4.81-1.56,7.15h-.08Z"/><path class="cls-2" d="M76.8,181.09c.05.11.2.07.4-.13.08-.12.2-.33.27-.5l.13-.22s.03-.04.05-.06c.07-.07.15-.16.23-.28.11-.14-.03-.21-.11-.27-.09-.07-.21-.12-.35-.2-.03,0-.23-.09-.4-.14l-.51-.17c-.61-.19-1.24-.36-1.87-.5-.8-.19-1.63-.29-2.39-.74-.24-.13-.18-.27.08-.46.13-.1.31-.22.52-.34.21-.13.45-.22.69-.22.86-.02,1.72-.02,2.59.05.44.02.86.12,1.29.23.28.07,1.24.33,1.88.58l.55.28c.12.13.3.22.39.36l.28.42c.1.16.2.34.15.53-.02.37-.07.74-.2,1.15-.1.37-.39.84-.47,1.12-.07.13-.14.27-.22.39-.08.14-.13.21-.26.46-.24.41-.47.81-.71,1.2-.24.37-.48.79-.73,1.07-.26.29-.5.53-.74.72-.14.1-.28.19-.41.25-.07.04-.13.06-.2.09-.02-.02-.04.06-.05-.03-.03,0-.06,0-.08,0-.05-.01-.09-.03-.12-.05-.28-.13-.51-.41-.77-.73-.39-.5-.73-1.29-1.05-2l-.47-.98c-.12-.23-.24-.46-.38-.67-.42-.68-1-1.22-1.55-1.75-.12-.12-.26-.21-.37-.33-.43-.43-.39-.7.06-1.33.1-.14.18-.28.28-.4.29-.38.94-.61,1.42-.3.73.44,1.35,1.02,1.89,1.66.27.32.51.66.74,1.01l.33.53.15.27.06.11h0s-.05.09,0,.21v.14Z"/><path class="cls-2" d="M82.17,218.74c-.76,1.3-1.53,2.61-2.42,3.86-.31.46-.6.94-.93,1.38-1.22,1.54-2.58,2.94-3.95,4.29-.62.58-1.19,1.23-1.78,1.82-.4.37-.76.77-1.18,1.11-.39.38-.92.6-1.39.88-.31.15-.4,0-.39-.41,0-.2.03-.46.08-.76.03-.15.06-.3.1-.46.02-.08.05-.15.07-.23.04-.06.08-.13.13-.19l1-1.27c.34-.41.73-.77,1.09-1.17.74-.77,1.47-1.53,2.23-2.28.91-.91,1.59-2.06,2.28-3.16.76-1.21,1.53-2.43,2.21-3.72.43-.78.84-1.59,1.24-2.4.59-1.23,1.21-2.47,1.71-3.75.39-.99.62-2.03.91-3.06.07-.23.12-.45.21-.67.34-.8.64-.97,1.4-.83.17.03.35.05.51.1.56.16.85.68.77,1.34-.21,1.95-1.03,3.74-1.83,5.57-.61,1.35-1.31,2.69-2.01,4.03l-.06-.03Z"/><path class="cls-2" d="M332.16,214.65c-.58-.74-1.27-1.49-1.96-2.29l-.26-.31c-.12-.13-.29-.36-.43-.53-.3-.37-.56-.74-.77-1.12-.19-.38-.36-.75-.4-1.11-.06-.36.01-.7.1-1.09.58-1.3,2.16-1.68,3.83-1.69.26,0,.3.01.46.03l.39.04c.26.03.51.06.77.11.51.08,1,.19,1.49.33,1.5.43,3.03.96,4.37,2.11.23.2.45.42.65.66.2.23.33.41.49.61l.9,1.14c.6.75,1.21,1.49,1.83,2.19.6.68,1.43,1.52,1.54,1.62.14.13.3.26.48.37.17.1.45.18.57-.01.08-.21.06-.44.05-.67-.02-.12-.03-.24-.05-.36l-.03-.19-.06-.25c-.52-2.02-1.5-4-2.92-5.38-.95-.94-2.09-1.7-3.2-2.43-.55-.39-1.13-.7-1.7-1.04-.57-.35-1.18-.64-1.83-.85-.81-.33-.75-.26.04-.53.4-.12.99-.24,1.74-.28.37-.02.79-.03,1.21.03.41.08.84.2,1.26.36,1.29.46,2.33,1.32,3.37,2.14,1,.82,2.04,1.96,2.74,3.14.72,1.18,1.23,2.43,1.63,3.72.05.16.1.32.14.49.04.17.15.53.2.79.11.57.23,1.14.24,1.66l.02.4-.03.35c-.02.24-.03.48-.12.65-.11.41-.34.66-.55,1-.46.41-1.11.62-1.67.53-.57-.05-1.19-.3-1.81-.71-.59-.39-1.2-.92-1.7-1.39-.34-.33-.66-.66-.97-1-.63-.67-1.23-1.36-1.83-2.05l-1.74-2.08c-.45-.57-1.01-.97-1.7-1.35-1.04-.56-2.25-.94-3.46-1.14-.3-.05-.61-.09-.91-.11l-.29-.02h-.2c-.25.02-.6.02-.75.27-.07.24.12.46.25.66.08.11.14.18.26.33l.59.66c.7.77,1.43,1.53,2.13,2.44.49.62.9,1.32,1.03,2.01.06.35.06.7-.07,1.04-.13.34-.39.59-.66.81-.18.12-.37.22-.56.32-.2.07-.41.16-.62.2l-.48.08h-.5c-.32.03-.71-.03-.93-.07-.52-.09-1-.24-1.46-.4-.93-.33-1.78-.75-2.61-1.2-1.65-.9-3.2-1.9-4.74-2.84-.65-.4-1.3-.78-1.94-1.12-.32-.17-.64-.33-.95-.45-.32-.13-.6-.22-.74-.21-1.28-.05-2.67-.13-4.04-.49-.65-.17-1.28-.34-1.86-.61-2.15-.94-2.66-1.5-2.85-2.31-.04-.18-.12-.38-.12-.54,0-.27.25-.4.72-.43.47-.03,1.16.03,1.96.27,1.12.31,2.23.62,3.22.85,1,.22,2.04.28,3.27.36.33.03.68.11.93.2.24.08.47.17.66.26.4.17.73.35,1.07.53.66.36,1.27.73,1.88,1.1,1.2.74,2.37,1.49,3.53,2.17,1.1.65,2.21,1.25,3.27,1.7.51.22,1.08.39,1.45.46-.03,0,.03.02.04,0,.04,0,.04-.03.04-.05,0-.01,0-.03-.01-.04-.02-.03.04.04-.07-.1l-.26-.33.05-.05Z"/><path class="cls-2" d="M275.56,203.87c5.08,2.15,10.01,4.59,14.9,7.05,1.79.9,3.6,1.72,5.37,2.64,1.76.9,3.49,1.85,5.22,2.77.87.46,1.73.91,2.59,1.32l.86.4c.08.03.17.07.26.09.08.02.22.06.23-.05.04-.14.12-.25.16-.39l.09-.26.2-.54.82-2.17c.56-1.44,1.13-2.88,1.74-4.31,1.24-2.89,2.55-5.78,4.13-8.49.99-1.75,2.13-3.44,3.39-5.04.33-.39.71-.74,1.06-1.11.35-.37.71-.73,1.13-1.04l1.2-.96c.41-.3.89-.52,1.33-.77,1.12-.6,1-.41.31.42-.34.42-.83.96-1.32,1.73-.25.37-.53.75-.82,1.15-.26.44-.55.89-.86,1.33-2.37,3.06-4.1,6.65-5.76,10.24-.83,1.8-1.57,3.66-2.3,5.52-.36.93-.71,1.88-1.04,2.83l-.5,1.43-.68,2.03c-.22.36-.45.71-.67,1.07-.08.04-.12.14-.24.13-.1.04-.21.08-.31.1-.2.05-.4.11-.62.09-.22,0-.44-.03-.67-.1-.23-.04-.46-.12-.69-.19-.23-.07-.46-.14-.7-.24l-.47-.19-.84-.35c-1.09-.48-2.18-.97-3.27-1.46-2.17-.97-4.31-2.01-6.42-3.04-4.91-2.43-9.84-4.81-14.84-7.04-3.07-1.38-6.17-2.69-9.3-3.89-4.75-1.81-9.6-3.45-14.52-4.52-3.82-.8-7.64-1.22-11.42-1.21-.83,0-1.65.05-2.48.1-1.54.07-2.54.17-3.27.12-.74-.08-1.19-.24-1.6-.51-.19-.12-.42-.23-.55-.35-.21-.21-.02-.49.52-.85.54-.36,1.44-.79,2.66-1.02,3.61-.72,7.39-.73,11.14-.37,3.75.36,7.46,1.23,11.09,2.23,5.4,1.51,10.65,3.49,15.79,5.61l-.03.08Z"/><path class="cls-2" d="M140.13,444.19c-2.81-.54-5.62-1.16-8.45-2.25-1.4-.6-2.87-1.12-4.32-2.5-.36-.35-.71-.79-.99-1.34-.16-.27-.21-.54-.31-.82l-.12-.42c-.03-.13-.04-.24-.06-.36-.07-.47-.12-.94-.11-1.34,0-.42,0-.83.03-1.21.08-1.57.38-3,.69-4.41.31-1.42.66-2.8,1.04-4.17.75-2.74,1.58-5.44,2.43-8.12,3.46-10.7,7.28-21.21,10.98-31.75,2.71-7.69,5.31-15.42,7.92-23.12l6.8-20.45c2.28-6.82,4.61-13.63,6.97-20.42,4.72-13.59,9.56-27.13,14.52-40.63,1.11-2.99,2.22-5.99,3.33-8.99l1.69-4.5.44-1.13.23-.57c.04-.1.06-.17.13-.3l.24-.41c.69-1,1.39-1.46,2.09-1.98,1.41-.98,2.85-1.75,4.31-2.48,1.45-.73,2.93-1.39,4.41-2.04,2.96-1.27,5.95-2.41,8.95-3.48,7.72-2.72,15.6-5.04,23.62-6.81,4.01-.87,8.06-1.64,12.15-2.11,2.05-.22,4.1-.4,6.16-.5,1.03-.04,2.06-.06,3.1-.03,1.03.03,2.06.01,3.1.13,2.57.21,3.66.54,3.58.72-.09.22-1.35.35-3.48.75-2.13.36-5.11,1.04-8.67,1.78-1.78.37-3.7.83-5.75,1.25-2.05.41-4.22.85-6.48,1.31-8.02,1.61-15.97,3.76-23.75,6.33-3.88,1.3-7.74,2.7-11.48,4.29-1.87.79-3.7,1.64-5.43,2.57-.87.46-1.68.95-2.42,1.44-.31.24-.7.51-.84.68-.03.03-.15.12-.11.11,0,0,.01,0,.01-.01.04.02-.08-.06-.17-.11-.1-.05-.19-.1-.29-.15-.1-.05-.21-.09-.31-.12l-.08-.03c-.23-.1,1.63.69.84.37l-.02.04-.07.17-.14.34c-1.55,3.74-3,7.7-4.45,11.57-1.44,3.9-2.89,7.8-4.34,11.71-2.85,7.83-5.7,15.67-8.56,23.53-3.39,9.41-6.69,19.07-9.89,28.82-3.18,9.74-6.29,19.63-9.66,29.31-3.73,10.63-7.45,21.26-11.18,31.89-1.84,5.31-3.67,10.63-5.34,15.98-.83,2.67-1.62,5.36-2.3,8.05-.35,1.34-.63,2.69-.87,4.03-.21,1.31-.41,2.7-.28,3.78-.03,1.01,1.35,1.9,2.78,2.6,1.47.66,3.1,1.14,4.73,1.56,3.29.82,6.69,1.35,10.1,1.8,6.83.86,13.73,1.29,20.62,1.53,4.88.16,9.78.21,14.66.13,2.44-.04,4.88-.12,7.3-.27,1.21-.08,2.42-.17,3.6-.3.59-.07,1.18-.15,1.75-.24.28-.05.57-.11.81-.17.16-.05.33-.09.47-.19.16-.14.22-.27.37-.51.15-.27.29-.56.42-.87.27-.61.52-1.25.76-1.89.48-1.29.91-2.61,1.33-3.94.84-2.65,1.6-5.34,2.35-8.02,1.48-5.37,2.87-10.76,4.21-16.14,3.91-15.71,7.33-31.22,10.95-46.82.8-3.44,1.58-6.8,2.38-10.27,3.14-12.81,4.49-16.81,6.15-19.3.38-.57.82-1.33,1.13-1.63,1.06-1.02.21,4.3-1.92,13.7-3.15,13.95-6.46,28.27-9.91,42.78-1.73,7.26-3.51,14.56-5.36,21.88-1.86,7.32-3.76,14.66-5.93,21.99-.55,1.82-1.11,3.65-1.74,5.48-.32.92-.65,1.84-1.04,2.78-.2.47-.4.95-.66,1.46l-.2.39-.3.51c-.28.37-.58.74-.92,1.05-.48.32-1,.57-1.57.72-.45.12-.74.17-1.08.24-.65.11-1.28.2-1.89.27-1.23.14-2.42.23-3.62.31-2.39.15-4.76.23-7.13.28-4.74.09-9.47.04-14.2-.1-4.73-.15-9.46-.4-14.19-.8-4.73-.4-9.45-.92-14.18-1.79v-.08Z"/><path class="cls-2" d="M200,124.45c-.79.27-1.5.66-1.98,1.17-.49.5-.75,1.12-.87,1.98-.07.6.02,1.23.11,1.87.33,2.31,1.52,4.68,2.81,6.9.59.99,1.31,1.91,2.04,2.81.48.57.97,1.13,1.41,1.75.22.3.44.61.65.93.22.31.41.64.54,1.02.17.47-.04.55-.59.5-.59-.03-1.46-.25-2.1-.84-1.18-1.02-2.15-2.24-3.13-3.49-.95-1.27-1.85-2.64-2.45-4.17-.72-1.8-1.69-3.67-1.88-5.84-.09-1.2,0-2.41.53-3.63.54-1.21,1.5-2.14,2.54-2.73,1.28-.73,2.66-1.08,4.02-1.26,1.02-.12,2.13-.2,3.29.19.29.12.58.24.88.47.28.22.61.53.72,1.11.06.28,0,.62-.14.88-.14.25-.35.45-.51.55-.29.19-.59.35-.93.43-1.06.26-1.92,0-2.66-.09-.74-.12-1.39-.23-1.93-.2-.23.02-.45.08-.65.13-.74.22-1.08.28-1.71-.1-.14-.09-.3-.15-.43-.24-.22-.15-.3-.38-.23-.7.04-.16.11-.34.23-.53.13-.18.32-.38.56-.56.74-.51,1.73-.81,2.64-.83.91-.04,1.73.12,2.37.27.63.15,1.13.19,1.14.15,0,0,0,0,0,0,0,0,.03.07.01.03-.01-.03-.01-.03-.01-.03,0,0,0,0,0,0l.6.83.02.03s.03.04.05.07l.11.1c.13.1.16.03-.02.08-.18.04-.39.21-.61.44-.44.56-.24.35-.38.34-.09-.04-.22-.08-.37-.12-.32-.07-.67-.09-1.12-.07-.88.02-1.77.22-2.55.51l-.03-.06Z"/><path class="cls-2" d="M191.23,134.18c.08-.37.09-.86.01-1.28-.02-.1-.04-.21-.06-.28,0-.04,0-.06-.02-.1-.02-.07-.07-.11-.13-.15,0-.02-.19-.05-.32-.08l-.49-.04c-1.27-.09-2.82.25-4.26.71-.65.2-1.29.45-1.9.73-.78.38-1.59.72-2.47.93-.27.06-.33-.12-.24-.44.1-.31.31-.83.71-1.18,1.47-1.13,3.11-2.03,5.01-2.41,1.13-.21,2.26-.69,3.66-.63.66.02,1.91.31,2.38,1.17.12.2.24.45.3.63.07.19.11.36.16.54.08.36.14.71.15,1.07.03.44,0,.89-.08,1.35-.07.43-.28,1.03-.63,1.45-.5.68-1.45.94-2.2.87-.8-.06-1.48-.45-1.99-.89-.81-.68-1.42-1.44-1.9-2.32-.1-.2-.22-.38-.29-.6-.27-.79-.12-1.2.51-1.4.14-.04.29-.09.43-.1.49.01.88.14,1.11.47.35.53.77,1.09,1.17,1.53.39.47.83.71.98.74.03-.01.05,0,.07,0,.03-.02.05-.01.07,0,.06-.03.02-.02.01,0h.01s.02.01.04,0c-.01,0,.03-.02.05-.11.02-.07.05-.15.05-.25h.06Z"/><path class="cls-2" d="M205.08,130.79c.08-.06.21-.44.24-.75.01-.16.02-.32,0-.48-.02-.16,0-.15-.02-.23-.02-.1-.13-.09-.2-.13-.01-.02-.09-.05-.21-.09-.09-.03-.19-.06-.29-.08-.2-.03-.43-.05-.7-.02-.54.05-1.14.2-1.72.36-.53.13-1.05.31-1.56.49-.64.27-1.32.45-2.05.51-.23.02-.27-.17-.19-.47.09-.29.27-.74.59-1,1.2-.84,2.43-1.5,4-1.74.47-.07.97-.21,1.58-.24.3-.01.61,0,.88.05.34.04.73.15,1.04.3.71.31,1.06,1.25,1.15,1.85.1.61.1,1.19-.01,1.79-.12.68-.55,1.72-1.33,2.1-.26.17-.56.22-.85.3-.97.12-1.96-.24-2.6-.89-.64-.63-1.1-1.33-1.4-2.09-.06-.17-.14-.33-.18-.51-.13-.66.06-.93.69-1.05.15-.03.29-.06.43-.06.49,0,.88.18,1.06.47.27.45.54.89.8,1.18.26.33.46.38.51.39.03-.01.04,0,.09,0,.02.02.14-.02.07.01,0,.03.05.04.08.02l.06.02Z"/><path class="cls-2" d="M188.13,125c.21.02.4.01.51,0,.06,0,.1,0,.13,0,0,0,.03,0,.03,0h.01s0,.01,0,.01l.35.31h0s.02.03.02.03l.04.04c.3.22.39.17.31.18-.07,0-.39.18-.65.48.01-.03-.16-.18-.35-.27-.28-.16-.66-.21-.99-.29-1.19-.28-2.73-.03-4.09.57-.61.26-1.17.64-1.68,1.06-.62.57-1.25,1.11-1.8,1.72-.25.15-.35.11-.5-.24-.15-.35-.17-.97.14-1.49.53-.92,1.33-1.56,2.14-2.14.83-.56,1.75-1.01,2.76-1.25,1.17-.3,2.51-.6,3.86-.33.36.08.71.18,1.07.34.36.17.72.32,1.14.77.19.19.45.62.43,1.12,0,.26-.08.46-.18.66-.09.14-.22.33-.3.39-.37.38-.81.59-1.21.71-1,.27-1.83.17-2.63.12-1.2-.14-2.25-.39-3.21-.13-.76.19-1.38.67-1.94,1.2-.12.13-.25.22-.39.32-.53.36-.8.39-1.31.1-.11-.07-.24-.12-.34-.19-.34-.23-.4-.71-.12-1.28.23-.39.46-.85.83-1.17.36-.33.76-.63,1.22-.88.9-.51,2.01-.79,3.06-.82,1.58-.04,2.71.28,3.6.3v.06Z"/><path class="cls-2" d="M191.61,153.59c1.04,1.75,2.96,2.81,4.93,3.16,1.77.32,3.73.28,5.21-.87.57-.44.5-1.48,0-1.94-.6-.55-1.34-.47-1.94,0,.4-.32.03-.06-.08.01-.23.14.23-.08.1-.04-.06.02-.12.05-.19.07-.15.05-.29.09-.44.12-.07.02-.15.03-.22.04-.25.05.34-.03.06,0-.33.03-.67.05-1,.03-.18,0-.35-.02-.53-.04-.35-.04,0-.03,0,0,0-.02-.28-.05-.32-.05-.38-.07-.76-.17-1.13-.3-.09-.03-.18-.07-.26-.1-.26-.1.25.13-.02,0-.17-.08-.34-.16-.5-.26s-.31-.2-.47-.3c-.25-.16.19.17-.02-.01-.07-.06-.14-.12-.21-.18-.14-.13-.26-.26-.38-.4-.18-.2.15.24-.04-.05-.06-.09-.12-.18-.17-.27-.37-.62-1.25-.9-1.88-.49s-.89,1.22-.49,1.88h0Z"/><path class="cls-2" d="M214.7,201.68c-.14.43-.39.84-.78,1.14-.41.31-.83.41-1.22.41-.28,0-.55,0-.78-.1-.8-.33-1.31-1.11-1.33-1.8-.01-.3,0-.59.07-.85.07-.34.23-.65.47-.89.08-.07.11-.03.14.08.03.11.09.29.11.46.02.29.1.55.2.75.11.19.2.34.24.47.08.19.37.21.51.18.08,0,.14-.02.18-.04.03-.02.03,0,.06-.06.04-.06.07-.17.05-.24-.01-.05-.02-.06,0-.07.09-.21.01-.1.07.03,0,.02,0,.08.04.14,0,.02.06.07.05.06-.04-.03-.1-.05-.17-.07-.05-.02-.12-.02-.16-.03-.09,0-.08.02-.08,0,0,0,.01,0,.02-.01,0,0,.02-.02,0,0-.05.04-.11.09-.17.14-.11.1-.21.21-.31.32-.17.18-.34.33-.56.36-.21.04-.47-.05-.64-.31-.27-.39-.33-.86-.26-1.24.07-.39.23-.72.46-1.01.23-.28.55-.53.97-.69.41-.17,1.02-.2,1.52,0,.7.26,1.16.85,1.34,1.39.18.55.15,1.03.04,1.48h-.05Z"/><path class="cls-2" d="M227.38,71.47c.02.26-.19.43-.52.55-.1.04-.38-.03-.4-.11-.05-.16-.1-.32-.13-.47-.02-.09.08-1.54.11-2.04.02-.48.11-.95.22-1.42.22-.94.44-1.9.73-2.83.06-.21.14-.41.26-.59.38-.64.65-1.33.89-2.04.04-.12.1-.23.07-.38-.07-.25.76-2.12.95-2.31.45-.49.86-1,1.32-1.48.06-.07.08-.18.24-.17.36,0,.44-.18.58-.32.19-.2.4-.39.65-.55.11-.08.34-.08.52-.12.17-.03.41.24.42.3.03.17.23.19.35.27.04.03.1.06.13.09.02.02.02.14.02.32-.02.18-.04.4-.07.61-.05.45-.09.91-.13.98,0,.05-1.1,1.89-1.17,2.13-.05.12-.17.2-.28.28-.06.04-.78,1.6-.82,1.66-.21.29-.31.64-.66.87-.07.05-.09.11-.13.18-.26.56-.61,1.08-.92,1.62-.16.28-.26.58-.39.87-.02.05-.07.1-.1.14-.04.06-.09.12-.12.19-.27.7-.63,1.38-.81,2.12-.05.16-.46.92-.5,1.12-.03.11-.33.42-.32.52Z"/><path class="cls-2" d="M233.64,75.87c-.01.21-.3.05-.76-.33-.15-.12-.51-.56-.52-.65-.03-.18-.06-.35-.06-.49,0-.09.5-.88.67-1.17.16-.28.39-.48.62-.66.48-.36.96-.74,1.48-1.07.11-.07.24-.12.39-.14.49-.05.9-.26,1.28-.53.06-.04.14-.06.17-.19.03-.23,1.19-.77,1.37-.74.45.06.88.06,1.31.11.06,0,.11-.05.19.06.2.27.31.21.44.22.17,0,.36.03.54.1.09.04.21.18.32.29.1.1.15.5.14.55-.04.14.06.32.11.48.02.06.03.13.04.17,0,.08-.61,1.16-.67,1.23-.03-.01-1.1.61-1.21.7-.06.05-.15,0-.23-.01-.05-.02-.85.54-.89.55-.2.04-.34.21-.63.06-.06-.03-.09,0-.12.02-.3.18-.66.23-1,.34-.18.05-.31.17-.47.25-.03.01-.08,0-.11,0-.05,0-.1,0-.13.02-.35.23-.79.34-1.09.67-.07.07-.62.11-.69.21-.04.05-.45-.13-.46-.04Z"/><path class="cls-2" d="M445.86,85.28c-.04-.21.13-.36.37-.49.08-.04.3,0,.33.05.06.12.11.24.16.36.02.07.15,1.19.25,1.56.08.36.12.72.16,1.08.07.73.18,1.45.3,2.17.03.16.01.32,0,.48-.09.55-.03,1.1.09,1.64.02.09.02.18.12.27.14.14.43,1.59.4,1.79-.07.49-.14.98-.19,1.47-.01.07.04.14-.06.22-.23.18-.16.32-.15.47,0,.21,0,.42-.04.64-.02.11-.15.24-.25.36-.09.11-.48.14-.53.11-.14-.07-.3.04-.46.08-.05.01-.12.03-.17.03-.1.02-.97-1.1-.98-1.25,0-.02-.12-.47-.24-.95-.13-.48-.2-.99-.23-1.09-.03-.11.03-.22.06-.34,0-.05-.21-1.52-.19-1.58.02-.31-.05-.61.15-.93.04-.06.03-.12.03-.18-.01-.52.07-1.05.17-1.57.05-.27.05-.53.08-.8,0-.05.03-.1.05-.14.02-.06.05-.12.05-.18.06-.63.22-1.25.26-1.87.01-.14.26-.81.27-.98,0-.09.23-.37.22-.46Z"/><path class="cls-2" d="M434.75,93.29c-.21-.03-.06-.31.28-.74.11-.14.52-.46.61-.48.17-.03.33-.05.47-.05.08,0,.84.46,1.13.6.27.13.48.32.67.52l1.19,1.2c.09.09.15.2.19.33.14.44.42.76.75,1.04.06.05.09.11.22.1.21-.02,1.01.82,1.04.99.06.43.19.81.29,1.21.01.06.08.08.01.19-.16.27-.05.33,0,.44.08.14.12.31.14.51,0,.1-.07.26-.12.4-.05.13-.38.35-.43.36-.15.02-.26.19-.38.3-.04.04-.1.09-.14.11-.08.06-1.32-.12-1.37-.21,0,0-.28-.22-.57-.46-.28-.22-.58-.45-.65-.51-.07-.05-.06-.16-.08-.25,0-.04-.83-.76-.85-.8-.11-.2-.32-.32-.25-.65.01-.07-.03-.09-.06-.13-.26-.28-.41-.65-.59-1-.09-.18-.23-.31-.35-.47-.02-.03-.01-.08-.02-.12-.01-.05-.01-.1-.04-.14-.29-.36-.47-.81-.83-1.12-.08-.07-.18-.65-.28-.72-.06-.04.09-.46,0-.47Z"/><path class="cls-2" d="M426.08,112.17c-.09.25-.42.13-.89-.18-.15-.1-.47-.51-.47-.61,0-.2.02-.39.06-.56.02-.1.84-1.16,1.12-1.54.26-.37.59-.66.92-.94.68-.57,1.4-1.08,2.14-1.56.16-.11.34-.19.54-.24.68-.17,1.26-.5,1.82-.87.09-.06.2-.1.25-.25.07-.26,1.7-1.09,1.96-1.11.62-.05,1.21-.17,1.81-.24.09-.01.15-.08.27.01.28.23.42.12.6.08.24-.06.49-.09.76-.07.13,0,.3.14.46.23.14.09.24.55.22.61-.05.18.1.36.17.54.02.06.06.14.07.19.02.11-.96,1.35-1.08,1.39,0,0-.12.06-.29.15-.17.09-.39.21-.62.33-.45.25-.92.52-1,.6-.09.07-.23.05-.35.06-.06,0-1.35.87-1.4.89-.3.11-.53.35-.94.26-.08-.02-.13.03-.19.06-.46.29-1,.47-1.51.69-.26.11-.48.29-.73.43-.04.03-.11.02-.16.03-.07.02-.14.02-.19.06-.56.36-1.22.59-1.72,1.05-.12.1-.9.29-1.02.43-.07.07-.57-.04-.6.07Z"/></svg>