<svg width="400" height="400" viewBox="0 0 400 400" fill="none" xmlns="http://www.w3.org/2000/svg">
<rect x="0" y="0" width="400" height="400" fill="#092036"/>
<path fill-rule="evenodd" clip-rule="evenodd" d="M194.679 136.072L194.769 120.193C194.859 119.554 195.241 118.469 196.078 117.553C196.893 116.662 198.185 115.874 200.28 115.874C202.362 115.874 203.608 116.652 204.42 117.547C205.216 118.423 205.67 119.506 205.899 120.337V136.054C204.102 135.677 202.239 135.479 200.33 135.479C198.392 135.479 196.502 135.683 194.679 136.072ZM190.263 137.42L190.363 119.934L190.374 119.827C190.53 118.309 191.277 116.257 192.834 114.554C194.454 112.783 196.909 111.443 200.28 111.443C203.663 111.443 206.072 112.793 207.676 114.561C209.219 116.26 209.936 118.247 210.245 119.535L210.307 119.791V137.384C220.341 141.378 227.437 151.219 227.437 162.726C227.437 166.72 226.582 170.513 225.047 173.93L243.602 227.634H255.706C256.923 227.634 257.91 228.625 257.91 229.849C257.91 231.072 256.923 232.064 255.706 232.064H245.133L253.755 257.017C254.345 258.644 254.778 261.446 254.186 264.307C253.594 267.169 251.943 270.182 248.386 271.979L253.394 284.516C253.847 285.651 253.299 286.941 252.17 287.397C251.04 287.853 249.757 287.302 249.303 286.167L244.208 273.41C241.377 273.951 238.892 273.537 236.86 272.615C234.1 271.361 232.218 269.177 231.548 267.411C230.969 265.883 225.442 250.235 219.095 232.064H181.625C175.278 250.235 169.751 265.883 169.172 267.411C168.502 269.177 166.62 271.361 163.86 272.615C161.828 273.537 159.343 273.951 156.512 273.41L151.416 286.167C150.963 287.302 149.68 287.853 148.55 287.397C147.421 286.941 146.873 285.651 147.326 284.516L152.334 271.979C148.777 270.182 147.125 267.169 146.534 264.307C145.942 261.446 146.375 258.644 146.965 257.017L155.587 232.064H145.294C144.077 232.064 143.09 231.072 143.09 229.849C143.09 228.625 144.077 227.634 145.294 227.634H157.117L175.647 174.005C174.09 170.568 173.223 166.749 173.223 162.726C173.223 151.254 180.277 141.437 190.263 137.42ZM222.114 178.946C218.801 183.434 214.148 186.863 208.749 188.634C217.821 215.35 234.663 263.183 235.667 265.834C235.879 266.394 236.862 267.754 238.675 268.577C240.047 269.2 241.944 269.533 244.386 268.814C244.481 268.757 244.582 268.707 244.687 268.665C244.876 268.589 245.069 268.541 245.261 268.519C245.546 268.411 245.837 268.289 246.135 268.152C248.458 267.084 249.481 265.29 249.871 263.405C250.281 261.421 249.949 259.449 249.611 258.526L249.604 258.507L222.114 178.946ZM200.33 189.974C201.728 189.974 203.101 189.868 204.441 189.663C208.047 200.288 212.923 214.369 217.549 227.634H183.171C187.796 214.373 192.671 200.295 196.276 189.671C197.598 189.871 198.952 189.974 200.33 189.974ZM191.965 188.652C186.565 186.893 181.908 183.477 178.587 179.001L151.116 258.507L151.109 258.526C150.771 259.449 150.439 261.421 150.849 263.405C151.239 265.29 152.262 267.084 154.585 268.152C154.883 268.289 155.174 268.411 155.459 268.519C155.651 268.541 155.844 268.589 156.033 268.665C156.138 268.707 156.239 268.757 156.334 268.814C158.776 269.533 160.673 269.2 162.045 268.577C163.858 267.754 164.84 266.394 165.053 265.834C166.057 263.183 182.892 215.371 191.965 188.652ZM222.368 162.726C222.368 174.961 212.501 184.879 200.33 184.879C188.159 184.879 178.292 174.961 178.292 162.726C178.292 150.492 188.159 140.574 200.33 140.574C212.501 140.574 222.368 150.492 222.368 162.726ZM212.892 162.726C212.892 169.7 207.268 175.353 200.33 175.353C193.392 175.353 187.768 169.7 187.768 162.726C187.768 155.753 193.392 150.099 200.33 150.099C207.268 150.099 212.892 155.753 212.892 162.726ZM207.603 162.837C207.603 166.936 204.297 170.258 200.22 170.258C196.142 170.258 192.837 166.936 192.837 162.837C192.837 158.739 196.142 155.416 200.22 155.416C204.297 155.416 207.603 158.739 207.603 162.837Z" fill="white"/>
</svg>
