<svg width="135" height="28" viewBox="0 0 135 28" fill="none" xmlns="http://www.w3.org/2000/svg">
<path d="M114.502 14.826V22.3207C114.502 23.7622 114.607 24.6695 114.817 25.043C115.027 25.4161 115.398 25.7148 115.927 25.9374C116.456 26.1604 117.445 26.2712 118.894 26.2712V27.1905H103.863V26.2712C105.327 26.2712 106.32 26.1567 106.842 25.9272C107.363 25.6982 107.73 25.3999 107.94 25.0329C108.15 24.6662 108.255 23.7622 108.255 22.3207V4.99873C108.255 3.55769 108.15 2.64995 107.94 2.27641C107.73 1.90334 107.359 1.60507 106.83 1.38206C106.301 1.15951 105.312 1.03992 103.863 1.03992V0.121094H118.244C124.484 0.121094 130.074 1.75559 130.074 7.67164C130.074 12.6762 124.973 13.9677 123.042 14.3735L130.657 23.421C131.654 24.5873 132.363 25.3145 132.783 25.6026C133.422 26.0085 134.162 26.2315 135.003 26.2707V27.1637H125.93L117.052 14.8256H114.501L114.502 14.826ZM114.502 1.75605V13.4307H116.305C120.264 13.4307 121.643 11.9929 122.258 11.1216C122.873 10.2504 123.181 9.1136 123.181 7.71181C123.181 5.68115 122.616 4.18102 121.487 3.21094C120.358 2.24132 118.54 1.75651 116.032 1.75651H114.502V1.75605Z" fill="white"/>
<path d="M86.7288 6.36215V15.2803H87.2472C88.8981 15.2803 90.0946 14.844 90.837 13.9718C91.579 13.0991 91.9768 11.8123 92.1816 10.1104H92.9867V21.5814H92.1816C92.028 20.332 91.7802 19.3088 91.2878 18.5119C90.795 17.715 90.2226 17.1794 89.5697 16.9042C88.9169 16.6299 87.9696 16.4923 86.7288 16.4923V22.6642C86.7288 23.8707 86.7891 24.6085 86.9112 24.8777C87.0328 25.1469 87.2596 25.3676 87.5928 25.5402C87.9257 25.7125 88.4633 25.7988 89.2053 25.7988H90.7602C93.1915 25.7988 95.14 25.3251 96.6058 24.3772C98.071 23.4292 99.0435 21.9859 99.6835 20.0471H100.474L99.3031 27.1909H76.8047V26.2721H77.6688C78.424 26.2721 79.0316 26.2998 79.4925 26.0735C79.8253 25.9225 80.0809 25.6644 80.2605 25.2978C80.4014 25.0393 80.4718 24.361 80.4718 23.2621V8.85083C80.4718 7.85998 80.4398 7.25143 80.3757 7.02518C80.2477 6.64842 80.0109 6.35753 79.6653 6.15253C79.1784 5.85102 78.5136 5.81824 77.6688 5.81824H76.8047V4.89941H98.5931V11.581H97.7835C97.4118 9.99775 96.9706 8.86145 96.299 8.1721C95.6269 7.48275 94.6769 6.9767 93.4485 6.6535C92.7316 6.45957 91.3875 6.36261 89.417 6.36261H86.7297L86.7288 6.36215Z" fill="white"/>
<path d="M75.0457 4.89887V5.8177C74.0879 5.8177 73.254 6.25449 72.5116 6.97616C71.9739 7.51499 71.1743 8.78011 70.1118 10.7729L61.1469 27.8783H60.5132L51.5867 10.0942C50.5119 7.9938 49.7923 6.76054 49.4275 6.39439C49.0626 6.02825 48.3709 5.8177 47.3633 5.8177V4.89887H59.8412L59.8517 5.8177H59.4293C58.3032 5.8177 57.5251 5.81862 57.1155 6.05503C56.821 6.21663 56.6738 6.45349 56.6738 6.76608C56.6738 6.96 56.725 7.18901 56.8274 7.45266C56.9298 7.71676 57.2755 8.42458 57.8639 9.57704L63.4118 20.85L68.5565 10.7724C69.1709 9.59828 69.5481 8.81197 69.6889 8.4135C69.8297 8.01504 69.9001 7.67567 69.9001 7.39587C69.9001 7.07266 69.7977 6.78732 69.5929 6.53937C69.3881 6.29143 69.0836 6.12798 68.6868 5.99869C68.1363 5.81539 67.4108 5.81678 66.5019 5.81678V4.89795H75.0444L75.0457 4.89887Z" fill="white"/>
<path d="M44.8838 26.2711V27.1899H31.2734V26.2711H32.1375C32.8923 26.2711 33.5004 26.2605 33.9612 26.0342C34.2936 25.8832 34.5496 25.6251 34.7293 25.2585C34.8696 25 34.9405 24.3217 34.9405 23.2228V8.84986C34.9405 7.72972 34.8696 7.02975 34.7293 6.74948C34.588 6.46922 34.3037 6.2245 33.8748 6.01442C33.446 5.80434 32.8672 5.81726 32.1375 5.81726H31.2734V4.89844H44.8838V5.81726H44.0197C43.2644 5.81726 42.6568 5.81265 42.196 6.03843C41.8627 6.18941 41.6008 6.44798 41.4087 6.81412C41.2675 7.07269 41.1975 7.75096 41.1975 8.84986V23.2228C41.1975 24.3429 41.2711 25.0429 41.4183 25.3232C41.5656 25.6034 41.8536 25.8482 42.2824 26.0582C42.7113 26.2679 43.29 26.2706 44.0197 26.2706H44.8838V26.2711Z" fill="white"/>
<path d="M19.1496 12.8452C22.1556 13.4349 27.1553 15.0324 27.1553 19.6279C27.1553 22.2565 25.2553 27.19 15.2489 27.19H0V26.2712C1.4639 26.2712 2.45645 26.1391 2.97855 25.9097C3.49974 25.6806 3.8664 25.3824 4.0767 25.0153C4.28701 24.6482 4.3917 23.7442 4.3917 22.3022V5.00011C4.3917 3.55815 4.28655 2.65087 4.0767 2.27687C3.8664 1.90334 3.49654 1.60553 2.96712 1.38252C2.43724 1.15997 1.44836 1.03992 0 1.03992V0.121094H15.2484C23.6263 0.121094 25.7065 3.91737 25.7065 7.02523C25.7065 10.6248 21.937 12.2547 19.1491 12.8452H19.1496ZM10.646 13.8476V22.4001L10.6231 23.3836C10.6231 24.0914 10.8371 24.6256 11.2655 24.9858C11.6938 25.3464 12.3284 25.5264 13.1692 25.5264C14.415 25.5264 15.5639 25.2937 16.615 24.8288C17.666 24.3638 18.4725 23.6883 19.033 22.8037C19.5935 21.919 19.8742 20.9328 19.8742 19.8449C19.8742 18.5997 19.5313 17.4828 18.8465 16.4928C18.1607 15.5034 17.2184 14.8117 16.0193 14.4188C14.8201 14.0254 13.0288 13.8356 10.646 13.8486V13.8476ZM10.646 12.3143C12.8574 12.3143 14.4891 12.1046 15.5401 11.6849C16.5912 11.2657 17.3977 10.6761 17.9582 9.91561C18.5187 9.15561 18.7994 8.18553 18.7994 7.00583C18.7994 5.82613 18.5223 4.85975 17.9701 4.10576C17.4169 3.35223 16.6264 2.77877 15.5986 2.38538C14.5709 1.99199 12.92 1.80222 10.646 1.81515V12.3143Z" fill="white"/>
</svg>
