<svg xmlns="http://www.w3.org/2000/svg" viewBox="15.03 10.71 96.51 38.84">
  <defs>
    <style>
      .cls-1{fill:#6ab023}
    </style>
  </defs>
  <path class="cls-1" d="m31.853 10.711-16.819 9.71v19.42l16.819 9.71 16.818-9.71v-19.42Zm-1.868 33.446L18.78 37.679V22.583l13.074-7.549 3.735 2.157-13.074 7.548v10.784l3.736 2.24v-4.395l.002-4.318 3.733 2.128Zm14.942-6.478-3.736 2.157V24.74l-1.841-1.056-3.786 2.128 1.892 1.084v15.097l-3.735 2.08v-15.02l-5.628-3.241 11.22-6.478 5.614 3.249Z"/>
  <path d="M67.886 30.175v-.043a7.798 7.798 0 0 1 8.002-7.894 7.432 7.432 0 0 1 6.44 3.166l-3.166 2.45a4.064 4.064 0 0 0-3.318-1.777 3.754 3.754 0 0 0-3.621 4.011v.044a3.755 3.755 0 0 0 3.621 4.054 4.146 4.146 0 0 0 3.426-1.843l3.166 2.255a7.991 7.991 0 0 1-14.55-4.423Zm-7.664-4.171v2.702h5.66v3.276h-5.66v5.68H55.84v-15.02h10.254v3.362Zm32.441.086v11.573h-4.382V26.089h-4.425v-3.446h13.212v3.446Zm12.56 6.743h-1.745v4.83h-4.382v-15.02h5.893c2.723 0 6.552.51 6.552 4.872 0 4.574-3.701 5.318-6.318 5.318Zm-.362-7.127h-1.383v4.085h1.405c1 0 2.276-.383 2.276-2.042 0-1.809-1.425-2.043-2.298-2.043Z" fill="#fff"/>
  <path class="cls-1" d="M55.672 42.57v-.01a1.697 1.697 0 0 1 1.76-1.7 1.907 1.907 0 0 1 1.326.477l-.532.64a1.152 1.152 0 0 0-.79-.31.859.859 0 0 0-.835.897v.01a.863.863 0 0 0 .887.905.923.923 0 0 0 .523-.134v-.398h-.645v-.663h1.504v1.472a2.213 2.213 0 0 1-1.42.504 1.68 1.68 0 0 1-1.778-1.69Zm4.37-1.644h1.546a1.43 1.43 0 0 1 1.064.354 1.016 1.016 0 0 1 .29.762v.009a1.034 1.034 0 0 1-.672 1.004l.78 1.14h-1.046l-.66-.991h-.396v.99h-.906Zm1.504 1.569c.309 0 .485-.15.485-.388v-.01c0-.256-.186-.387-.49-.387h-.593v.785Zm2.318.075v-.01a1.762 1.762 0 0 1 3.52-.01v.01a1.762 1.762 0 0 1-3.52.01Zm2.596 0v-.01a.85.85 0 0 0-.84-.882.833.833 0 0 0-.827.873v.01a.848.848 0 0 0 .836.881.833.833 0 0 0 .831-.873Zm1.97.19v-1.834h.92v1.816c0 .472.238.695.602.695s.603-.214.603-.672v-1.84h.92v1.812a1.366 1.366 0 0 1-1.532 1.518 1.35 1.35 0 0 1-1.513-1.494Zm4.247-1.834h1.401c.826 0 1.359.424 1.359 1.148v.01c0 .77-.593 1.177-1.406 1.177h-.448v.933h-.906Zm1.336 1.625c.322 0 .518-.168.518-.425v-.01c0-.28-.196-.43-.523-.43h-.425v.865Zm2.411-1.625h2.629v.77H77.32v.495h1.57v.714h-1.57v.519h1.756v.77h-2.652Zm5.336 0h.847l1.344 1.727v-1.727h.897v3.268h-.794l-1.397-1.793v1.793h-.896Zm4.326 0h2.629v.77h-1.733v.495h1.57v.714h-1.57v.519h1.756v.77h-2.652Zm4.719 2.044-1.242-2.044h1.032l.673 1.19.676-1.19h1.013l-1.241 2.03v1.238h-.911Zm2.677.739.503-.603a1.684 1.684 0 0 0 1.061.393c.242 0 .373-.084.373-.225v-.009c0-.135-.107-.21-.55-.313-.696-.158-1.233-.354-1.233-1.027v-.01c0-.607.48-1.045 1.265-1.045a2.063 2.063 0 0 1 1.345.434l-.453.64a1.64 1.64 0 0 0-.915-.322c-.22 0-.327.093-.327.21v.009c0 .15.112.215.564.317.752.164 1.22.406 1.22 1.019v.008c0 .668-.528 1.065-1.322 1.065a2.282 2.282 0 0 1-1.531-.541Z"/>
</svg>