<svg xmlns="http://www.w3.org/2000/svg" viewBox="15.03 10.71 81.4 38.84">
  <defs>
    <style>
      .cls-1{fill:#ec7007}
    </style>
  </defs>
  <path class="cls-1" d="m31.853 10.711-16.819 9.71v19.42l16.819 9.71 16.818-9.71v-19.42Zm-1.868 33.446L18.78 37.679V22.583l13.074-7.549 3.735 2.157-13.074 7.548v10.784l3.736 2.24v-4.395l.002-4.318 3.733 2.128Zm14.942-6.478-3.736 2.157V24.74l-1.841-1.056-3.786 2.128 1.892 1.084v15.097l-3.735 2.08v-15.02l-5.628-3.241 11.22-6.478 5.614 3.249Z"/>
  <path d="M57.672 37.685c-1.13-.703-1.832-1.918-1.832-4.155V22.642h10.142v3.345h-5.753v2.302h5.54v3.11h-5.54v1.662c0 .66.128 1.023.511 1.279h5.562v3.345Zm15.665-3.361a7.031 7.031 0 0 1 1.85-1.825l.282-.22c1.792-1.413 3.485-2.747 3.485-5.311 0-3.47-2.898-5.023-5.769-5.023a9.11 9.11 0 0 0-5.211 1.428l-.113.071 1.682 3.153.135-.118a3.83 3.83 0 0 1 2.4-1.009 2.043 2.043 0 0 1 2.242 2.009c0 1.333-1.15 2.245-2.075 2.976-1.968 1.533-3.505 2.835-3.908 4.469l-.004 2.755h10.876v-3.355Zm21.639 3.358h.011a578.277 578.277 0 0 0-2.624-4.323 113.69 113.69 0 0 1-1.342-2.322 3.923 3.923 0 0 0 3.004-3.857c0-4.112-3.899-4.538-6.818-4.538H81.24v15.043h4.39v-5.54h1.402s.198.455.366.81c.34.745.852 1.79 1.214 2.535a3.571 3.571 0 0 0 2.13 2.193Zm-7.833-8.35H85.63V25.71h1.342c1.172 0 2.621.192 2.621 1.747 0 1.513-1.32 1.875-2.45 1.875Z" fill="#fff"/>
  <path class="cls-1" d="M55.773 42.603v-.008a1.697 1.697 0 0 1 1.76-1.7 1.907 1.907 0 0 1 1.326.476l-.532.64a1.152 1.152 0 0 0-.789-.309.859.859 0 0 0-.836.896v.01a.863.863 0 0 0 .888.906.923.923 0 0 0 .522-.135v-.398h-.644v-.663h1.504v1.472a2.213 2.213 0 0 1-1.42.504 1.68 1.68 0 0 1-1.779-1.69Zm4.371-1.643h1.545a1.43 1.43 0 0 1 1.065.354 1.016 1.016 0 0 1 .29.762v.009a1.034 1.034 0 0 1-.673 1.004l.78 1.14h-1.046l-.659-.99h-.396v.99h-.907Zm1.503 1.57c.309 0 .486-.15.486-.389v-.01c0-.256-.187-.387-.49-.387h-.593v.785Zm2.319.073v-.008a1.762 1.762 0 0 1 3.52-.01v.01a1.762 1.762 0 0 1-3.52.008Zm2.595 0v-.008a.85.85 0 0 0-.84-.883.833.833 0 0 0-.827.873v.01a.848.848 0 0 0 .836.881.833.833 0 0 0 .831-.873Zm1.97.192V40.96h.92v1.816c0 .472.238.695.603.695s.602-.213.602-.671v-1.84h.92v1.811a1.366 1.366 0 0 1-1.531 1.518 1.35 1.35 0 0 1-1.514-1.494Zm4.247-1.835h1.402c.826 0 1.358.425 1.358 1.148v.01c0 .77-.593 1.177-1.405 1.177h-.448v.933h-.907Zm1.336 1.625c.322 0 .519-.168.519-.425v-.01c0-.28-.197-.43-.524-.43h-.424v.865Zm2.411-1.625h2.63v.77h-1.733v.495h1.57v.714h-1.57v.519h1.756v.77h-2.653Zm5.337 0h.846l1.345 1.727V40.96h.896v3.268h-.794l-1.396-1.793v1.793h-.897Zm4.325 0h2.63v.77h-1.733v.495h1.57v.714h-1.57v.519h1.756v.77h-2.653Zm4.719 2.045-1.242-2.045h1.032l.673 1.19.677-1.19h1.013l-1.242 2.031v1.237h-.91Zm2.677.738.504-.603a1.684 1.684 0 0 0 1.06.393c.243 0 .373-.084.373-.225V43.3c0-.136-.107-.211-.55-.314-.696-.158-1.233-.354-1.233-1.027v-.009c0-.607.48-1.046 1.266-1.046a2.063 2.063 0 0 1 1.345.434l-.454.64a1.64 1.64 0 0 0-.915-.322c-.22 0-.327.093-.327.21v.009c0 .15.113.215.565.317.752.164 1.219.407 1.219 1.019v.009c0 .668-.528 1.064-1.322 1.064a2.282 2.282 0 0 1-1.531-.541Z"/>
</svg>