<svg xmlns="http://www.w3.org/2000/svg" viewBox="15.04 10.71 98.86 38.83">
  <defs>
    <style>
      .cls-1{fill:#ec7007}
    </style>
  </defs>
  <path class="cls-1" d="M15.039 20.42v19.415l16.814 9.708 16.814-9.708V20.42l-16.814-9.708Zm29.885 2.16v15.094l-3.735 2.156V24.737l-1.841-1.055-3.785 2.127 1.892 1.084v15.093l-3.735 2.08V29.05l-5.626-3.24 11.217-6.476Zm-9.337-5.39-13.07 7.547v10.78l3.734 2.24v-4.394l.002-4.317 3.733 2.128V44.15l-11.204-6.476V22.58l13.07-7.547Z"/>
  <path d="M60.223 33.005v-1.662h5.539v-3.11h-5.54V25.93h5.753v-3.345H55.834v10.887c0 2.238.703 3.452 1.832 4.155h8.629v-3.345h-5.561c-.384-.256-.511-.618-.511-1.278Zm7.783-6.967h4.432v11.59h4.389v-11.59h4.41v-3.452H68.006v3.452zm41.407-3.452-3.651 5.825-3.651-5.825H97.63v15.045h4.153v-8.597l2.498 4.351h2.872l2.522-4.394v8.64h4.219V22.586h-4.481zm-20.243 0h-5.902v15.042h4.389V32.79h1.747c2.62 0 6.328-.745 6.328-5.326 0-4.367-3.835-4.879-6.563-4.879Zm-.107 7.159h-1.406v-4.09h1.385c.873 0 2.3.234 2.3 2.045 0 1.662-1.277 2.045-2.279 2.045Z" fill="#fff"/>
  <path class="cls-1" d="M56.011 42.545v-.009a1.697 1.697 0 0 1 1.76-1.7 1.907 1.907 0 0 1 1.326.476l-.532.64a1.152 1.152 0 0 0-.79-.309.859.859 0 0 0-.835.897v.01a.863.863 0 0 0 .888.905.923.923 0 0 0 .522-.135v-.397h-.645v-.663h1.504v1.471a2.213 2.213 0 0 1-1.42.504 1.68 1.68 0 0 1-1.778-1.69Zm4.37-1.644h1.546a1.43 1.43 0 0 1 1.065.355 1.016 1.016 0 0 1 .29.761v.01a1.034 1.034 0 0 1-.673 1.003l.78 1.14h-1.046l-.66-.99h-.396v.99h-.906Zm1.504 1.57c.309 0 .486-.15.486-.388v-.01c0-.257-.187-.388-.49-.388h-.594v.786Zm2.319.074v-.009a1.762 1.762 0 0 1 3.52-.01v.01a1.762 1.762 0 0 1-3.52.009Zm2.595 0v-.009a.85.85 0 0 0-.84-.883.833.833 0 0 0-.827.873v.01a.848.848 0 0 0 .836.882.833.833 0 0 0 .831-.873Zm1.97.191v-1.835h.92v1.817c0 .471.238.695.602.695s.603-.214.603-.672v-1.84h.92v1.812a1.366 1.366 0 0 1-1.531 1.517 1.35 1.35 0 0 1-1.514-1.494Zm4.247-1.835h1.401c.827 0 1.359.425 1.359 1.149v.01c0 .77-.593 1.176-1.405 1.176h-.449v.934h-.906Zm1.336 1.625c.322 0 .518-.168.518-.425v-.01c0-.28-.196-.43-.523-.43h-.425v.865Zm2.411-1.625h2.629v.77H77.66v.496h1.569v.714h-1.57v.518h1.756v.77h-2.652Zm5.337 0h.846l1.344 1.728V40.9h.897v3.269h-.794l-1.396-1.793v1.793H82.1Zm4.325 0h2.63v.77h-1.733v.496h1.569v.714h-1.57v.518h1.757v.77h-2.653Zm4.719 2.045-1.242-2.045h1.032l.673 1.19.677-1.19h1.012l-1.24 2.031v1.238h-.912Zm2.676.738.505-.602a1.684 1.684 0 0 0 1.06.392c.242 0 .373-.084.373-.224v-.009c0-.136-.107-.21-.55-.313-.696-.159-1.233-.355-1.233-1.028v-.009c0-.607.48-1.046 1.266-1.046a2.063 2.063 0 0 1 1.344.434l-.453.64a1.64 1.64 0 0 0-.915-.322c-.22 0-.327.093-.327.21v.01c0 .149.112.214.564.317.752.164 1.22.406 1.22 1.018v.009c0 .668-.528 1.064-1.322 1.064a2.282 2.282 0 0 1-1.531-.54Z"/>
</svg>