<svg xmlns="http://www.w3.org/2000/svg" viewBox="15.05 10.72 104.35 38.8">
  <defs>
    <style>
      .cls-1{fill:#003673}
    </style>
  </defs>
  <path class="cls-1" d="M15.053 20.415v19.4l16.8 9.7 16.8-9.7v-19.4l-16.8-9.7Zm29.86 2.16v15.08l-3.732 2.154V24.73l-1.84-1.055-3.78 2.126 1.889 1.083v15.08l-3.732 2.08V29.037l-5.62-3.238 11.207-6.47Zm-22.389 2.154v10.772l3.732 2.237v-4.39l.002-4.313 3.73 2.126v12.964l-11.195-6.47v-15.08l13.06-7.54 3.731 2.154Z"/>
  <path d="M94.452 37.996c-4.489 0-8.041-1.32-8.041-6.318v-9.084h4.382v9.445c0 2.085 1.702 2.808 3.574 2.808a6.605 6.605 0 0 0 1.723-.234v-12.02h4.127v14.892a34.785 34.785 0 0 1-5.765.51Zm-31.011.134c-4.309 0-8.015-2.63-8.015-7.8 0-5.086 3.318-8.188 8.36-8.188a13.078 13.078 0 0 1 4.245.69l-1.034 3.532a6.575 6.575 0 0 0-2.845-.689c-2.391 0-4.137 1.487-4.137 4.525a4.12 4.12 0 0 0 4.288 4.438 5.875 5.875 0 0 0 2.866-.71l.905 3.361a12.754 12.754 0 0 1-4.633.84Zm51.485-15.504-3.644 5.815-3.645-5.815h-4.474v15.02h4.146v-8.583l2.494 4.343h2.867l2.518-4.386v8.626h4.212v-15.02h-4.474zm-39.199.001h3.95l6.296 15.017H81.58l-1.08-2.662h-5.704l-1.056 2.662h-4.31Zm3.591 9.138-1.647-4.239-1.67 4.24Z" fill="#fff"/>
  <path class="cls-1" d="M56.192 42.565v-.01a1.697 1.697 0 0 1 1.76-1.7 1.907 1.907 0 0 1 1.326.477l-.533.64a1.152 1.152 0 0 0-.789-.309.859.859 0 0 0-.836.897v.01a.863.863 0 0 0 .888.905.923.923 0 0 0 .523-.135v-.397h-.645v-.664h1.504v1.472a2.213 2.213 0 0 1-1.42.504 1.68 1.68 0 0 1-1.778-1.69Zm4.37-1.644h1.546a1.43 1.43 0 0 1 1.064.354 1.016 1.016 0 0 1 .29.762v.009a1.034 1.034 0 0 1-.673 1.004l.78 1.14h-1.045l-.66-.99h-.396v.99h-.906Zm1.504 1.57c.308 0 .485-.15.485-.388v-.01c0-.257-.186-.388-.49-.388h-.593v.785Zm2.318.074v-.01a1.762 1.762 0 0 1 3.52-.009v.01a1.762 1.762 0 0 1-3.52.009Zm2.596 0v-.01a.85.85 0 0 0-.841-.882.833.833 0 0 0-.826.873v.01a.848.848 0 0 0 .836.882.833.833 0 0 0 .83-.873Zm1.97.191v-1.835h.92v1.816c0 .472.238.696.602.696s.603-.214.603-.672v-1.84h.92v1.812a1.366 1.366 0 0 1-1.532 1.517 1.35 1.35 0 0 1-1.513-1.494Zm4.247-1.835h1.4c.827 0 1.36.425 1.36 1.148v.01c0 .77-.593 1.177-1.406 1.177h-.448v.934h-.906Zm1.336 1.625c.322 0 .518-.168.518-.425v-.01c0-.28-.196-.43-.523-.43h-.425v.865Zm2.411-1.625h2.629v.77H77.84v.496h1.57v.713h-1.57v.519h1.756v.77h-2.652Zm5.336 0h.846l1.345 1.728V40.92h.896v3.269h-.793l-1.397-1.793v1.793h-.896Zm4.326 0h2.629v.77h-1.733v.496h1.57v.713h-1.57v.519h1.756v.77h-2.652Zm4.719 2.045-1.243-2.045h1.033l.672 1.19.677-1.19h1.013l-1.241 2.031v1.238h-.911Zm2.676.738.504-.602a1.684 1.684 0 0 0 1.06.392c.243 0 .374-.084.374-.224v-.01c0-.135-.108-.21-.551-.313-.695-.158-1.232-.354-1.232-1.027v-.009c0-.607.48-1.046 1.265-1.046a2.063 2.063 0 0 1 1.345.434l-.453.64a1.64 1.64 0 0 0-.915-.322c-.22 0-.327.093-.327.21v.01c0 .149.112.214.564.317.752.164 1.219.406 1.219 1.018v.009c0 .668-.528 1.064-1.321 1.064a2.282 2.282 0 0 1-1.532-.54Z"/>
</svg>