<svg xmlns="http://www.w3.org/2000/svg" xml:space="preserve" viewBox="15.05 10.74 92.89 38.8">
  <path fill="white" d="M15.05 20.44v19.4l16.8 9.7 16.8-9.7v-19.4l-16.8-9.7-16.8 9.7zm29.86 2.16v15.08l-3.73 2.15V24.76l-1.84-1.05-3.78 2.13 1.89 1.08V42l-3.73 2.08v-15l-5.62-3.24 11.21-6.47 5.6 3.23zm-22.39 2.16v10.77l3.73 2.24v-8.7l3.73 2.13v12.96l-11.19-6.47V22.6l13.06-7.54 3.73 2.15-13.06 7.55zm34.91-5.28c.59 0 1.07-.22 1.42-.5v-1.47h-1.5v.66h.64v.4c-.14.09-.3.14-.52.14-.52 0-.89-.38-.89-.9v-.01c0-.5.36-.9.83-.9.32 0 .55.11.79.31l.53-.64c-.34-.3-.75-.48-1.32-.48-1.01 0-1.76.75-1.76 1.7v.01c.01.98.77 1.68 1.78 1.68zm5.16-1.05h.4l.66.99h1.04l-.78-1.14c.41-.17.67-.5.67-1v-.01c0-.32-.1-.57-.29-.76-.22-.22-.56-.35-1.06-.35h-1.54v3.26h.9v-.99zm0-1.49h.59c.3 0 .49.13.49.39v.01c0 .24-.18.39-.48.39h-.6v-.79zm6.43-.85c-1.01 0-1.76.76-1.76 1.7v.01c0 .94.75 1.69 1.75 1.69 1.01 0 1.76-.76 1.76-1.7v-.01c0-.94-.74-1.69-1.75-1.69zm.83 1.71c0 .47-.33.87-.83.87-.49 0-.83-.41-.83-.88v-.01c0-.47.33-.87.83-.87.49 0 .83.41.83.89zm5.2 1.68c.93 0 1.53-.46 1.53-1.52v-1.81h-.92v1.84c0 .46-.24.67-.6.67s-.6-.22-.6-.69v-1.81h-.92v1.83c-.01 1.02.58 1.49 1.51 1.49zm5.79-3.33h-1.4v3.26h.9v-.93h.45c.81 0 1.4-.41 1.4-1.17v-.01c.01-.72-.52-1.15-1.35-1.15zm.45 1.2c0 .26-.2.42-.52.42h-.43v-.86h.42c.34 0 .53.15.53.44zm6.27 1.3h-1.75v-.52h1.56v-.71h-1.56v-.5h1.73v-.77h-2.63v3.27h2.65zM65.75 31.06h-.04c-.08-.36-.67-1.39-1.45-2.53l-4.17-5.84h-4.3v14.88h3.96v-8.22h.04c.13.34.63 1.33 1.41 2.4l4.28 5.82h4.24V22.69h-3.96v8.37zm10.44 1.93v-1.64h5.48v-3.08h-5.48V26h5.69v-3.31H71.85v10.77c0 2.21.7 3.41 1.81 4.11h8.53v-3.31h-5.5c-.37-.25-.5-.61-.5-1.27zm16.43-10.3-2.24 6.11h-.04l-2.35-6.11h-4.76l4.85 9.19v5.69h4.34v-5.69l4.84-9.19zm11.62 5.69-.99-.4c-.72-.3-1.39-.63-1.39-1.33 0-.48.38-1.2 1.79-1.2 1.14 0 2.23.3 3.03.72l.86-3.2c-1.29-.46-2.89-.67-4.3-.67-3.46 0-5.92 1.85-5.92 4.93 0 2.49 1.77 3.5 3.65 4.26l.95.38c.7.27 1.45.61 1.45 1.41 0 1.03-1.01 1.37-2.15 1.37-1.22 0-2.44-.38-3.25-.78l-.84 3.31c1.16.42 2.74.76 4.45.76 3.43 0 6.36-1.56 6.36-5.25 0-2.52-1.83-3.55-3.7-4.31z"/>
</svg>