<svg xmlns="http://www.w3.org/2000/svg" viewBox="15.25 10.77 171.25 38.34">
  <defs>
    <style>
      .cls-1{fill:#fff}.cls-2{fill:#a10d59}
    </style>
  </defs>
  <path class="cls-1" d="M69.222 37.471h.011a577.22 577.22 0 0 0-2.62-4.315c-.51-.851-1.148-1.978-1.34-2.319a3.916 3.916 0 0 0 3-3.85c0-4.105-3.893-4.53-6.807-4.53H55.51v15.017h4.382v-5.53h1.4s.198.454.365.808c.34.744.851 1.786 1.213 2.53a3.565 3.565 0 0 0 2.125 2.19Zm-7.82-8.336h-1.51V25.52h1.34c1.17 0 2.616.192 2.616 1.745 0 1.51-1.319 1.872-2.446 1.872Zm15.62 8.742c-4.063 0-7.636-2.02-7.636-7.934 0-5.849 4.211-7.933 7.7-7.933 4.062 0 7.636 2.02 7.636 7.933 0 5.85-4.212 7.934-7.7 7.934Zm.043-12.592c-2.425 0-3.17 2.148-3.17 4.637 0 2.51.745 4.68 3.148 4.68 2.425 0 3.19-2.149 3.19-4.637 0-2.51-.765-4.68-3.169-4.68Zm34.219 12.571c-4.488 0-8.04-1.319-8.04-6.317v-9.083h4.381V31.9c0 2.085 1.702 2.808 3.574 2.808a6.604 6.604 0 0 0 1.722-.234V22.456h4.127v14.89a34.779 34.779 0 0 1-5.764.51Zm10.153-.383c-1.127-.702-1.829-1.914-1.829-4.148V22.456h10.125v3.34h-5.743v2.297h5.53v3.105h-5.53v1.66c0 .659.127 1.02.51 1.276h5.552v3.339Zm17.711 0h-6.955V22.456h7.189c2.637 0 5.445.66 5.445 3.808a2.97 2.97 0 0 1-2.467 2.935v.042a3.296 3.296 0 0 1 2.956 3.574c0 3.765-3.318 4.658-6.168 4.658Zm-1.17-12.145h-1.404v3.105h1.447c1.297 0 2.51-.127 2.51-1.531s-1.17-1.574-2.553-1.574Zm.128 5.7h-1.532v3.595h1.68c1.66 0 2.574-.447 2.574-1.936s-1.552-1.659-2.722-1.659Zm10.914 6.445c-1.128-.702-1.83-1.914-1.83-4.148V22.456h10.125v3.34h-5.743v2.297h5.53v3.105h-5.53v1.66c0 .659.128 1.02.51 1.276h5.552v3.339Zm24.267-.002h.01a554.678 554.678 0 0 0-2.619-4.315c-.51-.851-1.149-1.978-1.34-2.319a3.916 3.916 0 0 0 3-3.85c0-4.105-3.893-4.53-6.808-4.53h-5.956v15.017h4.382v-5.53h1.4s.199.454.366.808c.34.744.85 1.786 1.212 2.53a3.565 3.565 0 0 0 2.126 2.19Zm-7.82-8.336h-1.51V25.52h1.34c1.17 0 2.616.192 2.616 1.745 0 1.51-1.32 1.872-2.447 1.872Zm16.626-3.233v11.571h-4.382V25.902h-4.424v-3.446h13.209v3.446Z"/>
  <path class="cls-2" d="M31.853 10.767 15.25 20.352v19.17l16.602 9.585 16.602-9.585v-19.17Zm-1.844 33.015-11.062-6.394V22.485l12.906-7.45 3.687 2.128-12.906 7.451V35.26l3.688 2.21v-4.337l.002-4.263 3.685 2.101Zm14.75-6.394-3.688 2.129V24.615l-1.818-1.043-3.736 2.1 1.867 1.071v14.902L33.696 43.7V28.872l-5.554-3.2 11.075-6.394 5.541 3.207ZM55.4 18.26v-.009a1.677 1.677 0 0 1 1.722-1.698 1.599 1.599 0 0 1 1.385.681l-.681.527a.874.874 0 0 0-.714-.382.807.807 0 0 0-.778.863v.009a.808.808 0 0 0 .778.872.892.892 0 0 0 .737-.396l.681.485a1.719 1.719 0 0 1-3.13-.952Zm5.85-1.641h.905v1.222h1.162v-1.222h.904v3.264h-.904v-1.24h-1.162v1.24h-.905Zm7.011-.024h.872l1.39 3.288h-.97l-.238-.583h-1.259l-.233.583h-.952Zm.08-.965h.718l.597.77h-.57l-.391-.285-.392.284h-.56Zm.713 2.966-.364-.928-.368.928Zm4.917-1.184h-.98v-.793h2.864v.793h-.979v2.471h-.905Zm4.614-.793h2.626v.77h-1.73v.494h1.566v.713H79.48v.518h1.754v.77h-2.65Zm6.572-.024h.872l1.39 3.288h-.97l-.238-.583h-1.259l-.233.583h-.952Zm.793 2.001-.364-.928-.368.928Zm3.952-.144v-1.833h.919v1.814c0 .471.237.695.601.695s.602-.215.602-.672V16.62h.919v1.81a1.365 1.365 0 0 1-1.53 1.515 1.349 1.349 0 0 1-1.511-1.492Z"/>
  <path class="cls-1" d="m101.956 35.966-1.686-1.686a8.624 8.624 0 0 0 1.037-4.342c0-5.895-3.562-7.91-7.612-7.91-3.477 0-7.676 2.078-7.676 7.91 0 5.894 3.563 7.909 7.612 7.909a8.478 8.478 0 0 0 3.711-.84l1.787 1.786Zm-11.441-6.05c0-2.48.742-4.622 3.159-4.622 2.396 0 3.16 2.163 3.16 4.665 0 2.48-.764 4.622-3.181 4.622-2.396 0-3.138-2.162-3.138-4.665Z"/>
  <path class="cls-2" d="M55.42 42.394v-.009a1.697 1.697 0 0 1 1.76-1.7 1.907 1.907 0 0 1 1.326.477l-.532.64a1.152 1.152 0 0 0-.79-.31.859.859 0 0 0-.835.897v.01a.863.863 0 0 0 .887.905.923.923 0 0 0 .523-.135v-.397h-.645v-.663h1.504v1.471a2.213 2.213 0 0 1-1.42.504 1.68 1.68 0 0 1-1.778-1.69Zm4.37-1.644h1.546a1.43 1.43 0 0 1 1.064.355 1.016 1.016 0 0 1 .29.762v.008a1.034 1.034 0 0 1-.672 1.004l.78 1.14h-1.046l-.66-.99h-.396v.99h-.906Zm1.504 1.57c.309 0 .485-.15.485-.388v-.01c0-.257-.186-.387-.49-.387h-.593v.785Zm2.318.074v-.009a1.762 1.762 0 0 1 3.52-.01v.01a1.762 1.762 0 0 1-3.52.009Zm2.596 0v-.009a.85.85 0 0 0-.84-.883.833.833 0 0 0-.827.873v.01a.848.848 0 0 0 .836.882.833.833 0 0 0 .831-.873Zm1.97.191V40.75h.92v1.817c0 .471.238.695.602.695s.603-.214.603-.672v-1.84h.92v1.812a1.366 1.366 0 0 1-1.532 1.517 1.35 1.35 0 0 1-1.513-1.494Zm4.247-1.835h1.401c.826 0 1.359.425 1.359 1.149v.01c0 .77-.593 1.176-1.406 1.176h-.448v.934h-.906Zm1.336 1.625c.322 0 .518-.168.518-.424v-.01c0-.28-.196-.43-.523-.43h-.425v.864Zm2.411-1.625H78.8v.77h-1.733v.496h1.57v.714h-1.57v.518h1.756v.77h-2.652Zm5.337 0h.845l1.345 1.728V40.75h.897v3.269h-.794l-1.397-1.793v1.793h-.896Zm4.325 0h2.629v.77H86.73v.496h1.57v.714h-1.57v.518h1.756v.77h-2.652Zm4.719 2.045L89.31 40.75h1.032l.673 1.19.676-1.19h1.013l-1.241 2.032v1.237h-.911Zm2.677.739.503-.603a1.684 1.684 0 0 0 1.06.393c.243 0 .374-.084.374-.225v-.009c0-.136-.107-.21-.55-.313-.696-.158-1.233-.355-1.233-1.028v-.008c0-.608.48-1.046 1.265-1.046a2.063 2.063 0 0 1 1.345.433l-.453.64a1.64 1.64 0 0 0-.915-.321c-.22 0-.327.092-.327.21v.009c0 .149.112.214.564.317.752.164 1.219.406 1.219 1.018v.01c0 .667-.527 1.064-1.321 1.064a2.282 2.282 0 0 1-1.532-.541Z"/>
</svg>