<svg width="165" height="53" fill="none" xmlns="http://www.w3.org/2000/svg">
  <path d="M83.435 20.212h-1.826v5.392h1.854c1.32 0 3.005-.505 3.005-2.696 0-2.387-1.881-2.696-3.033-2.696Zm.477 9.408h-2.303v6.376h-5.785V16.168h7.779c3.596 0 8.65.673 8.65 6.432 0 6.037-4.886 7.02-8.341 7.02ZM54.923 16.272h5.785V36.1h-5.785V16.27ZM66.577 16.168h5.786v19.829h-5.786v-19.83Z" fill="#fff"/>
  <path d="M57 24h15.57v4.144H57V24ZM115.412 36.204V16.167h5.847V31.52h8.088v4.683h-13.935ZM100.482 36.204c-1.504-.936-2.44-2.554-2.44-5.535V16.167h13.508v4.456h-7.663v3.065h7.38v4.144h-7.38v2.213c0 .88.171 1.363.682 1.703h7.408v4.456h-11.495ZM134.166 36.204c-1.504-.936-2.44-2.554-2.44-5.535V16.167h13.508v4.456h-7.663v3.065h7.38v4.144h-7.38v2.213c0 .88.171 1.363.681 1.703h7.408v4.456h-11.494ZM158.79 36.844c-5.745 0-10.687-3.505-10.687-10.4 0-6.781 4.424-10.916 11.147-10.916 2.155 0 4.08.373 5.66.919l-1.379 4.71c-1.208-.602-2.586-.918-3.793-.918-3.188 0-5.516 1.981-5.516 6.032 0 3.937 2.672 5.919 5.717 5.919 1.466 0 2.816-.374 3.822-.948l1.206 4.482c-1.724.718-4.05 1.12-6.177 1.12Z" fill="#fff"/>
  <path d="M10.032 18.972v14.363l4.976 2.982v-5.853l.002-5.75 4.973 2.834v17.287L5.058 36.207V16.1L22.47 6.045l4.975 2.874-17.414 10.053ZM39.884 16.1v20.107l-4.976 2.872V18.972l-2.453-1.407-5.041 2.835 2.52 1.444v20.108l-4.976 2.77V24.718L17.463 20.4l14.944-8.628 7.477 4.328ZM.07 13.22v25.867l22.4 12.932 22.4-12.932V13.22L22.47.288.07 13.22ZM54.923 42.752v-.012c0-1.27.996-2.266 2.347-2.266.765 0 1.306.237 1.768.636l-.71.852c-.312-.262-.622-.41-1.052-.41-.629 0-1.114.529-1.114 1.194v.013c0 .703.492 1.207 1.182 1.207.292 0 .516-.062.698-.18v-.53h-.86v-.883h2.005v1.962a2.95 2.95 0 0 1-1.893.67c-1.356 0-2.37-.933-2.37-2.253ZM62.755 42.654c.412 0 .647-.2.647-.518v-.012c0-.342-.248-.517-.654-.517h-.79v1.047h.797Zm-2.005-2.092h2.061c.667 0 1.127.174 1.419.472.256.25.386.586.386 1.016v.012c0 .666-.354 1.108-.896 1.338l1.04 1.519h-1.394l-.879-1.32h-.529v1.32H60.75v-4.357ZM69.307 42.752v-.012c0-.628-.454-1.177-1.121-1.177-.659 0-1.102.536-1.102 1.164v.014c0 .627.455 1.175 1.115 1.175.667 0 1.108-.534 1.108-1.163Zm-3.461 0v-.012c0-1.25 1.008-2.266 2.353-2.266 1.346 0 2.341 1.003 2.341 2.253v.014c0 1.252-1.009 2.265-2.354 2.265-1.344 0-2.34-1.003-2.34-2.254ZM71.933 43.008V40.56h1.227v2.421c0 .63.318.928.803.928.487 0 .804-.285.804-.896v-2.453h1.227v2.416c0 1.407-.805 2.023-2.042 2.023-1.24 0-2.019-.63-2.019-1.992ZM79.377 42.728c.43 0 .693-.224.693-.567v-.013c0-.374-.263-.572-.7-.572h-.566v1.152h.573Zm-1.78-2.167h1.867c1.103 0 1.812.567 1.812 1.53v.014c0 1.028-.79 1.57-1.873 1.57h-.599v1.245h-1.208V40.56ZM82.592 40.561h3.506v1.028h-2.311v.66h2.093v.95h-2.093v.693h2.341v1.028h-3.536V40.56ZM89.708 40.561h1.128l1.792 2.304v-2.304h1.196v4.359h-1.058l-1.863-2.39v2.39h-1.195V40.56ZM95.475 40.561h3.505v1.028h-2.31v.66h2.093v.95H96.67v.693h2.341v1.028h-3.536V40.56ZM101.767 43.288l-1.656-2.727h1.376l.897 1.588.903-1.588h1.349l-1.655 2.708v1.65h-1.214v-1.631ZM105.336 44.272l.672-.804c.429.343.909.524 1.413.524.324 0 .497-.112.497-.3v-.01c0-.182-.142-.282-.733-.42-.928-.21-1.644-.471-1.644-1.369v-.012c0-.809.641-1.394 1.688-1.394.74 0 1.319.2 1.793.578l-.604.852c-.398-.28-.834-.428-1.221-.428-.292 0-.436.124-.436.28v.012c0 .199.151.287.753.423 1.003.219 1.626.541 1.626 1.359v.012c0 .89-.704 1.418-1.763 1.418-.772 0-1.507-.242-2.041-.721Z" fill="#3970C0"/>
</svg>