<svg width="1032" height="1032" viewBox="0 0 1032 1032" fill="none" xmlns="http://www.w3.org/2000/svg">
<g filter="url(#filter0_d_1_2)">
<rect width="1024" height="1024" transform="translate(4)" fill="#060C84"/>
<path fill-rule="evenodd" clip-rule="evenodd" d="M579 174.5C579 196.985 567.126 216.698 549.306 227.708C548.894 235.228 548.465 245.251 548.403 253.063C548.399 253.652 548.391 254.257 548.383 254.874V254.874V254.874C548.341 258.194 548.295 261.863 548.686 265.255C548.817 266.391 548.978 267.281 549.138 267.95C549.769 268.033 550.386 268.047 550.854 268.019L551.177 268H808.141L808.282 268.004C813.524 268.138 820.903 269.964 827.137 275.169C833.845 280.769 838.27 289.503 837.997 301.256C837.729 312.8 833.199 321.296 826.059 326.399C819.758 330.902 812.612 331.909 807.496 331.5H776.207L888.917 575.184C890.272 578.114 890.891 581.132 890.882 584.07C896.8 584.554 902.142 587.506 905.495 592.323C909.205 597.655 909.937 604.507 907.376 610.797C905.156 616.25 902.426 622.636 899.921 628.174C897.569 633.373 895.012 638.743 893.223 641.495C882.384 658.17 869.732 666.21 861.878 668.698C861.744 668.741 861.611 668.781 861.479 668.819C859.505 669.39 857.74 669.5 856.429 669.5H667.5C659.809 669.5 652.851 666.664 647.624 663.69C642.308 660.665 637.897 656.993 635.046 654.136C633.623 652.71 632.575 651.186 631.797 649.783L612.613 615.183C606.075 603.392 612.228 589.338 623.898 585.201C623.7 581.818 624.33 578.303 625.954 574.917L742.722 331.5H551.5C551.027 331.5 550.742 331.552 550.602 331.587C550.557 331.598 550.523 331.609 550.497 331.617C550.481 331.622 550.469 331.627 550.46 331.631C550.436 331.64 550.425 331.646 550.423 331.647L550.422 331.648C550.421 331.648 550.415 331.653 550.404 331.664C550.381 331.685 550.324 331.745 550.245 331.864C550.07 332.125 549.86 332.564 549.701 333.165C549.539 333.773 549.5 334.283 549.5 334.5V772.5H639.247L639.986 772.601C644.978 773.282 652.245 775.391 658.676 779.807C665.327 784.373 671.834 792.027 672.482 803.372C673.004 812.504 673.007 822.837 672.853 831H699.5C709.576 831 716.378 837.468 720.208 842.747C724.157 848.189 726.587 854.48 727.816 858.953C728.327 860.811 728.471 862.485 728.52 863.73C728.552 864.558 728.629 865.856 728.725 867.473L728.725 867.477L728.726 867.482C729.003 872.164 729.44 879.516 729.412 885.891C729.393 890.208 729.18 895.027 728.355 899.021C727.962 900.928 727.251 903.582 725.738 906.021C724.147 908.588 720.538 912.5 714.5 912.5H317.5C311.684 912.5 307.917 908.981 306.033 906.143C304.312 903.551 303.487 900.679 303.024 898.558C302.065 894.158 301.84 888.861 301.829 884.228C301.816 879.425 302.042 874.521 302.234 870.661L302.266 870.039L302.3 869.359C302.371 867.948 302.432 866.738 302.474 865.706C302.525 864.438 302.524 863.882 302.524 863.758C302.524 863.735 302.524 863.727 302.524 863.732C301.797 852.823 308.284 845.115 314.045 840.61C319.879 836.048 326.786 833.211 331.708 831.772C333.687 831.194 335.578 831 337.256 831H359V808C359 794.946 364.788 785.709 372.419 780.011C379.551 774.686 387.819 772.748 393.542 772.51L393.771 772.5H481V334.136C480.944 334.121 480.884 334.106 480.818 334.091C480.624 334.048 480.432 334.02 480.258 334.004C480.08 333.988 479.968 333.99 479.94 333.991L479.72 334H292.805L402.159 576.363C403.335 578.969 403.933 581.64 404.028 584.26C417.973 586.449 426.18 602.061 419.111 615.043L400.167 649.831C400.157 649.853 400.136 649.898 400.102 649.973C400.065 650.059 400.028 650.143 399.972 650.272L399.969 650.278L399.937 650.353C399.869 650.509 399.776 650.724 399.673 650.953C395.396 660.448 382.988 669.5 362 669.5H177.156C169.661 669.681 153.777 666.24 146.089 650.272C143.722 645.355 138.76 636.733 133.411 627.436C130.951 623.161 128.409 618.744 125.999 614.478C118.576 601.337 127.217 586.229 140.896 584.224C140.994 581.646 141.58 579.018 142.724 576.452L250.778 334H224.066C218.653 334.495 210.941 333.595 204.148 328.93C196.378 323.595 191.5 314.5 191.5 302C191.5 289.5 196.358 280.408 203.865 274.896C210.609 269.944 218.371 268.701 223.84 269H481V225.946C464.687 214.669 454 195.832 454 174.5C454 139.982 481.982 112 516.5 112C551.018 112 579 139.982 579 174.5ZM516.5 237C520.033 237 523.498 236.707 526.871 236.143C526.633 241.773 526.444 247.739 526.404 252.89C526.401 253.291 526.394 253.759 526.386 254.281V254.281C526.339 257.509 526.261 262.833 526.831 267.776C527.166 270.673 527.782 274.094 529.069 277.297C530.31 280.384 532.74 284.658 537.561 287.134C542.569 289.706 548.069 290.171 551.784 290H807.818C809.096 290.059 811.342 290.641 813.038 292.056C814.305 293.115 816.13 295.297 816.003 300.744C815.934 303.721 815.361 305.52 814.855 306.551C814.365 307.548 813.8 308.12 813.266 308.501C811.992 309.412 810.2 309.674 809.182 309.564L808.593 309.5H551.5C542.359 309.5 535.793 313.896 531.956 319.636C528.512 324.786 527.5 330.563 527.5 334.5V772.5H503V334C503 325.372 498.757 319.154 493.125 315.649C488.288 312.638 482.963 311.897 479.318 312H222.848L222.2 312.077C220.634 312.264 218.246 311.923 216.602 310.795C215.904 310.315 215.233 309.634 214.684 308.507C214.115 307.342 213.5 305.328 213.5 302C213.5 295.7 215.642 293.542 216.885 292.629C218.706 291.292 221.204 290.864 222.716 290.972L223.108 291H482C493.598 291 503 281.598 503 270V235.538C507.348 236.495 511.865 237 516.5 237ZM556 175C556 197.091 538.091 215 516 215C493.909 215 476 197.091 476 175C476 152.909 493.909 135 516 135C538.091 135 556 152.909 556 175ZM417.5 831H381V808C381 802.254 383.212 799.408 385.581 797.639C388.371 795.556 391.979 794.636 394.27 794.5H637.651C640.01 794.922 643.45 796.039 646.224 797.943C649.04 799.877 650.366 801.973 650.518 804.628C651.01 813.242 651.003 823.203 650.849 831H467V853H699.5C699.511 853 699.521 853 699.53 853.001C699.54 853.002 699.55 853.003 699.56 853.004C699.578 853.007 699.598 853.013 699.623 853.021C699.688 853.042 699.846 853.103 700.1 853.27C700.651 853.633 701.459 854.369 702.401 855.667C704.286 858.265 705.747 861.776 706.534 864.539L706.536 864.589C706.594 866.054 706.7 867.843 706.82 869.851L706.821 869.857V869.858V869.859C707.095 874.448 707.437 880.179 707.412 885.796C707.405 887.567 707.357 889.142 707.275 890.5H324.061C323.914 888.747 323.835 886.616 323.828 884.172C323.818 880.001 324.015 875.605 324.207 871.758C324.217 871.553 324.228 871.345 324.239 871.134L324.273 870.458C324.428 867.467 324.6 864.134 324.476 862.268C324.442 861.767 324.548 860.324 327.598 857.94C330.46 855.701 334.38 853.958 337.509 853H417.5V831ZM759.407 347.584L646.477 583H868.293L759.407 347.584ZM549.579 269.305C549.579 269.307 549.566 269.285 549.543 269.236C549.568 269.279 549.58 269.304 549.579 269.305ZM163.445 584L271.786 340.906L381.469 584H163.445ZM151.854 615.369C150.015 612.172 148.188 608.996 146.483 606H398.985L380.82 639.358C380.45 640.036 380.17 640.652 379.987 641.064C379.825 641.429 379.78 641.537 379.747 641.616C379.717 641.685 379.697 641.733 379.614 641.918C379.629 641.883 379.624 641.89 379.594 641.932C379.249 642.416 375.619 647.5 362 647.5H176.81L176.621 647.507C175.914 647.531 173.737 647.321 171.403 646.199C169.266 645.171 167.255 643.519 165.911 640.728C163.178 635.051 157.458 625.11 151.854 615.369ZM650.907 638.88L632.677 606H885.558C883.754 610.329 881.742 614.983 879.876 619.107C877.342 624.708 875.477 628.429 874.777 629.505C866.915 641.601 858.83 646.292 855.85 647.5H667.5C665.07 647.5 661.952 646.531 658.504 644.569C655.332 642.764 652.602 640.527 650.907 638.88Z" fill="white"/>
</g>
<defs>
<filter id="filter0_d_1_2" x="0" y="0" width="1032" height="1032" filterUnits="userSpaceOnUse" color-interpolation-filters="sRGB">
<feFlood flood-opacity="0" result="BackgroundImageFix"/>
<feColorMatrix in="SourceAlpha" type="matrix" values="0 0 0 0 0 0 0 0 0 0 0 0 0 0 0 0 0 0 127 0" result="hardAlpha"/>
<feOffset dy="4"/>
<feGaussianBlur stdDeviation="2"/>
<feComposite in2="hardAlpha" operator="out"/>
<feColorMatrix type="matrix" values="0 0 0 0 0 0 0 0 0 0 0 0 0 0 0 0 0 0 0.25 0"/>
<feBlend mode="normal" in2="BackgroundImageFix" result="effect1_dropShadow_1_2"/>
<feBlend mode="normal" in="SourceGraphic" in2="effect1_dropShadow_1_2" result="shape"/>
</filter>
</defs>
</svg>
