<svg width="400" height="400" viewBox="0 0 400 400" fill="none" xmlns="http://www.w3.org/2000/svg">
<rect x="0.5" y="0.5" width="399" height="399" fill="#060C84"/>
<path fill-rule="evenodd" clip-rule="evenodd" d="M214.516 124.976C214.516 130.004 211.871 134.411 207.901 136.873C207.81 138.555 207.714 140.796 207.7 142.543C207.699 142.675 207.697 142.81 207.696 142.948V142.948V142.948C207.686 143.691 207.676 144.511 207.763 145.269C207.792 145.523 207.828 145.722 207.864 145.872C208.004 145.891 208.142 145.894 208.246 145.887L208.318 145.883H265.558L265.589 145.884C266.757 145.914 268.401 146.322 269.79 147.486C271.284 148.738 272.269 150.692 272.209 153.32C272.149 155.901 271.14 157.801 269.549 158.942C268.146 159.949 266.554 160.174 265.414 160.082H258.445L283.551 214.573C283.853 215.228 283.991 215.903 283.989 216.56C285.307 216.668 286.497 217.328 287.244 218.405C288.07 219.597 288.233 221.13 287.663 222.536C287.169 223.755 286.56 225.183 286.002 226.422C285.478 227.584 284.909 228.785 284.51 229.4C282.096 233.129 279.278 234.927 277.528 235.483C277.519 235.486 277.51 235.489 277.5 235.492C277.48 235.498 277.46 235.505 277.439 235.51C277 235.638 276.606 235.663 276.314 235.663H234.23C232.516 235.663 230.966 235.029 229.802 234.364C228.618 233.687 227.635 232.866 227 232.227C226.683 231.908 226.45 231.568 226.277 231.254L222.003 223.517C220.547 220.88 221.917 217.738 224.517 216.813C224.473 216.056 224.613 215.27 224.975 214.513L250.986 160.082H208.39C208.285 160.082 208.221 160.094 208.19 160.102C208.185 160.103 208.18 160.105 208.176 160.106C208.174 160.106 208.171 160.107 208.17 160.108C208.166 160.109 208.164 160.11 208.162 160.11C208.16 160.111 208.159 160.111 208.158 160.112C208.153 160.114 208.151 160.115 208.15 160.115L208.15 160.116C208.15 160.116 208.148 160.117 208.146 160.119C208.141 160.124 208.128 160.137 208.11 160.164C208.071 160.222 208.025 160.32 207.989 160.455C207.953 160.591 207.944 160.705 207.944 160.753V258.695H227.936L228.101 258.717C229.213 258.869 230.831 259.341 232.264 260.328C233.745 261.349 235.195 263.061 235.339 265.598C235.456 267.64 235.456 269.95 235.422 271.776H241.358C243.602 271.776 245.117 273.222 245.971 274.403C246.85 275.619 247.391 277.026 247.665 278.026C247.779 278.442 247.811 278.816 247.822 279.095C247.829 279.28 247.846 279.57 247.868 279.932L247.868 279.935C247.93 280.982 248.027 282.625 248.021 284.05C248.017 285.015 247.969 286.093 247.785 286.986C247.698 287.412 247.539 288.006 247.202 288.551C246.848 289.125 246.044 290 244.699 290H156.265C154.97 290 154.131 289.213 153.711 288.579C153.328 287.999 153.144 287.357 153.041 286.882C152.827 285.899 152.777 284.714 152.774 283.678C152.772 282.604 152.822 281.508 152.865 280.644L152.88 280.353L152.88 280.353C152.895 280.037 152.909 279.767 152.918 279.536C152.93 279.253 152.929 279.128 152.929 279.101C152.929 279.096 152.929 279.094 152.929 279.095C152.767 276.656 154.213 274.932 155.496 273.925C156.795 272.904 158.334 272.27 159.43 271.948C159.871 271.819 160.292 271.776 160.666 271.776H165.51V266.633C165.51 263.714 166.799 261.648 168.499 260.374C170.087 259.183 171.929 258.75 173.204 258.697L173.255 258.695H192.686V160.672C192.673 160.669 192.66 160.665 192.645 160.662C192.602 160.652 192.559 160.646 192.52 160.642C192.481 160.639 192.456 160.639 192.45 160.64L192.401 160.641H150.765L175.124 214.836C175.386 215.419 175.519 216.016 175.54 216.602C178.646 217.092 180.474 220.583 178.9 223.486L174.68 231.265L174.676 231.272C174.674 231.277 174.67 231.285 174.665 231.296C174.657 231.315 174.649 231.333 174.638 231.361L174.636 231.365L174.629 231.381L174.616 231.411C174.603 231.441 174.587 231.478 174.57 231.515C173.617 233.639 170.853 235.663 166.178 235.663H125.003C123.334 235.703 119.795 234.934 118.083 231.363C117.555 230.264 116.45 228.336 115.259 226.257C114.711 225.301 114.144 224.313 113.608 223.359C111.954 220.421 113.879 217.042 116.926 216.594C116.948 216.018 117.078 215.43 117.333 214.856L141.403 160.641H135.453C134.247 160.752 132.529 160.551 131.016 159.508C129.285 158.315 128.198 156.281 128.198 153.486C128.198 150.691 129.28 148.658 130.953 147.425C132.455 146.318 134.184 146.04 135.402 146.107H192.686V136.48C189.052 133.958 186.671 129.746 186.671 124.976C186.671 117.257 192.905 111 200.594 111C208.283 111 214.516 117.257 214.516 124.976ZM200.594 138.951C201.381 138.951 202.152 138.886 202.904 138.76C202.851 140.019 202.809 141.353 202.8 142.504C202.799 142.594 202.798 142.698 202.796 142.814L202.796 142.815C202.785 143.537 202.768 144.728 202.895 145.833C202.969 146.481 203.107 147.246 203.393 147.962C203.67 148.652 204.211 149.608 205.285 150.162C206.4 150.737 207.626 150.841 208.453 150.803H265.486C265.771 150.816 266.271 150.946 266.649 151.262C266.931 151.499 267.338 151.987 267.309 153.205C267.294 153.871 267.166 154.273 267.053 154.504C266.944 154.727 266.818 154.854 266.7 154.94C266.416 155.143 266.017 155.202 265.79 155.177L265.659 155.163H208.39C206.354 155.163 204.891 156.146 204.036 157.43C203.269 158.581 203.044 159.873 203.044 160.753V258.695H197.586V160.641C197.586 158.712 196.641 157.322 195.387 156.538C194.309 155.865 193.123 155.699 192.311 155.722H135.181L135.037 155.739C134.688 155.781 134.156 155.705 133.79 155.452C133.634 155.345 133.485 155.193 133.363 154.941C133.236 154.68 133.099 154.23 133.099 153.486C133.099 152.077 133.576 151.595 133.853 151.39C134.259 151.092 134.815 150.996 135.152 151.02L135.239 151.026H192.909C195.492 151.026 197.586 148.924 197.586 146.33V138.624C198.555 138.838 199.561 138.951 200.594 138.951ZM209.392 125.087C209.392 130.027 205.403 134.032 200.482 134.032C195.561 134.032 191.572 130.027 191.572 125.087C191.572 120.148 195.561 116.143 200.482 116.143C205.403 116.143 209.392 120.148 209.392 125.087ZM178.541 271.776H170.41V266.633C170.41 265.348 170.903 264.711 171.431 264.316C172.052 263.85 172.856 263.644 173.366 263.614H227.58C228.106 263.708 228.872 263.958 229.49 264.384C230.118 264.816 230.413 265.285 230.447 265.879C230.556 267.805 230.555 270.032 230.52 271.776H189.567V276.695H241.358C241.362 276.695 241.366 276.695 241.37 276.696C241.371 276.696 241.373 276.697 241.375 276.697C241.378 276.698 241.381 276.699 241.385 276.7C241.4 276.704 241.435 276.718 241.491 276.756C241.614 276.837 241.794 277.001 242.004 277.292C242.424 277.872 242.749 278.658 242.925 279.275L242.925 279.287C242.938 279.615 242.962 280.015 242.988 280.465V280.465C243.049 281.491 243.126 282.772 243.12 284.029C243.118 284.425 243.108 284.777 243.09 285.081H157.727C157.694 284.689 157.676 284.212 157.675 283.666C157.673 282.733 157.717 281.75 157.759 280.89L157.773 280.618L157.774 280.605L157.774 280.599C157.809 279.93 157.847 279.185 157.819 278.768C157.812 278.655 157.835 278.333 158.515 277.8C159.152 277.299 160.026 276.909 160.722 276.695H178.541V271.776ZM254.702 163.679L229.547 216.32H278.957L254.702 163.679ZM207.962 146.175C207.962 146.175 207.959 146.171 207.954 146.159C207.96 146.169 207.962 146.175 207.962 146.175ZM121.949 216.544L146.082 162.186L170.515 216.544H121.949ZM119.367 223.558C118.957 222.843 118.55 222.133 118.17 221.463H174.416L170.37 228.923C170.288 229.074 170.225 229.212 170.185 229.304C170.149 229.386 170.139 229.41 170.131 229.428C170.125 229.443 170.12 229.454 170.102 229.495C170.104 229.49 170.104 229.489 170.102 229.491C170.102 229.492 170.1 229.495 170.097 229.498C170.02 229.607 169.212 230.743 166.178 230.743H124.926L124.884 230.745C124.727 230.75 124.242 230.703 123.722 230.452C123.246 230.223 122.798 229.853 122.498 229.229C121.889 227.96 120.615 225.737 119.367 223.558L119.367 223.558ZM230.533 228.816L226.472 221.463H282.803C282.401 222.432 281.953 223.472 281.537 224.394C280.973 225.647 280.557 226.479 280.401 226.719C278.65 229.424 276.849 230.473 276.185 230.743H234.23C233.688 230.743 232.994 230.526 232.226 230.088C231.519 229.684 230.911 229.184 230.533 228.816Z" fill="white"/>
<rect x="0.5" y="0.5" width="399" height="399" stroke="black"/>
</svg>
