<svg version="1.1" id="Layer_1" xmlns="http://www.w3.org/2000/svg" xmlns:xlink="http://www.w3.org/1999/xlink" x="0px" y="0px"
	 viewBox="0 0 935.4 283.5" style="enable-background:new 0 0 935.4 283.5;" xml:space="preserve">
<style type="text/css">
	.st0{fill:#FFFFFF;}
</style>
<g>
	<g>
		<path class="st0" d="M559.5,220.7v-34.9h4v12.9h0.3c0.3-0.5,0.7-1,1.2-1.7c0.5-0.7,1.3-1.3,2.3-1.9c1-0.6,2.3-0.8,4-0.8
			c2.2,0,4.1,0.6,5.8,1.7s3,2.7,3.9,4.7s1.4,4.4,1.4,7.2c0,2.8-0.5,5.2-1.4,7.2s-2.2,3.6-3.9,4.7c-1.7,1.1-3.6,1.7-5.8,1.7
			c-1.7,0-3-0.3-4-0.8s-1.8-1.2-2.3-1.9c-0.5-0.7-1-1.3-1.3-1.8h-0.5v4H559.5z M563.5,207.6c0,2,0.3,3.7,0.9,5.2
			c0.6,1.5,1.4,2.7,2.5,3.5s2.5,1.3,4.1,1.3c1.7,0,3.1-0.4,4.2-1.3c1.1-0.9,2-2.1,2.6-3.6c0.6-1.5,0.9-3.2,0.9-5.1
			c0-1.8-0.3-3.5-0.8-5c-0.6-1.5-1.4-2.7-2.5-3.5c-1.1-0.9-2.5-1.3-4.3-1.3c-1.6,0-3,0.4-4.1,1.2c-1.1,0.8-2,2-2.5,3.4
			C563.8,203.9,563.5,205.6,563.5,207.6z"/>
		<path class="st0" d="M589.5,230.5c-0.7,0-1.3-0.1-1.8-0.2c-0.5-0.1-0.9-0.2-1.1-0.3l1-3.5c1,0.2,1.8,0.3,2.6,0.3s1.4-0.4,2-1
			c0.6-0.6,1.1-1.6,1.6-2.9l0.8-2l-9.7-26.3h4.4l7.2,20.9h0.3l7.2-20.9h4.4l-11.1,30c-0.5,1.4-1.1,2.5-1.9,3.4
			c-0.7,0.9-1.6,1.6-2.6,2C591.8,230.3,590.7,230.5,589.5,230.5z"/>
		<path class="st0" d="M643.1,195.4c-0.2-1.5-0.8-2.6-2-3.5c-1.2-0.8-2.7-1.2-4.6-1.2c-1.3,0-2.4,0.2-3.4,0.6s-1.7,0.9-2.2,1.6
			s-0.8,1.5-0.8,2.3c0,0.7,0.2,1.4,0.5,1.9c0.3,0.5,0.8,1,1.4,1.4c0.6,0.4,1.2,0.7,1.9,0.9c0.7,0.2,1.4,0.5,2.1,0.6l3.3,0.8
			c1.3,0.3,2.6,0.7,3.8,1.2s2.3,1.2,3.3,2c1,0.8,1.7,1.8,2.3,2.9s0.9,2.4,0.9,4c0,2-0.5,3.8-1.6,5.4c-1,1.6-2.6,2.8-4.5,3.6
			c-2,0.9-4.4,1.3-7.2,1.3c-2.7,0-5.1-0.4-7.1-1.3c-2-0.8-3.6-2.1-4.7-3.7c-1.1-1.6-1.7-3.6-1.8-5.9h6.2c0.1,1.2,0.5,2.2,1.1,3
			s1.5,1.4,2.6,1.8c1.1,0.4,2.3,0.6,3.6,0.6c1.4,0,2.6-0.2,3.6-0.6c1-0.4,1.9-1,2.4-1.7s0.9-1.6,0.9-2.6c0-0.9-0.3-1.7-0.8-2.3
			c-0.5-0.6-1.3-1.1-2.2-1.5s-2-0.8-3.3-1.1l-4-1c-2.9-0.7-5.1-1.9-6.8-3.4c-1.7-1.5-2.5-3.5-2.5-6c0-2.1,0.6-3.9,1.7-5.4
			c1.1-1.5,2.6-2.7,4.6-3.6c1.9-0.9,4.1-1.3,6.6-1.3c2.5,0,4.7,0.4,6.5,1.3c1.9,0.9,3.3,2,4.4,3.6c1.1,1.5,1.6,3.3,1.7,5.2H643.1z"
			/>
		<path class="st0" d="M665.5,221.2c-2.6,0-4.9-0.6-6.7-1.7s-3.3-2.7-4.3-4.8s-1.5-4.4-1.5-7c0-2.7,0.5-5,1.5-7c1-2,2.5-3.6,4.3-4.8
			c1.9-1.1,4.1-1.7,6.6-1.7c2.1,0,4,0.4,5.7,1.2c1.6,0.8,3,1.9,3.9,3.3c1,1.4,1.5,3.1,1.7,5h-5.9c-0.2-1.3-0.8-2.3-1.7-3.2
			c-0.9-0.8-2.1-1.3-3.6-1.3c-1.3,0-2.4,0.3-3.3,1c-1,0.7-1.7,1.6-2.2,2.9s-0.8,2.8-0.8,4.5c0,1.8,0.3,3.3,0.8,4.6s1.3,2.3,2.2,2.9
			c0.9,0.7,2.1,1,3.3,1c0.9,0,1.7-0.2,2.4-0.5s1.3-0.8,1.8-1.5c0.5-0.7,0.8-1.5,1-2.4h5.9c-0.1,1.9-0.7,3.5-1.6,4.9
			c-0.9,1.4-2.2,2.5-3.9,3.3S667.7,221.2,665.5,221.2z"/>
		<path class="st0" d="M688.4,221.2c-1.7,0-3.2-0.3-4.5-0.9c-1.3-0.6-2.4-1.5-3.1-2.7c-0.8-1.2-1.2-2.6-1.2-4.3
			c0-1.5,0.3-2.7,0.8-3.7c0.5-1,1.3-1.7,2.2-2.3c0.9-0.6,2-1,3.2-1.3s2.4-0.5,3.7-0.7c1.5-0.2,2.8-0.3,3.7-0.4
			c1-0.1,1.7-0.3,2.1-0.6c0.4-0.3,0.7-0.7,0.7-1.3v-0.1c0-1.3-0.4-2.3-1.1-3c-0.8-0.7-1.9-1.1-3.3-1.1c-1.5,0-2.7,0.3-3.6,1
			s-1.5,1.4-1.8,2.3l-5.8-0.8c0.5-1.6,1.2-2.9,2.2-4c1-1.1,2.3-1.9,3.8-2.4c1.5-0.5,3.2-0.8,5-0.8c1.3,0,2.5,0.1,3.8,0.4
			c1.2,0.3,2.4,0.8,3.4,1.5s1.9,1.6,2.5,2.8c0.6,1.2,0.9,2.6,0.9,4.3v17.5h-5.9v-3.6h-0.2c-0.4,0.7-0.9,1.4-1.6,2
			c-0.7,0.6-1.5,1.1-2.5,1.5C690.9,221,689.7,221.2,688.4,221.2z M690,216.7c1.2,0,2.3-0.2,3.2-0.7s1.6-1.2,2.1-2s0.7-1.7,0.7-2.7
			v-3.1c-0.2,0.2-0.5,0.3-1,0.4c-0.5,0.1-1,0.3-1.5,0.4c-0.6,0.1-1.1,0.2-1.7,0.3c-0.6,0.1-1,0.1-1.4,0.2c-0.9,0.1-1.7,0.3-2.5,0.6
			s-1.3,0.7-1.7,1.2c-0.4,0.5-0.6,1.2-0.6,2c0,1.1,0.4,2,1.2,2.6C687.6,216.4,688.7,216.7,690,216.7z"/>
		<path class="st0" d="M713.6,185.8v34.9h-6.2v-34.9H713.6z"/>
		<path class="st0" d="M730.6,221.2c-2.6,0-4.9-0.5-6.8-1.6s-3.4-2.7-4.4-4.7c-1-2-1.5-4.4-1.5-7.1c0-2.7,0.5-5.1,1.5-7.1
			c1-2,2.5-3.6,4.3-4.8c1.9-1.1,4-1.7,6.5-1.7c1.6,0,3.1,0.3,4.6,0.8c1.4,0.5,2.7,1.3,3.8,2.4c1.1,1.1,2,2.5,2.6,4.1
			c0.6,1.7,1,3.6,1,5.9v1.9h-21.5v-4.2h15.5c0-1.2-0.3-2.2-0.8-3.2c-0.5-0.9-1.2-1.7-2.1-2.2c-0.9-0.5-1.9-0.8-3.1-0.8
			c-1.3,0-2.4,0.3-3.3,0.9c-1,0.6-1.7,1.4-2.2,2.4c-0.5,1-0.8,2.1-0.8,3.2v3.6c0,1.5,0.3,2.8,0.8,3.9s1.3,1.9,2.3,2.5
			c1,0.6,2.2,0.9,3.5,0.9c0.9,0,1.7-0.1,2.4-0.4c0.7-0.3,1.4-0.6,1.9-1.1s0.9-1.1,1.2-1.9l5.8,0.6c-0.4,1.5-1.1,2.8-2.1,4
			c-1,1.1-2.3,2-3.9,2.6S732.6,221.2,730.6,221.2z"/>
		<path class="st0" d="M759.8,194.5v4.8h-15.5v-4.8H759.8z M748.2,220.7V192c0-1.8,0.4-3.2,1.1-4.4c0.7-1.2,1.7-2,3-2.6
			c1.2-0.6,2.6-0.9,4.1-0.9c1.1,0,2,0.1,2.8,0.3c0.8,0.2,1.4,0.3,1.8,0.5l-1.2,4.8c-0.3-0.1-0.6-0.2-1-0.2c-0.4-0.1-0.8-0.1-1.3-0.1
			c-1.1,0-2,0.3-2.4,0.8c-0.5,0.6-0.7,1.3-0.7,2.4v28.2H748.2z"/>
		<path class="st0" d="M769.8,185.8v34.9h-6.2v-34.9H769.8z"/>
		<path class="st0" d="M786.8,221.2c-2.6,0-4.9-0.5-6.8-1.6s-3.4-2.7-4.4-4.7c-1-2-1.5-4.4-1.5-7.1c0-2.7,0.5-5.1,1.5-7.1
			c1-2,2.5-3.6,4.3-4.8c1.9-1.1,4-1.7,6.5-1.7c1.6,0,3.1,0.3,4.6,0.8c1.4,0.5,2.7,1.3,3.8,2.4c1.1,1.1,2,2.5,2.6,4.1
			c0.6,1.7,1,3.6,1,5.9v1.9H777v-4.2h15.5c0-1.2-0.3-2.2-0.8-3.2c-0.5-0.9-1.2-1.7-2.1-2.2c-0.9-0.5-1.9-0.8-3.1-0.8
			c-1.3,0-2.4,0.3-3.3,0.9c-1,0.6-1.7,1.4-2.2,2.4c-0.5,1-0.8,2.1-0.8,3.2v3.6c0,1.5,0.3,2.8,0.8,3.9s1.3,1.9,2.3,2.5
			c1,0.6,2.2,0.9,3.5,0.9c0.9,0,1.7-0.1,2.4-0.4c0.7-0.3,1.4-0.6,1.9-1.1s0.9-1.1,1.2-1.9l5.8,0.6c-0.4,1.5-1.1,2.8-2.1,4
			c-1,1.1-2.3,2-3.9,2.6S788.8,221.2,786.8,221.2z"/>
		<path class="st0" d="M807.2,194.5l5.3,9.7l5.4-9.7h6.5l-7.9,13.1l8,13.1H818l-5.5-9.4l-5.5,9.4h-6.5l8-13.1l-7.8-13.1H807.2z"/>
	</g>
	<path class="st0" d="M282.5,126.9C282.5,126.8,282.5,126.8,282.5,126.9c-0.2-0.7-0.3-1.2-0.5-1.8c0-0.1-0.1-0.2-0.1-0.4
		c-0.1-0.3-0.2-0.7-0.4-1c-0.1-0.3-0.2-0.6-0.4-0.9c0-0.1-0.1-0.1-0.1-0.2c-0.7-1.6-1.4-3-2.3-4.2c-2.7-4.2-6.6-7.8-11.7-10.3
		c-1.3-0.6-2.6-1.2-4.1-1.7c-0.1-1.7-0.2-3.3-0.5-4.9c-0.6-3.8-1.5-6.1-1.5-6.1c-0.8-2.6-2-4.9-3.2-7c-0.1-0.2-0.3-0.5-0.4-0.7
		c0-0.1-0.1-0.1-0.1-0.2c-1.9-3-4.2-5.7-6.8-8c-1.6-1.4-2.7-2.2-2.7-2.2l0,0c-9.1-6.7-21-9.3-32.9-5.9c0,0,0,0,0,0l0,0c0,0,0,0,0,0
		c0,0,0,0,0,0c-0.3-0.5-11-18.4-34.6-18.4c-12.6,0-25.2,6.3-31.9,14.6c-0.1,0.1-0.2,0.2-0.3,0.3c0,0-0.1,0.1-0.1,0.1c0,0,0,0,0,0
		c-5.3,6.4-8.8,14.7-9.2,24.6c0,0,0,0.1,0,0.1c-0.7-0.1-2.3,0.3-2.3,0.3c-24.1,7.6-30.2,32.8-21.9,51.7c0.1,0.1,0.1,0.2,0.2,0.4
		c0.1,0.2,0.2,0.4,0.2,0.5c3.1,6.6,7.8,11.9,13.5,15.5c0.1,0,0.1,0.1,0.2,0.1c0.4,0.2,0.7,0.4,1.1,0.7c0.2,0.1,0.3,0.2,0.5,0.3
		c0.3,0.2,0.6,0.3,0.9,0.5c0.2,0.1,0.4,0.2,0.6,0.3c0.3,0.2,0.6,0.3,0.9,0.4c0.2,0.1,0.3,0.2,0.5,0.2c4.8,2.1,10,3.2,15.5,3.2
		c0.2,0,0.4,0,0.6,0h36.5c4,0,6.7,0,6.9,0c0,0,0,0,0,0l0,0c0,0,0,0,0,0s0,0,0,0h0l0,0c0,0,39.8,0,55.2,0c0,0,0,0,0,0
		c0,0,0.1,0,0.1,0h4.1c0,0,0.1,0,0.1,0c0.2,0,0.4,0,0.6,0h0.1c0,0,0,0,0.1,0c0.1,0,0.2,0,0.3,0c7.7-0.1,14-2.5,18.8-6.5
		c0.1-0.1,0.2-0.1,0.3-0.2c0.1-0.1,0.3-0.2,0.4-0.4c0.1-0.1,0.1-0.1,0.2-0.2c0.4-0.4,0.9-0.8,1.3-1.2c0.2-0.2,0.4-0.4,0.6-0.6
		c0.2-0.2,0.4-0.4,0.6-0.6c0.2-0.2,0.4-0.4,0.5-0.6c0.3-0.4,0.6-0.7,0.9-1.1c0.2-0.2,0.3-0.4,0.5-0.6c0.2-0.3,0.4-0.6,0.6-0.9
		c0.1-0.1,0.2-0.3,0.3-0.4c0.3-0.5,0.7-1.1,1-1.6c0.1-0.2,0.2-0.3,0.3-0.5c0.2-0.4,0.5-0.9,0.7-1.3c0.2-0.3,0.3-0.7,0.5-1
		c0.1-0.2,0.2-0.5,0.3-0.7c0.3-0.6,0.5-1.2,0.7-1.9c0,0,0-0.1,0-0.1c0,0,0-0.1,0-0.1C283.9,140,284.2,133.2,282.5,126.9z M167,132.3
		h-9h0c0,0,0,0,0,0c0,0,0,0,0,0l0,0c0,0-1.3,0-3.3,0c-4.3,0-11.8,0-16.9,0c0,0,0,0,0,0l0,0c0,0,0,0,0,0c0.5-0.5,1.2-1.3,2-2l43-43
		l7.8,7.8l0.6-0.6l-0.6,0.6l0,0l0,0c0,0,1.3,1.3,3.6,3.6l1.8,1.8c0,0,0,0,0,0c3.4,3.4,8.2,8.2,13.6,13.6l13.4-13.4h0c0,0,0,0,0,0v0
		l12.5,12.5c0,0,0,0,0,0l8.2,8.2l10.9,10.9H167z"/>
	<g>
		<path class="st0" d="M368.6,100.5h-12c-0.3-2-1-3.7-1.9-5.2c-0.9-1.5-2.1-2.8-3.4-3.9c-1.4-1.1-2.9-1.9-4.6-2.4
			c-1.7-0.5-3.6-0.8-5.6-0.8c-3.6,0-6.7,0.9-9.5,2.7c-2.7,1.8-4.9,4.4-6.5,7.8c-1.6,3.4-2.3,7.6-2.3,12.5c0,5,0.8,9.2,2.3,12.6
			c1.6,3.4,3.7,6,6.5,7.7s5.9,2.6,9.4,2.6c2,0,3.8-0.3,5.5-0.8c1.7-0.5,3.3-1.3,4.6-2.3c1.4-1,2.5-2.3,3.5-3.8
			c0.9-1.5,1.6-3.2,2-5.1l12,0.1c-0.4,3.1-1.4,6-2.9,8.8c-1.5,2.7-3.4,5.1-5.8,7.2c-2.4,2.1-5.2,3.7-8.4,4.9
			c-3.2,1.2-6.7,1.7-10.6,1.7c-5.8,0-10.9-1.3-15.4-4c-4.5-2.7-8.1-6.5-10.7-11.5c-2.6-5-3.9-11.1-3.9-18.1c0-7.1,1.3-13.1,3.9-18.1
			s6.2-8.9,10.7-11.5c4.5-2.7,9.6-4,15.3-4c3.6,0,7,0.5,10.2,1.5c3.1,1,5.9,2.5,8.4,4.5c2.5,2,4.5,4.4,6.1,7.2
			C367.1,93.7,368.1,96.9,368.6,100.5z"/>
		<path class="st0" d="M390.6,78.5v65.5H379V78.5H390.6z"/>
		<path class="st0" d="M423.9,144.9c-4.8,0-8.9-1.1-12.5-3.2s-6.2-5.1-8.2-8.9c-1.9-3.8-2.9-8.2-2.9-13.3s1-9.5,2.9-13.3
			c1.9-3.8,4.7-6.8,8.2-8.9s7.7-3.2,12.5-3.2s8.9,1.1,12.5,3.2s6.2,5.1,8.2,8.9c1.9,3.8,2.9,8.3,2.9,13.3s-1,9.5-2.9,13.3
			c-1.9,3.8-4.7,6.7-8.2,8.9S428.7,144.9,423.9,144.9z M423.9,135.6c2.6,0,4.8-0.7,6.5-2.2c1.7-1.4,3.1-3.4,3.9-5.8
			c0.9-2.4,1.3-5.1,1.3-8.1c0-3-0.4-5.7-1.3-8.2c-0.9-2.4-2.2-4.4-3.9-5.8c-1.7-1.4-3.9-2.2-6.5-2.2c-2.7,0-4.9,0.7-6.6,2.2
			s-3.1,3.4-3.9,5.8c-0.9,2.4-1.3,5.2-1.3,8.2c0,3,0.4,5.7,1.3,8.1c0.9,2.4,2.2,4.4,3.9,5.8S421.3,135.6,423.9,135.6z"/>
		<path class="st0" d="M488.5,123.3V94.8H500v49.1h-11.2v-8.7h-0.5c-1.1,2.7-2.9,5-5.4,6.7s-5.6,2.6-9.3,2.6c-3.2,0-6.1-0.7-8.5-2.2
			c-2.5-1.4-4.4-3.5-5.8-6.3c-1.4-2.8-2.1-6.1-2.1-10V94.8h11.6v29.5c0,3.1,0.9,5.6,2.6,7.4c1.7,1.8,3.9,2.7,6.7,2.7
			c1.7,0,3.4-0.4,5-1.2c1.6-0.8,2.9-2.1,3.9-3.7C488,127.8,488.5,125.8,488.5,123.3z"/>
		<path class="st0" d="M530.1,144.8c-3.9,0-7.3-1-10.4-3s-5.5-4.9-7.2-8.6c-1.8-3.8-2.7-8.4-2.7-13.7c0-5.5,0.9-10.1,2.7-13.8
			c1.8-3.8,4.2-6.6,7.3-8.5c3.1-1.9,6.5-2.9,10.3-2.9c2.9,0,5.2,0.5,7.1,1.5c1.9,1,3.3,2.1,4.4,3.5c1.1,1.4,1.9,2.6,2.5,3.8h0.5
			V78.5h11.6v65.5h-11.4v-7.7h-0.7c-0.6,1.2-1.5,2.5-2.6,3.8c-1.1,1.3-2.6,2.5-4.5,3.4C535.3,144.3,533,144.8,530.1,144.8z
			 M533.4,135.3c2.4,0,4.5-0.7,6.3-2c1.7-1.3,3-3.2,3.9-5.6c0.9-2.4,1.3-5.2,1.3-8.3c0-3.2-0.4-5.9-1.3-8.3s-2.2-4.2-3.9-5.5
			c-1.7-1.3-3.8-2-6.3-2c-2.6,0-4.7,0.7-6.5,2c-1.7,1.3-3,3.2-3.9,5.6s-1.3,5.1-1.3,8.1c0,3.1,0.4,5.8,1.3,8.2
			c0.9,2.4,2.2,4.3,3.9,5.7C528.7,134.6,530.8,135.3,533.4,135.3z"/>
		<path class="st0" d="M574.5,87.9c-1.8,0-3.4-0.6-4.7-1.8c-1.3-1.2-2-2.7-2-4.4c0-1.7,0.7-3.2,2-4.5c1.3-1.2,2.9-1.8,4.7-1.8
			c1.9,0,3.4,0.6,4.7,1.8c1.3,1.2,2,2.7,2,4.5c0,1.7-0.7,3.2-2,4.4C577.9,87.2,576.3,87.9,574.5,87.9z M568.7,143.9V94.8h11.6v49.1
			H568.7z"/>
		<path class="st0" d="M592.1,143.9V94.8h11.1v8.3h0.6c1-2.8,2.7-5,5.1-6.6c2.4-1.6,5.2-2.4,8.5-2.4c3.3,0,6.1,0.8,8.4,2.4
			c2.3,1.6,3.9,3.8,4.8,6.6h0.5c1.1-2.7,2.9-4.9,5.5-6.5s5.7-2.4,9.2-2.4c4.5,0,8.2,1.4,11.1,4.3c2.9,2.9,4.3,7,4.3,12.5v33h-11.6
			v-31.2c0-3-0.8-5.3-2.4-6.7s-3.6-2.1-5.9-2.1c-2.8,0-5,0.9-6.5,2.6c-1.6,1.7-2.3,4-2.3,6.8v30.6h-11.3v-31.6
			c0-2.5-0.8-4.6-2.3-6.1s-3.5-2.3-6-2.3c-1.7,0-3.2,0.4-4.5,1.3s-2.5,2-3.3,3.5s-1.2,3.3-1.2,5.3v29.9H592.1z"/>
		<path class="st0" d="M687,144.9c-3.1,0-5.9-0.6-8.4-1.7c-2.5-1.1-4.4-2.8-5.9-5c-1.4-2.2-2.2-4.9-2.2-8.1c0-2.8,0.5-5.1,1.5-6.9
			c1-1.8,2.4-3.3,4.2-4.3c1.8-1.1,3.8-1.9,6-2.5s4.5-1,6.9-1.2c2.9-0.3,5.2-0.6,7-0.8c1.8-0.2,3.1-0.6,3.9-1.2
			c0.8-0.5,1.2-1.3,1.2-2.4v-0.2c0-2.4-0.7-4.3-2.1-5.6c-1.4-1.3-3.5-2-6.2-2c-2.8,0-5.1,0.6-6.7,1.9c-1.7,1.2-2.8,2.7-3.3,4.4
			l-10.8-1.5c0.9-3,2.3-5.5,4.2-7.5s4.4-3.5,7.2-4.5c2.8-1,6-1.5,9.4-1.5c2.4,0,4.7,0.3,7.1,0.8c2.3,0.6,4.5,1.5,6.4,2.7
			c1.9,1.3,3.5,3,4.7,5.2c1.2,2.2,1.8,4.9,1.8,8.1v32.9h-11.1v-6.7h-0.4c-0.7,1.4-1.7,2.6-3,3.8c-1.3,1.2-2.9,2.1-4.8,2.8
			C691.8,144.6,689.6,144.9,687,144.9z M690,136.4c2.3,0,4.3-0.5,6-1.4c1.7-0.9,3-2.2,3.9-3.7c0.9-1.5,1.4-3.2,1.4-5v-5.8
			c-0.4,0.3-1,0.6-1.8,0.8c-0.9,0.3-1.8,0.5-2.9,0.7c-1.1,0.2-2.1,0.4-3.2,0.5c-1,0.1-1.9,0.3-2.7,0.4c-1.7,0.2-3.3,0.6-4.6,1.2
			c-1.4,0.5-2.4,1.3-3.2,2.2c-0.8,0.9-1.2,2.2-1.2,3.7c0,2.1,0.8,3.7,2.3,4.8C685.6,135.9,687.6,136.4,690,136.4z"/>
		<path class="st0" d="M746,163.3c-4.2,0-7.7-0.6-10.7-1.7c-3-1.1-5.4-2.6-7.2-4.5c-1.8-1.9-3.1-4-3.8-6.2l10.4-2.5
			c0.5,1,1.2,1.9,2,2.9c0.9,0.9,2.1,1.7,3.6,2.4c1.5,0.6,3.4,0.9,5.8,0.9c3.3,0,6-0.8,8.2-2.4c2.2-1.6,3.2-4.2,3.2-7.8v-9.3H757
			c-0.6,1.2-1.5,2.4-2.6,3.7c-1.1,1.3-2.6,2.3-4.5,3.2c-1.9,0.9-4.2,1.3-7,1.3c-3.8,0-7.2-0.9-10.2-2.7c-3.1-1.8-5.5-4.4-7.3-8
			c-1.8-3.5-2.7-8-2.7-13.3c0-5.4,0.9-9.9,2.7-13.7c1.8-3.7,4.2-6.5,7.3-8.5c3.1-1.9,6.5-2.9,10.3-2.9c2.9,0,5.2,0.5,7.1,1.5
			c1.9,1,3.4,2.1,4.5,3.5c1.1,1.4,1.9,2.6,2.5,3.8h0.6v-8.1H769v49.9c0,4.2-1,7.7-3,10.4c-2,2.7-4.7,4.8-8.2,6.2
			C754.3,162.7,750.4,163.3,746,163.3z M746.1,134.1c2.5,0,4.5-0.6,6.3-1.8s3-2.9,3.9-5.1c0.9-2.2,1.3-4.9,1.3-8.1
			c0-3.1-0.4-5.8-1.3-8.1c-0.9-2.3-2.2-4.1-3.9-5.4c-1.7-1.3-3.8-1.9-6.3-1.9c-2.6,0-4.7,0.7-6.5,2c-1.7,1.3-3,3.2-3.9,5.5
			c-0.9,2.3-1.3,5-1.3,7.9c0,3,0.4,5.6,1.3,7.9c0.9,2.2,2.2,4,3.9,5.2S743.5,134.1,746.1,134.1z"/>
		<path class="st0" d="M802.6,144.9c-4.9,0-9.2-1-12.7-3.1c-3.6-2.1-6.3-5-8.2-8.8c-1.9-3.8-2.9-8.2-2.9-13.4c0-5,1-9.5,2.9-13.3
			c1.9-3.8,4.6-6.8,8.1-8.9c3.5-2.1,7.6-3.2,12.2-3.2c3,0,5.9,0.5,8.6,1.5c2.7,1,5.1,2.5,7.2,4.5s3.7,4.6,4.9,7.7
			c1.2,3.1,1.8,6.8,1.8,11.1v3.5h-40.2v-7.8h29.1c0-2.2-0.5-4.2-1.4-5.9c-0.9-1.7-2.2-3.1-3.9-4.1c-1.7-1-3.6-1.5-5.8-1.5
			c-2.4,0-4.4,0.6-6.2,1.7c-1.8,1.1-3.2,2.6-4.2,4.5c-1,1.8-1.5,3.9-1.5,6.1v6.8c0,2.9,0.5,5.3,1.6,7.3c1,2,2.5,3.6,4.4,4.7
			c1.9,1.1,4.1,1.6,6.6,1.6c1.7,0,3.2-0.2,4.6-0.7s2.5-1.2,3.5-2.1c1-0.9,1.8-2.1,2.3-3.5l10.8,1.2c-0.7,2.9-2,5.3-3.9,7.5
			s-4.3,3.8-7.3,4.9C809.8,144.3,806.4,144.9,802.6,144.9z"/>
	</g>
</g>
</svg>
