<svg version="1.1" xmlns="http://www.w3.org/2000/svg" x="0" y="0" viewBox="0 0 250 72" xml:space="preserve">
<path fill="#ff0082" d="M24.2 2.9 1.7 5l2.7 29.5 14.7-1.3-1.5-16 7.8-.7c7.8-.7 14 5.5 14.9 14.8L54.7 30C53.3 13.6 39.6 1.5 24.2 2.9zM55.7 39.1c0 9.3-5.7 16.1-13.5 16.1h-7.9V39.1H19.6v29.6h22.6c15.4 0 27.9-13.3 27.9-29.6H55.7z"/>
<path fill="white" d="M98.2 20.2h14.7c10.6 0 17.8 6.7 17.8 16.9S123.4 54 112.8 54H98.2V20.2zm14.3 27.3c6.4 0 10.6-4 10.6-10.5s-4.2-10.5-10.6-10.5h-6.8v20.9h6.8zM153.8 45.8l3.8 4.3c-2.3 2.8-5.8 4.2-10.2 4.2-8.6 0-14.2-5.6-14.2-13.4 0-7.8 5.6-13.4 13.3-13.4 7 0 12.8 4.8 12.8 13.1L141 44.5c1.1 2.6 3.4 3.9 6.6 3.9 2.6-.1 4.5-.9 6.2-2.6zm-13.5-5.6 12.1-2.5c-.7-2.7-2.9-4.4-5.9-4.4-3.6 0-6.1 2.5-6.2 6.9zM161.6 41c0-7.8 5.8-13.4 13.8-13.4 5.2 0 9.3 2.4 11.1 6.6l-5.6 3.1c-1.3-2.5-3.3-3.6-5.6-3.6-3.6 0-6.5 2.7-6.5 7.2s2.9 7.2 6.5 7.2c2.3 0 4.2-1.1 5.6-3.6l5.6 3.2c-1.8 4.2-5.9 6.6-11.1 6.6-8 0-13.8-5.5-13.8-13.3zM214.9 28v26H208v-3c-1.8 2.3-4.4 3.4-7.7 3.4-7 0-12.4-5.2-12.4-13.4s5.4-13.4 12.4-13.4c3 0 5.6 1 7.4 3.1V28h7.2zm-7.1 13c0-4.5-2.8-7.2-6.3-7.2-3.6 0-6.4 2.7-6.4 7.2s2.8 7.2 6.4 7.2c3.6 0 6.3-2.7 6.3-7.2zM247.9 41c0 8.2-5.4 13.4-12.4 13.4-3.1 0-5.6-1-7.5-3.1v12.1h-7.2V28h6.9v3c1.8-2.3 4.5-3.4 7.8-3.4 7 0 12.4 5.2 12.4 13.4zm-7.3 0c0-4.5-2.7-7.2-6.3-7.2S228 36.5 228 41s2.7 7.2 6.3 7.2 6.3-2.7 6.3-7.2z"/>
</svg>