<svg width="2933.333" height="2933.333" xmlns="http://www.w3.org/2000/svg"><g fill="#5fc34a"><path d="M2225.947 909.84S1963 800.64 1658.56 1037.613c-246.947 192.214-569.561 166.614-716.561-37.453-46.532 31.947-111.987 87.267-184.8 179.813-15.107 19.174-43.867 20.147-60.254 2.04l-27.84-30.746c-13.266-14.64-13.68-36.867-.906-51.96 82.08-96.92 215.72-229.307 339.226-289.64 364.402-178.027 662.948-124.32 666.508-123.694-2.84-1.773-257.04-159.48-807.241 114.2-3.413-28.213-4.627-57.96-3.413-89.186 8.546-221.574 283.24-511.64 668.214-436.12 509.774 100.026 694.454 634.973 694.454 634.973M2542.653 2482.813c-403.133 327.654-932.36 127.16-932.36 127.16s252.214-132.146 264.987-517.72c10.387-312.773 236.547-544.253 487.427-526.586 5.24-56.2 4.613-141.907-19.88-257.08-5.054-23.88 12.613-46.6 37-47.6l41.453-1.72c19.747-.814 37.08 13.093 40.493 32.573 21.934 125.107 38.107 312.507 5.414 446.027-96.467 393.92-328.8 588.92-331.56 591.24 3.186-1.027 287.053-95.4 428.933-693.307 23.867 15.44 47.493 33.547 70.72 54.48 164.76 148.373 211.813 545.093-92.627 792.533M1333.8 2551.68l-18.228 37.267c-8.707 17.733-29.187 26.36-47.933 20.08-120.44-40.334-292.92-115.414-394.72-207.774-300.374-272.52-361.094-569.706-361.827-573.226-.613 3.28-52.907 297.84 405.16 707.466-24.947 13.614-52.133 25.774-81.587 36.214-208.96 74.16-580.173-73.52-652.653-459.067-95.973-510.547 332.48-880.307 332.48-880.307s-4 284.707 328.893 479.667c270.04 158.16 365.787 467.307 230.707 679.44 46.92 31.4 122.56 71.693 235.493 105.027 23.414 6.933 34.962 33.293 24.215 55.213"/></g></svg>