<svg width="1224" height="250" fill="#fff" xmlns="http://www.w3.org/2000/svg">
<path d="M696.723 176.499h-1.941c-9.979 0-11.365-2.49-11.365-15.231v-60.096h13.306c28.828 0 34.099 21.045 34.099 37.388 0 16.892-5.271 37.939-34.099 37.939Zm-116.981-38.496v-36.831h11.362c12.475 0 18.021 8.582 18.021 18.555 0 9.694-5.546 18.276-18.021 18.276h-11.362Zm116.15-45.137h-49.621v5.258c15.522 0 18.015 3.324 18.015 22.987v35.449c0 19.664-2.493 23.263-18.015 23.263-11.92-1.661-19.959-8.031-31.048-20.216l-12.751-13.847c17.184-3.047 26.333-13.847 26.333-26.033 0-15.232-13.027-26.862-37.422-26.862h-48.79v5.26c15.522 0 18.018 3.323 18.018 22.986v35.449c0 19.664-2.496 23.263-18.018 23.263v5.261h55.164v-5.261c-15.522 0-18.015-3.599-18.015-23.263v-9.969h4.709l30.772 38.493h80.669c39.642 0 56.828-21.044 56.828-46.252 0-25.197-17.186-45.966-56.828-45.966ZM388.19 148.254l19.128-56.5c5.545-16.338 3.05-21.045-14.692-21.045v-5.54h52.117v5.54c-17.464 0-21.621 4.153-28.553 24.371l-31.605 94.712h-3.6l-28.279-86.684-28.829 86.684h-3.605L289.503 95.08c-6.653-20.218-11.089-24.371-27.17-24.371v-5.54h61.544v5.54c-16.356 0-20.792 3.875-14.967 21.045l18.57 56.5 27.997-83.086h5.27l27.443 83.086ZM482.438 97.849c-25.502 0-34.374 22.986-34.374 40.983 0 18.283 8.872 40.991 34.374 40.991 25.783 0 34.653-22.708 34.653-40.991 0-17.997-8.87-40.983-34.653-40.983Zm0 90.834c-30.49 0-55.443-22.429-55.443-49.851 0-27.136 24.953-49.571 55.443-49.571 30.495 0 55.443 22.435 55.443 49.571 0 27.422-24.948 49.851-55.443 49.851ZM815.09 75.138h-15.803v48.188h15.803c15.522 0 22.728-10.8 22.728-23.814 0-13.293-7.206-24.374-22.728-24.374Zm6.094 104.409v5.535h-63.482v-5.535c18.577 0 21.904-4.708 21.904-32.405v-44.307c0-27.697-3.327-32.126-21.904-32.126v-5.544h57.388c28.55 0 44.352 14.683 44.352 34.347 0 19.109-15.802 34.062-44.352 34.062h-15.803v13.568c0 27.697 3.327 32.405 21.897 32.405ZM902.971 138.003v-36.831h11.364c12.468 0 18.018 8.582 18.018 18.555 0 9.694-5.55 18.276-18.018 18.276h-11.364Zm146.919 21.05-1.39 4.987c-2.49 9.139-5.55 12.459-25.23 12.459h-3.88c-14.41 0-16.9-3.32-16.9-22.986v-12.736c21.61 0 23.28 1.936 23.28 16.338h5.27v-41.266h-5.27c0 14.402-1.67 16.337-23.28 16.337v-31.014h15.24c19.68 0 22.73 3.323 25.22 12.463l1.4 5.258h4.43l-1.94-26.028h-81.506v5.26c15.522 0 18.017 3.323 18.017 22.986v35.449c0 17.989-2.119 22.519-14.352 23.165-11.636-1.775-19.622-8.114-30.545-20.118l-12.755-13.847c17.186-3.047 26.335-13.847 26.335-26.033 0-15.232-13.028-26.862-37.427-26.862h-48.783v5.26c15.515 0 18.018 3.323 18.018 22.986v35.449c0 19.664-2.503 23.263-18.018 23.263v5.261h55.164v-5.261c-15.53 0-18.017-3.599-18.017-23.263v-9.969h4.71l30.773 38.493h113.926l1.67-26.031h-4.16ZM1106.16 188.683c-11.09 0-20.8-5.813-24.95-9.415-1.39 1.387-3.88 5.541-4.44 9.415h-5.26v-38.215h5.54c2.22 18.276 14.97 29.079 31.33 29.079 8.87 0 16.07-4.987 16.07-13.293 0-7.201-6.37-12.741-17.73-18l-15.81-7.48c-11.09-5.264-19.4-14.404-19.4-26.585 0-13.293 12.47-24.647 29.66-24.647 9.15 0 16.91 3.323 21.62 7.198 1.39-1.108 2.77-4.156 3.61-7.479h5.27v32.683h-5.83c-1.94-13.02-9.14-23.82-23.84-23.82-7.76 0-14.97 4.433-14.97 11.358 0 7.197 5.82 11.075 19.13 17.167l15.25 7.476c13.3 6.371 18.57 16.622 18.57 24.928 0 17.446-15.25 29.63-33.82 29.63ZM1189.99 188.683c-11.09 0-20.8-5.813-24.96-9.415-1.38 1.387-3.88 5.541-4.43 9.415h-5.27v-38.214h5.54c2.22 18.275 14.97 29.078 31.33 29.078 8.87 0 16.08-4.986 16.08-13.293 0-7.201-6.38-12.742-17.75-18l-15.79-7.48c-11.09-5.264-19.41-14.404-19.41-26.585 0-13.292 12.48-24.647 29.66-24.647 9.16 0 16.91 3.324 21.63 7.198 1.38-1.108 2.77-4.156 3.6-7.48h5.26v32.684h-5.82c-1.94-13.02-9.14-23.82-23.83-23.82-7.77 0-14.97 4.432-14.97 11.358 0 7.197 5.81 11.074 19.13 17.166l15.24 7.477c13.3 6.37 18.57 16.622 18.57 24.928 0 17.446-15.25 29.63-33.81 29.63ZM125.112.362C56.214.362.362 56.158.362 124.988c0 68.828 55.852 124.625 124.75 124.625 68.895 0 124.75-55.797 124.75-124.625 0-68.83-55.855-124.626-124.75-124.626Zm0 7.476c15.833 0 31.188 3.097 45.642 9.203a117.29 117.29 0 0 1 19.916 10.8 118.289 118.289 0 0 1 17.359 14.309 118.369 118.369 0 0 1 14.324 17.343 117.251 117.251 0 0 1 10.81 19.896c6.112 14.438 9.212 29.779 9.212 45.599 0 15.818-3.1 31.158-9.212 45.597a117.143 117.143 0 0 1-10.81 19.897 118.232 118.232 0 0 1-14.324 17.342 118.159 118.159 0 0 1-17.359 14.31 117.33 117.33 0 0 1-19.916 10.799c-14.454 6.107-29.809 9.203-45.642 9.203-15.836 0-31.192-3.096-45.642-9.203a117.328 117.328 0 0 1-19.919-10.799 118.157 118.157 0 0 1-17.36-14.31 118.242 118.242 0 0 1-14.323-17.342 117.072 117.072 0 0 1-10.81-19.897c-6.113-14.439-9.212-29.779-9.212-45.597 0-15.82 3.1-31.16 9.212-45.599a117.18 117.18 0 0 1 10.81-19.896A118.379 118.379 0 0 1 42.19 42.15a118.287 118.287 0 0 1 17.36-14.31c6.271-4.23 12.97-7.863 19.92-10.799 14.449-6.106 29.805-9.203 45.641-9.203Z"/>
<path d="M216.338 75.161c.446 3.309.699 6.856.699 10.679 0 10.535-1.979 22.384-7.909 37.198l-31.75 91.711c30.907-18 51.691-51.45 51.691-89.766 0-18.055-4.62-35.03-12.731-49.822Zm-89.4 58.907-31.195 90.545a104.042 104.042 0 0 0 29.369 4.231 103.86 103.86 0 0 0 34.524-5.889 9.574 9.574 0 0 1-.748-1.431l-31.95-87.456Zm68.352-14.322c0-12.838-4.615-21.724-8.568-28.641-5.273-8.56-10.213-15.8-10.213-24.357 0-9.547 7.246-18.434 17.458-18.434.46 0 .897.057 1.345.086-18.495-16.931-43.137-27.269-70.2-27.269-36.32 0-68.271 18.618-86.861 46.809 2.443.078 4.74.126 6.69.126 10.873 0 27.71-1.318 27.71-1.318 5.6-.33 6.261 7.896.663 8.556 0 0-5.634.66-11.897.989l37.854 112.494 22.753-68.164-16.195-44.33c-5.601-.328-10.902-.989-10.902-.989-5.604-.33-4.948-8.886.658-8.556 0 0 17.165 1.318 27.379 1.318 10.871 0 27.71-1.318 27.71-1.318 5.604-.33 6.262 7.896.661 8.556 0 0-5.638.66-11.897.989l37.572 111.635 10.724-33.947c4.764-14.838 7.556-25.348 7.556-34.235Zm-174.138 5.237c0 41.108 23.913 76.634 58.594 93.466L30.154 82.718a103.38 103.38 0 0 0-9.002 42.265Z"/>
</svg>