<svg xmlns="http://www.w3.org/2000/svg" xml:space="preserve" id="Layer_1" x="0" y="0" style="enable-background:new 0 0 226.8 226.8" version="1.1" viewBox="0 0 226.8 226.8"><style>.st1{fill:#000228}</style><path d="M218.1 134.2s-.1 0 0 0c-.2-.8-.4-1.5-.7-2.2 0-.1-.1-.3-.2-.4-.1-.4-.3-.8-.5-1.3-.1-.4-.3-.7-.4-1.1 0-.1-.1-.2-.1-.2-.8-1.9-1.8-3.7-2.8-5.2-3.3-5.2-8.1-9.6-14.4-12.6-1.5-.8-3.2-1.5-5-2-.1-2.1-.3-4.1-.6-6-.7-4.7-1.9-7.5-1.9-7.5-1-3.2-2.4-6-4-8.5-.2-.3-.3-.6-.5-.8-.1-.1-.1-.2-.2-.2-2.3-3.7-5.2-7-8.4-9.8-2-1.8-3.3-2.7-3.3-2.7-11.1-8.2-25.8-11.4-40.4-7.3-.3-.6-13.4-22.6-42.5-22.6-15.5 0-31 7.7-39.2 18-.1.1-.2.3-.3.4l-.1.1c-6.5 7.8-10.8 18-11.3 30.1v.1c-.9-.1-2.9.3-2.9.3C9 101.9 1.5 132.9 11.7 156c.1.1.1.3.2.4.1.2.2.4.3.7 3.8 8.1 9.5 14.6 16.6 19 .1.1.2.1.3.2.4.3.9.5 1.3.8l.6.3c.4.2.7.4 1.1.6.2.1.5.2.7.4.4.2.8.4 1.1.5l.6.3c5.8 2.6 12.3 4 19 4H182c9.4-.1 17.1-3.1 23.1-7.9.1-.1.2-.1.3-.2.2-.1.3-.3.5-.4.1-.1.2-.1.2-.2.5-.5 1.1-1 1.6-1.5.2-.2.5-.4.7-.7.2-.3.5-.5.7-.8.2-.2.4-.5.7-.8.4-.4.8-.9 1.1-1.4.2-.2.4-.5.6-.7.3-.4.5-.7.8-1.1.1-.2.2-.4.4-.5.4-.6.8-1.3 1.2-2 .1-.2.2-.4.4-.6.3-.5.6-1.1.8-1.6.2-.4.4-.9.6-1.3.1-.3.3-.6.4-.9.3-.7.6-1.5.9-2.3 0 0 0-.1.1-.1v-.1c2.6-7.7 3-16.1 1-23.9zm-141.8 6.7H40.4c.6-.6 1.5-1.5 2.4-2.5l52.8-52.8 9.6 9.6.7-.7-.7.7 4.4 4.4 2.2 2.2 16.7 16.7L145 102l15.4 15.4 10.1 10.1 13.4 13.4H76.3z" style="fill:white"/></svg>