<svg version="1.0" xmlns="http://www.w3.org/2000/svg" width="512" height="512" viewBox="0 0 512 512">
<g transform="translate(0,512) scale(0.1,-0.1)" fill="#ffffff" stroke="none">
<path d="M2323 4909 c-416 -40 -831 -214 -1183 -495 -107 -86 -294 -273 -383
-384 -180 -223 -374 -561 -451 -786 -213 -624 -95 -1251 343 -1814 125 -161
364 -393 533 -518 335 -246 659 -393 993 -448 160 -27 468 -25 625 4 390 71
755 244 1065 505 176 148 359 356 475 540 23 37 45 66 49 64 85 -47 136 -44
189 9 l34 34 -4 88 c-3 68 -10 99 -31 143 l-27 57 34 89 c164 431 231 961 170
1353 -57 369 -200 649 -452 892 -253 242 -592 395 -1083 488 -49 10 -56 14
-67 43 -19 51 -64 73 -202 101 -214 43 -424 55 -627 35z m-337 -363 c23 -11
112 -15 404 -20 206 -3 406 -9 443 -12 l68 -6 -84 -87 c-255 -262 -449 -595
-497 -855 -27 -145 4 -300 76 -385 103 -119 266 -137 614 -67 96 19 204 38
239 42 l63 7 -7 -24 c-17 -58 -77 -141 -255 -354 -218 -261 -274 -361 -274
-490 1 -157 101 -256 304 -298 43 -9 179 -20 320 -26 257 -11 447 -30 577 -57
82 -16 223 -60 236 -73 10 -10 -106 -200 -192 -315 -304 -403 -740 -681 -1217
-776 -139 -28 -427 -37 -554 -18 l-85 13 2 48 c2 67 35 128 155 290 231 309
329 558 330 837 1 196 -37 336 -121 451 -140 190 -412 256 -686 167 l-70 -23
0 230 c-1 251 -11 325 -60 433 -28 60 -92 134 -138 158 -115 61 -281 22 -431
-102 -195 -161 -443 -547 -576 -898 -21 -54 -40 -94 -43 -89 -3 5 -16 56 -28
114 -34 153 -34 430 0 579 43 195 109 361 221 562 268 477 654 833 1098 1014
120 48 127 50 168 30z m1449 -140 c317 -90 556 -225 734 -412 172 -181 277
-405 323 -689 21 -133 16 -472 -11 -645 -34 -225 -128 -570 -155 -570 -5 0
-39 12 -74 26 -171 68 -419 107 -797 124 -245 11 -346 22 -391 42 -21 10 -24
16 -19 37 10 40 84 145 206 291 158 191 225 283 272 375 37 72 41 89 45 170 4
84 2 94 -25 145 -53 101 -163 149 -307 136 -39 -4 -159 -24 -266 -46 -371 -73
-411 -64 -395 92 15 147 135 395 278 578 149 190 371 379 447 380 9 0 70 -15
135 -34z m-1971 -1328 c8 -13 19 -47 25 -76 14 -67 14 -382 0 -532 -24 -268
-44 -540 -39 -540 3 0 66 55 140 121 74 67 153 134 175 149 96 66 239 106 353
98 165 -12 247 -117 259 -333 7 -124 -14 -241 -64 -367 -43 -108 -137 -267
-214 -363 -117 -146 -177 -252 -202 -354 -6 -28 -16 -51 -22 -51 -18 0 -227
105 -310 155 -318 192 -610 465 -788 735 l-49 75 5 90 c14 231 142 544 348
850 127 189 227 297 314 343 50 27 52 27 69 0z"/>
</g>
</svg>
