<svg viewBox="0 0 132.29 96" xmlns="http://www.w3.org/2000/svg">
<g fill="#fff">
<path d="m99.49 57.57a16.44 16.44 0 0 1 -9.71-3.17 32.12 32.12 0 0 0 -43.62-47 20 20 0 0 0 -12.4-4.28v3.6a16.5 16.5 0 0 1 9.71 3.16 32.12 32.12 0 0 0 43.62 47 20.06 20.06 0 0 0 12.4 4.29zm-61.37-25.43a28.39 28.39 0 0 1 8-19.81 16.45 16.45 0 0 1 4.13 10.92v4.75a20.19 20.19 0 0 0 18.38 20.05v4.26h3.63v-15.63h-3.63v7.72a16.56 16.56 0 0 1 -14.71-16.4v-4.75a20.09 20.09 0 0 0 -5.08-13.36 28.48 28.48 0 0 1 38.26 42.11 16.43 16.43 0 0 1 -4.1-11v-4.69a20.19 20.19 0 0 0 -20.19-20.16h-1.81v11.45h3.63v-7.72a16.56 16.56 0 0 1 14.7 16.43v4.69a20.11 20.11 0 0 0 5.08 13.4 28.49 28.49 0 0 1 -46.29-22.26z"></path>
<path d="m6 89-2.4 6.58h-3.6l8.2-22.52h3.7l8.21 22.52h-3.61l-2.31-6.58zm4.12-12.1-3.12 9.1h6.24z"></path>
<path d="m34.68 83.39a6.5 6.5 0 0 0 -4.44-1.83c-3.18 0-5.31 2.44-5.31 5.63a5.46 5.46 0 0 0 5.44 5.69 6.49 6.49 0 0 0 4.37-1.88l1 2.9a8.43 8.43 0 0 1 -5.56 2.1 8.82 8.82 0 0 1 0-17.63 8.42 8.42 0 0 1 5.6 2.06z"></path>
<path d="m50.8 83.39a6.5 6.5 0 0 0 -4.44-1.83c-3.19 0-5.31 2.44-5.31 5.63a5.46 5.46 0 0 0 5.44 5.69 6.52 6.52 0 0 0 4.37-1.88l1 2.9a8.7 8.7 0 0 1 -14.35-6.72 8.6 8.6 0 0 1 8.75-8.82 8.44 8.44 0 0 1 5.6 2.06z"></path>
<path d="m61.83 78.37c5.08 0 8.08 3.51 8.08 8.78a6.33 6.33 0 0 1 0 .87h-12.68a4.88 4.88 0 0 0 5.21 4.92 5.51 5.51 0 0 0 4.64-2.34l2.31 1.73a7.92 7.92 0 0 1 -7 3.67 8.33 8.33 0 0 1 -8.72-8.75c-.01-5.25 3.56-8.88 8.16-8.88zm4.51 7.24a4.26 4.26 0 0 0 -4.48-4.31 4.43 4.43 0 0 0 -4.5 4.31z"></path>
<path d="m73.74 90.92a4.58 4.58 0 0 0 4 2.18c1.48 0 2.57-.74 2.57-2.09 0-3.21-8.17-2.06-8.17-7.88 0-3 2.51-4.76 5.76-4.76a5.89 5.89 0 0 1 5.47 3.12l-2.37 1.61a3.62 3.62 0 0 0 -3.25-1.87c-1.28 0-2.25.68-2.25 1.84 0 3.21 8.21 1.86 8.21 7.78-.03 3.15-2.71 5.15-6.11 5.15a6.52 6.52 0 0 1 -6-3.35z"></path>
<path d="m87.44 90.92a4.58 4.58 0 0 0 4 2.18c1.5 0 2.56-.74 2.56-2.1 0-3.21-8.17-2.06-8.17-7.88 0-3 2.51-4.76 5.76-4.76a5.87 5.87 0 0 1 5.47 3.12l-2.38 1.62a3.63 3.63 0 0 0 -3.25-1.87c-1.29 0-2.25.68-2.25 1.84 0 3.21 8.2 1.86 8.2 7.78 0 3.15-2.64 5.15-6.08 5.15a6.53 6.53 0 0 1 -6-3.35z"></path>
<path d="m99.12 87.51 9.75-14.45h4v13.94h2.8v3.09h-2.8v5.47h-3.51v-5.45h-10.24zm10.26-.51v-9.72l-6.5 9.72z"></path>
<path d="m118 94.3c0-6.37 10.33-10 10.33-15a3.21 3.21 0 0 0 -3.48-3.3 3.68 3.68 0 0 0 -3.7 3.05l-3.12-.9a6.83 6.83 0 0 1 7-5.47c4.31 0 7 2.71 7 6.57 0 6.37-9.24 9.65-9.78 13.22h10.07v3.15h-14.32z"></path>
</g>
</svg>