<svg width="240" height="90" viewBox="0 0 240 90" fill="none" xmlns="http://www.w3.org/2000/svg">
<path d="M48.0796 68.3898C48.9986 70.3691 48.8572 73.4087 50.1296 74.9638C50.271 75.0345 50.3417 75.1052 50.4831 75.1759C58.1882 74.7518 58.6123 65.9863 54.8658 61.8864C53.1692 60.3312 50.7658 59.6243 47.7969 60.8967C32.5281 67.4708 17.8955 63.3002 9.05937 54.1813C4.25252 49.4451 1.00083 43.2245 0.223255 36.5091C-2.18017 15.2317 15.3507 1.73013 27.3678 0.245661C38.1832 -1.02674 48.221 2.71977 55.0778 9.71797C62.5002 17.0696 66.4588 28.1678 64.0553 40.8918C62.995 46.6883 59.5312 53.9692 51.7555 53.9692C48.5745 53.9692 45.5348 52.6261 43.3435 50.2934C41.3642 48.3848 39.9504 45.7693 39.809 42.7297C39.0315 31.2074 53.9468 28.0264 52.9572 16.4334C52.8158 14.3834 51.8968 12.5455 50.4831 11.0611C45.959 6.74904 36.9108 5.12319 28.7109 6.81973C18.5317 8.86971 8.77661 18.13 7.08008 29.2281C5.6663 38.2056 8.8473 48.4555 15.5627 55.383C21.5006 61.2502 30.054 64.5019 40.6573 62.0278C44.0504 61.2502 46.6659 58.0692 52.2503 58.9175C54.2296 59.2002 55.8554 60.1192 56.9864 61.3916C61.4398 65.5622 60.733 74.3276 54.9365 76.3069C51.8968 77.3673 46.4538 76.519 44.0504 73.9035L43.9797 73.8328C43.6969 73.6914 43.4142 73.4087 43.1314 73.1259C42.2125 72.3483 41.5763 70.8639 41.7176 69.1673C41.859 66.7639 43.4142 64.926 45.1107 65.0674C45.8176 65.1381 46.4538 65.4915 46.8779 66.057C47.4434 66.6225 47.8676 67.4001 48.0796 68.3898Z" fill="white"/>
<path d="M148.953 36.297C149.589 35.4488 149.942 34.5298 150.154 33.5402C150.366 32.6212 150.437 31.7729 150.437 30.9954C150.437 29.935 150.296 28.8747 150.084 27.8144C149.872 26.754 149.448 25.7644 148.811 24.9868C148.175 24.1385 147.327 23.5023 146.267 23.0075C145.206 22.5127 143.934 22.3006 142.379 22.3006H138.561V39.5487H141.389C143.368 39.5487 144.994 39.266 146.196 38.6298C147.398 37.9936 148.387 37.216 148.953 36.297ZM157.294 29.6523C157.294 31.7022 156.87 33.4695 156.092 35.0246C155.315 36.5798 154.184 37.8522 152.77 38.9125C151.356 39.9022 149.872 40.6797 148.175 41.1746C146.479 41.6694 144.711 41.8814 142.873 41.8814H138.561V53.6865C138.561 54.3227 138.703 54.8882 138.915 55.383C139.127 55.8778 139.551 56.2313 140.258 56.514C140.611 56.6554 141.177 56.7261 142.025 56.8675C142.873 57.0089 143.651 57.0796 144.358 57.0796V59.0588H127.605V57.0796C128.029 57.0089 128.665 56.9382 129.513 56.8675C130.362 56.7968 130.927 56.6554 131.28 56.514C131.846 56.302 132.27 55.9485 132.482 55.4537C132.694 54.9589 132.836 54.3934 132.836 53.6865V25.623C132.836 24.9868 132.765 24.4213 132.553 23.8558C132.341 23.2903 131.917 22.9368 131.28 22.7248C130.574 22.5127 129.867 22.3006 129.23 22.2299C128.524 22.1592 127.958 22.0886 127.463 22.0179V20.0386H145.277C148.882 20.0386 151.851 20.8868 154.113 22.6541C156.163 24.4213 157.294 26.754 157.294 29.6523ZM125.625 22.0179C125.131 22.0179 124.636 22.1592 124.07 22.3713C123.434 22.5834 122.939 22.7954 122.374 23.1489C121.737 23.573 121.243 23.9972 120.819 24.5627C120.394 25.1282 120.112 25.8351 119.758 26.754C118.486 30.9954 116.931 35.9436 115.234 41.5987C113.538 47.2538 111.629 53.2624 109.65 59.695H107.105L97.2791 29.6523L87.0292 59.695H84.6258C82.7879 53.2624 80.95 46.6176 79.0414 39.6901C77.0621 32.7626 75.7897 28.1678 75.1535 25.8351C75.0121 25.2696 74.7294 24.7747 74.4466 24.2799C74.0932 23.8558 73.669 23.4316 73.1035 23.0782C72.6087 22.7954 72.1139 22.5127 71.4777 22.3713C70.8415 22.2299 70.276 22.0886 69.7811 22.0886V20.0386H85.6861V22.0179C84.2724 22.0886 83.1413 22.2299 82.1517 22.442C81.162 22.6541 80.6672 23.0075 80.6672 23.4316C80.6672 23.573 80.6672 23.8558 80.7379 24.1385C80.8086 24.4213 80.8086 24.704 80.8793 24.8454C81.3034 26.4713 82.081 29.0868 83.1413 32.8333C84.2017 36.5798 85.7568 42.0935 87.8775 49.5158L97.6326 20.6041H100.319L110.144 50.152C111.488 45.628 112.619 41.5987 113.538 38.2056C114.457 34.8126 115.305 31.9143 115.87 29.5109C116.294 27.8144 116.577 26.6126 116.719 25.9764C116.86 25.3402 116.86 24.8454 116.86 24.3506C116.86 23.7144 116.436 23.2196 115.588 22.7954C114.739 22.3713 113.326 22.0886 111.417 21.9472V20.0386H125.555L125.625 22.0179Z" fill="white"/>
<path d="M240 47.4659L239.152 59.0588H208.685V57.0796C209.109 57.0089 209.745 56.9382 210.593 56.8675C211.442 56.7968 212.007 56.6554 212.361 56.514C212.926 56.302 213.35 55.9485 213.562 55.4537C213.774 54.9589 213.916 54.3934 213.916 53.6865V25.8351C213.916 25.1989 213.774 24.704 213.562 24.2092C213.35 23.7144 212.926 23.361 212.29 23.0782C211.866 22.8661 211.3 22.6541 210.523 22.442C209.745 22.2299 209.109 22.0886 208.614 22.0886V20.0386H225.085V22.0179C224.59 22.0179 223.883 22.1592 223.105 22.3006C222.257 22.442 221.692 22.6541 221.338 22.7248C220.702 22.9368 220.278 23.2903 220.066 23.8558C219.854 24.3506 219.712 24.9868 219.712 25.5523V51.7779C219.712 52.9796 219.783 53.8986 219.854 54.6054C219.995 55.2416 220.278 55.8072 220.702 56.1606C221.126 56.514 221.762 56.7261 222.611 56.7968C223.459 56.9382 224.59 56.9382 226.074 56.9382C226.781 56.9382 227.488 56.9382 228.195 56.8675C228.902 56.8675 229.609 56.7261 230.316 56.6554C230.952 56.514 231.517 56.3727 232.083 56.2313C232.648 56.0192 233.002 55.8072 233.285 55.5244C234.062 54.6761 234.91 53.4037 235.9 51.7072C236.89 50.0107 237.597 48.5969 237.95 47.5366H240V47.4659ZM207.059 59.0588H189.811V57.0796C190.447 57.0796 191.225 57.0089 192.214 56.8675C193.204 56.7261 193.84 56.5847 194.194 56.3727C194.759 56.0192 195.183 55.6658 195.466 55.171C195.749 54.7468 195.89 54.1813 195.89 53.4744V25.1989H195.466L182.177 58.4226H180.833L168.18 24.492H167.827V47.7486C167.827 50.0107 167.968 51.7072 168.251 52.9089C168.534 54.0399 168.958 54.8882 169.594 55.4537C170.018 55.8778 170.866 56.2313 172.068 56.5847C173.34 56.9382 174.189 57.1502 174.542 57.1502V59.1295H158.778L159.415 57.1502C160.192 57.0796 160.475 56.9382 161.394 56.7261C162.313 56.514 163.02 56.2313 163.515 55.8072C164.151 55.3123 164.575 54.5348 164.858 53.4744C165.07 52.4141 165.211 50.6469 165.211 48.1728V28.1678C165.211 27.0368 165.07 26.0471 164.787 25.3402C164.504 24.6334 164.151 23.9972 163.585 23.573C163.02 23.0782 162.313 22.7248 161.535 22.442C160.687 22.2299 159.909 22.0886 159.061 22.0179V20.0386H172.351L183.52 49.2331L192.992 24.8454C193.345 23.9265 193.628 23.0075 193.911 22.0179C194.123 21.0282 194.264 20.392 194.335 20.0386H207.059V22.0179C206.564 22.0179 205.928 22.0886 205.08 22.2299C204.302 22.3713 203.737 22.5127 203.312 22.6541C202.676 22.8661 202.252 23.2196 202.04 23.7851C201.828 24.2799 201.687 24.8454 201.687 25.4816V53.6158C201.687 54.252 201.828 54.8175 202.04 55.2416C202.252 55.6658 202.676 56.0899 203.312 56.3727C203.666 56.5847 204.231 56.7261 205.08 56.8675C205.928 57.0089 206.564 57.1502 207.059 57.1502V59.0588Z" fill="white"/>
<defs>
<clipPath id="clip0_108:3">
<rect width="107" height="13" fill="white" transform="translate(132.914 76)"/>
</clipPath>
</defs>
</svg>
