<svg xmlns="http://www.w3.org/2000/svg" width="241.553" height="178.542">
  <g fill="#fff">
    <path d="M64.15 89.736c0-10.666-.041-14.806.023-25.462 0-2.455-.614-4.069-3.414-4.012-2.857.067-3.172 1.806-3.155 4.2.08 18.832.158 31.133.031 49.968a62.732 62.732 0 0 1-1.455 11.608c-.716 3.661-3.5 6.213-6.185 6.349-2.849.162-5.649-1.985-6.6-5.752a57.52 57.52 0 0 1-2.167-12.132c-.463-14.362-.6-28.719-.72-43.083-.025-2.2-.55-3.223-2.869-3.237s-3.75.516-3.743 3.237c.079 14.676-.121 29.381.219 44.049.126 5.939 1.019 11.934 4.243 17.233 3.121 5.127 7.711 7.113 13.572 6.437 5.906-.657 9.53-4.032 10.872-9.7a43.617 43.617 0 0 0 1.3-8.991c.156-10.231.065-20.466.065-30.7Z"/>
    <path d="M97.293 132.405c4.176 9.077 13.36 10.129 19.368 2.165a27.319 27.319 0 0 0 5-9.748c1.657-6.915 2.442-14.033 3.326-19.419-.763-8.064-1.022-14.38-2.043-20.568a41.408 41.408 0 0 0-3.874-12.31 9.966 9.966 0 0 0-15.355-2.9 14.462 14.462 0 0 0-4.7 6.791 119.114 119.114 0 0 0-4.006 20.345 231.85 231.85 0 0 0-.3 26.309 24.8 24.8 0 0 0 2.584 9.335Zm6.488-49.634c.8-4.886 2.749-6.974 5.606-6.994 2.957-.016 5.11 1.875 6.144 6.548 3.4 15.317 3.58 30.588-1.9 45.521a9.07 9.07 0 0 1-4.375 4.76c-3.321 1.452-6.217-.833-6.868-5.238-.9-5.987-1.428-12.039-2.243-19.3 1.091-7.716 2.206-16.533 3.636-25.3Z"/>
    <path d="M235.317 117.685c-3.141-5.068-6.818-9.807-10.393-14.608-3.3-4.406-5.338-9.186-4.948-14.778a32.671 32.671 0 0 1 .028-4.233 27.205 27.205 0 0 1 1.149-4.41c1.2-3.789 3.493-5.361 6.953-4.827 3.4.537 4.932 2.419 4.844 6.565-.141 5.96-.478 11.932-.779 17.9-.1 1.976-.064 3.728 2.525 4.061 2.561.331 3.109-1.353 3.543-3.265a66.017 66.017 0 0 0 .99-23.938 9.549 9.549 0 0 0-8.009-8.362c-6.678-1.244-12.308 1.362-14.945 7.608a35.966 35.966 0 0 0-2.747 10.94c-.75 9.663 3.532 17.7 9.2 25.109 2.438 3.193 5.174 6.232 7.143 9.705a14.308 14.308 0 0 1 1.511 7.387c-.153 3.041-3.3 5.084-6.326 4.837-3-.239-4.431-2.026-4.478-5.634-.018-1.516.349-3.15-.092-4.529-.364-1.176-1.577-2.8-2.527-2.884a4.2 4.2 0 0 0-3.241 2.165c-.658 1.508-.542 3.4-.542 5.117-.015 7.7 4.59 12.353 11.791 12.032 8.5-.375 13.214-5.392 12.16-13.417a22.065 22.065 0 0 0-2.81-8.541Z"/>
    <path d="m79.375 48.214.161-.128-.156.134a31.337 31.337 0 0 1 2.658 3.684 6.471 6.471 0 0 1 .673 3.344 1.858 1.858 0 0 1-.657 1.349 2.673 2.673 0 0 1-1.949.619c-.984-.088-1.6-.5-1.616-2.307v-.2c-.011-.594-.025-1.208.023-1.793a2.43 2.43 0 0 0-3.814-2.242 2.637 2.637 0 0 0-.866 1.827 22.335 22.335 0 0 0-.083 3.537 6.078 6.078 0 0 0 5.258 5.788 9.78 9.78 0 0 0 1.546.126c3.1 0 5.682-1.536 6.581-3.914a9.272 9.272 0 0 0-.946-8.646c-1.477-2.263-3.118-4.474-4.708-6.615l-.9-1.212a12.7 12.7 0 0 1-2.715-7.242c.087-.445.167-.892.251-1.371.172-.963.347-1.958.6-2.9.475-1.7 1.292-2.322 2.779-2.14 1.3.164 2.044.67 2.006 2.782-.08 3.26-.259 6.5-.434 9.538-.085 1.608.606 2.5 2.052 2.648a2.17 2.17 0 0 0 2.491-1.791c.009-.06.017-.119.021-.179a35.478 35.478 0 0 0 .509-13.479 5.4 5.4 0 0 0-4.143-4.485 8.206 8.206 0 0 0-2.33-.341 7.125 7.125 0 0 0-6.619 4.171 19.415 19.415 0 0 0-1.687 6.281c-.382 4.636 1.153 8.9 4.975 13.828.34.452.684.889 1.039 1.329Z"/>
    <path d="M166.812 22.561a19.273 19.273 0 0 0-1.644 6.109c-.444 4.749 1.117 9.111 5.06 14.153.311.4.63.8.95 1.2a24.163 24.163 0 0 1 2.609 3.672 6.9 6.9 0 0 1 .616 3.65 1.566 1.566 0 0 1-.592 1.069 2.788 2.788 0 0 1-1.955.583c-.747-.08-1.547-.321-1.587-2.175 0-.234.018-.473.034-.714a4.931 4.931 0 0 0-.108-1.87 3.389 3.389 0 0 0-1.713-2.066 1.934 1.934 0 0 0-1.71.08 2.327 2.327 0 0 0-1.092 1.711 18.2 18.2 0 0 0-.192 3.18c.031 3.735 2.294 6.25 5.906 6.56.332.028.661.041.976.041 3.848 0 6.322-1.978 6.964-5.569a9.388 9.388 0 0 0-1.39-7.061c-1.844-2.762-3.586-5.189-5.33-7.418a12.942 12.942 0 0 1-2.967-7.693 88 88 0 0 0 .336-1.606c.221-1.086.45-2.207.748-3.283a1.984 1.984 0 0 1 2.2-1.426 2.443 2.443 0 0 1 1.8.617 2.365 2.365 0 0 1 .568 1.762c-.033 2.466-.174 4.979-.313 7.409l-.129 2.312c-.041.765-.142 2.554 1.963 2.88s2.454-1.331 2.641-2.22l.011-.054a36.01 36.01 0 0 0 .516-12.829 5.5 5.5 0 0 0-4.216-4.827 8.3 8.3 0 0 0-2.312-.332 7.213 7.213 0 0 0-6.648 4.155Z"/>
    <path d="M17.412 67.854c-6.843-.55-12.942 3.745-14.85 11.19-1.346 5.217-2.594 10.655-2.561 16a310.689 310.689 0 0 0 1.757 32.174c.791 7.333 7.673 12.9 13.748 12.528 6.416-.4 11.053-6.041 11.285-13.755.041-1.477.463-3.252-1.891-3.38-1.935-.1-3.786-.093-4.012 2.587a7.233 7.233 0 0 1-.879 3.439c-1.191 1.66-2.523 3.8-4.243 4.356-2.434.8-4.56-.943-5.82-3.213a9.26 9.26 0 0 1-1.27-3.313c-.7-6.24-1.484-22.3-1.329-24.03.692-7.226 1.325-14.469 2.3-21.657.381-2.815 2.078-5.11 5.4-5.2 3.345-.085 5.122 2.014 5.4 4.989a139.289 139.289 0 0 1 .5 13.949c0 2.027.2 3.4 2.527 3.709 2.432.331 3.552-.91 3.606-3.052.147-5.651.735-11.379.033-16.92-.893-7.121-4.097-9.952-9.701-10.401Z"/>
    <path d="M187.196 139.008c6.191.09 12.407 0 18.583-.341 2.628-.16 2.207-2.78 2.137-4.406-.046-.768-1.768-2.03-2.8-2.094-2.8-.165-5.638.277-8.469.3-1 .01-2.843-.339-2.907-.735a20.975 20.975 0 0 1-.272-7.334c.2-.95 2.5-1.855 3.945-2.082 2.34-.362 4.79-.041 7.17-.183 2.767-.17 2.283-2.323 2.374-4.14.111-2.044-1.115-2.309-2.725-2.246-2.494.063-5 0-7.5.129-2.9.139-4.215-1.18-4.266-4.023-.2-10.449-.486-20.884-.64-31.313-.072-4.354.788-5.037 5.156-5.151a64.319 64.319 0 0 0 8.76-.563c2.736-.455 2.491-3.033 2.387-4.981-.029-.694-1.464-1.854-2.286-1.875-5.641-.1-11.3.1-16.962.1-2.244 0-3.494.847-3.494 3.231q.021 16.311.007 32.62h-.08v5.544c.038 8.823 0 17.635.169 26.45.028 1.097 1.102 3.086 1.713 3.093Z"/>
    <path d="M114.094 27.335v.008l.018.5q0 8.056.008 16.1l-.007.3a2.251 2.251 0 0 0 .444 1.723 1.729 1.729 0 0 0 1.307.473c3.414-.039 6.494-.085 9.606-.239a1.911 1.911 0 0 0 1.4-.612 3.212 3.212 0 0 0 .462-2.436 2.559 2.559 0 0 0-2.076-1.806 21.6 21.6 0 0 0-2.856.066c-.541.036-1.1.072-1.654.08a4.634 4.634 0 0 1-.863-.093 9.636 9.636 0 0 1-.153-3.177 3.242 3.242 0 0 1 1.464-.614 13.15 13.15 0 0 1 2.33-.082c.332.01.665.02 1 .02h.147c2.137-.027 2.175-1.819 2.193-2.677a2.126 2.126 0 0 0-.5-1.626 2.081 2.081 0 0 0-1.552-.535l-.259.007c-1.264.074-2.525 0-3.786.084a1.494 1.494 0 0 1-1.163-.247 1.753 1.753 0 0 1-.375-1.272c-.059-2.8-.131-2.995-.233-3.268a21.446 21.446 0 0 1-.126-2.8c-.025-2.111-.026-2.15 2.309-2.2h.788a11.062 11.062 0 0 0 3.833-.449c.915-.334 1.246-1.593 1.538-2.705l.1-.395a.837.837 0 0 0-.169-.754 2.879 2.879 0 0 0-1.813-1.007c-1.6-.028-3.219-.011-4.788.007h-.157a239.65 239.65 0 0 1-3.059.026h-.735a2.3 2.3 0 0 0-2.635 2.518l.012 4.068Z"/>
    <path d="m64.062 25.087.44-.008a23.9 23.9 0 0 0 4.274-.334c2-.406 1.837-2.45 1.762-3.439-.08-.815-1.285-1.524-2-1.538-1.633-.026-3.252 0-4.817.018-1.068.013-2.137.028-3.206.028h-.747a2.28 2.28 0 0 0-2.588 1.923 2.321 2.321 0 0 0-.012.577c0 .814 0 1.331.013 1.662v.233a.216.216 0 0 0-.115.061.2.2 0 0 0-.056.152l.065 1.112c.018.262.034.519.039.768q.025 3.695.041 7.382.021 4.017.046 8.028c0 .1 0 .2-.007.313a2.235 2.235 0 0 0 .432 1.71 1.7 1.7 0 0 0 1.285.46c3.874-.024 6.843-.093 9.628-.219a1.9 1.9 0 0 0 1.389-.608 3 3 0 0 0 .475-2.281l-.007-.133a2.54 2.54 0 0 0-2.076-1.829 20.85 20.85 0 0 0-2.645.056c-.576.038-1.171.079-1.844.079a3.924 3.924 0 0 1-.963-.151 7.194 7.194 0 0 1-.028-3.172c.02-.026.247-.275 2.085-.6a9.79 9.79 0 0 1 1.677-.061 13.408 13.408 0 0 0 1.5-.023c1.791-.141 1.809-1.616 1.819-2.411l.008-.35a1.906 1.906 0 0 0-.465-1.466 1.99 1.99 0 0 0-1.506-.524h-.172c-1.279.047-2.617-.021-3.94.077a1.486 1.486 0 0 1-1.171-.245 1.787 1.787 0 0 1-.38-1.279c-.034-1.719-.044-2.238-.359-2.433.02-1.388.19-1.48 2.126-1.535Z"/>
    <path d="m99.202 33.002.01.567c.1 6.027.2 12.262.309 16.186.069 2.594 1.484 2.874 2.089 2.874a3.2 3.2 0 0 0 1.5-.439 3.258 3.258 0 0 0 1.325-2.679c-.19-14.08-.332-23.547-.426-28.135-.048-2.148-.048-2.148 2.271-2.394a35.325 35.325 0 0 0 2.04-.3c3.426-.66 4.919-2.52 4.993-6.216.065-3.794-1.732-6.265-4.934-6.782a35.624 35.624 0 0 0-5.242-.306l-1.236-.013a2.839 2.839 0 0 0-2.122.765 3.262 3.262 0 0 0-.75 2.484c.057 2.194.043 4.478.028 6.5 0 .735-.008 1.469-.01 2.2a.238.238 0 0 0-.08.051.2.2 0 0 0-.057.149l.013.524c.094 3.659.184 9.151.279 14.964Zm4.234-20.948c.02-2.765.309-2.765.943-2.765a11.628 11.628 0 0 1 2.2.357c2.351.533 2.569 1.488 2.588 2.339.029 1.389-.9 2.439-2.535 2.88-2.3.622-2.733.329-2.8.267-.363-.373-.4-1.767-.4-3.078Z"/>
    <path d="M46.107 25.923v.065l-.012 4.4a.326.326 0 0 0 0 .044v17.135a2.636 2.636 0 0 0 .5 1.971 1.908 1.908 0 0 0 1.416.529l1.248.038c2.048.064 4.167.129 6.335.139 1.875 0 1.911-1.583 1.926-2.258v-.057a2.946 2.946 0 0 1 .028-.44 1.721 1.721 0 0 0-.336-1.469 1.993 1.993 0 0 0-1.593-.643l-.2.008a34.52 34.52 0 0 1-1.446.046h-.059a35.52 35.52 0 0 0-1.764.065c-.663.057-.933-.07-1.043-.185s-.228-.383-.192-1.017c.144-2.582.295-5.644.316-8.76q.031-4.971.028-9.946c0-3.7.008-7.521.04-11.287.006-1.307-.179-2.7-2.487-2.723a2.9 2.9 0 0 0-2.128.66 2.748 2.748 0 0 0-.619 2.117c.066 3.86.054 7.779.042 11.568Z"/>
    <path d="M70.682 135.481c0 1.906.118 3.447 2.674 3.463 4.454 0 8.922.1 13.385.327 3.161.152 2.714-2.26 2.938-4.013.282-2.211-1.146-2.744-3.1-2.586-1.739.142-3.483.175-5.217.178-3.948.029-4.2-.247-4.2-4.292 0-10.984.612-48.848.778-56.788.054-2.875-1.131-3.468-3.684-3.519-2.687-.051-3.6.829-3.581 3.553.111 10.772.018 21.552.01 32.326-.003 10.449.017 20.892-.003 31.351Z"/>
    <path d="M127.753 10.465h2.016a8.363 8.363 0 0 1 2.757.221v23.18a39.081 39.081 0 0 0-.17 4.922q.012 2.157.038 4.321v.418q.023 2.084.036 4.164c.021 2.163 1.706 2.2 2.612 2.227l.517.015c1.935 0 1.957-1.6 1.967-2.281.028-3.381.067-7.246.108-11.275.088-8.754.19-18.67.182-25.534a4.654 4.654 0 0 1 1.439-.138c.477 0 1.007.02 1.587.041.513.018 1.048.038 1.644.046a1.961 1.961 0 0 0 2.2-1.691 1.9 1.9 0 0 0 .015-.32 3.467 3.467 0 0 0-.778-2.45 2.856 2.856 0 0 0-2.2-.867h-10.3a18.332 18.332 0 0 0-3.229-.087h-.491c-2.156.015-2.2 1.7-2.227 2.607l-.012.339a2.044 2.044 0 0 0 .468 1.574 2.4 2.4 0 0 0 1.821.568Z"/>
    <path d="M141.609 68.129c0-1.96 5.017-1.274 10.162-1.225 1.881.024 2.767-.648 2.936-2.586.349-4.112-.2-4.814-4.323-4.826-10.123-.025-9.771 0-19.9 0 0-.12-1.15-.219-6.809-.178-3.119.02-2.81 2.181-2.9 4.318-.105 2.319 1.082 2.641 3 2.656 5.409.046 10.454-.326 10.454 1.631v44.255a78.594 78.594 0 0 0-.306 9.458c.024 5.666.093 11.321.139 16.987.019 3.116 2.178 2.8 4.309 2.9 2.322.106 2.651-1.076 2.667-3.008.158-20.892.571-51.418.571-70.382Z"/>
    <path d="M167.762 81.202c0-1.965 5.02-1.282 10.167-1.231 1.88.024 2.767-.64 2.934-2.572.349-4.119-.2-4.822-4.328-4.844-10.116-.02-9.767 0-19.889 0 0-.107-1.166-.211-6.823-.172-3.1.028-2.807 2.188-2.9 4.32-.1 2.333 1.079 2.648 3.011 2.667 5.391.039 10.445-.332 10.445 1.617 0 9.342-.011 21.157-.011 31.18a84.352 84.352 0 0 0-.313 9.459c.036 5.664.115 11.326.154 16.979.023 3.119 2.183 2.812 4.31 2.914 2.325.1 2.649-1.091 2.653-3.018.171-20.89.59-38.34.59-57.299Z"/>
    <path d="M151.419 9.818h1.659a9.862 9.862 0 0 1 3.111.226l-.013 19.7a.154.154 0 0 0 .034.088c-.226 1.822-.2 8.045-.2 8.315q.018 2.67.046 5.351l.031 3.55c.007 2.16 1.688 2.207 2.592 2.232l.516.015c1.97 0 1.98-1.667 1.983-2.294.031-3.791.077-8.182.125-12.718.092-8.626.185-17.542.178-24.09a4.534 4.534 0 0 1 1.42-.136c.475 0 1.005.018 1.565.039.524.02 1.072.039 1.673.046a1.954 1.954 0 0 0 2.192-1.685 1.871 1.871 0 0 0 .015-.326c.111-1.267.074-2.062-.445-2.63s-1.32-.676-2.532-.676l-5.726-.008-4.532.007a17.417 17.417 0 0 0-2.915-.1h-.834c-2.161.008-2.2 1.706-2.225 2.618l-.012.339a2.049 2.049 0 0 0 .477 1.574 2.384 2.384 0 0 0 1.817.563Z"/>
    <path d="M147.689 19.154a12.434 12.434 0 0 0-.976-.051c-2.147 0-2.325 1.372-2.332 3.031-.008 2.838-.059 7.039-.1 10.747l-.007.526a754.093 754.093 0 0 0-.069 6.867 7.97 7.97 0 0 0 .057 1.726c0 .038.018.251.029 1.452.016 2.16 1.706 2.2 2.613 2.227l.516.015c1.958 0 1.958-1.66 1.958-2.284.044-5.929.1-8.584.154-11.4v-.215c.049-2.54.1-5.166.157-10.379a1.965 1.965 0 0 0-1.645-2.24 2 2 0 0 0-.355-.022Z"/>
    <path d="M147.321 18.041c.149 0 .3 0 .463.008h.058c1.264 0 1.785-1.655 1.847-3.072.062-1.384-.275-2.9-1.407-3a13.51 13.51 0 0 0-1.038-.049c-2.2 0-2.607 1.125-2.615 3.342.002 2.757 1.62 2.765 2.692 2.771Z"/>
    <path d="M195.477 61.303c2.626-.323 12.664-7.27 13.622-9.248.793-1.655-1.669-4.958-4.369-3.932-4.22 1.613-9.121 5.54-11.387 7.275-3.573 2.728-.232 6.196 2.134 5.905Z"/>
    <path d="M47.491 164.386h-3.685v14.038h8.656v-3.686h-4.974Z"/>
    <path d="M60.608 168.605v.793a2.6 2.6 0 0 0-1.022-.663 3.82 3.82 0 0 0-1.355-.239 4.663 4.663 0 0 0-4.145 2.45 5.181 5.181 0 0 0-.627 2.523 5.252 5.252 0 0 0 .609 2.505 4.817 4.817 0 0 0 1.639 1.814 4.029 4.029 0 0 0 2.248.673 4.516 4.516 0 0 0 1.51-.257 3.778 3.778 0 0 0 1.235-.683l.02.866h3.37l-.428-9.782Zm-.4 5.738a2.1 2.1 0 0 1-.7.784 1.592 1.592 0 0 1-1.816.018 2.13 2.13 0 0 1-.7-.737 1.851 1.851 0 0 1-.267-.94 1.813 1.813 0 0 1 .608-1.362 2.008 2.008 0 0 1 1.418-.571 1.635 1.635 0 0 1 1.226.506 1.755 1.755 0 0 1 .488 1.262 2.2 2.2 0 0 1-.261 1.039Z"/>
    <path d="M71.329 178.406h3.685l-.148-4.882 4.551-.054-.3-3.685-4.366.055-.055-1.621 5.877-.147v-3.685l-9.247.166Z"/>
    <path d="M88.904 168.799a2.759 2.759 0 0 0-1.271-.323 3.486 3.486 0 0 0-1.263.249 3.777 3.777 0 0 0-1.131.691v-.848h-3.427v9.82h3.427v-3.534a4.576 4.576 0 0 1 .562-2.312 1.679 1.679 0 0 1 1.485-.709 1.7 1.7 0 0 1 1.454.737l1.272-2.856a3.525 3.525 0 0 0-1.108-.915Z"/>
    <path d="M95.316 168.495a5.459 5.459 0 0 0-2.423.534 4.57 4.57 0 0 0-1.768 1.492 4.144 4.144 0 0 0-.747 2.173 4.295 4.295 0 0 0-.018.424 5.494 5.494 0 0 0 .635 2.617 5.326 5.326 0 0 0 1.714 1.934 4.683 4.683 0 0 0 2.348.829 2.386 2.386 0 0 0 .368.02 5.121 5.121 0 0 0 1.963-.388 4.773 4.773 0 0 0 1.629-1.076 3.545 3.545 0 0 0 .922-1.556l-2.635-.756a2.183 2.183 0 0 1-2.139.866 1.421 1.421 0 0 1-.928-.433 2.693 2.693 0 0 1-.617-1.005l6.52-.074a6.72 6.72 0 0 0 .018-.588 5.112 5.112 0 0 0-1.271-3.666 4.678 4.678 0 0 0-3.571-1.347Zm-1.677 3.426a1.678 1.678 0 0 1 1.86-1.141 1.443 1.443 0 0 1 .82.331 1.245 1.245 0 0 1 .432.829Z"/>
    <path d="M108.284 168.401a6.23 6.23 0 0 0-1.842.3 6.485 6.485 0 0 0-1.639.756v-.94l-3.3.054v9.82h3.334l-.018-5.361a1.63 1.63 0 0 1 .506-1.123 1.538 1.538 0 0 1 .986-.331 1.174 1.174 0 0 1 1.059.57 3.761 3.761 0 0 1 .359 1.916l-.018 4.329h3.372l.111-6.5a3.658 3.658 0 0 0-.757-2.569 2.709 2.709 0 0 0-2.153-.921Z"/>
    <path d="M117.477 171.572a1.591 1.591 0 0 1 .968.321 1.661 1.661 0 0 1 .6.856l3.093-.274a3.267 3.267 0 0 0-.717-2.027 5.082 5.082 0 0 0-1.87-1.492 5.349 5.349 0 0 0-2.35-.553 4.72 4.72 0 0 0-2.459.663 4.945 4.945 0 0 0-2.422 4.293 5.057 5.057 0 0 0 .681 2.551 5.28 5.28 0 0 0 1.842 1.9 4.71 4.71 0 0 0 2.505.709 5.272 5.272 0 0 0 4.06-2.017 3.13 3.13 0 0 0 .691-1.925l-3.057-.295a1.59 1.59 0 0 1-.617.7 1.669 1.669 0 0 1-.912.277 1.763 1.763 0 0 1-.932-.277 2.246 2.246 0 0 1-.727-.718 1.7 1.7 0 0 1-.277-.9 1.666 1.666 0 0 1 .581-1.244 1.876 1.876 0 0 1 1.319-.548Z"/>
    <path d="M132.721 169.545a3.3 3.3 0 0 0-2.7-1.235 4.456 4.456 0 0 0-1.786.386 4.064 4.064 0 0 0-1.438 1.015l-.092-6.172h-3.5l.259 14.775 3.463.055-.074-5.434a1.817 1.817 0 0 1 1.809-1.362 1.721 1.721 0 0 1 1.251.44 1.6 1.6 0 0 1 .462 1.217v5.158h3.408l-.036-5.508a5.2 5.2 0 0 0-1.026-3.335Z"/>
    <path d="M147.783 167.98a3.2 3.2 0 0 1 1.952.607 2.942 2.942 0 0 1 1.105 1.4l3.206-.978a6.173 6.173 0 0 0-1.325-2.6 5.94 5.94 0 0 0-2.221-1.593 6.957 6.957 0 0 0-2.661-.526 6.794 6.794 0 0 0-3.51.95 7.024 7.024 0 0 0-2.551 2.561 6.91 6.91 0 0 0-.94 3.545 7.327 7.327 0 0 0 3.381 6.181 6.19 6.19 0 0 0 3.38.986 6.837 6.837 0 0 0 5.1-2.358 4.929 4.929 0 0 0 1.141-2.376l-3-1.033a2.5 2.5 0 0 1-.562.932 3.611 3.611 0 0 1-1.1.819 3.164 3.164 0 0 1-1.438.332 3.211 3.211 0 0 1-1.6-.414 3.041 3.041 0 0 1-1.179-1.217 3.85 3.85 0 0 1-.442-1.888 3.2 3.2 0 0 1 .93-2.477 3.316 3.316 0 0 1 2.334-.853Z"/>
    <path d="M162.87 168.983a6.045 6.045 0 0 0-2.764-.6 5.511 5.511 0 0 0-2.4.571 5.071 5.071 0 0 0-1.971 1.677 4.413 4.413 0 0 0-.783 2.616 5.093 5.093 0 0 0 .691 2.571 5.28 5.28 0 0 0 1.888 1.925 5.024 5.024 0 0 0 2.636.717 5.187 5.187 0 0 0 2.625-.681 4.943 4.943 0 0 0 1.869-1.87 5.212 5.212 0 0 0 .681-2.645 5.029 5.029 0 0 0-.644-2.579 4.343 4.343 0 0 0-1.828-1.702Zm-1.318 5.851a1.753 1.753 0 0 1-1.28.5 2.02 2.02 0 0 1-1.454-.545 1.814 1.814 0 0 1-.571-1.371 1.868 1.868 0 0 1 .544-1.364 1.848 1.848 0 0 1 1.372-.553 1.75 1.75 0 0 1 1.418.571 2.1 2.1 0 0 1 .48 1.4 1.816 1.816 0 0 1-.509 1.36Z"/>
    <path d="M173.187 172.898v-.02a2.529 2.529 0 0 1-.432 1.521 1.534 1.534 0 0 1-2.154.278 1.251 1.251 0 0 1-.112-.1 1.7 1.7 0 0 1-.378-1.189l.018-4.881h-3.408l-.059 5.071a5.891 5.891 0 0 0 .922 3.694 3.363 3.363 0 0 0 2.856 1.263 3.929 3.929 0 0 0 1.547-.3 3.128 3.128 0 0 0 1.179-.837v.9h3.5v-9.744h-3.463Z"/>
    <path d="M183.078 171.572a1.584 1.584 0 0 1 .968.321 1.662 1.662 0 0 1 .6.856l3.1-.274a3.263 3.263 0 0 0-.719-2.027 5.045 5.045 0 0 0-1.87-1.492 5.368 5.368 0 0 0-2.348-.553 4.711 4.711 0 0 0-2.459.663 4.952 4.952 0 0 0-2.423 4.293 5.049 5.049 0 0 0 .683 2.551 5.248 5.248 0 0 0 1.842 1.9 4.708 4.708 0 0 0 2.505.709 5.267 5.267 0 0 0 4.059-2.017 3.118 3.118 0 0 0 .691-1.925l-3.057-.295a1.567 1.567 0 0 1-.617.7 1.669 1.669 0 0 1-.912.277 1.753 1.753 0 0 1-.929-.277 2.217 2.217 0 0 1-.73-.718 1.7 1.7 0 0 1-.274-.9 1.663 1.663 0 0 1 .579-1.244 1.878 1.878 0 0 1 1.311-.548Z"/>
    <path d="M198.322 169.545a3.3 3.3 0 0 0-2.7-1.235 4.453 4.453 0 0 0-1.786.386 4.047 4.047 0 0 0-1.438 1.015l-.092-6.172h-3.5l.259 14.775 3.463.055-.074-5.434a1.817 1.817 0 0 1 1.806-1.362 1.721 1.721 0 0 1 1.251.44 1.6 1.6 0 0 1 .462 1.217v5.158h3.411l-.036-5.508a5.2 5.2 0 0 0-1.026-3.335Z"/>
    <path d="M205.462 168.495a5.459 5.459 0 0 0-2.423.534 4.548 4.548 0 0 0-1.768 1.492 4.144 4.144 0 0 0-.747 2.173 4.295 4.295 0 0 0-.018.424 5.5 5.5 0 0 0 .635 2.617 5.333 5.333 0 0 0 1.713 1.934 4.683 4.683 0 0 0 2.35.829 2.4 2.4 0 0 0 .369.02 5.123 5.123 0 0 0 1.962-.388 4.81 4.81 0 0 0 1.631-1.076 3.569 3.569 0 0 0 .92-1.556l-2.635-.756a2.184 2.184 0 0 1-2.137.866 1.412 1.412 0 0 1-.93-.433 2.68 2.68 0 0 1-.617-1.005l6.522-.074c.011-.134.018-.331.018-.588a5.125 5.125 0 0 0-1.27-3.671 4.68 4.68 0 0 0-3.575-1.342Zm-1.678 3.426a1.68 1.68 0 0 1 1.862-1.141 1.442 1.442 0 0 1 .819.331 1.241 1.241 0 0 1 .434.829Z"/>
  </g>
  <path d="M192.777 46.485a.791.791 0 0 1-.123-.028 1.494 1.494 0 0 1-1.134-1.783l.007-.029 11.5-43.557a1.581 1.581 0 0 1 1.882-1.041 1.5 1.5 0 0 1 1.135 1.793v.017l-11.505 43.56a1.522 1.522 0 0 1-1.762 1.068" fill="#fff"/>
  <g transform="translate(-168.338 -335.146)">
    <path data-name="Tracé 2859" d="M405.53 370.73c-.5-1.944 2.764-6.086 3.83-7.934 1.982-3.423 3.661-6.339 4.66-10.078.393-1.431.977-3.143.267-4.172-.884-1.242-4.5-2.252-5.855-2.98-2.211-1.175-9.346-5.4-11.743-3.3-1.41 1.214-1.613 6.318-1.993 8.082a48.707 48.707 0 0 1-2.343 8.018 45.471 45.471 0 0 0-2.894 9.741c4.507 2.3 11.153 2.137 16.192 3.076" fill="#ea6c62"/>
    <path data-name="Tracé 2860" d="M366.86 336.09c.357 1.973-3.2 5.858-4.391 7.621a40.9 40.9 0 0 0-5.4 9.711c-.485 1.4-1.211 3.06-.572 4.143.775 1.3 4.306 2.563 5.626 3.4 2.094 1.33 8.91 6.083 11.461 4.156 1.508-1.1 2.079-6.167 2.582-7.9a47.77 47.77 0 0 1 2.938-7.824 45.627 45.627 0 0 0 3.6-9.489c-4.318-2.631-10.973-2.956-15.918-4.274" fill="#6ec6e9"/>
  </g>
</svg>