<svg xmlns="http://www.w3.org/2000/svg" xmlns:xlink="http://www.w3.org/1999/xlink" width="401.511" height="26.305" xml:space="preserve"><path fill="white" d="M37.878.757h2.62v25.124h-2.62zM86.354.757h2.62v25.124h-2.62z"/><path d="M109.663.588 99.09 25.881h2.806l3.474-8.368h10.13l3.476 8.368h2.907L111.273.588h-1.61zm4.848 14.542h-8.153l3.423-8.276c.193-.448.394-.964.601-1.547.171.399.4.912.704 1.573l3.425 8.25zM186.227.757h-2.62v25.124h14.721v-2.485h-12.101zM217.305.588l-10.573 25.293h2.806l3.476-8.368h10.129l3.476 8.368h2.907L218.916.588h-1.611zm4.848 14.542H214l3.422-8.275c.195-.449.396-.965.603-1.549.172.4.399.914.704 1.574l3.424 8.25zM299.341 13.431h9.671v-2.384h-9.671V3.174h12.581V.757h-15.201v25.124h15.572v-2.417h-12.952zM388.558 23.464V13.431h9.671v-2.384h-9.671V3.174h12.582V.757h-15.202v25.124h15.573v-2.417zM143.225 13.787 133.158.757h-2.175v24.691h2.651V5.707l9.591 12.414 9.592-12.415v19.742h2.65V.757h-2.175zM12.242 13.787 2.175.757H0v24.691h2.651V5.707l9.591 12.414 9.591-12.414v19.741h2.651V.757h-2.175zM72.229 21.741c-.355-.398-1.148-1.395-2.357-2.959a182.903 182.903 0 0 1-2.779-3.677c.895-.63 1.685-1.228 2.474-2.391.922-1.358 1.472-3.1 1.472-4.66 0-2.375-.835-4.296-2.415-5.554-1.569-1.247-3.581-1.879-5.98-1.879h-8.865V25.88h2.619v-9.718h8.252c2.988 4.097 4.898 6.588 5.68 7.404.816.852 1.69 1.495 2.598 1.913.913.421 2.105.646 3.541.67l.493.008.062-2.03-.455-.054c-1.604-.186-3.067-.974-4.34-2.332m-3.81-13.603c0 1.788-.835 3.139-1.536 3.956-.84.981-2.111 1.72-2.957 1.72h-7.528V3.073h6.043c1.79 0 3.237.414 4.302 1.229 1.033.794 1.676 2.264 1.676 3.836M341.211 21.741c-.354-.398-1.147-1.395-2.356-2.959a182.903 182.903 0 0 1-2.779-3.677c.896-.63 1.686-1.228 2.475-2.391.922-1.358 1.472-3.1 1.472-4.66 0-2.375-.835-4.296-2.415-5.554-1.569-1.247-3.581-1.879-5.98-1.879h-8.864V25.88h2.619v-9.718h8.252c2.987 4.097 4.897 6.588 5.68 7.404.815.852 1.689 1.495 2.598 1.913.913.421 2.105.646 3.541.67l.493.008.062-2.03-.455-.054c-1.607-.186-3.07-.974-4.343-2.332m-3.81-13.603c0 1.788-.835 3.139-1.536 3.956-.839.981-2.111 1.72-2.957 1.72h-7.527V3.073h6.043c1.789 0 3.236.414 4.302 1.229 1.033.794 1.675 2.264 1.675 3.836M373.155 21.741c-.354-.398-1.147-1.395-2.356-2.959a182.903 182.903 0 0 1-2.779-3.677c.896-.63 1.686-1.228 2.475-2.391.922-1.358 1.472-3.1 1.472-4.66 0-2.375-.835-4.296-2.415-5.554-1.569-1.247-3.581-1.879-5.98-1.879h-8.864V25.88h2.618v-9.718h8.253c2.987 4.097 4.897 6.588 5.68 7.404.815.852 1.689 1.495 2.598 1.913.913.421 2.105.646 3.541.67l.493.008.062-2.03-.455-.054c-1.606-.186-3.069-.974-4.343-2.332m-3.809-13.603c0 1.788-.835 3.139-1.536 3.956-.839.981-2.111 1.72-2.957 1.72h-7.528V3.073h6.043c1.79 0 3.237.414 4.303 1.229 1.032.794 1.675 2.264 1.675 3.836M248.354 11.816c-6.356-1.302-6.874-3.031-6.874-5.063 0-2.458 2.365-4.242 5.622-4.242 2.465 0 4.472.666 6.404 2.125l1.562-2.179C252.627.708 250.331 0 247.173 0c-4.777 0-8.379 2.979-8.379 7.001 0 3.941 2.597 6.149 8.685 7.38 6.158 1.239 6.659 2.931 6.659 4.923 0 2.644-2.399 4.489-5.833 4.489-3.247 0-5.678-.977-8.32-3.333l-1.559 2.177c2.994 2.521 6.029 3.667 9.771 3.667 5.08 0 8.627-2.951 8.627-7.248 0-3.865-2.533-6.03-8.47-7.24M276.712 11.816c-6.356-1.302-6.874-3.031-6.874-5.063 0-2.458 2.365-4.242 5.622-4.242 2.465 0 4.472.666 6.404 2.125l1.562-2.179C280.984.708 278.688 0 275.53 0c-4.777 0-8.379 2.979-8.379 7.001 0 3.941 2.597 6.149 8.685 7.38 6.158 1.239 6.659 2.931 6.659 4.923 0 2.644-2.399 4.489-5.833 4.489-3.247 0-5.678-.977-8.32-3.333l-1.559 2.177c2.994 2.521 6.029 3.667 9.771 3.667 5.08 0 8.627-2.951 8.627-7.248.001-3.865-2.533-6.03-8.469-7.24" fill="white" /></svg>