<svg width="400" height="400" viewBox="0 0 400 400" fill="none" xmlns="http://www.w3.org/2000/svg">
<rect x="0.5" y="0.5" width="399" height="399" fill="#012F02"/>
<path fill-rule="evenodd" clip-rule="evenodd" d="M207.554 114.095C209.319 113.886 210.917 114.286 212.347 115.298C234.535 133.331 256.62 151.491 278.601 169.777C279.886 172.351 279.372 174.471 277.06 176.136C274.57 176.971 272.401 176.456 270.555 174.589C270.212 191.428 270.098 208.272 270.212 225.115C277.325 224.13 282.632 226.766 286.134 233.02C287.972 237.561 287.63 241.914 285.107 246.081C265.996 266.192 242.884 279.54 215.771 286.124C208.401 287.88 200.983 288.224 193.515 287.155C187.767 285.995 182.147 284.268 176.738 281.999L160.645 274.609C159.559 274.839 158.518 275.245 157.563 275.812C152.254 279.223 146.889 282.546 141.471 285.78C138.674 286.41 136.677 285.436 135.479 282.859C128.312 269.502 121.236 256.097 114.25 242.644C113.726 240.318 114.468 238.542 116.476 237.317C124.655 233.671 132.302 229.203 139.416 223.912C142.074 222.435 144.757 221.002 147.463 219.615C147.748 204.605 147.691 189.596 147.291 174.589C144.879 176.874 142.311 177.103 139.587 175.276C138.338 173.7 138.109 171.981 138.903 170.121C154.948 156.647 171.099 143.299 187.352 130.078C194.03 124.68 200.764 119.352 207.554 114.095ZM208.581 124.407C226.262 138.482 243.839 152.689 261.31 167.027C261.766 187.762 261.766 208.504 261.31 229.239C252.233 234.132 243.445 239.345 234.945 244.878C236.428 240.121 235.002 236.512 230.665 234.051L230.323 194.524C228.202 183.802 221.753 177.673 210.978 176.136C197.998 176.092 190.18 182.451 187.523 195.212C187.466 203.119 187.295 211.025 187.01 218.928C177.077 214.405 166.862 213.603 156.365 216.522C156.08 200.023 156.137 183.524 156.536 167.027C173.984 152.944 191.333 138.737 208.581 124.407ZM207.554 184.557C214.96 184.574 219.697 188.126 221.763 195.212C221.934 207.356 221.991 219.5 221.934 231.645C214.08 231.493 206.433 230.175 198.994 227.693C197.94 227.203 196.96 226.567 196.083 225.802C195.751 215.376 195.866 204.94 196.426 194.524C198.284 189.046 201.994 185.723 207.554 184.557ZM165.781 223.396C173.317 222.967 180.279 224.743 186.667 228.724C188.601 230.323 190.431 232.045 192.146 233.879C196.639 236.326 201.433 237.93 206.526 238.691C212.33 239.523 218.151 240.211 223.989 240.754C224.836 240.879 225.65 241.171 226.385 241.613C226.756 241.91 226.813 242.254 226.557 242.644C222.127 247.015 216.82 249.708 210.635 250.721C205.385 251.867 200.135 251.867 194.885 250.721C192.315 250.09 189.747 249.46 187.181 248.831C183.309 249.73 182.168 252.022 183.757 255.705C184.581 256.549 185.551 257.179 186.667 257.596C188.995 258.429 191.406 259.006 193.858 259.314C206.253 260.711 218.465 259.794 230.494 256.564C233.338 255.69 236.09 254.538 238.712 253.127C249.411 245.981 260.499 239.44 271.924 233.536C275.598 233.27 277.88 234.932 278.772 238.52C278.631 239.664 278.232 240.695 277.574 241.613C259.485 259.891 237.857 271.978 212.689 277.875C207.139 279.131 201.546 279.475 195.912 278.906C191.105 278.015 186.401 276.633 181.874 274.781C176.16 272.413 170.561 269.775 165.096 266.876C162.965 266.066 160.796 265.894 158.591 266.36C152.386 255.627 146.449 244.739 140.786 233.708C148.253 228.117 156.584 224.68 165.781 223.396ZM132.226 238.863C132.679 238.805 133.078 238.919 133.424 239.207C139.004 249.437 144.54 259.691 150.031 269.969C147.327 271.995 144.528 273.887 141.642 275.641C135.788 264.92 130.024 254.15 124.351 243.332C126.925 241.754 129.552 240.263 132.226 238.863Z" fill="white"/>
<rect x="0.5" y="0.5" width="399" height="399" stroke="black"/>
</svg>
