<svg width="400" height="400" viewBox="0 0 400 400" fill="none" xmlns="http://www.w3.org/2000/svg">
<rect x="0.5" y="0.5" width="399" height="399" fill="#045fae"/>
<path d="M154.342 110.399C128.158 112.986 106.999 132.202 101.361 158.522C100.422 162.833 100.34 177.368 101.198 181.228C102.301 186.36 104.548 193.792 105.936 197.036C106.713 198.884 107.366 200.485 107.366 200.567C107.366 200.649 105.691 200.732 103.649 200.732C99.1965 200.732 97.5218 201.388 96.5414 203.483C95.6019 205.412 96.0104 207.383 97.6035 208.697L98.8697 209.765H125.544C145.314 209.765 152.544 209.642 153.32 209.272C154.056 208.944 155.649 206.685 158.386 202.045L162.43 195.353L164.635 198.761C165.861 200.649 169.578 206.398 172.927 211.612C176.236 216.786 179.463 221.549 179.994 222.165C181.996 224.382 185.836 223.931 187.143 221.385C187.469 220.769 191.35 210.34 195.802 198.268C200.214 186.196 203.972 176.178 204.135 175.972C204.299 175.808 206.995 182.542 210.099 190.959C213.204 199.377 215.981 206.767 216.267 207.383C217.493 209.806 217.166 209.765 235.139 209.765H251.642L253.031 208.369C254.624 206.767 254.91 204.714 253.725 202.908C252.377 200.855 251.479 200.732 236.937 200.732H223.498L217.452 184.39C208.506 160.328 208.261 159.63 207.117 158.563C206.382 157.865 205.606 157.618 204.34 157.618C200.908 157.618 201.194 157.043 191.268 184.061C186.367 197.529 182.2 208.533 182.077 208.533C181.955 208.533 178.197 202.867 173.744 195.969C169.292 189.07 165.207 183.158 164.717 182.788C163.369 181.926 161 182.008 159.693 182.994C159.121 183.404 156.343 187.592 153.565 192.273L148.5 200.732L133.141 200.649L117.782 200.526L115.863 196.626C110.634 185.991 108.387 173.057 109.98 162.628C111.614 151.829 116.434 142.344 124.318 134.378C138.656 119.802 160.019 115.449 179.259 123.128C185.264 125.509 190.492 129.081 196.415 134.871C202.461 140.784 203.033 140.784 208.833 134.912C211.121 132.613 214.388 129.779 216.063 128.63C224.805 122.553 234.649 119.432 245.065 119.432C269.738 119.432 290.489 136.76 295.104 161.232C295.881 165.42 296.003 174.207 295.309 178.148C294.573 182.337 292.122 190.959 290.734 194.244C284.116 209.888 266.184 230.09 239.714 251.687C231.259 258.585 215.124 270.534 206.137 276.488L202.583 278.828L196.211 274.476C175.215 260.105 158.1 246.267 143.313 231.732C139.595 228.078 136.123 224.793 135.551 224.423C134.203 223.479 132.038 223.561 130.65 224.546C129.302 225.532 128.403 227.831 128.811 229.392C129.342 231.609 145.437 246.965 158.426 257.641C168.23 265.73 180.035 274.558 191.718 282.523C200.377 288.436 201.725 289.175 203.359 288.806C204.789 288.477 213.735 282.647 222.721 276.159C265.449 245.405 292.449 217.032 300.415 194.531C302.008 190.015 304.132 181.064 304.704 176.752C306.338 163.408 302.62 148.421 294.696 136.513C291.714 131.997 285.383 125.304 281.053 122.101C262.916 108.633 238.897 106.375 218.882 116.353C213.449 119.022 207.281 123.333 204.421 126.371C203.727 127.069 203.033 127.644 202.828 127.644C202.624 127.644 201.317 126.659 199.928 125.468C189.757 116.558 178.238 111.59 165.085 110.44C159.815 109.947 158.917 109.947 154.342 110.399Z" fill="white"/>
</svg>
