<?xml version="1.0" standalone="no"?>
<!DOCTYPE svg PUBLIC "-//W3C//DTD SVG 20010904//EN"
 "http://www.w3.org/TR/2001/REC-SVG-20010904/DTD/svg10.dtd">
<svg version="1.0" xmlns="http://www.w3.org/2000/svg"
 width="1000.000000pt" height="1000.000000pt" viewBox="0 0 1000.000000 1000.000000"
 preserveAspectRatio="xMidYMid meet">
<metadata>
Created by potrace 1.14, written by Peter Selinger 2001-2017
</metadata>
<g transform="translate(0.000000,1000.000000) scale(0.100000,-0.100000)"
fill="#000000" stroke="none">
<path d="M0 5000 l0 -5000 5000 0 5000 0 0 5000 0 5000 -5000 0 -5000 0 0
-5000z m3850 45 l0 -2795 -460 0 -460 0 0 2245 c0 1235 -4 2245 -8 2245 -5 0
-94 -29 -198 -64 -104 -35 -408 -139 -676 -230 l-488 -165 0 382 0 382 1088
397 c951 348 1094 397 1145 398 l57 0 0 -2795z m4420 2385 l0 -390 -1120 0
c-707 0 -1120 -4 -1120 -10 0 -5 -34 -309 -75 -676 -41 -367 -73 -669 -71
-671 1 -2 45 17 97 41 273 129 560 186 869 173 298 -13 558 -82 785 -207 412
-229 686 -652 779 -1205 100 -596 -9 -1195 -295 -1617 -85 -126 -276 -316
-399 -397 -305 -203 -660 -301 -1090 -301 -871 0 -1558 453 -1765 1166 -28 97
-61 277 -67 364 l-3 55 450 0 449 0 9 -40 c61 -293 130 -439 271 -572 123
-118 258 -186 432 -219 126 -23 378 -15 484 15 271 80 473 299 564 614 43 147
58 253 63 447 4 138 1 210 -11 285 -71 465 -314 758 -708 856 -226 55 -592 28
-761 -58 -72 -36 -211 -132 -280 -193 l-57 -52 -360 88 c-198 48 -364 90 -369
94 -5 3 60 634 143 1403 l151 1397 1502 0 1503 0 0 -390z"/>
</g>
</svg>
